<svg xmlns="http://www.w3.org/2000/svg" viewBox="0 0 498 250" width="498" style="max-width:100%;height:auto;font-family:'JetBrains Mono',monospace;">
  <rect x="0" y="0" width="100%" height="100%" fill="#faf8f4"/>
  <text x="81" y="64" font-size="12" font-weight="700" fill="#1d1b17" text-anchor="middle">粗い刻み</text><line x1="18" y1="178" x2="144" y2="178" stroke="#e1dacb"/><polyline points="18.0,176.7 20.1,176.3 22.2,175.7 24.3,175.0 26.4,174.2 28.5,173.1 30.6,171.8 32.7,170.2 34.8,168.3 36.9,166.1 39.0,163.5 41.1,160.5 43.2,157.0 45.3,153.2 47.4,148.9 49.5,144.2 51.6,139.1 53.7,133.7 55.8,128.1 57.9,122.2 60.0,116.3 62.1,110.3 64.2,104.6 66.3,99.0 68.4,93.9 70.5,89.4 72.6,85.4 74.7,82.2 76.8,79.9 78.9,78.5 81.0,78.0 83.1,78.5 85.2,79.9 87.3,82.2 89.4,85.4 91.5,89.4 93.6,93.9 95.7,99.0 97.8,104.6 99.9,110.3 102.0,116.3 104.1,122.2 106.2,128.1 108.3,133.7 110.4,139.1 112.5,144.2 114.6,148.9 116.7,153.2 118.8,157.0 120.9,160.5 123.0,163.5 125.1,166.1 127.2,168.3 129.3,170.2 131.4,171.8 133.5,173.1 135.6,174.2 137.7,175.0 139.8,175.7 141.9,176.3 144.0,176.7" fill="none" stroke="#cfc9be" stroke-width="1" stroke-dasharray="3 3"/><rect x="18.0" y="173.1" width="20.0" height="4.9" fill="rgba(60,120,118,.18)" stroke="#3c7876" stroke-width="0.8"/><circle cx="28.5" cy="173.1" r="2" fill="#3c7876"/><rect x="39.0" y="144.2" width="20.0" height="33.8" fill="rgba(60,120,118,.18)" stroke="#3c7876" stroke-width="0.8"/><circle cx="49.5" cy="144.2" r="2" fill="#3c7876"/><rect x="60.0" y="89.4" width="20.0" height="88.6" fill="rgba(60,120,118,.18)" stroke="#3c7876" stroke-width="0.8"/><circle cx="70.5" cy="89.4" r="2" fill="#3c7876"/><rect x="81.0" y="89.4" width="20.0" height="88.6" fill="rgba(60,120,118,.18)" stroke="#3c7876" stroke-width="0.8"/><circle cx="91.5" cy="89.4" r="2" fill="#3c7876"/><rect x="102.0" y="144.2" width="20.0" height="33.8" fill="rgba(60,120,118,.18)" stroke="#3c7876" stroke-width="0.8"/><circle cx="112.5" cy="144.2" r="2" fill="#3c7876"/><rect x="123.0" y="173.1" width="20.0" height="4.9" fill="rgba(60,120,118,.18)" stroke="#3c7876" stroke-width="0.8"/><circle cx="133.5" cy="173.1" r="2" fill="#3c7876"/>
  <text x="165" y="128" font-size="22" fill="#7d7568" text-anchor="middle">→</text>
  <text x="249" y="64" font-size="12" font-weight="700" fill="#1d1b17" text-anchor="middle">細かく</text><line x1="186" y1="178" x2="312" y2="178" stroke="#e1dacb"/><polyline points="186.0,176.7 188.1,176.3 190.2,175.7 192.3,175.0 194.4,174.2 196.5,173.1 198.6,171.8 200.7,170.2 202.8,168.3 204.9,166.1 207.0,163.5 209.1,160.5 211.2,157.0 213.3,153.2 215.4,148.9 217.5,144.2 219.6,139.1 221.7,133.7 223.8,128.1 225.9,122.2 228.0,116.3 230.1,110.3 232.2,104.6 234.3,99.0 236.4,93.9 238.5,89.4 240.6,85.4 242.7,82.2 244.8,79.9 246.9,78.5 249.0,78.0 251.1,78.5 253.2,79.9 255.3,82.2 257.4,85.4 259.5,89.4 261.6,93.9 263.7,99.0 265.8,104.6 267.9,110.3 270.0,116.3 272.1,122.2 274.2,128.1 276.3,133.7 278.4,139.1 280.5,144.2 282.6,148.9 284.7,153.2 286.8,157.0 288.9,160.5 291.0,163.5 293.1,166.1 295.2,168.3 297.3,170.2 299.4,171.8 301.5,173.1 303.6,174.2 305.7,175.0 307.8,175.7 309.9,176.3 312.0,176.7" fill="none" stroke="#cfc9be" stroke-width="1" stroke-dasharray="3 3"/><rect x="186.0" y="175.8" width="6.9" height="2.2" fill="rgba(60,120,118,.18)" stroke="#3c7876" stroke-width="0.8"/><circle cx="189.9" cy="175.8" r="2" fill="#3c7876"/><rect x="193.9" y="172.3" width="6.9" height="5.7" fill="rgba(60,120,118,.18)" stroke="#3c7876" stroke-width="0.8"/><circle cx="197.8" cy="172.3" r="2" fill="#3c7876"/><rect x="201.8" y="165.1" width="6.9" height="12.9" fill="rgba(60,120,118,.18)" stroke="#3c7876" stroke-width="0.8"/><circle cx="205.7" cy="165.1" r="2" fill="#3c7876"/><rect x="209.6" y="152.7" width="6.9" height="25.3" fill="rgba(60,120,118,.18)" stroke="#3c7876" stroke-width="0.8"/><circle cx="213.6" cy="152.7" r="2" fill="#3c7876"/><rect x="217.5" y="134.4" width="6.9" height="43.6" fill="rgba(60,120,118,.18)" stroke="#3c7876" stroke-width="0.8"/><circle cx="221.4" cy="134.4" r="2" fill="#3c7876"/><rect x="225.4" y="112.5" width="6.9" height="65.5" fill="rgba(60,120,118,.18)" stroke="#3c7876" stroke-width="0.8"/><circle cx="229.3" cy="112.5" r="2" fill="#3c7876"/><rect x="233.3" y="92.2" width="6.9" height="85.8" fill="rgba(60,120,118,.18)" stroke="#3c7876" stroke-width="0.8"/><circle cx="237.2" cy="92.2" r="2" fill="#3c7876"/><rect x="241.1" y="79.7" width="6.9" height="98.3" fill="rgba(60,120,118,.18)" stroke="#3c7876" stroke-width="0.8"/><circle cx="245.1" cy="79.7" r="2" fill="#3c7876"/><rect x="249.0" y="79.7" width="6.9" height="98.3" fill="rgba(60,120,118,.18)" stroke="#3c7876" stroke-width="0.8"/><circle cx="252.9" cy="79.7" r="2" fill="#3c7876"/><rect x="256.9" y="92.2" width="6.9" height="85.8" fill="rgba(60,120,118,.18)" stroke="#3c7876" stroke-width="0.8"/><circle cx="260.8" cy="92.2" r="2" fill="#3c7876"/><rect x="264.8" y="112.5" width="6.9" height="65.5" fill="rgba(60,120,118,.18)" stroke="#3c7876" stroke-width="0.8"/><circle cx="268.7" cy="112.5" r="2" fill="#3c7876"/><rect x="272.6" y="134.4" width="6.9" height="43.6" fill="rgba(60,120,118,.18)" stroke="#3c7876" stroke-width="0.8"/><circle cx="276.6" cy="134.4" r="2" fill="#3c7876"/><rect x="280.5" y="152.7" width="6.9" height="25.3" fill="rgba(60,120,118,.18)" stroke="#3c7876" stroke-width="0.8"/><circle cx="284.4" cy="152.7" r="2" fill="#3c7876"/><rect x="288.4" y="165.1" width="6.9" height="12.9" fill="rgba(60,120,118,.18)" stroke="#3c7876" stroke-width="0.8"/><circle cx="292.3" cy="165.1" r="2" fill="#3c7876"/><rect x="296.3" y="172.3" width="6.9" height="5.7" fill="rgba(60,120,118,.18)" stroke="#3c7876" stroke-width="0.8"/><circle cx="300.2" cy="172.3" r="2" fill="#3c7876"/><rect x="304.1" y="175.8" width="6.9" height="2.2" fill="rgba(60,120,118,.18)" stroke="#3c7876" stroke-width="0.8"/><circle cx="308.1" cy="175.8" r="2" fill="#3c7876"/>
  <text x="333" y="128" font-size="22" fill="#7d7568" text-anchor="middle">→</text>
  <text x="417" y="64" font-size="12" font-weight="700" fill="#1d1b17" text-anchor="middle">極限：なめらか</text><line x1="354" y1="178" x2="480" y2="178" stroke="#e1dacb"/><polygon points="354,178 354.0,176.7 356.1,176.3 358.2,175.7 360.3,175.0 362.4,174.2 364.5,173.1 366.6,171.8 368.7,170.2 370.8,168.3 372.9,166.1 375.0,163.5 377.1,160.5 379.2,157.0 381.3,153.2 383.4,148.9 385.5,144.2 387.6,139.1 389.7,133.7 391.8,128.1 393.9,122.2 396.0,116.3 398.1,110.3 400.2,104.6 402.3,99.0 404.4,93.9 406.5,89.4 408.6,85.4 410.7,82.2 412.8,79.9 414.9,78.5 417.0,78.0 419.1,78.5 421.2,79.9 423.3,82.2 425.4,85.4 427.5,89.4 429.6,93.9 431.7,99.0 433.8,104.6 435.9,110.3 438.0,116.3 440.1,122.2 442.2,128.1 444.3,133.7 446.4,139.1 448.5,144.2 450.6,148.9 452.7,153.2 454.8,157.0 456.9,160.5 459.0,163.5 461.1,166.1 463.2,168.3 465.3,170.2 467.4,171.8 469.5,173.1 471.6,174.2 473.7,175.0 475.8,175.7 477.9,176.3 480.0,176.7 480,178" fill="rgba(60,120,118,.18)" stroke="#3c7876" stroke-width="2"/>
  <text x="249" y="222" font-size="12.5" fill="#1d1b17" text-anchor="middle">間隔 Δ→0：とびとびが、なめらかに。 <tspan font-weight="700">和（Σ）は積分（∫）に、差は微分に</tspan> 化ける。</text>
</svg>