M48
; DRILL file {KiCad 7.0.11+dfsg-1build4} date Thu Jul  2 05:59:42 2026
; FORMAT={-:-/ absolute / metric / decimal}
; #@! TF.CreationDate,2026-07-02T05:59:42+00:00
; #@! TF.GenerationSoftware,Kicad,Pcbnew,7.0.11+dfsg-1build4
; #@! TF.FileFunction,Plated,1,4,PTH
FMAT,2
METRIC
; #@! TA.AperFunction,Plated,PTH,ViaDrill
T1C0.200
; #@! TA.AperFunction,Plated,PTH,ComponentDrill
T2C0.200
; #@! TA.AperFunction,Plated,PTH,ViaDrill
T3C0.300
; #@! TA.AperFunction,Plated,PTH,ComponentDrill
T4C1.000
; #@! TA.AperFunction,Plated,PTH,ComponentDrill
T5C1.520
; #@! TA.AperFunction,Plated,PTH,ComponentDrill
T6C2.700
%
G90
G05
T1
X23.4Y-23.75
X24.0Y-23.25
X24.3Y-21.75
X24.6Y-22.75
X24.9Y-20.75
X26.4Y-17.2
X26.75Y-25.3
X29.25Y-15.1
T2
X26.55Y-20.55
X26.55Y-22.0
X26.55Y-23.45
X28.0Y-20.55
X28.0Y-22.0
X28.0Y-23.45
X29.45Y-20.55
X29.45Y-22.0
X29.45Y-23.45
T3
X6.6Y-13.5
X6.6Y-18.5
X8.5Y-27.4
X8.5Y-29.9
X9.4Y-19.3
X10.3Y-20.24
X10.3Y-22.78
X10.3Y-25.32
X11.0Y-27.9
X12.6Y-28.4
X18.3Y-21.25
X20.9Y-20.25
X21.0Y-22.25
X21.0Y-25.75
X22.54Y-33.1
X23.0Y-14.6
X25.45Y-30.7
X25.7Y-33.2
X26.75Y-30.9
X27.62Y-33.1
X28.75Y-32.4
X31.0Y-30.5
X31.5Y-19.6
X31.5Y-24.5
X32.1Y-29.3
X32.3Y-24.5
X32.5Y-13.0
X33.6Y-11.9
X34.2Y-30.5
X34.3Y-22.0
X35.1Y-21.9
X35.3Y-30.5
X35.5Y-3.55
X35.7Y-13.0
X36.3Y-3.55
X37.5Y-13.0
X38.7Y-30.5
X40.7Y-13.0
X41.0Y-3.0
X41.0Y-9.8
X41.8Y-3.0
X41.8Y-9.8
X47.0Y-4.0
X47.0Y-11.6
X47.8Y-4.0
X47.8Y-11.6
T4
X4.0Y-5.0
X4.0Y-7.54
X4.0Y-10.08
X4.0Y-12.62
X4.0Y-15.16
X4.0Y-17.7
X4.0Y-20.24
X4.0Y-22.78
X4.0Y-25.32
X4.0Y-27.86
X4.0Y-30.4
X4.0Y-32.94
X20.0Y-38.5
X22.54Y-38.5
X25.08Y-38.5
X27.62Y-38.5
X30.16Y-38.5
T5
X12.0Y-4.5
X17.08Y-4.5
X55.5Y-12.0
X55.5Y-17.08
X55.5Y-22.16
X55.5Y-27.24
T6
X3.2Y-38.8
X56.8Y-3.2
X56.8Y-38.8
M30
