%TF.GenerationSoftware,KiCad,Pcbnew,7.0.11+dfsg-1build4*%
%TF.CreationDate,2026-07-02T06:00:03+00:00*%
%TF.ProjectId,tmc5240-daughterboard,746d6335-3234-4302-9d64-617567687465,rev?*%
%TF.SameCoordinates,Original*%
%TF.FileFunction,Copper,L2,Inr*%
%TF.FilePolarity,Positive*%
%FSLAX46Y46*%
G04 Gerber Fmt 4.6, Leading zero omitted, Abs format (unit mm)*
G04 Created by KiCad (PCBNEW 7.0.11+dfsg-1build4) date 2026-07-02 06:00:03*
%MOMM*%
%LPD*%
G01*
G04 APERTURE LIST*
%TA.AperFunction,ComponentPad*%
%ADD10R,3.000000X3.000000*%
%TD*%
%TA.AperFunction,ComponentPad*%
%ADD11C,3.000000*%
%TD*%
%TA.AperFunction,ComponentPad*%
%ADD12C,5.400000*%
%TD*%
%TA.AperFunction,HeatsinkPad*%
%ADD13C,0.500000*%
%TD*%
%TA.AperFunction,ComponentPad*%
%ADD14R,1.700000X1.700000*%
%TD*%
%TA.AperFunction,ComponentPad*%
%ADD15O,1.700000X1.700000*%
%TD*%
%TA.AperFunction,ViaPad*%
%ADD16C,0.600000*%
%TD*%
%TA.AperFunction,ViaPad*%
%ADD17C,0.400000*%
%TD*%
G04 APERTURE END LIST*
D10*
%TO.N,OUT1A*%
%TO.C,J3*%
X55500000Y-12000000D03*
D11*
%TO.N,OUT2A*%
X55500000Y-17080000D03*
%TO.N,OUT2B*%
X55500000Y-22160000D03*
%TO.N,OUT1B*%
X55500000Y-27240000D03*
%TD*%
D12*
%TO.N,GND*%
%TO.C,H1*%
X3200000Y-38800000D03*
%TD*%
%TO.N,GND*%
%TO.C,H3*%
X56800000Y-3200000D03*
%TD*%
D13*
%TO.N,GND*%
%TO.C,U1*%
X26550000Y-20550000D03*
X26550000Y-22000000D03*
X26550000Y-23450000D03*
X28000000Y-20550000D03*
X28000000Y-22000000D03*
X28000000Y-23450000D03*
X29450000Y-20550000D03*
X29450000Y-22000000D03*
X29450000Y-23450000D03*
%TD*%
D12*
%TO.N,GND*%
%TO.C,H2*%
X56800000Y-38800000D03*
%TD*%
D14*
%TO.N,3V3*%
%TO.C,J4*%
X20000000Y-38500000D03*
D15*
%TO.N,ENCA*%
X22540000Y-38500000D03*
%TO.N,ENCB*%
X25080000Y-38500000D03*
%TO.N,ENCN*%
X27620000Y-38500000D03*
%TO.N,GND*%
X30160000Y-38500000D03*
%TD*%
D10*
%TO.N,+24V_IN*%
%TO.C,J2*%
X12000000Y-4500000D03*
D11*
%TO.N,GND*%
X17080000Y-4500000D03*
%TD*%
D14*
%TO.N,GND*%
%TO.C,J1*%
X4000000Y-5000000D03*
D15*
%TO.N,3V3*%
X4000000Y-7540000D03*
%TO.N,SCK*%
X4000000Y-10080000D03*
%TO.N,SDI*%
X4000000Y-12620000D03*
%TO.N,SDO*%
X4000000Y-15160000D03*
%TO.N,CSN*%
X4000000Y-17700000D03*
%TO.N,REFL*%
X4000000Y-20240000D03*
%TO.N,REFR*%
X4000000Y-22780000D03*
%TO.N,ENN*%
X4000000Y-25320000D03*
%TO.N,DIAG0*%
X4000000Y-27860000D03*
%TO.N,DIAG1*%
X4000000Y-30400000D03*
%TO.N,GND*%
X4000000Y-32940000D03*
%TD*%
D16*
%TO.N,VS*%
X41800000Y-3000000D03*
X41000000Y-3000000D03*
X32299999Y-24500000D03*
X31500000Y-19600000D03*
X34300000Y-22000000D03*
X36300000Y-3550000D03*
X32500000Y-13000000D03*
X35500000Y-3550000D03*
X47800000Y-4000000D03*
X32100000Y-29300000D03*
X35300000Y-30500000D03*
X31000000Y-30500000D03*
X47000000Y-4000000D03*
X37500000Y-13000000D03*
X35100000Y-21900000D03*
X31500000Y-24500000D03*
%TO.N,GND*%
X35700000Y-13000000D03*
X41000000Y-9800000D03*
X33600000Y-11900000D03*
X22540000Y-33100000D03*
D17*
X24300000Y-21750000D03*
D16*
X40700000Y-13000000D03*
X10300000Y-20240000D03*
X47800000Y-11600000D03*
X18300000Y-21250000D03*
X21000000Y-25750000D03*
D17*
X24900000Y-20750000D03*
D16*
X47000000Y-11600000D03*
X27620000Y-33100000D03*
X20900000Y-20250000D03*
D17*
X26400000Y-17200000D03*
D16*
X41800000Y-9800000D03*
X25450000Y-30700000D03*
X34200000Y-30500000D03*
X25700000Y-33200000D03*
X38700000Y-30500000D03*
X10300000Y-22780000D03*
%TO.N,3V3*%
X23000000Y-14600000D03*
X8500000Y-29900000D03*
X28750000Y-32400000D03*
X6600000Y-13500000D03*
X21000000Y-22250000D03*
X10300000Y-25320000D03*
X8500000Y-27400000D03*
D17*
%TO.N,CSN*%
X29250000Y-15100000D03*
D16*
%TO.N,DIAG0*%
X11000000Y-27900000D03*
%TO.N,DIAG1*%
X12600000Y-28400000D03*
%TO.N,REFL*%
X6600000Y-18500000D03*
%TO.N,REFR*%
X9400000Y-19300000D03*
D17*
%TO.N,ENCA*%
X23400000Y-23750000D03*
%TO.N,ENCB*%
X24000000Y-23250000D03*
%TO.N,ENCN*%
X24600000Y-22750000D03*
D16*
%TO.N,UART_EN*%
X26750000Y-30900000D03*
D17*
X26750000Y-25300000D03*
%TD*%
%TA.AperFunction,Conductor*%
%TO.N,GND*%
G36*
X2161890Y-39671078D02*
G01*
X2328922Y-39838110D01*
X2397037Y-39885804D01*
X1259861Y-41022981D01*
X1435398Y-41170273D01*
X1660441Y-41318287D01*
X1698668Y-41366060D01*
X1701515Y-41427179D01*
X1667893Y-41478299D01*
X1610645Y-41499893D01*
X1606039Y-41500000D01*
X599000Y-41500000D01*
X540809Y-41481093D01*
X504845Y-41431593D01*
X500000Y-41401000D01*
X500000Y-40392935D01*
X518907Y-40334744D01*
X568407Y-40298780D01*
X629593Y-40298780D01*
X679093Y-40334744D01*
X684737Y-40343435D01*
X731133Y-40423796D01*
X731135Y-40423799D01*
X936342Y-40699440D01*
X975844Y-40741310D01*
X2114193Y-39602960D01*
X2161890Y-39671078D01*
G37*
%TD.AperFunction*%
%TA.AperFunction,Conductor*%
G36*
X55264230Y-518907D02*
G01*
X55300194Y-568407D01*
X55300194Y-629593D01*
X55264230Y-679093D01*
X55260441Y-681713D01*
X55035398Y-829726D01*
X54859861Y-977017D01*
X55997038Y-2114194D01*
X55928922Y-2161890D01*
X55761890Y-2328922D01*
X55714194Y-2397037D01*
X54575844Y-1258688D01*
X54575843Y-1258688D01*
X54536349Y-1300550D01*
X54536335Y-1300568D01*
X54331135Y-1576200D01*
X54331125Y-1576215D01*
X54159323Y-1873785D01*
X54159313Y-1873805D01*
X54023209Y-2189329D01*
X54023208Y-2189331D01*
X53924652Y-2518534D01*
X53864982Y-2856943D01*
X53845001Y-3200000D01*
X53864982Y-3543056D01*
X53924652Y-3881465D01*
X54023208Y-4210668D01*
X54023209Y-4210670D01*
X54159313Y-4526194D01*
X54159323Y-4526214D01*
X54331125Y-4823784D01*
X54331135Y-4823799D01*
X54536342Y-5099440D01*
X54575844Y-5141310D01*
X55714193Y-4002960D01*
X55761890Y-4071078D01*
X55928922Y-4238110D01*
X55997037Y-4285804D01*
X54859861Y-5422981D01*
X55035398Y-5570273D01*
X55322498Y-5759103D01*
X55629582Y-5913326D01*
X55629586Y-5913327D01*
X55952501Y-6030859D01*
X56286859Y-6110104D01*
X56628185Y-6150000D01*
X56971815Y-6150000D01*
X57313140Y-6110104D01*
X57647498Y-6030859D01*
X57970413Y-5913327D01*
X57970417Y-5913326D01*
X58277501Y-5759103D01*
X58564606Y-5570270D01*
X58740137Y-5422981D01*
X57602961Y-4285805D01*
X57671078Y-4238110D01*
X57838110Y-4071078D01*
X57885805Y-4002961D01*
X59024154Y-5141310D01*
X59063659Y-5099438D01*
X59063663Y-5099432D01*
X59268864Y-4823799D01*
X59268866Y-4823796D01*
X59315263Y-4743435D01*
X59360733Y-4702494D01*
X59421583Y-4696098D01*
X59474571Y-4726691D01*
X59499458Y-4782587D01*
X59500000Y-4792935D01*
X59500000Y-37207064D01*
X59481093Y-37265255D01*
X59431593Y-37301219D01*
X59370407Y-37301219D01*
X59320907Y-37265255D01*
X59315264Y-37256564D01*
X59268874Y-37176215D01*
X59268864Y-37176200D01*
X59063657Y-36900559D01*
X59024154Y-36858688D01*
X57885804Y-37997037D01*
X57838110Y-37928922D01*
X57671078Y-37761890D01*
X57602960Y-37714193D01*
X58740137Y-36577017D01*
X58564601Y-36429726D01*
X58277501Y-36240896D01*
X57970417Y-36086673D01*
X57970413Y-36086672D01*
X57647498Y-35969140D01*
X57313140Y-35889895D01*
X56971815Y-35850000D01*
X56628185Y-35850000D01*
X56286859Y-35889895D01*
X55952501Y-35969140D01*
X55629586Y-36086672D01*
X55629582Y-36086673D01*
X55322498Y-36240896D01*
X55035398Y-36429726D01*
X54859861Y-36577017D01*
X55997038Y-37714194D01*
X55928922Y-37761890D01*
X55761890Y-37928922D01*
X55714194Y-37997037D01*
X54575844Y-36858688D01*
X54575843Y-36858688D01*
X54536349Y-36900550D01*
X54536335Y-36900568D01*
X54331135Y-37176200D01*
X54331125Y-37176215D01*
X54159323Y-37473785D01*
X54159313Y-37473805D01*
X54023209Y-37789329D01*
X54023208Y-37789331D01*
X53924652Y-38118534D01*
X53864982Y-38456943D01*
X53845001Y-38800000D01*
X53864982Y-39143056D01*
X53924652Y-39481465D01*
X54023208Y-39810668D01*
X54023209Y-39810670D01*
X54159313Y-40126194D01*
X54159323Y-40126214D01*
X54331125Y-40423784D01*
X54331135Y-40423799D01*
X54536342Y-40699440D01*
X54575844Y-40741310D01*
X55714193Y-39602960D01*
X55761890Y-39671078D01*
X55928922Y-39838110D01*
X55997037Y-39885804D01*
X54859861Y-41022981D01*
X55035398Y-41170273D01*
X55260441Y-41318287D01*
X55298668Y-41366060D01*
X55301515Y-41427179D01*
X55267893Y-41478299D01*
X55210645Y-41499893D01*
X55206039Y-41500000D01*
X4793961Y-41500000D01*
X4735770Y-41481093D01*
X4699806Y-41431593D01*
X4699806Y-41370407D01*
X4735770Y-41320907D01*
X4739559Y-41318287D01*
X4964606Y-41170270D01*
X5140137Y-41022981D01*
X4002961Y-39885805D01*
X4071078Y-39838110D01*
X4238110Y-39671078D01*
X4285805Y-39602961D01*
X5424154Y-40741310D01*
X5463659Y-40699438D01*
X5463663Y-40699432D01*
X5668864Y-40423799D01*
X5668874Y-40423784D01*
X5840676Y-40126214D01*
X5840686Y-40126194D01*
X5976790Y-39810670D01*
X5976791Y-39810668D01*
X6075347Y-39481465D01*
X6090618Y-39394860D01*
X18849500Y-39394860D01*
X18849501Y-39394863D01*
X18852414Y-39419990D01*
X18853325Y-39422053D01*
X18897794Y-39522765D01*
X18977235Y-39602206D01*
X19080009Y-39647585D01*
X19105135Y-39650500D01*
X20894864Y-39650499D01*
X20919991Y-39647585D01*
X21022765Y-39602206D01*
X21102206Y-39522765D01*
X21147585Y-39419991D01*
X21150500Y-39394865D01*
X21150499Y-38500000D01*
X21384571Y-38500000D01*
X21404244Y-38712310D01*
X21462595Y-38917389D01*
X21557634Y-39108255D01*
X21686128Y-39278407D01*
X21686135Y-39278413D01*
X21843692Y-39422047D01*
X21843699Y-39422053D01*
X21933375Y-39477578D01*
X22024981Y-39534298D01*
X22223802Y-39611321D01*
X22433390Y-39650500D01*
X22646610Y-39650500D01*
X22856198Y-39611321D01*
X23055019Y-39534298D01*
X23236302Y-39422052D01*
X23393872Y-39278407D01*
X23522366Y-39108255D01*
X23617405Y-38917389D01*
X23675756Y-38712310D01*
X23695429Y-38500000D01*
X23924571Y-38500000D01*
X23944244Y-38712310D01*
X24002595Y-38917389D01*
X24097634Y-39108255D01*
X24226128Y-39278407D01*
X24226135Y-39278413D01*
X24383692Y-39422047D01*
X24383699Y-39422053D01*
X24473375Y-39477578D01*
X24564981Y-39534298D01*
X24763802Y-39611321D01*
X24973390Y-39650500D01*
X25186610Y-39650500D01*
X25396198Y-39611321D01*
X25595019Y-39534298D01*
X25776302Y-39422052D01*
X25933872Y-39278407D01*
X26062366Y-39108255D01*
X26157405Y-38917389D01*
X26215756Y-38712310D01*
X26235429Y-38500000D01*
X26464571Y-38500000D01*
X26484244Y-38712310D01*
X26542595Y-38917389D01*
X26637634Y-39108255D01*
X26766128Y-39278407D01*
X26766135Y-39278413D01*
X26923692Y-39422047D01*
X26923699Y-39422053D01*
X27013375Y-39477578D01*
X27104981Y-39534298D01*
X27303802Y-39611321D01*
X27513390Y-39650500D01*
X27726610Y-39650500D01*
X27936198Y-39611321D01*
X28135019Y-39534298D01*
X28316302Y-39422052D01*
X28473872Y-39278407D01*
X28602366Y-39108255D01*
X28697405Y-38917389D01*
X28755756Y-38712310D01*
X28775429Y-38500000D01*
X28756897Y-38300000D01*
X29073819Y-38300000D01*
X29697617Y-38300000D01*
X29660000Y-38428111D01*
X29660000Y-38571889D01*
X29697617Y-38700000D01*
X29073820Y-38700000D01*
X29074095Y-38702982D01*
X29074096Y-38702985D01*
X29129887Y-38899070D01*
X29220750Y-39081548D01*
X29220755Y-39081557D01*
X29343608Y-39244240D01*
X29494266Y-39381582D01*
X29667581Y-39488895D01*
X29667586Y-39488898D01*
X29857683Y-39562541D01*
X29959999Y-39581667D01*
X29960000Y-39581667D01*
X29960000Y-38958335D01*
X30017685Y-38984680D01*
X30124237Y-39000000D01*
X30195763Y-39000000D01*
X30302315Y-38984680D01*
X30360000Y-38958335D01*
X30360000Y-39581667D01*
X30462316Y-39562541D01*
X30652413Y-39488898D01*
X30652418Y-39488895D01*
X30825733Y-39381582D01*
X30976391Y-39244240D01*
X31099244Y-39081557D01*
X31099249Y-39081548D01*
X31190112Y-38899070D01*
X31245903Y-38702985D01*
X31245904Y-38702982D01*
X31246180Y-38700000D01*
X30622383Y-38700000D01*
X30660000Y-38571889D01*
X30660000Y-38428111D01*
X30622383Y-38300000D01*
X31246180Y-38300000D01*
X31245904Y-38297017D01*
X31245903Y-38297014D01*
X31190112Y-38100929D01*
X31099249Y-37918451D01*
X31099244Y-37918442D01*
X30976391Y-37755759D01*
X30825733Y-37618417D01*
X30652418Y-37511104D01*
X30652413Y-37511101D01*
X30462317Y-37437458D01*
X30360000Y-37418331D01*
X30360000Y-38041664D01*
X30302315Y-38015320D01*
X30195763Y-38000000D01*
X30124237Y-38000000D01*
X30017685Y-38015320D01*
X29960000Y-38041664D01*
X29960000Y-37418332D01*
X29959999Y-37418331D01*
X29857682Y-37437458D01*
X29667586Y-37511101D01*
X29667581Y-37511104D01*
X29494266Y-37618417D01*
X29343608Y-37755759D01*
X29220755Y-37918442D01*
X29220750Y-37918451D01*
X29129887Y-38100929D01*
X29074096Y-38297014D01*
X29074095Y-38297017D01*
X29073819Y-38300000D01*
X28756897Y-38300000D01*
X28755756Y-38287690D01*
X28697405Y-38082611D01*
X28602366Y-37891745D01*
X28473872Y-37721593D01*
X28346119Y-37605130D01*
X28316307Y-37577952D01*
X28316300Y-37577946D01*
X28135024Y-37465705D01*
X28135019Y-37465702D01*
X28012739Y-37418331D01*
X27936198Y-37388679D01*
X27936197Y-37388678D01*
X27936195Y-37388678D01*
X27726610Y-37349500D01*
X27513390Y-37349500D01*
X27303804Y-37388678D01*
X27104980Y-37465702D01*
X27104975Y-37465705D01*
X26923699Y-37577946D01*
X26923692Y-37577952D01*
X26766135Y-37721586D01*
X26766131Y-37721589D01*
X26766128Y-37721593D01*
X26766125Y-37721597D01*
X26637635Y-37891743D01*
X26637630Y-37891752D01*
X26542596Y-38082608D01*
X26484244Y-38287688D01*
X26484244Y-38287690D01*
X26464571Y-38500000D01*
X26235429Y-38500000D01*
X26215756Y-38287690D01*
X26157405Y-38082611D01*
X26062366Y-37891745D01*
X25933872Y-37721593D01*
X25806119Y-37605130D01*
X25776307Y-37577952D01*
X25776300Y-37577946D01*
X25595024Y-37465705D01*
X25595019Y-37465702D01*
X25472739Y-37418331D01*
X25396198Y-37388679D01*
X25396197Y-37388678D01*
X25396195Y-37388678D01*
X25186610Y-37349500D01*
X24973390Y-37349500D01*
X24763804Y-37388678D01*
X24564980Y-37465702D01*
X24564975Y-37465705D01*
X24383699Y-37577946D01*
X24383692Y-37577952D01*
X24226135Y-37721586D01*
X24226131Y-37721589D01*
X24226128Y-37721593D01*
X24226125Y-37721597D01*
X24097635Y-37891743D01*
X24097630Y-37891752D01*
X24002596Y-38082608D01*
X23944244Y-38287688D01*
X23944244Y-38287690D01*
X23924571Y-38500000D01*
X23695429Y-38500000D01*
X23675756Y-38287690D01*
X23617405Y-38082611D01*
X23522366Y-37891745D01*
X23393872Y-37721593D01*
X23266119Y-37605130D01*
X23236307Y-37577952D01*
X23236300Y-37577946D01*
X23055024Y-37465705D01*
X23055019Y-37465702D01*
X22932739Y-37418331D01*
X22856198Y-37388679D01*
X22856197Y-37388678D01*
X22856195Y-37388678D01*
X22646610Y-37349500D01*
X22433390Y-37349500D01*
X22223804Y-37388678D01*
X22024980Y-37465702D01*
X22024975Y-37465705D01*
X21843699Y-37577946D01*
X21843692Y-37577952D01*
X21686135Y-37721586D01*
X21686131Y-37721589D01*
X21686128Y-37721593D01*
X21686125Y-37721597D01*
X21557635Y-37891743D01*
X21557630Y-37891752D01*
X21462596Y-38082608D01*
X21404244Y-38287688D01*
X21404244Y-38287690D01*
X21384571Y-38500000D01*
X21150499Y-38500000D01*
X21150499Y-37605136D01*
X21147585Y-37580009D01*
X21102206Y-37477235D01*
X21022765Y-37397794D01*
X20919991Y-37352415D01*
X20919990Y-37352414D01*
X20919988Y-37352414D01*
X20894868Y-37349500D01*
X19105139Y-37349500D01*
X19105136Y-37349501D01*
X19080009Y-37352414D01*
X18977235Y-37397794D01*
X18897794Y-37477235D01*
X18852414Y-37580011D01*
X18849500Y-37605130D01*
X18849500Y-39394860D01*
X6090618Y-39394860D01*
X6135017Y-39143056D01*
X6154998Y-38800000D01*
X6135017Y-38456943D01*
X6075347Y-38118534D01*
X5976791Y-37789331D01*
X5976790Y-37789329D01*
X5840686Y-37473805D01*
X5840676Y-37473785D01*
X5668874Y-37176215D01*
X5668864Y-37176200D01*
X5463657Y-36900559D01*
X5424154Y-36858688D01*
X4285804Y-37997037D01*
X4238110Y-37928922D01*
X4071078Y-37761890D01*
X4002960Y-37714193D01*
X5140137Y-36577017D01*
X4964601Y-36429726D01*
X4677501Y-36240896D01*
X4370417Y-36086673D01*
X4370413Y-36086672D01*
X4047498Y-35969140D01*
X3713140Y-35889895D01*
X3371815Y-35850000D01*
X3028185Y-35850000D01*
X2686859Y-35889895D01*
X2352501Y-35969140D01*
X2029586Y-36086672D01*
X2029582Y-36086673D01*
X1722498Y-36240896D01*
X1435398Y-36429726D01*
X1259861Y-36577017D01*
X2397038Y-37714194D01*
X2328922Y-37761890D01*
X2161890Y-37928922D01*
X2114194Y-37997037D01*
X975844Y-36858688D01*
X975843Y-36858688D01*
X936349Y-36900550D01*
X936335Y-36900568D01*
X731135Y-37176200D01*
X731125Y-37176215D01*
X684736Y-37256564D01*
X639267Y-37297505D01*
X578416Y-37303901D01*
X525428Y-37273308D01*
X500542Y-37217412D01*
X500000Y-37207064D01*
X500000Y-32740000D01*
X2913819Y-32740000D01*
X3537617Y-32740000D01*
X3500000Y-32868111D01*
X3500000Y-33011889D01*
X3537617Y-33140000D01*
X2913820Y-33140000D01*
X2914095Y-33142982D01*
X2914096Y-33142985D01*
X2969887Y-33339070D01*
X3060750Y-33521548D01*
X3060755Y-33521557D01*
X3183608Y-33684240D01*
X3334266Y-33821582D01*
X3507581Y-33928895D01*
X3507586Y-33928898D01*
X3697683Y-34002541D01*
X3799999Y-34021667D01*
X3800000Y-34021667D01*
X3800000Y-33398335D01*
X3857685Y-33424680D01*
X3964237Y-33440000D01*
X4035763Y-33440000D01*
X4142315Y-33424680D01*
X4200000Y-33398335D01*
X4200000Y-34021667D01*
X4302316Y-34002541D01*
X4492413Y-33928898D01*
X4492418Y-33928895D01*
X4665733Y-33821582D01*
X4816391Y-33684240D01*
X4939244Y-33521557D01*
X4939249Y-33521548D01*
X5030112Y-33339070D01*
X5085903Y-33142985D01*
X5085904Y-33142982D01*
X5086180Y-33140000D01*
X4462383Y-33140000D01*
X4500000Y-33011889D01*
X4500000Y-32868111D01*
X4462383Y-32740000D01*
X5086180Y-32740000D01*
X5085904Y-32737017D01*
X5085903Y-32737014D01*
X5030112Y-32540929D01*
X4959938Y-32400000D01*
X28144318Y-32400000D01*
X28164955Y-32556758D01*
X28164957Y-32556766D01*
X28225462Y-32702838D01*
X28225462Y-32702839D01*
X28251688Y-32737017D01*
X28321718Y-32828282D01*
X28447159Y-32924536D01*
X28593238Y-32985044D01*
X28710809Y-33000522D01*
X28749999Y-33005682D01*
X28750000Y-33005682D01*
X28750001Y-33005682D01*
X28781352Y-33001554D01*
X28906762Y-32985044D01*
X29052841Y-32924536D01*
X29178282Y-32828282D01*
X29274536Y-32702841D01*
X29335044Y-32556762D01*
X29355682Y-32400000D01*
X29335044Y-32243238D01*
X29274537Y-32097161D01*
X29274537Y-32097160D01*
X29178286Y-31971723D01*
X29178285Y-31971722D01*
X29178282Y-31971718D01*
X29178277Y-31971714D01*
X29178276Y-31971713D01*
X29107104Y-31917101D01*
X29052841Y-31875464D01*
X29052840Y-31875463D01*
X29052838Y-31875462D01*
X28906766Y-31814957D01*
X28906758Y-31814955D01*
X28750001Y-31794318D01*
X28749999Y-31794318D01*
X28593241Y-31814955D01*
X28593233Y-31814957D01*
X28447161Y-31875462D01*
X28447160Y-31875462D01*
X28321723Y-31971713D01*
X28321713Y-31971723D01*
X28225462Y-32097160D01*
X28225462Y-32097161D01*
X28164957Y-32243233D01*
X28164955Y-32243241D01*
X28144318Y-32399999D01*
X28144318Y-32400000D01*
X4959938Y-32400000D01*
X4939249Y-32358451D01*
X4939244Y-32358442D01*
X4816391Y-32195759D01*
X4665733Y-32058417D01*
X4492418Y-31951104D01*
X4492413Y-31951101D01*
X4302317Y-31877458D01*
X4200000Y-31858331D01*
X4200000Y-32481664D01*
X4142315Y-32455320D01*
X4035763Y-32440000D01*
X3964237Y-32440000D01*
X3857685Y-32455320D01*
X3800000Y-32481664D01*
X3800000Y-31858332D01*
X3799999Y-31858331D01*
X3697682Y-31877458D01*
X3507586Y-31951101D01*
X3507581Y-31951104D01*
X3334266Y-32058417D01*
X3183608Y-32195759D01*
X3060755Y-32358442D01*
X3060750Y-32358451D01*
X2969887Y-32540929D01*
X2914096Y-32737014D01*
X2914095Y-32737017D01*
X2913819Y-32740000D01*
X500000Y-32740000D01*
X500000Y-30400000D01*
X2844571Y-30400000D01*
X2851216Y-30471718D01*
X2864244Y-30612310D01*
X2922595Y-30817389D01*
X3017634Y-31008255D01*
X3146128Y-31178407D01*
X3172931Y-31202841D01*
X3303692Y-31322047D01*
X3303699Y-31322053D01*
X3313766Y-31328286D01*
X3484981Y-31434298D01*
X3683802Y-31511321D01*
X3893390Y-31550500D01*
X4106610Y-31550500D01*
X4316198Y-31511321D01*
X4515019Y-31434298D01*
X4696302Y-31322052D01*
X4853872Y-31178407D01*
X4982366Y-31008255D01*
X5036270Y-30900000D01*
X26144318Y-30900000D01*
X26164955Y-31056758D01*
X26164957Y-31056766D01*
X26225462Y-31202838D01*
X26225462Y-31202839D01*
X26316938Y-31322053D01*
X26321718Y-31328282D01*
X26447159Y-31424536D01*
X26447160Y-31424536D01*
X26447161Y-31424537D01*
X26593233Y-31485042D01*
X26593238Y-31485044D01*
X26710809Y-31500522D01*
X26749999Y-31505682D01*
X26750000Y-31505682D01*
X26750001Y-31505682D01*
X26781352Y-31501554D01*
X26906762Y-31485044D01*
X27052841Y-31424536D01*
X27178282Y-31328282D01*
X27274536Y-31202841D01*
X27335044Y-31056762D01*
X27355682Y-30900000D01*
X27335044Y-30743238D01*
X27299226Y-30656766D01*
X27274537Y-30597161D01*
X27274537Y-30597160D01*
X27199984Y-30500000D01*
X30394318Y-30500000D01*
X30414955Y-30656758D01*
X30414957Y-30656766D01*
X30475462Y-30802838D01*
X30475462Y-30802839D01*
X30571713Y-30928276D01*
X30571718Y-30928282D01*
X30697159Y-31024536D01*
X30697160Y-31024536D01*
X30697161Y-31024537D01*
X30774959Y-31056762D01*
X30843238Y-31085044D01*
X30960809Y-31100522D01*
X30999999Y-31105682D01*
X31000000Y-31105682D01*
X31000001Y-31105682D01*
X31031352Y-31101554D01*
X31156762Y-31085044D01*
X31302841Y-31024536D01*
X31428282Y-30928282D01*
X31524536Y-30802841D01*
X31585044Y-30656762D01*
X31605682Y-30500000D01*
X34694318Y-30500000D01*
X34714955Y-30656758D01*
X34714957Y-30656766D01*
X34775462Y-30802838D01*
X34775462Y-30802839D01*
X34871713Y-30928276D01*
X34871718Y-30928282D01*
X34997159Y-31024536D01*
X34997160Y-31024536D01*
X34997161Y-31024537D01*
X35074959Y-31056762D01*
X35143238Y-31085044D01*
X35260809Y-31100522D01*
X35299999Y-31105682D01*
X35300000Y-31105682D01*
X35300001Y-31105682D01*
X35331352Y-31101554D01*
X35456762Y-31085044D01*
X35602841Y-31024536D01*
X35728282Y-30928282D01*
X35824536Y-30802841D01*
X35885044Y-30656762D01*
X35905682Y-30500000D01*
X35885044Y-30343238D01*
X35824537Y-30197161D01*
X35824537Y-30197160D01*
X35728286Y-30071723D01*
X35728285Y-30071722D01*
X35728282Y-30071718D01*
X35728277Y-30071714D01*
X35728276Y-30071713D01*
X35602838Y-29975462D01*
X35456766Y-29914957D01*
X35456758Y-29914955D01*
X35300001Y-29894318D01*
X35299999Y-29894318D01*
X35143241Y-29914955D01*
X35143233Y-29914957D01*
X34997161Y-29975462D01*
X34997160Y-29975462D01*
X34871723Y-30071713D01*
X34871713Y-30071723D01*
X34775462Y-30197160D01*
X34775462Y-30197161D01*
X34714957Y-30343233D01*
X34714955Y-30343241D01*
X34694318Y-30499999D01*
X34694318Y-30500000D01*
X31605682Y-30500000D01*
X31585044Y-30343238D01*
X31524537Y-30197161D01*
X31524537Y-30197160D01*
X31428286Y-30071723D01*
X31428285Y-30071722D01*
X31428282Y-30071718D01*
X31428277Y-30071714D01*
X31428276Y-30071713D01*
X31302838Y-29975462D01*
X31156766Y-29914957D01*
X31156758Y-29914955D01*
X31000001Y-29894318D01*
X30999999Y-29894318D01*
X30843241Y-29914955D01*
X30843233Y-29914957D01*
X30697161Y-29975462D01*
X30697160Y-29975462D01*
X30571723Y-30071713D01*
X30571713Y-30071723D01*
X30475462Y-30197160D01*
X30475462Y-30197161D01*
X30414957Y-30343233D01*
X30414955Y-30343241D01*
X30394318Y-30499999D01*
X30394318Y-30500000D01*
X27199984Y-30500000D01*
X27178286Y-30471723D01*
X27178285Y-30471722D01*
X27178282Y-30471718D01*
X27178277Y-30471714D01*
X27178276Y-30471713D01*
X27052838Y-30375462D01*
X26906766Y-30314957D01*
X26906758Y-30314955D01*
X26750001Y-30294318D01*
X26749999Y-30294318D01*
X26593241Y-30314955D01*
X26593233Y-30314957D01*
X26447161Y-30375462D01*
X26447160Y-30375462D01*
X26321723Y-30471713D01*
X26321713Y-30471723D01*
X26225462Y-30597160D01*
X26225462Y-30597161D01*
X26164957Y-30743233D01*
X26164955Y-30743241D01*
X26144318Y-30899999D01*
X26144318Y-30900000D01*
X5036270Y-30900000D01*
X5077405Y-30817389D01*
X5135756Y-30612310D01*
X5155429Y-30400000D01*
X5135756Y-30187690D01*
X5077405Y-29982611D01*
X5036270Y-29900000D01*
X7894318Y-29900000D01*
X7914955Y-30056758D01*
X7914957Y-30056766D01*
X7975462Y-30202838D01*
X7975462Y-30202839D01*
X8061493Y-30314957D01*
X8071718Y-30328282D01*
X8197159Y-30424536D01*
X8343238Y-30485044D01*
X8456833Y-30499999D01*
X8499999Y-30505682D01*
X8500000Y-30505682D01*
X8500001Y-30505682D01*
X8543167Y-30499999D01*
X8656762Y-30485044D01*
X8802841Y-30424536D01*
X8928282Y-30328282D01*
X9024536Y-30202841D01*
X9085044Y-30056762D01*
X9105682Y-29900000D01*
X9085044Y-29743238D01*
X9024537Y-29597161D01*
X9024537Y-29597160D01*
X8928286Y-29471723D01*
X8928285Y-29471722D01*
X8928282Y-29471718D01*
X8928277Y-29471714D01*
X8928276Y-29471713D01*
X8802838Y-29375462D01*
X8656766Y-29314957D01*
X8656758Y-29314955D01*
X8543161Y-29300000D01*
X31494318Y-29300000D01*
X31514955Y-29456758D01*
X31514957Y-29456766D01*
X31575462Y-29602838D01*
X31575462Y-29602839D01*
X31671713Y-29728276D01*
X31671718Y-29728282D01*
X31797159Y-29824536D01*
X31943238Y-29885044D01*
X32056833Y-29899999D01*
X32099999Y-29905682D01*
X32100000Y-29905682D01*
X32100001Y-29905682D01*
X32143167Y-29899999D01*
X32256762Y-29885044D01*
X32402841Y-29824536D01*
X32528282Y-29728282D01*
X32624536Y-29602841D01*
X32685044Y-29456762D01*
X32705682Y-29300000D01*
X32704191Y-29288678D01*
X32685044Y-29143241D01*
X32685044Y-29143238D01*
X32685042Y-29143233D01*
X32624537Y-28997161D01*
X32624537Y-28997160D01*
X32528286Y-28871723D01*
X32528285Y-28871722D01*
X32528282Y-28871718D01*
X32528277Y-28871714D01*
X32528276Y-28871713D01*
X32411428Y-28782053D01*
X32402841Y-28775464D01*
X32402840Y-28775463D01*
X32402838Y-28775462D01*
X32256766Y-28714957D01*
X32256758Y-28714955D01*
X32100001Y-28694318D01*
X32099999Y-28694318D01*
X31943241Y-28714955D01*
X31943233Y-28714957D01*
X31797161Y-28775462D01*
X31797160Y-28775462D01*
X31671723Y-28871713D01*
X31671713Y-28871723D01*
X31575462Y-28997160D01*
X31575462Y-28997161D01*
X31514957Y-29143233D01*
X31514955Y-29143241D01*
X31494318Y-29299999D01*
X31494318Y-29300000D01*
X8543161Y-29300000D01*
X8500001Y-29294318D01*
X8499999Y-29294318D01*
X8343241Y-29314955D01*
X8343233Y-29314957D01*
X8197161Y-29375462D01*
X8197160Y-29375462D01*
X8071723Y-29471713D01*
X8071713Y-29471723D01*
X7975462Y-29597160D01*
X7975462Y-29597161D01*
X7914957Y-29743233D01*
X7914955Y-29743241D01*
X7894318Y-29899999D01*
X7894318Y-29900000D01*
X5036270Y-29900000D01*
X4982366Y-29791745D01*
X4853872Y-29621593D01*
X4799623Y-29572139D01*
X4696307Y-29477952D01*
X4696300Y-29477946D01*
X4515024Y-29365705D01*
X4515019Y-29365702D01*
X4384027Y-29314956D01*
X4316198Y-29288679D01*
X4316197Y-29288678D01*
X4316195Y-29288678D01*
X4106610Y-29249500D01*
X3893390Y-29249500D01*
X3683804Y-29288678D01*
X3484980Y-29365702D01*
X3484975Y-29365705D01*
X3303699Y-29477946D01*
X3303692Y-29477952D01*
X3146135Y-29621586D01*
X3146131Y-29621589D01*
X3146128Y-29621593D01*
X3146125Y-29621597D01*
X3017635Y-29791743D01*
X3017630Y-29791752D01*
X2922596Y-29982608D01*
X2864244Y-30187688D01*
X2844571Y-30400000D01*
X500000Y-30400000D01*
X500000Y-27860000D01*
X2844571Y-27860000D01*
X2864244Y-28072311D01*
X2871315Y-28097161D01*
X2922595Y-28277389D01*
X3017634Y-28468255D01*
X3146128Y-28638407D01*
X3207459Y-28694318D01*
X3303692Y-28782047D01*
X3303699Y-28782053D01*
X3338581Y-28803651D01*
X3484981Y-28894298D01*
X3683802Y-28971321D01*
X3893390Y-29010500D01*
X4106610Y-29010500D01*
X4316198Y-28971321D01*
X4515019Y-28894298D01*
X4696302Y-28782052D01*
X4853872Y-28638407D01*
X4982366Y-28468255D01*
X5077405Y-28277389D01*
X5135756Y-28072310D01*
X5155429Y-27860000D01*
X5135756Y-27647690D01*
X5077405Y-27442611D01*
X5056187Y-27400000D01*
X7894318Y-27400000D01*
X7914955Y-27556758D01*
X7914957Y-27556766D01*
X7975462Y-27702838D01*
X7975462Y-27702839D01*
X8061493Y-27814957D01*
X8071718Y-27828282D01*
X8197159Y-27924536D01*
X8343238Y-27985044D01*
X8460809Y-28000522D01*
X8499999Y-28005682D01*
X8500000Y-28005682D01*
X8500001Y-28005682D01*
X8531352Y-28001554D01*
X8656762Y-27985044D01*
X8802841Y-27924536D01*
X8834817Y-27900000D01*
X10394318Y-27900000D01*
X10414955Y-28056758D01*
X10414957Y-28056766D01*
X10475462Y-28202838D01*
X10475462Y-28202839D01*
X10532668Y-28277391D01*
X10571718Y-28328282D01*
X10697159Y-28424536D01*
X10697160Y-28424536D01*
X10697161Y-28424537D01*
X10802706Y-28468255D01*
X10843238Y-28485044D01*
X10960809Y-28500522D01*
X10999999Y-28505682D01*
X11000000Y-28505682D01*
X11000001Y-28505682D01*
X11031352Y-28501554D01*
X11156762Y-28485044D01*
X11302841Y-28424536D01*
X11334817Y-28400000D01*
X11994318Y-28400000D01*
X12014955Y-28556758D01*
X12014957Y-28556766D01*
X12075462Y-28702838D01*
X12075462Y-28702839D01*
X12136245Y-28782053D01*
X12171718Y-28828282D01*
X12297159Y-28924536D01*
X12443238Y-28985044D01*
X12558952Y-29000278D01*
X12599999Y-29005682D01*
X12600000Y-29005682D01*
X12600001Y-29005682D01*
X12641032Y-29000280D01*
X12756762Y-28985044D01*
X12902841Y-28924536D01*
X13028282Y-28828282D01*
X13124536Y-28702841D01*
X13185044Y-28556762D01*
X13205682Y-28400000D01*
X13185044Y-28243238D01*
X13124537Y-28097161D01*
X13124537Y-28097160D01*
X13028286Y-27971723D01*
X13028285Y-27971722D01*
X13028282Y-27971718D01*
X13028277Y-27971714D01*
X13028276Y-27971713D01*
X12902838Y-27875462D01*
X12756766Y-27814957D01*
X12756758Y-27814955D01*
X12600001Y-27794318D01*
X12599999Y-27794318D01*
X12443241Y-27814955D01*
X12443233Y-27814957D01*
X12297161Y-27875462D01*
X12297160Y-27875462D01*
X12171723Y-27971713D01*
X12171713Y-27971723D01*
X12075462Y-28097160D01*
X12075462Y-28097161D01*
X12014957Y-28243233D01*
X12014955Y-28243241D01*
X11994318Y-28399999D01*
X11994318Y-28400000D01*
X11334817Y-28400000D01*
X11428282Y-28328282D01*
X11524536Y-28202841D01*
X11585044Y-28056762D01*
X11605682Y-27900000D01*
X11585044Y-27743238D01*
X11524537Y-27597161D01*
X11524537Y-27597160D01*
X11428286Y-27471723D01*
X11428285Y-27471722D01*
X11428282Y-27471718D01*
X11428277Y-27471714D01*
X11428276Y-27471713D01*
X11302838Y-27375462D01*
X11156766Y-27314957D01*
X11156758Y-27314955D01*
X11000001Y-27294318D01*
X10999999Y-27294318D01*
X10843241Y-27314955D01*
X10843233Y-27314957D01*
X10697161Y-27375462D01*
X10697160Y-27375462D01*
X10571723Y-27471713D01*
X10571713Y-27471723D01*
X10475462Y-27597160D01*
X10475462Y-27597161D01*
X10414957Y-27743233D01*
X10414955Y-27743241D01*
X10394318Y-27899999D01*
X10394318Y-27900000D01*
X8834817Y-27900000D01*
X8928282Y-27828282D01*
X9024536Y-27702841D01*
X9085044Y-27556762D01*
X9105682Y-27400000D01*
X9085044Y-27243238D01*
X9083704Y-27240002D01*
X53694451Y-27240002D01*
X53714616Y-27509098D01*
X53714618Y-27509107D01*
X53774666Y-27772197D01*
X53858203Y-27985042D01*
X53873257Y-28023398D01*
X54008185Y-28257102D01*
X54008189Y-28257108D01*
X54008191Y-28257110D01*
X54176434Y-28468081D01*
X54176440Y-28468087D01*
X54374252Y-28651629D01*
X54374254Y-28651630D01*
X54374259Y-28651635D01*
X54597226Y-28803651D01*
X54840359Y-28920738D01*
X55098228Y-29000280D01*
X55365071Y-29040500D01*
X55365076Y-29040500D01*
X55634924Y-29040500D01*
X55634929Y-29040500D01*
X55901772Y-29000280D01*
X56159641Y-28920738D01*
X56402775Y-28803651D01*
X56625741Y-28651635D01*
X56823378Y-28468255D01*
X56823559Y-28468087D01*
X56823565Y-28468081D01*
X56935047Y-28328286D01*
X56991815Y-28257102D01*
X57126743Y-28023398D01*
X57225334Y-27772195D01*
X57285383Y-27509103D01*
X57305549Y-27240000D01*
X57285383Y-26970897D01*
X57225334Y-26707805D01*
X57126743Y-26456602D01*
X56991815Y-26222898D01*
X56991808Y-26222889D01*
X56823565Y-26011918D01*
X56823559Y-26011912D01*
X56625747Y-25828370D01*
X56625744Y-25828368D01*
X56625741Y-25828365D01*
X56402775Y-25676349D01*
X56402767Y-25676345D01*
X56159643Y-25559262D01*
X55901776Y-25479721D01*
X55901773Y-25479720D01*
X55901772Y-25479720D01*
X55901767Y-25479719D01*
X55901766Y-25479719D01*
X55634932Y-25439500D01*
X55634929Y-25439500D01*
X55365071Y-25439500D01*
X55365067Y-25439500D01*
X55098233Y-25479719D01*
X55098223Y-25479721D01*
X54840358Y-25559262D01*
X54597233Y-25676345D01*
X54597229Y-25676347D01*
X54597226Y-25676349D01*
X54415131Y-25800499D01*
X54374252Y-25828370D01*
X54176440Y-26011912D01*
X54176434Y-26011918D01*
X54008191Y-26222889D01*
X54008187Y-26222894D01*
X54008185Y-26222898D01*
X53942687Y-26336344D01*
X53873258Y-26456599D01*
X53873254Y-26456608D01*
X53774666Y-26707802D01*
X53714618Y-26970892D01*
X53714616Y-26970901D01*
X53694451Y-27239997D01*
X53694451Y-27240002D01*
X9083704Y-27240002D01*
X9024537Y-27097161D01*
X9024537Y-27097160D01*
X8928286Y-26971723D01*
X8928285Y-26971722D01*
X8928282Y-26971718D01*
X8928277Y-26971714D01*
X8928276Y-26971713D01*
X8802838Y-26875462D01*
X8656766Y-26814957D01*
X8656758Y-26814955D01*
X8500001Y-26794318D01*
X8499999Y-26794318D01*
X8343241Y-26814955D01*
X8343233Y-26814957D01*
X8197161Y-26875462D01*
X8197160Y-26875462D01*
X8071723Y-26971713D01*
X8071713Y-26971723D01*
X7975462Y-27097160D01*
X7975462Y-27097161D01*
X7914957Y-27243233D01*
X7914955Y-27243241D01*
X7894318Y-27399999D01*
X7894318Y-27400000D01*
X5056187Y-27400000D01*
X4982366Y-27251745D01*
X4853872Y-27081593D01*
X4799623Y-27032139D01*
X4696307Y-26937952D01*
X4696300Y-26937946D01*
X4515024Y-26825705D01*
X4515019Y-26825702D01*
X4487280Y-26814956D01*
X4316198Y-26748679D01*
X4316197Y-26748678D01*
X4316195Y-26748678D01*
X4106610Y-26709500D01*
X3893390Y-26709500D01*
X3683804Y-26748678D01*
X3484980Y-26825702D01*
X3484975Y-26825705D01*
X3303699Y-26937946D01*
X3303692Y-26937952D01*
X3146135Y-27081586D01*
X3146131Y-27081589D01*
X3146128Y-27081593D01*
X3146125Y-27081597D01*
X3017635Y-27251743D01*
X3017630Y-27251752D01*
X2922596Y-27442608D01*
X2864244Y-27647688D01*
X2844571Y-27860000D01*
X500000Y-27860000D01*
X500000Y-25320000D01*
X2844571Y-25320000D01*
X2864244Y-25532311D01*
X2887449Y-25613867D01*
X2922595Y-25737389D01*
X3017634Y-25928255D01*
X3146128Y-26098407D01*
X3146135Y-26098413D01*
X3303692Y-26242047D01*
X3303699Y-26242053D01*
X3407389Y-26306255D01*
X3484981Y-26354298D01*
X3683802Y-26431321D01*
X3893390Y-26470500D01*
X4106610Y-26470500D01*
X4316198Y-26431321D01*
X4515019Y-26354298D01*
X4696302Y-26242052D01*
X4853872Y-26098407D01*
X4982366Y-25928255D01*
X5077405Y-25737389D01*
X5135756Y-25532310D01*
X5155429Y-25320000D01*
X9694318Y-25320000D01*
X9714955Y-25476758D01*
X9714957Y-25476766D01*
X9775462Y-25622838D01*
X9775462Y-25622839D01*
X9863361Y-25737391D01*
X9871718Y-25748282D01*
X9997159Y-25844536D01*
X10143238Y-25905044D01*
X10260809Y-25920522D01*
X10299999Y-25925682D01*
X10300000Y-25925682D01*
X10300001Y-25925682D01*
X10331352Y-25921554D01*
X10456762Y-25905044D01*
X10602841Y-25844536D01*
X10728282Y-25748282D01*
X10824536Y-25622841D01*
X10885044Y-25476762D01*
X10905682Y-25320000D01*
X10903049Y-25300002D01*
X26244353Y-25300002D01*
X26264834Y-25442456D01*
X26281853Y-25479721D01*
X26324623Y-25573373D01*
X26367487Y-25622841D01*
X26418873Y-25682144D01*
X26539942Y-25759950D01*
X26539947Y-25759953D01*
X26646403Y-25791211D01*
X26678035Y-25800499D01*
X26678036Y-25800499D01*
X26678039Y-25800500D01*
X26678041Y-25800500D01*
X26821959Y-25800500D01*
X26821961Y-25800500D01*
X26960053Y-25759953D01*
X27081128Y-25682143D01*
X27175377Y-25573373D01*
X27235165Y-25442457D01*
X27241992Y-25394971D01*
X27255647Y-25300002D01*
X27255647Y-25299997D01*
X27235165Y-25157543D01*
X27175377Y-25026627D01*
X27081128Y-24917857D01*
X27081127Y-24917856D01*
X27081126Y-24917855D01*
X26960057Y-24840049D01*
X26960054Y-24840047D01*
X26960053Y-24840047D01*
X26960050Y-24840046D01*
X26821964Y-24799500D01*
X26821961Y-24799500D01*
X26678039Y-24799500D01*
X26678035Y-24799500D01*
X26539949Y-24840046D01*
X26539942Y-24840049D01*
X26418873Y-24917855D01*
X26324622Y-25026628D01*
X26264834Y-25157543D01*
X26244353Y-25299997D01*
X26244353Y-25300002D01*
X10903049Y-25300002D01*
X10885044Y-25163238D01*
X10862035Y-25107690D01*
X10824537Y-25017161D01*
X10824537Y-25017160D01*
X10728286Y-24891723D01*
X10728285Y-24891722D01*
X10728282Y-24891718D01*
X10728277Y-24891714D01*
X10728276Y-24891713D01*
X10612451Y-24802838D01*
X10602841Y-24795464D01*
X10602840Y-24795463D01*
X10602838Y-24795462D01*
X10456766Y-24734957D01*
X10456758Y-24734955D01*
X10300001Y-24714318D01*
X10299999Y-24714318D01*
X10143241Y-24734955D01*
X10143233Y-24734957D01*
X9997161Y-24795462D01*
X9997160Y-24795462D01*
X9871723Y-24891713D01*
X9871713Y-24891723D01*
X9775462Y-25017160D01*
X9775462Y-25017161D01*
X9714957Y-25163233D01*
X9714955Y-25163241D01*
X9694318Y-25319999D01*
X9694318Y-25320000D01*
X5155429Y-25320000D01*
X5135756Y-25107690D01*
X5077405Y-24902611D01*
X4982366Y-24711745D01*
X4853872Y-24541593D01*
X4808246Y-24500000D01*
X30894318Y-24500000D01*
X30914955Y-24656758D01*
X30914957Y-24656766D01*
X30975462Y-24802838D01*
X30975462Y-24802839D01*
X31071713Y-24928276D01*
X31071718Y-24928282D01*
X31197159Y-25024536D01*
X31197160Y-25024536D01*
X31197161Y-25024537D01*
X31343233Y-25085042D01*
X31343238Y-25085044D01*
X31460809Y-25100522D01*
X31499999Y-25105682D01*
X31500000Y-25105682D01*
X31500001Y-25105682D01*
X31531352Y-25101554D01*
X31656762Y-25085044D01*
X31802841Y-25024536D01*
X31839731Y-24996228D01*
X31897406Y-24975804D01*
X31956072Y-24993181D01*
X31960256Y-24996220D01*
X31997158Y-25024536D01*
X31997159Y-25024536D01*
X31997160Y-25024537D01*
X32143232Y-25085042D01*
X32143237Y-25085044D01*
X32260808Y-25100522D01*
X32299998Y-25105682D01*
X32299999Y-25105682D01*
X32300000Y-25105682D01*
X32331351Y-25101554D01*
X32456761Y-25085044D01*
X32602840Y-25024536D01*
X32728281Y-24928282D01*
X32824535Y-24802841D01*
X32885043Y-24656762D01*
X32905681Y-24500000D01*
X32885043Y-24343238D01*
X32846629Y-24250499D01*
X32824536Y-24197161D01*
X32824536Y-24197160D01*
X32728285Y-24071723D01*
X32728284Y-24071722D01*
X32728281Y-24071718D01*
X32728276Y-24071714D01*
X32728275Y-24071713D01*
X32602837Y-23975462D01*
X32456765Y-23914957D01*
X32456757Y-23914955D01*
X32300000Y-23894318D01*
X32299998Y-23894318D01*
X32143240Y-23914955D01*
X32143237Y-23914955D01*
X32143237Y-23914956D01*
X32130389Y-23920278D01*
X31997159Y-23975463D01*
X31997157Y-23975464D01*
X31960265Y-24003772D01*
X31902588Y-24024195D01*
X31843923Y-24006816D01*
X31839744Y-24003781D01*
X31802841Y-23975464D01*
X31802838Y-23975463D01*
X31802836Y-23975461D01*
X31656766Y-23914957D01*
X31656758Y-23914955D01*
X31500001Y-23894318D01*
X31499999Y-23894318D01*
X31343241Y-23914955D01*
X31343233Y-23914957D01*
X31197161Y-23975462D01*
X31197160Y-23975462D01*
X31071723Y-24071713D01*
X31071713Y-24071723D01*
X30975462Y-24197160D01*
X30975462Y-24197161D01*
X30914957Y-24343233D01*
X30914955Y-24343241D01*
X30894318Y-24499999D01*
X30894318Y-24500000D01*
X4808246Y-24500000D01*
X4799623Y-24492139D01*
X4696307Y-24397952D01*
X4696300Y-24397946D01*
X4515024Y-24285705D01*
X4515019Y-24285702D01*
X4424149Y-24250499D01*
X4316198Y-24208679D01*
X4316197Y-24208678D01*
X4316195Y-24208678D01*
X4106610Y-24169500D01*
X3893390Y-24169500D01*
X3683804Y-24208678D01*
X3484980Y-24285702D01*
X3484975Y-24285705D01*
X3303699Y-24397946D01*
X3303692Y-24397952D01*
X3146135Y-24541586D01*
X3146131Y-24541589D01*
X3146128Y-24541593D01*
X3146125Y-24541597D01*
X3017635Y-24711743D01*
X3017630Y-24711752D01*
X2922596Y-24902608D01*
X2864244Y-25107688D01*
X2844571Y-25320000D01*
X500000Y-25320000D01*
X500000Y-22780000D01*
X2844571Y-22780000D01*
X2864244Y-22992310D01*
X2922595Y-23197389D01*
X3017634Y-23388255D01*
X3146128Y-23558407D01*
X3183314Y-23592307D01*
X3303692Y-23702047D01*
X3303699Y-23702053D01*
X3381136Y-23750000D01*
X3484981Y-23814298D01*
X3683802Y-23891321D01*
X3893390Y-23930500D01*
X4106610Y-23930500D01*
X4316198Y-23891321D01*
X4515019Y-23814298D01*
X4618860Y-23750002D01*
X22894353Y-23750002D01*
X22914834Y-23892456D01*
X22974622Y-24023371D01*
X22974623Y-24023373D01*
X23068872Y-24132143D01*
X23068873Y-24132144D01*
X23189942Y-24209950D01*
X23189947Y-24209953D01*
X23296403Y-24241211D01*
X23328035Y-24250499D01*
X23328036Y-24250499D01*
X23328039Y-24250500D01*
X23328041Y-24250500D01*
X23471959Y-24250500D01*
X23471961Y-24250500D01*
X23610053Y-24209953D01*
X23731128Y-24132143D01*
X23825377Y-24023373D01*
X23873944Y-23917027D01*
X26365814Y-23917027D01*
X26478107Y-23949999D01*
X26478113Y-23950000D01*
X26621888Y-23950000D01*
X26621890Y-23949999D01*
X26734180Y-23917027D01*
X27815814Y-23917027D01*
X27928107Y-23949999D01*
X27928113Y-23950000D01*
X28071888Y-23950000D01*
X28071890Y-23949999D01*
X28184180Y-23917027D01*
X29265814Y-23917027D01*
X29378107Y-23949999D01*
X29378113Y-23950000D01*
X29521888Y-23950000D01*
X29521890Y-23949999D01*
X29634183Y-23917026D01*
X29447229Y-23730072D01*
X29434899Y-23738310D01*
X29431093Y-23750025D01*
X29421004Y-23761838D01*
X29265814Y-23917027D01*
X28184180Y-23917027D01*
X28184183Y-23917026D01*
X27997229Y-23730072D01*
X27984899Y-23738310D01*
X27981093Y-23750025D01*
X27971004Y-23761838D01*
X27815814Y-23917027D01*
X26734180Y-23917027D01*
X26734183Y-23917026D01*
X26547229Y-23730072D01*
X26534899Y-23738310D01*
X26531093Y-23750025D01*
X26521004Y-23761838D01*
X26365814Y-23917027D01*
X23873944Y-23917027D01*
X23885165Y-23892457D01*
X23893367Y-23835412D01*
X23920362Y-23780504D01*
X23974476Y-23751950D01*
X23991359Y-23750500D01*
X24071959Y-23750500D01*
X24071961Y-23750500D01*
X24210053Y-23709953D01*
X24331128Y-23632143D01*
X24425377Y-23523373D01*
X24458886Y-23450000D01*
X26044858Y-23450000D01*
X26065319Y-23592313D01*
X26083981Y-23633176D01*
X26234664Y-23482492D01*
X26450000Y-23482492D01*
X26488197Y-23535065D01*
X26534162Y-23550000D01*
X26565838Y-23550000D01*
X26611803Y-23535065D01*
X26650000Y-23482492D01*
X26650000Y-23447229D01*
X26830072Y-23447229D01*
X27016017Y-23633174D01*
X27034680Y-23592312D01*
X27034681Y-23592307D01*
X27055142Y-23450000D01*
X27494858Y-23450000D01*
X27515319Y-23592313D01*
X27533981Y-23633176D01*
X27684664Y-23482492D01*
X27900000Y-23482492D01*
X27938197Y-23535065D01*
X27984162Y-23550000D01*
X28015838Y-23550000D01*
X28061803Y-23535065D01*
X28100000Y-23482492D01*
X28100000Y-23447229D01*
X28280072Y-23447229D01*
X28466017Y-23633174D01*
X28484680Y-23592312D01*
X28484681Y-23592307D01*
X28505142Y-23450000D01*
X28944858Y-23450000D01*
X28965319Y-23592313D01*
X28983981Y-23633176D01*
X29134664Y-23482492D01*
X29350000Y-23482492D01*
X29388197Y-23535065D01*
X29434162Y-23550000D01*
X29465838Y-23550000D01*
X29511803Y-23535065D01*
X29550000Y-23482492D01*
X29550000Y-23447229D01*
X29730072Y-23447229D01*
X29916017Y-23633174D01*
X29934680Y-23592312D01*
X29934681Y-23592307D01*
X29955142Y-23450000D01*
X29955142Y-23449997D01*
X29934681Y-23307689D01*
X29916017Y-23266824D01*
X29761838Y-23421004D01*
X29740243Y-23432006D01*
X29730072Y-23447229D01*
X29550000Y-23447229D01*
X29550000Y-23417508D01*
X29511803Y-23364935D01*
X29465838Y-23350000D01*
X29434162Y-23350000D01*
X29388197Y-23364935D01*
X29350000Y-23417508D01*
X29350000Y-23482492D01*
X29134664Y-23482492D01*
X29167156Y-23450000D01*
X29167156Y-23449999D01*
X28983981Y-23266824D01*
X28965319Y-23307687D01*
X28965318Y-23307690D01*
X28944858Y-23449997D01*
X28944858Y-23450000D01*
X28505142Y-23450000D01*
X28505142Y-23449997D01*
X28484681Y-23307689D01*
X28466017Y-23266824D01*
X28311838Y-23421004D01*
X28290243Y-23432006D01*
X28280072Y-23447229D01*
X28100000Y-23447229D01*
X28100000Y-23417508D01*
X28061803Y-23364935D01*
X28015838Y-23350000D01*
X27984162Y-23350000D01*
X27938197Y-23364935D01*
X27900000Y-23417508D01*
X27900000Y-23482492D01*
X27684664Y-23482492D01*
X27717156Y-23450000D01*
X27717156Y-23449999D01*
X27533981Y-23266824D01*
X27515319Y-23307687D01*
X27515318Y-23307690D01*
X27494858Y-23449997D01*
X27494858Y-23450000D01*
X27055142Y-23450000D01*
X27055142Y-23449997D01*
X27034681Y-23307689D01*
X27016017Y-23266824D01*
X26861838Y-23421004D01*
X26840243Y-23432006D01*
X26830072Y-23447229D01*
X26650000Y-23447229D01*
X26650000Y-23417508D01*
X26611803Y-23364935D01*
X26565838Y-23350000D01*
X26534162Y-23350000D01*
X26488197Y-23364935D01*
X26450000Y-23417508D01*
X26450000Y-23482492D01*
X26234664Y-23482492D01*
X26267156Y-23450000D01*
X26267156Y-23449999D01*
X26083981Y-23266824D01*
X26065319Y-23307687D01*
X26065318Y-23307690D01*
X26044858Y-23449997D01*
X26044858Y-23450000D01*
X24458886Y-23450000D01*
X24485165Y-23392457D01*
X24493367Y-23335412D01*
X24520362Y-23280504D01*
X24574476Y-23251950D01*
X24591359Y-23250500D01*
X24671959Y-23250500D01*
X24671961Y-23250500D01*
X24810053Y-23209953D01*
X24931128Y-23132143D01*
X25025377Y-23023373D01*
X25043828Y-22982971D01*
X26365814Y-22982971D01*
X26549999Y-23167156D01*
X26734184Y-22982971D01*
X27815814Y-22982971D01*
X27999999Y-23167156D01*
X28184184Y-22982971D01*
X29265814Y-22982971D01*
X29449999Y-23167156D01*
X29634184Y-22982971D01*
X29521891Y-22950000D01*
X29378107Y-22950000D01*
X29265814Y-22982971D01*
X28184184Y-22982971D01*
X28071891Y-22950000D01*
X27928107Y-22950000D01*
X27815814Y-22982971D01*
X26734184Y-22982971D01*
X26621891Y-22950000D01*
X26478107Y-22950000D01*
X26365814Y-22982971D01*
X25043828Y-22982971D01*
X25085165Y-22892457D01*
X25102119Y-22774537D01*
X25105647Y-22750002D01*
X25105647Y-22749997D01*
X25085165Y-22607543D01*
X25074889Y-22585042D01*
X25025377Y-22476627D01*
X25017059Y-22467027D01*
X26365814Y-22467027D01*
X26478107Y-22499999D01*
X26478113Y-22500000D01*
X26621888Y-22500000D01*
X26621890Y-22499999D01*
X26734180Y-22467027D01*
X27815814Y-22467027D01*
X27928107Y-22499999D01*
X27928113Y-22500000D01*
X28071888Y-22500000D01*
X28071890Y-22499999D01*
X28184180Y-22467027D01*
X29265814Y-22467027D01*
X29378107Y-22499999D01*
X29378113Y-22500000D01*
X29521888Y-22500000D01*
X29521890Y-22499999D01*
X29634183Y-22467026D01*
X29447229Y-22280072D01*
X29434899Y-22288310D01*
X29431093Y-22300025D01*
X29421004Y-22311838D01*
X29265814Y-22467027D01*
X28184180Y-22467027D01*
X28184183Y-22467026D01*
X27997229Y-22280072D01*
X27984899Y-22288310D01*
X27981093Y-22300025D01*
X27971004Y-22311838D01*
X27815814Y-22467027D01*
X26734180Y-22467027D01*
X26734183Y-22467026D01*
X26547229Y-22280072D01*
X26534899Y-22288310D01*
X26531093Y-22300025D01*
X26521004Y-22311838D01*
X26365814Y-22467027D01*
X25017059Y-22467027D01*
X24931128Y-22367857D01*
X24931127Y-22367856D01*
X24931126Y-22367855D01*
X24810057Y-22290049D01*
X24810054Y-22290047D01*
X24810053Y-22290047D01*
X24810050Y-22290046D01*
X24671964Y-22249500D01*
X24671961Y-22249500D01*
X24528039Y-22249500D01*
X24528035Y-22249500D01*
X24389949Y-22290046D01*
X24389942Y-22290049D01*
X24268873Y-22367855D01*
X24174622Y-22476628D01*
X24114834Y-22607543D01*
X24106632Y-22664590D01*
X24079636Y-22719497D01*
X24025521Y-22748050D01*
X24008640Y-22749500D01*
X23928035Y-22749500D01*
X23789949Y-22790046D01*
X23789942Y-22790049D01*
X23668873Y-22867855D01*
X23574622Y-22976628D01*
X23514834Y-23107543D01*
X23506632Y-23164590D01*
X23479636Y-23219497D01*
X23425521Y-23248050D01*
X23408640Y-23249500D01*
X23328035Y-23249500D01*
X23189949Y-23290046D01*
X23189942Y-23290049D01*
X23068873Y-23367855D01*
X22974622Y-23476628D01*
X22914834Y-23607543D01*
X22894353Y-23749997D01*
X22894353Y-23750002D01*
X4618860Y-23750002D01*
X4696302Y-23702052D01*
X4853872Y-23558407D01*
X4982366Y-23388255D01*
X5077405Y-23197389D01*
X5135756Y-22992310D01*
X5155429Y-22780000D01*
X5135756Y-22567690D01*
X5077405Y-22362611D01*
X5021332Y-22250000D01*
X20394318Y-22250000D01*
X20414955Y-22406758D01*
X20414957Y-22406766D01*
X20475462Y-22552838D01*
X20475462Y-22552839D01*
X20571713Y-22678276D01*
X20571718Y-22678282D01*
X20697159Y-22774536D01*
X20697160Y-22774536D01*
X20697161Y-22774537D01*
X20843233Y-22835042D01*
X20843238Y-22835044D01*
X20960809Y-22850522D01*
X20999999Y-22855682D01*
X21000000Y-22855682D01*
X21000001Y-22855682D01*
X21031352Y-22851554D01*
X21156762Y-22835044D01*
X21302841Y-22774536D01*
X21428282Y-22678282D01*
X21524536Y-22552841D01*
X21585044Y-22406762D01*
X21605682Y-22250000D01*
X21585044Y-22093238D01*
X21569935Y-22056762D01*
X21546424Y-22000000D01*
X26044858Y-22000000D01*
X26065319Y-22142313D01*
X26083981Y-22183176D01*
X26234664Y-22032492D01*
X26450000Y-22032492D01*
X26488197Y-22085065D01*
X26534162Y-22100000D01*
X26565838Y-22100000D01*
X26611803Y-22085065D01*
X26650000Y-22032492D01*
X26650000Y-21997229D01*
X26830072Y-21997229D01*
X27016017Y-22183174D01*
X27034680Y-22142312D01*
X27034681Y-22142307D01*
X27055142Y-22000000D01*
X27494858Y-22000000D01*
X27515319Y-22142313D01*
X27533981Y-22183176D01*
X27684664Y-22032492D01*
X27900000Y-22032492D01*
X27938197Y-22085065D01*
X27984162Y-22100000D01*
X28015838Y-22100000D01*
X28061803Y-22085065D01*
X28100000Y-22032492D01*
X28100000Y-21997229D01*
X28280072Y-21997229D01*
X28466017Y-22183174D01*
X28484680Y-22142312D01*
X28484681Y-22142307D01*
X28505142Y-22000000D01*
X28944858Y-22000000D01*
X28965319Y-22142313D01*
X28983981Y-22183176D01*
X29134664Y-22032492D01*
X29350000Y-22032492D01*
X29388197Y-22085065D01*
X29434162Y-22100000D01*
X29465838Y-22100000D01*
X29511803Y-22085065D01*
X29550000Y-22032492D01*
X29550000Y-21997229D01*
X29730072Y-21997229D01*
X29916017Y-22183174D01*
X29934680Y-22142312D01*
X29934681Y-22142307D01*
X29955142Y-22000000D01*
X33694318Y-22000000D01*
X33714955Y-22156758D01*
X33714957Y-22156766D01*
X33775462Y-22302838D01*
X33775462Y-22302839D01*
X33868844Y-22424537D01*
X33871718Y-22428282D01*
X33871722Y-22428285D01*
X33871723Y-22428286D01*
X33889747Y-22442116D01*
X33997159Y-22524536D01*
X33997160Y-22524536D01*
X33997161Y-22524537D01*
X34065486Y-22552838D01*
X34143238Y-22585044D01*
X34260809Y-22600522D01*
X34299999Y-22605682D01*
X34300000Y-22605682D01*
X34300001Y-22605682D01*
X34331352Y-22601554D01*
X34456762Y-22585044D01*
X34602841Y-22524536D01*
X34710254Y-22442114D01*
X34767927Y-22421692D01*
X34808403Y-22429193D01*
X34943238Y-22485044D01*
X35056833Y-22499999D01*
X35099999Y-22505682D01*
X35100000Y-22505682D01*
X35100001Y-22505682D01*
X35143167Y-22499999D01*
X35256762Y-22485044D01*
X35402841Y-22424536D01*
X35528282Y-22328282D01*
X35624536Y-22202841D01*
X35642281Y-22160002D01*
X53694451Y-22160002D01*
X53714616Y-22429098D01*
X53714618Y-22429107D01*
X53774666Y-22692197D01*
X53853264Y-22892457D01*
X53873257Y-22943398D01*
X54008185Y-23177102D01*
X54008189Y-23177108D01*
X54008191Y-23177110D01*
X54176434Y-23388081D01*
X54176440Y-23388087D01*
X54374252Y-23571629D01*
X54374254Y-23571630D01*
X54374259Y-23571635D01*
X54597226Y-23723651D01*
X54840359Y-23840738D01*
X55098228Y-23920280D01*
X55365071Y-23960500D01*
X55365076Y-23960500D01*
X55634924Y-23960500D01*
X55634929Y-23960500D01*
X55901772Y-23920280D01*
X56159641Y-23840738D01*
X56402775Y-23723651D01*
X56625741Y-23571635D01*
X56823378Y-23388255D01*
X56823559Y-23388087D01*
X56823565Y-23388081D01*
X56933282Y-23250500D01*
X56991815Y-23177102D01*
X57126743Y-22943398D01*
X57225334Y-22692195D01*
X57285383Y-22429103D01*
X57305549Y-22160000D01*
X57305306Y-22156762D01*
X57293351Y-21997229D01*
X57285383Y-21890897D01*
X57225334Y-21627805D01*
X57126743Y-21376602D01*
X56991815Y-21142898D01*
X56991808Y-21142889D01*
X56823565Y-20931918D01*
X56823559Y-20931912D01*
X56625747Y-20748370D01*
X56625744Y-20748368D01*
X56625741Y-20748365D01*
X56402775Y-20596349D01*
X56374001Y-20582492D01*
X56159643Y-20479262D01*
X55901776Y-20399721D01*
X55901773Y-20399720D01*
X55901772Y-20399720D01*
X55901767Y-20399719D01*
X55901766Y-20399719D01*
X55634932Y-20359500D01*
X55634929Y-20359500D01*
X55365071Y-20359500D01*
X55365067Y-20359500D01*
X55098233Y-20399719D01*
X55098223Y-20399721D01*
X54840358Y-20479262D01*
X54597233Y-20596345D01*
X54597229Y-20596347D01*
X54597226Y-20596349D01*
X54374259Y-20748365D01*
X54374252Y-20748370D01*
X54176440Y-20931912D01*
X54176434Y-20931918D01*
X54008191Y-21142889D01*
X54008187Y-21142894D01*
X54008185Y-21142898D01*
X53942687Y-21256344D01*
X53873258Y-21376599D01*
X53873254Y-21376608D01*
X53774666Y-21627802D01*
X53714618Y-21890892D01*
X53714616Y-21890901D01*
X53694451Y-22159997D01*
X53694451Y-22160002D01*
X35642281Y-22160002D01*
X35685044Y-22056762D01*
X35705682Y-21900000D01*
X35685044Y-21743238D01*
X35677681Y-21725462D01*
X35624537Y-21597161D01*
X35624537Y-21597160D01*
X35528286Y-21471723D01*
X35528285Y-21471722D01*
X35528282Y-21471718D01*
X35528277Y-21471714D01*
X35528276Y-21471713D01*
X35402838Y-21375462D01*
X35256766Y-21314957D01*
X35256758Y-21314955D01*
X35100001Y-21294318D01*
X35099999Y-21294318D01*
X34943241Y-21314955D01*
X34943233Y-21314957D01*
X34797161Y-21375462D01*
X34797160Y-21375462D01*
X34689747Y-21457883D01*
X34632071Y-21478307D01*
X34591595Y-21470805D01*
X34456766Y-21414957D01*
X34456758Y-21414955D01*
X34300001Y-21394318D01*
X34299999Y-21394318D01*
X34143241Y-21414955D01*
X34143233Y-21414957D01*
X33997161Y-21475462D01*
X33997160Y-21475462D01*
X33871723Y-21571713D01*
X33871713Y-21571723D01*
X33775462Y-21697160D01*
X33775462Y-21697161D01*
X33714957Y-21843233D01*
X33714955Y-21843241D01*
X33694318Y-21999999D01*
X33694318Y-22000000D01*
X29955142Y-22000000D01*
X29955142Y-21999997D01*
X29934681Y-21857689D01*
X29916017Y-21816824D01*
X29761838Y-21971004D01*
X29740243Y-21982006D01*
X29730072Y-21997229D01*
X29550000Y-21997229D01*
X29550000Y-21967508D01*
X29511803Y-21914935D01*
X29465838Y-21900000D01*
X29434162Y-21900000D01*
X29388197Y-21914935D01*
X29350000Y-21967508D01*
X29350000Y-22032492D01*
X29134664Y-22032492D01*
X29167156Y-22000000D01*
X29167156Y-21999999D01*
X28983981Y-21816824D01*
X28965319Y-21857687D01*
X28965318Y-21857690D01*
X28944858Y-21999997D01*
X28944858Y-22000000D01*
X28505142Y-22000000D01*
X28505142Y-21999997D01*
X28484681Y-21857689D01*
X28466017Y-21816824D01*
X28311838Y-21971004D01*
X28290243Y-21982006D01*
X28280072Y-21997229D01*
X28100000Y-21997229D01*
X28100000Y-21967508D01*
X28061803Y-21914935D01*
X28015838Y-21900000D01*
X27984162Y-21900000D01*
X27938197Y-21914935D01*
X27900000Y-21967508D01*
X27900000Y-22032492D01*
X27684664Y-22032492D01*
X27717156Y-22000000D01*
X27717156Y-21999999D01*
X27533981Y-21816824D01*
X27515319Y-21857687D01*
X27515318Y-21857690D01*
X27494858Y-21999997D01*
X27494858Y-22000000D01*
X27055142Y-22000000D01*
X27055142Y-21999997D01*
X27034681Y-21857689D01*
X27016017Y-21816824D01*
X26861838Y-21971004D01*
X26840243Y-21982006D01*
X26830072Y-21997229D01*
X26650000Y-21997229D01*
X26650000Y-21967508D01*
X26611803Y-21914935D01*
X26565838Y-21900000D01*
X26534162Y-21900000D01*
X26488197Y-21914935D01*
X26450000Y-21967508D01*
X26450000Y-22032492D01*
X26234664Y-22032492D01*
X26267156Y-22000000D01*
X26267156Y-21999999D01*
X26083981Y-21816824D01*
X26065319Y-21857687D01*
X26065318Y-21857690D01*
X26044858Y-21999997D01*
X26044858Y-22000000D01*
X21546424Y-22000000D01*
X21524537Y-21947161D01*
X21524537Y-21947160D01*
X21428286Y-21821723D01*
X21428285Y-21821722D01*
X21428282Y-21821718D01*
X21428277Y-21821714D01*
X21428276Y-21821713D01*
X21357104Y-21767101D01*
X21302841Y-21725464D01*
X21302840Y-21725463D01*
X21302838Y-21725462D01*
X21156766Y-21664957D01*
X21156758Y-21664955D01*
X21000001Y-21644318D01*
X20999999Y-21644318D01*
X20843241Y-21664955D01*
X20843233Y-21664957D01*
X20697161Y-21725462D01*
X20697160Y-21725462D01*
X20571723Y-21821713D01*
X20571713Y-21821723D01*
X20475462Y-21947160D01*
X20475462Y-21947161D01*
X20414957Y-22093233D01*
X20414955Y-22093241D01*
X20394318Y-22249999D01*
X20394318Y-22250000D01*
X5021332Y-22250000D01*
X4982366Y-22171745D01*
X4853872Y-22001593D01*
X4794161Y-21947159D01*
X4696307Y-21857952D01*
X4696300Y-21857946D01*
X4515024Y-21745705D01*
X4515019Y-21745702D01*
X4462773Y-21725462D01*
X4316198Y-21668679D01*
X4316197Y-21668678D01*
X4316195Y-21668678D01*
X4106610Y-21629500D01*
X3893390Y-21629500D01*
X3683804Y-21668678D01*
X3484980Y-21745702D01*
X3484975Y-21745705D01*
X3303699Y-21857946D01*
X3303692Y-21857952D01*
X3146135Y-22001586D01*
X3146131Y-22001589D01*
X3146128Y-22001593D01*
X3146125Y-22001597D01*
X3017635Y-22171743D01*
X3017630Y-22171752D01*
X2922596Y-22362608D01*
X2922595Y-22362611D01*
X2910655Y-22404574D01*
X2864244Y-22567688D01*
X2860551Y-22607543D01*
X2844571Y-22780000D01*
X500000Y-22780000D01*
X500000Y-21532971D01*
X26365814Y-21532971D01*
X26549999Y-21717156D01*
X26734184Y-21532971D01*
X27815814Y-21532971D01*
X27999999Y-21717156D01*
X28184184Y-21532971D01*
X29265814Y-21532971D01*
X29449999Y-21717156D01*
X29634184Y-21532971D01*
X29521891Y-21500000D01*
X29378107Y-21500000D01*
X29265814Y-21532971D01*
X28184184Y-21532971D01*
X28071891Y-21500000D01*
X27928107Y-21500000D01*
X27815814Y-21532971D01*
X26734184Y-21532971D01*
X26621891Y-21500000D01*
X26478107Y-21500000D01*
X26365814Y-21532971D01*
X500000Y-21532971D01*
X500000Y-20240000D01*
X2844571Y-20240000D01*
X2864244Y-20452311D01*
X2882795Y-20517508D01*
X2922595Y-20657389D01*
X3017634Y-20848255D01*
X3146128Y-21018407D01*
X3146135Y-21018413D01*
X3303692Y-21162047D01*
X3303699Y-21162053D01*
X3407389Y-21226255D01*
X3484981Y-21274298D01*
X3683802Y-21351321D01*
X3893390Y-21390500D01*
X4106610Y-21390500D01*
X4316198Y-21351321D01*
X4515019Y-21274298D01*
X4696302Y-21162052D01*
X4853872Y-21018407D01*
X4854914Y-21017027D01*
X26365814Y-21017027D01*
X26478107Y-21049999D01*
X26478113Y-21050000D01*
X26621888Y-21050000D01*
X26621890Y-21049999D01*
X26734180Y-21017027D01*
X27815814Y-21017027D01*
X27928107Y-21049999D01*
X27928113Y-21050000D01*
X28071888Y-21050000D01*
X28071890Y-21049999D01*
X28184180Y-21017027D01*
X29265814Y-21017027D01*
X29378107Y-21049999D01*
X29378113Y-21050000D01*
X29521888Y-21050000D01*
X29521890Y-21049999D01*
X29634183Y-21017026D01*
X29447229Y-20830072D01*
X29434899Y-20838310D01*
X29431093Y-20850025D01*
X29421004Y-20861838D01*
X29265814Y-21017027D01*
X28184180Y-21017027D01*
X28184183Y-21017026D01*
X27997229Y-20830072D01*
X27984899Y-20838310D01*
X27981093Y-20850025D01*
X27971004Y-20861838D01*
X27815814Y-21017027D01*
X26734180Y-21017027D01*
X26734183Y-21017026D01*
X26547229Y-20830072D01*
X26534899Y-20838310D01*
X26531093Y-20850025D01*
X26521004Y-20861838D01*
X26365814Y-21017027D01*
X4854914Y-21017027D01*
X4982366Y-20848255D01*
X5077405Y-20657389D01*
X5107960Y-20550000D01*
X26044858Y-20550000D01*
X26065319Y-20692313D01*
X26083981Y-20733176D01*
X26234664Y-20582492D01*
X26450000Y-20582492D01*
X26488197Y-20635065D01*
X26534162Y-20650000D01*
X26565838Y-20650000D01*
X26611803Y-20635065D01*
X26650000Y-20582492D01*
X26650000Y-20547229D01*
X26830072Y-20547229D01*
X27016017Y-20733174D01*
X27034680Y-20692312D01*
X27034681Y-20692307D01*
X27055142Y-20550000D01*
X27494858Y-20550000D01*
X27515319Y-20692313D01*
X27533981Y-20733176D01*
X27684664Y-20582492D01*
X27900000Y-20582492D01*
X27938197Y-20635065D01*
X27984162Y-20650000D01*
X28015838Y-20650000D01*
X28061803Y-20635065D01*
X28100000Y-20582492D01*
X28100000Y-20547229D01*
X28280072Y-20547229D01*
X28466017Y-20733174D01*
X28484680Y-20692312D01*
X28484681Y-20692307D01*
X28505142Y-20550000D01*
X28944858Y-20550000D01*
X28965319Y-20692313D01*
X28983981Y-20733176D01*
X29134664Y-20582492D01*
X29350000Y-20582492D01*
X29388197Y-20635065D01*
X29434162Y-20650000D01*
X29465838Y-20650000D01*
X29511803Y-20635065D01*
X29550000Y-20582492D01*
X29550000Y-20547229D01*
X29730072Y-20547229D01*
X29916017Y-20733174D01*
X29934680Y-20692312D01*
X29934681Y-20692307D01*
X29955142Y-20550000D01*
X29955142Y-20549997D01*
X29934681Y-20407689D01*
X29916017Y-20366824D01*
X29761838Y-20521004D01*
X29740243Y-20532006D01*
X29730072Y-20547229D01*
X29550000Y-20547229D01*
X29550000Y-20517508D01*
X29511803Y-20464935D01*
X29465838Y-20450000D01*
X29434162Y-20450000D01*
X29388197Y-20464935D01*
X29350000Y-20517508D01*
X29350000Y-20582492D01*
X29134664Y-20582492D01*
X29167156Y-20550000D01*
X29167156Y-20549999D01*
X28983981Y-20366824D01*
X28965319Y-20407687D01*
X28965318Y-20407690D01*
X28944858Y-20549997D01*
X28944858Y-20550000D01*
X28505142Y-20550000D01*
X28505142Y-20549997D01*
X28484681Y-20407689D01*
X28466017Y-20366824D01*
X28311838Y-20521004D01*
X28290243Y-20532006D01*
X28280072Y-20547229D01*
X28100000Y-20547229D01*
X28100000Y-20517508D01*
X28061803Y-20464935D01*
X28015838Y-20450000D01*
X27984162Y-20450000D01*
X27938197Y-20464935D01*
X27900000Y-20517508D01*
X27900000Y-20582492D01*
X27684664Y-20582492D01*
X27717156Y-20550000D01*
X27717156Y-20549999D01*
X27533981Y-20366824D01*
X27515319Y-20407687D01*
X27515318Y-20407690D01*
X27494858Y-20549997D01*
X27494858Y-20550000D01*
X27055142Y-20550000D01*
X27055142Y-20549997D01*
X27034681Y-20407689D01*
X27016017Y-20366824D01*
X26861838Y-20521004D01*
X26840243Y-20532006D01*
X26830072Y-20547229D01*
X26650000Y-20547229D01*
X26650000Y-20517508D01*
X26611803Y-20464935D01*
X26565838Y-20450000D01*
X26534162Y-20450000D01*
X26488197Y-20464935D01*
X26450000Y-20517508D01*
X26450000Y-20582492D01*
X26234664Y-20582492D01*
X26267156Y-20550000D01*
X26267156Y-20549999D01*
X26083981Y-20366824D01*
X26065319Y-20407687D01*
X26065318Y-20407690D01*
X26044858Y-20549997D01*
X26044858Y-20550000D01*
X5107960Y-20550000D01*
X5135756Y-20452310D01*
X5155429Y-20240000D01*
X5140878Y-20082971D01*
X26365814Y-20082971D01*
X26549999Y-20267156D01*
X26734184Y-20082971D01*
X27815814Y-20082971D01*
X27999999Y-20267156D01*
X28184184Y-20082971D01*
X29265814Y-20082971D01*
X29449999Y-20267156D01*
X29634184Y-20082971D01*
X29521891Y-20050000D01*
X29378107Y-20050000D01*
X29265814Y-20082971D01*
X28184184Y-20082971D01*
X28071891Y-20050000D01*
X27928107Y-20050000D01*
X27815814Y-20082971D01*
X26734184Y-20082971D01*
X26621891Y-20050000D01*
X26478107Y-20050000D01*
X26365814Y-20082971D01*
X5140878Y-20082971D01*
X5135756Y-20027690D01*
X5077405Y-19822611D01*
X4982366Y-19631745D01*
X4853872Y-19461593D01*
X4799623Y-19412139D01*
X4696307Y-19317952D01*
X4696300Y-19317946D01*
X4667316Y-19300000D01*
X8794318Y-19300000D01*
X8814955Y-19456758D01*
X8814957Y-19456766D01*
X8875462Y-19602838D01*
X8875462Y-19602839D01*
X8897648Y-19631752D01*
X8971718Y-19728282D01*
X9097159Y-19824536D01*
X9243238Y-19885044D01*
X9360809Y-19900522D01*
X9399999Y-19905682D01*
X9400000Y-19905682D01*
X9400001Y-19905682D01*
X9431352Y-19901554D01*
X9556762Y-19885044D01*
X9702841Y-19824536D01*
X9828282Y-19728282D01*
X9924536Y-19602841D01*
X9925713Y-19600000D01*
X30894318Y-19600000D01*
X30914955Y-19756758D01*
X30914957Y-19756766D01*
X30975462Y-19902838D01*
X30975462Y-19902839D01*
X31071713Y-20028276D01*
X31071718Y-20028282D01*
X31197159Y-20124536D01*
X31343238Y-20185044D01*
X31460809Y-20200522D01*
X31499999Y-20205682D01*
X31500000Y-20205682D01*
X31500001Y-20205682D01*
X31531352Y-20201554D01*
X31656762Y-20185044D01*
X31802841Y-20124536D01*
X31928282Y-20028282D01*
X32024536Y-19902841D01*
X32085044Y-19756762D01*
X32105682Y-19600000D01*
X32085044Y-19443238D01*
X32025713Y-19300000D01*
X32024537Y-19297161D01*
X32024537Y-19297160D01*
X31928286Y-19171723D01*
X31928285Y-19171722D01*
X31928282Y-19171718D01*
X31928277Y-19171714D01*
X31928276Y-19171713D01*
X31802838Y-19075462D01*
X31656766Y-19014957D01*
X31656758Y-19014955D01*
X31500001Y-18994318D01*
X31499999Y-18994318D01*
X31343241Y-19014955D01*
X31343233Y-19014957D01*
X31197161Y-19075462D01*
X31197160Y-19075462D01*
X31071723Y-19171713D01*
X31071713Y-19171723D01*
X30975462Y-19297160D01*
X30975462Y-19297161D01*
X30914957Y-19443233D01*
X30914955Y-19443241D01*
X30894318Y-19599999D01*
X30894318Y-19600000D01*
X9925713Y-19600000D01*
X9985044Y-19456762D01*
X10005682Y-19300000D01*
X9985044Y-19143238D01*
X9985042Y-19143233D01*
X9924537Y-18997161D01*
X9924537Y-18997160D01*
X9828286Y-18871723D01*
X9828285Y-18871722D01*
X9828282Y-18871718D01*
X9828277Y-18871714D01*
X9828276Y-18871713D01*
X9738517Y-18802839D01*
X9702841Y-18775464D01*
X9702840Y-18775463D01*
X9702838Y-18775462D01*
X9556766Y-18714957D01*
X9556758Y-18714955D01*
X9400001Y-18694318D01*
X9399999Y-18694318D01*
X9243241Y-18714955D01*
X9243233Y-18714957D01*
X9097161Y-18775462D01*
X9097160Y-18775462D01*
X8971723Y-18871713D01*
X8971713Y-18871723D01*
X8875462Y-18997160D01*
X8875462Y-18997161D01*
X8814957Y-19143233D01*
X8814955Y-19143241D01*
X8794318Y-19299999D01*
X8794318Y-19300000D01*
X4667316Y-19300000D01*
X4515024Y-19205705D01*
X4515019Y-19205702D01*
X4427295Y-19171718D01*
X4316198Y-19128679D01*
X4316197Y-19128678D01*
X4316195Y-19128678D01*
X4106610Y-19089500D01*
X3893390Y-19089500D01*
X3683804Y-19128678D01*
X3484980Y-19205702D01*
X3484975Y-19205705D01*
X3303699Y-19317946D01*
X3303692Y-19317952D01*
X3146135Y-19461586D01*
X3146131Y-19461589D01*
X3146128Y-19461593D01*
X3146125Y-19461597D01*
X3017635Y-19631743D01*
X3017630Y-19631752D01*
X2922596Y-19822608D01*
X2864244Y-20027688D01*
X2844571Y-20240000D01*
X500000Y-20240000D01*
X500000Y-17700000D01*
X2844571Y-17700000D01*
X2864244Y-17912311D01*
X2864997Y-17914956D01*
X2922595Y-18117389D01*
X3017634Y-18308255D01*
X3146128Y-18478407D01*
X3216734Y-18542773D01*
X3303692Y-18622047D01*
X3303699Y-18622053D01*
X3338581Y-18643651D01*
X3484981Y-18734298D01*
X3683802Y-18811321D01*
X3893390Y-18850500D01*
X4106610Y-18850500D01*
X4316198Y-18811321D01*
X4515019Y-18734298D01*
X4696302Y-18622052D01*
X4830186Y-18500000D01*
X5994318Y-18500000D01*
X6014955Y-18656758D01*
X6014957Y-18656766D01*
X6075462Y-18802838D01*
X6075462Y-18802839D01*
X6171713Y-18928276D01*
X6171718Y-18928282D01*
X6297159Y-19024536D01*
X6443238Y-19085044D01*
X6560809Y-19100522D01*
X6599999Y-19105682D01*
X6600000Y-19105682D01*
X6600001Y-19105682D01*
X6631352Y-19101554D01*
X6756762Y-19085044D01*
X6902841Y-19024536D01*
X7028282Y-18928282D01*
X7124536Y-18802841D01*
X7185044Y-18656762D01*
X7205682Y-18500000D01*
X7185044Y-18343238D01*
X7170483Y-18308085D01*
X7124537Y-18197161D01*
X7124537Y-18197160D01*
X7028286Y-18071723D01*
X7028285Y-18071722D01*
X7028282Y-18071718D01*
X7028277Y-18071714D01*
X7028276Y-18071713D01*
X6902838Y-17975462D01*
X6756766Y-17914957D01*
X6756758Y-17914955D01*
X6600001Y-17894318D01*
X6599999Y-17894318D01*
X6443241Y-17914955D01*
X6443233Y-17914957D01*
X6297161Y-17975462D01*
X6297160Y-17975462D01*
X6171723Y-18071713D01*
X6171713Y-18071723D01*
X6075462Y-18197160D01*
X6075462Y-18197161D01*
X6014957Y-18343233D01*
X6014955Y-18343241D01*
X5994318Y-18499999D01*
X5994318Y-18500000D01*
X4830186Y-18500000D01*
X4853872Y-18478407D01*
X4982366Y-18308255D01*
X5077405Y-18117389D01*
X5135756Y-17912310D01*
X5155429Y-17700000D01*
X5135756Y-17487690D01*
X5077405Y-17282611D01*
X4982366Y-17091745D01*
X4973498Y-17080002D01*
X53694451Y-17080002D01*
X53714616Y-17349098D01*
X53714618Y-17349107D01*
X53774666Y-17612197D01*
X53809127Y-17700000D01*
X53873257Y-17863398D01*
X54008185Y-18097102D01*
X54008189Y-18097108D01*
X54008191Y-18097110D01*
X54176434Y-18308081D01*
X54176440Y-18308087D01*
X54374252Y-18491629D01*
X54374254Y-18491630D01*
X54374259Y-18491635D01*
X54597226Y-18643651D01*
X54840359Y-18760738D01*
X55098228Y-18840280D01*
X55365071Y-18880500D01*
X55365076Y-18880500D01*
X55634924Y-18880500D01*
X55634929Y-18880500D01*
X55901772Y-18840280D01*
X56159641Y-18760738D01*
X56402775Y-18643651D01*
X56625741Y-18491635D01*
X56823378Y-18308255D01*
X56823559Y-18308087D01*
X56823565Y-18308081D01*
X56975635Y-18117391D01*
X56991815Y-18097102D01*
X57126743Y-17863398D01*
X57225334Y-17612195D01*
X57285383Y-17349103D01*
X57305549Y-17080000D01*
X57285383Y-16810897D01*
X57225334Y-16547805D01*
X57126743Y-16296602D01*
X56991815Y-16062898D01*
X56991808Y-16062889D01*
X56823565Y-15851918D01*
X56823559Y-15851912D01*
X56625747Y-15668370D01*
X56625744Y-15668368D01*
X56625741Y-15668365D01*
X56402775Y-15516349D01*
X56402767Y-15516345D01*
X56159643Y-15399262D01*
X55901776Y-15319721D01*
X55901773Y-15319720D01*
X55901772Y-15319720D01*
X55901767Y-15319719D01*
X55901766Y-15319719D01*
X55634932Y-15279500D01*
X55634929Y-15279500D01*
X55365071Y-15279500D01*
X55365067Y-15279500D01*
X55098233Y-15319719D01*
X55098223Y-15319721D01*
X54840358Y-15399262D01*
X54597233Y-15516345D01*
X54597229Y-15516347D01*
X54597226Y-15516349D01*
X54374259Y-15668365D01*
X54374252Y-15668370D01*
X54176440Y-15851912D01*
X54176434Y-15851918D01*
X54008191Y-16062889D01*
X54008187Y-16062894D01*
X54008185Y-16062898D01*
X53942687Y-16176344D01*
X53873258Y-16296599D01*
X53873254Y-16296608D01*
X53774666Y-16547802D01*
X53714618Y-16810892D01*
X53714616Y-16810901D01*
X53694451Y-17079997D01*
X53694451Y-17080002D01*
X4973498Y-17080002D01*
X4853872Y-16921593D01*
X4799623Y-16872139D01*
X4696307Y-16777952D01*
X4696300Y-16777946D01*
X4515024Y-16665705D01*
X4515019Y-16665702D01*
X4316195Y-16588678D01*
X4106610Y-16549500D01*
X3893390Y-16549500D01*
X3683804Y-16588678D01*
X3484980Y-16665702D01*
X3484975Y-16665705D01*
X3303699Y-16777946D01*
X3303692Y-16777952D01*
X3146135Y-16921586D01*
X3146131Y-16921589D01*
X3146128Y-16921593D01*
X3146125Y-16921597D01*
X3017635Y-17091743D01*
X3017630Y-17091752D01*
X2922596Y-17282608D01*
X2864244Y-17487688D01*
X2844571Y-17700000D01*
X500000Y-17700000D01*
X500000Y-15160000D01*
X2844571Y-15160000D01*
X2864244Y-15372311D01*
X2887449Y-15453867D01*
X2922595Y-15577389D01*
X3017634Y-15768255D01*
X3146128Y-15938407D01*
X3146135Y-15938413D01*
X3303692Y-16082047D01*
X3303699Y-16082053D01*
X3407389Y-16146255D01*
X3484981Y-16194298D01*
X3683802Y-16271321D01*
X3893390Y-16310500D01*
X4106610Y-16310500D01*
X4316198Y-16271321D01*
X4515019Y-16194298D01*
X4696302Y-16082052D01*
X4853872Y-15938407D01*
X4982366Y-15768255D01*
X5077405Y-15577389D01*
X5135756Y-15372310D01*
X5155429Y-15160000D01*
X5135756Y-14947690D01*
X5077405Y-14742611D01*
X5006394Y-14600000D01*
X22394318Y-14600000D01*
X22414955Y-14756758D01*
X22414957Y-14756766D01*
X22475462Y-14902838D01*
X22475462Y-14902839D01*
X22517438Y-14957543D01*
X22571718Y-15028282D01*
X22697159Y-15124536D01*
X22697160Y-15124536D01*
X22697161Y-15124537D01*
X22843233Y-15185042D01*
X22843238Y-15185044D01*
X22960809Y-15200522D01*
X22999999Y-15205682D01*
X23000000Y-15205682D01*
X23000001Y-15205682D01*
X23031352Y-15201554D01*
X23156762Y-15185044D01*
X23302841Y-15124536D01*
X23334814Y-15100002D01*
X28744353Y-15100002D01*
X28764834Y-15242456D01*
X28824138Y-15372311D01*
X28824623Y-15373373D01*
X28847056Y-15399262D01*
X28918873Y-15482144D01*
X29039942Y-15559950D01*
X29039947Y-15559953D01*
X29146403Y-15591211D01*
X29178035Y-15600499D01*
X29178036Y-15600499D01*
X29178039Y-15600500D01*
X29178041Y-15600500D01*
X29321959Y-15600500D01*
X29321961Y-15600500D01*
X29460053Y-15559953D01*
X29581128Y-15482143D01*
X29675377Y-15373373D01*
X29735165Y-15242457D01*
X29743420Y-15185042D01*
X29755647Y-15100002D01*
X29755647Y-15099997D01*
X29735165Y-14957543D01*
X29675377Y-14826628D01*
X29675377Y-14826627D01*
X29581128Y-14717857D01*
X29581127Y-14717856D01*
X29581126Y-14717855D01*
X29460057Y-14640049D01*
X29460054Y-14640047D01*
X29460053Y-14640047D01*
X29460050Y-14640046D01*
X29321964Y-14599500D01*
X29321961Y-14599500D01*
X29178039Y-14599500D01*
X29178035Y-14599500D01*
X29039949Y-14640046D01*
X29039942Y-14640049D01*
X28918873Y-14717855D01*
X28824622Y-14826628D01*
X28764834Y-14957543D01*
X28744353Y-15099997D01*
X28744353Y-15100002D01*
X23334814Y-15100002D01*
X23428282Y-15028282D01*
X23524536Y-14902841D01*
X23585044Y-14756762D01*
X23605682Y-14600000D01*
X23585044Y-14443238D01*
X23585042Y-14443233D01*
X23524537Y-14297161D01*
X23524537Y-14297160D01*
X23428286Y-14171723D01*
X23428285Y-14171722D01*
X23428282Y-14171718D01*
X23428277Y-14171714D01*
X23428276Y-14171713D01*
X23302838Y-14075462D01*
X23156766Y-14014957D01*
X23156758Y-14014955D01*
X23000001Y-13994318D01*
X22999999Y-13994318D01*
X22843241Y-14014955D01*
X22843233Y-14014957D01*
X22697161Y-14075462D01*
X22697160Y-14075462D01*
X22571723Y-14171713D01*
X22571713Y-14171723D01*
X22475462Y-14297160D01*
X22475462Y-14297161D01*
X22414957Y-14443233D01*
X22414955Y-14443241D01*
X22394318Y-14599999D01*
X22394318Y-14600000D01*
X5006394Y-14600000D01*
X4982366Y-14551745D01*
X4853872Y-14381593D01*
X4761253Y-14297159D01*
X4696307Y-14237952D01*
X4696300Y-14237946D01*
X4515024Y-14125705D01*
X4515019Y-14125702D01*
X4463341Y-14105682D01*
X4316198Y-14048679D01*
X4316197Y-14048678D01*
X4316195Y-14048678D01*
X4106610Y-14009500D01*
X3893390Y-14009500D01*
X3683804Y-14048678D01*
X3484980Y-14125702D01*
X3484975Y-14125705D01*
X3303699Y-14237946D01*
X3303692Y-14237952D01*
X3146135Y-14381586D01*
X3146131Y-14381589D01*
X3146128Y-14381593D01*
X3146125Y-14381597D01*
X3017635Y-14551743D01*
X3017630Y-14551752D01*
X2922596Y-14742608D01*
X2922595Y-14742611D01*
X2910655Y-14784574D01*
X2864244Y-14947688D01*
X2844571Y-15160000D01*
X500000Y-15160000D01*
X500000Y-12620000D01*
X2844571Y-12620000D01*
X2864244Y-12832310D01*
X2922595Y-13037389D01*
X3017634Y-13228255D01*
X3146128Y-13398407D01*
X3216734Y-13462773D01*
X3303692Y-13542047D01*
X3303699Y-13542053D01*
X3348816Y-13569988D01*
X3484981Y-13654298D01*
X3683802Y-13731321D01*
X3893390Y-13770500D01*
X4106610Y-13770500D01*
X4316198Y-13731321D01*
X4515019Y-13654298D01*
X4696302Y-13542052D01*
X4742431Y-13500000D01*
X5994318Y-13500000D01*
X6014955Y-13656758D01*
X6014957Y-13656766D01*
X6075462Y-13802838D01*
X6075462Y-13802839D01*
X6075464Y-13802841D01*
X6171718Y-13928282D01*
X6297159Y-14024536D01*
X6443238Y-14085044D01*
X6560809Y-14100522D01*
X6599999Y-14105682D01*
X6600000Y-14105682D01*
X6600001Y-14105682D01*
X6631352Y-14101554D01*
X6756762Y-14085044D01*
X6902841Y-14024536D01*
X7028282Y-13928282D01*
X7124536Y-13802841D01*
X7185044Y-13656762D01*
X7205682Y-13500000D01*
X7185044Y-13343238D01*
X7137417Y-13228256D01*
X7124537Y-13197161D01*
X7124537Y-13197160D01*
X7028286Y-13071723D01*
X7028285Y-13071722D01*
X7028282Y-13071718D01*
X7028277Y-13071714D01*
X7028276Y-13071713D01*
X6934817Y-13000000D01*
X31894318Y-13000000D01*
X31914955Y-13156758D01*
X31914957Y-13156766D01*
X31975462Y-13302838D01*
X31975462Y-13302839D01*
X32071713Y-13428276D01*
X32071718Y-13428282D01*
X32197159Y-13524536D01*
X32197160Y-13524536D01*
X32197161Y-13524537D01*
X32306894Y-13569990D01*
X32343238Y-13585044D01*
X32460809Y-13600522D01*
X32499999Y-13605682D01*
X32500000Y-13605682D01*
X32500001Y-13605682D01*
X32531352Y-13601554D01*
X32656762Y-13585044D01*
X32802841Y-13524536D01*
X32928282Y-13428282D01*
X33024536Y-13302841D01*
X33085044Y-13156762D01*
X33105682Y-13000000D01*
X36894318Y-13000000D01*
X36914955Y-13156758D01*
X36914957Y-13156766D01*
X36975462Y-13302838D01*
X36975462Y-13302839D01*
X37071713Y-13428276D01*
X37071718Y-13428282D01*
X37197159Y-13524536D01*
X37197160Y-13524536D01*
X37197161Y-13524537D01*
X37306894Y-13569990D01*
X37343238Y-13585044D01*
X37460809Y-13600522D01*
X37499999Y-13605682D01*
X37500000Y-13605682D01*
X37500001Y-13605682D01*
X37531352Y-13601554D01*
X37656762Y-13585044D01*
X37753775Y-13544860D01*
X53699500Y-13544860D01*
X53699501Y-13544863D01*
X53702414Y-13569990D01*
X53718174Y-13605682D01*
X53747794Y-13672765D01*
X53827235Y-13752206D01*
X53930009Y-13797585D01*
X53955135Y-13800500D01*
X57044864Y-13800499D01*
X57069991Y-13797585D01*
X57172765Y-13752206D01*
X57252206Y-13672765D01*
X57297585Y-13569991D01*
X57300500Y-13544865D01*
X57300499Y-10455136D01*
X57297585Y-10430009D01*
X57252206Y-10327235D01*
X57172765Y-10247794D01*
X57069991Y-10202415D01*
X57069990Y-10202414D01*
X57069988Y-10202414D01*
X57044868Y-10199500D01*
X53955139Y-10199500D01*
X53955136Y-10199501D01*
X53930009Y-10202414D01*
X53827235Y-10247794D01*
X53747794Y-10327235D01*
X53702414Y-10430011D01*
X53699500Y-10455130D01*
X53699500Y-13544860D01*
X37753775Y-13544860D01*
X37802841Y-13524536D01*
X37928282Y-13428282D01*
X38024536Y-13302841D01*
X38085044Y-13156762D01*
X38105682Y-13000000D01*
X38085044Y-12843238D01*
X38080518Y-12832311D01*
X38024537Y-12697161D01*
X38024537Y-12697160D01*
X37928286Y-12571723D01*
X37928285Y-12571722D01*
X37928282Y-12571718D01*
X37928277Y-12571714D01*
X37928276Y-12571713D01*
X37802838Y-12475462D01*
X37656766Y-12414957D01*
X37656758Y-12414955D01*
X37500001Y-12394318D01*
X37499999Y-12394318D01*
X37343241Y-12414955D01*
X37343233Y-12414957D01*
X37197161Y-12475462D01*
X37197160Y-12475462D01*
X37071723Y-12571713D01*
X37071713Y-12571723D01*
X36975462Y-12697160D01*
X36975462Y-12697161D01*
X36914957Y-12843233D01*
X36914955Y-12843241D01*
X36894318Y-12999999D01*
X36894318Y-13000000D01*
X33105682Y-13000000D01*
X33085044Y-12843238D01*
X33080518Y-12832311D01*
X33024537Y-12697161D01*
X33024537Y-12697160D01*
X32928286Y-12571723D01*
X32928285Y-12571722D01*
X32928282Y-12571718D01*
X32928277Y-12571714D01*
X32928276Y-12571713D01*
X32802838Y-12475462D01*
X32656766Y-12414957D01*
X32656758Y-12414955D01*
X32500001Y-12394318D01*
X32499999Y-12394318D01*
X32343241Y-12414955D01*
X32343233Y-12414957D01*
X32197161Y-12475462D01*
X32197160Y-12475462D01*
X32071723Y-12571713D01*
X32071713Y-12571723D01*
X31975462Y-12697160D01*
X31975462Y-12697161D01*
X31914957Y-12843233D01*
X31914955Y-12843241D01*
X31894318Y-12999999D01*
X31894318Y-13000000D01*
X6934817Y-13000000D01*
X6902838Y-12975462D01*
X6756766Y-12914957D01*
X6756758Y-12914955D01*
X6600001Y-12894318D01*
X6599999Y-12894318D01*
X6443241Y-12914955D01*
X6443233Y-12914957D01*
X6297161Y-12975462D01*
X6297160Y-12975462D01*
X6171723Y-13071713D01*
X6171713Y-13071723D01*
X6075462Y-13197160D01*
X6075462Y-13197161D01*
X6014957Y-13343233D01*
X6014955Y-13343241D01*
X5994318Y-13499999D01*
X5994318Y-13500000D01*
X4742431Y-13500000D01*
X4853872Y-13398407D01*
X4982366Y-13228255D01*
X5077405Y-13037389D01*
X5135756Y-12832310D01*
X5155429Y-12620000D01*
X5135756Y-12407690D01*
X5077405Y-12202611D01*
X4982366Y-12011745D01*
X4853872Y-11841593D01*
X4799623Y-11792139D01*
X4696307Y-11697952D01*
X4696300Y-11697946D01*
X4515024Y-11585705D01*
X4515019Y-11585702D01*
X4316195Y-11508678D01*
X4106610Y-11469500D01*
X3893390Y-11469500D01*
X3683804Y-11508678D01*
X3484980Y-11585702D01*
X3484975Y-11585705D01*
X3303699Y-11697946D01*
X3303692Y-11697952D01*
X3146135Y-11841586D01*
X3146131Y-11841589D01*
X3146128Y-11841593D01*
X3146125Y-11841597D01*
X3017635Y-12011743D01*
X3017630Y-12011752D01*
X2922596Y-12202608D01*
X2864244Y-12407688D01*
X2857964Y-12475462D01*
X2844571Y-12620000D01*
X500000Y-12620000D01*
X500000Y-10080000D01*
X2844571Y-10080000D01*
X2864244Y-10292310D01*
X2922595Y-10497389D01*
X3017634Y-10688255D01*
X3146128Y-10858407D01*
X3146135Y-10858413D01*
X3303692Y-11002047D01*
X3303699Y-11002053D01*
X3407389Y-11066255D01*
X3484981Y-11114298D01*
X3683802Y-11191321D01*
X3893390Y-11230500D01*
X4106610Y-11230500D01*
X4316198Y-11191321D01*
X4515019Y-11114298D01*
X4696302Y-11002052D01*
X4853872Y-10858407D01*
X4982366Y-10688255D01*
X5077405Y-10497389D01*
X5135756Y-10292310D01*
X5155429Y-10080000D01*
X5135756Y-9867690D01*
X5077405Y-9662611D01*
X4982366Y-9471745D01*
X4853872Y-9301593D01*
X4799623Y-9252139D01*
X4696307Y-9157952D01*
X4696300Y-9157946D01*
X4515024Y-9045705D01*
X4515019Y-9045702D01*
X4316195Y-8968678D01*
X4106610Y-8929500D01*
X3893390Y-8929500D01*
X3683804Y-8968678D01*
X3484980Y-9045702D01*
X3484975Y-9045705D01*
X3303699Y-9157946D01*
X3303692Y-9157952D01*
X3146135Y-9301586D01*
X3146131Y-9301589D01*
X3146128Y-9301593D01*
X3146125Y-9301597D01*
X3017635Y-9471743D01*
X3017630Y-9471752D01*
X2922596Y-9662608D01*
X2864244Y-9867688D01*
X2864244Y-9867690D01*
X2844571Y-10080000D01*
X500000Y-10080000D01*
X500000Y-7540000D01*
X2844571Y-7540000D01*
X2864244Y-7752310D01*
X2922595Y-7957389D01*
X3017634Y-8148255D01*
X3146128Y-8318407D01*
X3146135Y-8318413D01*
X3303692Y-8462047D01*
X3303699Y-8462053D01*
X3407389Y-8526255D01*
X3484981Y-8574298D01*
X3683802Y-8651321D01*
X3893390Y-8690500D01*
X4106610Y-8690500D01*
X4316198Y-8651321D01*
X4515019Y-8574298D01*
X4696302Y-8462052D01*
X4853872Y-8318407D01*
X4982366Y-8148255D01*
X5077405Y-7957389D01*
X5135756Y-7752310D01*
X5155429Y-7540000D01*
X5135756Y-7327690D01*
X5077405Y-7122611D01*
X4982366Y-6931745D01*
X4853872Y-6761593D01*
X4799623Y-6712139D01*
X4696307Y-6617952D01*
X4696300Y-6617946D01*
X4515024Y-6505705D01*
X4515019Y-6505702D01*
X4316195Y-6428678D01*
X4106610Y-6389500D01*
X3893390Y-6389500D01*
X3683804Y-6428678D01*
X3484980Y-6505702D01*
X3484975Y-6505705D01*
X3303699Y-6617946D01*
X3303692Y-6617952D01*
X3146135Y-6761586D01*
X3146131Y-6761589D01*
X3146128Y-6761593D01*
X3146125Y-6761597D01*
X3017635Y-6931743D01*
X3017630Y-6931752D01*
X2922596Y-7122608D01*
X2864244Y-7327688D01*
X2864244Y-7327690D01*
X2844571Y-7540000D01*
X500000Y-7540000D01*
X500000Y-5874624D01*
X2900000Y-5874624D01*
X2914506Y-5947546D01*
X2914507Y-5947548D01*
X2969758Y-6030237D01*
X2969762Y-6030241D01*
X3052451Y-6085492D01*
X3052453Y-6085493D01*
X3125375Y-6099999D01*
X3125377Y-6100000D01*
X3799999Y-6100000D01*
X3800000Y-6099999D01*
X3800000Y-5458335D01*
X3857685Y-5484680D01*
X3964237Y-5500000D01*
X4035763Y-5500000D01*
X4142315Y-5484680D01*
X4200000Y-5458335D01*
X4200000Y-6099999D01*
X4200001Y-6100000D01*
X4874623Y-6100000D01*
X4874624Y-6099999D01*
X4947546Y-6085493D01*
X4947548Y-6085492D01*
X5008358Y-6044860D01*
X10199500Y-6044860D01*
X10199501Y-6044863D01*
X10202414Y-6069990D01*
X10227756Y-6127385D01*
X10247794Y-6172765D01*
X10327235Y-6252206D01*
X10430009Y-6297585D01*
X10455135Y-6300500D01*
X13544864Y-6300499D01*
X13569991Y-6297585D01*
X13672765Y-6252206D01*
X13752206Y-6172765D01*
X13797585Y-6069991D01*
X13800500Y-6044865D01*
X13800500Y-4500002D01*
X15325093Y-4500002D01*
X15344693Y-4761549D01*
X15344695Y-4761559D01*
X15403057Y-5017264D01*
X15498883Y-5261426D01*
X15498889Y-5261438D01*
X15630024Y-5488567D01*
X15630029Y-5488575D01*
X15709245Y-5587909D01*
X16416504Y-4880649D01*
X16417340Y-4882587D01*
X16523433Y-5025094D01*
X16659530Y-5139294D01*
X16702145Y-5160696D01*
X15988788Y-5874054D01*
X16202551Y-6019796D01*
X16438862Y-6133597D01*
X16689491Y-6210906D01*
X16689501Y-6210908D01*
X16948852Y-6249999D01*
X16948861Y-6250000D01*
X17211139Y-6250000D01*
X17211147Y-6249999D01*
X17470498Y-6210908D01*
X17470508Y-6210906D01*
X17721140Y-6133596D01*
X17957451Y-6019795D01*
X18171211Y-5874055D01*
X17458114Y-5160958D01*
X17571844Y-5086157D01*
X17693764Y-4956930D01*
X17739886Y-4877042D01*
X18450753Y-5587909D01*
X18529971Y-5488575D01*
X18661110Y-5261438D01*
X18661116Y-5261426D01*
X18756942Y-5017264D01*
X18815304Y-4761559D01*
X18815306Y-4761549D01*
X18834907Y-4500002D01*
X18834907Y-4499997D01*
X18815306Y-4238450D01*
X18815304Y-4238440D01*
X18756942Y-3982735D01*
X18661116Y-3738573D01*
X18661110Y-3738561D01*
X18552243Y-3550000D01*
X34894318Y-3550000D01*
X34914955Y-3706758D01*
X34914957Y-3706766D01*
X34975462Y-3852838D01*
X34975462Y-3852839D01*
X35071713Y-3978276D01*
X35071718Y-3978282D01*
X35197159Y-4074536D01*
X35343238Y-4135044D01*
X35460809Y-4150522D01*
X35499999Y-4155682D01*
X35500000Y-4155682D01*
X35500001Y-4155682D01*
X35531352Y-4151554D01*
X35656762Y-4135044D01*
X35802841Y-4074536D01*
X35839733Y-4046227D01*
X35897408Y-4025804D01*
X35956074Y-4043181D01*
X35960257Y-4046220D01*
X35997159Y-4074536D01*
X36143238Y-4135044D01*
X36260809Y-4150522D01*
X36299999Y-4155682D01*
X36300000Y-4155682D01*
X36300001Y-4155682D01*
X36331352Y-4151554D01*
X36456762Y-4135044D01*
X36602841Y-4074536D01*
X36699978Y-4000000D01*
X46394318Y-4000000D01*
X46414955Y-4156758D01*
X46414957Y-4156766D01*
X46475462Y-4302838D01*
X46475462Y-4302839D01*
X46529759Y-4373600D01*
X46571718Y-4428282D01*
X46697159Y-4524536D01*
X46697160Y-4524536D01*
X46697161Y-4524537D01*
X46843233Y-4585042D01*
X46843238Y-4585044D01*
X46960809Y-4600522D01*
X46999999Y-4605682D01*
X47000000Y-4605682D01*
X47000001Y-4605682D01*
X47031352Y-4601554D01*
X47156762Y-4585044D01*
X47302841Y-4524536D01*
X47339733Y-4496227D01*
X47397408Y-4475804D01*
X47456074Y-4493181D01*
X47460257Y-4496220D01*
X47497159Y-4524536D01*
X47497160Y-4524536D01*
X47497161Y-4524537D01*
X47643233Y-4585042D01*
X47643238Y-4585044D01*
X47760809Y-4600522D01*
X47799999Y-4605682D01*
X47800000Y-4605682D01*
X47800001Y-4605682D01*
X47831352Y-4601554D01*
X47956762Y-4585044D01*
X48102841Y-4524536D01*
X48228282Y-4428282D01*
X48324536Y-4302841D01*
X48385044Y-4156762D01*
X48405682Y-4000000D01*
X48385044Y-3843238D01*
X48359253Y-3780972D01*
X48324537Y-3697161D01*
X48324537Y-3697160D01*
X48228286Y-3571723D01*
X48228285Y-3571722D01*
X48228282Y-3571718D01*
X48228277Y-3571714D01*
X48228276Y-3571713D01*
X48157104Y-3517101D01*
X48102841Y-3475464D01*
X48102840Y-3475463D01*
X48102838Y-3475462D01*
X47956766Y-3414957D01*
X47956758Y-3414955D01*
X47800001Y-3394318D01*
X47799999Y-3394318D01*
X47643241Y-3414955D01*
X47643236Y-3414957D01*
X47497160Y-3475463D01*
X47497157Y-3475465D01*
X47460267Y-3503772D01*
X47402591Y-3524196D01*
X47343925Y-3506818D01*
X47339733Y-3503772D01*
X47325930Y-3493181D01*
X47302841Y-3475464D01*
X47302836Y-3475462D01*
X47269746Y-3461755D01*
X47156762Y-3414956D01*
X47156759Y-3414955D01*
X47156758Y-3414955D01*
X47000001Y-3394318D01*
X46999999Y-3394318D01*
X46843241Y-3414955D01*
X46843233Y-3414957D01*
X46697161Y-3475462D01*
X46697160Y-3475462D01*
X46571723Y-3571713D01*
X46571713Y-3571723D01*
X46475462Y-3697160D01*
X46475462Y-3697161D01*
X46414957Y-3843233D01*
X46414955Y-3843241D01*
X46394318Y-3999999D01*
X46394318Y-4000000D01*
X36699978Y-4000000D01*
X36728282Y-3978282D01*
X36824536Y-3852841D01*
X36885044Y-3706762D01*
X36905682Y-3550000D01*
X36885044Y-3393238D01*
X36847600Y-3302841D01*
X36824537Y-3247161D01*
X36824537Y-3247160D01*
X36728286Y-3121723D01*
X36728285Y-3121722D01*
X36728282Y-3121718D01*
X36728277Y-3121714D01*
X36728276Y-3121713D01*
X36602838Y-3025462D01*
X36541367Y-3000000D01*
X40394318Y-3000000D01*
X40414955Y-3156758D01*
X40414957Y-3156766D01*
X40475462Y-3302838D01*
X40475462Y-3302839D01*
X40561493Y-3414957D01*
X40571718Y-3428282D01*
X40697159Y-3524536D01*
X40843238Y-3585044D01*
X40960809Y-3600522D01*
X40999999Y-3605682D01*
X41000000Y-3605682D01*
X41000001Y-3605682D01*
X41031352Y-3601554D01*
X41156762Y-3585044D01*
X41302841Y-3524536D01*
X41339733Y-3496227D01*
X41397408Y-3475804D01*
X41456074Y-3493181D01*
X41460257Y-3496220D01*
X41497159Y-3524536D01*
X41643238Y-3585044D01*
X41760809Y-3600522D01*
X41799999Y-3605682D01*
X41800000Y-3605682D01*
X41800001Y-3605682D01*
X41831352Y-3601554D01*
X41956762Y-3585044D01*
X42102841Y-3524536D01*
X42228282Y-3428282D01*
X42324536Y-3302841D01*
X42385044Y-3156762D01*
X42405682Y-3000000D01*
X42385044Y-2843238D01*
X42362616Y-2789091D01*
X42324537Y-2697161D01*
X42324537Y-2697160D01*
X42228286Y-2571723D01*
X42228285Y-2571722D01*
X42228282Y-2571718D01*
X42228277Y-2571714D01*
X42228276Y-2571713D01*
X42102838Y-2475462D01*
X41956766Y-2414957D01*
X41956758Y-2414955D01*
X41800001Y-2394318D01*
X41799999Y-2394318D01*
X41643241Y-2414955D01*
X41643236Y-2414957D01*
X41497160Y-2475463D01*
X41497157Y-2475465D01*
X41460267Y-2503772D01*
X41402591Y-2524196D01*
X41343925Y-2506818D01*
X41339733Y-2503772D01*
X41302842Y-2475465D01*
X41302841Y-2475464D01*
X41302836Y-2475462D01*
X41269746Y-2461755D01*
X41156762Y-2414956D01*
X41156759Y-2414955D01*
X41156758Y-2414955D01*
X41000001Y-2394318D01*
X40999999Y-2394318D01*
X40843241Y-2414955D01*
X40843233Y-2414957D01*
X40697161Y-2475462D01*
X40697160Y-2475462D01*
X40571723Y-2571713D01*
X40571713Y-2571723D01*
X40475462Y-2697160D01*
X40475462Y-2697161D01*
X40414957Y-2843233D01*
X40414955Y-2843241D01*
X40394318Y-2999999D01*
X40394318Y-3000000D01*
X36541367Y-3000000D01*
X36456766Y-2964957D01*
X36456758Y-2964955D01*
X36300001Y-2944318D01*
X36299999Y-2944318D01*
X36143241Y-2964955D01*
X36143236Y-2964957D01*
X35997160Y-3025463D01*
X35997157Y-3025465D01*
X35960267Y-3053772D01*
X35902591Y-3074196D01*
X35843925Y-3056818D01*
X35839733Y-3053772D01*
X35802842Y-3025465D01*
X35802841Y-3025464D01*
X35802836Y-3025462D01*
X35769746Y-3011755D01*
X35656762Y-2964956D01*
X35656759Y-2964955D01*
X35656758Y-2964955D01*
X35500001Y-2944318D01*
X35499999Y-2944318D01*
X35343241Y-2964955D01*
X35343233Y-2964957D01*
X35197161Y-3025462D01*
X35197160Y-3025462D01*
X35071723Y-3121713D01*
X35071713Y-3121723D01*
X34975462Y-3247160D01*
X34975462Y-3247161D01*
X34914957Y-3393233D01*
X34914955Y-3393241D01*
X34894318Y-3549999D01*
X34894318Y-3550000D01*
X18552243Y-3550000D01*
X18529971Y-3511424D01*
X18450753Y-3412089D01*
X17743494Y-4119347D01*
X17742660Y-4117413D01*
X17636567Y-3974906D01*
X17500470Y-3860706D01*
X17457851Y-3839302D01*
X18171210Y-3125944D01*
X17957446Y-2980202D01*
X17721140Y-2866403D01*
X17470508Y-2789093D01*
X17470498Y-2789091D01*
X17211147Y-2750000D01*
X16948852Y-2750000D01*
X16689501Y-2789091D01*
X16689491Y-2789093D01*
X16438862Y-2866402D01*
X16202548Y-2980205D01*
X15988787Y-3125943D01*
X16701885Y-3839041D01*
X16588156Y-3913843D01*
X16466236Y-4043070D01*
X16420113Y-4122957D01*
X15709245Y-3412089D01*
X15630034Y-3511417D01*
X15630024Y-3511432D01*
X15498889Y-3738561D01*
X15498883Y-3738573D01*
X15403057Y-3982735D01*
X15344695Y-4238440D01*
X15344693Y-4238450D01*
X15325093Y-4499997D01*
X15325093Y-4500002D01*
X13800500Y-4500002D01*
X13800499Y-2955136D01*
X13797585Y-2930009D01*
X13752206Y-2827235D01*
X13672765Y-2747794D01*
X13569991Y-2702415D01*
X13569990Y-2702414D01*
X13569988Y-2702414D01*
X13544868Y-2699500D01*
X10455139Y-2699500D01*
X10455136Y-2699501D01*
X10430009Y-2702414D01*
X10327235Y-2747794D01*
X10247794Y-2827235D01*
X10202414Y-2930011D01*
X10199500Y-2955130D01*
X10199500Y-6044860D01*
X5008358Y-6044860D01*
X5030237Y-6030241D01*
X5030241Y-6030237D01*
X5085492Y-5947548D01*
X5085493Y-5947546D01*
X5099999Y-5874624D01*
X5100000Y-5874622D01*
X5100000Y-5200001D01*
X5099999Y-5200000D01*
X4462383Y-5200000D01*
X4500000Y-5071889D01*
X4500000Y-4928111D01*
X4462383Y-4800000D01*
X5099999Y-4800000D01*
X5100000Y-4799999D01*
X5100000Y-4125377D01*
X5099999Y-4125375D01*
X5085493Y-4052453D01*
X5085492Y-4052451D01*
X5030241Y-3969762D01*
X5030237Y-3969758D01*
X4947548Y-3914507D01*
X4947546Y-3914506D01*
X4874624Y-3900000D01*
X4200001Y-3900000D01*
X4200000Y-3900001D01*
X4200000Y-4541664D01*
X4142315Y-4515320D01*
X4035763Y-4500000D01*
X3964237Y-4500000D01*
X3857685Y-4515320D01*
X3800000Y-4541664D01*
X3800000Y-3900001D01*
X3799999Y-3900000D01*
X3125375Y-3900000D01*
X3052453Y-3914506D01*
X3052451Y-3914507D01*
X2969762Y-3969758D01*
X2969758Y-3969762D01*
X2914507Y-4052451D01*
X2914506Y-4052453D01*
X2900000Y-4125375D01*
X2900000Y-4799999D01*
X2900001Y-4800000D01*
X3537617Y-4800000D01*
X3500000Y-4928111D01*
X3500000Y-5071889D01*
X3537617Y-5200000D01*
X2900001Y-5200000D01*
X2900000Y-5200001D01*
X2900000Y-5874624D01*
X500000Y-5874624D01*
X500000Y-599000D01*
X518907Y-540809D01*
X568407Y-504845D01*
X599000Y-500000D01*
X55206039Y-500000D01*
X55264230Y-518907D01*
G37*
%TD.AperFunction*%
%TA.AperFunction,Conductor*%
G36*
X59024154Y-40741310D02*
G01*
X59063659Y-40699438D01*
X59063663Y-40699432D01*
X59268864Y-40423799D01*
X59268866Y-40423796D01*
X59315263Y-40343435D01*
X59360733Y-40302494D01*
X59421583Y-40296098D01*
X59474571Y-40326691D01*
X59499458Y-40382587D01*
X59500000Y-40392935D01*
X59500000Y-41401000D01*
X59481093Y-41459191D01*
X59431593Y-41495155D01*
X59401000Y-41500000D01*
X58393961Y-41500000D01*
X58335770Y-41481093D01*
X58299806Y-41431593D01*
X58299806Y-41370407D01*
X58335770Y-41320907D01*
X58339559Y-41318287D01*
X58564606Y-41170270D01*
X58740137Y-41022981D01*
X57602961Y-39885805D01*
X57671078Y-39838110D01*
X57838110Y-39671078D01*
X57885805Y-39602961D01*
X59024154Y-40741310D01*
G37*
%TD.AperFunction*%
%TA.AperFunction,Conductor*%
G36*
X59459191Y-518907D02*
G01*
X59495155Y-568407D01*
X59500000Y-599000D01*
X59500000Y-1607064D01*
X59481093Y-1665255D01*
X59431593Y-1701219D01*
X59370407Y-1701219D01*
X59320907Y-1665255D01*
X59315264Y-1656564D01*
X59268874Y-1576215D01*
X59268864Y-1576200D01*
X59063657Y-1300559D01*
X59024154Y-1258688D01*
X57885804Y-2397037D01*
X57838110Y-2328922D01*
X57671078Y-2161890D01*
X57602960Y-2114193D01*
X58740137Y-977017D01*
X58564601Y-829726D01*
X58339559Y-681713D01*
X58301332Y-633940D01*
X58298485Y-572821D01*
X58332107Y-521701D01*
X58389355Y-500107D01*
X58393961Y-500000D01*
X59401000Y-500000D01*
X59459191Y-518907D01*
G37*
%TD.AperFunction*%
%TD*%
M02*
