%TF.GenerationSoftware,KiCad,Pcbnew,7.0.11+dfsg-1build4*%
%TF.CreationDate,2026-07-02T06:00:03+00:00*%
%TF.ProjectId,tmc5240-daughterboard,746d6335-3234-4302-9d64-617567687465,rev?*%
%TF.SameCoordinates,Original*%
%TF.FileFunction,Legend,Top*%
%TF.FilePolarity,Positive*%
%FSLAX46Y46*%
G04 Gerber Fmt 4.6, Leading zero omitted, Abs format (unit mm)*
G04 Created by KiCad (PCBNEW 7.0.11+dfsg-1build4) date 2026-07-02 06:00:03*
%MOMM*%
%LPD*%
G01*
G04 APERTURE LIST*
%ADD10C,0.150000*%
%ADD11C,0.120000*%
G04 APERTURE END LIST*
D10*
X41885714Y-35894271D02*
X41928571Y-35851414D01*
X41928571Y-35851414D02*
X42014286Y-35808557D01*
X42014286Y-35808557D02*
X42228571Y-35808557D01*
X42228571Y-35808557D02*
X42314286Y-35851414D01*
X42314286Y-35851414D02*
X42357143Y-35894271D01*
X42357143Y-35894271D02*
X42400000Y-35979985D01*
X42400000Y-35979985D02*
X42400000Y-36065700D01*
X42400000Y-36065700D02*
X42357143Y-36194271D01*
X42357143Y-36194271D02*
X41842857Y-36708557D01*
X41842857Y-36708557D02*
X42400000Y-36708557D01*
X43171429Y-36108557D02*
X43171429Y-36708557D01*
X42957143Y-35765700D02*
X42742857Y-36408557D01*
X42742857Y-36408557D02*
X43300000Y-36408557D01*
X43514286Y-35808557D02*
X43814286Y-36708557D01*
X43814286Y-36708557D02*
X44114286Y-35808557D01*
X45571429Y-36708557D02*
X45057143Y-36708557D01*
X45314286Y-36708557D02*
X45314286Y-35808557D01*
X45314286Y-35808557D02*
X45228572Y-35937128D01*
X45228572Y-35937128D02*
X45142857Y-36022842D01*
X45142857Y-36022842D02*
X45057143Y-36065700D01*
X45957143Y-36622842D02*
X46000000Y-36665700D01*
X46000000Y-36665700D02*
X45957143Y-36708557D01*
X45957143Y-36708557D02*
X45914286Y-36665700D01*
X45914286Y-36665700D02*
X45957143Y-36622842D01*
X45957143Y-36622842D02*
X45957143Y-36708557D01*
X46814286Y-35808557D02*
X46385714Y-35808557D01*
X46385714Y-35808557D02*
X46342857Y-36237128D01*
X46342857Y-36237128D02*
X46385714Y-36194271D01*
X46385714Y-36194271D02*
X46471429Y-36151414D01*
X46471429Y-36151414D02*
X46685714Y-36151414D01*
X46685714Y-36151414D02*
X46771429Y-36194271D01*
X46771429Y-36194271D02*
X46814286Y-36237128D01*
X46814286Y-36237128D02*
X46857143Y-36322842D01*
X46857143Y-36322842D02*
X46857143Y-36537128D01*
X46857143Y-36537128D02*
X46814286Y-36622842D01*
X46814286Y-36622842D02*
X46771429Y-36665700D01*
X46771429Y-36665700D02*
X46685714Y-36708557D01*
X46685714Y-36708557D02*
X46471429Y-36708557D01*
X46471429Y-36708557D02*
X46385714Y-36665700D01*
X46385714Y-36665700D02*
X46342857Y-36622842D01*
X47200000Y-36451414D02*
X47628572Y-36451414D01*
X47114286Y-36708557D02*
X47414286Y-35808557D01*
X47414286Y-35808557D02*
X47714286Y-36708557D01*
X48014286Y-36708557D02*
X48014286Y-36108557D01*
X48014286Y-36279985D02*
X48057143Y-36194271D01*
X48057143Y-36194271D02*
X48100001Y-36151414D01*
X48100001Y-36151414D02*
X48185715Y-36108557D01*
X48185715Y-36108557D02*
X48271429Y-36108557D01*
X48571429Y-36708557D02*
X48571429Y-36108557D01*
X48571429Y-36194271D02*
X48614286Y-36151414D01*
X48614286Y-36151414D02*
X48700001Y-36108557D01*
X48700001Y-36108557D02*
X48828572Y-36108557D01*
X48828572Y-36108557D02*
X48914286Y-36151414D01*
X48914286Y-36151414D02*
X48957144Y-36237128D01*
X48957144Y-36237128D02*
X48957144Y-36708557D01*
X48957144Y-36237128D02*
X49000001Y-36151414D01*
X49000001Y-36151414D02*
X49085715Y-36108557D01*
X49085715Y-36108557D02*
X49214286Y-36108557D01*
X49214286Y-36108557D02*
X49300001Y-36151414D01*
X49300001Y-36151414D02*
X49342858Y-36237128D01*
X49342858Y-36237128D02*
X49342858Y-36708557D01*
X49728572Y-36665700D02*
X49814286Y-36708557D01*
X49814286Y-36708557D02*
X49985715Y-36708557D01*
X49985715Y-36708557D02*
X50071429Y-36665700D01*
X50071429Y-36665700D02*
X50114286Y-36579985D01*
X50114286Y-36579985D02*
X50114286Y-36537128D01*
X50114286Y-36537128D02*
X50071429Y-36451414D01*
X50071429Y-36451414D02*
X49985715Y-36408557D01*
X49985715Y-36408557D02*
X49857144Y-36408557D01*
X49857144Y-36408557D02*
X49771429Y-36365700D01*
X49771429Y-36365700D02*
X49728572Y-36279985D01*
X49728572Y-36279985D02*
X49728572Y-36237128D01*
X49728572Y-36237128D02*
X49771429Y-36151414D01*
X49771429Y-36151414D02*
X49857144Y-36108557D01*
X49857144Y-36108557D02*
X49985715Y-36108557D01*
X49985715Y-36108557D02*
X50071429Y-36151414D01*
X6033333Y-30716033D02*
X6033333Y-30016033D01*
X6033333Y-30016033D02*
X6200000Y-30016033D01*
X6200000Y-30016033D02*
X6300000Y-30049366D01*
X6300000Y-30049366D02*
X6366667Y-30116033D01*
X6366667Y-30116033D02*
X6400000Y-30182700D01*
X6400000Y-30182700D02*
X6433333Y-30316033D01*
X6433333Y-30316033D02*
X6433333Y-30416033D01*
X6433333Y-30416033D02*
X6400000Y-30549366D01*
X6400000Y-30549366D02*
X6366667Y-30616033D01*
X6366667Y-30616033D02*
X6300000Y-30682700D01*
X6300000Y-30682700D02*
X6200000Y-30716033D01*
X6200000Y-30716033D02*
X6033333Y-30716033D01*
X7100000Y-30049366D02*
X7033333Y-30016033D01*
X7033333Y-30016033D02*
X6933333Y-30016033D01*
X6933333Y-30016033D02*
X6833333Y-30049366D01*
X6833333Y-30049366D02*
X6766667Y-30116033D01*
X6766667Y-30116033D02*
X6733333Y-30182700D01*
X6733333Y-30182700D02*
X6700000Y-30316033D01*
X6700000Y-30316033D02*
X6700000Y-30416033D01*
X6700000Y-30416033D02*
X6733333Y-30549366D01*
X6733333Y-30549366D02*
X6766667Y-30616033D01*
X6766667Y-30616033D02*
X6833333Y-30682700D01*
X6833333Y-30682700D02*
X6933333Y-30716033D01*
X6933333Y-30716033D02*
X7000000Y-30716033D01*
X7000000Y-30716033D02*
X7100000Y-30682700D01*
X7100000Y-30682700D02*
X7133333Y-30649366D01*
X7133333Y-30649366D02*
X7133333Y-30416033D01*
X7133333Y-30416033D02*
X7000000Y-30416033D01*
X7800000Y-30716033D02*
X7400000Y-30716033D01*
X7600000Y-30716033D02*
X7600000Y-30016033D01*
X7600000Y-30016033D02*
X7533333Y-30116033D01*
X7533333Y-30116033D02*
X7466667Y-30182700D01*
X7466667Y-30182700D02*
X7400000Y-30216033D01*
X6016667Y-25269366D02*
X6250001Y-25269366D01*
X6350001Y-25636033D02*
X6016667Y-25636033D01*
X6016667Y-25636033D02*
X6016667Y-24936033D01*
X6016667Y-24936033D02*
X6350001Y-24936033D01*
X6650000Y-25636033D02*
X6650000Y-24936033D01*
X6650000Y-24936033D02*
X7050000Y-25636033D01*
X7050000Y-25636033D02*
X7050000Y-24936033D01*
X7383333Y-25636033D02*
X7383333Y-24936033D01*
X7383333Y-24936033D02*
X7783333Y-25636033D01*
X7783333Y-25636033D02*
X7783333Y-24936033D01*
X22785714Y-32441200D02*
X22871429Y-32469771D01*
X22871429Y-32469771D02*
X23014286Y-32469771D01*
X23014286Y-32469771D02*
X23071429Y-32441200D01*
X23071429Y-32441200D02*
X23100000Y-32412628D01*
X23100000Y-32412628D02*
X23128571Y-32355485D01*
X23128571Y-32355485D02*
X23128571Y-32298342D01*
X23128571Y-32298342D02*
X23100000Y-32241200D01*
X23100000Y-32241200D02*
X23071429Y-32212628D01*
X23071429Y-32212628D02*
X23014286Y-32184057D01*
X23014286Y-32184057D02*
X22900000Y-32155485D01*
X22900000Y-32155485D02*
X22842857Y-32126914D01*
X22842857Y-32126914D02*
X22814286Y-32098342D01*
X22814286Y-32098342D02*
X22785714Y-32041200D01*
X22785714Y-32041200D02*
X22785714Y-31984057D01*
X22785714Y-31984057D02*
X22814286Y-31926914D01*
X22814286Y-31926914D02*
X22842857Y-31898342D01*
X22842857Y-31898342D02*
X22900000Y-31869771D01*
X22900000Y-31869771D02*
X23042857Y-31869771D01*
X23042857Y-31869771D02*
X23128571Y-31898342D01*
X23385715Y-32469771D02*
X23385715Y-31869771D01*
X23385715Y-31869771D02*
X23614286Y-31869771D01*
X23614286Y-31869771D02*
X23671429Y-31898342D01*
X23671429Y-31898342D02*
X23700000Y-31926914D01*
X23700000Y-31926914D02*
X23728572Y-31984057D01*
X23728572Y-31984057D02*
X23728572Y-32069771D01*
X23728572Y-32069771D02*
X23700000Y-32126914D01*
X23700000Y-32126914D02*
X23671429Y-32155485D01*
X23671429Y-32155485D02*
X23614286Y-32184057D01*
X23614286Y-32184057D02*
X23385715Y-32184057D01*
X23985715Y-32469771D02*
X23985715Y-31869771D01*
X36666666Y-33954819D02*
X37238094Y-33954819D01*
X36952380Y-34954819D02*
X36952380Y-33954819D01*
X37571428Y-34954819D02*
X37571428Y-33954819D01*
X37571428Y-33954819D02*
X37904761Y-34669104D01*
X37904761Y-34669104D02*
X38238094Y-33954819D01*
X38238094Y-33954819D02*
X38238094Y-34954819D01*
X39285713Y-34859580D02*
X39238094Y-34907200D01*
X39238094Y-34907200D02*
X39095237Y-34954819D01*
X39095237Y-34954819D02*
X38999999Y-34954819D01*
X38999999Y-34954819D02*
X38857142Y-34907200D01*
X38857142Y-34907200D02*
X38761904Y-34811961D01*
X38761904Y-34811961D02*
X38714285Y-34716723D01*
X38714285Y-34716723D02*
X38666666Y-34526247D01*
X38666666Y-34526247D02*
X38666666Y-34383390D01*
X38666666Y-34383390D02*
X38714285Y-34192914D01*
X38714285Y-34192914D02*
X38761904Y-34097676D01*
X38761904Y-34097676D02*
X38857142Y-34002438D01*
X38857142Y-34002438D02*
X38999999Y-33954819D01*
X38999999Y-33954819D02*
X39095237Y-33954819D01*
X39095237Y-33954819D02*
X39238094Y-34002438D01*
X39238094Y-34002438D02*
X39285713Y-34050057D01*
X40190475Y-33954819D02*
X39714285Y-33954819D01*
X39714285Y-33954819D02*
X39666666Y-34431009D01*
X39666666Y-34431009D02*
X39714285Y-34383390D01*
X39714285Y-34383390D02*
X39809523Y-34335771D01*
X39809523Y-34335771D02*
X40047618Y-34335771D01*
X40047618Y-34335771D02*
X40142856Y-34383390D01*
X40142856Y-34383390D02*
X40190475Y-34431009D01*
X40190475Y-34431009D02*
X40238094Y-34526247D01*
X40238094Y-34526247D02*
X40238094Y-34764342D01*
X40238094Y-34764342D02*
X40190475Y-34859580D01*
X40190475Y-34859580D02*
X40142856Y-34907200D01*
X40142856Y-34907200D02*
X40047618Y-34954819D01*
X40047618Y-34954819D02*
X39809523Y-34954819D01*
X39809523Y-34954819D02*
X39714285Y-34907200D01*
X39714285Y-34907200D02*
X39666666Y-34859580D01*
X40619047Y-34050057D02*
X40666666Y-34002438D01*
X40666666Y-34002438D02*
X40761904Y-33954819D01*
X40761904Y-33954819D02*
X40999999Y-33954819D01*
X40999999Y-33954819D02*
X41095237Y-34002438D01*
X41095237Y-34002438D02*
X41142856Y-34050057D01*
X41142856Y-34050057D02*
X41190475Y-34145295D01*
X41190475Y-34145295D02*
X41190475Y-34240533D01*
X41190475Y-34240533D02*
X41142856Y-34383390D01*
X41142856Y-34383390D02*
X40571428Y-34954819D01*
X40571428Y-34954819D02*
X41190475Y-34954819D01*
X42047618Y-34288152D02*
X42047618Y-34954819D01*
X41809523Y-33907200D02*
X41571428Y-34621485D01*
X41571428Y-34621485D02*
X42190475Y-34621485D01*
X42761904Y-33954819D02*
X42857142Y-33954819D01*
X42857142Y-33954819D02*
X42952380Y-34002438D01*
X42952380Y-34002438D02*
X42999999Y-34050057D01*
X42999999Y-34050057D02*
X43047618Y-34145295D01*
X43047618Y-34145295D02*
X43095237Y-34335771D01*
X43095237Y-34335771D02*
X43095237Y-34573866D01*
X43095237Y-34573866D02*
X43047618Y-34764342D01*
X43047618Y-34764342D02*
X42999999Y-34859580D01*
X42999999Y-34859580D02*
X42952380Y-34907200D01*
X42952380Y-34907200D02*
X42857142Y-34954819D01*
X42857142Y-34954819D02*
X42761904Y-34954819D01*
X42761904Y-34954819D02*
X42666666Y-34907200D01*
X42666666Y-34907200D02*
X42619047Y-34859580D01*
X42619047Y-34859580D02*
X42571428Y-34764342D01*
X42571428Y-34764342D02*
X42523809Y-34573866D01*
X42523809Y-34573866D02*
X42523809Y-34335771D01*
X42523809Y-34335771D02*
X42571428Y-34145295D01*
X42571428Y-34145295D02*
X42619047Y-34050057D01*
X42619047Y-34050057D02*
X42666666Y-34002438D01*
X42666666Y-34002438D02*
X42761904Y-33954819D01*
X44714285Y-34954819D02*
X44714285Y-33954819D01*
X44714285Y-34907200D02*
X44619047Y-34954819D01*
X44619047Y-34954819D02*
X44428571Y-34954819D01*
X44428571Y-34954819D02*
X44333333Y-34907200D01*
X44333333Y-34907200D02*
X44285714Y-34859580D01*
X44285714Y-34859580D02*
X44238095Y-34764342D01*
X44238095Y-34764342D02*
X44238095Y-34478628D01*
X44238095Y-34478628D02*
X44285714Y-34383390D01*
X44285714Y-34383390D02*
X44333333Y-34335771D01*
X44333333Y-34335771D02*
X44428571Y-34288152D01*
X44428571Y-34288152D02*
X44619047Y-34288152D01*
X44619047Y-34288152D02*
X44714285Y-34335771D01*
X45619047Y-34954819D02*
X45619047Y-34431009D01*
X45619047Y-34431009D02*
X45571428Y-34335771D01*
X45571428Y-34335771D02*
X45476190Y-34288152D01*
X45476190Y-34288152D02*
X45285714Y-34288152D01*
X45285714Y-34288152D02*
X45190476Y-34335771D01*
X45619047Y-34907200D02*
X45523809Y-34954819D01*
X45523809Y-34954819D02*
X45285714Y-34954819D01*
X45285714Y-34954819D02*
X45190476Y-34907200D01*
X45190476Y-34907200D02*
X45142857Y-34811961D01*
X45142857Y-34811961D02*
X45142857Y-34716723D01*
X45142857Y-34716723D02*
X45190476Y-34621485D01*
X45190476Y-34621485D02*
X45285714Y-34573866D01*
X45285714Y-34573866D02*
X45523809Y-34573866D01*
X45523809Y-34573866D02*
X45619047Y-34526247D01*
X46523809Y-34288152D02*
X46523809Y-34954819D01*
X46095238Y-34288152D02*
X46095238Y-34811961D01*
X46095238Y-34811961D02*
X46142857Y-34907200D01*
X46142857Y-34907200D02*
X46238095Y-34954819D01*
X46238095Y-34954819D02*
X46380952Y-34954819D01*
X46380952Y-34954819D02*
X46476190Y-34907200D01*
X46476190Y-34907200D02*
X46523809Y-34859580D01*
X47428571Y-34288152D02*
X47428571Y-35097676D01*
X47428571Y-35097676D02*
X47380952Y-35192914D01*
X47380952Y-35192914D02*
X47333333Y-35240533D01*
X47333333Y-35240533D02*
X47238095Y-35288152D01*
X47238095Y-35288152D02*
X47095238Y-35288152D01*
X47095238Y-35288152D02*
X47000000Y-35240533D01*
X47428571Y-34907200D02*
X47333333Y-34954819D01*
X47333333Y-34954819D02*
X47142857Y-34954819D01*
X47142857Y-34954819D02*
X47047619Y-34907200D01*
X47047619Y-34907200D02*
X47000000Y-34859580D01*
X47000000Y-34859580D02*
X46952381Y-34764342D01*
X46952381Y-34764342D02*
X46952381Y-34478628D01*
X46952381Y-34478628D02*
X47000000Y-34383390D01*
X47000000Y-34383390D02*
X47047619Y-34335771D01*
X47047619Y-34335771D02*
X47142857Y-34288152D01*
X47142857Y-34288152D02*
X47333333Y-34288152D01*
X47333333Y-34288152D02*
X47428571Y-34335771D01*
X47904762Y-34954819D02*
X47904762Y-33954819D01*
X48333333Y-34954819D02*
X48333333Y-34431009D01*
X48333333Y-34431009D02*
X48285714Y-34335771D01*
X48285714Y-34335771D02*
X48190476Y-34288152D01*
X48190476Y-34288152D02*
X48047619Y-34288152D01*
X48047619Y-34288152D02*
X47952381Y-34335771D01*
X47952381Y-34335771D02*
X47904762Y-34383390D01*
X48666667Y-34288152D02*
X49047619Y-34288152D01*
X48809524Y-33954819D02*
X48809524Y-34811961D01*
X48809524Y-34811961D02*
X48857143Y-34907200D01*
X48857143Y-34907200D02*
X48952381Y-34954819D01*
X48952381Y-34954819D02*
X49047619Y-34954819D01*
X49761905Y-34907200D02*
X49666667Y-34954819D01*
X49666667Y-34954819D02*
X49476191Y-34954819D01*
X49476191Y-34954819D02*
X49380953Y-34907200D01*
X49380953Y-34907200D02*
X49333334Y-34811961D01*
X49333334Y-34811961D02*
X49333334Y-34431009D01*
X49333334Y-34431009D02*
X49380953Y-34335771D01*
X49380953Y-34335771D02*
X49476191Y-34288152D01*
X49476191Y-34288152D02*
X49666667Y-34288152D01*
X49666667Y-34288152D02*
X49761905Y-34335771D01*
X49761905Y-34335771D02*
X49809524Y-34431009D01*
X49809524Y-34431009D02*
X49809524Y-34526247D01*
X49809524Y-34526247D02*
X49333334Y-34621485D01*
X50238096Y-34954819D02*
X50238096Y-34288152D01*
X50238096Y-34478628D02*
X50285715Y-34383390D01*
X50285715Y-34383390D02*
X50333334Y-34335771D01*
X50333334Y-34335771D02*
X50428572Y-34288152D01*
X50428572Y-34288152D02*
X50523810Y-34288152D01*
X52190477Y-34954819D02*
X51857144Y-34478628D01*
X51619049Y-34954819D02*
X51619049Y-33954819D01*
X51619049Y-33954819D02*
X52000001Y-33954819D01*
X52000001Y-33954819D02*
X52095239Y-34002438D01*
X52095239Y-34002438D02*
X52142858Y-34050057D01*
X52142858Y-34050057D02*
X52190477Y-34145295D01*
X52190477Y-34145295D02*
X52190477Y-34288152D01*
X52190477Y-34288152D02*
X52142858Y-34383390D01*
X52142858Y-34383390D02*
X52095239Y-34431009D01*
X52095239Y-34431009D02*
X52000001Y-34478628D01*
X52000001Y-34478628D02*
X51619049Y-34478628D01*
X53000001Y-34907200D02*
X52904763Y-34954819D01*
X52904763Y-34954819D02*
X52714287Y-34954819D01*
X52714287Y-34954819D02*
X52619049Y-34907200D01*
X52619049Y-34907200D02*
X52571430Y-34811961D01*
X52571430Y-34811961D02*
X52571430Y-34431009D01*
X52571430Y-34431009D02*
X52619049Y-34335771D01*
X52619049Y-34335771D02*
X52714287Y-34288152D01*
X52714287Y-34288152D02*
X52904763Y-34288152D01*
X52904763Y-34288152D02*
X53000001Y-34335771D01*
X53000001Y-34335771D02*
X53047620Y-34431009D01*
X53047620Y-34431009D02*
X53047620Y-34526247D01*
X53047620Y-34526247D02*
X52571430Y-34621485D01*
X53380954Y-34288152D02*
X53619049Y-34954819D01*
X53619049Y-34954819D02*
X53857144Y-34288152D01*
X54238097Y-34859580D02*
X54285716Y-34907200D01*
X54285716Y-34907200D02*
X54238097Y-34954819D01*
X54238097Y-34954819D02*
X54190478Y-34907200D01*
X54190478Y-34907200D02*
X54238097Y-34859580D01*
X54238097Y-34859580D02*
X54238097Y-34954819D01*
X54666668Y-34050057D02*
X54714287Y-34002438D01*
X54714287Y-34002438D02*
X54809525Y-33954819D01*
X54809525Y-33954819D02*
X55047620Y-33954819D01*
X55047620Y-33954819D02*
X55142858Y-34002438D01*
X55142858Y-34002438D02*
X55190477Y-34050057D01*
X55190477Y-34050057D02*
X55238096Y-34145295D01*
X55238096Y-34145295D02*
X55238096Y-34240533D01*
X55238096Y-34240533D02*
X55190477Y-34383390D01*
X55190477Y-34383390D02*
X54619049Y-34954819D01*
X54619049Y-34954819D02*
X55238096Y-34954819D01*
X6183333Y-12902700D02*
X6283333Y-12936033D01*
X6283333Y-12936033D02*
X6450000Y-12936033D01*
X6450000Y-12936033D02*
X6516666Y-12902700D01*
X6516666Y-12902700D02*
X6550000Y-12869366D01*
X6550000Y-12869366D02*
X6583333Y-12802700D01*
X6583333Y-12802700D02*
X6583333Y-12736033D01*
X6583333Y-12736033D02*
X6550000Y-12669366D01*
X6550000Y-12669366D02*
X6516666Y-12636033D01*
X6516666Y-12636033D02*
X6450000Y-12602700D01*
X6450000Y-12602700D02*
X6316666Y-12569366D01*
X6316666Y-12569366D02*
X6250000Y-12536033D01*
X6250000Y-12536033D02*
X6216666Y-12502700D01*
X6216666Y-12502700D02*
X6183333Y-12436033D01*
X6183333Y-12436033D02*
X6183333Y-12369366D01*
X6183333Y-12369366D02*
X6216666Y-12302700D01*
X6216666Y-12302700D02*
X6250000Y-12269366D01*
X6250000Y-12269366D02*
X6316666Y-12236033D01*
X6316666Y-12236033D02*
X6483333Y-12236033D01*
X6483333Y-12236033D02*
X6583333Y-12269366D01*
X6883333Y-12936033D02*
X6883333Y-12236033D01*
X6883333Y-12236033D02*
X7050000Y-12236033D01*
X7050000Y-12236033D02*
X7150000Y-12269366D01*
X7150000Y-12269366D02*
X7216667Y-12336033D01*
X7216667Y-12336033D02*
X7250000Y-12402700D01*
X7250000Y-12402700D02*
X7283333Y-12536033D01*
X7283333Y-12536033D02*
X7283333Y-12636033D01*
X7283333Y-12636033D02*
X7250000Y-12769366D01*
X7250000Y-12769366D02*
X7216667Y-12836033D01*
X7216667Y-12836033D02*
X7150000Y-12902700D01*
X7150000Y-12902700D02*
X7050000Y-12936033D01*
X7050000Y-12936033D02*
X6883333Y-12936033D01*
X7583333Y-12936033D02*
X7583333Y-12236033D01*
X30343333Y-40649366D02*
X30276666Y-40616033D01*
X30276666Y-40616033D02*
X30176666Y-40616033D01*
X30176666Y-40616033D02*
X30076666Y-40649366D01*
X30076666Y-40649366D02*
X30010000Y-40716033D01*
X30010000Y-40716033D02*
X29976666Y-40782700D01*
X29976666Y-40782700D02*
X29943333Y-40916033D01*
X29943333Y-40916033D02*
X29943333Y-41016033D01*
X29943333Y-41016033D02*
X29976666Y-41149366D01*
X29976666Y-41149366D02*
X30010000Y-41216033D01*
X30010000Y-41216033D02*
X30076666Y-41282700D01*
X30076666Y-41282700D02*
X30176666Y-41316033D01*
X30176666Y-41316033D02*
X30243333Y-41316033D01*
X30243333Y-41316033D02*
X30343333Y-41282700D01*
X30343333Y-41282700D02*
X30376666Y-41249366D01*
X30376666Y-41249366D02*
X30376666Y-41016033D01*
X30376666Y-41016033D02*
X30243333Y-41016033D01*
X25130000Y-40949366D02*
X25230000Y-40982700D01*
X25230000Y-40982700D02*
X25263333Y-41016033D01*
X25263333Y-41016033D02*
X25296666Y-41082700D01*
X25296666Y-41082700D02*
X25296666Y-41182700D01*
X25296666Y-41182700D02*
X25263333Y-41249366D01*
X25263333Y-41249366D02*
X25230000Y-41282700D01*
X25230000Y-41282700D02*
X25163333Y-41316033D01*
X25163333Y-41316033D02*
X24896666Y-41316033D01*
X24896666Y-41316033D02*
X24896666Y-40616033D01*
X24896666Y-40616033D02*
X25130000Y-40616033D01*
X25130000Y-40616033D02*
X25196666Y-40649366D01*
X25196666Y-40649366D02*
X25230000Y-40682700D01*
X25230000Y-40682700D02*
X25263333Y-40749366D01*
X25263333Y-40749366D02*
X25263333Y-40816033D01*
X25263333Y-40816033D02*
X25230000Y-40882700D01*
X25230000Y-40882700D02*
X25196666Y-40916033D01*
X25196666Y-40916033D02*
X25130000Y-40949366D01*
X25130000Y-40949366D02*
X24896666Y-40949366D01*
X6466666Y-23096033D02*
X6233333Y-22762700D01*
X6066666Y-23096033D02*
X6066666Y-22396033D01*
X6066666Y-22396033D02*
X6333333Y-22396033D01*
X6333333Y-22396033D02*
X6400000Y-22429366D01*
X6400000Y-22429366D02*
X6433333Y-22462700D01*
X6433333Y-22462700D02*
X6466666Y-22529366D01*
X6466666Y-22529366D02*
X6466666Y-22629366D01*
X6466666Y-22629366D02*
X6433333Y-22696033D01*
X6433333Y-22696033D02*
X6400000Y-22729366D01*
X6400000Y-22729366D02*
X6333333Y-22762700D01*
X6333333Y-22762700D02*
X6066666Y-22762700D01*
X7000000Y-22729366D02*
X6766666Y-22729366D01*
X6766666Y-23096033D02*
X6766666Y-22396033D01*
X6766666Y-22396033D02*
X7100000Y-22396033D01*
X7766666Y-23096033D02*
X7533333Y-22762700D01*
X7366666Y-23096033D02*
X7366666Y-22396033D01*
X7366666Y-22396033D02*
X7633333Y-22396033D01*
X7633333Y-22396033D02*
X7700000Y-22429366D01*
X7700000Y-22429366D02*
X7733333Y-22462700D01*
X7733333Y-22462700D02*
X7766666Y-22529366D01*
X7766666Y-22529366D02*
X7766666Y-22629366D01*
X7766666Y-22629366D02*
X7733333Y-22696033D01*
X7733333Y-22696033D02*
X7700000Y-22729366D01*
X7700000Y-22729366D02*
X7633333Y-22762700D01*
X7633333Y-22762700D02*
X7366666Y-22762700D01*
X27420000Y-41316033D02*
X27420000Y-40616033D01*
X27420000Y-40616033D02*
X27820000Y-41316033D01*
X27820000Y-41316033D02*
X27820000Y-40616033D01*
X16490476Y-10000390D02*
X16414286Y-9962295D01*
X16414286Y-9962295D02*
X16300000Y-9962295D01*
X16300000Y-9962295D02*
X16185714Y-10000390D01*
X16185714Y-10000390D02*
X16109524Y-10076580D01*
X16109524Y-10076580D02*
X16071429Y-10152771D01*
X16071429Y-10152771D02*
X16033333Y-10305152D01*
X16033333Y-10305152D02*
X16033333Y-10419438D01*
X16033333Y-10419438D02*
X16071429Y-10571819D01*
X16071429Y-10571819D02*
X16109524Y-10648009D01*
X16109524Y-10648009D02*
X16185714Y-10724200D01*
X16185714Y-10724200D02*
X16300000Y-10762295D01*
X16300000Y-10762295D02*
X16376191Y-10762295D01*
X16376191Y-10762295D02*
X16490476Y-10724200D01*
X16490476Y-10724200D02*
X16528572Y-10686104D01*
X16528572Y-10686104D02*
X16528572Y-10419438D01*
X16528572Y-10419438D02*
X16376191Y-10419438D01*
X16871429Y-10762295D02*
X16871429Y-9962295D01*
X16871429Y-9962295D02*
X17328572Y-10762295D01*
X17328572Y-10762295D02*
X17328572Y-9962295D01*
X17709524Y-10762295D02*
X17709524Y-9962295D01*
X17709524Y-9962295D02*
X17900000Y-9962295D01*
X17900000Y-9962295D02*
X18014286Y-10000390D01*
X18014286Y-10000390D02*
X18090476Y-10076580D01*
X18090476Y-10076580D02*
X18128571Y-10152771D01*
X18128571Y-10152771D02*
X18166667Y-10305152D01*
X18166667Y-10305152D02*
X18166667Y-10419438D01*
X18166667Y-10419438D02*
X18128571Y-10571819D01*
X18128571Y-10571819D02*
X18090476Y-10648009D01*
X18090476Y-10648009D02*
X18014286Y-10724200D01*
X18014286Y-10724200D02*
X17900000Y-10762295D01*
X17900000Y-10762295D02*
X17709524Y-10762295D01*
X10590476Y-10457533D02*
X11200000Y-10457533D01*
X10895238Y-10762295D02*
X10895238Y-10152771D01*
X11542856Y-10038485D02*
X11580952Y-10000390D01*
X11580952Y-10000390D02*
X11657142Y-9962295D01*
X11657142Y-9962295D02*
X11847618Y-9962295D01*
X11847618Y-9962295D02*
X11923809Y-10000390D01*
X11923809Y-10000390D02*
X11961904Y-10038485D01*
X11961904Y-10038485D02*
X11999999Y-10114676D01*
X11999999Y-10114676D02*
X11999999Y-10190866D01*
X11999999Y-10190866D02*
X11961904Y-10305152D01*
X11961904Y-10305152D02*
X11504761Y-10762295D01*
X11504761Y-10762295D02*
X11999999Y-10762295D01*
X12685714Y-10228961D02*
X12685714Y-10762295D01*
X12495238Y-9924200D02*
X12304761Y-10495628D01*
X12304761Y-10495628D02*
X12800000Y-10495628D01*
X12990476Y-9962295D02*
X13257143Y-10762295D01*
X13257143Y-10762295D02*
X13523809Y-9962295D01*
X19466667Y-40616033D02*
X19900000Y-40616033D01*
X19900000Y-40616033D02*
X19666667Y-40882700D01*
X19666667Y-40882700D02*
X19766667Y-40882700D01*
X19766667Y-40882700D02*
X19833333Y-40916033D01*
X19833333Y-40916033D02*
X19866667Y-40949366D01*
X19866667Y-40949366D02*
X19900000Y-41016033D01*
X19900000Y-41016033D02*
X19900000Y-41182700D01*
X19900000Y-41182700D02*
X19866667Y-41249366D01*
X19866667Y-41249366D02*
X19833333Y-41282700D01*
X19833333Y-41282700D02*
X19766667Y-41316033D01*
X19766667Y-41316033D02*
X19566667Y-41316033D01*
X19566667Y-41316033D02*
X19500000Y-41282700D01*
X19500000Y-41282700D02*
X19466667Y-41249366D01*
X20100000Y-40616033D02*
X20333334Y-41316033D01*
X20333334Y-41316033D02*
X20566667Y-40616033D01*
X50076190Y-27183247D02*
X50190476Y-27221342D01*
X50190476Y-27221342D02*
X50228571Y-27259438D01*
X50228571Y-27259438D02*
X50266667Y-27335628D01*
X50266667Y-27335628D02*
X50266667Y-27449914D01*
X50266667Y-27449914D02*
X50228571Y-27526104D01*
X50228571Y-27526104D02*
X50190476Y-27564200D01*
X50190476Y-27564200D02*
X50114286Y-27602295D01*
X50114286Y-27602295D02*
X49809524Y-27602295D01*
X49809524Y-27602295D02*
X49809524Y-26802295D01*
X49809524Y-26802295D02*
X50076190Y-26802295D01*
X50076190Y-26802295D02*
X50152381Y-26840390D01*
X50152381Y-26840390D02*
X50190476Y-26878485D01*
X50190476Y-26878485D02*
X50228571Y-26954676D01*
X50228571Y-26954676D02*
X50228571Y-27030866D01*
X50228571Y-27030866D02*
X50190476Y-27107057D01*
X50190476Y-27107057D02*
X50152381Y-27145152D01*
X50152381Y-27145152D02*
X50076190Y-27183247D01*
X50076190Y-27183247D02*
X49809524Y-27183247D01*
X51028571Y-27602295D02*
X50571428Y-27602295D01*
X50800000Y-27602295D02*
X50800000Y-26802295D01*
X50800000Y-26802295D02*
X50723809Y-26916580D01*
X50723809Y-26916580D02*
X50647619Y-26992771D01*
X50647619Y-26992771D02*
X50571428Y-27030866D01*
X49828571Y-17213723D02*
X50209524Y-17213723D01*
X49752381Y-17442295D02*
X50019048Y-16642295D01*
X50019048Y-16642295D02*
X50285714Y-17442295D01*
X50514285Y-16718485D02*
X50552381Y-16680390D01*
X50552381Y-16680390D02*
X50628571Y-16642295D01*
X50628571Y-16642295D02*
X50819047Y-16642295D01*
X50819047Y-16642295D02*
X50895238Y-16680390D01*
X50895238Y-16680390D02*
X50933333Y-16718485D01*
X50933333Y-16718485D02*
X50971428Y-16794676D01*
X50971428Y-16794676D02*
X50971428Y-16870866D01*
X50971428Y-16870866D02*
X50933333Y-16985152D01*
X50933333Y-16985152D02*
X50476190Y-17442295D01*
X50476190Y-17442295D02*
X50971428Y-17442295D01*
X5983333Y-15442700D02*
X6083333Y-15476033D01*
X6083333Y-15476033D02*
X6250000Y-15476033D01*
X6250000Y-15476033D02*
X6316666Y-15442700D01*
X6316666Y-15442700D02*
X6350000Y-15409366D01*
X6350000Y-15409366D02*
X6383333Y-15342700D01*
X6383333Y-15342700D02*
X6383333Y-15276033D01*
X6383333Y-15276033D02*
X6350000Y-15209366D01*
X6350000Y-15209366D02*
X6316666Y-15176033D01*
X6316666Y-15176033D02*
X6250000Y-15142700D01*
X6250000Y-15142700D02*
X6116666Y-15109366D01*
X6116666Y-15109366D02*
X6050000Y-15076033D01*
X6050000Y-15076033D02*
X6016666Y-15042700D01*
X6016666Y-15042700D02*
X5983333Y-14976033D01*
X5983333Y-14976033D02*
X5983333Y-14909366D01*
X5983333Y-14909366D02*
X6016666Y-14842700D01*
X6016666Y-14842700D02*
X6050000Y-14809366D01*
X6050000Y-14809366D02*
X6116666Y-14776033D01*
X6116666Y-14776033D02*
X6283333Y-14776033D01*
X6283333Y-14776033D02*
X6383333Y-14809366D01*
X6683333Y-15476033D02*
X6683333Y-14776033D01*
X6683333Y-14776033D02*
X6850000Y-14776033D01*
X6850000Y-14776033D02*
X6950000Y-14809366D01*
X6950000Y-14809366D02*
X7016667Y-14876033D01*
X7016667Y-14876033D02*
X7050000Y-14942700D01*
X7050000Y-14942700D02*
X7083333Y-15076033D01*
X7083333Y-15076033D02*
X7083333Y-15176033D01*
X7083333Y-15176033D02*
X7050000Y-15309366D01*
X7050000Y-15309366D02*
X7016667Y-15376033D01*
X7016667Y-15376033D02*
X6950000Y-15442700D01*
X6950000Y-15442700D02*
X6850000Y-15476033D01*
X6850000Y-15476033D02*
X6683333Y-15476033D01*
X7516667Y-14776033D02*
X7650000Y-14776033D01*
X7650000Y-14776033D02*
X7716667Y-14809366D01*
X7716667Y-14809366D02*
X7783333Y-14876033D01*
X7783333Y-14876033D02*
X7816667Y-15009366D01*
X7816667Y-15009366D02*
X7816667Y-15242700D01*
X7816667Y-15242700D02*
X7783333Y-15376033D01*
X7783333Y-15376033D02*
X7716667Y-15442700D01*
X7716667Y-15442700D02*
X7650000Y-15476033D01*
X7650000Y-15476033D02*
X7516667Y-15476033D01*
X7516667Y-15476033D02*
X7450000Y-15442700D01*
X7450000Y-15442700D02*
X7383333Y-15376033D01*
X7383333Y-15376033D02*
X7350000Y-15242700D01*
X7350000Y-15242700D02*
X7350000Y-15009366D01*
X7350000Y-15009366D02*
X7383333Y-14876033D01*
X7383333Y-14876033D02*
X7450000Y-14809366D01*
X7450000Y-14809366D02*
X7516667Y-14776033D01*
X6366667Y-32589365D02*
X6300000Y-32556032D01*
X6300000Y-32556032D02*
X6200000Y-32556032D01*
X6200000Y-32556032D02*
X6100000Y-32589365D01*
X6100000Y-32589365D02*
X6033334Y-32656032D01*
X6033334Y-32656032D02*
X6000000Y-32722699D01*
X6000000Y-32722699D02*
X5966667Y-32856032D01*
X5966667Y-32856032D02*
X5966667Y-32956032D01*
X5966667Y-32956032D02*
X6000000Y-33089365D01*
X6000000Y-33089365D02*
X6033334Y-33156032D01*
X6033334Y-33156032D02*
X6100000Y-33222699D01*
X6100000Y-33222699D02*
X6200000Y-33256032D01*
X6200000Y-33256032D02*
X6266667Y-33256032D01*
X6266667Y-33256032D02*
X6366667Y-33222699D01*
X6366667Y-33222699D02*
X6400000Y-33189365D01*
X6400000Y-33189365D02*
X6400000Y-32956032D01*
X6400000Y-32956032D02*
X6266667Y-32956032D01*
X6700000Y-33256032D02*
X6700000Y-32556032D01*
X6700000Y-32556032D02*
X7100000Y-33256032D01*
X7100000Y-33256032D02*
X7100000Y-32556032D01*
X7433333Y-33256032D02*
X7433333Y-32556032D01*
X7433333Y-32556032D02*
X7600000Y-32556032D01*
X7600000Y-32556032D02*
X7700000Y-32589365D01*
X7700000Y-32589365D02*
X7766667Y-32656032D01*
X7766667Y-32656032D02*
X7800000Y-32722699D01*
X7800000Y-32722699D02*
X7833333Y-32856032D01*
X7833333Y-32856032D02*
X7833333Y-32956032D01*
X7833333Y-32956032D02*
X7800000Y-33089365D01*
X7800000Y-33089365D02*
X7766667Y-33156032D01*
X7766667Y-33156032D02*
X7700000Y-33222699D01*
X7700000Y-33222699D02*
X7600000Y-33256032D01*
X7600000Y-33256032D02*
X7433333Y-33256032D01*
X22373333Y-41116033D02*
X22706666Y-41116033D01*
X22306666Y-41316033D02*
X22540000Y-40616033D01*
X22540000Y-40616033D02*
X22773333Y-41316033D01*
X6000000Y-10362700D02*
X6100000Y-10396033D01*
X6100000Y-10396033D02*
X6266667Y-10396033D01*
X6266667Y-10396033D02*
X6333333Y-10362700D01*
X6333333Y-10362700D02*
X6366667Y-10329366D01*
X6366667Y-10329366D02*
X6400000Y-10262700D01*
X6400000Y-10262700D02*
X6400000Y-10196033D01*
X6400000Y-10196033D02*
X6366667Y-10129366D01*
X6366667Y-10129366D02*
X6333333Y-10096033D01*
X6333333Y-10096033D02*
X6266667Y-10062700D01*
X6266667Y-10062700D02*
X6133333Y-10029366D01*
X6133333Y-10029366D02*
X6066667Y-9996033D01*
X6066667Y-9996033D02*
X6033333Y-9962700D01*
X6033333Y-9962700D02*
X6000000Y-9896033D01*
X6000000Y-9896033D02*
X6000000Y-9829366D01*
X6000000Y-9829366D02*
X6033333Y-9762700D01*
X6033333Y-9762700D02*
X6066667Y-9729366D01*
X6066667Y-9729366D02*
X6133333Y-9696033D01*
X6133333Y-9696033D02*
X6300000Y-9696033D01*
X6300000Y-9696033D02*
X6400000Y-9729366D01*
X7100000Y-10329366D02*
X7066667Y-10362700D01*
X7066667Y-10362700D02*
X6966667Y-10396033D01*
X6966667Y-10396033D02*
X6900000Y-10396033D01*
X6900000Y-10396033D02*
X6800000Y-10362700D01*
X6800000Y-10362700D02*
X6733334Y-10296033D01*
X6733334Y-10296033D02*
X6700000Y-10229366D01*
X6700000Y-10229366D02*
X6666667Y-10096033D01*
X6666667Y-10096033D02*
X6666667Y-9996033D01*
X6666667Y-9996033D02*
X6700000Y-9862700D01*
X6700000Y-9862700D02*
X6733334Y-9796033D01*
X6733334Y-9796033D02*
X6800000Y-9729366D01*
X6800000Y-9729366D02*
X6900000Y-9696033D01*
X6900000Y-9696033D02*
X6966667Y-9696033D01*
X6966667Y-9696033D02*
X7066667Y-9729366D01*
X7066667Y-9729366D02*
X7100000Y-9762700D01*
X7400000Y-10396033D02*
X7400000Y-9696033D01*
X7800000Y-10396033D02*
X7500000Y-9996033D01*
X7800000Y-9696033D02*
X7400000Y-10096033D01*
X6366667Y-4649366D02*
X6300000Y-4616033D01*
X6300000Y-4616033D02*
X6200000Y-4616033D01*
X6200000Y-4616033D02*
X6100000Y-4649366D01*
X6100000Y-4649366D02*
X6033334Y-4716033D01*
X6033334Y-4716033D02*
X6000000Y-4782700D01*
X6000000Y-4782700D02*
X5966667Y-4916033D01*
X5966667Y-4916033D02*
X5966667Y-5016033D01*
X5966667Y-5016033D02*
X6000000Y-5149366D01*
X6000000Y-5149366D02*
X6033334Y-5216033D01*
X6033334Y-5216033D02*
X6100000Y-5282700D01*
X6100000Y-5282700D02*
X6200000Y-5316033D01*
X6200000Y-5316033D02*
X6266667Y-5316033D01*
X6266667Y-5316033D02*
X6366667Y-5282700D01*
X6366667Y-5282700D02*
X6400000Y-5249366D01*
X6400000Y-5249366D02*
X6400000Y-5016033D01*
X6400000Y-5016033D02*
X6266667Y-5016033D01*
X6700000Y-5316033D02*
X6700000Y-4616033D01*
X6700000Y-4616033D02*
X7100000Y-5316033D01*
X7100000Y-5316033D02*
X7100000Y-4616033D01*
X7433333Y-5316033D02*
X7433333Y-4616033D01*
X7433333Y-4616033D02*
X7600000Y-4616033D01*
X7600000Y-4616033D02*
X7700000Y-4649366D01*
X7700000Y-4649366D02*
X7766667Y-4716033D01*
X7766667Y-4716033D02*
X7800000Y-4782700D01*
X7800000Y-4782700D02*
X7833333Y-4916033D01*
X7833333Y-4916033D02*
X7833333Y-5016033D01*
X7833333Y-5016033D02*
X7800000Y-5149366D01*
X7800000Y-5149366D02*
X7766667Y-5216033D01*
X7766667Y-5216033D02*
X7700000Y-5282700D01*
X7700000Y-5282700D02*
X7600000Y-5316033D01*
X7600000Y-5316033D02*
X7433333Y-5316033D01*
X6416666Y-17949366D02*
X6383333Y-17982700D01*
X6383333Y-17982700D02*
X6283333Y-18016033D01*
X6283333Y-18016033D02*
X6216666Y-18016033D01*
X6216666Y-18016033D02*
X6116666Y-17982700D01*
X6116666Y-17982700D02*
X6050000Y-17916033D01*
X6050000Y-17916033D02*
X6016666Y-17849366D01*
X6016666Y-17849366D02*
X5983333Y-17716033D01*
X5983333Y-17716033D02*
X5983333Y-17616033D01*
X5983333Y-17616033D02*
X6016666Y-17482700D01*
X6016666Y-17482700D02*
X6050000Y-17416033D01*
X6050000Y-17416033D02*
X6116666Y-17349366D01*
X6116666Y-17349366D02*
X6216666Y-17316033D01*
X6216666Y-17316033D02*
X6283333Y-17316033D01*
X6283333Y-17316033D02*
X6383333Y-17349366D01*
X6383333Y-17349366D02*
X6416666Y-17382700D01*
X6683333Y-17982700D02*
X6783333Y-18016033D01*
X6783333Y-18016033D02*
X6950000Y-18016033D01*
X6950000Y-18016033D02*
X7016666Y-17982700D01*
X7016666Y-17982700D02*
X7050000Y-17949366D01*
X7050000Y-17949366D02*
X7083333Y-17882700D01*
X7083333Y-17882700D02*
X7083333Y-17816033D01*
X7083333Y-17816033D02*
X7050000Y-17749366D01*
X7050000Y-17749366D02*
X7016666Y-17716033D01*
X7016666Y-17716033D02*
X6950000Y-17682700D01*
X6950000Y-17682700D02*
X6816666Y-17649366D01*
X6816666Y-17649366D02*
X6750000Y-17616033D01*
X6750000Y-17616033D02*
X6716666Y-17582700D01*
X6716666Y-17582700D02*
X6683333Y-17516033D01*
X6683333Y-17516033D02*
X6683333Y-17449366D01*
X6683333Y-17449366D02*
X6716666Y-17382700D01*
X6716666Y-17382700D02*
X6750000Y-17349366D01*
X6750000Y-17349366D02*
X6816666Y-17316033D01*
X6816666Y-17316033D02*
X6983333Y-17316033D01*
X6983333Y-17316033D02*
X7083333Y-17349366D01*
X7383333Y-18016033D02*
X7383333Y-17316033D01*
X7383333Y-17316033D02*
X7783333Y-18016033D01*
X7783333Y-18016033D02*
X7783333Y-17316033D01*
X6533333Y-20556033D02*
X6300000Y-20222700D01*
X6133333Y-20556033D02*
X6133333Y-19856033D01*
X6133333Y-19856033D02*
X6400000Y-19856033D01*
X6400000Y-19856033D02*
X6466667Y-19889366D01*
X6466667Y-19889366D02*
X6500000Y-19922700D01*
X6500000Y-19922700D02*
X6533333Y-19989366D01*
X6533333Y-19989366D02*
X6533333Y-20089366D01*
X6533333Y-20089366D02*
X6500000Y-20156033D01*
X6500000Y-20156033D02*
X6466667Y-20189366D01*
X6466667Y-20189366D02*
X6400000Y-20222700D01*
X6400000Y-20222700D02*
X6133333Y-20222700D01*
X7066667Y-20189366D02*
X6833333Y-20189366D01*
X6833333Y-20556033D02*
X6833333Y-19856033D01*
X6833333Y-19856033D02*
X7166667Y-19856033D01*
X7766667Y-20556033D02*
X7433333Y-20556033D01*
X7433333Y-20556033D02*
X7433333Y-19856033D01*
X6033333Y-28176033D02*
X6033333Y-27476033D01*
X6033333Y-27476033D02*
X6200000Y-27476033D01*
X6200000Y-27476033D02*
X6300000Y-27509366D01*
X6300000Y-27509366D02*
X6366667Y-27576033D01*
X6366667Y-27576033D02*
X6400000Y-27642700D01*
X6400000Y-27642700D02*
X6433333Y-27776033D01*
X6433333Y-27776033D02*
X6433333Y-27876033D01*
X6433333Y-27876033D02*
X6400000Y-28009366D01*
X6400000Y-28009366D02*
X6366667Y-28076033D01*
X6366667Y-28076033D02*
X6300000Y-28142700D01*
X6300000Y-28142700D02*
X6200000Y-28176033D01*
X6200000Y-28176033D02*
X6033333Y-28176033D01*
X7100000Y-27509366D02*
X7033333Y-27476033D01*
X7033333Y-27476033D02*
X6933333Y-27476033D01*
X6933333Y-27476033D02*
X6833333Y-27509366D01*
X6833333Y-27509366D02*
X6766667Y-27576033D01*
X6766667Y-27576033D02*
X6733333Y-27642700D01*
X6733333Y-27642700D02*
X6700000Y-27776033D01*
X6700000Y-27776033D02*
X6700000Y-27876033D01*
X6700000Y-27876033D02*
X6733333Y-28009366D01*
X6733333Y-28009366D02*
X6766667Y-28076033D01*
X6766667Y-28076033D02*
X6833333Y-28142700D01*
X6833333Y-28142700D02*
X6933333Y-28176033D01*
X6933333Y-28176033D02*
X7000000Y-28176033D01*
X7000000Y-28176033D02*
X7100000Y-28142700D01*
X7100000Y-28142700D02*
X7133333Y-28109366D01*
X7133333Y-28109366D02*
X7133333Y-27876033D01*
X7133333Y-27876033D02*
X7000000Y-27876033D01*
X7566667Y-27476033D02*
X7633333Y-27476033D01*
X7633333Y-27476033D02*
X7700000Y-27509366D01*
X7700000Y-27509366D02*
X7733333Y-27542700D01*
X7733333Y-27542700D02*
X7766667Y-27609366D01*
X7766667Y-27609366D02*
X7800000Y-27742700D01*
X7800000Y-27742700D02*
X7800000Y-27909366D01*
X7800000Y-27909366D02*
X7766667Y-28042700D01*
X7766667Y-28042700D02*
X7733333Y-28109366D01*
X7733333Y-28109366D02*
X7700000Y-28142700D01*
X7700000Y-28142700D02*
X7633333Y-28176033D01*
X7633333Y-28176033D02*
X7566667Y-28176033D01*
X7566667Y-28176033D02*
X7500000Y-28142700D01*
X7500000Y-28142700D02*
X7466667Y-28109366D01*
X7466667Y-28109366D02*
X7433333Y-28042700D01*
X7433333Y-28042700D02*
X7400000Y-27909366D01*
X7400000Y-27909366D02*
X7400000Y-27742700D01*
X7400000Y-27742700D02*
X7433333Y-27609366D01*
X7433333Y-27609366D02*
X7466667Y-27542700D01*
X7466667Y-27542700D02*
X7500000Y-27509366D01*
X7500000Y-27509366D02*
X7566667Y-27476033D01*
X50076190Y-22103247D02*
X50190476Y-22141342D01*
X50190476Y-22141342D02*
X50228571Y-22179438D01*
X50228571Y-22179438D02*
X50266667Y-22255628D01*
X50266667Y-22255628D02*
X50266667Y-22369914D01*
X50266667Y-22369914D02*
X50228571Y-22446104D01*
X50228571Y-22446104D02*
X50190476Y-22484200D01*
X50190476Y-22484200D02*
X50114286Y-22522295D01*
X50114286Y-22522295D02*
X49809524Y-22522295D01*
X49809524Y-22522295D02*
X49809524Y-21722295D01*
X49809524Y-21722295D02*
X50076190Y-21722295D01*
X50076190Y-21722295D02*
X50152381Y-21760390D01*
X50152381Y-21760390D02*
X50190476Y-21798485D01*
X50190476Y-21798485D02*
X50228571Y-21874676D01*
X50228571Y-21874676D02*
X50228571Y-21950866D01*
X50228571Y-21950866D02*
X50190476Y-22027057D01*
X50190476Y-22027057D02*
X50152381Y-22065152D01*
X50152381Y-22065152D02*
X50076190Y-22103247D01*
X50076190Y-22103247D02*
X49809524Y-22103247D01*
X50571428Y-21798485D02*
X50609524Y-21760390D01*
X50609524Y-21760390D02*
X50685714Y-21722295D01*
X50685714Y-21722295D02*
X50876190Y-21722295D01*
X50876190Y-21722295D02*
X50952381Y-21760390D01*
X50952381Y-21760390D02*
X50990476Y-21798485D01*
X50990476Y-21798485D02*
X51028571Y-21874676D01*
X51028571Y-21874676D02*
X51028571Y-21950866D01*
X51028571Y-21950866D02*
X50990476Y-22065152D01*
X50990476Y-22065152D02*
X50533333Y-22522295D01*
X50533333Y-22522295D02*
X51028571Y-22522295D01*
X49828571Y-12133723D02*
X50209524Y-12133723D01*
X49752381Y-12362295D02*
X50019048Y-11562295D01*
X50019048Y-11562295D02*
X50285714Y-12362295D01*
X50971428Y-12362295D02*
X50514285Y-12362295D01*
X50742857Y-12362295D02*
X50742857Y-11562295D01*
X50742857Y-11562295D02*
X50666666Y-11676580D01*
X50666666Y-11676580D02*
X50590476Y-11752771D01*
X50590476Y-11752771D02*
X50514285Y-11790866D01*
X29442857Y-31869771D02*
X29442857Y-32355485D01*
X29442857Y-32355485D02*
X29471428Y-32412628D01*
X29471428Y-32412628D02*
X29500000Y-32441200D01*
X29500000Y-32441200D02*
X29557142Y-32469771D01*
X29557142Y-32469771D02*
X29671428Y-32469771D01*
X29671428Y-32469771D02*
X29728571Y-32441200D01*
X29728571Y-32441200D02*
X29757142Y-32412628D01*
X29757142Y-32412628D02*
X29785714Y-32355485D01*
X29785714Y-32355485D02*
X29785714Y-31869771D01*
X30042856Y-32298342D02*
X30328571Y-32298342D01*
X29985713Y-32469771D02*
X30185713Y-31869771D01*
X30185713Y-31869771D02*
X30385713Y-32469771D01*
X30928571Y-32469771D02*
X30728571Y-32184057D01*
X30585714Y-32469771D02*
X30585714Y-31869771D01*
X30585714Y-31869771D02*
X30814285Y-31869771D01*
X30814285Y-31869771D02*
X30871428Y-31898342D01*
X30871428Y-31898342D02*
X30899999Y-31926914D01*
X30899999Y-31926914D02*
X30928571Y-31984057D01*
X30928571Y-31984057D02*
X30928571Y-32069771D01*
X30928571Y-32069771D02*
X30899999Y-32126914D01*
X30899999Y-32126914D02*
X30871428Y-32155485D01*
X30871428Y-32155485D02*
X30814285Y-32184057D01*
X30814285Y-32184057D02*
X30585714Y-32184057D01*
X31099999Y-31869771D02*
X31442857Y-31869771D01*
X31271428Y-32469771D02*
X31271428Y-31869771D01*
X6033333Y-7156033D02*
X6466666Y-7156033D01*
X6466666Y-7156033D02*
X6233333Y-7422700D01*
X6233333Y-7422700D02*
X6333333Y-7422700D01*
X6333333Y-7422700D02*
X6399999Y-7456033D01*
X6399999Y-7456033D02*
X6433333Y-7489366D01*
X6433333Y-7489366D02*
X6466666Y-7556033D01*
X6466666Y-7556033D02*
X6466666Y-7722700D01*
X6466666Y-7722700D02*
X6433333Y-7789366D01*
X6433333Y-7789366D02*
X6399999Y-7822700D01*
X6399999Y-7822700D02*
X6333333Y-7856033D01*
X6333333Y-7856033D02*
X6133333Y-7856033D01*
X6133333Y-7856033D02*
X6066666Y-7822700D01*
X6066666Y-7822700D02*
X6033333Y-7789366D01*
X6666666Y-7156033D02*
X6900000Y-7856033D01*
X6900000Y-7856033D02*
X7133333Y-7156033D01*
X7300000Y-7156033D02*
X7733333Y-7156033D01*
X7733333Y-7156033D02*
X7500000Y-7422700D01*
X7500000Y-7422700D02*
X7600000Y-7422700D01*
X7600000Y-7422700D02*
X7666666Y-7456033D01*
X7666666Y-7456033D02*
X7700000Y-7489366D01*
X7700000Y-7489366D02*
X7733333Y-7556033D01*
X7733333Y-7556033D02*
X7733333Y-7722700D01*
X7733333Y-7722700D02*
X7700000Y-7789366D01*
X7700000Y-7789366D02*
X7666666Y-7822700D01*
X7666666Y-7822700D02*
X7600000Y-7856033D01*
X7600000Y-7856033D02*
X7400000Y-7856033D01*
X7400000Y-7856033D02*
X7333333Y-7822700D01*
X7333333Y-7822700D02*
X7300000Y-7789366D01*
X38833333Y-11679580D02*
X38785714Y-11727200D01*
X38785714Y-11727200D02*
X38642857Y-11774819D01*
X38642857Y-11774819D02*
X38547619Y-11774819D01*
X38547619Y-11774819D02*
X38404762Y-11727200D01*
X38404762Y-11727200D02*
X38309524Y-11631961D01*
X38309524Y-11631961D02*
X38261905Y-11536723D01*
X38261905Y-11536723D02*
X38214286Y-11346247D01*
X38214286Y-11346247D02*
X38214286Y-11203390D01*
X38214286Y-11203390D02*
X38261905Y-11012914D01*
X38261905Y-11012914D02*
X38309524Y-10917676D01*
X38309524Y-10917676D02*
X38404762Y-10822438D01*
X38404762Y-10822438D02*
X38547619Y-10774819D01*
X38547619Y-10774819D02*
X38642857Y-10774819D01*
X38642857Y-10774819D02*
X38785714Y-10822438D01*
X38785714Y-10822438D02*
X38833333Y-10870057D01*
X39214286Y-10870057D02*
X39261905Y-10822438D01*
X39261905Y-10822438D02*
X39357143Y-10774819D01*
X39357143Y-10774819D02*
X39595238Y-10774819D01*
X39595238Y-10774819D02*
X39690476Y-10822438D01*
X39690476Y-10822438D02*
X39738095Y-10870057D01*
X39738095Y-10870057D02*
X39785714Y-10965295D01*
X39785714Y-10965295D02*
X39785714Y-11060533D01*
X39785714Y-11060533D02*
X39738095Y-11203390D01*
X39738095Y-11203390D02*
X39166667Y-11774819D01*
X39166667Y-11774819D02*
X39785714Y-11774819D01*
X59754819Y-19933333D02*
X60469104Y-19933333D01*
X60469104Y-19933333D02*
X60611961Y-19980952D01*
X60611961Y-19980952D02*
X60707200Y-20076190D01*
X60707200Y-20076190D02*
X60754819Y-20219047D01*
X60754819Y-20219047D02*
X60754819Y-20314285D01*
X59754819Y-19552380D02*
X59754819Y-18933333D01*
X59754819Y-18933333D02*
X60135771Y-19266666D01*
X60135771Y-19266666D02*
X60135771Y-19123809D01*
X60135771Y-19123809D02*
X60183390Y-19028571D01*
X60183390Y-19028571D02*
X60231009Y-18980952D01*
X60231009Y-18980952D02*
X60326247Y-18933333D01*
X60326247Y-18933333D02*
X60564342Y-18933333D01*
X60564342Y-18933333D02*
X60659580Y-18980952D01*
X60659580Y-18980952D02*
X60707200Y-19028571D01*
X60707200Y-19028571D02*
X60754819Y-19123809D01*
X60754819Y-19123809D02*
X60754819Y-19409523D01*
X60754819Y-19409523D02*
X60707200Y-19504761D01*
X60707200Y-19504761D02*
X60659580Y-19552380D01*
X19733333Y-20179580D02*
X19685714Y-20227200D01*
X19685714Y-20227200D02*
X19542857Y-20274819D01*
X19542857Y-20274819D02*
X19447619Y-20274819D01*
X19447619Y-20274819D02*
X19304762Y-20227200D01*
X19304762Y-20227200D02*
X19209524Y-20131961D01*
X19209524Y-20131961D02*
X19161905Y-20036723D01*
X19161905Y-20036723D02*
X19114286Y-19846247D01*
X19114286Y-19846247D02*
X19114286Y-19703390D01*
X19114286Y-19703390D02*
X19161905Y-19512914D01*
X19161905Y-19512914D02*
X19209524Y-19417676D01*
X19209524Y-19417676D02*
X19304762Y-19322438D01*
X19304762Y-19322438D02*
X19447619Y-19274819D01*
X19447619Y-19274819D02*
X19542857Y-19274819D01*
X19542857Y-19274819D02*
X19685714Y-19322438D01*
X19685714Y-19322438D02*
X19733333Y-19370057D01*
X20304762Y-19703390D02*
X20209524Y-19655771D01*
X20209524Y-19655771D02*
X20161905Y-19608152D01*
X20161905Y-19608152D02*
X20114286Y-19512914D01*
X20114286Y-19512914D02*
X20114286Y-19465295D01*
X20114286Y-19465295D02*
X20161905Y-19370057D01*
X20161905Y-19370057D02*
X20209524Y-19322438D01*
X20209524Y-19322438D02*
X20304762Y-19274819D01*
X20304762Y-19274819D02*
X20495238Y-19274819D01*
X20495238Y-19274819D02*
X20590476Y-19322438D01*
X20590476Y-19322438D02*
X20638095Y-19370057D01*
X20638095Y-19370057D02*
X20685714Y-19465295D01*
X20685714Y-19465295D02*
X20685714Y-19512914D01*
X20685714Y-19512914D02*
X20638095Y-19608152D01*
X20638095Y-19608152D02*
X20590476Y-19655771D01*
X20590476Y-19655771D02*
X20495238Y-19703390D01*
X20495238Y-19703390D02*
X20304762Y-19703390D01*
X20304762Y-19703390D02*
X20209524Y-19751009D01*
X20209524Y-19751009D02*
X20161905Y-19798628D01*
X20161905Y-19798628D02*
X20114286Y-19893866D01*
X20114286Y-19893866D02*
X20114286Y-20084342D01*
X20114286Y-20084342D02*
X20161905Y-20179580D01*
X20161905Y-20179580D02*
X20209524Y-20227200D01*
X20209524Y-20227200D02*
X20304762Y-20274819D01*
X20304762Y-20274819D02*
X20495238Y-20274819D01*
X20495238Y-20274819D02*
X20590476Y-20227200D01*
X20590476Y-20227200D02*
X20638095Y-20179580D01*
X20638095Y-20179580D02*
X20685714Y-20084342D01*
X20685714Y-20084342D02*
X20685714Y-19893866D01*
X20685714Y-19893866D02*
X20638095Y-19798628D01*
X20638095Y-19798628D02*
X20590476Y-19751009D01*
X20590476Y-19751009D02*
X20495238Y-19703390D01*
X29504819Y-35442857D02*
X29028628Y-35776190D01*
X29504819Y-36014285D02*
X28504819Y-36014285D01*
X28504819Y-36014285D02*
X28504819Y-35633333D01*
X28504819Y-35633333D02*
X28552438Y-35538095D01*
X28552438Y-35538095D02*
X28600057Y-35490476D01*
X28600057Y-35490476D02*
X28695295Y-35442857D01*
X28695295Y-35442857D02*
X28838152Y-35442857D01*
X28838152Y-35442857D02*
X28933390Y-35490476D01*
X28933390Y-35490476D02*
X28981009Y-35538095D01*
X28981009Y-35538095D02*
X29028628Y-35633333D01*
X29028628Y-35633333D02*
X29028628Y-36014285D01*
X29504819Y-34490476D02*
X29504819Y-35061904D01*
X29504819Y-34776190D02*
X28504819Y-34776190D01*
X28504819Y-34776190D02*
X28647676Y-34871428D01*
X28647676Y-34871428D02*
X28742914Y-34966666D01*
X28742914Y-34966666D02*
X28790533Y-35061904D01*
X29504819Y-33538095D02*
X29504819Y-34109523D01*
X29504819Y-33823809D02*
X28504819Y-33823809D01*
X28504819Y-33823809D02*
X28647676Y-33919047D01*
X28647676Y-33919047D02*
X28742914Y-34014285D01*
X28742914Y-34014285D02*
X28790533Y-34109523D01*
X2438095Y-35554819D02*
X2438095Y-34554819D01*
X2438095Y-35031009D02*
X3009523Y-35031009D01*
X3009523Y-35554819D02*
X3009523Y-34554819D01*
X4009523Y-35554819D02*
X3438095Y-35554819D01*
X3723809Y-35554819D02*
X3723809Y-34554819D01*
X3723809Y-34554819D02*
X3628571Y-34697676D01*
X3628571Y-34697676D02*
X3533333Y-34792914D01*
X3533333Y-34792914D02*
X3438095Y-34840533D01*
X38954819Y-8238094D02*
X37954819Y-8238094D01*
X37954819Y-8238094D02*
X37954819Y-7999999D01*
X37954819Y-7999999D02*
X38002438Y-7857142D01*
X38002438Y-7857142D02*
X38097676Y-7761904D01*
X38097676Y-7761904D02*
X38192914Y-7714285D01*
X38192914Y-7714285D02*
X38383390Y-7666666D01*
X38383390Y-7666666D02*
X38526247Y-7666666D01*
X38526247Y-7666666D02*
X38716723Y-7714285D01*
X38716723Y-7714285D02*
X38811961Y-7761904D01*
X38811961Y-7761904D02*
X38907200Y-7857142D01*
X38907200Y-7857142D02*
X38954819Y-7999999D01*
X38954819Y-7999999D02*
X38954819Y-8238094D01*
X38050057Y-7285713D02*
X38002438Y-7238094D01*
X38002438Y-7238094D02*
X37954819Y-7142856D01*
X37954819Y-7142856D02*
X37954819Y-6904761D01*
X37954819Y-6904761D02*
X38002438Y-6809523D01*
X38002438Y-6809523D02*
X38050057Y-6761904D01*
X38050057Y-6761904D02*
X38145295Y-6714285D01*
X38145295Y-6714285D02*
X38240533Y-6714285D01*
X38240533Y-6714285D02*
X38383390Y-6761904D01*
X38383390Y-6761904D02*
X38954819Y-7333332D01*
X38954819Y-7333332D02*
X38954819Y-6714285D01*
X56038095Y45180D02*
X56038095Y1045180D01*
X56038095Y568990D02*
X56609523Y568990D01*
X56609523Y45180D02*
X56609523Y1045180D01*
X56990476Y1045180D02*
X57609523Y1045180D01*
X57609523Y1045180D02*
X57276190Y664228D01*
X57276190Y664228D02*
X57419047Y664228D01*
X57419047Y664228D02*
X57514285Y616609D01*
X57514285Y616609D02*
X57561904Y568990D01*
X57561904Y568990D02*
X57609523Y473752D01*
X57609523Y473752D02*
X57609523Y235657D01*
X57609523Y235657D02*
X57561904Y140419D01*
X57561904Y140419D02*
X57514285Y92800D01*
X57514285Y92800D02*
X57419047Y45180D01*
X57419047Y45180D02*
X57133333Y45180D01*
X57133333Y45180D02*
X57038095Y92800D01*
X57038095Y92800D02*
X56990476Y140419D01*
X33833333Y-11929580D02*
X33785714Y-11977200D01*
X33785714Y-11977200D02*
X33642857Y-12024819D01*
X33642857Y-12024819D02*
X33547619Y-12024819D01*
X33547619Y-12024819D02*
X33404762Y-11977200D01*
X33404762Y-11977200D02*
X33309524Y-11881961D01*
X33309524Y-11881961D02*
X33261905Y-11786723D01*
X33261905Y-11786723D02*
X33214286Y-11596247D01*
X33214286Y-11596247D02*
X33214286Y-11453390D01*
X33214286Y-11453390D02*
X33261905Y-11262914D01*
X33261905Y-11262914D02*
X33309524Y-11167676D01*
X33309524Y-11167676D02*
X33404762Y-11072438D01*
X33404762Y-11072438D02*
X33547619Y-11024819D01*
X33547619Y-11024819D02*
X33642857Y-11024819D01*
X33642857Y-11024819D02*
X33785714Y-11072438D01*
X33785714Y-11072438D02*
X33833333Y-11120057D01*
X34690476Y-11358152D02*
X34690476Y-12024819D01*
X34452381Y-10977200D02*
X34214286Y-11691485D01*
X34214286Y-11691485D02*
X34833333Y-11691485D01*
X25607143Y-30207200D02*
X25750000Y-30254819D01*
X25750000Y-30254819D02*
X25988095Y-30254819D01*
X25988095Y-30254819D02*
X26083333Y-30207200D01*
X26083333Y-30207200D02*
X26130952Y-30159580D01*
X26130952Y-30159580D02*
X26178571Y-30064342D01*
X26178571Y-30064342D02*
X26178571Y-29969104D01*
X26178571Y-29969104D02*
X26130952Y-29873866D01*
X26130952Y-29873866D02*
X26083333Y-29826247D01*
X26083333Y-29826247D02*
X25988095Y-29778628D01*
X25988095Y-29778628D02*
X25797619Y-29731009D01*
X25797619Y-29731009D02*
X25702381Y-29683390D01*
X25702381Y-29683390D02*
X25654762Y-29635771D01*
X25654762Y-29635771D02*
X25607143Y-29540533D01*
X25607143Y-29540533D02*
X25607143Y-29445295D01*
X25607143Y-29445295D02*
X25654762Y-29350057D01*
X25654762Y-29350057D02*
X25702381Y-29302438D01*
X25702381Y-29302438D02*
X25797619Y-29254819D01*
X25797619Y-29254819D02*
X26035714Y-29254819D01*
X26035714Y-29254819D02*
X26178571Y-29302438D01*
X26892857Y-29254819D02*
X26892857Y-29969104D01*
X26892857Y-29969104D02*
X26845238Y-30111961D01*
X26845238Y-30111961D02*
X26750000Y-30207200D01*
X26750000Y-30207200D02*
X26607143Y-30254819D01*
X26607143Y-30254819D02*
X26511905Y-30254819D01*
X27892857Y-30254819D02*
X27321429Y-30254819D01*
X27607143Y-30254819D02*
X27607143Y-29254819D01*
X27607143Y-29254819D02*
X27511905Y-29397676D01*
X27511905Y-29397676D02*
X27416667Y-29492914D01*
X27416667Y-29492914D02*
X27321429Y-29540533D01*
X27238095Y-17654819D02*
X27238095Y-18464342D01*
X27238095Y-18464342D02*
X27285714Y-18559580D01*
X27285714Y-18559580D02*
X27333333Y-18607200D01*
X27333333Y-18607200D02*
X27428571Y-18654819D01*
X27428571Y-18654819D02*
X27619047Y-18654819D01*
X27619047Y-18654819D02*
X27714285Y-18607200D01*
X27714285Y-18607200D02*
X27761904Y-18559580D01*
X27761904Y-18559580D02*
X27809523Y-18464342D01*
X27809523Y-18464342D02*
X27809523Y-17654819D01*
X28809523Y-18654819D02*
X28238095Y-18654819D01*
X28523809Y-18654819D02*
X28523809Y-17654819D01*
X28523809Y-17654819D02*
X28428571Y-17797676D01*
X28428571Y-17797676D02*
X28333333Y-17892914D01*
X28333333Y-17892914D02*
X28238095Y-17940533D01*
X8484819Y-15366666D02*
X8008628Y-15699999D01*
X8484819Y-15938094D02*
X7484819Y-15938094D01*
X7484819Y-15938094D02*
X7484819Y-15557142D01*
X7484819Y-15557142D02*
X7532438Y-15461904D01*
X7532438Y-15461904D02*
X7580057Y-15414285D01*
X7580057Y-15414285D02*
X7675295Y-15366666D01*
X7675295Y-15366666D02*
X7818152Y-15366666D01*
X7818152Y-15366666D02*
X7913390Y-15414285D01*
X7913390Y-15414285D02*
X7961009Y-15461904D01*
X7961009Y-15461904D02*
X8008628Y-15557142D01*
X8008628Y-15557142D02*
X8008628Y-15938094D01*
X7580057Y-14985713D02*
X7532438Y-14938094D01*
X7532438Y-14938094D02*
X7484819Y-14842856D01*
X7484819Y-14842856D02*
X7484819Y-14604761D01*
X7484819Y-14604761D02*
X7532438Y-14509523D01*
X7532438Y-14509523D02*
X7580057Y-14461904D01*
X7580057Y-14461904D02*
X7675295Y-14414285D01*
X7675295Y-14414285D02*
X7770533Y-14414285D01*
X7770533Y-14414285D02*
X7913390Y-14461904D01*
X7913390Y-14461904D02*
X8484819Y-15033332D01*
X8484819Y-15033332D02*
X8484819Y-14414285D01*
X24424819Y-34966666D02*
X23948628Y-35299999D01*
X24424819Y-35538094D02*
X23424819Y-35538094D01*
X23424819Y-35538094D02*
X23424819Y-35157142D01*
X23424819Y-35157142D02*
X23472438Y-35061904D01*
X23472438Y-35061904D02*
X23520057Y-35014285D01*
X23520057Y-35014285D02*
X23615295Y-34966666D01*
X23615295Y-34966666D02*
X23758152Y-34966666D01*
X23758152Y-34966666D02*
X23853390Y-35014285D01*
X23853390Y-35014285D02*
X23901009Y-35061904D01*
X23901009Y-35061904D02*
X23948628Y-35157142D01*
X23948628Y-35157142D02*
X23948628Y-35538094D01*
X24424819Y-34490475D02*
X24424819Y-34299999D01*
X24424819Y-34299999D02*
X24377200Y-34204761D01*
X24377200Y-34204761D02*
X24329580Y-34157142D01*
X24329580Y-34157142D02*
X24186723Y-34061904D01*
X24186723Y-34061904D02*
X23996247Y-34014285D01*
X23996247Y-34014285D02*
X23615295Y-34014285D01*
X23615295Y-34014285D02*
X23520057Y-34061904D01*
X23520057Y-34061904D02*
X23472438Y-34109523D01*
X23472438Y-34109523D02*
X23424819Y-34204761D01*
X23424819Y-34204761D02*
X23424819Y-34395237D01*
X23424819Y-34395237D02*
X23472438Y-34490475D01*
X23472438Y-34490475D02*
X23520057Y-34538094D01*
X23520057Y-34538094D02*
X23615295Y-34585713D01*
X23615295Y-34585713D02*
X23853390Y-34585713D01*
X23853390Y-34585713D02*
X23948628Y-34538094D01*
X23948628Y-34538094D02*
X23996247Y-34490475D01*
X23996247Y-34490475D02*
X24043866Y-34395237D01*
X24043866Y-34395237D02*
X24043866Y-34204761D01*
X24043866Y-34204761D02*
X23996247Y-34109523D01*
X23996247Y-34109523D02*
X23948628Y-34061904D01*
X23948628Y-34061904D02*
X23853390Y-34014285D01*
X7183333Y-26884819D02*
X6850000Y-26408628D01*
X6611905Y-26884819D02*
X6611905Y-25884819D01*
X6611905Y-25884819D02*
X6992857Y-25884819D01*
X6992857Y-25884819D02*
X7088095Y-25932438D01*
X7088095Y-25932438D02*
X7135714Y-25980057D01*
X7135714Y-25980057D02*
X7183333Y-26075295D01*
X7183333Y-26075295D02*
X7183333Y-26218152D01*
X7183333Y-26218152D02*
X7135714Y-26313390D01*
X7135714Y-26313390D02*
X7088095Y-26361009D01*
X7088095Y-26361009D02*
X6992857Y-26408628D01*
X6992857Y-26408628D02*
X6611905Y-26408628D01*
X8040476Y-26218152D02*
X8040476Y-26884819D01*
X7802381Y-25837200D02*
X7564286Y-26551485D01*
X7564286Y-26551485D02*
X8183333Y-26551485D01*
X22789580Y-24166666D02*
X22837200Y-24214285D01*
X22837200Y-24214285D02*
X22884819Y-24357142D01*
X22884819Y-24357142D02*
X22884819Y-24452380D01*
X22884819Y-24452380D02*
X22837200Y-24595237D01*
X22837200Y-24595237D02*
X22741961Y-24690475D01*
X22741961Y-24690475D02*
X22646723Y-24738094D01*
X22646723Y-24738094D02*
X22456247Y-24785713D01*
X22456247Y-24785713D02*
X22313390Y-24785713D01*
X22313390Y-24785713D02*
X22122914Y-24738094D01*
X22122914Y-24738094D02*
X22027676Y-24690475D01*
X22027676Y-24690475D02*
X21932438Y-24595237D01*
X21932438Y-24595237D02*
X21884819Y-24452380D01*
X21884819Y-24452380D02*
X21884819Y-24357142D01*
X21884819Y-24357142D02*
X21932438Y-24214285D01*
X21932438Y-24214285D02*
X21980057Y-24166666D01*
X22884819Y-23690475D02*
X22884819Y-23499999D01*
X22884819Y-23499999D02*
X22837200Y-23404761D01*
X22837200Y-23404761D02*
X22789580Y-23357142D01*
X22789580Y-23357142D02*
X22646723Y-23261904D01*
X22646723Y-23261904D02*
X22456247Y-23214285D01*
X22456247Y-23214285D02*
X22075295Y-23214285D01*
X22075295Y-23214285D02*
X21980057Y-23261904D01*
X21980057Y-23261904D02*
X21932438Y-23309523D01*
X21932438Y-23309523D02*
X21884819Y-23404761D01*
X21884819Y-23404761D02*
X21884819Y-23595237D01*
X21884819Y-23595237D02*
X21932438Y-23690475D01*
X21932438Y-23690475D02*
X21980057Y-23738094D01*
X21980057Y-23738094D02*
X22075295Y-23785713D01*
X22075295Y-23785713D02*
X22313390Y-23785713D01*
X22313390Y-23785713D02*
X22408628Y-23738094D01*
X22408628Y-23738094D02*
X22456247Y-23690475D01*
X22456247Y-23690475D02*
X22503866Y-23595237D01*
X22503866Y-23595237D02*
X22503866Y-23404761D01*
X22503866Y-23404761D02*
X22456247Y-23309523D01*
X22456247Y-23309523D02*
X22408628Y-23261904D01*
X22408628Y-23261904D02*
X22313390Y-23214285D01*
X29133333Y-26329580D02*
X29085714Y-26377200D01*
X29085714Y-26377200D02*
X28942857Y-26424819D01*
X28942857Y-26424819D02*
X28847619Y-26424819D01*
X28847619Y-26424819D02*
X28704762Y-26377200D01*
X28704762Y-26377200D02*
X28609524Y-26281961D01*
X28609524Y-26281961D02*
X28561905Y-26186723D01*
X28561905Y-26186723D02*
X28514286Y-25996247D01*
X28514286Y-25996247D02*
X28514286Y-25853390D01*
X28514286Y-25853390D02*
X28561905Y-25662914D01*
X28561905Y-25662914D02*
X28609524Y-25567676D01*
X28609524Y-25567676D02*
X28704762Y-25472438D01*
X28704762Y-25472438D02*
X28847619Y-25424819D01*
X28847619Y-25424819D02*
X28942857Y-25424819D01*
X28942857Y-25424819D02*
X29085714Y-25472438D01*
X29085714Y-25472438D02*
X29133333Y-25520057D01*
X29990476Y-25424819D02*
X29800000Y-25424819D01*
X29800000Y-25424819D02*
X29704762Y-25472438D01*
X29704762Y-25472438D02*
X29657143Y-25520057D01*
X29657143Y-25520057D02*
X29561905Y-25662914D01*
X29561905Y-25662914D02*
X29514286Y-25853390D01*
X29514286Y-25853390D02*
X29514286Y-26234342D01*
X29514286Y-26234342D02*
X29561905Y-26329580D01*
X29561905Y-26329580D02*
X29609524Y-26377200D01*
X29609524Y-26377200D02*
X29704762Y-26424819D01*
X29704762Y-26424819D02*
X29895238Y-26424819D01*
X29895238Y-26424819D02*
X29990476Y-26377200D01*
X29990476Y-26377200D02*
X30038095Y-26329580D01*
X30038095Y-26329580D02*
X30085714Y-26234342D01*
X30085714Y-26234342D02*
X30085714Y-25996247D01*
X30085714Y-25996247D02*
X30038095Y-25901009D01*
X30038095Y-25901009D02*
X29990476Y-25853390D01*
X29990476Y-25853390D02*
X29895238Y-25805771D01*
X29895238Y-25805771D02*
X29704762Y-25805771D01*
X29704762Y-25805771D02*
X29609524Y-25853390D01*
X29609524Y-25853390D02*
X29561905Y-25901009D01*
X29561905Y-25901009D02*
X29514286Y-25996247D01*
X56038095Y-35554819D02*
X56038095Y-34554819D01*
X56038095Y-35031009D02*
X56609523Y-35031009D01*
X56609523Y-35554819D02*
X56609523Y-34554819D01*
X57038095Y-34650057D02*
X57085714Y-34602438D01*
X57085714Y-34602438D02*
X57180952Y-34554819D01*
X57180952Y-34554819D02*
X57419047Y-34554819D01*
X57419047Y-34554819D02*
X57514285Y-34602438D01*
X57514285Y-34602438D02*
X57561904Y-34650057D01*
X57561904Y-34650057D02*
X57609523Y-34745295D01*
X57609523Y-34745295D02*
X57609523Y-34840533D01*
X57609523Y-34840533D02*
X57561904Y-34983390D01*
X57561904Y-34983390D02*
X56990476Y-35554819D01*
X56990476Y-35554819D02*
X57609523Y-35554819D01*
X8333333Y-21804819D02*
X8000000Y-21328628D01*
X7761905Y-21804819D02*
X7761905Y-20804819D01*
X7761905Y-20804819D02*
X8142857Y-20804819D01*
X8142857Y-20804819D02*
X8238095Y-20852438D01*
X8238095Y-20852438D02*
X8285714Y-20900057D01*
X8285714Y-20900057D02*
X8333333Y-20995295D01*
X8333333Y-20995295D02*
X8333333Y-21138152D01*
X8333333Y-21138152D02*
X8285714Y-21233390D01*
X8285714Y-21233390D02*
X8238095Y-21281009D01*
X8238095Y-21281009D02*
X8142857Y-21328628D01*
X8142857Y-21328628D02*
X7761905Y-21328628D01*
X8666667Y-20804819D02*
X9333333Y-20804819D01*
X9333333Y-20804819D02*
X8904762Y-21804819D01*
X44454819Y-7238094D02*
X43454819Y-7238094D01*
X43454819Y-7238094D02*
X43454819Y-6999999D01*
X43454819Y-6999999D02*
X43502438Y-6857142D01*
X43502438Y-6857142D02*
X43597676Y-6761904D01*
X43597676Y-6761904D02*
X43692914Y-6714285D01*
X43692914Y-6714285D02*
X43883390Y-6666666D01*
X43883390Y-6666666D02*
X44026247Y-6666666D01*
X44026247Y-6666666D02*
X44216723Y-6714285D01*
X44216723Y-6714285D02*
X44311961Y-6761904D01*
X44311961Y-6761904D02*
X44407200Y-6857142D01*
X44407200Y-6857142D02*
X44454819Y-6999999D01*
X44454819Y-6999999D02*
X44454819Y-7238094D01*
X44454819Y-5714285D02*
X44454819Y-6285713D01*
X44454819Y-5999999D02*
X43454819Y-5999999D01*
X43454819Y-5999999D02*
X43597676Y-6095237D01*
X43597676Y-6095237D02*
X43692914Y-6190475D01*
X43692914Y-6190475D02*
X43740533Y-6285713D01*
X17124819Y-38833333D02*
X17839104Y-38833333D01*
X17839104Y-38833333D02*
X17981961Y-38880952D01*
X17981961Y-38880952D02*
X18077200Y-38976190D01*
X18077200Y-38976190D02*
X18124819Y-39119047D01*
X18124819Y-39119047D02*
X18124819Y-39214285D01*
X17458152Y-37928571D02*
X18124819Y-37928571D01*
X17077200Y-38166666D02*
X17791485Y-38404761D01*
X17791485Y-38404761D02*
X17791485Y-37785714D01*
X32404761Y-7450057D02*
X32309523Y-7402438D01*
X32309523Y-7402438D02*
X32214285Y-7307200D01*
X32214285Y-7307200D02*
X32071428Y-7164342D01*
X32071428Y-7164342D02*
X31976190Y-7116723D01*
X31976190Y-7116723D02*
X31880952Y-7116723D01*
X31928571Y-7354819D02*
X31833333Y-7307200D01*
X31833333Y-7307200D02*
X31738095Y-7211961D01*
X31738095Y-7211961D02*
X31690476Y-7021485D01*
X31690476Y-7021485D02*
X31690476Y-6688152D01*
X31690476Y-6688152D02*
X31738095Y-6497676D01*
X31738095Y-6497676D02*
X31833333Y-6402438D01*
X31833333Y-6402438D02*
X31928571Y-6354819D01*
X31928571Y-6354819D02*
X32119047Y-6354819D01*
X32119047Y-6354819D02*
X32214285Y-6402438D01*
X32214285Y-6402438D02*
X32309523Y-6497676D01*
X32309523Y-6497676D02*
X32357142Y-6688152D01*
X32357142Y-6688152D02*
X32357142Y-7021485D01*
X32357142Y-7021485D02*
X32309523Y-7211961D01*
X32309523Y-7211961D02*
X32214285Y-7307200D01*
X32214285Y-7307200D02*
X32119047Y-7354819D01*
X32119047Y-7354819D02*
X31928571Y-7354819D01*
X33309523Y-7354819D02*
X32738095Y-7354819D01*
X33023809Y-7354819D02*
X33023809Y-6354819D01*
X33023809Y-6354819D02*
X32928571Y-6497676D01*
X32928571Y-6497676D02*
X32833333Y-6592914D01*
X32833333Y-6592914D02*
X32738095Y-6640533D01*
X26964819Y-35442857D02*
X26488628Y-35776190D01*
X26964819Y-36014285D02*
X25964819Y-36014285D01*
X25964819Y-36014285D02*
X25964819Y-35633333D01*
X25964819Y-35633333D02*
X26012438Y-35538095D01*
X26012438Y-35538095D02*
X26060057Y-35490476D01*
X26060057Y-35490476D02*
X26155295Y-35442857D01*
X26155295Y-35442857D02*
X26298152Y-35442857D01*
X26298152Y-35442857D02*
X26393390Y-35490476D01*
X26393390Y-35490476D02*
X26441009Y-35538095D01*
X26441009Y-35538095D02*
X26488628Y-35633333D01*
X26488628Y-35633333D02*
X26488628Y-36014285D01*
X26964819Y-34490476D02*
X26964819Y-35061904D01*
X26964819Y-34776190D02*
X25964819Y-34776190D01*
X25964819Y-34776190D02*
X26107676Y-34871428D01*
X26107676Y-34871428D02*
X26202914Y-34966666D01*
X26202914Y-34966666D02*
X26250533Y-35061904D01*
X25964819Y-33871428D02*
X25964819Y-33776190D01*
X25964819Y-33776190D02*
X26012438Y-33680952D01*
X26012438Y-33680952D02*
X26060057Y-33633333D01*
X26060057Y-33633333D02*
X26155295Y-33585714D01*
X26155295Y-33585714D02*
X26345771Y-33538095D01*
X26345771Y-33538095D02*
X26583866Y-33538095D01*
X26583866Y-33538095D02*
X26774342Y-33585714D01*
X26774342Y-33585714D02*
X26869580Y-33633333D01*
X26869580Y-33633333D02*
X26917200Y-33680952D01*
X26917200Y-33680952D02*
X26964819Y-33776190D01*
X26964819Y-33776190D02*
X26964819Y-33871428D01*
X26964819Y-33871428D02*
X26917200Y-33966666D01*
X26917200Y-33966666D02*
X26869580Y-34014285D01*
X26869580Y-34014285D02*
X26774342Y-34061904D01*
X26774342Y-34061904D02*
X26583866Y-34109523D01*
X26583866Y-34109523D02*
X26345771Y-34109523D01*
X26345771Y-34109523D02*
X26155295Y-34061904D01*
X26155295Y-34061904D02*
X26060057Y-34014285D01*
X26060057Y-34014285D02*
X26012438Y-33966666D01*
X26012438Y-33966666D02*
X25964819Y-33871428D01*
X32333333Y-29179580D02*
X32285714Y-29227200D01*
X32285714Y-29227200D02*
X32142857Y-29274819D01*
X32142857Y-29274819D02*
X32047619Y-29274819D01*
X32047619Y-29274819D02*
X31904762Y-29227200D01*
X31904762Y-29227200D02*
X31809524Y-29131961D01*
X31809524Y-29131961D02*
X31761905Y-29036723D01*
X31761905Y-29036723D02*
X31714286Y-28846247D01*
X31714286Y-28846247D02*
X31714286Y-28703390D01*
X31714286Y-28703390D02*
X31761905Y-28512914D01*
X31761905Y-28512914D02*
X31809524Y-28417676D01*
X31809524Y-28417676D02*
X31904762Y-28322438D01*
X31904762Y-28322438D02*
X32047619Y-28274819D01*
X32047619Y-28274819D02*
X32142857Y-28274819D01*
X32142857Y-28274819D02*
X32285714Y-28322438D01*
X32285714Y-28322438D02*
X32333333Y-28370057D01*
X32666667Y-28274819D02*
X33285714Y-28274819D01*
X33285714Y-28274819D02*
X32952381Y-28655771D01*
X32952381Y-28655771D02*
X33095238Y-28655771D01*
X33095238Y-28655771D02*
X33190476Y-28703390D01*
X33190476Y-28703390D02*
X33238095Y-28751009D01*
X33238095Y-28751009D02*
X33285714Y-28846247D01*
X33285714Y-28846247D02*
X33285714Y-29084342D01*
X33285714Y-29084342D02*
X33238095Y-29179580D01*
X33238095Y-29179580D02*
X33190476Y-29227200D01*
X33190476Y-29227200D02*
X33095238Y-29274819D01*
X33095238Y-29274819D02*
X32809524Y-29274819D01*
X32809524Y-29274819D02*
X32714286Y-29227200D01*
X32714286Y-29227200D02*
X32666667Y-29179580D01*
X14206666Y1125180D02*
X14206666Y410895D01*
X14206666Y410895D02*
X14159047Y268038D01*
X14159047Y268038D02*
X14063809Y172800D01*
X14063809Y172800D02*
X13920952Y125180D01*
X13920952Y125180D02*
X13825714Y125180D01*
X14635238Y1029942D02*
X14682857Y1077561D01*
X14682857Y1077561D02*
X14778095Y1125180D01*
X14778095Y1125180D02*
X15016190Y1125180D01*
X15016190Y1125180D02*
X15111428Y1077561D01*
X15111428Y1077561D02*
X15159047Y1029942D01*
X15159047Y1029942D02*
X15206666Y934704D01*
X15206666Y934704D02*
X15206666Y839466D01*
X15206666Y839466D02*
X15159047Y696609D01*
X15159047Y696609D02*
X14587619Y125180D01*
X14587619Y125180D02*
X15206666Y125180D01*
X24266666Y-751009D02*
X23933333Y-751009D01*
X23933333Y-1274819D02*
X23933333Y-274819D01*
X23933333Y-274819D02*
X24409523Y-274819D01*
X25314285Y-1274819D02*
X24742857Y-1274819D01*
X25028571Y-1274819D02*
X25028571Y-274819D01*
X25028571Y-274819D02*
X24933333Y-417676D01*
X24933333Y-417676D02*
X24838095Y-512914D01*
X24838095Y-512914D02*
X24742857Y-560533D01*
X35484819Y-10366666D02*
X35008628Y-10699999D01*
X35484819Y-10938094D02*
X34484819Y-10938094D01*
X34484819Y-10938094D02*
X34484819Y-10557142D01*
X34484819Y-10557142D02*
X34532438Y-10461904D01*
X34532438Y-10461904D02*
X34580057Y-10414285D01*
X34580057Y-10414285D02*
X34675295Y-10366666D01*
X34675295Y-10366666D02*
X34818152Y-10366666D01*
X34818152Y-10366666D02*
X34913390Y-10414285D01*
X34913390Y-10414285D02*
X34961009Y-10461904D01*
X34961009Y-10461904D02*
X35008628Y-10557142D01*
X35008628Y-10557142D02*
X35008628Y-10938094D01*
X34913390Y-9795237D02*
X34865771Y-9890475D01*
X34865771Y-9890475D02*
X34818152Y-9938094D01*
X34818152Y-9938094D02*
X34722914Y-9985713D01*
X34722914Y-9985713D02*
X34675295Y-9985713D01*
X34675295Y-9985713D02*
X34580057Y-9938094D01*
X34580057Y-9938094D02*
X34532438Y-9890475D01*
X34532438Y-9890475D02*
X34484819Y-9795237D01*
X34484819Y-9795237D02*
X34484819Y-9604761D01*
X34484819Y-9604761D02*
X34532438Y-9509523D01*
X34532438Y-9509523D02*
X34580057Y-9461904D01*
X34580057Y-9461904D02*
X34675295Y-9414285D01*
X34675295Y-9414285D02*
X34722914Y-9414285D01*
X34722914Y-9414285D02*
X34818152Y-9461904D01*
X34818152Y-9461904D02*
X34865771Y-9509523D01*
X34865771Y-9509523D02*
X34913390Y-9604761D01*
X34913390Y-9604761D02*
X34913390Y-9795237D01*
X34913390Y-9795237D02*
X34961009Y-9890475D01*
X34961009Y-9890475D02*
X35008628Y-9938094D01*
X35008628Y-9938094D02*
X35103866Y-9985713D01*
X35103866Y-9985713D02*
X35294342Y-9985713D01*
X35294342Y-9985713D02*
X35389580Y-9938094D01*
X35389580Y-9938094D02*
X35437200Y-9890475D01*
X35437200Y-9890475D02*
X35484819Y-9795237D01*
X35484819Y-9795237D02*
X35484819Y-9604761D01*
X35484819Y-9604761D02*
X35437200Y-9509523D01*
X35437200Y-9509523D02*
X35389580Y-9461904D01*
X35389580Y-9461904D02*
X35294342Y-9414285D01*
X35294342Y-9414285D02*
X35103866Y-9414285D01*
X35103866Y-9414285D02*
X35008628Y-9461904D01*
X35008628Y-9461904D02*
X34961009Y-9509523D01*
X34961009Y-9509523D02*
X34913390Y-9604761D01*
X34139580Y-27666666D02*
X34187200Y-27714285D01*
X34187200Y-27714285D02*
X34234819Y-27857142D01*
X34234819Y-27857142D02*
X34234819Y-27952380D01*
X34234819Y-27952380D02*
X34187200Y-28095237D01*
X34187200Y-28095237D02*
X34091961Y-28190475D01*
X34091961Y-28190475D02*
X33996723Y-28238094D01*
X33996723Y-28238094D02*
X33806247Y-28285713D01*
X33806247Y-28285713D02*
X33663390Y-28285713D01*
X33663390Y-28285713D02*
X33472914Y-28238094D01*
X33472914Y-28238094D02*
X33377676Y-28190475D01*
X33377676Y-28190475D02*
X33282438Y-28095237D01*
X33282438Y-28095237D02*
X33234819Y-27952380D01*
X33234819Y-27952380D02*
X33234819Y-27857142D01*
X33234819Y-27857142D02*
X33282438Y-27714285D01*
X33282438Y-27714285D02*
X33330057Y-27666666D01*
X33234819Y-27333332D02*
X33234819Y-26666666D01*
X33234819Y-26666666D02*
X34234819Y-27095237D01*
X3666666Y-2124819D02*
X3666666Y-2839104D01*
X3666666Y-2839104D02*
X3619047Y-2981961D01*
X3619047Y-2981961D02*
X3523809Y-3077200D01*
X3523809Y-3077200D02*
X3380952Y-3124819D01*
X3380952Y-3124819D02*
X3285714Y-3124819D01*
X4666666Y-3124819D02*
X4095238Y-3124819D01*
X4380952Y-3124819D02*
X4380952Y-2124819D01*
X4380952Y-2124819D02*
X4285714Y-2267676D01*
X4285714Y-2267676D02*
X4190476Y-2362914D01*
X4190476Y-2362914D02*
X4095238Y-2410533D01*
X7183333Y-29424819D02*
X6850000Y-28948628D01*
X6611905Y-29424819D02*
X6611905Y-28424819D01*
X6611905Y-28424819D02*
X6992857Y-28424819D01*
X6992857Y-28424819D02*
X7088095Y-28472438D01*
X7088095Y-28472438D02*
X7135714Y-28520057D01*
X7135714Y-28520057D02*
X7183333Y-28615295D01*
X7183333Y-28615295D02*
X7183333Y-28758152D01*
X7183333Y-28758152D02*
X7135714Y-28853390D01*
X7135714Y-28853390D02*
X7088095Y-28901009D01*
X7088095Y-28901009D02*
X6992857Y-28948628D01*
X6992857Y-28948628D02*
X6611905Y-28948628D01*
X8088095Y-28424819D02*
X7611905Y-28424819D01*
X7611905Y-28424819D02*
X7564286Y-28901009D01*
X7564286Y-28901009D02*
X7611905Y-28853390D01*
X7611905Y-28853390D02*
X7707143Y-28805771D01*
X7707143Y-28805771D02*
X7945238Y-28805771D01*
X7945238Y-28805771D02*
X8040476Y-28853390D01*
X8040476Y-28853390D02*
X8088095Y-28901009D01*
X8088095Y-28901009D02*
X8135714Y-28996247D01*
X8135714Y-28996247D02*
X8135714Y-29234342D01*
X8135714Y-29234342D02*
X8088095Y-29329580D01*
X8088095Y-29329580D02*
X8040476Y-29377200D01*
X8040476Y-29377200D02*
X7945238Y-29424819D01*
X7945238Y-29424819D02*
X7707143Y-29424819D01*
X7707143Y-29424819D02*
X7611905Y-29377200D01*
X7611905Y-29377200D02*
X7564286Y-29329580D01*
X8333333Y-19264819D02*
X8000000Y-18788628D01*
X7761905Y-19264819D02*
X7761905Y-18264819D01*
X7761905Y-18264819D02*
X8142857Y-18264819D01*
X8142857Y-18264819D02*
X8238095Y-18312438D01*
X8238095Y-18312438D02*
X8285714Y-18360057D01*
X8285714Y-18360057D02*
X8333333Y-18455295D01*
X8333333Y-18455295D02*
X8333333Y-18598152D01*
X8333333Y-18598152D02*
X8285714Y-18693390D01*
X8285714Y-18693390D02*
X8238095Y-18741009D01*
X8238095Y-18741009D02*
X8142857Y-18788628D01*
X8142857Y-18788628D02*
X7761905Y-18788628D01*
X9190476Y-18264819D02*
X9000000Y-18264819D01*
X9000000Y-18264819D02*
X8904762Y-18312438D01*
X8904762Y-18312438D02*
X8857143Y-18360057D01*
X8857143Y-18360057D02*
X8761905Y-18502914D01*
X8761905Y-18502914D02*
X8714286Y-18693390D01*
X8714286Y-18693390D02*
X8714286Y-19074342D01*
X8714286Y-19074342D02*
X8761905Y-19169580D01*
X8761905Y-19169580D02*
X8809524Y-19217200D01*
X8809524Y-19217200D02*
X8904762Y-19264819D01*
X8904762Y-19264819D02*
X9095238Y-19264819D01*
X9095238Y-19264819D02*
X9190476Y-19217200D01*
X9190476Y-19217200D02*
X9238095Y-19169580D01*
X9238095Y-19169580D02*
X9285714Y-19074342D01*
X9285714Y-19074342D02*
X9285714Y-18836247D01*
X9285714Y-18836247D02*
X9238095Y-18741009D01*
X9238095Y-18741009D02*
X9190476Y-18693390D01*
X9190476Y-18693390D02*
X9095238Y-18645771D01*
X9095238Y-18645771D02*
X8904762Y-18645771D01*
X8904762Y-18645771D02*
X8809524Y-18693390D01*
X8809524Y-18693390D02*
X8761905Y-18741009D01*
X8761905Y-18741009D02*
X8714286Y-18836247D01*
X8333333Y-24344819D02*
X8000000Y-23868628D01*
X7761905Y-24344819D02*
X7761905Y-23344819D01*
X7761905Y-23344819D02*
X8142857Y-23344819D01*
X8142857Y-23344819D02*
X8238095Y-23392438D01*
X8238095Y-23392438D02*
X8285714Y-23440057D01*
X8285714Y-23440057D02*
X8333333Y-23535295D01*
X8333333Y-23535295D02*
X8333333Y-23678152D01*
X8333333Y-23678152D02*
X8285714Y-23773390D01*
X8285714Y-23773390D02*
X8238095Y-23821009D01*
X8238095Y-23821009D02*
X8142857Y-23868628D01*
X8142857Y-23868628D02*
X7761905Y-23868628D01*
X8666667Y-23344819D02*
X9285714Y-23344819D01*
X9285714Y-23344819D02*
X8952381Y-23725771D01*
X8952381Y-23725771D02*
X9095238Y-23725771D01*
X9095238Y-23725771D02*
X9190476Y-23773390D01*
X9190476Y-23773390D02*
X9238095Y-23821009D01*
X9238095Y-23821009D02*
X9285714Y-23916247D01*
X9285714Y-23916247D02*
X9285714Y-24154342D01*
X9285714Y-24154342D02*
X9238095Y-24249580D01*
X9238095Y-24249580D02*
X9190476Y-24297200D01*
X9190476Y-24297200D02*
X9095238Y-24344819D01*
X9095238Y-24344819D02*
X8809524Y-24344819D01*
X8809524Y-24344819D02*
X8714286Y-24297200D01*
X8714286Y-24297200D02*
X8666667Y-24249580D01*
X51709580Y-8166666D02*
X51757200Y-8214285D01*
X51757200Y-8214285D02*
X51804819Y-8357142D01*
X51804819Y-8357142D02*
X51804819Y-8452380D01*
X51804819Y-8452380D02*
X51757200Y-8595237D01*
X51757200Y-8595237D02*
X51661961Y-8690475D01*
X51661961Y-8690475D02*
X51566723Y-8738094D01*
X51566723Y-8738094D02*
X51376247Y-8785713D01*
X51376247Y-8785713D02*
X51233390Y-8785713D01*
X51233390Y-8785713D02*
X51042914Y-8738094D01*
X51042914Y-8738094D02*
X50947676Y-8690475D01*
X50947676Y-8690475D02*
X50852438Y-8595237D01*
X50852438Y-8595237D02*
X50804819Y-8452380D01*
X50804819Y-8452380D02*
X50804819Y-8357142D01*
X50804819Y-8357142D02*
X50852438Y-8214285D01*
X50852438Y-8214285D02*
X50900057Y-8166666D01*
X51804819Y-7214285D02*
X51804819Y-7785713D01*
X51804819Y-7499999D02*
X50804819Y-7499999D01*
X50804819Y-7499999D02*
X50947676Y-7595237D01*
X50947676Y-7595237D02*
X51042914Y-7690475D01*
X51042914Y-7690475D02*
X51090533Y-7785713D01*
X36833333Y-29429580D02*
X36785714Y-29477200D01*
X36785714Y-29477200D02*
X36642857Y-29524819D01*
X36642857Y-29524819D02*
X36547619Y-29524819D01*
X36547619Y-29524819D02*
X36404762Y-29477200D01*
X36404762Y-29477200D02*
X36309524Y-29381961D01*
X36309524Y-29381961D02*
X36261905Y-29286723D01*
X36261905Y-29286723D02*
X36214286Y-29096247D01*
X36214286Y-29096247D02*
X36214286Y-28953390D01*
X36214286Y-28953390D02*
X36261905Y-28762914D01*
X36261905Y-28762914D02*
X36309524Y-28667676D01*
X36309524Y-28667676D02*
X36404762Y-28572438D01*
X36404762Y-28572438D02*
X36547619Y-28524819D01*
X36547619Y-28524819D02*
X36642857Y-28524819D01*
X36642857Y-28524819D02*
X36785714Y-28572438D01*
X36785714Y-28572438D02*
X36833333Y-28620057D01*
X37738095Y-28524819D02*
X37261905Y-28524819D01*
X37261905Y-28524819D02*
X37214286Y-29001009D01*
X37214286Y-29001009D02*
X37261905Y-28953390D01*
X37261905Y-28953390D02*
X37357143Y-28905771D01*
X37357143Y-28905771D02*
X37595238Y-28905771D01*
X37595238Y-28905771D02*
X37690476Y-28953390D01*
X37690476Y-28953390D02*
X37738095Y-29001009D01*
X37738095Y-29001009D02*
X37785714Y-29096247D01*
X37785714Y-29096247D02*
X37785714Y-29334342D01*
X37785714Y-29334342D02*
X37738095Y-29429580D01*
X37738095Y-29429580D02*
X37690476Y-29477200D01*
X37690476Y-29477200D02*
X37595238Y-29524819D01*
X37595238Y-29524819D02*
X37357143Y-29524819D01*
X37357143Y-29524819D02*
X37261905Y-29477200D01*
X37261905Y-29477200D02*
X37214286Y-29429580D01*
X22733333Y-19274819D02*
X22400000Y-18798628D01*
X22161905Y-19274819D02*
X22161905Y-18274819D01*
X22161905Y-18274819D02*
X22542857Y-18274819D01*
X22542857Y-18274819D02*
X22638095Y-18322438D01*
X22638095Y-18322438D02*
X22685714Y-18370057D01*
X22685714Y-18370057D02*
X22733333Y-18465295D01*
X22733333Y-18465295D02*
X22733333Y-18608152D01*
X22733333Y-18608152D02*
X22685714Y-18703390D01*
X22685714Y-18703390D02*
X22638095Y-18751009D01*
X22638095Y-18751009D02*
X22542857Y-18798628D01*
X22542857Y-18798628D02*
X22161905Y-18798628D01*
X23685714Y-19274819D02*
X23114286Y-19274819D01*
X23400000Y-19274819D02*
X23400000Y-18274819D01*
X23400000Y-18274819D02*
X23304762Y-18417676D01*
X23304762Y-18417676D02*
X23209524Y-18512914D01*
X23209524Y-18512914D02*
X23114286Y-18560533D01*
D11*
%TO.C,C2*%
X38738748Y-12265000D02*
X39261252Y-12265000D01*
X38738748Y-13735000D02*
X39261252Y-13735000D01*
%TO.C,J3*%
X59310000Y-9460000D02*
X51690000Y-9460000D01*
X59310000Y-9460000D02*
X59310000Y-29780000D01*
X51690000Y-9460000D02*
X51690000Y-29780000D01*
X52960000Y-29780000D02*
X52960000Y-9460000D01*
X51690000Y-29780000D02*
X59310000Y-29780000D01*
%TO.C,C8*%
X19759420Y-20740000D02*
X20040580Y-20740000D01*
X19759420Y-21760000D02*
X20040580Y-21760000D01*
%TO.C,R11*%
X28142500Y-34562742D02*
X28142500Y-35037258D01*
X27097500Y-34562742D02*
X27097500Y-35037258D01*
%TO.C,D2*%
X37500000Y-5140000D02*
X35500000Y-5140000D01*
X37500000Y-5140000D02*
X37500000Y-9150000D01*
X35500000Y-5140000D02*
X35500000Y-9150000D01*
%TO.C,C4*%
X33859420Y-12490000D02*
X34140580Y-12490000D01*
X33859420Y-13510000D02*
X34140580Y-13510000D01*
%TO.C,SJ1*%
X24700000Y-30600000D02*
X28800000Y-30600000D01*
X24700000Y-32600000D02*
X24700000Y-30600000D01*
X25150000Y-33100000D02*
X25750000Y-33100000D01*
X25450000Y-32800000D02*
X25150000Y-33100000D01*
X25450000Y-32800000D02*
X25750000Y-33100000D01*
X28800000Y-30600000D02*
X28800000Y-32600000D01*
X28800000Y-32600000D02*
X24700000Y-32600000D01*
%TO.C,U1*%
X25390000Y-19865000D02*
X25390000Y-19630000D01*
X25390000Y-24610000D02*
X25390000Y-24135000D01*
X25865000Y-19390000D02*
X25690000Y-19390000D01*
X25865000Y-24610000D02*
X25390000Y-24610000D01*
X30135000Y-19390000D02*
X30610000Y-19390000D01*
X30135000Y-24610000D02*
X30610000Y-24610000D01*
X30610000Y-19390000D02*
X30610000Y-19865000D01*
X30610000Y-24610000D02*
X30610000Y-24135000D01*
X25390000Y-19390000D02*
X25150000Y-19060000D01*
X25630000Y-19060000D01*
X25390000Y-19390000D01*
G36*
X25390000Y-19390000D02*
G01*
X25150000Y-19060000D01*
X25630000Y-19060000D01*
X25390000Y-19390000D01*
G37*
%TO.C,R2*%
X7122500Y-14962742D02*
X7122500Y-15437258D01*
X6077500Y-14962742D02*
X6077500Y-15437258D01*
%TO.C,R9*%
X23062500Y-34562742D02*
X23062500Y-35037258D01*
X22017500Y-34562742D02*
X22017500Y-35037258D01*
%TO.C,R4*%
X7112742Y-27337500D02*
X7587258Y-27337500D01*
X7112742Y-28382500D02*
X7587258Y-28382500D01*
%TO.C,C9*%
X21510000Y-23859420D02*
X21510000Y-24140580D01*
X20490000Y-23859420D02*
X20490000Y-24140580D01*
%TO.C,C6*%
X29159420Y-26890000D02*
X29440580Y-26890000D01*
X29159420Y-27910000D02*
X29440580Y-27910000D01*
%TO.C,R7*%
X8262742Y-22257500D02*
X8737258Y-22257500D01*
X8262742Y-23302500D02*
X8737258Y-23302500D01*
%TO.C,D1*%
X43150000Y-2840000D02*
X38850000Y-2840000D01*
X43150000Y-2840000D02*
X43150000Y-8650000D01*
X38850000Y-2840000D02*
X38850000Y-8650000D01*
%TO.C,J4*%
X18670000Y-39830000D02*
X18670000Y-38500000D01*
X20000000Y-39830000D02*
X18670000Y-39830000D01*
X21270000Y-39830000D02*
X31490000Y-39830000D01*
X21270000Y-39830000D02*
X21270000Y-37170000D01*
X31490000Y-39830000D02*
X31490000Y-37170000D01*
X21270000Y-37170000D02*
X31490000Y-37170000D01*
%TO.C,Q1*%
X32500000Y-6060000D02*
X33150000Y-6060000D01*
X32500000Y-6060000D02*
X31850000Y-6060000D01*
X32500000Y-2940000D02*
X33150000Y-2940000D01*
X32500000Y-2940000D02*
X31850000Y-2940000D01*
X33902500Y-6340000D02*
X33422500Y-6340000D01*
X33662500Y-6010000D01*
X33902500Y-6340000D01*
G36*
X33902500Y-6340000D02*
G01*
X33422500Y-6340000D01*
X33662500Y-6010000D01*
X33902500Y-6340000D01*
G37*
%TO.C,R10*%
X25602500Y-34562742D02*
X25602500Y-35037258D01*
X24557500Y-34562742D02*
X24557500Y-35037258D01*
%TO.C,C3*%
X32238748Y-29765000D02*
X32761252Y-29765000D01*
X32238748Y-31235000D02*
X32761252Y-31235000D01*
%TO.C,J2*%
X9460000Y-690000D02*
X9460000Y-8310000D01*
X9460000Y-8310000D02*
X19620000Y-8310000D01*
X19620000Y-690000D02*
X9460000Y-690000D01*
X19620000Y-7040000D02*
X9460000Y-7040000D01*
X19620000Y-8310000D02*
X19620000Y-690000D01*
%TO.C,F1*%
X22396248Y-1830000D02*
X26803752Y-1830000D01*
X22396248Y-7170000D02*
X26803752Y-7170000D01*
%TO.C,R8*%
X34122500Y-9962742D02*
X34122500Y-10437258D01*
X33077500Y-9962742D02*
X33077500Y-10437258D01*
%TO.C,C7*%
X32835000Y-27238748D02*
X32835000Y-27761252D01*
X31365000Y-27238748D02*
X31365000Y-27761252D01*
%TO.C,J1*%
X2670000Y-3670000D02*
X4000000Y-3670000D01*
X2670000Y-5000000D02*
X2670000Y-3670000D01*
X2670000Y-6270000D02*
X2670000Y-34270000D01*
X2670000Y-6270000D02*
X5330000Y-6270000D01*
X2670000Y-34270000D02*
X5330000Y-34270000D01*
X5330000Y-6270000D02*
X5330000Y-34270000D01*
%TO.C,R5*%
X7112742Y-29877500D02*
X7587258Y-29877500D01*
X7112742Y-30922500D02*
X7587258Y-30922500D01*
%TO.C,R6*%
X8262742Y-19717500D02*
X8737258Y-19717500D01*
X8262742Y-20762500D02*
X8737258Y-20762500D01*
%TO.C,R3*%
X8262742Y-24797500D02*
X8737258Y-24797500D01*
X8262742Y-25842500D02*
X8737258Y-25842500D01*
%TO.C,C1*%
X48847500Y-3562500D02*
X48847500Y-4350000D01*
X49241250Y-3956250D02*
X48453750Y-3956250D01*
X49345563Y-4590000D02*
X48060000Y-4590000D01*
X49345563Y-4590000D02*
X50410000Y-5654437D01*
X44654437Y-4590000D02*
X45940000Y-4590000D01*
X44654437Y-4590000D02*
X43590000Y-5654437D01*
X50410000Y-5654437D02*
X50410000Y-11410000D01*
X43590000Y-5654437D02*
X43590000Y-11410000D01*
X50410000Y-11410000D02*
X48060000Y-11410000D01*
X43590000Y-11410000D02*
X45940000Y-11410000D01*
%TO.C,C5*%
X36859420Y-29990000D02*
X37140580Y-29990000D01*
X36859420Y-31010000D02*
X37140580Y-31010000D01*
%TO.C,R1*%
X22662742Y-19727500D02*
X23137258Y-19727500D01*
X22662742Y-20772500D02*
X23137258Y-20772500D01*
%TD*%
M02*
