%TF.GenerationSoftware,KiCad,Pcbnew,7.0.11+dfsg-1build4*%
%TF.CreationDate,2026-07-02T06:00:03+00:00*%
%TF.ProjectId,tmc5240-daughterboard,746d6335-3234-4302-9d64-617567687465,rev?*%
%TF.SameCoordinates,Original*%
%TF.FileFunction,Other,User*%
%FSLAX46Y46*%
G04 Gerber Fmt 4.6, Leading zero omitted, Abs format (unit mm)*
G04 Created by KiCad (PCBNEW 7.0.11+dfsg-1build4) date 2026-07-02 06:00:03*
%MOMM*%
%LPD*%
G01*
G04 APERTURE LIST*
%ADD10C,0.050000*%
G04 APERTURE END LIST*
D10*
%TO.C,C2*%
X37300000Y-12020000D02*
X40700000Y-12020000D01*
X37300000Y-13980000D02*
X37300000Y-12020000D01*
X40700000Y-12020000D02*
X40700000Y-13980000D01*
X40700000Y-13980000D02*
X37300000Y-13980000D01*
%TO.C,J3*%
X59500000Y-9270000D02*
X51500000Y-9270000D01*
X59500000Y-9270000D02*
X59500000Y-29970000D01*
X51500000Y-29970000D02*
X51500000Y-9270000D01*
X51500000Y-29970000D02*
X59500000Y-29970000D01*
%TO.C,C8*%
X18420000Y-20520000D02*
X21380000Y-20520000D01*
X18420000Y-21980000D02*
X18420000Y-20520000D01*
X21380000Y-20520000D02*
X21380000Y-21980000D01*
X21380000Y-21980000D02*
X18420000Y-21980000D01*
%TO.C,R11*%
X28350000Y-33320000D02*
X28350000Y-36280000D01*
X26890000Y-33320000D02*
X28350000Y-33320000D01*
X28350000Y-36280000D02*
X26890000Y-36280000D01*
X26890000Y-36280000D02*
X26890000Y-33320000D01*
%TO.C,H1*%
X6150000Y-38800000D02*
G75*
G03*
X250000Y-38800000I-2950000J0D01*
G01*
X250000Y-38800000D02*
G75*
G03*
X6150000Y-38800000I2950000J0D01*
G01*
%TO.C,D2*%
X37650000Y-5150000D02*
X35350000Y-5150000D01*
X37650000Y-5150000D02*
X37650000Y-9850000D01*
X37650000Y-9850000D02*
X35350000Y-9850000D01*
X35350000Y-9850000D02*
X35350000Y-5150000D01*
%TO.C,H3*%
X59750000Y-3200000D02*
G75*
G03*
X53850000Y-3200000I-2950000J0D01*
G01*
X53850000Y-3200000D02*
G75*
G03*
X59750000Y-3200000I2950000J0D01*
G01*
%TO.C,C4*%
X32520000Y-12270000D02*
X35480000Y-12270000D01*
X32520000Y-13730000D02*
X32520000Y-12270000D01*
X35480000Y-12270000D02*
X35480000Y-13730000D01*
X35480000Y-13730000D02*
X32520000Y-13730000D01*
%TO.C,SJ1*%
X24450000Y-30350000D02*
X24450000Y-32850000D01*
X24450000Y-30350000D02*
X29050000Y-30350000D01*
X29050000Y-32850000D02*
X24450000Y-32850000D01*
X29050000Y-32850000D02*
X29050000Y-30350000D01*
%TO.C,U1*%
X24900000Y-18900000D02*
X24900000Y-25100000D01*
X24900000Y-25100000D02*
X31100000Y-25100000D01*
X31100000Y-18900000D02*
X24900000Y-18900000D01*
X31100000Y-25100000D02*
X31100000Y-18900000D01*
%TO.C,R2*%
X7330000Y-13720000D02*
X7330000Y-16680000D01*
X5870000Y-13720000D02*
X7330000Y-13720000D01*
X7330000Y-16680000D02*
X5870000Y-16680000D01*
X5870000Y-16680000D02*
X5870000Y-13720000D01*
%TO.C,R9*%
X23270000Y-33320000D02*
X23270000Y-36280000D01*
X21810000Y-33320000D02*
X23270000Y-33320000D01*
X23270000Y-36280000D02*
X21810000Y-36280000D01*
X21810000Y-36280000D02*
X21810000Y-33320000D01*
%TO.C,R4*%
X5870000Y-27130000D02*
X8830000Y-27130000D01*
X5870000Y-28590000D02*
X5870000Y-27130000D01*
X8830000Y-27130000D02*
X8830000Y-28590000D01*
X8830000Y-28590000D02*
X5870000Y-28590000D01*
%TO.C,C9*%
X21730000Y-22520000D02*
X21730000Y-25480000D01*
X20270000Y-22520000D02*
X21730000Y-22520000D01*
X21730000Y-25480000D02*
X20270000Y-25480000D01*
X20270000Y-25480000D02*
X20270000Y-22520000D01*
%TO.C,C6*%
X27820000Y-26670000D02*
X30780000Y-26670000D01*
X27820000Y-28130000D02*
X27820000Y-26670000D01*
X30780000Y-26670000D02*
X30780000Y-28130000D01*
X30780000Y-28130000D02*
X27820000Y-28130000D01*
%TO.C,H2*%
X59750000Y-38800000D02*
G75*
G03*
X53850000Y-38800000I-2950000J0D01*
G01*
X53850000Y-38800000D02*
G75*
G03*
X59750000Y-38800000I2950000J0D01*
G01*
%TO.C,R7*%
X7020000Y-22050000D02*
X9980000Y-22050000D01*
X7020000Y-23510000D02*
X7020000Y-22050000D01*
X9980000Y-22050000D02*
X9980000Y-23510000D01*
X9980000Y-23510000D02*
X7020000Y-23510000D01*
%TO.C,D1*%
X43250000Y-2850000D02*
X43250000Y-10150000D01*
X38750000Y-2850000D02*
X43250000Y-2850000D01*
X43250000Y-10150000D02*
X38750000Y-10150000D01*
X38750000Y-10150000D02*
X38750000Y-2850000D01*
%TO.C,J4*%
X18200000Y-40300000D02*
X31950000Y-40300000D01*
X31950000Y-40300000D02*
X31950000Y-36700000D01*
X18200000Y-36700000D02*
X18200000Y-40300000D01*
X31950000Y-36700000D02*
X18200000Y-36700000D01*
%TO.C,Q1*%
X34420000Y-6200000D02*
X34420000Y-2800000D01*
X34420000Y-2800000D02*
X30580000Y-2800000D01*
X30580000Y-6200000D02*
X34420000Y-6200000D01*
X30580000Y-2800000D02*
X30580000Y-6200000D01*
%TO.C,R10*%
X25810000Y-33320000D02*
X25810000Y-36280000D01*
X24350000Y-33320000D02*
X25810000Y-33320000D01*
X25810000Y-36280000D02*
X24350000Y-36280000D01*
X24350000Y-36280000D02*
X24350000Y-33320000D01*
%TO.C,C3*%
X30800000Y-29520000D02*
X34200000Y-29520000D01*
X30800000Y-31480000D02*
X30800000Y-29520000D01*
X34200000Y-29520000D02*
X34200000Y-31480000D01*
X34200000Y-31480000D02*
X30800000Y-31480000D01*
%TO.C,J2*%
X9290000Y-500000D02*
X9290000Y-8500000D01*
X9290000Y-500000D02*
X19790000Y-500000D01*
X19790000Y-8500000D02*
X9290000Y-8500000D01*
X19790000Y-8500000D02*
X19790000Y-500000D01*
%TO.C,F1*%
X20000000Y-1520000D02*
X29200000Y-1520000D01*
X20000000Y-7480000D02*
X20000000Y-1520000D01*
X29200000Y-1520000D02*
X29200000Y-7480000D01*
X29200000Y-7480000D02*
X20000000Y-7480000D01*
%TO.C,R8*%
X34330000Y-8720000D02*
X34330000Y-11680000D01*
X32870000Y-8720000D02*
X34330000Y-8720000D01*
X34330000Y-11680000D02*
X32870000Y-11680000D01*
X32870000Y-11680000D02*
X32870000Y-8720000D01*
%TO.C,C7*%
X33080000Y-25800000D02*
X33080000Y-29200000D01*
X31120000Y-25800000D02*
X33080000Y-25800000D01*
X33080000Y-29200000D02*
X31120000Y-29200000D01*
X31120000Y-29200000D02*
X31120000Y-25800000D01*
%TO.C,J1*%
X2200000Y-3200000D02*
X2200000Y-34750000D01*
X2200000Y-34750000D02*
X5800000Y-34750000D01*
X5800000Y-3200000D02*
X2200000Y-3200000D01*
X5800000Y-34750000D02*
X5800000Y-3200000D01*
%TO.C,R5*%
X5870000Y-29670000D02*
X8830000Y-29670000D01*
X5870000Y-31130000D02*
X5870000Y-29670000D01*
X8830000Y-29670000D02*
X8830000Y-31130000D01*
X8830000Y-31130000D02*
X5870000Y-31130000D01*
%TO.C,R6*%
X7020000Y-19510000D02*
X9980000Y-19510000D01*
X7020000Y-20970000D02*
X7020000Y-19510000D01*
X9980000Y-19510000D02*
X9980000Y-20970000D01*
X9980000Y-20970000D02*
X7020000Y-20970000D01*
%TO.C,R3*%
X7020000Y-24590000D02*
X9980000Y-24590000D01*
X7020000Y-26050000D02*
X7020000Y-24590000D01*
X9980000Y-24590000D02*
X9980000Y-26050000D01*
X9980000Y-26050000D02*
X7020000Y-26050000D01*
%TO.C,C1*%
X48050000Y-3300000D02*
X45950000Y-3300000D01*
X45950000Y-3300000D02*
X45950000Y-4450000D01*
X49400000Y-4450000D02*
X48050000Y-4450000D01*
X49400000Y-4450000D02*
X50550000Y-5600000D01*
X48050000Y-4450000D02*
X48050000Y-3300000D01*
X45950000Y-4450000D02*
X44600000Y-4450000D01*
X44600000Y-4450000D02*
X43450000Y-5600000D01*
X50550000Y-5600000D02*
X50550000Y-11550000D01*
X43450000Y-5600000D02*
X43450000Y-11550000D01*
X50550000Y-11550000D02*
X48050000Y-11550000D01*
X48050000Y-11550000D02*
X48050000Y-12700000D01*
X45950000Y-11550000D02*
X43450000Y-11550000D01*
X48050000Y-12700000D02*
X45950000Y-12700000D01*
X45950000Y-12700000D02*
X45950000Y-11550000D01*
%TO.C,C5*%
X35520000Y-29770000D02*
X38480000Y-29770000D01*
X35520000Y-31230000D02*
X35520000Y-29770000D01*
X38480000Y-29770000D02*
X38480000Y-31230000D01*
X38480000Y-31230000D02*
X35520000Y-31230000D01*
%TO.C,R1*%
X21420000Y-19520000D02*
X24380000Y-19520000D01*
X21420000Y-20980000D02*
X21420000Y-19520000D01*
X24380000Y-19520000D02*
X24380000Y-20980000D01*
X24380000Y-20980000D02*
X21420000Y-20980000D01*
%TD*%
M02*
