%TF.GenerationSoftware,KiCad,Pcbnew,7.0.11+dfsg-1build4*%
%TF.CreationDate,2026-07-02T06:00:03+00:00*%
%TF.ProjectId,tmc5240-daughterboard,746d6335-3234-4302-9d64-617567687465,rev?*%
%TF.SameCoordinates,Original*%
%TF.FileFunction,Paste,Top*%
%TF.FilePolarity,Positive*%
%FSLAX46Y46*%
G04 Gerber Fmt 4.6, Leading zero omitted, Abs format (unit mm)*
G04 Created by KiCad (PCBNEW 7.0.11+dfsg-1build4) date 2026-07-02 06:00:03*
%MOMM*%
%LPD*%
G01*
G04 APERTURE LIST*
G04 Aperture macros list*
%AMRoundRect*
0 Rectangle with rounded corners*
0 $1 Rounding radius*
0 $2 $3 $4 $5 $6 $7 $8 $9 X,Y pos of 4 corners*
0 Add a 4 corners polygon primitive as box body*
4,1,4,$2,$3,$4,$5,$6,$7,$8,$9,$2,$3,0*
0 Add four circle primitives for the rounded corners*
1,1,$1+$1,$2,$3*
1,1,$1+$1,$4,$5*
1,1,$1+$1,$6,$7*
1,1,$1+$1,$8,$9*
0 Add four rect primitives between the rounded corners*
20,1,$1+$1,$2,$3,$4,$5,0*
20,1,$1+$1,$4,$5,$6,$7,0*
20,1,$1+$1,$6,$7,$8,$9,0*
20,1,$1+$1,$8,$9,$2,$3,0*%
%AMFreePoly0*
4,1,14,0.340806,0.106694,0.394194,0.053306,0.412500,0.009112,0.412500,-0.062500,0.394194,-0.106694,0.350000,-0.125000,-0.350000,-0.125000,-0.394194,-0.106694,-0.412500,-0.062500,-0.412500,0.062500,-0.394194,0.106694,-0.350000,0.125000,0.296612,0.125000,0.340806,0.106694,0.340806,0.106694,$1*%
%AMFreePoly1*
4,1,14,0.394194,0.106694,0.412500,0.062500,0.412500,-0.009112,0.394194,-0.053306,0.340806,-0.106694,0.296612,-0.125000,-0.350000,-0.125000,-0.394194,-0.106694,-0.412500,-0.062500,-0.412500,0.062500,-0.394194,0.106694,-0.350000,0.125000,0.350000,0.125000,0.394194,0.106694,0.394194,0.106694,$1*%
%AMFreePoly2*
4,1,14,0.106694,0.394194,0.125000,0.350000,0.125000,-0.350000,0.106694,-0.394194,0.062500,-0.412500,-0.062500,-0.412500,-0.106694,-0.394194,-0.125000,-0.350000,-0.125000,0.296612,-0.106694,0.340806,-0.053306,0.394194,-0.009112,0.412500,0.062500,0.412500,0.106694,0.394194,0.106694,0.394194,$1*%
%AMFreePoly3*
4,1,14,0.053306,0.394194,0.106694,0.340806,0.125000,0.296612,0.125000,-0.350000,0.106694,-0.394194,0.062500,-0.412500,-0.062500,-0.412500,-0.106694,-0.394194,-0.125000,-0.350000,-0.125000,0.350000,-0.106694,0.394194,-0.062500,0.412500,0.009112,0.412500,0.053306,0.394194,0.053306,0.394194,$1*%
%AMFreePoly4*
4,1,14,0.394194,0.106694,0.412500,0.062500,0.412500,-0.062500,0.394194,-0.106694,0.350000,-0.125000,-0.296612,-0.125000,-0.340806,-0.106694,-0.394194,-0.053306,-0.412500,-0.009112,-0.412500,0.062500,-0.394194,0.106694,-0.350000,0.125000,0.350000,0.125000,0.394194,0.106694,0.394194,0.106694,$1*%
%AMFreePoly5*
4,1,14,0.394194,0.106694,0.412500,0.062500,0.412500,-0.062500,0.394194,-0.106694,0.350000,-0.125000,-0.350000,-0.125000,-0.394194,-0.106694,-0.412500,-0.062500,-0.412500,0.009112,-0.394194,0.053306,-0.340806,0.106694,-0.296612,0.125000,0.350000,0.125000,0.394194,0.106694,0.394194,0.106694,$1*%
%AMFreePoly6*
4,1,14,0.106694,0.394194,0.125000,0.350000,0.125000,-0.296612,0.106694,-0.340806,0.053306,-0.394194,0.009112,-0.412500,-0.062500,-0.412500,-0.106694,-0.394194,-0.125000,-0.350000,-0.125000,0.350000,-0.106694,0.394194,-0.062500,0.412500,0.062500,0.412500,0.106694,0.394194,0.106694,0.394194,$1*%
%AMFreePoly7*
4,1,14,0.106694,0.394194,0.125000,0.350000,0.125000,-0.350000,0.106694,-0.394194,0.062500,-0.412500,-0.009112,-0.412500,-0.053306,-0.394194,-0.106694,-0.340806,-0.125000,-0.296612,-0.125000,0.350000,-0.106694,0.394194,-0.062500,0.412500,0.062500,0.412500,0.106694,0.394194,0.106694,0.394194,$1*%
G04 Aperture macros list end*
%ADD10RoundRect,0.250000X-0.250000X-0.475000X0.250000X-0.475000X0.250000X0.475000X-0.250000X0.475000X0*%
%ADD11RoundRect,0.225000X-0.225000X-0.250000X0.225000X-0.250000X0.225000X0.250000X-0.225000X0.250000X0*%
%ADD12RoundRect,0.200000X-0.275000X0.200000X-0.275000X-0.200000X0.275000X-0.200000X0.275000X0.200000X0*%
%ADD13RoundRect,0.225000X-0.375000X0.225000X-0.375000X-0.225000X0.375000X-0.225000X0.375000X0.225000X0*%
%ADD14RoundRect,0.250000X-0.485000X-0.485000X0.485000X-0.485000X0.485000X0.485000X-0.485000X0.485000X0*%
%ADD15FreePoly0,0.000000*%
%ADD16RoundRect,0.062500X-0.350000X-0.062500X0.350000X-0.062500X0.350000X0.062500X-0.350000X0.062500X0*%
%ADD17FreePoly1,0.000000*%
%ADD18FreePoly2,0.000000*%
%ADD19RoundRect,0.062500X-0.062500X-0.350000X0.062500X-0.350000X0.062500X0.350000X-0.062500X0.350000X0*%
%ADD20FreePoly3,0.000000*%
%ADD21FreePoly4,0.000000*%
%ADD22FreePoly5,0.000000*%
%ADD23FreePoly6,0.000000*%
%ADD24FreePoly7,0.000000*%
%ADD25RoundRect,0.200000X-0.200000X-0.275000X0.200000X-0.275000X0.200000X0.275000X-0.200000X0.275000X0*%
%ADD26RoundRect,0.225000X-0.250000X0.225000X-0.250000X-0.225000X0.250000X-0.225000X0.250000X0.225000X0*%
%ADD27RoundRect,0.250000X-0.900000X1.000000X-0.900000X-1.000000X0.900000X-1.000000X0.900000X1.000000X0*%
%ADD28RoundRect,0.150000X0.587500X0.150000X-0.587500X0.150000X-0.587500X-0.150000X0.587500X-0.150000X0*%
%ADD29RoundRect,0.250000X-0.712500X-2.475000X0.712500X-2.475000X0.712500X2.475000X-0.712500X2.475000X0*%
%ADD30RoundRect,0.250000X-0.475000X0.250000X-0.475000X-0.250000X0.475000X-0.250000X0.475000X0.250000X0*%
%ADD31RoundRect,0.250000X-0.550000X1.500000X-0.550000X-1.500000X0.550000X-1.500000X0.550000X1.500000X0*%
G04 APERTURE END LIST*
D10*
%TO.C,C2*%
X38050000Y-13000000D03*
X39950000Y-13000000D03*
%TD*%
D11*
%TO.C,C8*%
X19125000Y-21250000D03*
X20675000Y-21250000D03*
%TD*%
D12*
%TO.C,R11*%
X27620000Y-33975000D03*
X27620000Y-35625000D03*
%TD*%
D13*
%TO.C,D2*%
X36500000Y-5850000D03*
X36500000Y-9150000D03*
%TD*%
D11*
%TO.C,C4*%
X33225000Y-13000000D03*
X34775000Y-13000000D03*
%TD*%
D14*
%TO.C,U1*%
X27150000Y-21150000D03*
X27150000Y-22850000D03*
X28850000Y-21150000D03*
X28850000Y-22850000D03*
D15*
X25562500Y-20250000D03*
D16*
X25562500Y-20750000D03*
X25562500Y-21250000D03*
X25562500Y-21750000D03*
X25562500Y-22250000D03*
X25562500Y-22750000D03*
X25562500Y-23250000D03*
D17*
X25562500Y-23750000D03*
D18*
X26250000Y-24437500D03*
D19*
X26750000Y-24437500D03*
X27250000Y-24437500D03*
X27750000Y-24437500D03*
X28250000Y-24437500D03*
X28750000Y-24437500D03*
X29250000Y-24437500D03*
D20*
X29750000Y-24437500D03*
D21*
X30437500Y-23750000D03*
D16*
X30437500Y-23250000D03*
X30437500Y-22750000D03*
X30437500Y-22250000D03*
X30437500Y-21750000D03*
X30437500Y-21250000D03*
X30437500Y-20750000D03*
D22*
X30437500Y-20250000D03*
D23*
X29750000Y-19562500D03*
D19*
X29250000Y-19562500D03*
X28750000Y-19562500D03*
X28250000Y-19562500D03*
X27750000Y-19562500D03*
X27250000Y-19562500D03*
X26750000Y-19562500D03*
D24*
X26250000Y-19562500D03*
%TD*%
D12*
%TO.C,R2*%
X6600000Y-14375000D03*
X6600000Y-16025000D03*
%TD*%
%TO.C,R9*%
X22540000Y-33975000D03*
X22540000Y-35625000D03*
%TD*%
D25*
%TO.C,R4*%
X6525000Y-27860000D03*
X8175000Y-27860000D03*
%TD*%
D26*
%TO.C,C9*%
X21000000Y-23225000D03*
X21000000Y-24775000D03*
%TD*%
D11*
%TO.C,C6*%
X28525000Y-27400000D03*
X30075000Y-27400000D03*
%TD*%
D25*
%TO.C,R7*%
X7675000Y-22780000D03*
X9325000Y-22780000D03*
%TD*%
D27*
%TO.C,D1*%
X41000000Y-4350000D03*
X41000000Y-8650000D03*
%TD*%
D28*
%TO.C,Q1*%
X33437500Y-5450000D03*
X33437500Y-3550000D03*
X31562500Y-4500000D03*
%TD*%
D12*
%TO.C,R10*%
X25080000Y-33975000D03*
X25080000Y-35625000D03*
%TD*%
D10*
%TO.C,C3*%
X31550000Y-30500000D03*
X33450000Y-30500000D03*
%TD*%
D29*
%TO.C,F1*%
X21212500Y-4500000D03*
X27987500Y-4500000D03*
%TD*%
D12*
%TO.C,R8*%
X33600000Y-9375000D03*
X33600000Y-11025000D03*
%TD*%
D30*
%TO.C,C7*%
X32100000Y-26550000D03*
X32100000Y-28450000D03*
%TD*%
D25*
%TO.C,R5*%
X6525000Y-30400000D03*
X8175000Y-30400000D03*
%TD*%
%TO.C,R6*%
X7675000Y-20240000D03*
X9325000Y-20240000D03*
%TD*%
%TO.C,R3*%
X7675000Y-25320000D03*
X9325000Y-25320000D03*
%TD*%
D31*
%TO.C,C1*%
X47000000Y-5300000D03*
X47000000Y-10700000D03*
%TD*%
D11*
%TO.C,C5*%
X36225000Y-30500000D03*
X37775000Y-30500000D03*
%TD*%
D25*
%TO.C,R1*%
X22075000Y-20250000D03*
X23725000Y-20250000D03*
%TD*%
M02*
