%TF.GenerationSoftware,KiCad,Pcbnew,7.0.11+dfsg-1build4*%
%TF.CreationDate,2026-07-02T06:00:03+00:00*%
%TF.ProjectId,tmc5240-daughterboard,746d6335-3234-4302-9d64-617567687465,rev?*%
%TF.SameCoordinates,Original*%
%TF.FileFunction,AssemblyDrawing,Top*%
%FSLAX46Y46*%
G04 Gerber Fmt 4.6, Leading zero omitted, Abs format (unit mm)*
G04 Created by KiCad (PCBNEW 7.0.11+dfsg-1build4) date 2026-07-02 06:00:03*
%MOMM*%
%LPD*%
G01*
G04 APERTURE LIST*
%ADD10C,0.150000*%
%ADD11C,0.080000*%
%ADD12C,0.060000*%
%ADD13C,0.050000*%
%ADD14C,0.100000*%
G04 APERTURE END LIST*
D10*
X36499999Y-15134819D02*
X35928571Y-15134819D01*
X36214285Y-15134819D02*
X36214285Y-14134819D01*
X36214285Y-14134819D02*
X36119047Y-14277676D01*
X36119047Y-14277676D02*
X36023809Y-14372914D01*
X36023809Y-14372914D02*
X35928571Y-14420533D01*
X37357142Y-14468152D02*
X37357142Y-15134819D01*
X36928571Y-14468152D02*
X36928571Y-14991961D01*
X36928571Y-14991961D02*
X36976190Y-15087200D01*
X36976190Y-15087200D02*
X37071428Y-15134819D01*
X37071428Y-15134819D02*
X37214285Y-15134819D01*
X37214285Y-15134819D02*
X37309523Y-15087200D01*
X37309523Y-15087200D02*
X37357142Y-15039580D01*
X38166666Y-14611009D02*
X37833333Y-14611009D01*
X37833333Y-15134819D02*
X37833333Y-14134819D01*
X37833333Y-14134819D02*
X38309523Y-14134819D01*
X39404761Y-14087200D02*
X38547619Y-15372914D01*
X40214285Y-14134819D02*
X39738095Y-14134819D01*
X39738095Y-14134819D02*
X39690476Y-14611009D01*
X39690476Y-14611009D02*
X39738095Y-14563390D01*
X39738095Y-14563390D02*
X39833333Y-14515771D01*
X39833333Y-14515771D02*
X40071428Y-14515771D01*
X40071428Y-14515771D02*
X40166666Y-14563390D01*
X40166666Y-14563390D02*
X40214285Y-14611009D01*
X40214285Y-14611009D02*
X40261904Y-14706247D01*
X40261904Y-14706247D02*
X40261904Y-14944342D01*
X40261904Y-14944342D02*
X40214285Y-15039580D01*
X40214285Y-15039580D02*
X40166666Y-15087200D01*
X40166666Y-15087200D02*
X40071428Y-15134819D01*
X40071428Y-15134819D02*
X39833333Y-15134819D01*
X39833333Y-15134819D02*
X39738095Y-15087200D01*
X39738095Y-15087200D02*
X39690476Y-15039580D01*
X40880952Y-14134819D02*
X40976190Y-14134819D01*
X40976190Y-14134819D02*
X41071428Y-14182438D01*
X41071428Y-14182438D02*
X41119047Y-14230057D01*
X41119047Y-14230057D02*
X41166666Y-14325295D01*
X41166666Y-14325295D02*
X41214285Y-14515771D01*
X41214285Y-14515771D02*
X41214285Y-14753866D01*
X41214285Y-14753866D02*
X41166666Y-14944342D01*
X41166666Y-14944342D02*
X41119047Y-15039580D01*
X41119047Y-15039580D02*
X41071428Y-15087200D01*
X41071428Y-15087200D02*
X40976190Y-15134819D01*
X40976190Y-15134819D02*
X40880952Y-15134819D01*
X40880952Y-15134819D02*
X40785714Y-15087200D01*
X40785714Y-15087200D02*
X40738095Y-15039580D01*
X40738095Y-15039580D02*
X40690476Y-14944342D01*
X40690476Y-14944342D02*
X40642857Y-14753866D01*
X40642857Y-14753866D02*
X40642857Y-14515771D01*
X40642857Y-14515771D02*
X40690476Y-14325295D01*
X40690476Y-14325295D02*
X40738095Y-14230057D01*
X40738095Y-14230057D02*
X40785714Y-14182438D01*
X40785714Y-14182438D02*
X40880952Y-14134819D01*
X41500000Y-14134819D02*
X41833333Y-15134819D01*
X41833333Y-15134819D02*
X42166666Y-14134819D01*
D11*
X38916666Y-13179530D02*
X38892857Y-13203340D01*
X38892857Y-13203340D02*
X38821428Y-13227149D01*
X38821428Y-13227149D02*
X38773809Y-13227149D01*
X38773809Y-13227149D02*
X38702381Y-13203340D01*
X38702381Y-13203340D02*
X38654762Y-13155720D01*
X38654762Y-13155720D02*
X38630952Y-13108101D01*
X38630952Y-13108101D02*
X38607143Y-13012863D01*
X38607143Y-13012863D02*
X38607143Y-12941435D01*
X38607143Y-12941435D02*
X38630952Y-12846197D01*
X38630952Y-12846197D02*
X38654762Y-12798578D01*
X38654762Y-12798578D02*
X38702381Y-12750959D01*
X38702381Y-12750959D02*
X38773809Y-12727149D01*
X38773809Y-12727149D02*
X38821428Y-12727149D01*
X38821428Y-12727149D02*
X38892857Y-12750959D01*
X38892857Y-12750959D02*
X38916666Y-12774768D01*
X39107143Y-12774768D02*
X39130952Y-12750959D01*
X39130952Y-12750959D02*
X39178571Y-12727149D01*
X39178571Y-12727149D02*
X39297619Y-12727149D01*
X39297619Y-12727149D02*
X39345238Y-12750959D01*
X39345238Y-12750959D02*
X39369047Y-12774768D01*
X39369047Y-12774768D02*
X39392857Y-12822387D01*
X39392857Y-12822387D02*
X39392857Y-12870006D01*
X39392857Y-12870006D02*
X39369047Y-12941435D01*
X39369047Y-12941435D02*
X39083333Y-13227149D01*
X39083333Y-13227149D02*
X39392857Y-13227149D01*
D10*
X51204819Y-21861904D02*
X50204819Y-21861904D01*
X50204819Y-21861904D02*
X50919104Y-21528571D01*
X50919104Y-21528571D02*
X50204819Y-21195238D01*
X50204819Y-21195238D02*
X51204819Y-21195238D01*
X50204819Y-20528571D02*
X50204819Y-20338095D01*
X50204819Y-20338095D02*
X50252438Y-20242857D01*
X50252438Y-20242857D02*
X50347676Y-20147619D01*
X50347676Y-20147619D02*
X50538152Y-20100000D01*
X50538152Y-20100000D02*
X50871485Y-20100000D01*
X50871485Y-20100000D02*
X51061961Y-20147619D01*
X51061961Y-20147619D02*
X51157200Y-20242857D01*
X51157200Y-20242857D02*
X51204819Y-20338095D01*
X51204819Y-20338095D02*
X51204819Y-20528571D01*
X51204819Y-20528571D02*
X51157200Y-20623809D01*
X51157200Y-20623809D02*
X51061961Y-20719047D01*
X51061961Y-20719047D02*
X50871485Y-20766666D01*
X50871485Y-20766666D02*
X50538152Y-20766666D01*
X50538152Y-20766666D02*
X50347676Y-20719047D01*
X50347676Y-20719047D02*
X50252438Y-20623809D01*
X50252438Y-20623809D02*
X50204819Y-20528571D01*
X50204819Y-19814285D02*
X50204819Y-19242857D01*
X51204819Y-19528571D02*
X50204819Y-19528571D01*
X50204819Y-18719047D02*
X50204819Y-18528571D01*
X50204819Y-18528571D02*
X50252438Y-18433333D01*
X50252438Y-18433333D02*
X50347676Y-18338095D01*
X50347676Y-18338095D02*
X50538152Y-18290476D01*
X50538152Y-18290476D02*
X50871485Y-18290476D01*
X50871485Y-18290476D02*
X51061961Y-18338095D01*
X51061961Y-18338095D02*
X51157200Y-18433333D01*
X51157200Y-18433333D02*
X51204819Y-18528571D01*
X51204819Y-18528571D02*
X51204819Y-18719047D01*
X51204819Y-18719047D02*
X51157200Y-18814285D01*
X51157200Y-18814285D02*
X51061961Y-18909523D01*
X51061961Y-18909523D02*
X50871485Y-18957142D01*
X50871485Y-18957142D02*
X50538152Y-18957142D01*
X50538152Y-18957142D02*
X50347676Y-18909523D01*
X50347676Y-18909523D02*
X50252438Y-18814285D01*
X50252438Y-18814285D02*
X50204819Y-18719047D01*
X51204819Y-17290476D02*
X50728628Y-17623809D01*
X51204819Y-17861904D02*
X50204819Y-17861904D01*
X50204819Y-17861904D02*
X50204819Y-17480952D01*
X50204819Y-17480952D02*
X50252438Y-17385714D01*
X50252438Y-17385714D02*
X50300057Y-17338095D01*
X50300057Y-17338095D02*
X50395295Y-17290476D01*
X50395295Y-17290476D02*
X50538152Y-17290476D01*
X50538152Y-17290476D02*
X50633390Y-17338095D01*
X50633390Y-17338095D02*
X50681009Y-17385714D01*
X50681009Y-17385714D02*
X50728628Y-17480952D01*
X50728628Y-17480952D02*
X50728628Y-17861904D01*
X54954819Y-19953333D02*
X55669104Y-19953333D01*
X55669104Y-19953333D02*
X55811961Y-20000952D01*
X55811961Y-20000952D02*
X55907200Y-20096190D01*
X55907200Y-20096190D02*
X55954819Y-20239047D01*
X55954819Y-20239047D02*
X55954819Y-20334285D01*
X54954819Y-19572380D02*
X54954819Y-18953333D01*
X54954819Y-18953333D02*
X55335771Y-19286666D01*
X55335771Y-19286666D02*
X55335771Y-19143809D01*
X55335771Y-19143809D02*
X55383390Y-19048571D01*
X55383390Y-19048571D02*
X55431009Y-19000952D01*
X55431009Y-19000952D02*
X55526247Y-18953333D01*
X55526247Y-18953333D02*
X55764342Y-18953333D01*
X55764342Y-18953333D02*
X55859580Y-19000952D01*
X55859580Y-19000952D02*
X55907200Y-19048571D01*
X55907200Y-19048571D02*
X55954819Y-19143809D01*
X55954819Y-19143809D02*
X55954819Y-19429523D01*
X55954819Y-19429523D02*
X55907200Y-19524761D01*
X55907200Y-19524761D02*
X55859580Y-19572380D01*
X18019048Y-22230057D02*
X18066667Y-22182438D01*
X18066667Y-22182438D02*
X18161905Y-22134819D01*
X18161905Y-22134819D02*
X18400000Y-22134819D01*
X18400000Y-22134819D02*
X18495238Y-22182438D01*
X18495238Y-22182438D02*
X18542857Y-22230057D01*
X18542857Y-22230057D02*
X18590476Y-22325295D01*
X18590476Y-22325295D02*
X18590476Y-22420533D01*
X18590476Y-22420533D02*
X18542857Y-22563390D01*
X18542857Y-22563390D02*
X17971429Y-23134819D01*
X17971429Y-23134819D02*
X18590476Y-23134819D01*
X19019048Y-23039580D02*
X19066667Y-23087200D01*
X19066667Y-23087200D02*
X19019048Y-23134819D01*
X19019048Y-23134819D02*
X18971429Y-23087200D01*
X18971429Y-23087200D02*
X19019048Y-23039580D01*
X19019048Y-23039580D02*
X19019048Y-23134819D01*
X19447619Y-22230057D02*
X19495238Y-22182438D01*
X19495238Y-22182438D02*
X19590476Y-22134819D01*
X19590476Y-22134819D02*
X19828571Y-22134819D01*
X19828571Y-22134819D02*
X19923809Y-22182438D01*
X19923809Y-22182438D02*
X19971428Y-22230057D01*
X19971428Y-22230057D02*
X20019047Y-22325295D01*
X20019047Y-22325295D02*
X20019047Y-22420533D01*
X20019047Y-22420533D02*
X19971428Y-22563390D01*
X19971428Y-22563390D02*
X19400000Y-23134819D01*
X19400000Y-23134819D02*
X20019047Y-23134819D01*
X20876190Y-22468152D02*
X20876190Y-23134819D01*
X20447619Y-22468152D02*
X20447619Y-22991961D01*
X20447619Y-22991961D02*
X20495238Y-23087200D01*
X20495238Y-23087200D02*
X20590476Y-23134819D01*
X20590476Y-23134819D02*
X20733333Y-23134819D01*
X20733333Y-23134819D02*
X20828571Y-23087200D01*
X20828571Y-23087200D02*
X20876190Y-23039580D01*
X21685714Y-22611009D02*
X21352381Y-22611009D01*
X21352381Y-23134819D02*
X21352381Y-22134819D01*
X21352381Y-22134819D02*
X21828571Y-22134819D01*
D12*
X19833333Y-21393832D02*
X19814285Y-21412880D01*
X19814285Y-21412880D02*
X19757143Y-21431927D01*
X19757143Y-21431927D02*
X19719047Y-21431927D01*
X19719047Y-21431927D02*
X19661904Y-21412880D01*
X19661904Y-21412880D02*
X19623809Y-21374784D01*
X19623809Y-21374784D02*
X19604762Y-21336689D01*
X19604762Y-21336689D02*
X19585714Y-21260499D01*
X19585714Y-21260499D02*
X19585714Y-21203356D01*
X19585714Y-21203356D02*
X19604762Y-21127165D01*
X19604762Y-21127165D02*
X19623809Y-21089070D01*
X19623809Y-21089070D02*
X19661904Y-21050975D01*
X19661904Y-21050975D02*
X19719047Y-21031927D01*
X19719047Y-21031927D02*
X19757143Y-21031927D01*
X19757143Y-21031927D02*
X19814285Y-21050975D01*
X19814285Y-21050975D02*
X19833333Y-21070022D01*
X20061904Y-21203356D02*
X20023809Y-21184308D01*
X20023809Y-21184308D02*
X20004762Y-21165260D01*
X20004762Y-21165260D02*
X19985714Y-21127165D01*
X19985714Y-21127165D02*
X19985714Y-21108118D01*
X19985714Y-21108118D02*
X20004762Y-21070022D01*
X20004762Y-21070022D02*
X20023809Y-21050975D01*
X20023809Y-21050975D02*
X20061904Y-21031927D01*
X20061904Y-21031927D02*
X20138095Y-21031927D01*
X20138095Y-21031927D02*
X20176190Y-21050975D01*
X20176190Y-21050975D02*
X20195238Y-21070022D01*
X20195238Y-21070022D02*
X20214285Y-21108118D01*
X20214285Y-21108118D02*
X20214285Y-21127165D01*
X20214285Y-21127165D02*
X20195238Y-21165260D01*
X20195238Y-21165260D02*
X20176190Y-21184308D01*
X20176190Y-21184308D02*
X20138095Y-21203356D01*
X20138095Y-21203356D02*
X20061904Y-21203356D01*
X20061904Y-21203356D02*
X20023809Y-21222403D01*
X20023809Y-21222403D02*
X20004762Y-21241451D01*
X20004762Y-21241451D02*
X19985714Y-21279546D01*
X19985714Y-21279546D02*
X19985714Y-21355737D01*
X19985714Y-21355737D02*
X20004762Y-21393832D01*
X20004762Y-21393832D02*
X20023809Y-21412880D01*
X20023809Y-21412880D02*
X20061904Y-21431927D01*
X20061904Y-21431927D02*
X20138095Y-21431927D01*
X20138095Y-21431927D02*
X20176190Y-21412880D01*
X20176190Y-21412880D02*
X20195238Y-21393832D01*
X20195238Y-21393832D02*
X20214285Y-21355737D01*
X20214285Y-21355737D02*
X20214285Y-21279546D01*
X20214285Y-21279546D02*
X20195238Y-21241451D01*
X20195238Y-21241451D02*
X20176190Y-21222403D01*
X20176190Y-21222403D02*
X20138095Y-21203356D01*
D10*
X26644819Y-35395238D02*
X26644819Y-35966666D01*
X26644819Y-35680952D02*
X25644819Y-35680952D01*
X25644819Y-35680952D02*
X25787676Y-35776190D01*
X25787676Y-35776190D02*
X25882914Y-35871428D01*
X25882914Y-35871428D02*
X25930533Y-35966666D01*
X25644819Y-34776190D02*
X25644819Y-34680952D01*
X25644819Y-34680952D02*
X25692438Y-34585714D01*
X25692438Y-34585714D02*
X25740057Y-34538095D01*
X25740057Y-34538095D02*
X25835295Y-34490476D01*
X25835295Y-34490476D02*
X26025771Y-34442857D01*
X26025771Y-34442857D02*
X26263866Y-34442857D01*
X26263866Y-34442857D02*
X26454342Y-34490476D01*
X26454342Y-34490476D02*
X26549580Y-34538095D01*
X26549580Y-34538095D02*
X26597200Y-34585714D01*
X26597200Y-34585714D02*
X26644819Y-34680952D01*
X26644819Y-34680952D02*
X26644819Y-34776190D01*
X26644819Y-34776190D02*
X26597200Y-34871428D01*
X26597200Y-34871428D02*
X26549580Y-34919047D01*
X26549580Y-34919047D02*
X26454342Y-34966666D01*
X26454342Y-34966666D02*
X26263866Y-35014285D01*
X26263866Y-35014285D02*
X26025771Y-35014285D01*
X26025771Y-35014285D02*
X25835295Y-34966666D01*
X25835295Y-34966666D02*
X25740057Y-34919047D01*
X25740057Y-34919047D02*
X25692438Y-34871428D01*
X25692438Y-34871428D02*
X25644819Y-34776190D01*
X26644819Y-34014285D02*
X25644819Y-34014285D01*
X26263866Y-33919047D02*
X26644819Y-33633333D01*
X25978152Y-33633333D02*
X26359104Y-34014285D01*
D12*
X27801927Y-35057142D02*
X27611451Y-35190475D01*
X27801927Y-35285713D02*
X27401927Y-35285713D01*
X27401927Y-35285713D02*
X27401927Y-35133332D01*
X27401927Y-35133332D02*
X27420975Y-35095237D01*
X27420975Y-35095237D02*
X27440022Y-35076190D01*
X27440022Y-35076190D02*
X27478118Y-35057142D01*
X27478118Y-35057142D02*
X27535260Y-35057142D01*
X27535260Y-35057142D02*
X27573356Y-35076190D01*
X27573356Y-35076190D02*
X27592403Y-35095237D01*
X27592403Y-35095237D02*
X27611451Y-35133332D01*
X27611451Y-35133332D02*
X27611451Y-35285713D01*
X27801927Y-34676190D02*
X27801927Y-34904761D01*
X27801927Y-34790475D02*
X27401927Y-34790475D01*
X27401927Y-34790475D02*
X27459070Y-34828571D01*
X27459070Y-34828571D02*
X27497165Y-34866666D01*
X27497165Y-34866666D02*
X27516213Y-34904761D01*
X27801927Y-34295238D02*
X27801927Y-34523809D01*
X27801927Y-34409523D02*
X27401927Y-34409523D01*
X27401927Y-34409523D02*
X27459070Y-34447619D01*
X27459070Y-34447619D02*
X27497165Y-34485714D01*
X27497165Y-34485714D02*
X27516213Y-34523809D01*
D10*
X1676191Y-42954819D02*
X1676191Y-41954819D01*
X1676191Y-41954819D02*
X2009524Y-42669104D01*
X2009524Y-42669104D02*
X2342857Y-41954819D01*
X2342857Y-41954819D02*
X2342857Y-42954819D01*
X2771429Y-42050057D02*
X2819048Y-42002438D01*
X2819048Y-42002438D02*
X2914286Y-41954819D01*
X2914286Y-41954819D02*
X3152381Y-41954819D01*
X3152381Y-41954819D02*
X3247619Y-42002438D01*
X3247619Y-42002438D02*
X3295238Y-42050057D01*
X3295238Y-42050057D02*
X3342857Y-42145295D01*
X3342857Y-42145295D02*
X3342857Y-42240533D01*
X3342857Y-42240533D02*
X3295238Y-42383390D01*
X3295238Y-42383390D02*
X2723810Y-42954819D01*
X2723810Y-42954819D02*
X3342857Y-42954819D01*
X3771429Y-42859580D02*
X3819048Y-42907200D01*
X3819048Y-42907200D02*
X3771429Y-42954819D01*
X3771429Y-42954819D02*
X3723810Y-42907200D01*
X3723810Y-42907200D02*
X3771429Y-42859580D01*
X3771429Y-42859580D02*
X3771429Y-42954819D01*
X4723809Y-41954819D02*
X4247619Y-41954819D01*
X4247619Y-41954819D02*
X4200000Y-42431009D01*
X4200000Y-42431009D02*
X4247619Y-42383390D01*
X4247619Y-42383390D02*
X4342857Y-42335771D01*
X4342857Y-42335771D02*
X4580952Y-42335771D01*
X4580952Y-42335771D02*
X4676190Y-42383390D01*
X4676190Y-42383390D02*
X4723809Y-42431009D01*
X4723809Y-42431009D02*
X4771428Y-42526247D01*
X4771428Y-42526247D02*
X4771428Y-42764342D01*
X4771428Y-42764342D02*
X4723809Y-42859580D01*
X4723809Y-42859580D02*
X4676190Y-42907200D01*
X4676190Y-42907200D02*
X4580952Y-42954819D01*
X4580952Y-42954819D02*
X4342857Y-42954819D01*
X4342857Y-42954819D02*
X4247619Y-42907200D01*
X4247619Y-42907200D02*
X4200000Y-42859580D01*
X2438095Y-39254819D02*
X2438095Y-38254819D01*
X2438095Y-38731009D02*
X3009523Y-38731009D01*
X3009523Y-39254819D02*
X3009523Y-38254819D01*
X4009523Y-39254819D02*
X3438095Y-39254819D01*
X3723809Y-39254819D02*
X3723809Y-38254819D01*
X3723809Y-38254819D02*
X3628571Y-38397676D01*
X3628571Y-38397676D02*
X3533333Y-38492914D01*
X3533333Y-38492914D02*
X3438095Y-38540533D01*
X34331009Y-10690476D02*
X34378628Y-10547619D01*
X34378628Y-10547619D02*
X34426247Y-10500000D01*
X34426247Y-10500000D02*
X34521485Y-10452381D01*
X34521485Y-10452381D02*
X34664342Y-10452381D01*
X34664342Y-10452381D02*
X34759580Y-10500000D01*
X34759580Y-10500000D02*
X34807200Y-10547619D01*
X34807200Y-10547619D02*
X34854819Y-10642857D01*
X34854819Y-10642857D02*
X34854819Y-11023809D01*
X34854819Y-11023809D02*
X33854819Y-11023809D01*
X33854819Y-11023809D02*
X33854819Y-10690476D01*
X33854819Y-10690476D02*
X33902438Y-10595238D01*
X33902438Y-10595238D02*
X33950057Y-10547619D01*
X33950057Y-10547619D02*
X34045295Y-10500000D01*
X34045295Y-10500000D02*
X34140533Y-10500000D01*
X34140533Y-10500000D02*
X34235771Y-10547619D01*
X34235771Y-10547619D02*
X34283390Y-10595238D01*
X34283390Y-10595238D02*
X34331009Y-10690476D01*
X34331009Y-10690476D02*
X34331009Y-11023809D01*
X33854819Y-10119047D02*
X33854819Y-9452381D01*
X33854819Y-9452381D02*
X34854819Y-10119047D01*
X34854819Y-10119047D02*
X34854819Y-9452381D01*
X33854819Y-9214285D02*
X33854819Y-8642857D01*
X34854819Y-8928571D02*
X33854819Y-8928571D01*
X33854819Y-7833333D02*
X33854819Y-8309523D01*
X33854819Y-8309523D02*
X34331009Y-8357142D01*
X34331009Y-8357142D02*
X34283390Y-8309523D01*
X34283390Y-8309523D02*
X34235771Y-8214285D01*
X34235771Y-8214285D02*
X34235771Y-7976190D01*
X34235771Y-7976190D02*
X34283390Y-7880952D01*
X34283390Y-7880952D02*
X34331009Y-7833333D01*
X34331009Y-7833333D02*
X34426247Y-7785714D01*
X34426247Y-7785714D02*
X34664342Y-7785714D01*
X34664342Y-7785714D02*
X34759580Y-7833333D01*
X34759580Y-7833333D02*
X34807200Y-7880952D01*
X34807200Y-7880952D02*
X34854819Y-7976190D01*
X34854819Y-7976190D02*
X34854819Y-8214285D01*
X34854819Y-8214285D02*
X34807200Y-8309523D01*
X34807200Y-8309523D02*
X34759580Y-8357142D01*
X33950057Y-7404761D02*
X33902438Y-7357142D01*
X33902438Y-7357142D02*
X33854819Y-7261904D01*
X33854819Y-7261904D02*
X33854819Y-7023809D01*
X33854819Y-7023809D02*
X33902438Y-6928571D01*
X33902438Y-6928571D02*
X33950057Y-6880952D01*
X33950057Y-6880952D02*
X34045295Y-6833333D01*
X34045295Y-6833333D02*
X34140533Y-6833333D01*
X34140533Y-6833333D02*
X34283390Y-6880952D01*
X34283390Y-6880952D02*
X34854819Y-7452380D01*
X34854819Y-7452380D02*
X34854819Y-6833333D01*
X34759580Y-5833333D02*
X34807200Y-5880952D01*
X34807200Y-5880952D02*
X34854819Y-6023809D01*
X34854819Y-6023809D02*
X34854819Y-6119047D01*
X34854819Y-6119047D02*
X34807200Y-6261904D01*
X34807200Y-6261904D02*
X34711961Y-6357142D01*
X34711961Y-6357142D02*
X34616723Y-6404761D01*
X34616723Y-6404761D02*
X34426247Y-6452380D01*
X34426247Y-6452380D02*
X34283390Y-6452380D01*
X34283390Y-6452380D02*
X34092914Y-6404761D01*
X34092914Y-6404761D02*
X33997676Y-6357142D01*
X33997676Y-6357142D02*
X33902438Y-6261904D01*
X33902438Y-6261904D02*
X33854819Y-6119047D01*
X33854819Y-6119047D02*
X33854819Y-6023809D01*
X33854819Y-6023809D02*
X33902438Y-5880952D01*
X33902438Y-5880952D02*
X33950057Y-5833333D01*
X34854819Y-4880952D02*
X34854819Y-5452380D01*
X34854819Y-5166666D02*
X33854819Y-5166666D01*
X33854819Y-5166666D02*
X33997676Y-5261904D01*
X33997676Y-5261904D02*
X34092914Y-5357142D01*
X34092914Y-5357142D02*
X34140533Y-5452380D01*
X33950057Y-4499999D02*
X33902438Y-4452380D01*
X33902438Y-4452380D02*
X33854819Y-4357142D01*
X33854819Y-4357142D02*
X33854819Y-4119047D01*
X33854819Y-4119047D02*
X33902438Y-4023809D01*
X33902438Y-4023809D02*
X33950057Y-3976190D01*
X33950057Y-3976190D02*
X34045295Y-3928571D01*
X34045295Y-3928571D02*
X34140533Y-3928571D01*
X34140533Y-3928571D02*
X34283390Y-3976190D01*
X34283390Y-3976190D02*
X34854819Y-4547618D01*
X34854819Y-4547618D02*
X34854819Y-3928571D01*
X38954819Y-8238094D02*
X37954819Y-8238094D01*
X37954819Y-8238094D02*
X37954819Y-7999999D01*
X37954819Y-7999999D02*
X38002438Y-7857142D01*
X38002438Y-7857142D02*
X38097676Y-7761904D01*
X38097676Y-7761904D02*
X38192914Y-7714285D01*
X38192914Y-7714285D02*
X38383390Y-7666666D01*
X38383390Y-7666666D02*
X38526247Y-7666666D01*
X38526247Y-7666666D02*
X38716723Y-7714285D01*
X38716723Y-7714285D02*
X38811961Y-7761904D01*
X38811961Y-7761904D02*
X38907200Y-7857142D01*
X38907200Y-7857142D02*
X38954819Y-7999999D01*
X38954819Y-7999999D02*
X38954819Y-8238094D01*
X38050057Y-7285713D02*
X38002438Y-7238094D01*
X38002438Y-7238094D02*
X37954819Y-7142856D01*
X37954819Y-7142856D02*
X37954819Y-6904761D01*
X37954819Y-6904761D02*
X38002438Y-6809523D01*
X38002438Y-6809523D02*
X38050057Y-6761904D01*
X38050057Y-6761904D02*
X38145295Y-6714285D01*
X38145295Y-6714285D02*
X38240533Y-6714285D01*
X38240533Y-6714285D02*
X38383390Y-6761904D01*
X38383390Y-6761904D02*
X38954819Y-7333332D01*
X38954819Y-7333332D02*
X38954819Y-6714285D01*
X55276191Y-7354819D02*
X55276191Y-6354819D01*
X55276191Y-6354819D02*
X55609524Y-7069104D01*
X55609524Y-7069104D02*
X55942857Y-6354819D01*
X55942857Y-6354819D02*
X55942857Y-7354819D01*
X56371429Y-6450057D02*
X56419048Y-6402438D01*
X56419048Y-6402438D02*
X56514286Y-6354819D01*
X56514286Y-6354819D02*
X56752381Y-6354819D01*
X56752381Y-6354819D02*
X56847619Y-6402438D01*
X56847619Y-6402438D02*
X56895238Y-6450057D01*
X56895238Y-6450057D02*
X56942857Y-6545295D01*
X56942857Y-6545295D02*
X56942857Y-6640533D01*
X56942857Y-6640533D02*
X56895238Y-6783390D01*
X56895238Y-6783390D02*
X56323810Y-7354819D01*
X56323810Y-7354819D02*
X56942857Y-7354819D01*
X57371429Y-7259580D02*
X57419048Y-7307200D01*
X57419048Y-7307200D02*
X57371429Y-7354819D01*
X57371429Y-7354819D02*
X57323810Y-7307200D01*
X57323810Y-7307200D02*
X57371429Y-7259580D01*
X57371429Y-7259580D02*
X57371429Y-7354819D01*
X58323809Y-6354819D02*
X57847619Y-6354819D01*
X57847619Y-6354819D02*
X57800000Y-6831009D01*
X57800000Y-6831009D02*
X57847619Y-6783390D01*
X57847619Y-6783390D02*
X57942857Y-6735771D01*
X57942857Y-6735771D02*
X58180952Y-6735771D01*
X58180952Y-6735771D02*
X58276190Y-6783390D01*
X58276190Y-6783390D02*
X58323809Y-6831009D01*
X58323809Y-6831009D02*
X58371428Y-6926247D01*
X58371428Y-6926247D02*
X58371428Y-7164342D01*
X58371428Y-7164342D02*
X58323809Y-7259580D01*
X58323809Y-7259580D02*
X58276190Y-7307200D01*
X58276190Y-7307200D02*
X58180952Y-7354819D01*
X58180952Y-7354819D02*
X57942857Y-7354819D01*
X57942857Y-7354819D02*
X57847619Y-7307200D01*
X57847619Y-7307200D02*
X57800000Y-7259580D01*
X56038095Y-3654819D02*
X56038095Y-2654819D01*
X56038095Y-3131009D02*
X56609523Y-3131009D01*
X56609523Y-3654819D02*
X56609523Y-2654819D01*
X56990476Y-2654819D02*
X57609523Y-2654819D01*
X57609523Y-2654819D02*
X57276190Y-3035771D01*
X57276190Y-3035771D02*
X57419047Y-3035771D01*
X57419047Y-3035771D02*
X57514285Y-3083390D01*
X57514285Y-3083390D02*
X57561904Y-3131009D01*
X57561904Y-3131009D02*
X57609523Y-3226247D01*
X57609523Y-3226247D02*
X57609523Y-3464342D01*
X57609523Y-3464342D02*
X57561904Y-3559580D01*
X57561904Y-3559580D02*
X57514285Y-3607200D01*
X57514285Y-3607200D02*
X57419047Y-3654819D01*
X57419047Y-3654819D02*
X57133333Y-3654819D01*
X57133333Y-3654819D02*
X57038095Y-3607200D01*
X57038095Y-3607200D02*
X56990476Y-3559580D01*
X30547618Y-14884819D02*
X29976190Y-14884819D01*
X30261904Y-14884819D02*
X30261904Y-13884819D01*
X30261904Y-13884819D02*
X30166666Y-14027676D01*
X30166666Y-14027676D02*
X30071428Y-14122914D01*
X30071428Y-14122914D02*
X29976190Y-14170533D01*
X31166666Y-13884819D02*
X31261904Y-13884819D01*
X31261904Y-13884819D02*
X31357142Y-13932438D01*
X31357142Y-13932438D02*
X31404761Y-13980057D01*
X31404761Y-13980057D02*
X31452380Y-14075295D01*
X31452380Y-14075295D02*
X31499999Y-14265771D01*
X31499999Y-14265771D02*
X31499999Y-14503866D01*
X31499999Y-14503866D02*
X31452380Y-14694342D01*
X31452380Y-14694342D02*
X31404761Y-14789580D01*
X31404761Y-14789580D02*
X31357142Y-14837200D01*
X31357142Y-14837200D02*
X31261904Y-14884819D01*
X31261904Y-14884819D02*
X31166666Y-14884819D01*
X31166666Y-14884819D02*
X31071428Y-14837200D01*
X31071428Y-14837200D02*
X31023809Y-14789580D01*
X31023809Y-14789580D02*
X30976190Y-14694342D01*
X30976190Y-14694342D02*
X30928571Y-14503866D01*
X30928571Y-14503866D02*
X30928571Y-14265771D01*
X30928571Y-14265771D02*
X30976190Y-14075295D01*
X30976190Y-14075295D02*
X31023809Y-13980057D01*
X31023809Y-13980057D02*
X31071428Y-13932438D01*
X31071428Y-13932438D02*
X31166666Y-13884819D01*
X32119047Y-13884819D02*
X32214285Y-13884819D01*
X32214285Y-13884819D02*
X32309523Y-13932438D01*
X32309523Y-13932438D02*
X32357142Y-13980057D01*
X32357142Y-13980057D02*
X32404761Y-14075295D01*
X32404761Y-14075295D02*
X32452380Y-14265771D01*
X32452380Y-14265771D02*
X32452380Y-14503866D01*
X32452380Y-14503866D02*
X32404761Y-14694342D01*
X32404761Y-14694342D02*
X32357142Y-14789580D01*
X32357142Y-14789580D02*
X32309523Y-14837200D01*
X32309523Y-14837200D02*
X32214285Y-14884819D01*
X32214285Y-14884819D02*
X32119047Y-14884819D01*
X32119047Y-14884819D02*
X32023809Y-14837200D01*
X32023809Y-14837200D02*
X31976190Y-14789580D01*
X31976190Y-14789580D02*
X31928571Y-14694342D01*
X31928571Y-14694342D02*
X31880952Y-14503866D01*
X31880952Y-14503866D02*
X31880952Y-14265771D01*
X31880952Y-14265771D02*
X31928571Y-14075295D01*
X31928571Y-14075295D02*
X31976190Y-13980057D01*
X31976190Y-13980057D02*
X32023809Y-13932438D01*
X32023809Y-13932438D02*
X32119047Y-13884819D01*
X32880952Y-14218152D02*
X32880952Y-14884819D01*
X32880952Y-14313390D02*
X32928571Y-14265771D01*
X32928571Y-14265771D02*
X33023809Y-14218152D01*
X33023809Y-14218152D02*
X33166666Y-14218152D01*
X33166666Y-14218152D02*
X33261904Y-14265771D01*
X33261904Y-14265771D02*
X33309523Y-14361009D01*
X33309523Y-14361009D02*
X33309523Y-14884819D01*
X34119047Y-14361009D02*
X33785714Y-14361009D01*
X33785714Y-14884819D02*
X33785714Y-13884819D01*
X33785714Y-13884819D02*
X34261904Y-13884819D01*
X35357142Y-13837200D02*
X34500000Y-15122914D01*
X36166666Y-13884819D02*
X35690476Y-13884819D01*
X35690476Y-13884819D02*
X35642857Y-14361009D01*
X35642857Y-14361009D02*
X35690476Y-14313390D01*
X35690476Y-14313390D02*
X35785714Y-14265771D01*
X35785714Y-14265771D02*
X36023809Y-14265771D01*
X36023809Y-14265771D02*
X36119047Y-14313390D01*
X36119047Y-14313390D02*
X36166666Y-14361009D01*
X36166666Y-14361009D02*
X36214285Y-14456247D01*
X36214285Y-14456247D02*
X36214285Y-14694342D01*
X36214285Y-14694342D02*
X36166666Y-14789580D01*
X36166666Y-14789580D02*
X36119047Y-14837200D01*
X36119047Y-14837200D02*
X36023809Y-14884819D01*
X36023809Y-14884819D02*
X35785714Y-14884819D01*
X35785714Y-14884819D02*
X35690476Y-14837200D01*
X35690476Y-14837200D02*
X35642857Y-14789580D01*
X36833333Y-13884819D02*
X36928571Y-13884819D01*
X36928571Y-13884819D02*
X37023809Y-13932438D01*
X37023809Y-13932438D02*
X37071428Y-13980057D01*
X37071428Y-13980057D02*
X37119047Y-14075295D01*
X37119047Y-14075295D02*
X37166666Y-14265771D01*
X37166666Y-14265771D02*
X37166666Y-14503866D01*
X37166666Y-14503866D02*
X37119047Y-14694342D01*
X37119047Y-14694342D02*
X37071428Y-14789580D01*
X37071428Y-14789580D02*
X37023809Y-14837200D01*
X37023809Y-14837200D02*
X36928571Y-14884819D01*
X36928571Y-14884819D02*
X36833333Y-14884819D01*
X36833333Y-14884819D02*
X36738095Y-14837200D01*
X36738095Y-14837200D02*
X36690476Y-14789580D01*
X36690476Y-14789580D02*
X36642857Y-14694342D01*
X36642857Y-14694342D02*
X36595238Y-14503866D01*
X36595238Y-14503866D02*
X36595238Y-14265771D01*
X36595238Y-14265771D02*
X36642857Y-14075295D01*
X36642857Y-14075295D02*
X36690476Y-13980057D01*
X36690476Y-13980057D02*
X36738095Y-13932438D01*
X36738095Y-13932438D02*
X36833333Y-13884819D01*
X37452381Y-13884819D02*
X37785714Y-14884819D01*
X37785714Y-14884819D02*
X38119047Y-13884819D01*
D12*
X33933333Y-13143832D02*
X33914285Y-13162880D01*
X33914285Y-13162880D02*
X33857143Y-13181927D01*
X33857143Y-13181927D02*
X33819047Y-13181927D01*
X33819047Y-13181927D02*
X33761904Y-13162880D01*
X33761904Y-13162880D02*
X33723809Y-13124784D01*
X33723809Y-13124784D02*
X33704762Y-13086689D01*
X33704762Y-13086689D02*
X33685714Y-13010499D01*
X33685714Y-13010499D02*
X33685714Y-12953356D01*
X33685714Y-12953356D02*
X33704762Y-12877165D01*
X33704762Y-12877165D02*
X33723809Y-12839070D01*
X33723809Y-12839070D02*
X33761904Y-12800975D01*
X33761904Y-12800975D02*
X33819047Y-12781927D01*
X33819047Y-12781927D02*
X33857143Y-12781927D01*
X33857143Y-12781927D02*
X33914285Y-12800975D01*
X33914285Y-12800975D02*
X33933333Y-12820022D01*
X34276190Y-12915260D02*
X34276190Y-13181927D01*
X34180952Y-12762880D02*
X34085714Y-13048594D01*
X34085714Y-13048594D02*
X34333333Y-13048594D01*
D10*
X23369048Y-34007200D02*
X23511905Y-34054819D01*
X23511905Y-34054819D02*
X23750000Y-34054819D01*
X23750000Y-34054819D02*
X23845238Y-34007200D01*
X23845238Y-34007200D02*
X23892857Y-33959580D01*
X23892857Y-33959580D02*
X23940476Y-33864342D01*
X23940476Y-33864342D02*
X23940476Y-33769104D01*
X23940476Y-33769104D02*
X23892857Y-33673866D01*
X23892857Y-33673866D02*
X23845238Y-33626247D01*
X23845238Y-33626247D02*
X23750000Y-33578628D01*
X23750000Y-33578628D02*
X23559524Y-33531009D01*
X23559524Y-33531009D02*
X23464286Y-33483390D01*
X23464286Y-33483390D02*
X23416667Y-33435771D01*
X23416667Y-33435771D02*
X23369048Y-33340533D01*
X23369048Y-33340533D02*
X23369048Y-33245295D01*
X23369048Y-33245295D02*
X23416667Y-33150057D01*
X23416667Y-33150057D02*
X23464286Y-33102438D01*
X23464286Y-33102438D02*
X23559524Y-33054819D01*
X23559524Y-33054819D02*
X23797619Y-33054819D01*
X23797619Y-33054819D02*
X23940476Y-33102438D01*
X24369048Y-34054819D02*
X24369048Y-33054819D01*
X24369048Y-33054819D02*
X24750000Y-33054819D01*
X24750000Y-33054819D02*
X24845238Y-33102438D01*
X24845238Y-33102438D02*
X24892857Y-33150057D01*
X24892857Y-33150057D02*
X24940476Y-33245295D01*
X24940476Y-33245295D02*
X24940476Y-33388152D01*
X24940476Y-33388152D02*
X24892857Y-33483390D01*
X24892857Y-33483390D02*
X24845238Y-33531009D01*
X24845238Y-33531009D02*
X24750000Y-33578628D01*
X24750000Y-33578628D02*
X24369048Y-33578628D01*
X25369048Y-34054819D02*
X25369048Y-33054819D01*
X26559523Y-33007200D02*
X25702381Y-34292914D01*
X26892857Y-33054819D02*
X26892857Y-33864342D01*
X26892857Y-33864342D02*
X26940476Y-33959580D01*
X26940476Y-33959580D02*
X26988095Y-34007200D01*
X26988095Y-34007200D02*
X27083333Y-34054819D01*
X27083333Y-34054819D02*
X27273809Y-34054819D01*
X27273809Y-34054819D02*
X27369047Y-34007200D01*
X27369047Y-34007200D02*
X27416666Y-33959580D01*
X27416666Y-33959580D02*
X27464285Y-33864342D01*
X27464285Y-33864342D02*
X27464285Y-33054819D01*
X27892857Y-33769104D02*
X28369047Y-33769104D01*
X27797619Y-34054819D02*
X28130952Y-33054819D01*
X28130952Y-33054819D02*
X28464285Y-34054819D01*
X29369047Y-34054819D02*
X29035714Y-33578628D01*
X28797619Y-34054819D02*
X28797619Y-33054819D01*
X28797619Y-33054819D02*
X29178571Y-33054819D01*
X29178571Y-33054819D02*
X29273809Y-33102438D01*
X29273809Y-33102438D02*
X29321428Y-33150057D01*
X29321428Y-33150057D02*
X29369047Y-33245295D01*
X29369047Y-33245295D02*
X29369047Y-33388152D01*
X29369047Y-33388152D02*
X29321428Y-33483390D01*
X29321428Y-33483390D02*
X29273809Y-33531009D01*
X29273809Y-33531009D02*
X29178571Y-33578628D01*
X29178571Y-33578628D02*
X28797619Y-33578628D01*
X29654762Y-33054819D02*
X30226190Y-33054819D01*
X29940476Y-34054819D02*
X29940476Y-33054819D01*
X22547619Y-25254819D02*
X23119047Y-25254819D01*
X22833333Y-26254819D02*
X22833333Y-25254819D01*
X23452381Y-26254819D02*
X23452381Y-25254819D01*
X23452381Y-25254819D02*
X23785714Y-25969104D01*
X23785714Y-25969104D02*
X24119047Y-25254819D01*
X24119047Y-25254819D02*
X24119047Y-26254819D01*
X25166666Y-26159580D02*
X25119047Y-26207200D01*
X25119047Y-26207200D02*
X24976190Y-26254819D01*
X24976190Y-26254819D02*
X24880952Y-26254819D01*
X24880952Y-26254819D02*
X24738095Y-26207200D01*
X24738095Y-26207200D02*
X24642857Y-26111961D01*
X24642857Y-26111961D02*
X24595238Y-26016723D01*
X24595238Y-26016723D02*
X24547619Y-25826247D01*
X24547619Y-25826247D02*
X24547619Y-25683390D01*
X24547619Y-25683390D02*
X24595238Y-25492914D01*
X24595238Y-25492914D02*
X24642857Y-25397676D01*
X24642857Y-25397676D02*
X24738095Y-25302438D01*
X24738095Y-25302438D02*
X24880952Y-25254819D01*
X24880952Y-25254819D02*
X24976190Y-25254819D01*
X24976190Y-25254819D02*
X25119047Y-25302438D01*
X25119047Y-25302438D02*
X25166666Y-25350057D01*
X26071428Y-25254819D02*
X25595238Y-25254819D01*
X25595238Y-25254819D02*
X25547619Y-25731009D01*
X25547619Y-25731009D02*
X25595238Y-25683390D01*
X25595238Y-25683390D02*
X25690476Y-25635771D01*
X25690476Y-25635771D02*
X25928571Y-25635771D01*
X25928571Y-25635771D02*
X26023809Y-25683390D01*
X26023809Y-25683390D02*
X26071428Y-25731009D01*
X26071428Y-25731009D02*
X26119047Y-25826247D01*
X26119047Y-25826247D02*
X26119047Y-26064342D01*
X26119047Y-26064342D02*
X26071428Y-26159580D01*
X26071428Y-26159580D02*
X26023809Y-26207200D01*
X26023809Y-26207200D02*
X25928571Y-26254819D01*
X25928571Y-26254819D02*
X25690476Y-26254819D01*
X25690476Y-26254819D02*
X25595238Y-26207200D01*
X25595238Y-26207200D02*
X25547619Y-26159580D01*
X26500000Y-25350057D02*
X26547619Y-25302438D01*
X26547619Y-25302438D02*
X26642857Y-25254819D01*
X26642857Y-25254819D02*
X26880952Y-25254819D01*
X26880952Y-25254819D02*
X26976190Y-25302438D01*
X26976190Y-25302438D02*
X27023809Y-25350057D01*
X27023809Y-25350057D02*
X27071428Y-25445295D01*
X27071428Y-25445295D02*
X27071428Y-25540533D01*
X27071428Y-25540533D02*
X27023809Y-25683390D01*
X27023809Y-25683390D02*
X26452381Y-26254819D01*
X26452381Y-26254819D02*
X27071428Y-26254819D01*
X27928571Y-25588152D02*
X27928571Y-26254819D01*
X27690476Y-25207200D02*
X27452381Y-25921485D01*
X27452381Y-25921485D02*
X28071428Y-25921485D01*
X28642857Y-25254819D02*
X28738095Y-25254819D01*
X28738095Y-25254819D02*
X28833333Y-25302438D01*
X28833333Y-25302438D02*
X28880952Y-25350057D01*
X28880952Y-25350057D02*
X28928571Y-25445295D01*
X28928571Y-25445295D02*
X28976190Y-25635771D01*
X28976190Y-25635771D02*
X28976190Y-25873866D01*
X28976190Y-25873866D02*
X28928571Y-26064342D01*
X28928571Y-26064342D02*
X28880952Y-26159580D01*
X28880952Y-26159580D02*
X28833333Y-26207200D01*
X28833333Y-26207200D02*
X28738095Y-26254819D01*
X28738095Y-26254819D02*
X28642857Y-26254819D01*
X28642857Y-26254819D02*
X28547619Y-26207200D01*
X28547619Y-26207200D02*
X28500000Y-26159580D01*
X28500000Y-26159580D02*
X28452381Y-26064342D01*
X28452381Y-26064342D02*
X28404762Y-25873866D01*
X28404762Y-25873866D02*
X28404762Y-25635771D01*
X28404762Y-25635771D02*
X28452381Y-25445295D01*
X28452381Y-25445295D02*
X28500000Y-25350057D01*
X28500000Y-25350057D02*
X28547619Y-25302438D01*
X28547619Y-25302438D02*
X28642857Y-25254819D01*
X29357143Y-25969104D02*
X29833333Y-25969104D01*
X29261905Y-26254819D02*
X29595238Y-25254819D01*
X29595238Y-25254819D02*
X29928571Y-26254819D01*
X30119048Y-25254819D02*
X30690476Y-25254819D01*
X30404762Y-26254819D02*
X30404762Y-25254819D01*
X31309524Y-25254819D02*
X31309524Y-25969104D01*
X31309524Y-25969104D02*
X31261905Y-26111961D01*
X31261905Y-26111961D02*
X31166667Y-26207200D01*
X31166667Y-26207200D02*
X31023810Y-26254819D01*
X31023810Y-26254819D02*
X30928572Y-26254819D01*
X31785715Y-25873866D02*
X32547620Y-25873866D01*
X32166667Y-26254819D02*
X32166667Y-25492914D01*
X32880953Y-25254819D02*
X33452381Y-25254819D01*
X33166667Y-26254819D02*
X33166667Y-25254819D01*
X27238095Y-21454819D02*
X27238095Y-22264342D01*
X27238095Y-22264342D02*
X27285714Y-22359580D01*
X27285714Y-22359580D02*
X27333333Y-22407200D01*
X27333333Y-22407200D02*
X27428571Y-22454819D01*
X27428571Y-22454819D02*
X27619047Y-22454819D01*
X27619047Y-22454819D02*
X27714285Y-22407200D01*
X27714285Y-22407200D02*
X27761904Y-22359580D01*
X27761904Y-22359580D02*
X27809523Y-22264342D01*
X27809523Y-22264342D02*
X27809523Y-21454819D01*
X28809523Y-22454819D02*
X28238095Y-22454819D01*
X28523809Y-22454819D02*
X28523809Y-21454819D01*
X28523809Y-21454819D02*
X28428571Y-21597676D01*
X28428571Y-21597676D02*
X28333333Y-21692914D01*
X28333333Y-21692914D02*
X28238095Y-21740533D01*
X5624819Y-15795238D02*
X5624819Y-16366666D01*
X5624819Y-16080952D02*
X4624819Y-16080952D01*
X4624819Y-16080952D02*
X4767676Y-16176190D01*
X4767676Y-16176190D02*
X4862914Y-16271428D01*
X4862914Y-16271428D02*
X4910533Y-16366666D01*
X4624819Y-15176190D02*
X4624819Y-15080952D01*
X4624819Y-15080952D02*
X4672438Y-14985714D01*
X4672438Y-14985714D02*
X4720057Y-14938095D01*
X4720057Y-14938095D02*
X4815295Y-14890476D01*
X4815295Y-14890476D02*
X5005771Y-14842857D01*
X5005771Y-14842857D02*
X5243866Y-14842857D01*
X5243866Y-14842857D02*
X5434342Y-14890476D01*
X5434342Y-14890476D02*
X5529580Y-14938095D01*
X5529580Y-14938095D02*
X5577200Y-14985714D01*
X5577200Y-14985714D02*
X5624819Y-15080952D01*
X5624819Y-15080952D02*
X5624819Y-15176190D01*
X5624819Y-15176190D02*
X5577200Y-15271428D01*
X5577200Y-15271428D02*
X5529580Y-15319047D01*
X5529580Y-15319047D02*
X5434342Y-15366666D01*
X5434342Y-15366666D02*
X5243866Y-15414285D01*
X5243866Y-15414285D02*
X5005771Y-15414285D01*
X5005771Y-15414285D02*
X4815295Y-15366666D01*
X4815295Y-15366666D02*
X4720057Y-15319047D01*
X4720057Y-15319047D02*
X4672438Y-15271428D01*
X4672438Y-15271428D02*
X4624819Y-15176190D01*
X5624819Y-14414285D02*
X4624819Y-14414285D01*
X5243866Y-14319047D02*
X5624819Y-14033333D01*
X4958152Y-14033333D02*
X5339104Y-14414285D01*
D12*
X6781927Y-15266666D02*
X6591451Y-15399999D01*
X6781927Y-15495237D02*
X6381927Y-15495237D01*
X6381927Y-15495237D02*
X6381927Y-15342856D01*
X6381927Y-15342856D02*
X6400975Y-15304761D01*
X6400975Y-15304761D02*
X6420022Y-15285714D01*
X6420022Y-15285714D02*
X6458118Y-15266666D01*
X6458118Y-15266666D02*
X6515260Y-15266666D01*
X6515260Y-15266666D02*
X6553356Y-15285714D01*
X6553356Y-15285714D02*
X6572403Y-15304761D01*
X6572403Y-15304761D02*
X6591451Y-15342856D01*
X6591451Y-15342856D02*
X6591451Y-15495237D01*
X6420022Y-15114285D02*
X6400975Y-15095237D01*
X6400975Y-15095237D02*
X6381927Y-15057142D01*
X6381927Y-15057142D02*
X6381927Y-14961904D01*
X6381927Y-14961904D02*
X6400975Y-14923809D01*
X6400975Y-14923809D02*
X6420022Y-14904761D01*
X6420022Y-14904761D02*
X6458118Y-14885714D01*
X6458118Y-14885714D02*
X6496213Y-14885714D01*
X6496213Y-14885714D02*
X6553356Y-14904761D01*
X6553356Y-14904761D02*
X6781927Y-15133333D01*
X6781927Y-15133333D02*
X6781927Y-14885714D01*
D10*
X21564819Y-35395238D02*
X21564819Y-35966666D01*
X21564819Y-35680952D02*
X20564819Y-35680952D01*
X20564819Y-35680952D02*
X20707676Y-35776190D01*
X20707676Y-35776190D02*
X20802914Y-35871428D01*
X20802914Y-35871428D02*
X20850533Y-35966666D01*
X20564819Y-34776190D02*
X20564819Y-34680952D01*
X20564819Y-34680952D02*
X20612438Y-34585714D01*
X20612438Y-34585714D02*
X20660057Y-34538095D01*
X20660057Y-34538095D02*
X20755295Y-34490476D01*
X20755295Y-34490476D02*
X20945771Y-34442857D01*
X20945771Y-34442857D02*
X21183866Y-34442857D01*
X21183866Y-34442857D02*
X21374342Y-34490476D01*
X21374342Y-34490476D02*
X21469580Y-34538095D01*
X21469580Y-34538095D02*
X21517200Y-34585714D01*
X21517200Y-34585714D02*
X21564819Y-34680952D01*
X21564819Y-34680952D02*
X21564819Y-34776190D01*
X21564819Y-34776190D02*
X21517200Y-34871428D01*
X21517200Y-34871428D02*
X21469580Y-34919047D01*
X21469580Y-34919047D02*
X21374342Y-34966666D01*
X21374342Y-34966666D02*
X21183866Y-35014285D01*
X21183866Y-35014285D02*
X20945771Y-35014285D01*
X20945771Y-35014285D02*
X20755295Y-34966666D01*
X20755295Y-34966666D02*
X20660057Y-34919047D01*
X20660057Y-34919047D02*
X20612438Y-34871428D01*
X20612438Y-34871428D02*
X20564819Y-34776190D01*
X21564819Y-34014285D02*
X20564819Y-34014285D01*
X21183866Y-33919047D02*
X21564819Y-33633333D01*
X20898152Y-33633333D02*
X21279104Y-34014285D01*
D12*
X22721927Y-34866666D02*
X22531451Y-34999999D01*
X22721927Y-35095237D02*
X22321927Y-35095237D01*
X22321927Y-35095237D02*
X22321927Y-34942856D01*
X22321927Y-34942856D02*
X22340975Y-34904761D01*
X22340975Y-34904761D02*
X22360022Y-34885714D01*
X22360022Y-34885714D02*
X22398118Y-34866666D01*
X22398118Y-34866666D02*
X22455260Y-34866666D01*
X22455260Y-34866666D02*
X22493356Y-34885714D01*
X22493356Y-34885714D02*
X22512403Y-34904761D01*
X22512403Y-34904761D02*
X22531451Y-34942856D01*
X22531451Y-34942856D02*
X22531451Y-35095237D01*
X22721927Y-34676190D02*
X22721927Y-34599999D01*
X22721927Y-34599999D02*
X22702880Y-34561904D01*
X22702880Y-34561904D02*
X22683832Y-34542856D01*
X22683832Y-34542856D02*
X22626689Y-34504761D01*
X22626689Y-34504761D02*
X22550499Y-34485714D01*
X22550499Y-34485714D02*
X22398118Y-34485714D01*
X22398118Y-34485714D02*
X22360022Y-34504761D01*
X22360022Y-34504761D02*
X22340975Y-34523809D01*
X22340975Y-34523809D02*
X22321927Y-34561904D01*
X22321927Y-34561904D02*
X22321927Y-34638095D01*
X22321927Y-34638095D02*
X22340975Y-34676190D01*
X22340975Y-34676190D02*
X22360022Y-34695237D01*
X22360022Y-34695237D02*
X22398118Y-34714285D01*
X22398118Y-34714285D02*
X22493356Y-34714285D01*
X22493356Y-34714285D02*
X22531451Y-34695237D01*
X22531451Y-34695237D02*
X22550499Y-34676190D01*
X22550499Y-34676190D02*
X22569546Y-34638095D01*
X22569546Y-34638095D02*
X22569546Y-34561904D01*
X22569546Y-34561904D02*
X22550499Y-34523809D01*
X22550499Y-34523809D02*
X22531451Y-34504761D01*
X22531451Y-34504761D02*
X22493356Y-34485714D01*
D10*
X6754761Y-29744819D02*
X6183333Y-29744819D01*
X6469047Y-29744819D02*
X6469047Y-28744819D01*
X6469047Y-28744819D02*
X6373809Y-28887676D01*
X6373809Y-28887676D02*
X6278571Y-28982914D01*
X6278571Y-28982914D02*
X6183333Y-29030533D01*
X7373809Y-28744819D02*
X7469047Y-28744819D01*
X7469047Y-28744819D02*
X7564285Y-28792438D01*
X7564285Y-28792438D02*
X7611904Y-28840057D01*
X7611904Y-28840057D02*
X7659523Y-28935295D01*
X7659523Y-28935295D02*
X7707142Y-29125771D01*
X7707142Y-29125771D02*
X7707142Y-29363866D01*
X7707142Y-29363866D02*
X7659523Y-29554342D01*
X7659523Y-29554342D02*
X7611904Y-29649580D01*
X7611904Y-29649580D02*
X7564285Y-29697200D01*
X7564285Y-29697200D02*
X7469047Y-29744819D01*
X7469047Y-29744819D02*
X7373809Y-29744819D01*
X7373809Y-29744819D02*
X7278571Y-29697200D01*
X7278571Y-29697200D02*
X7230952Y-29649580D01*
X7230952Y-29649580D02*
X7183333Y-29554342D01*
X7183333Y-29554342D02*
X7135714Y-29363866D01*
X7135714Y-29363866D02*
X7135714Y-29125771D01*
X7135714Y-29125771D02*
X7183333Y-28935295D01*
X7183333Y-28935295D02*
X7230952Y-28840057D01*
X7230952Y-28840057D02*
X7278571Y-28792438D01*
X7278571Y-28792438D02*
X7373809Y-28744819D01*
X8135714Y-29744819D02*
X8135714Y-28744819D01*
X8230952Y-29363866D02*
X8516666Y-29744819D01*
X8516666Y-29078152D02*
X8135714Y-29459104D01*
D12*
X7283333Y-28041927D02*
X7150000Y-27851451D01*
X7054762Y-28041927D02*
X7054762Y-27641927D01*
X7054762Y-27641927D02*
X7207143Y-27641927D01*
X7207143Y-27641927D02*
X7245238Y-27660975D01*
X7245238Y-27660975D02*
X7264285Y-27680022D01*
X7264285Y-27680022D02*
X7283333Y-27718118D01*
X7283333Y-27718118D02*
X7283333Y-27775260D01*
X7283333Y-27775260D02*
X7264285Y-27813356D01*
X7264285Y-27813356D02*
X7245238Y-27832403D01*
X7245238Y-27832403D02*
X7207143Y-27851451D01*
X7207143Y-27851451D02*
X7054762Y-27851451D01*
X7626190Y-27775260D02*
X7626190Y-28041927D01*
X7530952Y-27622880D02*
X7435714Y-27908594D01*
X7435714Y-27908594D02*
X7683333Y-27908594D01*
D10*
X20024819Y-25547619D02*
X20024819Y-26119047D01*
X20024819Y-25833333D02*
X19024819Y-25833333D01*
X19024819Y-25833333D02*
X19167676Y-25928571D01*
X19167676Y-25928571D02*
X19262914Y-26023809D01*
X19262914Y-26023809D02*
X19310533Y-26119047D01*
X19024819Y-24928571D02*
X19024819Y-24833333D01*
X19024819Y-24833333D02*
X19072438Y-24738095D01*
X19072438Y-24738095D02*
X19120057Y-24690476D01*
X19120057Y-24690476D02*
X19215295Y-24642857D01*
X19215295Y-24642857D02*
X19405771Y-24595238D01*
X19405771Y-24595238D02*
X19643866Y-24595238D01*
X19643866Y-24595238D02*
X19834342Y-24642857D01*
X19834342Y-24642857D02*
X19929580Y-24690476D01*
X19929580Y-24690476D02*
X19977200Y-24738095D01*
X19977200Y-24738095D02*
X20024819Y-24833333D01*
X20024819Y-24833333D02*
X20024819Y-24928571D01*
X20024819Y-24928571D02*
X19977200Y-25023809D01*
X19977200Y-25023809D02*
X19929580Y-25071428D01*
X19929580Y-25071428D02*
X19834342Y-25119047D01*
X19834342Y-25119047D02*
X19643866Y-25166666D01*
X19643866Y-25166666D02*
X19405771Y-25166666D01*
X19405771Y-25166666D02*
X19215295Y-25119047D01*
X19215295Y-25119047D02*
X19120057Y-25071428D01*
X19120057Y-25071428D02*
X19072438Y-25023809D01*
X19072438Y-25023809D02*
X19024819Y-24928571D01*
X19024819Y-23976190D02*
X19024819Y-23880952D01*
X19024819Y-23880952D02*
X19072438Y-23785714D01*
X19072438Y-23785714D02*
X19120057Y-23738095D01*
X19120057Y-23738095D02*
X19215295Y-23690476D01*
X19215295Y-23690476D02*
X19405771Y-23642857D01*
X19405771Y-23642857D02*
X19643866Y-23642857D01*
X19643866Y-23642857D02*
X19834342Y-23690476D01*
X19834342Y-23690476D02*
X19929580Y-23738095D01*
X19929580Y-23738095D02*
X19977200Y-23785714D01*
X19977200Y-23785714D02*
X20024819Y-23880952D01*
X20024819Y-23880952D02*
X20024819Y-23976190D01*
X20024819Y-23976190D02*
X19977200Y-24071428D01*
X19977200Y-24071428D02*
X19929580Y-24119047D01*
X19929580Y-24119047D02*
X19834342Y-24166666D01*
X19834342Y-24166666D02*
X19643866Y-24214285D01*
X19643866Y-24214285D02*
X19405771Y-24214285D01*
X19405771Y-24214285D02*
X19215295Y-24166666D01*
X19215295Y-24166666D02*
X19120057Y-24119047D01*
X19120057Y-24119047D02*
X19072438Y-24071428D01*
X19072438Y-24071428D02*
X19024819Y-23976190D01*
X19358152Y-23214285D02*
X20024819Y-23214285D01*
X19453390Y-23214285D02*
X19405771Y-23166666D01*
X19405771Y-23166666D02*
X19358152Y-23071428D01*
X19358152Y-23071428D02*
X19358152Y-22928571D01*
X19358152Y-22928571D02*
X19405771Y-22833333D01*
X19405771Y-22833333D02*
X19501009Y-22785714D01*
X19501009Y-22785714D02*
X20024819Y-22785714D01*
X19501009Y-21976190D02*
X19501009Y-22309523D01*
X20024819Y-22309523D02*
X19024819Y-22309523D01*
X19024819Y-22309523D02*
X19024819Y-21833333D01*
D12*
X21143832Y-24066666D02*
X21162880Y-24085714D01*
X21162880Y-24085714D02*
X21181927Y-24142856D01*
X21181927Y-24142856D02*
X21181927Y-24180952D01*
X21181927Y-24180952D02*
X21162880Y-24238095D01*
X21162880Y-24238095D02*
X21124784Y-24276190D01*
X21124784Y-24276190D02*
X21086689Y-24295237D01*
X21086689Y-24295237D02*
X21010499Y-24314285D01*
X21010499Y-24314285D02*
X20953356Y-24314285D01*
X20953356Y-24314285D02*
X20877165Y-24295237D01*
X20877165Y-24295237D02*
X20839070Y-24276190D01*
X20839070Y-24276190D02*
X20800975Y-24238095D01*
X20800975Y-24238095D02*
X20781927Y-24180952D01*
X20781927Y-24180952D02*
X20781927Y-24142856D01*
X20781927Y-24142856D02*
X20800975Y-24085714D01*
X20800975Y-24085714D02*
X20820022Y-24066666D01*
X21181927Y-23876190D02*
X21181927Y-23799999D01*
X21181927Y-23799999D02*
X21162880Y-23761904D01*
X21162880Y-23761904D02*
X21143832Y-23742856D01*
X21143832Y-23742856D02*
X21086689Y-23704761D01*
X21086689Y-23704761D02*
X21010499Y-23685714D01*
X21010499Y-23685714D02*
X20858118Y-23685714D01*
X20858118Y-23685714D02*
X20820022Y-23704761D01*
X20820022Y-23704761D02*
X20800975Y-23723809D01*
X20800975Y-23723809D02*
X20781927Y-23761904D01*
X20781927Y-23761904D02*
X20781927Y-23838095D01*
X20781927Y-23838095D02*
X20800975Y-23876190D01*
X20800975Y-23876190D02*
X20820022Y-23895237D01*
X20820022Y-23895237D02*
X20858118Y-23914285D01*
X20858118Y-23914285D02*
X20953356Y-23914285D01*
X20953356Y-23914285D02*
X20991451Y-23895237D01*
X20991451Y-23895237D02*
X21010499Y-23876190D01*
X21010499Y-23876190D02*
X21029546Y-23838095D01*
X21029546Y-23838095D02*
X21029546Y-23761904D01*
X21029546Y-23761904D02*
X21010499Y-23723809D01*
X21010499Y-23723809D02*
X20991451Y-23704761D01*
X20991451Y-23704761D02*
X20953356Y-23685714D01*
D10*
X25752381Y-28380057D02*
X25800000Y-28332438D01*
X25800000Y-28332438D02*
X25895238Y-28284819D01*
X25895238Y-28284819D02*
X26133333Y-28284819D01*
X26133333Y-28284819D02*
X26228571Y-28332438D01*
X26228571Y-28332438D02*
X26276190Y-28380057D01*
X26276190Y-28380057D02*
X26323809Y-28475295D01*
X26323809Y-28475295D02*
X26323809Y-28570533D01*
X26323809Y-28570533D02*
X26276190Y-28713390D01*
X26276190Y-28713390D02*
X25704762Y-29284819D01*
X25704762Y-29284819D02*
X26323809Y-29284819D01*
X26704762Y-28380057D02*
X26752381Y-28332438D01*
X26752381Y-28332438D02*
X26847619Y-28284819D01*
X26847619Y-28284819D02*
X27085714Y-28284819D01*
X27085714Y-28284819D02*
X27180952Y-28332438D01*
X27180952Y-28332438D02*
X27228571Y-28380057D01*
X27228571Y-28380057D02*
X27276190Y-28475295D01*
X27276190Y-28475295D02*
X27276190Y-28570533D01*
X27276190Y-28570533D02*
X27228571Y-28713390D01*
X27228571Y-28713390D02*
X26657143Y-29284819D01*
X26657143Y-29284819D02*
X27276190Y-29284819D01*
X27704762Y-28618152D02*
X27704762Y-29284819D01*
X27704762Y-28713390D02*
X27752381Y-28665771D01*
X27752381Y-28665771D02*
X27847619Y-28618152D01*
X27847619Y-28618152D02*
X27990476Y-28618152D01*
X27990476Y-28618152D02*
X28085714Y-28665771D01*
X28085714Y-28665771D02*
X28133333Y-28761009D01*
X28133333Y-28761009D02*
X28133333Y-29284819D01*
X28942857Y-28761009D02*
X28609524Y-28761009D01*
X28609524Y-29284819D02*
X28609524Y-28284819D01*
X28609524Y-28284819D02*
X29085714Y-28284819D01*
X30180952Y-28237200D02*
X29323810Y-29522914D01*
X30990476Y-28284819D02*
X30514286Y-28284819D01*
X30514286Y-28284819D02*
X30466667Y-28761009D01*
X30466667Y-28761009D02*
X30514286Y-28713390D01*
X30514286Y-28713390D02*
X30609524Y-28665771D01*
X30609524Y-28665771D02*
X30847619Y-28665771D01*
X30847619Y-28665771D02*
X30942857Y-28713390D01*
X30942857Y-28713390D02*
X30990476Y-28761009D01*
X30990476Y-28761009D02*
X31038095Y-28856247D01*
X31038095Y-28856247D02*
X31038095Y-29094342D01*
X31038095Y-29094342D02*
X30990476Y-29189580D01*
X30990476Y-29189580D02*
X30942857Y-29237200D01*
X30942857Y-29237200D02*
X30847619Y-29284819D01*
X30847619Y-29284819D02*
X30609524Y-29284819D01*
X30609524Y-29284819D02*
X30514286Y-29237200D01*
X30514286Y-29237200D02*
X30466667Y-29189580D01*
X31657143Y-28284819D02*
X31752381Y-28284819D01*
X31752381Y-28284819D02*
X31847619Y-28332438D01*
X31847619Y-28332438D02*
X31895238Y-28380057D01*
X31895238Y-28380057D02*
X31942857Y-28475295D01*
X31942857Y-28475295D02*
X31990476Y-28665771D01*
X31990476Y-28665771D02*
X31990476Y-28903866D01*
X31990476Y-28903866D02*
X31942857Y-29094342D01*
X31942857Y-29094342D02*
X31895238Y-29189580D01*
X31895238Y-29189580D02*
X31847619Y-29237200D01*
X31847619Y-29237200D02*
X31752381Y-29284819D01*
X31752381Y-29284819D02*
X31657143Y-29284819D01*
X31657143Y-29284819D02*
X31561905Y-29237200D01*
X31561905Y-29237200D02*
X31514286Y-29189580D01*
X31514286Y-29189580D02*
X31466667Y-29094342D01*
X31466667Y-29094342D02*
X31419048Y-28903866D01*
X31419048Y-28903866D02*
X31419048Y-28665771D01*
X31419048Y-28665771D02*
X31466667Y-28475295D01*
X31466667Y-28475295D02*
X31514286Y-28380057D01*
X31514286Y-28380057D02*
X31561905Y-28332438D01*
X31561905Y-28332438D02*
X31657143Y-28284819D01*
X32276191Y-28284819D02*
X32609524Y-29284819D01*
X32609524Y-29284819D02*
X32942857Y-28284819D01*
D12*
X29233333Y-27543832D02*
X29214285Y-27562880D01*
X29214285Y-27562880D02*
X29157143Y-27581927D01*
X29157143Y-27581927D02*
X29119047Y-27581927D01*
X29119047Y-27581927D02*
X29061904Y-27562880D01*
X29061904Y-27562880D02*
X29023809Y-27524784D01*
X29023809Y-27524784D02*
X29004762Y-27486689D01*
X29004762Y-27486689D02*
X28985714Y-27410499D01*
X28985714Y-27410499D02*
X28985714Y-27353356D01*
X28985714Y-27353356D02*
X29004762Y-27277165D01*
X29004762Y-27277165D02*
X29023809Y-27239070D01*
X29023809Y-27239070D02*
X29061904Y-27200975D01*
X29061904Y-27200975D02*
X29119047Y-27181927D01*
X29119047Y-27181927D02*
X29157143Y-27181927D01*
X29157143Y-27181927D02*
X29214285Y-27200975D01*
X29214285Y-27200975D02*
X29233333Y-27220022D01*
X29576190Y-27181927D02*
X29500000Y-27181927D01*
X29500000Y-27181927D02*
X29461904Y-27200975D01*
X29461904Y-27200975D02*
X29442857Y-27220022D01*
X29442857Y-27220022D02*
X29404762Y-27277165D01*
X29404762Y-27277165D02*
X29385714Y-27353356D01*
X29385714Y-27353356D02*
X29385714Y-27505737D01*
X29385714Y-27505737D02*
X29404762Y-27543832D01*
X29404762Y-27543832D02*
X29423809Y-27562880D01*
X29423809Y-27562880D02*
X29461904Y-27581927D01*
X29461904Y-27581927D02*
X29538095Y-27581927D01*
X29538095Y-27581927D02*
X29576190Y-27562880D01*
X29576190Y-27562880D02*
X29595238Y-27543832D01*
X29595238Y-27543832D02*
X29614285Y-27505737D01*
X29614285Y-27505737D02*
X29614285Y-27410499D01*
X29614285Y-27410499D02*
X29595238Y-27372403D01*
X29595238Y-27372403D02*
X29576190Y-27353356D01*
X29576190Y-27353356D02*
X29538095Y-27334308D01*
X29538095Y-27334308D02*
X29461904Y-27334308D01*
X29461904Y-27334308D02*
X29423809Y-27353356D01*
X29423809Y-27353356D02*
X29404762Y-27372403D01*
X29404762Y-27372403D02*
X29385714Y-27410499D01*
D10*
X55276191Y-42954819D02*
X55276191Y-41954819D01*
X55276191Y-41954819D02*
X55609524Y-42669104D01*
X55609524Y-42669104D02*
X55942857Y-41954819D01*
X55942857Y-41954819D02*
X55942857Y-42954819D01*
X56371429Y-42050057D02*
X56419048Y-42002438D01*
X56419048Y-42002438D02*
X56514286Y-41954819D01*
X56514286Y-41954819D02*
X56752381Y-41954819D01*
X56752381Y-41954819D02*
X56847619Y-42002438D01*
X56847619Y-42002438D02*
X56895238Y-42050057D01*
X56895238Y-42050057D02*
X56942857Y-42145295D01*
X56942857Y-42145295D02*
X56942857Y-42240533D01*
X56942857Y-42240533D02*
X56895238Y-42383390D01*
X56895238Y-42383390D02*
X56323810Y-42954819D01*
X56323810Y-42954819D02*
X56942857Y-42954819D01*
X57371429Y-42859580D02*
X57419048Y-42907200D01*
X57419048Y-42907200D02*
X57371429Y-42954819D01*
X57371429Y-42954819D02*
X57323810Y-42907200D01*
X57323810Y-42907200D02*
X57371429Y-42859580D01*
X57371429Y-42859580D02*
X57371429Y-42954819D01*
X58323809Y-41954819D02*
X57847619Y-41954819D01*
X57847619Y-41954819D02*
X57800000Y-42431009D01*
X57800000Y-42431009D02*
X57847619Y-42383390D01*
X57847619Y-42383390D02*
X57942857Y-42335771D01*
X57942857Y-42335771D02*
X58180952Y-42335771D01*
X58180952Y-42335771D02*
X58276190Y-42383390D01*
X58276190Y-42383390D02*
X58323809Y-42431009D01*
X58323809Y-42431009D02*
X58371428Y-42526247D01*
X58371428Y-42526247D02*
X58371428Y-42764342D01*
X58371428Y-42764342D02*
X58323809Y-42859580D01*
X58323809Y-42859580D02*
X58276190Y-42907200D01*
X58276190Y-42907200D02*
X58180952Y-42954819D01*
X58180952Y-42954819D02*
X57942857Y-42954819D01*
X57942857Y-42954819D02*
X57847619Y-42907200D01*
X57847619Y-42907200D02*
X57800000Y-42859580D01*
X56038095Y-39254819D02*
X56038095Y-38254819D01*
X56038095Y-38731009D02*
X56609523Y-38731009D01*
X56609523Y-39254819D02*
X56609523Y-38254819D01*
X57038095Y-38350057D02*
X57085714Y-38302438D01*
X57085714Y-38302438D02*
X57180952Y-38254819D01*
X57180952Y-38254819D02*
X57419047Y-38254819D01*
X57419047Y-38254819D02*
X57514285Y-38302438D01*
X57514285Y-38302438D02*
X57561904Y-38350057D01*
X57561904Y-38350057D02*
X57609523Y-38445295D01*
X57609523Y-38445295D02*
X57609523Y-38540533D01*
X57609523Y-38540533D02*
X57561904Y-38683390D01*
X57561904Y-38683390D02*
X56990476Y-39254819D01*
X56990476Y-39254819D02*
X57609523Y-39254819D01*
X7904761Y-24664819D02*
X7333333Y-24664819D01*
X7619047Y-24664819D02*
X7619047Y-23664819D01*
X7619047Y-23664819D02*
X7523809Y-23807676D01*
X7523809Y-23807676D02*
X7428571Y-23902914D01*
X7428571Y-23902914D02*
X7333333Y-23950533D01*
X8523809Y-23664819D02*
X8619047Y-23664819D01*
X8619047Y-23664819D02*
X8714285Y-23712438D01*
X8714285Y-23712438D02*
X8761904Y-23760057D01*
X8761904Y-23760057D02*
X8809523Y-23855295D01*
X8809523Y-23855295D02*
X8857142Y-24045771D01*
X8857142Y-24045771D02*
X8857142Y-24283866D01*
X8857142Y-24283866D02*
X8809523Y-24474342D01*
X8809523Y-24474342D02*
X8761904Y-24569580D01*
X8761904Y-24569580D02*
X8714285Y-24617200D01*
X8714285Y-24617200D02*
X8619047Y-24664819D01*
X8619047Y-24664819D02*
X8523809Y-24664819D01*
X8523809Y-24664819D02*
X8428571Y-24617200D01*
X8428571Y-24617200D02*
X8380952Y-24569580D01*
X8380952Y-24569580D02*
X8333333Y-24474342D01*
X8333333Y-24474342D02*
X8285714Y-24283866D01*
X8285714Y-24283866D02*
X8285714Y-24045771D01*
X8285714Y-24045771D02*
X8333333Y-23855295D01*
X8333333Y-23855295D02*
X8380952Y-23760057D01*
X8380952Y-23760057D02*
X8428571Y-23712438D01*
X8428571Y-23712438D02*
X8523809Y-23664819D01*
X9285714Y-24664819D02*
X9285714Y-23664819D01*
X9380952Y-24283866D02*
X9666666Y-24664819D01*
X9666666Y-23998152D02*
X9285714Y-24379104D01*
D12*
X8433333Y-22961927D02*
X8300000Y-22771451D01*
X8204762Y-22961927D02*
X8204762Y-22561927D01*
X8204762Y-22561927D02*
X8357143Y-22561927D01*
X8357143Y-22561927D02*
X8395238Y-22580975D01*
X8395238Y-22580975D02*
X8414285Y-22600022D01*
X8414285Y-22600022D02*
X8433333Y-22638118D01*
X8433333Y-22638118D02*
X8433333Y-22695260D01*
X8433333Y-22695260D02*
X8414285Y-22733356D01*
X8414285Y-22733356D02*
X8395238Y-22752403D01*
X8395238Y-22752403D02*
X8357143Y-22771451D01*
X8357143Y-22771451D02*
X8204762Y-22771451D01*
X8566666Y-22561927D02*
X8833333Y-22561927D01*
X8833333Y-22561927D02*
X8661904Y-22961927D01*
D10*
X38307200Y-9619047D02*
X38354819Y-9476190D01*
X38354819Y-9476190D02*
X38354819Y-9238095D01*
X38354819Y-9238095D02*
X38307200Y-9142857D01*
X38307200Y-9142857D02*
X38259580Y-9095238D01*
X38259580Y-9095238D02*
X38164342Y-9047619D01*
X38164342Y-9047619D02*
X38069104Y-9047619D01*
X38069104Y-9047619D02*
X37973866Y-9095238D01*
X37973866Y-9095238D02*
X37926247Y-9142857D01*
X37926247Y-9142857D02*
X37878628Y-9238095D01*
X37878628Y-9238095D02*
X37831009Y-9428571D01*
X37831009Y-9428571D02*
X37783390Y-9523809D01*
X37783390Y-9523809D02*
X37735771Y-9571428D01*
X37735771Y-9571428D02*
X37640533Y-9619047D01*
X37640533Y-9619047D02*
X37545295Y-9619047D01*
X37545295Y-9619047D02*
X37450057Y-9571428D01*
X37450057Y-9571428D02*
X37402438Y-9523809D01*
X37402438Y-9523809D02*
X37354819Y-9428571D01*
X37354819Y-9428571D02*
X37354819Y-9190476D01*
X37354819Y-9190476D02*
X37402438Y-9047619D01*
X38354819Y-8619047D02*
X37354819Y-8619047D01*
X37354819Y-8619047D02*
X38069104Y-8285714D01*
X38069104Y-8285714D02*
X37354819Y-7952381D01*
X37354819Y-7952381D02*
X38354819Y-7952381D01*
X37831009Y-7142857D02*
X37878628Y-7000000D01*
X37878628Y-7000000D02*
X37926247Y-6952381D01*
X37926247Y-6952381D02*
X38021485Y-6904762D01*
X38021485Y-6904762D02*
X38164342Y-6904762D01*
X38164342Y-6904762D02*
X38259580Y-6952381D01*
X38259580Y-6952381D02*
X38307200Y-7000000D01*
X38307200Y-7000000D02*
X38354819Y-7095238D01*
X38354819Y-7095238D02*
X38354819Y-7476190D01*
X38354819Y-7476190D02*
X37354819Y-7476190D01*
X37354819Y-7476190D02*
X37354819Y-7142857D01*
X37354819Y-7142857D02*
X37402438Y-7047619D01*
X37402438Y-7047619D02*
X37450057Y-7000000D01*
X37450057Y-7000000D02*
X37545295Y-6952381D01*
X37545295Y-6952381D02*
X37640533Y-6952381D01*
X37640533Y-6952381D02*
X37735771Y-7000000D01*
X37735771Y-7000000D02*
X37783390Y-7047619D01*
X37783390Y-7047619D02*
X37831009Y-7142857D01*
X37831009Y-7142857D02*
X37831009Y-7476190D01*
X37354819Y-6190476D02*
X38069104Y-6190476D01*
X38069104Y-6190476D02*
X38211961Y-6238095D01*
X38211961Y-6238095D02*
X38307200Y-6333333D01*
X38307200Y-6333333D02*
X38354819Y-6476190D01*
X38354819Y-6476190D02*
X38354819Y-6571428D01*
X37354819Y-5809523D02*
X37354819Y-5190476D01*
X37354819Y-5190476D02*
X37735771Y-5523809D01*
X37735771Y-5523809D02*
X37735771Y-5380952D01*
X37735771Y-5380952D02*
X37783390Y-5285714D01*
X37783390Y-5285714D02*
X37831009Y-5238095D01*
X37831009Y-5238095D02*
X37926247Y-5190476D01*
X37926247Y-5190476D02*
X38164342Y-5190476D01*
X38164342Y-5190476D02*
X38259580Y-5238095D01*
X38259580Y-5238095D02*
X38307200Y-5285714D01*
X38307200Y-5285714D02*
X38354819Y-5380952D01*
X38354819Y-5380952D02*
X38354819Y-5666666D01*
X38354819Y-5666666D02*
X38307200Y-5761904D01*
X38307200Y-5761904D02*
X38259580Y-5809523D01*
X37354819Y-4857142D02*
X37354819Y-4238095D01*
X37354819Y-4238095D02*
X37735771Y-4571428D01*
X37735771Y-4571428D02*
X37735771Y-4428571D01*
X37735771Y-4428571D02*
X37783390Y-4333333D01*
X37783390Y-4333333D02*
X37831009Y-4285714D01*
X37831009Y-4285714D02*
X37926247Y-4238095D01*
X37926247Y-4238095D02*
X38164342Y-4238095D01*
X38164342Y-4238095D02*
X38259580Y-4285714D01*
X38259580Y-4285714D02*
X38307200Y-4333333D01*
X38307200Y-4333333D02*
X38354819Y-4428571D01*
X38354819Y-4428571D02*
X38354819Y-4714285D01*
X38354819Y-4714285D02*
X38307200Y-4809523D01*
X38307200Y-4809523D02*
X38259580Y-4857142D01*
X38069104Y-3857142D02*
X38069104Y-3380952D01*
X38354819Y-3952380D02*
X37354819Y-3619047D01*
X37354819Y-3619047D02*
X38354819Y-3285714D01*
X44454819Y-7238094D02*
X43454819Y-7238094D01*
X43454819Y-7238094D02*
X43454819Y-6999999D01*
X43454819Y-6999999D02*
X43502438Y-6857142D01*
X43502438Y-6857142D02*
X43597676Y-6761904D01*
X43597676Y-6761904D02*
X43692914Y-6714285D01*
X43692914Y-6714285D02*
X43883390Y-6666666D01*
X43883390Y-6666666D02*
X44026247Y-6666666D01*
X44026247Y-6666666D02*
X44216723Y-6714285D01*
X44216723Y-6714285D02*
X44311961Y-6761904D01*
X44311961Y-6761904D02*
X44407200Y-6857142D01*
X44407200Y-6857142D02*
X44454819Y-6999999D01*
X44454819Y-6999999D02*
X44454819Y-7238094D01*
X44454819Y-5714285D02*
X44454819Y-6285713D01*
X44454819Y-5999999D02*
X43454819Y-5999999D01*
X43454819Y-5999999D02*
X43597676Y-6095237D01*
X43597676Y-6095237D02*
X43692914Y-6190475D01*
X43692914Y-6190475D02*
X43740533Y-6285713D01*
X32421009Y-41476190D02*
X32421009Y-41142857D01*
X32944819Y-41000000D02*
X32944819Y-41476190D01*
X32944819Y-41476190D02*
X31944819Y-41476190D01*
X31944819Y-41476190D02*
X31944819Y-41000000D01*
X32944819Y-40571428D02*
X31944819Y-40571428D01*
X31944819Y-40571428D02*
X32944819Y-40000000D01*
X32944819Y-40000000D02*
X31944819Y-40000000D01*
X32849580Y-38952381D02*
X32897200Y-39000000D01*
X32897200Y-39000000D02*
X32944819Y-39142857D01*
X32944819Y-39142857D02*
X32944819Y-39238095D01*
X32944819Y-39238095D02*
X32897200Y-39380952D01*
X32897200Y-39380952D02*
X32801961Y-39476190D01*
X32801961Y-39476190D02*
X32706723Y-39523809D01*
X32706723Y-39523809D02*
X32516247Y-39571428D01*
X32516247Y-39571428D02*
X32373390Y-39571428D01*
X32373390Y-39571428D02*
X32182914Y-39523809D01*
X32182914Y-39523809D02*
X32087676Y-39476190D01*
X32087676Y-39476190D02*
X31992438Y-39380952D01*
X31992438Y-39380952D02*
X31944819Y-39238095D01*
X31944819Y-39238095D02*
X31944819Y-39142857D01*
X31944819Y-39142857D02*
X31992438Y-39000000D01*
X31992438Y-39000000D02*
X32040057Y-38952381D01*
X32944819Y-37238095D02*
X32944819Y-37809523D01*
X32944819Y-37523809D02*
X31944819Y-37523809D01*
X31944819Y-37523809D02*
X32087676Y-37619047D01*
X32087676Y-37619047D02*
X32182914Y-37714285D01*
X32182914Y-37714285D02*
X32230533Y-37809523D01*
X32944819Y-36904761D02*
X32278152Y-36380952D01*
X32278152Y-36904761D02*
X32944819Y-36380952D01*
X31944819Y-35523809D02*
X31944819Y-35999999D01*
X31944819Y-35999999D02*
X32421009Y-36047618D01*
X32421009Y-36047618D02*
X32373390Y-35999999D01*
X32373390Y-35999999D02*
X32325771Y-35904761D01*
X32325771Y-35904761D02*
X32325771Y-35666666D01*
X32325771Y-35666666D02*
X32373390Y-35571428D01*
X32373390Y-35571428D02*
X32421009Y-35523809D01*
X32421009Y-35523809D02*
X32516247Y-35476190D01*
X32516247Y-35476190D02*
X32754342Y-35476190D01*
X32754342Y-35476190D02*
X32849580Y-35523809D01*
X32849580Y-35523809D02*
X32897200Y-35571428D01*
X32897200Y-35571428D02*
X32944819Y-35666666D01*
X32944819Y-35666666D02*
X32944819Y-35904761D01*
X32944819Y-35904761D02*
X32897200Y-35999999D01*
X32897200Y-35999999D02*
X32849580Y-36047618D01*
X24746666Y-37954819D02*
X24746666Y-38669104D01*
X24746666Y-38669104D02*
X24699047Y-38811961D01*
X24699047Y-38811961D02*
X24603809Y-38907200D01*
X24603809Y-38907200D02*
X24460952Y-38954819D01*
X24460952Y-38954819D02*
X24365714Y-38954819D01*
X25651428Y-38288152D02*
X25651428Y-38954819D01*
X25413333Y-37907200D02*
X25175238Y-38621485D01*
X25175238Y-38621485D02*
X25794285Y-38621485D01*
X27023809Y-2507200D02*
X27166666Y-2554819D01*
X27166666Y-2554819D02*
X27404761Y-2554819D01*
X27404761Y-2554819D02*
X27499999Y-2507200D01*
X27499999Y-2507200D02*
X27547618Y-2459580D01*
X27547618Y-2459580D02*
X27595237Y-2364342D01*
X27595237Y-2364342D02*
X27595237Y-2269104D01*
X27595237Y-2269104D02*
X27547618Y-2173866D01*
X27547618Y-2173866D02*
X27499999Y-2126247D01*
X27499999Y-2126247D02*
X27404761Y-2078628D01*
X27404761Y-2078628D02*
X27214285Y-2031009D01*
X27214285Y-2031009D02*
X27119047Y-1983390D01*
X27119047Y-1983390D02*
X27071428Y-1935771D01*
X27071428Y-1935771D02*
X27023809Y-1840533D01*
X27023809Y-1840533D02*
X27023809Y-1745295D01*
X27023809Y-1745295D02*
X27071428Y-1650057D01*
X27071428Y-1650057D02*
X27119047Y-1602438D01*
X27119047Y-1602438D02*
X27214285Y-1554819D01*
X27214285Y-1554819D02*
X27452380Y-1554819D01*
X27452380Y-1554819D02*
X27595237Y-1602438D01*
X28023809Y-2173866D02*
X28785714Y-2173866D01*
X29738094Y-2554819D02*
X29261904Y-2554819D01*
X29261904Y-2554819D02*
X29261904Y-1554819D01*
X30071428Y-2554819D02*
X30071428Y-1554819D01*
X30071428Y-1554819D02*
X30452380Y-1554819D01*
X30452380Y-1554819D02*
X30547618Y-1602438D01*
X30547618Y-1602438D02*
X30595237Y-1650057D01*
X30595237Y-1650057D02*
X30642856Y-1745295D01*
X30642856Y-1745295D02*
X30642856Y-1888152D01*
X30642856Y-1888152D02*
X30595237Y-1983390D01*
X30595237Y-1983390D02*
X30547618Y-2031009D01*
X30547618Y-2031009D02*
X30452380Y-2078628D01*
X30452380Y-2078628D02*
X30071428Y-2078628D01*
X31023809Y-1650057D02*
X31071428Y-1602438D01*
X31071428Y-1602438D02*
X31166666Y-1554819D01*
X31166666Y-1554819D02*
X31404761Y-1554819D01*
X31404761Y-1554819D02*
X31499999Y-1602438D01*
X31499999Y-1602438D02*
X31547618Y-1650057D01*
X31547618Y-1650057D02*
X31595237Y-1745295D01*
X31595237Y-1745295D02*
X31595237Y-1840533D01*
X31595237Y-1840533D02*
X31547618Y-1983390D01*
X31547618Y-1983390D02*
X30976190Y-2554819D01*
X30976190Y-2554819D02*
X31595237Y-2554819D01*
X32452380Y-1888152D02*
X32452380Y-2554819D01*
X32214285Y-1507200D02*
X31976190Y-2221485D01*
X31976190Y-2221485D02*
X32595237Y-2221485D01*
X33166666Y-1554819D02*
X33261904Y-1554819D01*
X33261904Y-1554819D02*
X33357142Y-1602438D01*
X33357142Y-1602438D02*
X33404761Y-1650057D01*
X33404761Y-1650057D02*
X33452380Y-1745295D01*
X33452380Y-1745295D02*
X33499999Y-1935771D01*
X33499999Y-1935771D02*
X33499999Y-2173866D01*
X33499999Y-2173866D02*
X33452380Y-2364342D01*
X33452380Y-2364342D02*
X33404761Y-2459580D01*
X33404761Y-2459580D02*
X33357142Y-2507200D01*
X33357142Y-2507200D02*
X33261904Y-2554819D01*
X33261904Y-2554819D02*
X33166666Y-2554819D01*
X33166666Y-2554819D02*
X33071428Y-2507200D01*
X33071428Y-2507200D02*
X33023809Y-2459580D01*
X33023809Y-2459580D02*
X32976190Y-2364342D01*
X32976190Y-2364342D02*
X32928571Y-2173866D01*
X32928571Y-2173866D02*
X32928571Y-1935771D01*
X32928571Y-1935771D02*
X32976190Y-1745295D01*
X32976190Y-1745295D02*
X33023809Y-1650057D01*
X33023809Y-1650057D02*
X33071428Y-1602438D01*
X33071428Y-1602438D02*
X33166666Y-1554819D01*
X34071428Y-1983390D02*
X33976190Y-1935771D01*
X33976190Y-1935771D02*
X33928571Y-1888152D01*
X33928571Y-1888152D02*
X33880952Y-1792914D01*
X33880952Y-1792914D02*
X33880952Y-1745295D01*
X33880952Y-1745295D02*
X33928571Y-1650057D01*
X33928571Y-1650057D02*
X33976190Y-1602438D01*
X33976190Y-1602438D02*
X34071428Y-1554819D01*
X34071428Y-1554819D02*
X34261904Y-1554819D01*
X34261904Y-1554819D02*
X34357142Y-1602438D01*
X34357142Y-1602438D02*
X34404761Y-1650057D01*
X34404761Y-1650057D02*
X34452380Y-1745295D01*
X34452380Y-1745295D02*
X34452380Y-1792914D01*
X34452380Y-1792914D02*
X34404761Y-1888152D01*
X34404761Y-1888152D02*
X34357142Y-1935771D01*
X34357142Y-1935771D02*
X34261904Y-1983390D01*
X34261904Y-1983390D02*
X34071428Y-1983390D01*
X34071428Y-1983390D02*
X33976190Y-2031009D01*
X33976190Y-2031009D02*
X33928571Y-2078628D01*
X33928571Y-2078628D02*
X33880952Y-2173866D01*
X33880952Y-2173866D02*
X33880952Y-2364342D01*
X33880952Y-2364342D02*
X33928571Y-2459580D01*
X33928571Y-2459580D02*
X33976190Y-2507200D01*
X33976190Y-2507200D02*
X34071428Y-2554819D01*
X34071428Y-2554819D02*
X34261904Y-2554819D01*
X34261904Y-2554819D02*
X34357142Y-2507200D01*
X34357142Y-2507200D02*
X34404761Y-2459580D01*
X34404761Y-2459580D02*
X34452380Y-2364342D01*
X34452380Y-2364342D02*
X34452380Y-2173866D01*
X34452380Y-2173866D02*
X34404761Y-2078628D01*
X34404761Y-2078628D02*
X34357142Y-2031009D01*
X34357142Y-2031009D02*
X34261904Y-1983390D01*
X35357142Y-2554819D02*
X34880952Y-2554819D01*
X34880952Y-2554819D02*
X34880952Y-1554819D01*
X35547619Y-1554819D02*
X36119047Y-1554819D01*
X35833333Y-2554819D02*
X35833333Y-1554819D01*
X36976190Y-2554819D02*
X36404762Y-2554819D01*
X36690476Y-2554819D02*
X36690476Y-1554819D01*
X36690476Y-1554819D02*
X36595238Y-1697676D01*
X36595238Y-1697676D02*
X36500000Y-1792914D01*
X36500000Y-1792914D02*
X36404762Y-1840533D01*
X37928571Y-1602438D02*
X37833333Y-1554819D01*
X37833333Y-1554819D02*
X37690476Y-1554819D01*
X37690476Y-1554819D02*
X37547619Y-1602438D01*
X37547619Y-1602438D02*
X37452381Y-1697676D01*
X37452381Y-1697676D02*
X37404762Y-1792914D01*
X37404762Y-1792914D02*
X37357143Y-1983390D01*
X37357143Y-1983390D02*
X37357143Y-2126247D01*
X37357143Y-2126247D02*
X37404762Y-2316723D01*
X37404762Y-2316723D02*
X37452381Y-2411961D01*
X37452381Y-2411961D02*
X37547619Y-2507200D01*
X37547619Y-2507200D02*
X37690476Y-2554819D01*
X37690476Y-2554819D02*
X37785714Y-2554819D01*
X37785714Y-2554819D02*
X37928571Y-2507200D01*
X37928571Y-2507200D02*
X37976190Y-2459580D01*
X37976190Y-2459580D02*
X37976190Y-2126247D01*
X37976190Y-2126247D02*
X37785714Y-2126247D01*
D13*
X32469523Y-4675914D02*
X32439047Y-4660676D01*
X32439047Y-4660676D02*
X32408571Y-4630200D01*
X32408571Y-4630200D02*
X32362857Y-4584485D01*
X32362857Y-4584485D02*
X32332380Y-4569247D01*
X32332380Y-4569247D02*
X32301904Y-4569247D01*
X32317142Y-4645438D02*
X32286666Y-4630200D01*
X32286666Y-4630200D02*
X32256190Y-4599723D01*
X32256190Y-4599723D02*
X32240952Y-4538771D01*
X32240952Y-4538771D02*
X32240952Y-4432104D01*
X32240952Y-4432104D02*
X32256190Y-4371152D01*
X32256190Y-4371152D02*
X32286666Y-4340676D01*
X32286666Y-4340676D02*
X32317142Y-4325438D01*
X32317142Y-4325438D02*
X32378095Y-4325438D01*
X32378095Y-4325438D02*
X32408571Y-4340676D01*
X32408571Y-4340676D02*
X32439047Y-4371152D01*
X32439047Y-4371152D02*
X32454285Y-4432104D01*
X32454285Y-4432104D02*
X32454285Y-4538771D01*
X32454285Y-4538771D02*
X32439047Y-4599723D01*
X32439047Y-4599723D02*
X32408571Y-4630200D01*
X32408571Y-4630200D02*
X32378095Y-4645438D01*
X32378095Y-4645438D02*
X32317142Y-4645438D01*
X32759047Y-4645438D02*
X32576190Y-4645438D01*
X32667618Y-4645438D02*
X32667618Y-4325438D01*
X32667618Y-4325438D02*
X32637142Y-4371152D01*
X32637142Y-4371152D02*
X32606666Y-4401628D01*
X32606666Y-4401628D02*
X32576190Y-4416866D01*
D10*
X24104819Y-35395238D02*
X24104819Y-35966666D01*
X24104819Y-35680952D02*
X23104819Y-35680952D01*
X23104819Y-35680952D02*
X23247676Y-35776190D01*
X23247676Y-35776190D02*
X23342914Y-35871428D01*
X23342914Y-35871428D02*
X23390533Y-35966666D01*
X23104819Y-34776190D02*
X23104819Y-34680952D01*
X23104819Y-34680952D02*
X23152438Y-34585714D01*
X23152438Y-34585714D02*
X23200057Y-34538095D01*
X23200057Y-34538095D02*
X23295295Y-34490476D01*
X23295295Y-34490476D02*
X23485771Y-34442857D01*
X23485771Y-34442857D02*
X23723866Y-34442857D01*
X23723866Y-34442857D02*
X23914342Y-34490476D01*
X23914342Y-34490476D02*
X24009580Y-34538095D01*
X24009580Y-34538095D02*
X24057200Y-34585714D01*
X24057200Y-34585714D02*
X24104819Y-34680952D01*
X24104819Y-34680952D02*
X24104819Y-34776190D01*
X24104819Y-34776190D02*
X24057200Y-34871428D01*
X24057200Y-34871428D02*
X24009580Y-34919047D01*
X24009580Y-34919047D02*
X23914342Y-34966666D01*
X23914342Y-34966666D02*
X23723866Y-35014285D01*
X23723866Y-35014285D02*
X23485771Y-35014285D01*
X23485771Y-35014285D02*
X23295295Y-34966666D01*
X23295295Y-34966666D02*
X23200057Y-34919047D01*
X23200057Y-34919047D02*
X23152438Y-34871428D01*
X23152438Y-34871428D02*
X23104819Y-34776190D01*
X24104819Y-34014285D02*
X23104819Y-34014285D01*
X23723866Y-33919047D02*
X24104819Y-33633333D01*
X23438152Y-33633333D02*
X23819104Y-34014285D01*
D12*
X25261927Y-35057142D02*
X25071451Y-35190475D01*
X25261927Y-35285713D02*
X24861927Y-35285713D01*
X24861927Y-35285713D02*
X24861927Y-35133332D01*
X24861927Y-35133332D02*
X24880975Y-35095237D01*
X24880975Y-35095237D02*
X24900022Y-35076190D01*
X24900022Y-35076190D02*
X24938118Y-35057142D01*
X24938118Y-35057142D02*
X24995260Y-35057142D01*
X24995260Y-35057142D02*
X25033356Y-35076190D01*
X25033356Y-35076190D02*
X25052403Y-35095237D01*
X25052403Y-35095237D02*
X25071451Y-35133332D01*
X25071451Y-35133332D02*
X25071451Y-35285713D01*
X25261927Y-34676190D02*
X25261927Y-34904761D01*
X25261927Y-34790475D02*
X24861927Y-34790475D01*
X24861927Y-34790475D02*
X24919070Y-34828571D01*
X24919070Y-34828571D02*
X24957165Y-34866666D01*
X24957165Y-34866666D02*
X24976213Y-34904761D01*
X24861927Y-34428571D02*
X24861927Y-34390476D01*
X24861927Y-34390476D02*
X24880975Y-34352380D01*
X24880975Y-34352380D02*
X24900022Y-34333333D01*
X24900022Y-34333333D02*
X24938118Y-34314285D01*
X24938118Y-34314285D02*
X25014308Y-34295238D01*
X25014308Y-34295238D02*
X25109546Y-34295238D01*
X25109546Y-34295238D02*
X25185737Y-34314285D01*
X25185737Y-34314285D02*
X25223832Y-34333333D01*
X25223832Y-34333333D02*
X25242880Y-34352380D01*
X25242880Y-34352380D02*
X25261927Y-34390476D01*
X25261927Y-34390476D02*
X25261927Y-34428571D01*
X25261927Y-34428571D02*
X25242880Y-34466666D01*
X25242880Y-34466666D02*
X25223832Y-34485714D01*
X25223832Y-34485714D02*
X25185737Y-34504761D01*
X25185737Y-34504761D02*
X25109546Y-34523809D01*
X25109546Y-34523809D02*
X25014308Y-34523809D01*
X25014308Y-34523809D02*
X24938118Y-34504761D01*
X24938118Y-34504761D02*
X24900022Y-34485714D01*
X24900022Y-34485714D02*
X24880975Y-34466666D01*
X24880975Y-34466666D02*
X24861927Y-34428571D01*
D10*
X29999999Y-32634819D02*
X29428571Y-32634819D01*
X29714285Y-32634819D02*
X29714285Y-31634819D01*
X29714285Y-31634819D02*
X29619047Y-31777676D01*
X29619047Y-31777676D02*
X29523809Y-31872914D01*
X29523809Y-31872914D02*
X29428571Y-31920533D01*
X30857142Y-31968152D02*
X30857142Y-32634819D01*
X30428571Y-31968152D02*
X30428571Y-32491961D01*
X30428571Y-32491961D02*
X30476190Y-32587200D01*
X30476190Y-32587200D02*
X30571428Y-32634819D01*
X30571428Y-32634819D02*
X30714285Y-32634819D01*
X30714285Y-32634819D02*
X30809523Y-32587200D01*
X30809523Y-32587200D02*
X30857142Y-32539580D01*
X31666666Y-32111009D02*
X31333333Y-32111009D01*
X31333333Y-32634819D02*
X31333333Y-31634819D01*
X31333333Y-31634819D02*
X31809523Y-31634819D01*
X32904761Y-31587200D02*
X32047619Y-32872914D01*
X33714285Y-31634819D02*
X33238095Y-31634819D01*
X33238095Y-31634819D02*
X33190476Y-32111009D01*
X33190476Y-32111009D02*
X33238095Y-32063390D01*
X33238095Y-32063390D02*
X33333333Y-32015771D01*
X33333333Y-32015771D02*
X33571428Y-32015771D01*
X33571428Y-32015771D02*
X33666666Y-32063390D01*
X33666666Y-32063390D02*
X33714285Y-32111009D01*
X33714285Y-32111009D02*
X33761904Y-32206247D01*
X33761904Y-32206247D02*
X33761904Y-32444342D01*
X33761904Y-32444342D02*
X33714285Y-32539580D01*
X33714285Y-32539580D02*
X33666666Y-32587200D01*
X33666666Y-32587200D02*
X33571428Y-32634819D01*
X33571428Y-32634819D02*
X33333333Y-32634819D01*
X33333333Y-32634819D02*
X33238095Y-32587200D01*
X33238095Y-32587200D02*
X33190476Y-32539580D01*
X34380952Y-31634819D02*
X34476190Y-31634819D01*
X34476190Y-31634819D02*
X34571428Y-31682438D01*
X34571428Y-31682438D02*
X34619047Y-31730057D01*
X34619047Y-31730057D02*
X34666666Y-31825295D01*
X34666666Y-31825295D02*
X34714285Y-32015771D01*
X34714285Y-32015771D02*
X34714285Y-32253866D01*
X34714285Y-32253866D02*
X34666666Y-32444342D01*
X34666666Y-32444342D02*
X34619047Y-32539580D01*
X34619047Y-32539580D02*
X34571428Y-32587200D01*
X34571428Y-32587200D02*
X34476190Y-32634819D01*
X34476190Y-32634819D02*
X34380952Y-32634819D01*
X34380952Y-32634819D02*
X34285714Y-32587200D01*
X34285714Y-32587200D02*
X34238095Y-32539580D01*
X34238095Y-32539580D02*
X34190476Y-32444342D01*
X34190476Y-32444342D02*
X34142857Y-32253866D01*
X34142857Y-32253866D02*
X34142857Y-32015771D01*
X34142857Y-32015771D02*
X34190476Y-31825295D01*
X34190476Y-31825295D02*
X34238095Y-31730057D01*
X34238095Y-31730057D02*
X34285714Y-31682438D01*
X34285714Y-31682438D02*
X34380952Y-31634819D01*
X35000000Y-31634819D02*
X35333333Y-32634819D01*
X35333333Y-32634819D02*
X35666666Y-31634819D01*
D11*
X32416666Y-30679530D02*
X32392857Y-30703340D01*
X32392857Y-30703340D02*
X32321428Y-30727149D01*
X32321428Y-30727149D02*
X32273809Y-30727149D01*
X32273809Y-30727149D02*
X32202381Y-30703340D01*
X32202381Y-30703340D02*
X32154762Y-30655720D01*
X32154762Y-30655720D02*
X32130952Y-30608101D01*
X32130952Y-30608101D02*
X32107143Y-30512863D01*
X32107143Y-30512863D02*
X32107143Y-30441435D01*
X32107143Y-30441435D02*
X32130952Y-30346197D01*
X32130952Y-30346197D02*
X32154762Y-30298578D01*
X32154762Y-30298578D02*
X32202381Y-30250959D01*
X32202381Y-30250959D02*
X32273809Y-30227149D01*
X32273809Y-30227149D02*
X32321428Y-30227149D01*
X32321428Y-30227149D02*
X32392857Y-30250959D01*
X32392857Y-30250959D02*
X32416666Y-30274768D01*
X32583333Y-30227149D02*
X32892857Y-30227149D01*
X32892857Y-30227149D02*
X32726190Y-30417625D01*
X32726190Y-30417625D02*
X32797619Y-30417625D01*
X32797619Y-30417625D02*
X32845238Y-30441435D01*
X32845238Y-30441435D02*
X32869047Y-30465244D01*
X32869047Y-30465244D02*
X32892857Y-30512863D01*
X32892857Y-30512863D02*
X32892857Y-30631911D01*
X32892857Y-30631911D02*
X32869047Y-30679530D01*
X32869047Y-30679530D02*
X32845238Y-30703340D01*
X32845238Y-30703340D02*
X32797619Y-30727149D01*
X32797619Y-30727149D02*
X32654762Y-30727149D01*
X32654762Y-30727149D02*
X32607143Y-30703340D01*
X32607143Y-30703340D02*
X32583333Y-30679530D01*
D10*
X11635238Y-9653866D02*
X12397143Y-9653866D01*
X12016190Y-10034819D02*
X12016190Y-9272914D01*
X12825714Y-9130057D02*
X12873333Y-9082438D01*
X12873333Y-9082438D02*
X12968571Y-9034819D01*
X12968571Y-9034819D02*
X13206666Y-9034819D01*
X13206666Y-9034819D02*
X13301904Y-9082438D01*
X13301904Y-9082438D02*
X13349523Y-9130057D01*
X13349523Y-9130057D02*
X13397142Y-9225295D01*
X13397142Y-9225295D02*
X13397142Y-9320533D01*
X13397142Y-9320533D02*
X13349523Y-9463390D01*
X13349523Y-9463390D02*
X12778095Y-10034819D01*
X12778095Y-10034819D02*
X13397142Y-10034819D01*
X14254285Y-9368152D02*
X14254285Y-10034819D01*
X14016190Y-8987200D02*
X13778095Y-9701485D01*
X13778095Y-9701485D02*
X14397142Y-9701485D01*
X14635238Y-9034819D02*
X14968571Y-10034819D01*
X14968571Y-10034819D02*
X15301904Y-9034819D01*
X16397143Y-10034819D02*
X16397143Y-9034819D01*
X16873333Y-10034819D02*
X16873333Y-9034819D01*
X16873333Y-9034819D02*
X17444761Y-10034819D01*
X17444761Y-10034819D02*
X17444761Y-9034819D01*
X14206666Y-3954819D02*
X14206666Y-4669104D01*
X14206666Y-4669104D02*
X14159047Y-4811961D01*
X14159047Y-4811961D02*
X14063809Y-4907200D01*
X14063809Y-4907200D02*
X13920952Y-4954819D01*
X13920952Y-4954819D02*
X13825714Y-4954819D01*
X14635238Y-4050057D02*
X14682857Y-4002438D01*
X14682857Y-4002438D02*
X14778095Y-3954819D01*
X14778095Y-3954819D02*
X15016190Y-3954819D01*
X15016190Y-3954819D02*
X15111428Y-4002438D01*
X15111428Y-4002438D02*
X15159047Y-4050057D01*
X15159047Y-4050057D02*
X15206666Y-4145295D01*
X15206666Y-4145295D02*
X15206666Y-4240533D01*
X15206666Y-4240533D02*
X15159047Y-4383390D01*
X15159047Y-4383390D02*
X14587619Y-4954819D01*
X14587619Y-4954819D02*
X15206666Y-4954819D01*
X19766666Y-8634819D02*
X19766666Y-7634819D01*
X19766666Y-7634819D02*
X20147618Y-7634819D01*
X20147618Y-7634819D02*
X20242856Y-7682438D01*
X20242856Y-7682438D02*
X20290475Y-7730057D01*
X20290475Y-7730057D02*
X20338094Y-7825295D01*
X20338094Y-7825295D02*
X20338094Y-7968152D01*
X20338094Y-7968152D02*
X20290475Y-8063390D01*
X20290475Y-8063390D02*
X20242856Y-8111009D01*
X20242856Y-8111009D02*
X20147618Y-8158628D01*
X20147618Y-8158628D02*
X19766666Y-8158628D01*
X20766666Y-8634819D02*
X20766666Y-7634819D01*
X20766666Y-7634819D02*
X21147618Y-7634819D01*
X21147618Y-7634819D02*
X21242856Y-7682438D01*
X21242856Y-7682438D02*
X21290475Y-7730057D01*
X21290475Y-7730057D02*
X21338094Y-7825295D01*
X21338094Y-7825295D02*
X21338094Y-7968152D01*
X21338094Y-7968152D02*
X21290475Y-8063390D01*
X21290475Y-8063390D02*
X21242856Y-8111009D01*
X21242856Y-8111009D02*
X21147618Y-8158628D01*
X21147618Y-8158628D02*
X20766666Y-8158628D01*
X21623809Y-7634819D02*
X22195237Y-7634819D01*
X21909523Y-8634819D02*
X21909523Y-7634819D01*
X23099999Y-8539580D02*
X23052380Y-8587200D01*
X23052380Y-8587200D02*
X22909523Y-8634819D01*
X22909523Y-8634819D02*
X22814285Y-8634819D01*
X22814285Y-8634819D02*
X22671428Y-8587200D01*
X22671428Y-8587200D02*
X22576190Y-8491961D01*
X22576190Y-8491961D02*
X22528571Y-8396723D01*
X22528571Y-8396723D02*
X22480952Y-8206247D01*
X22480952Y-8206247D02*
X22480952Y-8063390D01*
X22480952Y-8063390D02*
X22528571Y-7872914D01*
X22528571Y-7872914D02*
X22576190Y-7777676D01*
X22576190Y-7777676D02*
X22671428Y-7682438D01*
X22671428Y-7682438D02*
X22814285Y-7634819D01*
X22814285Y-7634819D02*
X22909523Y-7634819D01*
X22909523Y-7634819D02*
X23052380Y-7682438D01*
X23052380Y-7682438D02*
X23099999Y-7730057D01*
X24195238Y-7634819D02*
X24814285Y-7634819D01*
X24814285Y-7634819D02*
X24480952Y-8015771D01*
X24480952Y-8015771D02*
X24623809Y-8015771D01*
X24623809Y-8015771D02*
X24719047Y-8063390D01*
X24719047Y-8063390D02*
X24766666Y-8111009D01*
X24766666Y-8111009D02*
X24814285Y-8206247D01*
X24814285Y-8206247D02*
X24814285Y-8444342D01*
X24814285Y-8444342D02*
X24766666Y-8539580D01*
X24766666Y-8539580D02*
X24719047Y-8587200D01*
X24719047Y-8587200D02*
X24623809Y-8634819D01*
X24623809Y-8634819D02*
X24338095Y-8634819D01*
X24338095Y-8634819D02*
X24242857Y-8587200D01*
X24242857Y-8587200D02*
X24195238Y-8539580D01*
X25195238Y-8349104D02*
X25671428Y-8349104D01*
X25100000Y-8634819D02*
X25433333Y-7634819D01*
X25433333Y-7634819D02*
X25766666Y-8634819D01*
X26814285Y-7587200D02*
X25957143Y-8872914D01*
X27052381Y-7634819D02*
X27671428Y-7634819D01*
X27671428Y-7634819D02*
X27338095Y-8015771D01*
X27338095Y-8015771D02*
X27480952Y-8015771D01*
X27480952Y-8015771D02*
X27576190Y-8063390D01*
X27576190Y-8063390D02*
X27623809Y-8111009D01*
X27623809Y-8111009D02*
X27671428Y-8206247D01*
X27671428Y-8206247D02*
X27671428Y-8444342D01*
X27671428Y-8444342D02*
X27623809Y-8539580D01*
X27623809Y-8539580D02*
X27576190Y-8587200D01*
X27576190Y-8587200D02*
X27480952Y-8634819D01*
X27480952Y-8634819D02*
X27195238Y-8634819D01*
X27195238Y-8634819D02*
X27100000Y-8587200D01*
X27100000Y-8587200D02*
X27052381Y-8539580D01*
X28004762Y-7634819D02*
X28623809Y-7634819D01*
X28623809Y-7634819D02*
X28290476Y-8015771D01*
X28290476Y-8015771D02*
X28433333Y-8015771D01*
X28433333Y-8015771D02*
X28528571Y-8063390D01*
X28528571Y-8063390D02*
X28576190Y-8111009D01*
X28576190Y-8111009D02*
X28623809Y-8206247D01*
X28623809Y-8206247D02*
X28623809Y-8444342D01*
X28623809Y-8444342D02*
X28576190Y-8539580D01*
X28576190Y-8539580D02*
X28528571Y-8587200D01*
X28528571Y-8587200D02*
X28433333Y-8634819D01*
X28433333Y-8634819D02*
X28147619Y-8634819D01*
X28147619Y-8634819D02*
X28052381Y-8587200D01*
X28052381Y-8587200D02*
X28004762Y-8539580D01*
X28909524Y-7634819D02*
X29242857Y-8634819D01*
X29242857Y-8634819D02*
X29576190Y-7634819D01*
X24266666Y-4431009D02*
X23933333Y-4431009D01*
X23933333Y-4954819D02*
X23933333Y-3954819D01*
X23933333Y-3954819D02*
X24409523Y-3954819D01*
X25314285Y-4954819D02*
X24742857Y-4954819D01*
X25028571Y-4954819D02*
X25028571Y-3954819D01*
X25028571Y-3954819D02*
X24933333Y-4097676D01*
X24933333Y-4097676D02*
X24838095Y-4192914D01*
X24838095Y-4192914D02*
X24742857Y-4240533D01*
X32624819Y-10795238D02*
X32624819Y-11366666D01*
X32624819Y-11080952D02*
X31624819Y-11080952D01*
X31624819Y-11080952D02*
X31767676Y-11176190D01*
X31767676Y-11176190D02*
X31862914Y-11271428D01*
X31862914Y-11271428D02*
X31910533Y-11366666D01*
X31624819Y-10176190D02*
X31624819Y-10080952D01*
X31624819Y-10080952D02*
X31672438Y-9985714D01*
X31672438Y-9985714D02*
X31720057Y-9938095D01*
X31720057Y-9938095D02*
X31815295Y-9890476D01*
X31815295Y-9890476D02*
X32005771Y-9842857D01*
X32005771Y-9842857D02*
X32243866Y-9842857D01*
X32243866Y-9842857D02*
X32434342Y-9890476D01*
X32434342Y-9890476D02*
X32529580Y-9938095D01*
X32529580Y-9938095D02*
X32577200Y-9985714D01*
X32577200Y-9985714D02*
X32624819Y-10080952D01*
X32624819Y-10080952D02*
X32624819Y-10176190D01*
X32624819Y-10176190D02*
X32577200Y-10271428D01*
X32577200Y-10271428D02*
X32529580Y-10319047D01*
X32529580Y-10319047D02*
X32434342Y-10366666D01*
X32434342Y-10366666D02*
X32243866Y-10414285D01*
X32243866Y-10414285D02*
X32005771Y-10414285D01*
X32005771Y-10414285D02*
X31815295Y-10366666D01*
X31815295Y-10366666D02*
X31720057Y-10319047D01*
X31720057Y-10319047D02*
X31672438Y-10271428D01*
X31672438Y-10271428D02*
X31624819Y-10176190D01*
X32624819Y-9414285D02*
X31624819Y-9414285D01*
X32243866Y-9319047D02*
X32624819Y-9033333D01*
X31958152Y-9033333D02*
X32339104Y-9414285D01*
D12*
X33781927Y-10266666D02*
X33591451Y-10399999D01*
X33781927Y-10495237D02*
X33381927Y-10495237D01*
X33381927Y-10495237D02*
X33381927Y-10342856D01*
X33381927Y-10342856D02*
X33400975Y-10304761D01*
X33400975Y-10304761D02*
X33420022Y-10285714D01*
X33420022Y-10285714D02*
X33458118Y-10266666D01*
X33458118Y-10266666D02*
X33515260Y-10266666D01*
X33515260Y-10266666D02*
X33553356Y-10285714D01*
X33553356Y-10285714D02*
X33572403Y-10304761D01*
X33572403Y-10304761D02*
X33591451Y-10342856D01*
X33591451Y-10342856D02*
X33591451Y-10495237D01*
X33553356Y-10038095D02*
X33534308Y-10076190D01*
X33534308Y-10076190D02*
X33515260Y-10095237D01*
X33515260Y-10095237D02*
X33477165Y-10114285D01*
X33477165Y-10114285D02*
X33458118Y-10114285D01*
X33458118Y-10114285D02*
X33420022Y-10095237D01*
X33420022Y-10095237D02*
X33400975Y-10076190D01*
X33400975Y-10076190D02*
X33381927Y-10038095D01*
X33381927Y-10038095D02*
X33381927Y-9961904D01*
X33381927Y-9961904D02*
X33400975Y-9923809D01*
X33400975Y-9923809D02*
X33420022Y-9904761D01*
X33420022Y-9904761D02*
X33458118Y-9885714D01*
X33458118Y-9885714D02*
X33477165Y-9885714D01*
X33477165Y-9885714D02*
X33515260Y-9904761D01*
X33515260Y-9904761D02*
X33534308Y-9923809D01*
X33534308Y-9923809D02*
X33553356Y-9961904D01*
X33553356Y-9961904D02*
X33553356Y-10038095D01*
X33553356Y-10038095D02*
X33572403Y-10076190D01*
X33572403Y-10076190D02*
X33591451Y-10095237D01*
X33591451Y-10095237D02*
X33629546Y-10114285D01*
X33629546Y-10114285D02*
X33705737Y-10114285D01*
X33705737Y-10114285D02*
X33743832Y-10095237D01*
X33743832Y-10095237D02*
X33762880Y-10076190D01*
X33762880Y-10076190D02*
X33781927Y-10038095D01*
X33781927Y-10038095D02*
X33781927Y-9961904D01*
X33781927Y-9961904D02*
X33762880Y-9923809D01*
X33762880Y-9923809D02*
X33743832Y-9904761D01*
X33743832Y-9904761D02*
X33705737Y-9885714D01*
X33705737Y-9885714D02*
X33629546Y-9885714D01*
X33629546Y-9885714D02*
X33591451Y-9904761D01*
X33591451Y-9904761D02*
X33572403Y-9923809D01*
X33572403Y-9923809D02*
X33553356Y-9961904D01*
D10*
X30874819Y-30000000D02*
X30874819Y-30571428D01*
X30874819Y-30285714D02*
X29874819Y-30285714D01*
X29874819Y-30285714D02*
X30017676Y-30380952D01*
X30017676Y-30380952D02*
X30112914Y-30476190D01*
X30112914Y-30476190D02*
X30160533Y-30571428D01*
X30208152Y-29142857D02*
X30874819Y-29142857D01*
X30208152Y-29571428D02*
X30731961Y-29571428D01*
X30731961Y-29571428D02*
X30827200Y-29523809D01*
X30827200Y-29523809D02*
X30874819Y-29428571D01*
X30874819Y-29428571D02*
X30874819Y-29285714D01*
X30874819Y-29285714D02*
X30827200Y-29190476D01*
X30827200Y-29190476D02*
X30779580Y-29142857D01*
X30351009Y-28333333D02*
X30351009Y-28666666D01*
X30874819Y-28666666D02*
X29874819Y-28666666D01*
X29874819Y-28666666D02*
X29874819Y-28190476D01*
X29827200Y-27095238D02*
X31112914Y-27952380D01*
X29874819Y-26285714D02*
X29874819Y-26761904D01*
X29874819Y-26761904D02*
X30351009Y-26809523D01*
X30351009Y-26809523D02*
X30303390Y-26761904D01*
X30303390Y-26761904D02*
X30255771Y-26666666D01*
X30255771Y-26666666D02*
X30255771Y-26428571D01*
X30255771Y-26428571D02*
X30303390Y-26333333D01*
X30303390Y-26333333D02*
X30351009Y-26285714D01*
X30351009Y-26285714D02*
X30446247Y-26238095D01*
X30446247Y-26238095D02*
X30684342Y-26238095D01*
X30684342Y-26238095D02*
X30779580Y-26285714D01*
X30779580Y-26285714D02*
X30827200Y-26333333D01*
X30827200Y-26333333D02*
X30874819Y-26428571D01*
X30874819Y-26428571D02*
X30874819Y-26666666D01*
X30874819Y-26666666D02*
X30827200Y-26761904D01*
X30827200Y-26761904D02*
X30779580Y-26809523D01*
X29874819Y-25619047D02*
X29874819Y-25523809D01*
X29874819Y-25523809D02*
X29922438Y-25428571D01*
X29922438Y-25428571D02*
X29970057Y-25380952D01*
X29970057Y-25380952D02*
X30065295Y-25333333D01*
X30065295Y-25333333D02*
X30255771Y-25285714D01*
X30255771Y-25285714D02*
X30493866Y-25285714D01*
X30493866Y-25285714D02*
X30684342Y-25333333D01*
X30684342Y-25333333D02*
X30779580Y-25380952D01*
X30779580Y-25380952D02*
X30827200Y-25428571D01*
X30827200Y-25428571D02*
X30874819Y-25523809D01*
X30874819Y-25523809D02*
X30874819Y-25619047D01*
X30874819Y-25619047D02*
X30827200Y-25714285D01*
X30827200Y-25714285D02*
X30779580Y-25761904D01*
X30779580Y-25761904D02*
X30684342Y-25809523D01*
X30684342Y-25809523D02*
X30493866Y-25857142D01*
X30493866Y-25857142D02*
X30255771Y-25857142D01*
X30255771Y-25857142D02*
X30065295Y-25809523D01*
X30065295Y-25809523D02*
X29970057Y-25761904D01*
X29970057Y-25761904D02*
X29922438Y-25714285D01*
X29922438Y-25714285D02*
X29874819Y-25619047D01*
X29874819Y-24999999D02*
X30874819Y-24666666D01*
X30874819Y-24666666D02*
X29874819Y-24333333D01*
D11*
X32279530Y-27583333D02*
X32303340Y-27607142D01*
X32303340Y-27607142D02*
X32327149Y-27678571D01*
X32327149Y-27678571D02*
X32327149Y-27726190D01*
X32327149Y-27726190D02*
X32303340Y-27797618D01*
X32303340Y-27797618D02*
X32255720Y-27845237D01*
X32255720Y-27845237D02*
X32208101Y-27869047D01*
X32208101Y-27869047D02*
X32112863Y-27892856D01*
X32112863Y-27892856D02*
X32041435Y-27892856D01*
X32041435Y-27892856D02*
X31946197Y-27869047D01*
X31946197Y-27869047D02*
X31898578Y-27845237D01*
X31898578Y-27845237D02*
X31850959Y-27797618D01*
X31850959Y-27797618D02*
X31827149Y-27726190D01*
X31827149Y-27726190D02*
X31827149Y-27678571D01*
X31827149Y-27678571D02*
X31850959Y-27607142D01*
X31850959Y-27607142D02*
X31874768Y-27583333D01*
X31827149Y-27416666D02*
X31827149Y-27083333D01*
X31827149Y-27083333D02*
X32327149Y-27297618D01*
D10*
X404762Y-35724819D02*
X404762Y-34724819D01*
X404762Y-34724819D02*
X785714Y-34724819D01*
X785714Y-34724819D02*
X880952Y-34772438D01*
X880952Y-34772438D02*
X928571Y-34820057D01*
X928571Y-34820057D02*
X976190Y-34915295D01*
X976190Y-34915295D02*
X976190Y-35058152D01*
X976190Y-35058152D02*
X928571Y-35153390D01*
X928571Y-35153390D02*
X880952Y-35201009D01*
X880952Y-35201009D02*
X785714Y-35248628D01*
X785714Y-35248628D02*
X404762Y-35248628D01*
X1404762Y-35724819D02*
X1404762Y-35058152D01*
X1404762Y-34724819D02*
X1357143Y-34772438D01*
X1357143Y-34772438D02*
X1404762Y-34820057D01*
X1404762Y-34820057D02*
X1452381Y-34772438D01*
X1452381Y-34772438D02*
X1404762Y-34724819D01*
X1404762Y-34724819D02*
X1404762Y-34820057D01*
X2309523Y-35677200D02*
X2214285Y-35724819D01*
X2214285Y-35724819D02*
X2023809Y-35724819D01*
X2023809Y-35724819D02*
X1928571Y-35677200D01*
X1928571Y-35677200D02*
X1880952Y-35629580D01*
X1880952Y-35629580D02*
X1833333Y-35534342D01*
X1833333Y-35534342D02*
X1833333Y-35248628D01*
X1833333Y-35248628D02*
X1880952Y-35153390D01*
X1880952Y-35153390D02*
X1928571Y-35105771D01*
X1928571Y-35105771D02*
X2023809Y-35058152D01*
X2023809Y-35058152D02*
X2214285Y-35058152D01*
X2214285Y-35058152D02*
X2309523Y-35105771D01*
X2880952Y-35724819D02*
X2785714Y-35677200D01*
X2785714Y-35677200D02*
X2738095Y-35629580D01*
X2738095Y-35629580D02*
X2690476Y-35534342D01*
X2690476Y-35534342D02*
X2690476Y-35248628D01*
X2690476Y-35248628D02*
X2738095Y-35153390D01*
X2738095Y-35153390D02*
X2785714Y-35105771D01*
X2785714Y-35105771D02*
X2880952Y-35058152D01*
X2880952Y-35058152D02*
X3023809Y-35058152D01*
X3023809Y-35058152D02*
X3119047Y-35105771D01*
X3119047Y-35105771D02*
X3166666Y-35153390D01*
X3166666Y-35153390D02*
X3214285Y-35248628D01*
X3214285Y-35248628D02*
X3214285Y-35534342D01*
X3214285Y-35534342D02*
X3166666Y-35629580D01*
X3166666Y-35629580D02*
X3119047Y-35677200D01*
X3119047Y-35677200D02*
X3023809Y-35724819D01*
X3023809Y-35724819D02*
X2880952Y-35724819D01*
X4928571Y-35724819D02*
X4357143Y-35724819D01*
X4642857Y-35724819D02*
X4642857Y-34724819D01*
X4642857Y-34724819D02*
X4547619Y-34867676D01*
X4547619Y-34867676D02*
X4452381Y-34962914D01*
X4452381Y-34962914D02*
X4357143Y-35010533D01*
X5261905Y-35724819D02*
X5785714Y-35058152D01*
X5261905Y-35058152D02*
X5785714Y-35724819D01*
X6690476Y-35724819D02*
X6119048Y-35724819D01*
X6404762Y-35724819D02*
X6404762Y-34724819D01*
X6404762Y-34724819D02*
X6309524Y-34867676D01*
X6309524Y-34867676D02*
X6214286Y-34962914D01*
X6214286Y-34962914D02*
X6119048Y-35010533D01*
X7071429Y-34820057D02*
X7119048Y-34772438D01*
X7119048Y-34772438D02*
X7214286Y-34724819D01*
X7214286Y-34724819D02*
X7452381Y-34724819D01*
X7452381Y-34724819D02*
X7547619Y-34772438D01*
X7547619Y-34772438D02*
X7595238Y-34820057D01*
X7595238Y-34820057D02*
X7642857Y-34915295D01*
X7642857Y-34915295D02*
X7642857Y-35010533D01*
X7642857Y-35010533D02*
X7595238Y-35153390D01*
X7595238Y-35153390D02*
X7023810Y-35724819D01*
X7023810Y-35724819D02*
X7642857Y-35724819D01*
X3454819Y-19303333D02*
X4169104Y-19303333D01*
X4169104Y-19303333D02*
X4311961Y-19350952D01*
X4311961Y-19350952D02*
X4407200Y-19446190D01*
X4407200Y-19446190D02*
X4454819Y-19589047D01*
X4454819Y-19589047D02*
X4454819Y-19684285D01*
X4454819Y-18303333D02*
X4454819Y-18874761D01*
X4454819Y-18589047D02*
X3454819Y-18589047D01*
X3454819Y-18589047D02*
X3597676Y-18684285D01*
X3597676Y-18684285D02*
X3692914Y-18779523D01*
X3692914Y-18779523D02*
X3740533Y-18874761D01*
X6754761Y-32284819D02*
X6183333Y-32284819D01*
X6469047Y-32284819D02*
X6469047Y-31284819D01*
X6469047Y-31284819D02*
X6373809Y-31427676D01*
X6373809Y-31427676D02*
X6278571Y-31522914D01*
X6278571Y-31522914D02*
X6183333Y-31570533D01*
X7373809Y-31284819D02*
X7469047Y-31284819D01*
X7469047Y-31284819D02*
X7564285Y-31332438D01*
X7564285Y-31332438D02*
X7611904Y-31380057D01*
X7611904Y-31380057D02*
X7659523Y-31475295D01*
X7659523Y-31475295D02*
X7707142Y-31665771D01*
X7707142Y-31665771D02*
X7707142Y-31903866D01*
X7707142Y-31903866D02*
X7659523Y-32094342D01*
X7659523Y-32094342D02*
X7611904Y-32189580D01*
X7611904Y-32189580D02*
X7564285Y-32237200D01*
X7564285Y-32237200D02*
X7469047Y-32284819D01*
X7469047Y-32284819D02*
X7373809Y-32284819D01*
X7373809Y-32284819D02*
X7278571Y-32237200D01*
X7278571Y-32237200D02*
X7230952Y-32189580D01*
X7230952Y-32189580D02*
X7183333Y-32094342D01*
X7183333Y-32094342D02*
X7135714Y-31903866D01*
X7135714Y-31903866D02*
X7135714Y-31665771D01*
X7135714Y-31665771D02*
X7183333Y-31475295D01*
X7183333Y-31475295D02*
X7230952Y-31380057D01*
X7230952Y-31380057D02*
X7278571Y-31332438D01*
X7278571Y-31332438D02*
X7373809Y-31284819D01*
X8135714Y-32284819D02*
X8135714Y-31284819D01*
X8230952Y-31903866D02*
X8516666Y-32284819D01*
X8516666Y-31618152D02*
X8135714Y-31999104D01*
D12*
X7283333Y-30581927D02*
X7150000Y-30391451D01*
X7054762Y-30581927D02*
X7054762Y-30181927D01*
X7054762Y-30181927D02*
X7207143Y-30181927D01*
X7207143Y-30181927D02*
X7245238Y-30200975D01*
X7245238Y-30200975D02*
X7264285Y-30220022D01*
X7264285Y-30220022D02*
X7283333Y-30258118D01*
X7283333Y-30258118D02*
X7283333Y-30315260D01*
X7283333Y-30315260D02*
X7264285Y-30353356D01*
X7264285Y-30353356D02*
X7245238Y-30372403D01*
X7245238Y-30372403D02*
X7207143Y-30391451D01*
X7207143Y-30391451D02*
X7054762Y-30391451D01*
X7645238Y-30181927D02*
X7454762Y-30181927D01*
X7454762Y-30181927D02*
X7435714Y-30372403D01*
X7435714Y-30372403D02*
X7454762Y-30353356D01*
X7454762Y-30353356D02*
X7492857Y-30334308D01*
X7492857Y-30334308D02*
X7588095Y-30334308D01*
X7588095Y-30334308D02*
X7626190Y-30353356D01*
X7626190Y-30353356D02*
X7645238Y-30372403D01*
X7645238Y-30372403D02*
X7664285Y-30410499D01*
X7664285Y-30410499D02*
X7664285Y-30505737D01*
X7664285Y-30505737D02*
X7645238Y-30543832D01*
X7645238Y-30543832D02*
X7626190Y-30562880D01*
X7626190Y-30562880D02*
X7588095Y-30581927D01*
X7588095Y-30581927D02*
X7492857Y-30581927D01*
X7492857Y-30581927D02*
X7454762Y-30562880D01*
X7454762Y-30562880D02*
X7435714Y-30543832D01*
D10*
X7904761Y-22124819D02*
X7333333Y-22124819D01*
X7619047Y-22124819D02*
X7619047Y-21124819D01*
X7619047Y-21124819D02*
X7523809Y-21267676D01*
X7523809Y-21267676D02*
X7428571Y-21362914D01*
X7428571Y-21362914D02*
X7333333Y-21410533D01*
X8523809Y-21124819D02*
X8619047Y-21124819D01*
X8619047Y-21124819D02*
X8714285Y-21172438D01*
X8714285Y-21172438D02*
X8761904Y-21220057D01*
X8761904Y-21220057D02*
X8809523Y-21315295D01*
X8809523Y-21315295D02*
X8857142Y-21505771D01*
X8857142Y-21505771D02*
X8857142Y-21743866D01*
X8857142Y-21743866D02*
X8809523Y-21934342D01*
X8809523Y-21934342D02*
X8761904Y-22029580D01*
X8761904Y-22029580D02*
X8714285Y-22077200D01*
X8714285Y-22077200D02*
X8619047Y-22124819D01*
X8619047Y-22124819D02*
X8523809Y-22124819D01*
X8523809Y-22124819D02*
X8428571Y-22077200D01*
X8428571Y-22077200D02*
X8380952Y-22029580D01*
X8380952Y-22029580D02*
X8333333Y-21934342D01*
X8333333Y-21934342D02*
X8285714Y-21743866D01*
X8285714Y-21743866D02*
X8285714Y-21505771D01*
X8285714Y-21505771D02*
X8333333Y-21315295D01*
X8333333Y-21315295D02*
X8380952Y-21220057D01*
X8380952Y-21220057D02*
X8428571Y-21172438D01*
X8428571Y-21172438D02*
X8523809Y-21124819D01*
X9285714Y-22124819D02*
X9285714Y-21124819D01*
X9380952Y-21743866D02*
X9666666Y-22124819D01*
X9666666Y-21458152D02*
X9285714Y-21839104D01*
D12*
X8433333Y-20421927D02*
X8300000Y-20231451D01*
X8204762Y-20421927D02*
X8204762Y-20021927D01*
X8204762Y-20021927D02*
X8357143Y-20021927D01*
X8357143Y-20021927D02*
X8395238Y-20040975D01*
X8395238Y-20040975D02*
X8414285Y-20060022D01*
X8414285Y-20060022D02*
X8433333Y-20098118D01*
X8433333Y-20098118D02*
X8433333Y-20155260D01*
X8433333Y-20155260D02*
X8414285Y-20193356D01*
X8414285Y-20193356D02*
X8395238Y-20212403D01*
X8395238Y-20212403D02*
X8357143Y-20231451D01*
X8357143Y-20231451D02*
X8204762Y-20231451D01*
X8776190Y-20021927D02*
X8700000Y-20021927D01*
X8700000Y-20021927D02*
X8661904Y-20040975D01*
X8661904Y-20040975D02*
X8642857Y-20060022D01*
X8642857Y-20060022D02*
X8604762Y-20117165D01*
X8604762Y-20117165D02*
X8585714Y-20193356D01*
X8585714Y-20193356D02*
X8585714Y-20345737D01*
X8585714Y-20345737D02*
X8604762Y-20383832D01*
X8604762Y-20383832D02*
X8623809Y-20402880D01*
X8623809Y-20402880D02*
X8661904Y-20421927D01*
X8661904Y-20421927D02*
X8738095Y-20421927D01*
X8738095Y-20421927D02*
X8776190Y-20402880D01*
X8776190Y-20402880D02*
X8795238Y-20383832D01*
X8795238Y-20383832D02*
X8814285Y-20345737D01*
X8814285Y-20345737D02*
X8814285Y-20250499D01*
X8814285Y-20250499D02*
X8795238Y-20212403D01*
X8795238Y-20212403D02*
X8776190Y-20193356D01*
X8776190Y-20193356D02*
X8738095Y-20174308D01*
X8738095Y-20174308D02*
X8661904Y-20174308D01*
X8661904Y-20174308D02*
X8623809Y-20193356D01*
X8623809Y-20193356D02*
X8604762Y-20212403D01*
X8604762Y-20212403D02*
X8585714Y-20250499D01*
D10*
X7904761Y-27204819D02*
X7333333Y-27204819D01*
X7619047Y-27204819D02*
X7619047Y-26204819D01*
X7619047Y-26204819D02*
X7523809Y-26347676D01*
X7523809Y-26347676D02*
X7428571Y-26442914D01*
X7428571Y-26442914D02*
X7333333Y-26490533D01*
X8523809Y-26204819D02*
X8619047Y-26204819D01*
X8619047Y-26204819D02*
X8714285Y-26252438D01*
X8714285Y-26252438D02*
X8761904Y-26300057D01*
X8761904Y-26300057D02*
X8809523Y-26395295D01*
X8809523Y-26395295D02*
X8857142Y-26585771D01*
X8857142Y-26585771D02*
X8857142Y-26823866D01*
X8857142Y-26823866D02*
X8809523Y-27014342D01*
X8809523Y-27014342D02*
X8761904Y-27109580D01*
X8761904Y-27109580D02*
X8714285Y-27157200D01*
X8714285Y-27157200D02*
X8619047Y-27204819D01*
X8619047Y-27204819D02*
X8523809Y-27204819D01*
X8523809Y-27204819D02*
X8428571Y-27157200D01*
X8428571Y-27157200D02*
X8380952Y-27109580D01*
X8380952Y-27109580D02*
X8333333Y-27014342D01*
X8333333Y-27014342D02*
X8285714Y-26823866D01*
X8285714Y-26823866D02*
X8285714Y-26585771D01*
X8285714Y-26585771D02*
X8333333Y-26395295D01*
X8333333Y-26395295D02*
X8380952Y-26300057D01*
X8380952Y-26300057D02*
X8428571Y-26252438D01*
X8428571Y-26252438D02*
X8523809Y-26204819D01*
X9285714Y-27204819D02*
X9285714Y-26204819D01*
X9380952Y-26823866D02*
X9666666Y-27204819D01*
X9666666Y-26538152D02*
X9285714Y-26919104D01*
D12*
X8433333Y-25501927D02*
X8300000Y-25311451D01*
X8204762Y-25501927D02*
X8204762Y-25101927D01*
X8204762Y-25101927D02*
X8357143Y-25101927D01*
X8357143Y-25101927D02*
X8395238Y-25120975D01*
X8395238Y-25120975D02*
X8414285Y-25140022D01*
X8414285Y-25140022D02*
X8433333Y-25178118D01*
X8433333Y-25178118D02*
X8433333Y-25235260D01*
X8433333Y-25235260D02*
X8414285Y-25273356D01*
X8414285Y-25273356D02*
X8395238Y-25292403D01*
X8395238Y-25292403D02*
X8357143Y-25311451D01*
X8357143Y-25311451D02*
X8204762Y-25311451D01*
X8566666Y-25101927D02*
X8814285Y-25101927D01*
X8814285Y-25101927D02*
X8680952Y-25254308D01*
X8680952Y-25254308D02*
X8738095Y-25254308D01*
X8738095Y-25254308D02*
X8776190Y-25273356D01*
X8776190Y-25273356D02*
X8795238Y-25292403D01*
X8795238Y-25292403D02*
X8814285Y-25330499D01*
X8814285Y-25330499D02*
X8814285Y-25425737D01*
X8814285Y-25425737D02*
X8795238Y-25463832D01*
X8795238Y-25463832D02*
X8776190Y-25482880D01*
X8776190Y-25482880D02*
X8738095Y-25501927D01*
X8738095Y-25501927D02*
X8623809Y-25501927D01*
X8623809Y-25501927D02*
X8585714Y-25482880D01*
X8585714Y-25482880D02*
X8566666Y-25463832D01*
D10*
X43104819Y-11452381D02*
X43104819Y-12023809D01*
X43104819Y-11738095D02*
X42104819Y-11738095D01*
X42104819Y-11738095D02*
X42247676Y-11833333D01*
X42247676Y-11833333D02*
X42342914Y-11928571D01*
X42342914Y-11928571D02*
X42390533Y-12023809D01*
X42104819Y-10833333D02*
X42104819Y-10738095D01*
X42104819Y-10738095D02*
X42152438Y-10642857D01*
X42152438Y-10642857D02*
X42200057Y-10595238D01*
X42200057Y-10595238D02*
X42295295Y-10547619D01*
X42295295Y-10547619D02*
X42485771Y-10500000D01*
X42485771Y-10500000D02*
X42723866Y-10500000D01*
X42723866Y-10500000D02*
X42914342Y-10547619D01*
X42914342Y-10547619D02*
X43009580Y-10595238D01*
X43009580Y-10595238D02*
X43057200Y-10642857D01*
X43057200Y-10642857D02*
X43104819Y-10738095D01*
X43104819Y-10738095D02*
X43104819Y-10833333D01*
X43104819Y-10833333D02*
X43057200Y-10928571D01*
X43057200Y-10928571D02*
X43009580Y-10976190D01*
X43009580Y-10976190D02*
X42914342Y-11023809D01*
X42914342Y-11023809D02*
X42723866Y-11071428D01*
X42723866Y-11071428D02*
X42485771Y-11071428D01*
X42485771Y-11071428D02*
X42295295Y-11023809D01*
X42295295Y-11023809D02*
X42200057Y-10976190D01*
X42200057Y-10976190D02*
X42152438Y-10928571D01*
X42152438Y-10928571D02*
X42104819Y-10833333D01*
X42104819Y-9880952D02*
X42104819Y-9785714D01*
X42104819Y-9785714D02*
X42152438Y-9690476D01*
X42152438Y-9690476D02*
X42200057Y-9642857D01*
X42200057Y-9642857D02*
X42295295Y-9595238D01*
X42295295Y-9595238D02*
X42485771Y-9547619D01*
X42485771Y-9547619D02*
X42723866Y-9547619D01*
X42723866Y-9547619D02*
X42914342Y-9595238D01*
X42914342Y-9595238D02*
X43009580Y-9642857D01*
X43009580Y-9642857D02*
X43057200Y-9690476D01*
X43057200Y-9690476D02*
X43104819Y-9785714D01*
X43104819Y-9785714D02*
X43104819Y-9880952D01*
X43104819Y-9880952D02*
X43057200Y-9976190D01*
X43057200Y-9976190D02*
X43009580Y-10023809D01*
X43009580Y-10023809D02*
X42914342Y-10071428D01*
X42914342Y-10071428D02*
X42723866Y-10119047D01*
X42723866Y-10119047D02*
X42485771Y-10119047D01*
X42485771Y-10119047D02*
X42295295Y-10071428D01*
X42295295Y-10071428D02*
X42200057Y-10023809D01*
X42200057Y-10023809D02*
X42152438Y-9976190D01*
X42152438Y-9976190D02*
X42104819Y-9880952D01*
X42438152Y-8690476D02*
X43104819Y-8690476D01*
X42438152Y-9119047D02*
X42961961Y-9119047D01*
X42961961Y-9119047D02*
X43057200Y-9071428D01*
X43057200Y-9071428D02*
X43104819Y-8976190D01*
X43104819Y-8976190D02*
X43104819Y-8833333D01*
X43104819Y-8833333D02*
X43057200Y-8738095D01*
X43057200Y-8738095D02*
X43009580Y-8690476D01*
X42581009Y-7880952D02*
X42581009Y-8214285D01*
X43104819Y-8214285D02*
X42104819Y-8214285D01*
X42104819Y-8214285D02*
X42104819Y-7738095D01*
X42057200Y-6642857D02*
X43342914Y-7499999D01*
X42104819Y-6404761D02*
X42104819Y-5785714D01*
X42104819Y-5785714D02*
X42485771Y-6119047D01*
X42485771Y-6119047D02*
X42485771Y-5976190D01*
X42485771Y-5976190D02*
X42533390Y-5880952D01*
X42533390Y-5880952D02*
X42581009Y-5833333D01*
X42581009Y-5833333D02*
X42676247Y-5785714D01*
X42676247Y-5785714D02*
X42914342Y-5785714D01*
X42914342Y-5785714D02*
X43009580Y-5833333D01*
X43009580Y-5833333D02*
X43057200Y-5880952D01*
X43057200Y-5880952D02*
X43104819Y-5976190D01*
X43104819Y-5976190D02*
X43104819Y-6261904D01*
X43104819Y-6261904D02*
X43057200Y-6357142D01*
X43057200Y-6357142D02*
X43009580Y-6404761D01*
X42104819Y-4880952D02*
X42104819Y-5357142D01*
X42104819Y-5357142D02*
X42581009Y-5404761D01*
X42581009Y-5404761D02*
X42533390Y-5357142D01*
X42533390Y-5357142D02*
X42485771Y-5261904D01*
X42485771Y-5261904D02*
X42485771Y-5023809D01*
X42485771Y-5023809D02*
X42533390Y-4928571D01*
X42533390Y-4928571D02*
X42581009Y-4880952D01*
X42581009Y-4880952D02*
X42676247Y-4833333D01*
X42676247Y-4833333D02*
X42914342Y-4833333D01*
X42914342Y-4833333D02*
X43009580Y-4880952D01*
X43009580Y-4880952D02*
X43057200Y-4928571D01*
X43057200Y-4928571D02*
X43104819Y-5023809D01*
X43104819Y-5023809D02*
X43104819Y-5261904D01*
X43104819Y-5261904D02*
X43057200Y-5357142D01*
X43057200Y-5357142D02*
X43009580Y-5404761D01*
X42104819Y-4547618D02*
X43104819Y-4214285D01*
X43104819Y-4214285D02*
X42104819Y-3880952D01*
X47359580Y-8166666D02*
X47407200Y-8214285D01*
X47407200Y-8214285D02*
X47454819Y-8357142D01*
X47454819Y-8357142D02*
X47454819Y-8452380D01*
X47454819Y-8452380D02*
X47407200Y-8595237D01*
X47407200Y-8595237D02*
X47311961Y-8690475D01*
X47311961Y-8690475D02*
X47216723Y-8738094D01*
X47216723Y-8738094D02*
X47026247Y-8785713D01*
X47026247Y-8785713D02*
X46883390Y-8785713D01*
X46883390Y-8785713D02*
X46692914Y-8738094D01*
X46692914Y-8738094D02*
X46597676Y-8690475D01*
X46597676Y-8690475D02*
X46502438Y-8595237D01*
X46502438Y-8595237D02*
X46454819Y-8452380D01*
X46454819Y-8452380D02*
X46454819Y-8357142D01*
X46454819Y-8357142D02*
X46502438Y-8214285D01*
X46502438Y-8214285D02*
X46550057Y-8166666D01*
X47454819Y-7214285D02*
X47454819Y-7785713D01*
X47454819Y-7499999D02*
X46454819Y-7499999D01*
X46454819Y-7499999D02*
X46597676Y-7595237D01*
X46597676Y-7595237D02*
X46692914Y-7690475D01*
X46692914Y-7690475D02*
X46740533Y-7785713D01*
X33547618Y-32384819D02*
X32976190Y-32384819D01*
X33261904Y-32384819D02*
X33261904Y-31384819D01*
X33261904Y-31384819D02*
X33166666Y-31527676D01*
X33166666Y-31527676D02*
X33071428Y-31622914D01*
X33071428Y-31622914D02*
X32976190Y-31670533D01*
X34166666Y-31384819D02*
X34261904Y-31384819D01*
X34261904Y-31384819D02*
X34357142Y-31432438D01*
X34357142Y-31432438D02*
X34404761Y-31480057D01*
X34404761Y-31480057D02*
X34452380Y-31575295D01*
X34452380Y-31575295D02*
X34499999Y-31765771D01*
X34499999Y-31765771D02*
X34499999Y-32003866D01*
X34499999Y-32003866D02*
X34452380Y-32194342D01*
X34452380Y-32194342D02*
X34404761Y-32289580D01*
X34404761Y-32289580D02*
X34357142Y-32337200D01*
X34357142Y-32337200D02*
X34261904Y-32384819D01*
X34261904Y-32384819D02*
X34166666Y-32384819D01*
X34166666Y-32384819D02*
X34071428Y-32337200D01*
X34071428Y-32337200D02*
X34023809Y-32289580D01*
X34023809Y-32289580D02*
X33976190Y-32194342D01*
X33976190Y-32194342D02*
X33928571Y-32003866D01*
X33928571Y-32003866D02*
X33928571Y-31765771D01*
X33928571Y-31765771D02*
X33976190Y-31575295D01*
X33976190Y-31575295D02*
X34023809Y-31480057D01*
X34023809Y-31480057D02*
X34071428Y-31432438D01*
X34071428Y-31432438D02*
X34166666Y-31384819D01*
X35119047Y-31384819D02*
X35214285Y-31384819D01*
X35214285Y-31384819D02*
X35309523Y-31432438D01*
X35309523Y-31432438D02*
X35357142Y-31480057D01*
X35357142Y-31480057D02*
X35404761Y-31575295D01*
X35404761Y-31575295D02*
X35452380Y-31765771D01*
X35452380Y-31765771D02*
X35452380Y-32003866D01*
X35452380Y-32003866D02*
X35404761Y-32194342D01*
X35404761Y-32194342D02*
X35357142Y-32289580D01*
X35357142Y-32289580D02*
X35309523Y-32337200D01*
X35309523Y-32337200D02*
X35214285Y-32384819D01*
X35214285Y-32384819D02*
X35119047Y-32384819D01*
X35119047Y-32384819D02*
X35023809Y-32337200D01*
X35023809Y-32337200D02*
X34976190Y-32289580D01*
X34976190Y-32289580D02*
X34928571Y-32194342D01*
X34928571Y-32194342D02*
X34880952Y-32003866D01*
X34880952Y-32003866D02*
X34880952Y-31765771D01*
X34880952Y-31765771D02*
X34928571Y-31575295D01*
X34928571Y-31575295D02*
X34976190Y-31480057D01*
X34976190Y-31480057D02*
X35023809Y-31432438D01*
X35023809Y-31432438D02*
X35119047Y-31384819D01*
X35880952Y-31718152D02*
X35880952Y-32384819D01*
X35880952Y-31813390D02*
X35928571Y-31765771D01*
X35928571Y-31765771D02*
X36023809Y-31718152D01*
X36023809Y-31718152D02*
X36166666Y-31718152D01*
X36166666Y-31718152D02*
X36261904Y-31765771D01*
X36261904Y-31765771D02*
X36309523Y-31861009D01*
X36309523Y-31861009D02*
X36309523Y-32384819D01*
X37119047Y-31861009D02*
X36785714Y-31861009D01*
X36785714Y-32384819D02*
X36785714Y-31384819D01*
X36785714Y-31384819D02*
X37261904Y-31384819D01*
X38357142Y-31337200D02*
X37500000Y-32622914D01*
X39166666Y-31384819D02*
X38690476Y-31384819D01*
X38690476Y-31384819D02*
X38642857Y-31861009D01*
X38642857Y-31861009D02*
X38690476Y-31813390D01*
X38690476Y-31813390D02*
X38785714Y-31765771D01*
X38785714Y-31765771D02*
X39023809Y-31765771D01*
X39023809Y-31765771D02*
X39119047Y-31813390D01*
X39119047Y-31813390D02*
X39166666Y-31861009D01*
X39166666Y-31861009D02*
X39214285Y-31956247D01*
X39214285Y-31956247D02*
X39214285Y-32194342D01*
X39214285Y-32194342D02*
X39166666Y-32289580D01*
X39166666Y-32289580D02*
X39119047Y-32337200D01*
X39119047Y-32337200D02*
X39023809Y-32384819D01*
X39023809Y-32384819D02*
X38785714Y-32384819D01*
X38785714Y-32384819D02*
X38690476Y-32337200D01*
X38690476Y-32337200D02*
X38642857Y-32289580D01*
X39833333Y-31384819D02*
X39928571Y-31384819D01*
X39928571Y-31384819D02*
X40023809Y-31432438D01*
X40023809Y-31432438D02*
X40071428Y-31480057D01*
X40071428Y-31480057D02*
X40119047Y-31575295D01*
X40119047Y-31575295D02*
X40166666Y-31765771D01*
X40166666Y-31765771D02*
X40166666Y-32003866D01*
X40166666Y-32003866D02*
X40119047Y-32194342D01*
X40119047Y-32194342D02*
X40071428Y-32289580D01*
X40071428Y-32289580D02*
X40023809Y-32337200D01*
X40023809Y-32337200D02*
X39928571Y-32384819D01*
X39928571Y-32384819D02*
X39833333Y-32384819D01*
X39833333Y-32384819D02*
X39738095Y-32337200D01*
X39738095Y-32337200D02*
X39690476Y-32289580D01*
X39690476Y-32289580D02*
X39642857Y-32194342D01*
X39642857Y-32194342D02*
X39595238Y-32003866D01*
X39595238Y-32003866D02*
X39595238Y-31765771D01*
X39595238Y-31765771D02*
X39642857Y-31575295D01*
X39642857Y-31575295D02*
X39690476Y-31480057D01*
X39690476Y-31480057D02*
X39738095Y-31432438D01*
X39738095Y-31432438D02*
X39833333Y-31384819D01*
X40452381Y-31384819D02*
X40785714Y-32384819D01*
X40785714Y-32384819D02*
X41119047Y-31384819D01*
D12*
X36933333Y-30643832D02*
X36914285Y-30662880D01*
X36914285Y-30662880D02*
X36857143Y-30681927D01*
X36857143Y-30681927D02*
X36819047Y-30681927D01*
X36819047Y-30681927D02*
X36761904Y-30662880D01*
X36761904Y-30662880D02*
X36723809Y-30624784D01*
X36723809Y-30624784D02*
X36704762Y-30586689D01*
X36704762Y-30586689D02*
X36685714Y-30510499D01*
X36685714Y-30510499D02*
X36685714Y-30453356D01*
X36685714Y-30453356D02*
X36704762Y-30377165D01*
X36704762Y-30377165D02*
X36723809Y-30339070D01*
X36723809Y-30339070D02*
X36761904Y-30300975D01*
X36761904Y-30300975D02*
X36819047Y-30281927D01*
X36819047Y-30281927D02*
X36857143Y-30281927D01*
X36857143Y-30281927D02*
X36914285Y-30300975D01*
X36914285Y-30300975D02*
X36933333Y-30320022D01*
X37295238Y-30281927D02*
X37104762Y-30281927D01*
X37104762Y-30281927D02*
X37085714Y-30472403D01*
X37085714Y-30472403D02*
X37104762Y-30453356D01*
X37104762Y-30453356D02*
X37142857Y-30434308D01*
X37142857Y-30434308D02*
X37238095Y-30434308D01*
X37238095Y-30434308D02*
X37276190Y-30453356D01*
X37276190Y-30453356D02*
X37295238Y-30472403D01*
X37295238Y-30472403D02*
X37314285Y-30510499D01*
X37314285Y-30510499D02*
X37314285Y-30605737D01*
X37314285Y-30605737D02*
X37295238Y-30643832D01*
X37295238Y-30643832D02*
X37276190Y-30662880D01*
X37276190Y-30662880D02*
X37238095Y-30681927D01*
X37238095Y-30681927D02*
X37142857Y-30681927D01*
X37142857Y-30681927D02*
X37104762Y-30662880D01*
X37104762Y-30662880D02*
X37085714Y-30643832D01*
D10*
X20876190Y-22134819D02*
X20304762Y-22134819D01*
X20590476Y-22134819D02*
X20590476Y-21134819D01*
X20590476Y-21134819D02*
X20495238Y-21277676D01*
X20495238Y-21277676D02*
X20400000Y-21372914D01*
X20400000Y-21372914D02*
X20304762Y-21420533D01*
X21257143Y-21230057D02*
X21304762Y-21182438D01*
X21304762Y-21182438D02*
X21400000Y-21134819D01*
X21400000Y-21134819D02*
X21638095Y-21134819D01*
X21638095Y-21134819D02*
X21733333Y-21182438D01*
X21733333Y-21182438D02*
X21780952Y-21230057D01*
X21780952Y-21230057D02*
X21828571Y-21325295D01*
X21828571Y-21325295D02*
X21828571Y-21420533D01*
X21828571Y-21420533D02*
X21780952Y-21563390D01*
X21780952Y-21563390D02*
X21209524Y-22134819D01*
X21209524Y-22134819D02*
X21828571Y-22134819D01*
X22257143Y-22134819D02*
X22257143Y-21134819D01*
X22352381Y-21753866D02*
X22638095Y-22134819D01*
X22638095Y-21468152D02*
X22257143Y-21849104D01*
X24352381Y-22134819D02*
X23780953Y-22134819D01*
X24066667Y-22134819D02*
X24066667Y-21134819D01*
X24066667Y-21134819D02*
X23971429Y-21277676D01*
X23971429Y-21277676D02*
X23876191Y-21372914D01*
X23876191Y-21372914D02*
X23780953Y-21420533D01*
X24733334Y-22134819D02*
X25495238Y-21134819D01*
X24876191Y-21134819D02*
X24971429Y-21182438D01*
X24971429Y-21182438D02*
X25019048Y-21277676D01*
X25019048Y-21277676D02*
X24971429Y-21372914D01*
X24971429Y-21372914D02*
X24876191Y-21420533D01*
X24876191Y-21420533D02*
X24780953Y-21372914D01*
X24780953Y-21372914D02*
X24733334Y-21277676D01*
X24733334Y-21277676D02*
X24780953Y-21182438D01*
X24780953Y-21182438D02*
X24876191Y-21134819D01*
X25447619Y-22087200D02*
X25495238Y-21991961D01*
X25495238Y-21991961D02*
X25447619Y-21896723D01*
X25447619Y-21896723D02*
X25352381Y-21849104D01*
X25352381Y-21849104D02*
X25257143Y-21896723D01*
X25257143Y-21896723D02*
X25209524Y-21991961D01*
X25209524Y-21991961D02*
X25257143Y-22087200D01*
X25257143Y-22087200D02*
X25352381Y-22134819D01*
X25352381Y-22134819D02*
X25447619Y-22087200D01*
D12*
X22833333Y-20431927D02*
X22700000Y-20241451D01*
X22604762Y-20431927D02*
X22604762Y-20031927D01*
X22604762Y-20031927D02*
X22757143Y-20031927D01*
X22757143Y-20031927D02*
X22795238Y-20050975D01*
X22795238Y-20050975D02*
X22814285Y-20070022D01*
X22814285Y-20070022D02*
X22833333Y-20108118D01*
X22833333Y-20108118D02*
X22833333Y-20165260D01*
X22833333Y-20165260D02*
X22814285Y-20203356D01*
X22814285Y-20203356D02*
X22795238Y-20222403D01*
X22795238Y-20222403D02*
X22757143Y-20241451D01*
X22757143Y-20241451D02*
X22604762Y-20241451D01*
X23214285Y-20431927D02*
X22985714Y-20431927D01*
X23100000Y-20431927D02*
X23100000Y-20031927D01*
X23100000Y-20031927D02*
X23061904Y-20089070D01*
X23061904Y-20089070D02*
X23023809Y-20127165D01*
X23023809Y-20127165D02*
X22985714Y-20146213D01*
D14*
%TO.C,C2*%
X38000000Y-12375000D02*
X40000000Y-12375000D01*
X38000000Y-13625000D02*
X38000000Y-12375000D01*
X40000000Y-12375000D02*
X40000000Y-13625000D01*
X40000000Y-13625000D02*
X38000000Y-13625000D01*
%TO.C,J3*%
X59250000Y-9520000D02*
X59250000Y-29720000D01*
X52950000Y-9520000D02*
X52950000Y-29720000D01*
X51750000Y-9520000D02*
X59250000Y-9520000D01*
X51750000Y-9570000D02*
X51750000Y-9520000D01*
X59250000Y-29720000D02*
X51750000Y-29720000D01*
X51750000Y-29720000D02*
X51750000Y-9570000D01*
%TO.C,C8*%
X19100000Y-20850000D02*
X20700000Y-20850000D01*
X19100000Y-21650000D02*
X19100000Y-20850000D01*
X20700000Y-20850000D02*
X20700000Y-21650000D01*
X20700000Y-21650000D02*
X19100000Y-21650000D01*
%TO.C,R11*%
X28032500Y-34000000D02*
X28032500Y-35600000D01*
X27207500Y-34000000D02*
X28032500Y-34000000D01*
X28032500Y-35600000D02*
X27207500Y-35600000D01*
X27207500Y-35600000D02*
X27207500Y-34000000D01*
%TO.C,D2*%
X37400000Y-6100000D02*
X37400000Y-8900000D01*
X35600000Y-6100000D02*
X37400000Y-6100000D01*
X36500000Y-6750000D02*
X36500000Y-7150000D01*
X36500000Y-7150000D02*
X37050000Y-7150000D01*
X36500000Y-7150000D02*
X35950000Y-7150000D01*
X36500000Y-7150000D02*
X36900000Y-7750000D01*
X36900000Y-7750000D02*
X36100000Y-7750000D01*
X36500000Y-7750000D02*
X36500000Y-8250000D01*
X36100000Y-7750000D02*
X36500000Y-7150000D01*
X37400000Y-8900000D02*
X35600000Y-8900000D01*
X35600000Y-8900000D02*
X35600000Y-6100000D01*
%TO.C,C4*%
X33200000Y-12600000D02*
X34800000Y-12600000D01*
X33200000Y-13400000D02*
X33200000Y-12600000D01*
X34800000Y-12600000D02*
X34800000Y-13400000D01*
X34800000Y-13400000D02*
X33200000Y-13400000D01*
%TO.C,U1*%
X25500000Y-20500000D02*
X26500000Y-19500000D01*
X25500000Y-24500000D02*
X25500000Y-20500000D01*
X26500000Y-19500000D02*
X30500000Y-19500000D01*
X30500000Y-19500000D02*
X30500000Y-24500000D01*
X30500000Y-24500000D02*
X25500000Y-24500000D01*
%TO.C,R2*%
X7012500Y-14400000D02*
X7012500Y-16000000D01*
X6187500Y-14400000D02*
X7012500Y-14400000D01*
X7012500Y-16000000D02*
X6187500Y-16000000D01*
X6187500Y-16000000D02*
X6187500Y-14400000D01*
%TO.C,R9*%
X22952500Y-34000000D02*
X22952500Y-35600000D01*
X22127500Y-34000000D02*
X22952500Y-34000000D01*
X22952500Y-35600000D02*
X22127500Y-35600000D01*
X22127500Y-35600000D02*
X22127500Y-34000000D01*
%TO.C,R4*%
X6550000Y-27447500D02*
X8150000Y-27447500D01*
X6550000Y-28272500D02*
X6550000Y-27447500D01*
X8150000Y-27447500D02*
X8150000Y-28272500D01*
X8150000Y-28272500D02*
X6550000Y-28272500D01*
%TO.C,C9*%
X21400000Y-23200000D02*
X21400000Y-24800000D01*
X20600000Y-23200000D02*
X21400000Y-23200000D01*
X21400000Y-24800000D02*
X20600000Y-24800000D01*
X20600000Y-24800000D02*
X20600000Y-23200000D01*
%TO.C,C6*%
X28500000Y-27000000D02*
X30100000Y-27000000D01*
X28500000Y-27800000D02*
X28500000Y-27000000D01*
X30100000Y-27000000D02*
X30100000Y-27800000D01*
X30100000Y-27800000D02*
X28500000Y-27800000D01*
%TO.C,R7*%
X7700000Y-22367500D02*
X9300000Y-22367500D01*
X7700000Y-23192500D02*
X7700000Y-22367500D01*
X9300000Y-22367500D02*
X9300000Y-23192500D01*
X9300000Y-23192500D02*
X7700000Y-23192500D01*
%TO.C,D1*%
X39000000Y-4200000D02*
X43000000Y-4200000D01*
X41799080Y-5850560D02*
X40198880Y-5850560D01*
X40998980Y-5850560D02*
X40998980Y-4948860D01*
X40998980Y-5850560D02*
X41799080Y-7001180D01*
X40998980Y-5850560D02*
X40249680Y-7001180D01*
X40998980Y-7001180D02*
X40998980Y-7999400D01*
X40249680Y-7001180D02*
X41799080Y-7001180D01*
X43000000Y-8800000D02*
X43000000Y-4200000D01*
X43000000Y-8800000D02*
X39000000Y-8800000D01*
X39000000Y-8800000D02*
X39000000Y-4200000D01*
%TO.C,J4*%
X19365000Y-39770000D02*
X18730000Y-39135000D01*
X31430000Y-39770000D02*
X19365000Y-39770000D01*
X18730000Y-39135000D02*
X18730000Y-37230000D01*
X18730000Y-37230000D02*
X31430000Y-37230000D01*
X31430000Y-37230000D02*
X31430000Y-39770000D01*
%TO.C,Q1*%
X33150000Y-5625000D02*
X32825000Y-5950000D01*
X33150000Y-3050000D02*
X33150000Y-5625000D01*
X32825000Y-5950000D02*
X31850000Y-5950000D01*
X31850000Y-5950000D02*
X31850000Y-3050000D01*
X31850000Y-3050000D02*
X33150000Y-3050000D01*
%TO.C,R10*%
X25492500Y-34000000D02*
X25492500Y-35600000D01*
X24667500Y-34000000D02*
X25492500Y-34000000D01*
X25492500Y-35600000D02*
X24667500Y-35600000D01*
X24667500Y-35600000D02*
X24667500Y-34000000D01*
%TO.C,C3*%
X31500000Y-29875000D02*
X33500000Y-29875000D01*
X31500000Y-31125000D02*
X31500000Y-29875000D01*
X33500000Y-29875000D02*
X33500000Y-31125000D01*
X33500000Y-31125000D02*
X31500000Y-31125000D01*
%TO.C,J2*%
X9540000Y-750000D02*
X9540000Y-8250000D01*
X9540000Y-8250000D02*
X19540000Y-8250000D01*
X9590000Y-7050000D02*
X19490000Y-7050000D01*
X19540000Y-750000D02*
X9540000Y-750000D01*
X19540000Y-8250000D02*
X19540000Y-750000D01*
%TO.C,F1*%
X20922500Y-1940000D02*
X28277500Y-1940000D01*
X20922500Y-7060000D02*
X20922500Y-1940000D01*
X28277500Y-1940000D02*
X28277500Y-7060000D01*
X28277500Y-7060000D02*
X20922500Y-7060000D01*
%TO.C,R8*%
X34012500Y-9400000D02*
X34012500Y-11000000D01*
X33187500Y-9400000D02*
X34012500Y-9400000D01*
X34012500Y-11000000D02*
X33187500Y-11000000D01*
X33187500Y-11000000D02*
X33187500Y-9400000D01*
%TO.C,C7*%
X32725000Y-26500000D02*
X32725000Y-28500000D01*
X31475000Y-26500000D02*
X32725000Y-26500000D01*
X32725000Y-28500000D02*
X31475000Y-28500000D01*
X31475000Y-28500000D02*
X31475000Y-26500000D01*
%TO.C,J1*%
X2730000Y-4365000D02*
X3365000Y-3730000D01*
X2730000Y-34210000D02*
X2730000Y-4365000D01*
X3365000Y-3730000D02*
X5270000Y-3730000D01*
X5270000Y-3730000D02*
X5270000Y-34210000D01*
X5270000Y-34210000D02*
X2730000Y-34210000D01*
%TO.C,R5*%
X6550000Y-29987500D02*
X8150000Y-29987500D01*
X6550000Y-30812500D02*
X6550000Y-29987500D01*
X8150000Y-29987500D02*
X8150000Y-30812500D01*
X8150000Y-30812500D02*
X6550000Y-30812500D01*
%TO.C,R6*%
X7700000Y-19827500D02*
X9300000Y-19827500D01*
X7700000Y-20652500D02*
X7700000Y-19827500D01*
X9300000Y-19827500D02*
X9300000Y-20652500D01*
X9300000Y-20652500D02*
X7700000Y-20652500D01*
%TO.C,R3*%
X7700000Y-24907500D02*
X9300000Y-24907500D01*
X7700000Y-25732500D02*
X7700000Y-24907500D01*
X9300000Y-24907500D02*
X9300000Y-25732500D01*
X9300000Y-25732500D02*
X7700000Y-25732500D01*
%TO.C,C1*%
X49300000Y-4700000D02*
X44700000Y-4700000D01*
X49300000Y-4700000D02*
X50300000Y-5700000D01*
X44700000Y-4700000D02*
X43700000Y-5700000D01*
X48330000Y-5295162D02*
X48330000Y-5925162D01*
X48645000Y-5610162D02*
X48015000Y-5610162D01*
X50300000Y-5700000D02*
X50300000Y-11300000D01*
X43700000Y-5700000D02*
X43700000Y-11300000D01*
X50300000Y-11300000D02*
X43700000Y-11300000D01*
X50150000Y-8000000D02*
G75*
G03*
X43850000Y-8000000I-3150000J0D01*
G01*
X43850000Y-8000000D02*
G75*
G03*
X50150000Y-8000000I3150000J0D01*
G01*
%TO.C,C5*%
X36200000Y-30100000D02*
X37800000Y-30100000D01*
X36200000Y-30900000D02*
X36200000Y-30100000D01*
X37800000Y-30100000D02*
X37800000Y-30900000D01*
X37800000Y-30900000D02*
X36200000Y-30900000D01*
%TO.C,R1*%
X22100000Y-19837500D02*
X23700000Y-19837500D01*
X22100000Y-20662500D02*
X22100000Y-19837500D01*
X23700000Y-19837500D02*
X23700000Y-20662500D01*
X23700000Y-20662500D02*
X22100000Y-20662500D01*
%TD*%
M02*
