%TF.GenerationSoftware,KiCad,Pcbnew,7.0.11+dfsg-1build4*%
%TF.CreationDate,2026-07-02T10:23:20+00:00*%
%TF.ProjectId,tmc5240-daughterboard-compact,746d6335-3234-4302-9d64-617567687465,rev?*%
%TF.SameCoordinates,Original*%
%TF.FileFunction,AssemblyDrawing,Top*%
%FSLAX46Y46*%
G04 Gerber Fmt 4.6, Leading zero omitted, Abs format (unit mm)*
G04 Created by KiCad (PCBNEW 7.0.11+dfsg-1build4) date 2026-07-02 10:23:20*
%MOMM*%
%LPD*%
G01*
G04 APERTURE LIST*
%ADD10C,0.150000*%
%ADD11C,0.080000*%
%ADD12C,0.060000*%
%ADD13C,0.050000*%
%ADD14C,0.100000*%
G04 APERTURE END LIST*
D10*
X30581009Y-10190476D02*
X30628628Y-10047619D01*
X30628628Y-10047619D02*
X30676247Y-10000000D01*
X30676247Y-10000000D02*
X30771485Y-9952381D01*
X30771485Y-9952381D02*
X30914342Y-9952381D01*
X30914342Y-9952381D02*
X31009580Y-10000000D01*
X31009580Y-10000000D02*
X31057200Y-10047619D01*
X31057200Y-10047619D02*
X31104819Y-10142857D01*
X31104819Y-10142857D02*
X31104819Y-10523809D01*
X31104819Y-10523809D02*
X30104819Y-10523809D01*
X30104819Y-10523809D02*
X30104819Y-10190476D01*
X30104819Y-10190476D02*
X30152438Y-10095238D01*
X30152438Y-10095238D02*
X30200057Y-10047619D01*
X30200057Y-10047619D02*
X30295295Y-10000000D01*
X30295295Y-10000000D02*
X30390533Y-10000000D01*
X30390533Y-10000000D02*
X30485771Y-10047619D01*
X30485771Y-10047619D02*
X30533390Y-10095238D01*
X30533390Y-10095238D02*
X30581009Y-10190476D01*
X30581009Y-10190476D02*
X30581009Y-10523809D01*
X30104819Y-9619047D02*
X30104819Y-8952381D01*
X30104819Y-8952381D02*
X31104819Y-9619047D01*
X31104819Y-9619047D02*
X31104819Y-8952381D01*
X30104819Y-8714285D02*
X30104819Y-8142857D01*
X31104819Y-8428571D02*
X30104819Y-8428571D01*
X30104819Y-7333333D02*
X30104819Y-7809523D01*
X30104819Y-7809523D02*
X30581009Y-7857142D01*
X30581009Y-7857142D02*
X30533390Y-7809523D01*
X30533390Y-7809523D02*
X30485771Y-7714285D01*
X30485771Y-7714285D02*
X30485771Y-7476190D01*
X30485771Y-7476190D02*
X30533390Y-7380952D01*
X30533390Y-7380952D02*
X30581009Y-7333333D01*
X30581009Y-7333333D02*
X30676247Y-7285714D01*
X30676247Y-7285714D02*
X30914342Y-7285714D01*
X30914342Y-7285714D02*
X31009580Y-7333333D01*
X31009580Y-7333333D02*
X31057200Y-7380952D01*
X31057200Y-7380952D02*
X31104819Y-7476190D01*
X31104819Y-7476190D02*
X31104819Y-7714285D01*
X31104819Y-7714285D02*
X31057200Y-7809523D01*
X31057200Y-7809523D02*
X31009580Y-7857142D01*
X30200057Y-6904761D02*
X30152438Y-6857142D01*
X30152438Y-6857142D02*
X30104819Y-6761904D01*
X30104819Y-6761904D02*
X30104819Y-6523809D01*
X30104819Y-6523809D02*
X30152438Y-6428571D01*
X30152438Y-6428571D02*
X30200057Y-6380952D01*
X30200057Y-6380952D02*
X30295295Y-6333333D01*
X30295295Y-6333333D02*
X30390533Y-6333333D01*
X30390533Y-6333333D02*
X30533390Y-6380952D01*
X30533390Y-6380952D02*
X31104819Y-6952380D01*
X31104819Y-6952380D02*
X31104819Y-6333333D01*
X31009580Y-5333333D02*
X31057200Y-5380952D01*
X31057200Y-5380952D02*
X31104819Y-5523809D01*
X31104819Y-5523809D02*
X31104819Y-5619047D01*
X31104819Y-5619047D02*
X31057200Y-5761904D01*
X31057200Y-5761904D02*
X30961961Y-5857142D01*
X30961961Y-5857142D02*
X30866723Y-5904761D01*
X30866723Y-5904761D02*
X30676247Y-5952380D01*
X30676247Y-5952380D02*
X30533390Y-5952380D01*
X30533390Y-5952380D02*
X30342914Y-5904761D01*
X30342914Y-5904761D02*
X30247676Y-5857142D01*
X30247676Y-5857142D02*
X30152438Y-5761904D01*
X30152438Y-5761904D02*
X30104819Y-5619047D01*
X30104819Y-5619047D02*
X30104819Y-5523809D01*
X30104819Y-5523809D02*
X30152438Y-5380952D01*
X30152438Y-5380952D02*
X30200057Y-5333333D01*
X31104819Y-4380952D02*
X31104819Y-4952380D01*
X31104819Y-4666666D02*
X30104819Y-4666666D01*
X30104819Y-4666666D02*
X30247676Y-4761904D01*
X30247676Y-4761904D02*
X30342914Y-4857142D01*
X30342914Y-4857142D02*
X30390533Y-4952380D01*
X30200057Y-3999999D02*
X30152438Y-3952380D01*
X30152438Y-3952380D02*
X30104819Y-3857142D01*
X30104819Y-3857142D02*
X30104819Y-3619047D01*
X30104819Y-3619047D02*
X30152438Y-3523809D01*
X30152438Y-3523809D02*
X30200057Y-3476190D01*
X30200057Y-3476190D02*
X30295295Y-3428571D01*
X30295295Y-3428571D02*
X30390533Y-3428571D01*
X30390533Y-3428571D02*
X30533390Y-3476190D01*
X30533390Y-3476190D02*
X31104819Y-4047618D01*
X31104819Y-4047618D02*
X31104819Y-3428571D01*
X35204819Y-7738094D02*
X34204819Y-7738094D01*
X34204819Y-7738094D02*
X34204819Y-7499999D01*
X34204819Y-7499999D02*
X34252438Y-7357142D01*
X34252438Y-7357142D02*
X34347676Y-7261904D01*
X34347676Y-7261904D02*
X34442914Y-7214285D01*
X34442914Y-7214285D02*
X34633390Y-7166666D01*
X34633390Y-7166666D02*
X34776247Y-7166666D01*
X34776247Y-7166666D02*
X34966723Y-7214285D01*
X34966723Y-7214285D02*
X35061961Y-7261904D01*
X35061961Y-7261904D02*
X35157200Y-7357142D01*
X35157200Y-7357142D02*
X35204819Y-7499999D01*
X35204819Y-7499999D02*
X35204819Y-7738094D01*
X34300057Y-6785713D02*
X34252438Y-6738094D01*
X34252438Y-6738094D02*
X34204819Y-6642856D01*
X34204819Y-6642856D02*
X34204819Y-6404761D01*
X34204819Y-6404761D02*
X34252438Y-6309523D01*
X34252438Y-6309523D02*
X34300057Y-6261904D01*
X34300057Y-6261904D02*
X34395295Y-6214285D01*
X34395295Y-6214285D02*
X34490533Y-6214285D01*
X34490533Y-6214285D02*
X34633390Y-6261904D01*
X34633390Y-6261904D02*
X35204819Y-6833332D01*
X35204819Y-6833332D02*
X35204819Y-6214285D01*
X19119048Y-29307200D02*
X19261905Y-29354819D01*
X19261905Y-29354819D02*
X19500000Y-29354819D01*
X19500000Y-29354819D02*
X19595238Y-29307200D01*
X19595238Y-29307200D02*
X19642857Y-29259580D01*
X19642857Y-29259580D02*
X19690476Y-29164342D01*
X19690476Y-29164342D02*
X19690476Y-29069104D01*
X19690476Y-29069104D02*
X19642857Y-28973866D01*
X19642857Y-28973866D02*
X19595238Y-28926247D01*
X19595238Y-28926247D02*
X19500000Y-28878628D01*
X19500000Y-28878628D02*
X19309524Y-28831009D01*
X19309524Y-28831009D02*
X19214286Y-28783390D01*
X19214286Y-28783390D02*
X19166667Y-28735771D01*
X19166667Y-28735771D02*
X19119048Y-28640533D01*
X19119048Y-28640533D02*
X19119048Y-28545295D01*
X19119048Y-28545295D02*
X19166667Y-28450057D01*
X19166667Y-28450057D02*
X19214286Y-28402438D01*
X19214286Y-28402438D02*
X19309524Y-28354819D01*
X19309524Y-28354819D02*
X19547619Y-28354819D01*
X19547619Y-28354819D02*
X19690476Y-28402438D01*
X20119048Y-29354819D02*
X20119048Y-28354819D01*
X20119048Y-28354819D02*
X20500000Y-28354819D01*
X20500000Y-28354819D02*
X20595238Y-28402438D01*
X20595238Y-28402438D02*
X20642857Y-28450057D01*
X20642857Y-28450057D02*
X20690476Y-28545295D01*
X20690476Y-28545295D02*
X20690476Y-28688152D01*
X20690476Y-28688152D02*
X20642857Y-28783390D01*
X20642857Y-28783390D02*
X20595238Y-28831009D01*
X20595238Y-28831009D02*
X20500000Y-28878628D01*
X20500000Y-28878628D02*
X20119048Y-28878628D01*
X21119048Y-29354819D02*
X21119048Y-28354819D01*
X22309523Y-28307200D02*
X21452381Y-29592914D01*
X22642857Y-28354819D02*
X22642857Y-29164342D01*
X22642857Y-29164342D02*
X22690476Y-29259580D01*
X22690476Y-29259580D02*
X22738095Y-29307200D01*
X22738095Y-29307200D02*
X22833333Y-29354819D01*
X22833333Y-29354819D02*
X23023809Y-29354819D01*
X23023809Y-29354819D02*
X23119047Y-29307200D01*
X23119047Y-29307200D02*
X23166666Y-29259580D01*
X23166666Y-29259580D02*
X23214285Y-29164342D01*
X23214285Y-29164342D02*
X23214285Y-28354819D01*
X23642857Y-29069104D02*
X24119047Y-29069104D01*
X23547619Y-29354819D02*
X23880952Y-28354819D01*
X23880952Y-28354819D02*
X24214285Y-29354819D01*
X25119047Y-29354819D02*
X24785714Y-28878628D01*
X24547619Y-29354819D02*
X24547619Y-28354819D01*
X24547619Y-28354819D02*
X24928571Y-28354819D01*
X24928571Y-28354819D02*
X25023809Y-28402438D01*
X25023809Y-28402438D02*
X25071428Y-28450057D01*
X25071428Y-28450057D02*
X25119047Y-28545295D01*
X25119047Y-28545295D02*
X25119047Y-28688152D01*
X25119047Y-28688152D02*
X25071428Y-28783390D01*
X25071428Y-28783390D02*
X25023809Y-28831009D01*
X25023809Y-28831009D02*
X24928571Y-28878628D01*
X24928571Y-28878628D02*
X24547619Y-28878628D01*
X25404762Y-28354819D02*
X25976190Y-28354819D01*
X25690476Y-29354819D02*
X25690476Y-28354819D01*
X19547619Y-22754819D02*
X20119047Y-22754819D01*
X19833333Y-23754819D02*
X19833333Y-22754819D01*
X20452381Y-23754819D02*
X20452381Y-22754819D01*
X20452381Y-22754819D02*
X20785714Y-23469104D01*
X20785714Y-23469104D02*
X21119047Y-22754819D01*
X21119047Y-22754819D02*
X21119047Y-23754819D01*
X22166666Y-23659580D02*
X22119047Y-23707200D01*
X22119047Y-23707200D02*
X21976190Y-23754819D01*
X21976190Y-23754819D02*
X21880952Y-23754819D01*
X21880952Y-23754819D02*
X21738095Y-23707200D01*
X21738095Y-23707200D02*
X21642857Y-23611961D01*
X21642857Y-23611961D02*
X21595238Y-23516723D01*
X21595238Y-23516723D02*
X21547619Y-23326247D01*
X21547619Y-23326247D02*
X21547619Y-23183390D01*
X21547619Y-23183390D02*
X21595238Y-22992914D01*
X21595238Y-22992914D02*
X21642857Y-22897676D01*
X21642857Y-22897676D02*
X21738095Y-22802438D01*
X21738095Y-22802438D02*
X21880952Y-22754819D01*
X21880952Y-22754819D02*
X21976190Y-22754819D01*
X21976190Y-22754819D02*
X22119047Y-22802438D01*
X22119047Y-22802438D02*
X22166666Y-22850057D01*
X23071428Y-22754819D02*
X22595238Y-22754819D01*
X22595238Y-22754819D02*
X22547619Y-23231009D01*
X22547619Y-23231009D02*
X22595238Y-23183390D01*
X22595238Y-23183390D02*
X22690476Y-23135771D01*
X22690476Y-23135771D02*
X22928571Y-23135771D01*
X22928571Y-23135771D02*
X23023809Y-23183390D01*
X23023809Y-23183390D02*
X23071428Y-23231009D01*
X23071428Y-23231009D02*
X23119047Y-23326247D01*
X23119047Y-23326247D02*
X23119047Y-23564342D01*
X23119047Y-23564342D02*
X23071428Y-23659580D01*
X23071428Y-23659580D02*
X23023809Y-23707200D01*
X23023809Y-23707200D02*
X22928571Y-23754819D01*
X22928571Y-23754819D02*
X22690476Y-23754819D01*
X22690476Y-23754819D02*
X22595238Y-23707200D01*
X22595238Y-23707200D02*
X22547619Y-23659580D01*
X23500000Y-22850057D02*
X23547619Y-22802438D01*
X23547619Y-22802438D02*
X23642857Y-22754819D01*
X23642857Y-22754819D02*
X23880952Y-22754819D01*
X23880952Y-22754819D02*
X23976190Y-22802438D01*
X23976190Y-22802438D02*
X24023809Y-22850057D01*
X24023809Y-22850057D02*
X24071428Y-22945295D01*
X24071428Y-22945295D02*
X24071428Y-23040533D01*
X24071428Y-23040533D02*
X24023809Y-23183390D01*
X24023809Y-23183390D02*
X23452381Y-23754819D01*
X23452381Y-23754819D02*
X24071428Y-23754819D01*
X24928571Y-23088152D02*
X24928571Y-23754819D01*
X24690476Y-22707200D02*
X24452381Y-23421485D01*
X24452381Y-23421485D02*
X25071428Y-23421485D01*
X25642857Y-22754819D02*
X25738095Y-22754819D01*
X25738095Y-22754819D02*
X25833333Y-22802438D01*
X25833333Y-22802438D02*
X25880952Y-22850057D01*
X25880952Y-22850057D02*
X25928571Y-22945295D01*
X25928571Y-22945295D02*
X25976190Y-23135771D01*
X25976190Y-23135771D02*
X25976190Y-23373866D01*
X25976190Y-23373866D02*
X25928571Y-23564342D01*
X25928571Y-23564342D02*
X25880952Y-23659580D01*
X25880952Y-23659580D02*
X25833333Y-23707200D01*
X25833333Y-23707200D02*
X25738095Y-23754819D01*
X25738095Y-23754819D02*
X25642857Y-23754819D01*
X25642857Y-23754819D02*
X25547619Y-23707200D01*
X25547619Y-23707200D02*
X25500000Y-23659580D01*
X25500000Y-23659580D02*
X25452381Y-23564342D01*
X25452381Y-23564342D02*
X25404762Y-23373866D01*
X25404762Y-23373866D02*
X25404762Y-23135771D01*
X25404762Y-23135771D02*
X25452381Y-22945295D01*
X25452381Y-22945295D02*
X25500000Y-22850057D01*
X25500000Y-22850057D02*
X25547619Y-22802438D01*
X25547619Y-22802438D02*
X25642857Y-22754819D01*
X26357143Y-23469104D02*
X26833333Y-23469104D01*
X26261905Y-23754819D02*
X26595238Y-22754819D01*
X26595238Y-22754819D02*
X26928571Y-23754819D01*
X27119048Y-22754819D02*
X27690476Y-22754819D01*
X27404762Y-23754819D02*
X27404762Y-22754819D01*
X28309524Y-22754819D02*
X28309524Y-23469104D01*
X28309524Y-23469104D02*
X28261905Y-23611961D01*
X28261905Y-23611961D02*
X28166667Y-23707200D01*
X28166667Y-23707200D02*
X28023810Y-23754819D01*
X28023810Y-23754819D02*
X27928572Y-23754819D01*
X28785715Y-23373866D02*
X29547620Y-23373866D01*
X29166667Y-23754819D02*
X29166667Y-22992914D01*
X29880953Y-22754819D02*
X30452381Y-22754819D01*
X30166667Y-23754819D02*
X30166667Y-22754819D01*
X24238095Y-18954819D02*
X24238095Y-19764342D01*
X24238095Y-19764342D02*
X24285714Y-19859580D01*
X24285714Y-19859580D02*
X24333333Y-19907200D01*
X24333333Y-19907200D02*
X24428571Y-19954819D01*
X24428571Y-19954819D02*
X24619047Y-19954819D01*
X24619047Y-19954819D02*
X24714285Y-19907200D01*
X24714285Y-19907200D02*
X24761904Y-19859580D01*
X24761904Y-19859580D02*
X24809523Y-19764342D01*
X24809523Y-19764342D02*
X24809523Y-18954819D01*
X25809523Y-19954819D02*
X25238095Y-19954819D01*
X25523809Y-19954819D02*
X25523809Y-18954819D01*
X25523809Y-18954819D02*
X25428571Y-19097676D01*
X25428571Y-19097676D02*
X25333333Y-19192914D01*
X25333333Y-19192914D02*
X25238095Y-19240533D01*
X35799999Y-13634819D02*
X35228571Y-13634819D01*
X35514285Y-13634819D02*
X35514285Y-12634819D01*
X35514285Y-12634819D02*
X35419047Y-12777676D01*
X35419047Y-12777676D02*
X35323809Y-12872914D01*
X35323809Y-12872914D02*
X35228571Y-12920533D01*
X36657142Y-12968152D02*
X36657142Y-13634819D01*
X36228571Y-12968152D02*
X36228571Y-13491961D01*
X36228571Y-13491961D02*
X36276190Y-13587200D01*
X36276190Y-13587200D02*
X36371428Y-13634819D01*
X36371428Y-13634819D02*
X36514285Y-13634819D01*
X36514285Y-13634819D02*
X36609523Y-13587200D01*
X36609523Y-13587200D02*
X36657142Y-13539580D01*
X37466666Y-13111009D02*
X37133333Y-13111009D01*
X37133333Y-13634819D02*
X37133333Y-12634819D01*
X37133333Y-12634819D02*
X37609523Y-12634819D01*
X38704761Y-12587200D02*
X37847619Y-13872914D01*
X39514285Y-12634819D02*
X39038095Y-12634819D01*
X39038095Y-12634819D02*
X38990476Y-13111009D01*
X38990476Y-13111009D02*
X39038095Y-13063390D01*
X39038095Y-13063390D02*
X39133333Y-13015771D01*
X39133333Y-13015771D02*
X39371428Y-13015771D01*
X39371428Y-13015771D02*
X39466666Y-13063390D01*
X39466666Y-13063390D02*
X39514285Y-13111009D01*
X39514285Y-13111009D02*
X39561904Y-13206247D01*
X39561904Y-13206247D02*
X39561904Y-13444342D01*
X39561904Y-13444342D02*
X39514285Y-13539580D01*
X39514285Y-13539580D02*
X39466666Y-13587200D01*
X39466666Y-13587200D02*
X39371428Y-13634819D01*
X39371428Y-13634819D02*
X39133333Y-13634819D01*
X39133333Y-13634819D02*
X39038095Y-13587200D01*
X39038095Y-13587200D02*
X38990476Y-13539580D01*
X40180952Y-12634819D02*
X40276190Y-12634819D01*
X40276190Y-12634819D02*
X40371428Y-12682438D01*
X40371428Y-12682438D02*
X40419047Y-12730057D01*
X40419047Y-12730057D02*
X40466666Y-12825295D01*
X40466666Y-12825295D02*
X40514285Y-13015771D01*
X40514285Y-13015771D02*
X40514285Y-13253866D01*
X40514285Y-13253866D02*
X40466666Y-13444342D01*
X40466666Y-13444342D02*
X40419047Y-13539580D01*
X40419047Y-13539580D02*
X40371428Y-13587200D01*
X40371428Y-13587200D02*
X40276190Y-13634819D01*
X40276190Y-13634819D02*
X40180952Y-13634819D01*
X40180952Y-13634819D02*
X40085714Y-13587200D01*
X40085714Y-13587200D02*
X40038095Y-13539580D01*
X40038095Y-13539580D02*
X39990476Y-13444342D01*
X39990476Y-13444342D02*
X39942857Y-13253866D01*
X39942857Y-13253866D02*
X39942857Y-13015771D01*
X39942857Y-13015771D02*
X39990476Y-12825295D01*
X39990476Y-12825295D02*
X40038095Y-12730057D01*
X40038095Y-12730057D02*
X40085714Y-12682438D01*
X40085714Y-12682438D02*
X40180952Y-12634819D01*
X40800000Y-12634819D02*
X41133333Y-13634819D01*
X41133333Y-13634819D02*
X41466666Y-12634819D01*
D11*
X38216666Y-11679530D02*
X38192857Y-11703340D01*
X38192857Y-11703340D02*
X38121428Y-11727149D01*
X38121428Y-11727149D02*
X38073809Y-11727149D01*
X38073809Y-11727149D02*
X38002381Y-11703340D01*
X38002381Y-11703340D02*
X37954762Y-11655720D01*
X37954762Y-11655720D02*
X37930952Y-11608101D01*
X37930952Y-11608101D02*
X37907143Y-11512863D01*
X37907143Y-11512863D02*
X37907143Y-11441435D01*
X37907143Y-11441435D02*
X37930952Y-11346197D01*
X37930952Y-11346197D02*
X37954762Y-11298578D01*
X37954762Y-11298578D02*
X38002381Y-11250959D01*
X38002381Y-11250959D02*
X38073809Y-11227149D01*
X38073809Y-11227149D02*
X38121428Y-11227149D01*
X38121428Y-11227149D02*
X38192857Y-11250959D01*
X38192857Y-11250959D02*
X38216666Y-11274768D01*
X38407143Y-11274768D02*
X38430952Y-11250959D01*
X38430952Y-11250959D02*
X38478571Y-11227149D01*
X38478571Y-11227149D02*
X38597619Y-11227149D01*
X38597619Y-11227149D02*
X38645238Y-11250959D01*
X38645238Y-11250959D02*
X38669047Y-11274768D01*
X38669047Y-11274768D02*
X38692857Y-11322387D01*
X38692857Y-11322387D02*
X38692857Y-11370006D01*
X38692857Y-11370006D02*
X38669047Y-11441435D01*
X38669047Y-11441435D02*
X38383333Y-11727149D01*
X38383333Y-11727149D02*
X38692857Y-11727149D01*
D10*
X23052381Y-26380057D02*
X23100000Y-26332438D01*
X23100000Y-26332438D02*
X23195238Y-26284819D01*
X23195238Y-26284819D02*
X23433333Y-26284819D01*
X23433333Y-26284819D02*
X23528571Y-26332438D01*
X23528571Y-26332438D02*
X23576190Y-26380057D01*
X23576190Y-26380057D02*
X23623809Y-26475295D01*
X23623809Y-26475295D02*
X23623809Y-26570533D01*
X23623809Y-26570533D02*
X23576190Y-26713390D01*
X23576190Y-26713390D02*
X23004762Y-27284819D01*
X23004762Y-27284819D02*
X23623809Y-27284819D01*
X24004762Y-26380057D02*
X24052381Y-26332438D01*
X24052381Y-26332438D02*
X24147619Y-26284819D01*
X24147619Y-26284819D02*
X24385714Y-26284819D01*
X24385714Y-26284819D02*
X24480952Y-26332438D01*
X24480952Y-26332438D02*
X24528571Y-26380057D01*
X24528571Y-26380057D02*
X24576190Y-26475295D01*
X24576190Y-26475295D02*
X24576190Y-26570533D01*
X24576190Y-26570533D02*
X24528571Y-26713390D01*
X24528571Y-26713390D02*
X23957143Y-27284819D01*
X23957143Y-27284819D02*
X24576190Y-27284819D01*
X25004762Y-26618152D02*
X25004762Y-27284819D01*
X25004762Y-26713390D02*
X25052381Y-26665771D01*
X25052381Y-26665771D02*
X25147619Y-26618152D01*
X25147619Y-26618152D02*
X25290476Y-26618152D01*
X25290476Y-26618152D02*
X25385714Y-26665771D01*
X25385714Y-26665771D02*
X25433333Y-26761009D01*
X25433333Y-26761009D02*
X25433333Y-27284819D01*
X26242857Y-26761009D02*
X25909524Y-26761009D01*
X25909524Y-27284819D02*
X25909524Y-26284819D01*
X25909524Y-26284819D02*
X26385714Y-26284819D01*
X27480952Y-26237200D02*
X26623810Y-27522914D01*
X28290476Y-26284819D02*
X27814286Y-26284819D01*
X27814286Y-26284819D02*
X27766667Y-26761009D01*
X27766667Y-26761009D02*
X27814286Y-26713390D01*
X27814286Y-26713390D02*
X27909524Y-26665771D01*
X27909524Y-26665771D02*
X28147619Y-26665771D01*
X28147619Y-26665771D02*
X28242857Y-26713390D01*
X28242857Y-26713390D02*
X28290476Y-26761009D01*
X28290476Y-26761009D02*
X28338095Y-26856247D01*
X28338095Y-26856247D02*
X28338095Y-27094342D01*
X28338095Y-27094342D02*
X28290476Y-27189580D01*
X28290476Y-27189580D02*
X28242857Y-27237200D01*
X28242857Y-27237200D02*
X28147619Y-27284819D01*
X28147619Y-27284819D02*
X27909524Y-27284819D01*
X27909524Y-27284819D02*
X27814286Y-27237200D01*
X27814286Y-27237200D02*
X27766667Y-27189580D01*
X28957143Y-26284819D02*
X29052381Y-26284819D01*
X29052381Y-26284819D02*
X29147619Y-26332438D01*
X29147619Y-26332438D02*
X29195238Y-26380057D01*
X29195238Y-26380057D02*
X29242857Y-26475295D01*
X29242857Y-26475295D02*
X29290476Y-26665771D01*
X29290476Y-26665771D02*
X29290476Y-26903866D01*
X29290476Y-26903866D02*
X29242857Y-27094342D01*
X29242857Y-27094342D02*
X29195238Y-27189580D01*
X29195238Y-27189580D02*
X29147619Y-27237200D01*
X29147619Y-27237200D02*
X29052381Y-27284819D01*
X29052381Y-27284819D02*
X28957143Y-27284819D01*
X28957143Y-27284819D02*
X28861905Y-27237200D01*
X28861905Y-27237200D02*
X28814286Y-27189580D01*
X28814286Y-27189580D02*
X28766667Y-27094342D01*
X28766667Y-27094342D02*
X28719048Y-26903866D01*
X28719048Y-26903866D02*
X28719048Y-26665771D01*
X28719048Y-26665771D02*
X28766667Y-26475295D01*
X28766667Y-26475295D02*
X28814286Y-26380057D01*
X28814286Y-26380057D02*
X28861905Y-26332438D01*
X28861905Y-26332438D02*
X28957143Y-26284819D01*
X29576191Y-26284819D02*
X29909524Y-27284819D01*
X29909524Y-27284819D02*
X30242857Y-26284819D01*
D12*
X26533333Y-25543832D02*
X26514285Y-25562880D01*
X26514285Y-25562880D02*
X26457143Y-25581927D01*
X26457143Y-25581927D02*
X26419047Y-25581927D01*
X26419047Y-25581927D02*
X26361904Y-25562880D01*
X26361904Y-25562880D02*
X26323809Y-25524784D01*
X26323809Y-25524784D02*
X26304762Y-25486689D01*
X26304762Y-25486689D02*
X26285714Y-25410499D01*
X26285714Y-25410499D02*
X26285714Y-25353356D01*
X26285714Y-25353356D02*
X26304762Y-25277165D01*
X26304762Y-25277165D02*
X26323809Y-25239070D01*
X26323809Y-25239070D02*
X26361904Y-25200975D01*
X26361904Y-25200975D02*
X26419047Y-25181927D01*
X26419047Y-25181927D02*
X26457143Y-25181927D01*
X26457143Y-25181927D02*
X26514285Y-25200975D01*
X26514285Y-25200975D02*
X26533333Y-25220022D01*
X26876190Y-25181927D02*
X26800000Y-25181927D01*
X26800000Y-25181927D02*
X26761904Y-25200975D01*
X26761904Y-25200975D02*
X26742857Y-25220022D01*
X26742857Y-25220022D02*
X26704762Y-25277165D01*
X26704762Y-25277165D02*
X26685714Y-25353356D01*
X26685714Y-25353356D02*
X26685714Y-25505737D01*
X26685714Y-25505737D02*
X26704762Y-25543832D01*
X26704762Y-25543832D02*
X26723809Y-25562880D01*
X26723809Y-25562880D02*
X26761904Y-25581927D01*
X26761904Y-25581927D02*
X26838095Y-25581927D01*
X26838095Y-25581927D02*
X26876190Y-25562880D01*
X26876190Y-25562880D02*
X26895238Y-25543832D01*
X26895238Y-25543832D02*
X26914285Y-25505737D01*
X26914285Y-25505737D02*
X26914285Y-25410499D01*
X26914285Y-25410499D02*
X26895238Y-25372403D01*
X26895238Y-25372403D02*
X26876190Y-25353356D01*
X26876190Y-25353356D02*
X26838095Y-25334308D01*
X26838095Y-25334308D02*
X26761904Y-25334308D01*
X26761904Y-25334308D02*
X26723809Y-25353356D01*
X26723809Y-25353356D02*
X26704762Y-25372403D01*
X26704762Y-25372403D02*
X26685714Y-25410499D01*
D10*
X41204819Y-21861904D02*
X40204819Y-21861904D01*
X40204819Y-21861904D02*
X40919104Y-21528571D01*
X40919104Y-21528571D02*
X40204819Y-21195238D01*
X40204819Y-21195238D02*
X41204819Y-21195238D01*
X40204819Y-20528571D02*
X40204819Y-20338095D01*
X40204819Y-20338095D02*
X40252438Y-20242857D01*
X40252438Y-20242857D02*
X40347676Y-20147619D01*
X40347676Y-20147619D02*
X40538152Y-20100000D01*
X40538152Y-20100000D02*
X40871485Y-20100000D01*
X40871485Y-20100000D02*
X41061961Y-20147619D01*
X41061961Y-20147619D02*
X41157200Y-20242857D01*
X41157200Y-20242857D02*
X41204819Y-20338095D01*
X41204819Y-20338095D02*
X41204819Y-20528571D01*
X41204819Y-20528571D02*
X41157200Y-20623809D01*
X41157200Y-20623809D02*
X41061961Y-20719047D01*
X41061961Y-20719047D02*
X40871485Y-20766666D01*
X40871485Y-20766666D02*
X40538152Y-20766666D01*
X40538152Y-20766666D02*
X40347676Y-20719047D01*
X40347676Y-20719047D02*
X40252438Y-20623809D01*
X40252438Y-20623809D02*
X40204819Y-20528571D01*
X40204819Y-19814285D02*
X40204819Y-19242857D01*
X41204819Y-19528571D02*
X40204819Y-19528571D01*
X40204819Y-18719047D02*
X40204819Y-18528571D01*
X40204819Y-18528571D02*
X40252438Y-18433333D01*
X40252438Y-18433333D02*
X40347676Y-18338095D01*
X40347676Y-18338095D02*
X40538152Y-18290476D01*
X40538152Y-18290476D02*
X40871485Y-18290476D01*
X40871485Y-18290476D02*
X41061961Y-18338095D01*
X41061961Y-18338095D02*
X41157200Y-18433333D01*
X41157200Y-18433333D02*
X41204819Y-18528571D01*
X41204819Y-18528571D02*
X41204819Y-18719047D01*
X41204819Y-18719047D02*
X41157200Y-18814285D01*
X41157200Y-18814285D02*
X41061961Y-18909523D01*
X41061961Y-18909523D02*
X40871485Y-18957142D01*
X40871485Y-18957142D02*
X40538152Y-18957142D01*
X40538152Y-18957142D02*
X40347676Y-18909523D01*
X40347676Y-18909523D02*
X40252438Y-18814285D01*
X40252438Y-18814285D02*
X40204819Y-18719047D01*
X41204819Y-17290476D02*
X40728628Y-17623809D01*
X41204819Y-17861904D02*
X40204819Y-17861904D01*
X40204819Y-17861904D02*
X40204819Y-17480952D01*
X40204819Y-17480952D02*
X40252438Y-17385714D01*
X40252438Y-17385714D02*
X40300057Y-17338095D01*
X40300057Y-17338095D02*
X40395295Y-17290476D01*
X40395295Y-17290476D02*
X40538152Y-17290476D01*
X40538152Y-17290476D02*
X40633390Y-17338095D01*
X40633390Y-17338095D02*
X40681009Y-17385714D01*
X40681009Y-17385714D02*
X40728628Y-17480952D01*
X40728628Y-17480952D02*
X40728628Y-17861904D01*
X44954819Y-19953333D02*
X45669104Y-19953333D01*
X45669104Y-19953333D02*
X45811961Y-20000952D01*
X45811961Y-20000952D02*
X45907200Y-20096190D01*
X45907200Y-20096190D02*
X45954819Y-20239047D01*
X45954819Y-20239047D02*
X45954819Y-20334285D01*
X44954819Y-19572380D02*
X44954819Y-18953333D01*
X44954819Y-18953333D02*
X45335771Y-19286666D01*
X45335771Y-19286666D02*
X45335771Y-19143809D01*
X45335771Y-19143809D02*
X45383390Y-19048571D01*
X45383390Y-19048571D02*
X45431009Y-19000952D01*
X45431009Y-19000952D02*
X45526247Y-18953333D01*
X45526247Y-18953333D02*
X45764342Y-18953333D01*
X45764342Y-18953333D02*
X45859580Y-19000952D01*
X45859580Y-19000952D02*
X45907200Y-19048571D01*
X45907200Y-19048571D02*
X45954819Y-19143809D01*
X45954819Y-19143809D02*
X45954819Y-19429523D01*
X45954819Y-19429523D02*
X45907200Y-19524761D01*
X45907200Y-19524761D02*
X45859580Y-19572380D01*
X6754761Y-28344819D02*
X6183333Y-28344819D01*
X6469047Y-28344819D02*
X6469047Y-27344819D01*
X6469047Y-27344819D02*
X6373809Y-27487676D01*
X6373809Y-27487676D02*
X6278571Y-27582914D01*
X6278571Y-27582914D02*
X6183333Y-27630533D01*
X7373809Y-27344819D02*
X7469047Y-27344819D01*
X7469047Y-27344819D02*
X7564285Y-27392438D01*
X7564285Y-27392438D02*
X7611904Y-27440057D01*
X7611904Y-27440057D02*
X7659523Y-27535295D01*
X7659523Y-27535295D02*
X7707142Y-27725771D01*
X7707142Y-27725771D02*
X7707142Y-27963866D01*
X7707142Y-27963866D02*
X7659523Y-28154342D01*
X7659523Y-28154342D02*
X7611904Y-28249580D01*
X7611904Y-28249580D02*
X7564285Y-28297200D01*
X7564285Y-28297200D02*
X7469047Y-28344819D01*
X7469047Y-28344819D02*
X7373809Y-28344819D01*
X7373809Y-28344819D02*
X7278571Y-28297200D01*
X7278571Y-28297200D02*
X7230952Y-28249580D01*
X7230952Y-28249580D02*
X7183333Y-28154342D01*
X7183333Y-28154342D02*
X7135714Y-27963866D01*
X7135714Y-27963866D02*
X7135714Y-27725771D01*
X7135714Y-27725771D02*
X7183333Y-27535295D01*
X7183333Y-27535295D02*
X7230952Y-27440057D01*
X7230952Y-27440057D02*
X7278571Y-27392438D01*
X7278571Y-27392438D02*
X7373809Y-27344819D01*
X8135714Y-28344819D02*
X8135714Y-27344819D01*
X8230952Y-27963866D02*
X8516666Y-28344819D01*
X8516666Y-27678152D02*
X8135714Y-28059104D01*
D12*
X7283333Y-26641927D02*
X7150000Y-26451451D01*
X7054762Y-26641927D02*
X7054762Y-26241927D01*
X7054762Y-26241927D02*
X7207143Y-26241927D01*
X7207143Y-26241927D02*
X7245238Y-26260975D01*
X7245238Y-26260975D02*
X7264285Y-26280022D01*
X7264285Y-26280022D02*
X7283333Y-26318118D01*
X7283333Y-26318118D02*
X7283333Y-26375260D01*
X7283333Y-26375260D02*
X7264285Y-26413356D01*
X7264285Y-26413356D02*
X7245238Y-26432403D01*
X7245238Y-26432403D02*
X7207143Y-26451451D01*
X7207143Y-26451451D02*
X7054762Y-26451451D01*
X7626190Y-26375260D02*
X7626190Y-26641927D01*
X7530952Y-26222880D02*
X7435714Y-26508594D01*
X7435714Y-26508594D02*
X7683333Y-26508594D01*
D10*
X30547618Y-13384819D02*
X29976190Y-13384819D01*
X30261904Y-13384819D02*
X30261904Y-12384819D01*
X30261904Y-12384819D02*
X30166666Y-12527676D01*
X30166666Y-12527676D02*
X30071428Y-12622914D01*
X30071428Y-12622914D02*
X29976190Y-12670533D01*
X31166666Y-12384819D02*
X31261904Y-12384819D01*
X31261904Y-12384819D02*
X31357142Y-12432438D01*
X31357142Y-12432438D02*
X31404761Y-12480057D01*
X31404761Y-12480057D02*
X31452380Y-12575295D01*
X31452380Y-12575295D02*
X31499999Y-12765771D01*
X31499999Y-12765771D02*
X31499999Y-13003866D01*
X31499999Y-13003866D02*
X31452380Y-13194342D01*
X31452380Y-13194342D02*
X31404761Y-13289580D01*
X31404761Y-13289580D02*
X31357142Y-13337200D01*
X31357142Y-13337200D02*
X31261904Y-13384819D01*
X31261904Y-13384819D02*
X31166666Y-13384819D01*
X31166666Y-13384819D02*
X31071428Y-13337200D01*
X31071428Y-13337200D02*
X31023809Y-13289580D01*
X31023809Y-13289580D02*
X30976190Y-13194342D01*
X30976190Y-13194342D02*
X30928571Y-13003866D01*
X30928571Y-13003866D02*
X30928571Y-12765771D01*
X30928571Y-12765771D02*
X30976190Y-12575295D01*
X30976190Y-12575295D02*
X31023809Y-12480057D01*
X31023809Y-12480057D02*
X31071428Y-12432438D01*
X31071428Y-12432438D02*
X31166666Y-12384819D01*
X32119047Y-12384819D02*
X32214285Y-12384819D01*
X32214285Y-12384819D02*
X32309523Y-12432438D01*
X32309523Y-12432438D02*
X32357142Y-12480057D01*
X32357142Y-12480057D02*
X32404761Y-12575295D01*
X32404761Y-12575295D02*
X32452380Y-12765771D01*
X32452380Y-12765771D02*
X32452380Y-13003866D01*
X32452380Y-13003866D02*
X32404761Y-13194342D01*
X32404761Y-13194342D02*
X32357142Y-13289580D01*
X32357142Y-13289580D02*
X32309523Y-13337200D01*
X32309523Y-13337200D02*
X32214285Y-13384819D01*
X32214285Y-13384819D02*
X32119047Y-13384819D01*
X32119047Y-13384819D02*
X32023809Y-13337200D01*
X32023809Y-13337200D02*
X31976190Y-13289580D01*
X31976190Y-13289580D02*
X31928571Y-13194342D01*
X31928571Y-13194342D02*
X31880952Y-13003866D01*
X31880952Y-13003866D02*
X31880952Y-12765771D01*
X31880952Y-12765771D02*
X31928571Y-12575295D01*
X31928571Y-12575295D02*
X31976190Y-12480057D01*
X31976190Y-12480057D02*
X32023809Y-12432438D01*
X32023809Y-12432438D02*
X32119047Y-12384819D01*
X32880952Y-12718152D02*
X32880952Y-13384819D01*
X32880952Y-12813390D02*
X32928571Y-12765771D01*
X32928571Y-12765771D02*
X33023809Y-12718152D01*
X33023809Y-12718152D02*
X33166666Y-12718152D01*
X33166666Y-12718152D02*
X33261904Y-12765771D01*
X33261904Y-12765771D02*
X33309523Y-12861009D01*
X33309523Y-12861009D02*
X33309523Y-13384819D01*
X34119047Y-12861009D02*
X33785714Y-12861009D01*
X33785714Y-13384819D02*
X33785714Y-12384819D01*
X33785714Y-12384819D02*
X34261904Y-12384819D01*
X35357142Y-12337200D02*
X34500000Y-13622914D01*
X36166666Y-12384819D02*
X35690476Y-12384819D01*
X35690476Y-12384819D02*
X35642857Y-12861009D01*
X35642857Y-12861009D02*
X35690476Y-12813390D01*
X35690476Y-12813390D02*
X35785714Y-12765771D01*
X35785714Y-12765771D02*
X36023809Y-12765771D01*
X36023809Y-12765771D02*
X36119047Y-12813390D01*
X36119047Y-12813390D02*
X36166666Y-12861009D01*
X36166666Y-12861009D02*
X36214285Y-12956247D01*
X36214285Y-12956247D02*
X36214285Y-13194342D01*
X36214285Y-13194342D02*
X36166666Y-13289580D01*
X36166666Y-13289580D02*
X36119047Y-13337200D01*
X36119047Y-13337200D02*
X36023809Y-13384819D01*
X36023809Y-13384819D02*
X35785714Y-13384819D01*
X35785714Y-13384819D02*
X35690476Y-13337200D01*
X35690476Y-13337200D02*
X35642857Y-13289580D01*
X36833333Y-12384819D02*
X36928571Y-12384819D01*
X36928571Y-12384819D02*
X37023809Y-12432438D01*
X37023809Y-12432438D02*
X37071428Y-12480057D01*
X37071428Y-12480057D02*
X37119047Y-12575295D01*
X37119047Y-12575295D02*
X37166666Y-12765771D01*
X37166666Y-12765771D02*
X37166666Y-13003866D01*
X37166666Y-13003866D02*
X37119047Y-13194342D01*
X37119047Y-13194342D02*
X37071428Y-13289580D01*
X37071428Y-13289580D02*
X37023809Y-13337200D01*
X37023809Y-13337200D02*
X36928571Y-13384819D01*
X36928571Y-13384819D02*
X36833333Y-13384819D01*
X36833333Y-13384819D02*
X36738095Y-13337200D01*
X36738095Y-13337200D02*
X36690476Y-13289580D01*
X36690476Y-13289580D02*
X36642857Y-13194342D01*
X36642857Y-13194342D02*
X36595238Y-13003866D01*
X36595238Y-13003866D02*
X36595238Y-12765771D01*
X36595238Y-12765771D02*
X36642857Y-12575295D01*
X36642857Y-12575295D02*
X36690476Y-12480057D01*
X36690476Y-12480057D02*
X36738095Y-12432438D01*
X36738095Y-12432438D02*
X36833333Y-12384819D01*
X37452381Y-12384819D02*
X37785714Y-13384819D01*
X37785714Y-13384819D02*
X38119047Y-12384819D01*
D12*
X33933333Y-11643832D02*
X33914285Y-11662880D01*
X33914285Y-11662880D02*
X33857143Y-11681927D01*
X33857143Y-11681927D02*
X33819047Y-11681927D01*
X33819047Y-11681927D02*
X33761904Y-11662880D01*
X33761904Y-11662880D02*
X33723809Y-11624784D01*
X33723809Y-11624784D02*
X33704762Y-11586689D01*
X33704762Y-11586689D02*
X33685714Y-11510499D01*
X33685714Y-11510499D02*
X33685714Y-11453356D01*
X33685714Y-11453356D02*
X33704762Y-11377165D01*
X33704762Y-11377165D02*
X33723809Y-11339070D01*
X33723809Y-11339070D02*
X33761904Y-11300975D01*
X33761904Y-11300975D02*
X33819047Y-11281927D01*
X33819047Y-11281927D02*
X33857143Y-11281927D01*
X33857143Y-11281927D02*
X33914285Y-11300975D01*
X33914285Y-11300975D02*
X33933333Y-11320022D01*
X34276190Y-11415260D02*
X34276190Y-11681927D01*
X34180952Y-11262880D02*
X34085714Y-11548594D01*
X34085714Y-11548594D02*
X34333333Y-11548594D01*
D10*
X10690476Y-36954819D02*
X10690476Y-35954819D01*
X10690476Y-35954819D02*
X11023809Y-36669104D01*
X11023809Y-36669104D02*
X11357142Y-35954819D01*
X11357142Y-35954819D02*
X11357142Y-36954819D01*
X11785714Y-36050057D02*
X11833333Y-36002438D01*
X11833333Y-36002438D02*
X11928571Y-35954819D01*
X11928571Y-35954819D02*
X12166666Y-35954819D01*
X12166666Y-35954819D02*
X12261904Y-36002438D01*
X12261904Y-36002438D02*
X12309523Y-36050057D01*
X12309523Y-36050057D02*
X12357142Y-36145295D01*
X12357142Y-36145295D02*
X12357142Y-36240533D01*
X12357142Y-36240533D02*
X12309523Y-36383390D01*
X12309523Y-36383390D02*
X11738095Y-36954819D01*
X11738095Y-36954819D02*
X12357142Y-36954819D01*
X10738095Y-34054819D02*
X10738095Y-33054819D01*
X10738095Y-33531009D02*
X11309523Y-33531009D01*
X11309523Y-34054819D02*
X11309523Y-33054819D01*
X11738095Y-33150057D02*
X11785714Y-33102438D01*
X11785714Y-33102438D02*
X11880952Y-33054819D01*
X11880952Y-33054819D02*
X12119047Y-33054819D01*
X12119047Y-33054819D02*
X12214285Y-33102438D01*
X12214285Y-33102438D02*
X12261904Y-33150057D01*
X12261904Y-33150057D02*
X12309523Y-33245295D01*
X12309523Y-33245295D02*
X12309523Y-33340533D01*
X12309523Y-33340533D02*
X12261904Y-33483390D01*
X12261904Y-33483390D02*
X11690476Y-34054819D01*
X11690476Y-34054819D02*
X12309523Y-34054819D01*
X14719048Y-19730057D02*
X14766667Y-19682438D01*
X14766667Y-19682438D02*
X14861905Y-19634819D01*
X14861905Y-19634819D02*
X15100000Y-19634819D01*
X15100000Y-19634819D02*
X15195238Y-19682438D01*
X15195238Y-19682438D02*
X15242857Y-19730057D01*
X15242857Y-19730057D02*
X15290476Y-19825295D01*
X15290476Y-19825295D02*
X15290476Y-19920533D01*
X15290476Y-19920533D02*
X15242857Y-20063390D01*
X15242857Y-20063390D02*
X14671429Y-20634819D01*
X14671429Y-20634819D02*
X15290476Y-20634819D01*
X15719048Y-20539580D02*
X15766667Y-20587200D01*
X15766667Y-20587200D02*
X15719048Y-20634819D01*
X15719048Y-20634819D02*
X15671429Y-20587200D01*
X15671429Y-20587200D02*
X15719048Y-20539580D01*
X15719048Y-20539580D02*
X15719048Y-20634819D01*
X16147619Y-19730057D02*
X16195238Y-19682438D01*
X16195238Y-19682438D02*
X16290476Y-19634819D01*
X16290476Y-19634819D02*
X16528571Y-19634819D01*
X16528571Y-19634819D02*
X16623809Y-19682438D01*
X16623809Y-19682438D02*
X16671428Y-19730057D01*
X16671428Y-19730057D02*
X16719047Y-19825295D01*
X16719047Y-19825295D02*
X16719047Y-19920533D01*
X16719047Y-19920533D02*
X16671428Y-20063390D01*
X16671428Y-20063390D02*
X16100000Y-20634819D01*
X16100000Y-20634819D02*
X16719047Y-20634819D01*
X17576190Y-19968152D02*
X17576190Y-20634819D01*
X17147619Y-19968152D02*
X17147619Y-20491961D01*
X17147619Y-20491961D02*
X17195238Y-20587200D01*
X17195238Y-20587200D02*
X17290476Y-20634819D01*
X17290476Y-20634819D02*
X17433333Y-20634819D01*
X17433333Y-20634819D02*
X17528571Y-20587200D01*
X17528571Y-20587200D02*
X17576190Y-20539580D01*
X18385714Y-20111009D02*
X18052381Y-20111009D01*
X18052381Y-20634819D02*
X18052381Y-19634819D01*
X18052381Y-19634819D02*
X18528571Y-19634819D01*
D12*
X16533333Y-18893832D02*
X16514285Y-18912880D01*
X16514285Y-18912880D02*
X16457143Y-18931927D01*
X16457143Y-18931927D02*
X16419047Y-18931927D01*
X16419047Y-18931927D02*
X16361904Y-18912880D01*
X16361904Y-18912880D02*
X16323809Y-18874784D01*
X16323809Y-18874784D02*
X16304762Y-18836689D01*
X16304762Y-18836689D02*
X16285714Y-18760499D01*
X16285714Y-18760499D02*
X16285714Y-18703356D01*
X16285714Y-18703356D02*
X16304762Y-18627165D01*
X16304762Y-18627165D02*
X16323809Y-18589070D01*
X16323809Y-18589070D02*
X16361904Y-18550975D01*
X16361904Y-18550975D02*
X16419047Y-18531927D01*
X16419047Y-18531927D02*
X16457143Y-18531927D01*
X16457143Y-18531927D02*
X16514285Y-18550975D01*
X16514285Y-18550975D02*
X16533333Y-18570022D01*
X16761904Y-18703356D02*
X16723809Y-18684308D01*
X16723809Y-18684308D02*
X16704762Y-18665260D01*
X16704762Y-18665260D02*
X16685714Y-18627165D01*
X16685714Y-18627165D02*
X16685714Y-18608118D01*
X16685714Y-18608118D02*
X16704762Y-18570022D01*
X16704762Y-18570022D02*
X16723809Y-18550975D01*
X16723809Y-18550975D02*
X16761904Y-18531927D01*
X16761904Y-18531927D02*
X16838095Y-18531927D01*
X16838095Y-18531927D02*
X16876190Y-18550975D01*
X16876190Y-18550975D02*
X16895238Y-18570022D01*
X16895238Y-18570022D02*
X16914285Y-18608118D01*
X16914285Y-18608118D02*
X16914285Y-18627165D01*
X16914285Y-18627165D02*
X16895238Y-18665260D01*
X16895238Y-18665260D02*
X16876190Y-18684308D01*
X16876190Y-18684308D02*
X16838095Y-18703356D01*
X16838095Y-18703356D02*
X16761904Y-18703356D01*
X16761904Y-18703356D02*
X16723809Y-18722403D01*
X16723809Y-18722403D02*
X16704762Y-18741451D01*
X16704762Y-18741451D02*
X16685714Y-18779546D01*
X16685714Y-18779546D02*
X16685714Y-18855737D01*
X16685714Y-18855737D02*
X16704762Y-18893832D01*
X16704762Y-18893832D02*
X16723809Y-18912880D01*
X16723809Y-18912880D02*
X16761904Y-18931927D01*
X16761904Y-18931927D02*
X16838095Y-18931927D01*
X16838095Y-18931927D02*
X16876190Y-18912880D01*
X16876190Y-18912880D02*
X16895238Y-18893832D01*
X16895238Y-18893832D02*
X16914285Y-18855737D01*
X16914285Y-18855737D02*
X16914285Y-18779546D01*
X16914285Y-18779546D02*
X16895238Y-18741451D01*
X16895238Y-18741451D02*
X16876190Y-18722403D01*
X16876190Y-18722403D02*
X16838095Y-18703356D01*
D10*
X7904761Y-25804819D02*
X7333333Y-25804819D01*
X7619047Y-25804819D02*
X7619047Y-24804819D01*
X7619047Y-24804819D02*
X7523809Y-24947676D01*
X7523809Y-24947676D02*
X7428571Y-25042914D01*
X7428571Y-25042914D02*
X7333333Y-25090533D01*
X8523809Y-24804819D02*
X8619047Y-24804819D01*
X8619047Y-24804819D02*
X8714285Y-24852438D01*
X8714285Y-24852438D02*
X8761904Y-24900057D01*
X8761904Y-24900057D02*
X8809523Y-24995295D01*
X8809523Y-24995295D02*
X8857142Y-25185771D01*
X8857142Y-25185771D02*
X8857142Y-25423866D01*
X8857142Y-25423866D02*
X8809523Y-25614342D01*
X8809523Y-25614342D02*
X8761904Y-25709580D01*
X8761904Y-25709580D02*
X8714285Y-25757200D01*
X8714285Y-25757200D02*
X8619047Y-25804819D01*
X8619047Y-25804819D02*
X8523809Y-25804819D01*
X8523809Y-25804819D02*
X8428571Y-25757200D01*
X8428571Y-25757200D02*
X8380952Y-25709580D01*
X8380952Y-25709580D02*
X8333333Y-25614342D01*
X8333333Y-25614342D02*
X8285714Y-25423866D01*
X8285714Y-25423866D02*
X8285714Y-25185771D01*
X8285714Y-25185771D02*
X8333333Y-24995295D01*
X8333333Y-24995295D02*
X8380952Y-24900057D01*
X8380952Y-24900057D02*
X8428571Y-24852438D01*
X8428571Y-24852438D02*
X8523809Y-24804819D01*
X9285714Y-25804819D02*
X9285714Y-24804819D01*
X9380952Y-25423866D02*
X9666666Y-25804819D01*
X9666666Y-25138152D02*
X9285714Y-25519104D01*
D12*
X8433333Y-24101927D02*
X8300000Y-23911451D01*
X8204762Y-24101927D02*
X8204762Y-23701927D01*
X8204762Y-23701927D02*
X8357143Y-23701927D01*
X8357143Y-23701927D02*
X8395238Y-23720975D01*
X8395238Y-23720975D02*
X8414285Y-23740022D01*
X8414285Y-23740022D02*
X8433333Y-23778118D01*
X8433333Y-23778118D02*
X8433333Y-23835260D01*
X8433333Y-23835260D02*
X8414285Y-23873356D01*
X8414285Y-23873356D02*
X8395238Y-23892403D01*
X8395238Y-23892403D02*
X8357143Y-23911451D01*
X8357143Y-23911451D02*
X8204762Y-23911451D01*
X8566666Y-23701927D02*
X8814285Y-23701927D01*
X8814285Y-23701927D02*
X8680952Y-23854308D01*
X8680952Y-23854308D02*
X8738095Y-23854308D01*
X8738095Y-23854308D02*
X8776190Y-23873356D01*
X8776190Y-23873356D02*
X8795238Y-23892403D01*
X8795238Y-23892403D02*
X8814285Y-23930499D01*
X8814285Y-23930499D02*
X8814285Y-24025737D01*
X8814285Y-24025737D02*
X8795238Y-24063832D01*
X8795238Y-24063832D02*
X8776190Y-24082880D01*
X8776190Y-24082880D02*
X8738095Y-24101927D01*
X8738095Y-24101927D02*
X8623809Y-24101927D01*
X8623809Y-24101927D02*
X8585714Y-24082880D01*
X8585714Y-24082880D02*
X8566666Y-24063832D01*
D10*
X32047618Y-30484819D02*
X31476190Y-30484819D01*
X31761904Y-30484819D02*
X31761904Y-29484819D01*
X31761904Y-29484819D02*
X31666666Y-29627676D01*
X31666666Y-29627676D02*
X31571428Y-29722914D01*
X31571428Y-29722914D02*
X31476190Y-29770533D01*
X32666666Y-29484819D02*
X32761904Y-29484819D01*
X32761904Y-29484819D02*
X32857142Y-29532438D01*
X32857142Y-29532438D02*
X32904761Y-29580057D01*
X32904761Y-29580057D02*
X32952380Y-29675295D01*
X32952380Y-29675295D02*
X32999999Y-29865771D01*
X32999999Y-29865771D02*
X32999999Y-30103866D01*
X32999999Y-30103866D02*
X32952380Y-30294342D01*
X32952380Y-30294342D02*
X32904761Y-30389580D01*
X32904761Y-30389580D02*
X32857142Y-30437200D01*
X32857142Y-30437200D02*
X32761904Y-30484819D01*
X32761904Y-30484819D02*
X32666666Y-30484819D01*
X32666666Y-30484819D02*
X32571428Y-30437200D01*
X32571428Y-30437200D02*
X32523809Y-30389580D01*
X32523809Y-30389580D02*
X32476190Y-30294342D01*
X32476190Y-30294342D02*
X32428571Y-30103866D01*
X32428571Y-30103866D02*
X32428571Y-29865771D01*
X32428571Y-29865771D02*
X32476190Y-29675295D01*
X32476190Y-29675295D02*
X32523809Y-29580057D01*
X32523809Y-29580057D02*
X32571428Y-29532438D01*
X32571428Y-29532438D02*
X32666666Y-29484819D01*
X33619047Y-29484819D02*
X33714285Y-29484819D01*
X33714285Y-29484819D02*
X33809523Y-29532438D01*
X33809523Y-29532438D02*
X33857142Y-29580057D01*
X33857142Y-29580057D02*
X33904761Y-29675295D01*
X33904761Y-29675295D02*
X33952380Y-29865771D01*
X33952380Y-29865771D02*
X33952380Y-30103866D01*
X33952380Y-30103866D02*
X33904761Y-30294342D01*
X33904761Y-30294342D02*
X33857142Y-30389580D01*
X33857142Y-30389580D02*
X33809523Y-30437200D01*
X33809523Y-30437200D02*
X33714285Y-30484819D01*
X33714285Y-30484819D02*
X33619047Y-30484819D01*
X33619047Y-30484819D02*
X33523809Y-30437200D01*
X33523809Y-30437200D02*
X33476190Y-30389580D01*
X33476190Y-30389580D02*
X33428571Y-30294342D01*
X33428571Y-30294342D02*
X33380952Y-30103866D01*
X33380952Y-30103866D02*
X33380952Y-29865771D01*
X33380952Y-29865771D02*
X33428571Y-29675295D01*
X33428571Y-29675295D02*
X33476190Y-29580057D01*
X33476190Y-29580057D02*
X33523809Y-29532438D01*
X33523809Y-29532438D02*
X33619047Y-29484819D01*
X34380952Y-29818152D02*
X34380952Y-30484819D01*
X34380952Y-29913390D02*
X34428571Y-29865771D01*
X34428571Y-29865771D02*
X34523809Y-29818152D01*
X34523809Y-29818152D02*
X34666666Y-29818152D01*
X34666666Y-29818152D02*
X34761904Y-29865771D01*
X34761904Y-29865771D02*
X34809523Y-29961009D01*
X34809523Y-29961009D02*
X34809523Y-30484819D01*
X35619047Y-29961009D02*
X35285714Y-29961009D01*
X35285714Y-30484819D02*
X35285714Y-29484819D01*
X35285714Y-29484819D02*
X35761904Y-29484819D01*
X36857142Y-29437200D02*
X36000000Y-30722914D01*
X37666666Y-29484819D02*
X37190476Y-29484819D01*
X37190476Y-29484819D02*
X37142857Y-29961009D01*
X37142857Y-29961009D02*
X37190476Y-29913390D01*
X37190476Y-29913390D02*
X37285714Y-29865771D01*
X37285714Y-29865771D02*
X37523809Y-29865771D01*
X37523809Y-29865771D02*
X37619047Y-29913390D01*
X37619047Y-29913390D02*
X37666666Y-29961009D01*
X37666666Y-29961009D02*
X37714285Y-30056247D01*
X37714285Y-30056247D02*
X37714285Y-30294342D01*
X37714285Y-30294342D02*
X37666666Y-30389580D01*
X37666666Y-30389580D02*
X37619047Y-30437200D01*
X37619047Y-30437200D02*
X37523809Y-30484819D01*
X37523809Y-30484819D02*
X37285714Y-30484819D01*
X37285714Y-30484819D02*
X37190476Y-30437200D01*
X37190476Y-30437200D02*
X37142857Y-30389580D01*
X38333333Y-29484819D02*
X38428571Y-29484819D01*
X38428571Y-29484819D02*
X38523809Y-29532438D01*
X38523809Y-29532438D02*
X38571428Y-29580057D01*
X38571428Y-29580057D02*
X38619047Y-29675295D01*
X38619047Y-29675295D02*
X38666666Y-29865771D01*
X38666666Y-29865771D02*
X38666666Y-30103866D01*
X38666666Y-30103866D02*
X38619047Y-30294342D01*
X38619047Y-30294342D02*
X38571428Y-30389580D01*
X38571428Y-30389580D02*
X38523809Y-30437200D01*
X38523809Y-30437200D02*
X38428571Y-30484819D01*
X38428571Y-30484819D02*
X38333333Y-30484819D01*
X38333333Y-30484819D02*
X38238095Y-30437200D01*
X38238095Y-30437200D02*
X38190476Y-30389580D01*
X38190476Y-30389580D02*
X38142857Y-30294342D01*
X38142857Y-30294342D02*
X38095238Y-30103866D01*
X38095238Y-30103866D02*
X38095238Y-29865771D01*
X38095238Y-29865771D02*
X38142857Y-29675295D01*
X38142857Y-29675295D02*
X38190476Y-29580057D01*
X38190476Y-29580057D02*
X38238095Y-29532438D01*
X38238095Y-29532438D02*
X38333333Y-29484819D01*
X38952381Y-29484819D02*
X39285714Y-30484819D01*
X39285714Y-30484819D02*
X39619047Y-29484819D01*
D12*
X35433333Y-28743832D02*
X35414285Y-28762880D01*
X35414285Y-28762880D02*
X35357143Y-28781927D01*
X35357143Y-28781927D02*
X35319047Y-28781927D01*
X35319047Y-28781927D02*
X35261904Y-28762880D01*
X35261904Y-28762880D02*
X35223809Y-28724784D01*
X35223809Y-28724784D02*
X35204762Y-28686689D01*
X35204762Y-28686689D02*
X35185714Y-28610499D01*
X35185714Y-28610499D02*
X35185714Y-28553356D01*
X35185714Y-28553356D02*
X35204762Y-28477165D01*
X35204762Y-28477165D02*
X35223809Y-28439070D01*
X35223809Y-28439070D02*
X35261904Y-28400975D01*
X35261904Y-28400975D02*
X35319047Y-28381927D01*
X35319047Y-28381927D02*
X35357143Y-28381927D01*
X35357143Y-28381927D02*
X35414285Y-28400975D01*
X35414285Y-28400975D02*
X35433333Y-28420022D01*
X35795238Y-28381927D02*
X35604762Y-28381927D01*
X35604762Y-28381927D02*
X35585714Y-28572403D01*
X35585714Y-28572403D02*
X35604762Y-28553356D01*
X35604762Y-28553356D02*
X35642857Y-28534308D01*
X35642857Y-28534308D02*
X35738095Y-28534308D01*
X35738095Y-28534308D02*
X35776190Y-28553356D01*
X35776190Y-28553356D02*
X35795238Y-28572403D01*
X35795238Y-28572403D02*
X35814285Y-28610499D01*
X35814285Y-28610499D02*
X35814285Y-28705737D01*
X35814285Y-28705737D02*
X35795238Y-28743832D01*
X35795238Y-28743832D02*
X35776190Y-28762880D01*
X35776190Y-28762880D02*
X35738095Y-28781927D01*
X35738095Y-28781927D02*
X35642857Y-28781927D01*
X35642857Y-28781927D02*
X35604762Y-28762880D01*
X35604762Y-28762880D02*
X35585714Y-28743832D01*
D10*
X29421009Y-35976190D02*
X29421009Y-35642857D01*
X29944819Y-35500000D02*
X29944819Y-35976190D01*
X29944819Y-35976190D02*
X28944819Y-35976190D01*
X28944819Y-35976190D02*
X28944819Y-35500000D01*
X29944819Y-35071428D02*
X28944819Y-35071428D01*
X28944819Y-35071428D02*
X29944819Y-34500000D01*
X29944819Y-34500000D02*
X28944819Y-34500000D01*
X29849580Y-33452381D02*
X29897200Y-33500000D01*
X29897200Y-33500000D02*
X29944819Y-33642857D01*
X29944819Y-33642857D02*
X29944819Y-33738095D01*
X29944819Y-33738095D02*
X29897200Y-33880952D01*
X29897200Y-33880952D02*
X29801961Y-33976190D01*
X29801961Y-33976190D02*
X29706723Y-34023809D01*
X29706723Y-34023809D02*
X29516247Y-34071428D01*
X29516247Y-34071428D02*
X29373390Y-34071428D01*
X29373390Y-34071428D02*
X29182914Y-34023809D01*
X29182914Y-34023809D02*
X29087676Y-33976190D01*
X29087676Y-33976190D02*
X28992438Y-33880952D01*
X28992438Y-33880952D02*
X28944819Y-33738095D01*
X28944819Y-33738095D02*
X28944819Y-33642857D01*
X28944819Y-33642857D02*
X28992438Y-33500000D01*
X28992438Y-33500000D02*
X29040057Y-33452381D01*
X29944819Y-31738095D02*
X29944819Y-32309523D01*
X29944819Y-32023809D02*
X28944819Y-32023809D01*
X28944819Y-32023809D02*
X29087676Y-32119047D01*
X29087676Y-32119047D02*
X29182914Y-32214285D01*
X29182914Y-32214285D02*
X29230533Y-32309523D01*
X29944819Y-31404761D02*
X29278152Y-30880952D01*
X29278152Y-31404761D02*
X29944819Y-30880952D01*
X28944819Y-30023809D02*
X28944819Y-30499999D01*
X28944819Y-30499999D02*
X29421009Y-30547618D01*
X29421009Y-30547618D02*
X29373390Y-30499999D01*
X29373390Y-30499999D02*
X29325771Y-30404761D01*
X29325771Y-30404761D02*
X29325771Y-30166666D01*
X29325771Y-30166666D02*
X29373390Y-30071428D01*
X29373390Y-30071428D02*
X29421009Y-30023809D01*
X29421009Y-30023809D02*
X29516247Y-29976190D01*
X29516247Y-29976190D02*
X29754342Y-29976190D01*
X29754342Y-29976190D02*
X29849580Y-30023809D01*
X29849580Y-30023809D02*
X29897200Y-30071428D01*
X29897200Y-30071428D02*
X29944819Y-30166666D01*
X29944819Y-30166666D02*
X29944819Y-30404761D01*
X29944819Y-30404761D02*
X29897200Y-30499999D01*
X29897200Y-30499999D02*
X29849580Y-30547618D01*
X21746666Y-32454819D02*
X21746666Y-33169104D01*
X21746666Y-33169104D02*
X21699047Y-33311961D01*
X21699047Y-33311961D02*
X21603809Y-33407200D01*
X21603809Y-33407200D02*
X21460952Y-33454819D01*
X21460952Y-33454819D02*
X21365714Y-33454819D01*
X22651428Y-32788152D02*
X22651428Y-33454819D01*
X22413333Y-32407200D02*
X22175238Y-33121485D01*
X22175238Y-33121485D02*
X22794285Y-33121485D01*
X8935238Y-9653866D02*
X9697143Y-9653866D01*
X9316190Y-10034819D02*
X9316190Y-9272914D01*
X10125714Y-9130057D02*
X10173333Y-9082438D01*
X10173333Y-9082438D02*
X10268571Y-9034819D01*
X10268571Y-9034819D02*
X10506666Y-9034819D01*
X10506666Y-9034819D02*
X10601904Y-9082438D01*
X10601904Y-9082438D02*
X10649523Y-9130057D01*
X10649523Y-9130057D02*
X10697142Y-9225295D01*
X10697142Y-9225295D02*
X10697142Y-9320533D01*
X10697142Y-9320533D02*
X10649523Y-9463390D01*
X10649523Y-9463390D02*
X10078095Y-10034819D01*
X10078095Y-10034819D02*
X10697142Y-10034819D01*
X11554285Y-9368152D02*
X11554285Y-10034819D01*
X11316190Y-8987200D02*
X11078095Y-9701485D01*
X11078095Y-9701485D02*
X11697142Y-9701485D01*
X11935238Y-9034819D02*
X12268571Y-10034819D01*
X12268571Y-10034819D02*
X12601904Y-9034819D01*
X13697143Y-10034819D02*
X13697143Y-9034819D01*
X14173333Y-10034819D02*
X14173333Y-9034819D01*
X14173333Y-9034819D02*
X14744761Y-10034819D01*
X14744761Y-10034819D02*
X14744761Y-9034819D01*
X11506666Y-3954819D02*
X11506666Y-4669104D01*
X11506666Y-4669104D02*
X11459047Y-4811961D01*
X11459047Y-4811961D02*
X11363809Y-4907200D01*
X11363809Y-4907200D02*
X11220952Y-4954819D01*
X11220952Y-4954819D02*
X11125714Y-4954819D01*
X11935238Y-4050057D02*
X11982857Y-4002438D01*
X11982857Y-4002438D02*
X12078095Y-3954819D01*
X12078095Y-3954819D02*
X12316190Y-3954819D01*
X12316190Y-3954819D02*
X12411428Y-4002438D01*
X12411428Y-4002438D02*
X12459047Y-4050057D01*
X12459047Y-4050057D02*
X12506666Y-4145295D01*
X12506666Y-4145295D02*
X12506666Y-4240533D01*
X12506666Y-4240533D02*
X12459047Y-4383390D01*
X12459047Y-4383390D02*
X11887619Y-4954819D01*
X11887619Y-4954819D02*
X12506666Y-4954819D01*
X46490476Y-36654818D02*
X46490476Y-35654818D01*
X46490476Y-35654818D02*
X46823809Y-36369103D01*
X46823809Y-36369103D02*
X47157142Y-35654818D01*
X47157142Y-35654818D02*
X47157142Y-36654818D01*
X47585714Y-35750056D02*
X47633333Y-35702437D01*
X47633333Y-35702437D02*
X47728571Y-35654818D01*
X47728571Y-35654818D02*
X47966666Y-35654818D01*
X47966666Y-35654818D02*
X48061904Y-35702437D01*
X48061904Y-35702437D02*
X48109523Y-35750056D01*
X48109523Y-35750056D02*
X48157142Y-35845294D01*
X48157142Y-35845294D02*
X48157142Y-35940532D01*
X48157142Y-35940532D02*
X48109523Y-36083389D01*
X48109523Y-36083389D02*
X47538095Y-36654818D01*
X47538095Y-36654818D02*
X48157142Y-36654818D01*
X46538095Y-33754818D02*
X46538095Y-32754818D01*
X46538095Y-33231008D02*
X47109523Y-33231008D01*
X47109523Y-33754818D02*
X47109523Y-32754818D01*
X48109523Y-33754818D02*
X47538095Y-33754818D01*
X47823809Y-33754818D02*
X47823809Y-32754818D01*
X47823809Y-32754818D02*
X47728571Y-32897675D01*
X47728571Y-32897675D02*
X47633333Y-32992913D01*
X47633333Y-32992913D02*
X47538095Y-33040532D01*
X29124819Y-10495238D02*
X29124819Y-11066666D01*
X29124819Y-10780952D02*
X28124819Y-10780952D01*
X28124819Y-10780952D02*
X28267676Y-10876190D01*
X28267676Y-10876190D02*
X28362914Y-10971428D01*
X28362914Y-10971428D02*
X28410533Y-11066666D01*
X28124819Y-9876190D02*
X28124819Y-9780952D01*
X28124819Y-9780952D02*
X28172438Y-9685714D01*
X28172438Y-9685714D02*
X28220057Y-9638095D01*
X28220057Y-9638095D02*
X28315295Y-9590476D01*
X28315295Y-9590476D02*
X28505771Y-9542857D01*
X28505771Y-9542857D02*
X28743866Y-9542857D01*
X28743866Y-9542857D02*
X28934342Y-9590476D01*
X28934342Y-9590476D02*
X29029580Y-9638095D01*
X29029580Y-9638095D02*
X29077200Y-9685714D01*
X29077200Y-9685714D02*
X29124819Y-9780952D01*
X29124819Y-9780952D02*
X29124819Y-9876190D01*
X29124819Y-9876190D02*
X29077200Y-9971428D01*
X29077200Y-9971428D02*
X29029580Y-10019047D01*
X29029580Y-10019047D02*
X28934342Y-10066666D01*
X28934342Y-10066666D02*
X28743866Y-10114285D01*
X28743866Y-10114285D02*
X28505771Y-10114285D01*
X28505771Y-10114285D02*
X28315295Y-10066666D01*
X28315295Y-10066666D02*
X28220057Y-10019047D01*
X28220057Y-10019047D02*
X28172438Y-9971428D01*
X28172438Y-9971428D02*
X28124819Y-9876190D01*
X29124819Y-9114285D02*
X28124819Y-9114285D01*
X28743866Y-9019047D02*
X29124819Y-8733333D01*
X28458152Y-8733333D02*
X28839104Y-9114285D01*
D12*
X30281927Y-9966666D02*
X30091451Y-10099999D01*
X30281927Y-10195237D02*
X29881927Y-10195237D01*
X29881927Y-10195237D02*
X29881927Y-10042856D01*
X29881927Y-10042856D02*
X29900975Y-10004761D01*
X29900975Y-10004761D02*
X29920022Y-9985714D01*
X29920022Y-9985714D02*
X29958118Y-9966666D01*
X29958118Y-9966666D02*
X30015260Y-9966666D01*
X30015260Y-9966666D02*
X30053356Y-9985714D01*
X30053356Y-9985714D02*
X30072403Y-10004761D01*
X30072403Y-10004761D02*
X30091451Y-10042856D01*
X30091451Y-10042856D02*
X30091451Y-10195237D01*
X30053356Y-9738095D02*
X30034308Y-9776190D01*
X30034308Y-9776190D02*
X30015260Y-9795237D01*
X30015260Y-9795237D02*
X29977165Y-9814285D01*
X29977165Y-9814285D02*
X29958118Y-9814285D01*
X29958118Y-9814285D02*
X29920022Y-9795237D01*
X29920022Y-9795237D02*
X29900975Y-9776190D01*
X29900975Y-9776190D02*
X29881927Y-9738095D01*
X29881927Y-9738095D02*
X29881927Y-9661904D01*
X29881927Y-9661904D02*
X29900975Y-9623809D01*
X29900975Y-9623809D02*
X29920022Y-9604761D01*
X29920022Y-9604761D02*
X29958118Y-9585714D01*
X29958118Y-9585714D02*
X29977165Y-9585714D01*
X29977165Y-9585714D02*
X30015260Y-9604761D01*
X30015260Y-9604761D02*
X30034308Y-9623809D01*
X30034308Y-9623809D02*
X30053356Y-9661904D01*
X30053356Y-9661904D02*
X30053356Y-9738095D01*
X30053356Y-9738095D02*
X30072403Y-9776190D01*
X30072403Y-9776190D02*
X30091451Y-9795237D01*
X30091451Y-9795237D02*
X30129546Y-9814285D01*
X30129546Y-9814285D02*
X30205737Y-9814285D01*
X30205737Y-9814285D02*
X30243832Y-9795237D01*
X30243832Y-9795237D02*
X30262880Y-9776190D01*
X30262880Y-9776190D02*
X30281927Y-9738095D01*
X30281927Y-9738095D02*
X30281927Y-9661904D01*
X30281927Y-9661904D02*
X30262880Y-9623809D01*
X30262880Y-9623809D02*
X30243832Y-9604761D01*
X30243832Y-9604761D02*
X30205737Y-9585714D01*
X30205737Y-9585714D02*
X30129546Y-9585714D01*
X30129546Y-9585714D02*
X30091451Y-9604761D01*
X30091451Y-9604761D02*
X30072403Y-9623809D01*
X30072403Y-9623809D02*
X30053356Y-9661904D01*
D10*
X25004761Y-31384819D02*
X24433333Y-31384819D01*
X24719047Y-31384819D02*
X24719047Y-30384819D01*
X24719047Y-30384819D02*
X24623809Y-30527676D01*
X24623809Y-30527676D02*
X24528571Y-30622914D01*
X24528571Y-30622914D02*
X24433333Y-30670533D01*
X25623809Y-30384819D02*
X25719047Y-30384819D01*
X25719047Y-30384819D02*
X25814285Y-30432438D01*
X25814285Y-30432438D02*
X25861904Y-30480057D01*
X25861904Y-30480057D02*
X25909523Y-30575295D01*
X25909523Y-30575295D02*
X25957142Y-30765771D01*
X25957142Y-30765771D02*
X25957142Y-31003866D01*
X25957142Y-31003866D02*
X25909523Y-31194342D01*
X25909523Y-31194342D02*
X25861904Y-31289580D01*
X25861904Y-31289580D02*
X25814285Y-31337200D01*
X25814285Y-31337200D02*
X25719047Y-31384819D01*
X25719047Y-31384819D02*
X25623809Y-31384819D01*
X25623809Y-31384819D02*
X25528571Y-31337200D01*
X25528571Y-31337200D02*
X25480952Y-31289580D01*
X25480952Y-31289580D02*
X25433333Y-31194342D01*
X25433333Y-31194342D02*
X25385714Y-31003866D01*
X25385714Y-31003866D02*
X25385714Y-30765771D01*
X25385714Y-30765771D02*
X25433333Y-30575295D01*
X25433333Y-30575295D02*
X25480952Y-30480057D01*
X25480952Y-30480057D02*
X25528571Y-30432438D01*
X25528571Y-30432438D02*
X25623809Y-30384819D01*
X26385714Y-31384819D02*
X26385714Y-30384819D01*
X26480952Y-31003866D02*
X26766666Y-31384819D01*
X26766666Y-30718152D02*
X26385714Y-31099104D01*
D12*
X25342857Y-29681927D02*
X25209524Y-29491451D01*
X25114286Y-29681927D02*
X25114286Y-29281927D01*
X25114286Y-29281927D02*
X25266667Y-29281927D01*
X25266667Y-29281927D02*
X25304762Y-29300975D01*
X25304762Y-29300975D02*
X25323809Y-29320022D01*
X25323809Y-29320022D02*
X25342857Y-29358118D01*
X25342857Y-29358118D02*
X25342857Y-29415260D01*
X25342857Y-29415260D02*
X25323809Y-29453356D01*
X25323809Y-29453356D02*
X25304762Y-29472403D01*
X25304762Y-29472403D02*
X25266667Y-29491451D01*
X25266667Y-29491451D02*
X25114286Y-29491451D01*
X25723809Y-29681927D02*
X25495238Y-29681927D01*
X25609524Y-29681927D02*
X25609524Y-29281927D01*
X25609524Y-29281927D02*
X25571428Y-29339070D01*
X25571428Y-29339070D02*
X25533333Y-29377165D01*
X25533333Y-29377165D02*
X25495238Y-29396213D01*
X26104761Y-29681927D02*
X25876190Y-29681927D01*
X25990476Y-29681927D02*
X25990476Y-29281927D01*
X25990476Y-29281927D02*
X25952380Y-29339070D01*
X25952380Y-29339070D02*
X25914285Y-29377165D01*
X25914285Y-29377165D02*
X25876190Y-29396213D01*
D10*
X8604761Y-23264819D02*
X8033333Y-23264819D01*
X8319047Y-23264819D02*
X8319047Y-22264819D01*
X8319047Y-22264819D02*
X8223809Y-22407676D01*
X8223809Y-22407676D02*
X8128571Y-22502914D01*
X8128571Y-22502914D02*
X8033333Y-22550533D01*
X9223809Y-22264819D02*
X9319047Y-22264819D01*
X9319047Y-22264819D02*
X9414285Y-22312438D01*
X9414285Y-22312438D02*
X9461904Y-22360057D01*
X9461904Y-22360057D02*
X9509523Y-22455295D01*
X9509523Y-22455295D02*
X9557142Y-22645771D01*
X9557142Y-22645771D02*
X9557142Y-22883866D01*
X9557142Y-22883866D02*
X9509523Y-23074342D01*
X9509523Y-23074342D02*
X9461904Y-23169580D01*
X9461904Y-23169580D02*
X9414285Y-23217200D01*
X9414285Y-23217200D02*
X9319047Y-23264819D01*
X9319047Y-23264819D02*
X9223809Y-23264819D01*
X9223809Y-23264819D02*
X9128571Y-23217200D01*
X9128571Y-23217200D02*
X9080952Y-23169580D01*
X9080952Y-23169580D02*
X9033333Y-23074342D01*
X9033333Y-23074342D02*
X8985714Y-22883866D01*
X8985714Y-22883866D02*
X8985714Y-22645771D01*
X8985714Y-22645771D02*
X9033333Y-22455295D01*
X9033333Y-22455295D02*
X9080952Y-22360057D01*
X9080952Y-22360057D02*
X9128571Y-22312438D01*
X9128571Y-22312438D02*
X9223809Y-22264819D01*
X9985714Y-23264819D02*
X9985714Y-22264819D01*
X10080952Y-22883866D02*
X10366666Y-23264819D01*
X10366666Y-22598152D02*
X9985714Y-22979104D01*
D12*
X9133333Y-21561927D02*
X9000000Y-21371451D01*
X8904762Y-21561927D02*
X8904762Y-21161927D01*
X8904762Y-21161927D02*
X9057143Y-21161927D01*
X9057143Y-21161927D02*
X9095238Y-21180975D01*
X9095238Y-21180975D02*
X9114285Y-21200022D01*
X9114285Y-21200022D02*
X9133333Y-21238118D01*
X9133333Y-21238118D02*
X9133333Y-21295260D01*
X9133333Y-21295260D02*
X9114285Y-21333356D01*
X9114285Y-21333356D02*
X9095238Y-21352403D01*
X9095238Y-21352403D02*
X9057143Y-21371451D01*
X9057143Y-21371451D02*
X8904762Y-21371451D01*
X9266666Y-21161927D02*
X9533333Y-21161927D01*
X9533333Y-21161927D02*
X9361904Y-21561927D01*
D10*
X21704761Y-31384819D02*
X21133333Y-31384819D01*
X21419047Y-31384819D02*
X21419047Y-30384819D01*
X21419047Y-30384819D02*
X21323809Y-30527676D01*
X21323809Y-30527676D02*
X21228571Y-30622914D01*
X21228571Y-30622914D02*
X21133333Y-30670533D01*
X22323809Y-30384819D02*
X22419047Y-30384819D01*
X22419047Y-30384819D02*
X22514285Y-30432438D01*
X22514285Y-30432438D02*
X22561904Y-30480057D01*
X22561904Y-30480057D02*
X22609523Y-30575295D01*
X22609523Y-30575295D02*
X22657142Y-30765771D01*
X22657142Y-30765771D02*
X22657142Y-31003866D01*
X22657142Y-31003866D02*
X22609523Y-31194342D01*
X22609523Y-31194342D02*
X22561904Y-31289580D01*
X22561904Y-31289580D02*
X22514285Y-31337200D01*
X22514285Y-31337200D02*
X22419047Y-31384819D01*
X22419047Y-31384819D02*
X22323809Y-31384819D01*
X22323809Y-31384819D02*
X22228571Y-31337200D01*
X22228571Y-31337200D02*
X22180952Y-31289580D01*
X22180952Y-31289580D02*
X22133333Y-31194342D01*
X22133333Y-31194342D02*
X22085714Y-31003866D01*
X22085714Y-31003866D02*
X22085714Y-30765771D01*
X22085714Y-30765771D02*
X22133333Y-30575295D01*
X22133333Y-30575295D02*
X22180952Y-30480057D01*
X22180952Y-30480057D02*
X22228571Y-30432438D01*
X22228571Y-30432438D02*
X22323809Y-30384819D01*
X23085714Y-31384819D02*
X23085714Y-30384819D01*
X23180952Y-31003866D02*
X23466666Y-31384819D01*
X23466666Y-30718152D02*
X23085714Y-31099104D01*
D12*
X22042857Y-29681927D02*
X21909524Y-29491451D01*
X21814286Y-29681927D02*
X21814286Y-29281927D01*
X21814286Y-29281927D02*
X21966667Y-29281927D01*
X21966667Y-29281927D02*
X22004762Y-29300975D01*
X22004762Y-29300975D02*
X22023809Y-29320022D01*
X22023809Y-29320022D02*
X22042857Y-29358118D01*
X22042857Y-29358118D02*
X22042857Y-29415260D01*
X22042857Y-29415260D02*
X22023809Y-29453356D01*
X22023809Y-29453356D02*
X22004762Y-29472403D01*
X22004762Y-29472403D02*
X21966667Y-29491451D01*
X21966667Y-29491451D02*
X21814286Y-29491451D01*
X22423809Y-29681927D02*
X22195238Y-29681927D01*
X22309524Y-29681927D02*
X22309524Y-29281927D01*
X22309524Y-29281927D02*
X22271428Y-29339070D01*
X22271428Y-29339070D02*
X22233333Y-29377165D01*
X22233333Y-29377165D02*
X22195238Y-29396213D01*
X22671428Y-29281927D02*
X22709523Y-29281927D01*
X22709523Y-29281927D02*
X22747619Y-29300975D01*
X22747619Y-29300975D02*
X22766666Y-29320022D01*
X22766666Y-29320022D02*
X22785714Y-29358118D01*
X22785714Y-29358118D02*
X22804761Y-29434308D01*
X22804761Y-29434308D02*
X22804761Y-29529546D01*
X22804761Y-29529546D02*
X22785714Y-29605737D01*
X22785714Y-29605737D02*
X22766666Y-29643832D01*
X22766666Y-29643832D02*
X22747619Y-29662880D01*
X22747619Y-29662880D02*
X22709523Y-29681927D01*
X22709523Y-29681927D02*
X22671428Y-29681927D01*
X22671428Y-29681927D02*
X22633333Y-29662880D01*
X22633333Y-29662880D02*
X22614285Y-29643832D01*
X22614285Y-29643832D02*
X22595238Y-29605737D01*
X22595238Y-29605737D02*
X22576190Y-29529546D01*
X22576190Y-29529546D02*
X22576190Y-29434308D01*
X22576190Y-29434308D02*
X22595238Y-29358118D01*
X22595238Y-29358118D02*
X22614285Y-29320022D01*
X22614285Y-29320022D02*
X22633333Y-29300975D01*
X22633333Y-29300975D02*
X22671428Y-29281927D01*
D10*
X41780952Y-10207200D02*
X41923809Y-10254819D01*
X41923809Y-10254819D02*
X42161904Y-10254819D01*
X42161904Y-10254819D02*
X42257142Y-10207200D01*
X42257142Y-10207200D02*
X42304761Y-10159580D01*
X42304761Y-10159580D02*
X42352380Y-10064342D01*
X42352380Y-10064342D02*
X42352380Y-9969104D01*
X42352380Y-9969104D02*
X42304761Y-9873866D01*
X42304761Y-9873866D02*
X42257142Y-9826247D01*
X42257142Y-9826247D02*
X42161904Y-9778628D01*
X42161904Y-9778628D02*
X41971428Y-9731009D01*
X41971428Y-9731009D02*
X41876190Y-9683390D01*
X41876190Y-9683390D02*
X41828571Y-9635771D01*
X41828571Y-9635771D02*
X41780952Y-9540533D01*
X41780952Y-9540533D02*
X41780952Y-9445295D01*
X41780952Y-9445295D02*
X41828571Y-9350057D01*
X41828571Y-9350057D02*
X41876190Y-9302438D01*
X41876190Y-9302438D02*
X41971428Y-9254819D01*
X41971428Y-9254819D02*
X42209523Y-9254819D01*
X42209523Y-9254819D02*
X42352380Y-9302438D01*
X42780952Y-10254819D02*
X42780952Y-9254819D01*
X42780952Y-9254819D02*
X43114285Y-9969104D01*
X43114285Y-9969104D02*
X43447618Y-9254819D01*
X43447618Y-9254819D02*
X43447618Y-10254819D01*
X44257142Y-9731009D02*
X44399999Y-9778628D01*
X44399999Y-9778628D02*
X44447618Y-9826247D01*
X44447618Y-9826247D02*
X44495237Y-9921485D01*
X44495237Y-9921485D02*
X44495237Y-10064342D01*
X44495237Y-10064342D02*
X44447618Y-10159580D01*
X44447618Y-10159580D02*
X44399999Y-10207200D01*
X44399999Y-10207200D02*
X44304761Y-10254819D01*
X44304761Y-10254819D02*
X43923809Y-10254819D01*
X43923809Y-10254819D02*
X43923809Y-9254819D01*
X43923809Y-9254819D02*
X44257142Y-9254819D01*
X44257142Y-9254819D02*
X44352380Y-9302438D01*
X44352380Y-9302438D02*
X44399999Y-9350057D01*
X44399999Y-9350057D02*
X44447618Y-9445295D01*
X44447618Y-9445295D02*
X44447618Y-9540533D01*
X44447618Y-9540533D02*
X44399999Y-9635771D01*
X44399999Y-9635771D02*
X44352380Y-9683390D01*
X44352380Y-9683390D02*
X44257142Y-9731009D01*
X44257142Y-9731009D02*
X43923809Y-9731009D01*
X45209523Y-9254819D02*
X45209523Y-9969104D01*
X45209523Y-9969104D02*
X45161904Y-10111961D01*
X45161904Y-10111961D02*
X45066666Y-10207200D01*
X45066666Y-10207200D02*
X44923809Y-10254819D01*
X44923809Y-10254819D02*
X44828571Y-10254819D01*
X45590476Y-9254819D02*
X46209523Y-9254819D01*
X46209523Y-9254819D02*
X45876190Y-9635771D01*
X45876190Y-9635771D02*
X46019047Y-9635771D01*
X46019047Y-9635771D02*
X46114285Y-9683390D01*
X46114285Y-9683390D02*
X46161904Y-9731009D01*
X46161904Y-9731009D02*
X46209523Y-9826247D01*
X46209523Y-9826247D02*
X46209523Y-10064342D01*
X46209523Y-10064342D02*
X46161904Y-10159580D01*
X46161904Y-10159580D02*
X46114285Y-10207200D01*
X46114285Y-10207200D02*
X46019047Y-10254819D01*
X46019047Y-10254819D02*
X45733333Y-10254819D01*
X45733333Y-10254819D02*
X45638095Y-10207200D01*
X45638095Y-10207200D02*
X45590476Y-10159580D01*
X46542857Y-9254819D02*
X47161904Y-9254819D01*
X47161904Y-9254819D02*
X46828571Y-9635771D01*
X46828571Y-9635771D02*
X46971428Y-9635771D01*
X46971428Y-9635771D02*
X47066666Y-9683390D01*
X47066666Y-9683390D02*
X47114285Y-9731009D01*
X47114285Y-9731009D02*
X47161904Y-9826247D01*
X47161904Y-9826247D02*
X47161904Y-10064342D01*
X47161904Y-10064342D02*
X47114285Y-10159580D01*
X47114285Y-10159580D02*
X47066666Y-10207200D01*
X47066666Y-10207200D02*
X46971428Y-10254819D01*
X46971428Y-10254819D02*
X46685714Y-10254819D01*
X46685714Y-10254819D02*
X46590476Y-10207200D01*
X46590476Y-10207200D02*
X46542857Y-10159580D01*
X47542857Y-9969104D02*
X48019047Y-9969104D01*
X47447619Y-10254819D02*
X47780952Y-9254819D01*
X47780952Y-9254819D02*
X48114285Y-10254819D01*
X44161905Y-4154819D02*
X44161905Y-3154819D01*
X44161905Y-3154819D02*
X44400000Y-3154819D01*
X44400000Y-3154819D02*
X44542857Y-3202438D01*
X44542857Y-3202438D02*
X44638095Y-3297676D01*
X44638095Y-3297676D02*
X44685714Y-3392914D01*
X44685714Y-3392914D02*
X44733333Y-3583390D01*
X44733333Y-3583390D02*
X44733333Y-3726247D01*
X44733333Y-3726247D02*
X44685714Y-3916723D01*
X44685714Y-3916723D02*
X44638095Y-4011961D01*
X44638095Y-4011961D02*
X44542857Y-4107200D01*
X44542857Y-4107200D02*
X44400000Y-4154819D01*
X44400000Y-4154819D02*
X44161905Y-4154819D01*
X45685714Y-4154819D02*
X45114286Y-4154819D01*
X45400000Y-4154819D02*
X45400000Y-3154819D01*
X45400000Y-3154819D02*
X45304762Y-3297676D01*
X45304762Y-3297676D02*
X45209524Y-3392914D01*
X45209524Y-3392914D02*
X45114286Y-3440533D01*
X28999999Y-30734819D02*
X28428571Y-30734819D01*
X28714285Y-30734819D02*
X28714285Y-29734819D01*
X28714285Y-29734819D02*
X28619047Y-29877676D01*
X28619047Y-29877676D02*
X28523809Y-29972914D01*
X28523809Y-29972914D02*
X28428571Y-30020533D01*
X29857142Y-30068152D02*
X29857142Y-30734819D01*
X29428571Y-30068152D02*
X29428571Y-30591961D01*
X29428571Y-30591961D02*
X29476190Y-30687200D01*
X29476190Y-30687200D02*
X29571428Y-30734819D01*
X29571428Y-30734819D02*
X29714285Y-30734819D01*
X29714285Y-30734819D02*
X29809523Y-30687200D01*
X29809523Y-30687200D02*
X29857142Y-30639580D01*
X30666666Y-30211009D02*
X30333333Y-30211009D01*
X30333333Y-30734819D02*
X30333333Y-29734819D01*
X30333333Y-29734819D02*
X30809523Y-29734819D01*
X31904761Y-29687200D02*
X31047619Y-30972914D01*
X32714285Y-29734819D02*
X32238095Y-29734819D01*
X32238095Y-29734819D02*
X32190476Y-30211009D01*
X32190476Y-30211009D02*
X32238095Y-30163390D01*
X32238095Y-30163390D02*
X32333333Y-30115771D01*
X32333333Y-30115771D02*
X32571428Y-30115771D01*
X32571428Y-30115771D02*
X32666666Y-30163390D01*
X32666666Y-30163390D02*
X32714285Y-30211009D01*
X32714285Y-30211009D02*
X32761904Y-30306247D01*
X32761904Y-30306247D02*
X32761904Y-30544342D01*
X32761904Y-30544342D02*
X32714285Y-30639580D01*
X32714285Y-30639580D02*
X32666666Y-30687200D01*
X32666666Y-30687200D02*
X32571428Y-30734819D01*
X32571428Y-30734819D02*
X32333333Y-30734819D01*
X32333333Y-30734819D02*
X32238095Y-30687200D01*
X32238095Y-30687200D02*
X32190476Y-30639580D01*
X33380952Y-29734819D02*
X33476190Y-29734819D01*
X33476190Y-29734819D02*
X33571428Y-29782438D01*
X33571428Y-29782438D02*
X33619047Y-29830057D01*
X33619047Y-29830057D02*
X33666666Y-29925295D01*
X33666666Y-29925295D02*
X33714285Y-30115771D01*
X33714285Y-30115771D02*
X33714285Y-30353866D01*
X33714285Y-30353866D02*
X33666666Y-30544342D01*
X33666666Y-30544342D02*
X33619047Y-30639580D01*
X33619047Y-30639580D02*
X33571428Y-30687200D01*
X33571428Y-30687200D02*
X33476190Y-30734819D01*
X33476190Y-30734819D02*
X33380952Y-30734819D01*
X33380952Y-30734819D02*
X33285714Y-30687200D01*
X33285714Y-30687200D02*
X33238095Y-30639580D01*
X33238095Y-30639580D02*
X33190476Y-30544342D01*
X33190476Y-30544342D02*
X33142857Y-30353866D01*
X33142857Y-30353866D02*
X33142857Y-30115771D01*
X33142857Y-30115771D02*
X33190476Y-29925295D01*
X33190476Y-29925295D02*
X33238095Y-29830057D01*
X33238095Y-29830057D02*
X33285714Y-29782438D01*
X33285714Y-29782438D02*
X33380952Y-29734819D01*
X34000000Y-29734819D02*
X34333333Y-30734819D01*
X34333333Y-30734819D02*
X34666666Y-29734819D01*
D11*
X31416666Y-28779530D02*
X31392857Y-28803340D01*
X31392857Y-28803340D02*
X31321428Y-28827149D01*
X31321428Y-28827149D02*
X31273809Y-28827149D01*
X31273809Y-28827149D02*
X31202381Y-28803340D01*
X31202381Y-28803340D02*
X31154762Y-28755720D01*
X31154762Y-28755720D02*
X31130952Y-28708101D01*
X31130952Y-28708101D02*
X31107143Y-28612863D01*
X31107143Y-28612863D02*
X31107143Y-28541435D01*
X31107143Y-28541435D02*
X31130952Y-28446197D01*
X31130952Y-28446197D02*
X31154762Y-28398578D01*
X31154762Y-28398578D02*
X31202381Y-28350959D01*
X31202381Y-28350959D02*
X31273809Y-28327149D01*
X31273809Y-28327149D02*
X31321428Y-28327149D01*
X31321428Y-28327149D02*
X31392857Y-28350959D01*
X31392857Y-28350959D02*
X31416666Y-28374768D01*
X31583333Y-28327149D02*
X31892857Y-28327149D01*
X31892857Y-28327149D02*
X31726190Y-28517625D01*
X31726190Y-28517625D02*
X31797619Y-28517625D01*
X31797619Y-28517625D02*
X31845238Y-28541435D01*
X31845238Y-28541435D02*
X31869047Y-28565244D01*
X31869047Y-28565244D02*
X31892857Y-28612863D01*
X31892857Y-28612863D02*
X31892857Y-28731911D01*
X31892857Y-28731911D02*
X31869047Y-28779530D01*
X31869047Y-28779530D02*
X31845238Y-28803340D01*
X31845238Y-28803340D02*
X31797619Y-28827149D01*
X31797619Y-28827149D02*
X31654762Y-28827149D01*
X31654762Y-28827149D02*
X31607143Y-28803340D01*
X31607143Y-28803340D02*
X31583333Y-28779530D01*
D10*
X404762Y-34324819D02*
X404762Y-33324819D01*
X404762Y-33324819D02*
X785714Y-33324819D01*
X785714Y-33324819D02*
X880952Y-33372438D01*
X880952Y-33372438D02*
X928571Y-33420057D01*
X928571Y-33420057D02*
X976190Y-33515295D01*
X976190Y-33515295D02*
X976190Y-33658152D01*
X976190Y-33658152D02*
X928571Y-33753390D01*
X928571Y-33753390D02*
X880952Y-33801009D01*
X880952Y-33801009D02*
X785714Y-33848628D01*
X785714Y-33848628D02*
X404762Y-33848628D01*
X1404762Y-34324819D02*
X1404762Y-33658152D01*
X1404762Y-33324819D02*
X1357143Y-33372438D01*
X1357143Y-33372438D02*
X1404762Y-33420057D01*
X1404762Y-33420057D02*
X1452381Y-33372438D01*
X1452381Y-33372438D02*
X1404762Y-33324819D01*
X1404762Y-33324819D02*
X1404762Y-33420057D01*
X2309523Y-34277200D02*
X2214285Y-34324819D01*
X2214285Y-34324819D02*
X2023809Y-34324819D01*
X2023809Y-34324819D02*
X1928571Y-34277200D01*
X1928571Y-34277200D02*
X1880952Y-34229580D01*
X1880952Y-34229580D02*
X1833333Y-34134342D01*
X1833333Y-34134342D02*
X1833333Y-33848628D01*
X1833333Y-33848628D02*
X1880952Y-33753390D01*
X1880952Y-33753390D02*
X1928571Y-33705771D01*
X1928571Y-33705771D02*
X2023809Y-33658152D01*
X2023809Y-33658152D02*
X2214285Y-33658152D01*
X2214285Y-33658152D02*
X2309523Y-33705771D01*
X2880952Y-34324819D02*
X2785714Y-34277200D01*
X2785714Y-34277200D02*
X2738095Y-34229580D01*
X2738095Y-34229580D02*
X2690476Y-34134342D01*
X2690476Y-34134342D02*
X2690476Y-33848628D01*
X2690476Y-33848628D02*
X2738095Y-33753390D01*
X2738095Y-33753390D02*
X2785714Y-33705771D01*
X2785714Y-33705771D02*
X2880952Y-33658152D01*
X2880952Y-33658152D02*
X3023809Y-33658152D01*
X3023809Y-33658152D02*
X3119047Y-33705771D01*
X3119047Y-33705771D02*
X3166666Y-33753390D01*
X3166666Y-33753390D02*
X3214285Y-33848628D01*
X3214285Y-33848628D02*
X3214285Y-34134342D01*
X3214285Y-34134342D02*
X3166666Y-34229580D01*
X3166666Y-34229580D02*
X3119047Y-34277200D01*
X3119047Y-34277200D02*
X3023809Y-34324819D01*
X3023809Y-34324819D02*
X2880952Y-34324819D01*
X4928571Y-34324819D02*
X4357143Y-34324819D01*
X4642857Y-34324819D02*
X4642857Y-33324819D01*
X4642857Y-33324819D02*
X4547619Y-33467676D01*
X4547619Y-33467676D02*
X4452381Y-33562914D01*
X4452381Y-33562914D02*
X4357143Y-33610533D01*
X5261905Y-34324819D02*
X5785714Y-33658152D01*
X5261905Y-33658152D02*
X5785714Y-34324819D01*
X6690476Y-34324819D02*
X6119048Y-34324819D01*
X6404762Y-34324819D02*
X6404762Y-33324819D01*
X6404762Y-33324819D02*
X6309524Y-33467676D01*
X6309524Y-33467676D02*
X6214286Y-33562914D01*
X6214286Y-33562914D02*
X6119048Y-33610533D01*
X7071429Y-33420057D02*
X7119048Y-33372438D01*
X7119048Y-33372438D02*
X7214286Y-33324819D01*
X7214286Y-33324819D02*
X7452381Y-33324819D01*
X7452381Y-33324819D02*
X7547619Y-33372438D01*
X7547619Y-33372438D02*
X7595238Y-33420057D01*
X7595238Y-33420057D02*
X7642857Y-33515295D01*
X7642857Y-33515295D02*
X7642857Y-33610533D01*
X7642857Y-33610533D02*
X7595238Y-33753390D01*
X7595238Y-33753390D02*
X7023810Y-34324819D01*
X7023810Y-34324819D02*
X7642857Y-34324819D01*
X3454819Y-17903333D02*
X4169104Y-17903333D01*
X4169104Y-17903333D02*
X4311961Y-17950952D01*
X4311961Y-17950952D02*
X4407200Y-18046190D01*
X4407200Y-18046190D02*
X4454819Y-18189047D01*
X4454819Y-18189047D02*
X4454819Y-18284285D01*
X4454819Y-16903333D02*
X4454819Y-17474761D01*
X4454819Y-17189047D02*
X3454819Y-17189047D01*
X3454819Y-17189047D02*
X3597676Y-17284285D01*
X3597676Y-17284285D02*
X3692914Y-17379523D01*
X3692914Y-17379523D02*
X3740533Y-17474761D01*
X28374819Y-28000000D02*
X28374819Y-28571428D01*
X28374819Y-28285714D02*
X27374819Y-28285714D01*
X27374819Y-28285714D02*
X27517676Y-28380952D01*
X27517676Y-28380952D02*
X27612914Y-28476190D01*
X27612914Y-28476190D02*
X27660533Y-28571428D01*
X27708152Y-27142857D02*
X28374819Y-27142857D01*
X27708152Y-27571428D02*
X28231961Y-27571428D01*
X28231961Y-27571428D02*
X28327200Y-27523809D01*
X28327200Y-27523809D02*
X28374819Y-27428571D01*
X28374819Y-27428571D02*
X28374819Y-27285714D01*
X28374819Y-27285714D02*
X28327200Y-27190476D01*
X28327200Y-27190476D02*
X28279580Y-27142857D01*
X27851009Y-26333333D02*
X27851009Y-26666666D01*
X28374819Y-26666666D02*
X27374819Y-26666666D01*
X27374819Y-26666666D02*
X27374819Y-26190476D01*
X27327200Y-25095238D02*
X28612914Y-25952380D01*
X27374819Y-24285714D02*
X27374819Y-24761904D01*
X27374819Y-24761904D02*
X27851009Y-24809523D01*
X27851009Y-24809523D02*
X27803390Y-24761904D01*
X27803390Y-24761904D02*
X27755771Y-24666666D01*
X27755771Y-24666666D02*
X27755771Y-24428571D01*
X27755771Y-24428571D02*
X27803390Y-24333333D01*
X27803390Y-24333333D02*
X27851009Y-24285714D01*
X27851009Y-24285714D02*
X27946247Y-24238095D01*
X27946247Y-24238095D02*
X28184342Y-24238095D01*
X28184342Y-24238095D02*
X28279580Y-24285714D01*
X28279580Y-24285714D02*
X28327200Y-24333333D01*
X28327200Y-24333333D02*
X28374819Y-24428571D01*
X28374819Y-24428571D02*
X28374819Y-24666666D01*
X28374819Y-24666666D02*
X28327200Y-24761904D01*
X28327200Y-24761904D02*
X28279580Y-24809523D01*
X27374819Y-23619047D02*
X27374819Y-23523809D01*
X27374819Y-23523809D02*
X27422438Y-23428571D01*
X27422438Y-23428571D02*
X27470057Y-23380952D01*
X27470057Y-23380952D02*
X27565295Y-23333333D01*
X27565295Y-23333333D02*
X27755771Y-23285714D01*
X27755771Y-23285714D02*
X27993866Y-23285714D01*
X27993866Y-23285714D02*
X28184342Y-23333333D01*
X28184342Y-23333333D02*
X28279580Y-23380952D01*
X28279580Y-23380952D02*
X28327200Y-23428571D01*
X28327200Y-23428571D02*
X28374819Y-23523809D01*
X28374819Y-23523809D02*
X28374819Y-23619047D01*
X28374819Y-23619047D02*
X28327200Y-23714285D01*
X28327200Y-23714285D02*
X28279580Y-23761904D01*
X28279580Y-23761904D02*
X28184342Y-23809523D01*
X28184342Y-23809523D02*
X27993866Y-23857142D01*
X27993866Y-23857142D02*
X27755771Y-23857142D01*
X27755771Y-23857142D02*
X27565295Y-23809523D01*
X27565295Y-23809523D02*
X27470057Y-23761904D01*
X27470057Y-23761904D02*
X27422438Y-23714285D01*
X27422438Y-23714285D02*
X27374819Y-23619047D01*
X27374819Y-22999999D02*
X28374819Y-22666666D01*
X28374819Y-22666666D02*
X27374819Y-22333333D01*
D11*
X29779530Y-25583333D02*
X29803340Y-25607142D01*
X29803340Y-25607142D02*
X29827149Y-25678571D01*
X29827149Y-25678571D02*
X29827149Y-25726190D01*
X29827149Y-25726190D02*
X29803340Y-25797618D01*
X29803340Y-25797618D02*
X29755720Y-25845237D01*
X29755720Y-25845237D02*
X29708101Y-25869047D01*
X29708101Y-25869047D02*
X29612863Y-25892856D01*
X29612863Y-25892856D02*
X29541435Y-25892856D01*
X29541435Y-25892856D02*
X29446197Y-25869047D01*
X29446197Y-25869047D02*
X29398578Y-25845237D01*
X29398578Y-25845237D02*
X29350959Y-25797618D01*
X29350959Y-25797618D02*
X29327149Y-25726190D01*
X29327149Y-25726190D02*
X29327149Y-25678571D01*
X29327149Y-25678571D02*
X29350959Y-25607142D01*
X29350959Y-25607142D02*
X29374768Y-25583333D01*
X29327149Y-25416666D02*
X29327149Y-25083333D01*
X29327149Y-25083333D02*
X29827149Y-25297618D01*
D10*
X8604761Y-20724819D02*
X8033333Y-20724819D01*
X8319047Y-20724819D02*
X8319047Y-19724819D01*
X8319047Y-19724819D02*
X8223809Y-19867676D01*
X8223809Y-19867676D02*
X8128571Y-19962914D01*
X8128571Y-19962914D02*
X8033333Y-20010533D01*
X9223809Y-19724819D02*
X9319047Y-19724819D01*
X9319047Y-19724819D02*
X9414285Y-19772438D01*
X9414285Y-19772438D02*
X9461904Y-19820057D01*
X9461904Y-19820057D02*
X9509523Y-19915295D01*
X9509523Y-19915295D02*
X9557142Y-20105771D01*
X9557142Y-20105771D02*
X9557142Y-20343866D01*
X9557142Y-20343866D02*
X9509523Y-20534342D01*
X9509523Y-20534342D02*
X9461904Y-20629580D01*
X9461904Y-20629580D02*
X9414285Y-20677200D01*
X9414285Y-20677200D02*
X9319047Y-20724819D01*
X9319047Y-20724819D02*
X9223809Y-20724819D01*
X9223809Y-20724819D02*
X9128571Y-20677200D01*
X9128571Y-20677200D02*
X9080952Y-20629580D01*
X9080952Y-20629580D02*
X9033333Y-20534342D01*
X9033333Y-20534342D02*
X8985714Y-20343866D01*
X8985714Y-20343866D02*
X8985714Y-20105771D01*
X8985714Y-20105771D02*
X9033333Y-19915295D01*
X9033333Y-19915295D02*
X9080952Y-19820057D01*
X9080952Y-19820057D02*
X9128571Y-19772438D01*
X9128571Y-19772438D02*
X9223809Y-19724819D01*
X9985714Y-20724819D02*
X9985714Y-19724819D01*
X10080952Y-20343866D02*
X10366666Y-20724819D01*
X10366666Y-20058152D02*
X9985714Y-20439104D01*
D12*
X9133333Y-19021927D02*
X9000000Y-18831451D01*
X8904762Y-19021927D02*
X8904762Y-18621927D01*
X8904762Y-18621927D02*
X9057143Y-18621927D01*
X9057143Y-18621927D02*
X9095238Y-18640975D01*
X9095238Y-18640975D02*
X9114285Y-18660022D01*
X9114285Y-18660022D02*
X9133333Y-18698118D01*
X9133333Y-18698118D02*
X9133333Y-18755260D01*
X9133333Y-18755260D02*
X9114285Y-18793356D01*
X9114285Y-18793356D02*
X9095238Y-18812403D01*
X9095238Y-18812403D02*
X9057143Y-18831451D01*
X9057143Y-18831451D02*
X8904762Y-18831451D01*
X9476190Y-18621927D02*
X9400000Y-18621927D01*
X9400000Y-18621927D02*
X9361904Y-18640975D01*
X9361904Y-18640975D02*
X9342857Y-18660022D01*
X9342857Y-18660022D02*
X9304762Y-18717165D01*
X9304762Y-18717165D02*
X9285714Y-18793356D01*
X9285714Y-18793356D02*
X9285714Y-18945737D01*
X9285714Y-18945737D02*
X9304762Y-18983832D01*
X9304762Y-18983832D02*
X9323809Y-19002880D01*
X9323809Y-19002880D02*
X9361904Y-19021927D01*
X9361904Y-19021927D02*
X9438095Y-19021927D01*
X9438095Y-19021927D02*
X9476190Y-19002880D01*
X9476190Y-19002880D02*
X9495238Y-18983832D01*
X9495238Y-18983832D02*
X9514285Y-18945737D01*
X9514285Y-18945737D02*
X9514285Y-18850499D01*
X9514285Y-18850499D02*
X9495238Y-18812403D01*
X9495238Y-18812403D02*
X9476190Y-18793356D01*
X9476190Y-18793356D02*
X9438095Y-18774308D01*
X9438095Y-18774308D02*
X9361904Y-18774308D01*
X9361904Y-18774308D02*
X9323809Y-18793356D01*
X9323809Y-18793356D02*
X9304762Y-18812403D01*
X9304762Y-18812403D02*
X9285714Y-18850499D01*
D10*
X18404761Y-31384819D02*
X17833333Y-31384819D01*
X18119047Y-31384819D02*
X18119047Y-30384819D01*
X18119047Y-30384819D02*
X18023809Y-30527676D01*
X18023809Y-30527676D02*
X17928571Y-30622914D01*
X17928571Y-30622914D02*
X17833333Y-30670533D01*
X19023809Y-30384819D02*
X19119047Y-30384819D01*
X19119047Y-30384819D02*
X19214285Y-30432438D01*
X19214285Y-30432438D02*
X19261904Y-30480057D01*
X19261904Y-30480057D02*
X19309523Y-30575295D01*
X19309523Y-30575295D02*
X19357142Y-30765771D01*
X19357142Y-30765771D02*
X19357142Y-31003866D01*
X19357142Y-31003866D02*
X19309523Y-31194342D01*
X19309523Y-31194342D02*
X19261904Y-31289580D01*
X19261904Y-31289580D02*
X19214285Y-31337200D01*
X19214285Y-31337200D02*
X19119047Y-31384819D01*
X19119047Y-31384819D02*
X19023809Y-31384819D01*
X19023809Y-31384819D02*
X18928571Y-31337200D01*
X18928571Y-31337200D02*
X18880952Y-31289580D01*
X18880952Y-31289580D02*
X18833333Y-31194342D01*
X18833333Y-31194342D02*
X18785714Y-31003866D01*
X18785714Y-31003866D02*
X18785714Y-30765771D01*
X18785714Y-30765771D02*
X18833333Y-30575295D01*
X18833333Y-30575295D02*
X18880952Y-30480057D01*
X18880952Y-30480057D02*
X18928571Y-30432438D01*
X18928571Y-30432438D02*
X19023809Y-30384819D01*
X19785714Y-31384819D02*
X19785714Y-30384819D01*
X19880952Y-31003866D02*
X20166666Y-31384819D01*
X20166666Y-30718152D02*
X19785714Y-31099104D01*
D12*
X18933333Y-29681927D02*
X18800000Y-29491451D01*
X18704762Y-29681927D02*
X18704762Y-29281927D01*
X18704762Y-29281927D02*
X18857143Y-29281927D01*
X18857143Y-29281927D02*
X18895238Y-29300975D01*
X18895238Y-29300975D02*
X18914285Y-29320022D01*
X18914285Y-29320022D02*
X18933333Y-29358118D01*
X18933333Y-29358118D02*
X18933333Y-29415260D01*
X18933333Y-29415260D02*
X18914285Y-29453356D01*
X18914285Y-29453356D02*
X18895238Y-29472403D01*
X18895238Y-29472403D02*
X18857143Y-29491451D01*
X18857143Y-29491451D02*
X18704762Y-29491451D01*
X19123809Y-29681927D02*
X19200000Y-29681927D01*
X19200000Y-29681927D02*
X19238095Y-29662880D01*
X19238095Y-29662880D02*
X19257143Y-29643832D01*
X19257143Y-29643832D02*
X19295238Y-29586689D01*
X19295238Y-29586689D02*
X19314285Y-29510499D01*
X19314285Y-29510499D02*
X19314285Y-29358118D01*
X19314285Y-29358118D02*
X19295238Y-29320022D01*
X19295238Y-29320022D02*
X19276190Y-29300975D01*
X19276190Y-29300975D02*
X19238095Y-29281927D01*
X19238095Y-29281927D02*
X19161904Y-29281927D01*
X19161904Y-29281927D02*
X19123809Y-29300975D01*
X19123809Y-29300975D02*
X19104762Y-29320022D01*
X19104762Y-29320022D02*
X19085714Y-29358118D01*
X19085714Y-29358118D02*
X19085714Y-29453356D01*
X19085714Y-29453356D02*
X19104762Y-29491451D01*
X19104762Y-29491451D02*
X19123809Y-29510499D01*
X19123809Y-29510499D02*
X19161904Y-29529546D01*
X19161904Y-29529546D02*
X19238095Y-29529546D01*
X19238095Y-29529546D02*
X19276190Y-29510499D01*
X19276190Y-29510499D02*
X19295238Y-29491451D01*
X19295238Y-29491451D02*
X19314285Y-29453356D01*
D10*
X18066666Y-8634819D02*
X18066666Y-7634819D01*
X18066666Y-7634819D02*
X18447618Y-7634819D01*
X18447618Y-7634819D02*
X18542856Y-7682438D01*
X18542856Y-7682438D02*
X18590475Y-7730057D01*
X18590475Y-7730057D02*
X18638094Y-7825295D01*
X18638094Y-7825295D02*
X18638094Y-7968152D01*
X18638094Y-7968152D02*
X18590475Y-8063390D01*
X18590475Y-8063390D02*
X18542856Y-8111009D01*
X18542856Y-8111009D02*
X18447618Y-8158628D01*
X18447618Y-8158628D02*
X18066666Y-8158628D01*
X19066666Y-8634819D02*
X19066666Y-7634819D01*
X19066666Y-7634819D02*
X19447618Y-7634819D01*
X19447618Y-7634819D02*
X19542856Y-7682438D01*
X19542856Y-7682438D02*
X19590475Y-7730057D01*
X19590475Y-7730057D02*
X19638094Y-7825295D01*
X19638094Y-7825295D02*
X19638094Y-7968152D01*
X19638094Y-7968152D02*
X19590475Y-8063390D01*
X19590475Y-8063390D02*
X19542856Y-8111009D01*
X19542856Y-8111009D02*
X19447618Y-8158628D01*
X19447618Y-8158628D02*
X19066666Y-8158628D01*
X19923809Y-7634819D02*
X20495237Y-7634819D01*
X20209523Y-8634819D02*
X20209523Y-7634819D01*
X21399999Y-8539580D02*
X21352380Y-8587200D01*
X21352380Y-8587200D02*
X21209523Y-8634819D01*
X21209523Y-8634819D02*
X21114285Y-8634819D01*
X21114285Y-8634819D02*
X20971428Y-8587200D01*
X20971428Y-8587200D02*
X20876190Y-8491961D01*
X20876190Y-8491961D02*
X20828571Y-8396723D01*
X20828571Y-8396723D02*
X20780952Y-8206247D01*
X20780952Y-8206247D02*
X20780952Y-8063390D01*
X20780952Y-8063390D02*
X20828571Y-7872914D01*
X20828571Y-7872914D02*
X20876190Y-7777676D01*
X20876190Y-7777676D02*
X20971428Y-7682438D01*
X20971428Y-7682438D02*
X21114285Y-7634819D01*
X21114285Y-7634819D02*
X21209523Y-7634819D01*
X21209523Y-7634819D02*
X21352380Y-7682438D01*
X21352380Y-7682438D02*
X21399999Y-7730057D01*
X22495238Y-7634819D02*
X23114285Y-7634819D01*
X23114285Y-7634819D02*
X22780952Y-8015771D01*
X22780952Y-8015771D02*
X22923809Y-8015771D01*
X22923809Y-8015771D02*
X23019047Y-8063390D01*
X23019047Y-8063390D02*
X23066666Y-8111009D01*
X23066666Y-8111009D02*
X23114285Y-8206247D01*
X23114285Y-8206247D02*
X23114285Y-8444342D01*
X23114285Y-8444342D02*
X23066666Y-8539580D01*
X23066666Y-8539580D02*
X23019047Y-8587200D01*
X23019047Y-8587200D02*
X22923809Y-8634819D01*
X22923809Y-8634819D02*
X22638095Y-8634819D01*
X22638095Y-8634819D02*
X22542857Y-8587200D01*
X22542857Y-8587200D02*
X22495238Y-8539580D01*
X23495238Y-8349104D02*
X23971428Y-8349104D01*
X23400000Y-8634819D02*
X23733333Y-7634819D01*
X23733333Y-7634819D02*
X24066666Y-8634819D01*
X25114285Y-7587200D02*
X24257143Y-8872914D01*
X25352381Y-7634819D02*
X25971428Y-7634819D01*
X25971428Y-7634819D02*
X25638095Y-8015771D01*
X25638095Y-8015771D02*
X25780952Y-8015771D01*
X25780952Y-8015771D02*
X25876190Y-8063390D01*
X25876190Y-8063390D02*
X25923809Y-8111009D01*
X25923809Y-8111009D02*
X25971428Y-8206247D01*
X25971428Y-8206247D02*
X25971428Y-8444342D01*
X25971428Y-8444342D02*
X25923809Y-8539580D01*
X25923809Y-8539580D02*
X25876190Y-8587200D01*
X25876190Y-8587200D02*
X25780952Y-8634819D01*
X25780952Y-8634819D02*
X25495238Y-8634819D01*
X25495238Y-8634819D02*
X25400000Y-8587200D01*
X25400000Y-8587200D02*
X25352381Y-8539580D01*
X26304762Y-7634819D02*
X26923809Y-7634819D01*
X26923809Y-7634819D02*
X26590476Y-8015771D01*
X26590476Y-8015771D02*
X26733333Y-8015771D01*
X26733333Y-8015771D02*
X26828571Y-8063390D01*
X26828571Y-8063390D02*
X26876190Y-8111009D01*
X26876190Y-8111009D02*
X26923809Y-8206247D01*
X26923809Y-8206247D02*
X26923809Y-8444342D01*
X26923809Y-8444342D02*
X26876190Y-8539580D01*
X26876190Y-8539580D02*
X26828571Y-8587200D01*
X26828571Y-8587200D02*
X26733333Y-8634819D01*
X26733333Y-8634819D02*
X26447619Y-8634819D01*
X26447619Y-8634819D02*
X26352381Y-8587200D01*
X26352381Y-8587200D02*
X26304762Y-8539580D01*
X27209524Y-7634819D02*
X27542857Y-8634819D01*
X27542857Y-8634819D02*
X27876190Y-7634819D01*
X22566666Y-4431009D02*
X22233333Y-4431009D01*
X22233333Y-4954819D02*
X22233333Y-3954819D01*
X22233333Y-3954819D02*
X22709523Y-3954819D01*
X23614285Y-4954819D02*
X23042857Y-4954819D01*
X23328571Y-4954819D02*
X23328571Y-3954819D01*
X23328571Y-3954819D02*
X23233333Y-4097676D01*
X23233333Y-4097676D02*
X23138095Y-4192914D01*
X23138095Y-4192914D02*
X23042857Y-4240533D01*
X33654819Y-8452381D02*
X33654819Y-9023809D01*
X33654819Y-8738095D02*
X32654819Y-8738095D01*
X32654819Y-8738095D02*
X32797676Y-8833333D01*
X32797676Y-8833333D02*
X32892914Y-8928571D01*
X32892914Y-8928571D02*
X32940533Y-9023809D01*
X32654819Y-7833333D02*
X32654819Y-7738095D01*
X32654819Y-7738095D02*
X32702438Y-7642857D01*
X32702438Y-7642857D02*
X32750057Y-7595238D01*
X32750057Y-7595238D02*
X32845295Y-7547619D01*
X32845295Y-7547619D02*
X33035771Y-7500000D01*
X33035771Y-7500000D02*
X33273866Y-7500000D01*
X33273866Y-7500000D02*
X33464342Y-7547619D01*
X33464342Y-7547619D02*
X33559580Y-7595238D01*
X33559580Y-7595238D02*
X33607200Y-7642857D01*
X33607200Y-7642857D02*
X33654819Y-7738095D01*
X33654819Y-7738095D02*
X33654819Y-7833333D01*
X33654819Y-7833333D02*
X33607200Y-7928571D01*
X33607200Y-7928571D02*
X33559580Y-7976190D01*
X33559580Y-7976190D02*
X33464342Y-8023809D01*
X33464342Y-8023809D02*
X33273866Y-8071428D01*
X33273866Y-8071428D02*
X33035771Y-8071428D01*
X33035771Y-8071428D02*
X32845295Y-8023809D01*
X32845295Y-8023809D02*
X32750057Y-7976190D01*
X32750057Y-7976190D02*
X32702438Y-7928571D01*
X32702438Y-7928571D02*
X32654819Y-7833333D01*
X32654819Y-6880952D02*
X32654819Y-6785714D01*
X32654819Y-6785714D02*
X32702438Y-6690476D01*
X32702438Y-6690476D02*
X32750057Y-6642857D01*
X32750057Y-6642857D02*
X32845295Y-6595238D01*
X32845295Y-6595238D02*
X33035771Y-6547619D01*
X33035771Y-6547619D02*
X33273866Y-6547619D01*
X33273866Y-6547619D02*
X33464342Y-6595238D01*
X33464342Y-6595238D02*
X33559580Y-6642857D01*
X33559580Y-6642857D02*
X33607200Y-6690476D01*
X33607200Y-6690476D02*
X33654819Y-6785714D01*
X33654819Y-6785714D02*
X33654819Y-6880952D01*
X33654819Y-6880952D02*
X33607200Y-6976190D01*
X33607200Y-6976190D02*
X33559580Y-7023809D01*
X33559580Y-7023809D02*
X33464342Y-7071428D01*
X33464342Y-7071428D02*
X33273866Y-7119047D01*
X33273866Y-7119047D02*
X33035771Y-7119047D01*
X33035771Y-7119047D02*
X32845295Y-7071428D01*
X32845295Y-7071428D02*
X32750057Y-7023809D01*
X32750057Y-7023809D02*
X32702438Y-6976190D01*
X32702438Y-6976190D02*
X32654819Y-6880952D01*
X32988152Y-5690476D02*
X33654819Y-5690476D01*
X32988152Y-6119047D02*
X33511961Y-6119047D01*
X33511961Y-6119047D02*
X33607200Y-6071428D01*
X33607200Y-6071428D02*
X33654819Y-5976190D01*
X33654819Y-5976190D02*
X33654819Y-5833333D01*
X33654819Y-5833333D02*
X33607200Y-5738095D01*
X33607200Y-5738095D02*
X33559580Y-5690476D01*
X33131009Y-4880952D02*
X33131009Y-5214285D01*
X33654819Y-5214285D02*
X32654819Y-5214285D01*
X32654819Y-5214285D02*
X32654819Y-4738095D01*
X32607200Y-3642857D02*
X33892914Y-4499999D01*
X32654819Y-3404761D02*
X32654819Y-2785714D01*
X32654819Y-2785714D02*
X33035771Y-3119047D01*
X33035771Y-3119047D02*
X33035771Y-2976190D01*
X33035771Y-2976190D02*
X33083390Y-2880952D01*
X33083390Y-2880952D02*
X33131009Y-2833333D01*
X33131009Y-2833333D02*
X33226247Y-2785714D01*
X33226247Y-2785714D02*
X33464342Y-2785714D01*
X33464342Y-2785714D02*
X33559580Y-2833333D01*
X33559580Y-2833333D02*
X33607200Y-2880952D01*
X33607200Y-2880952D02*
X33654819Y-2976190D01*
X33654819Y-2976190D02*
X33654819Y-3261904D01*
X33654819Y-3261904D02*
X33607200Y-3357142D01*
X33607200Y-3357142D02*
X33559580Y-3404761D01*
X32654819Y-1880952D02*
X32654819Y-2357142D01*
X32654819Y-2357142D02*
X33131009Y-2404761D01*
X33131009Y-2404761D02*
X33083390Y-2357142D01*
X33083390Y-2357142D02*
X33035771Y-2261904D01*
X33035771Y-2261904D02*
X33035771Y-2023809D01*
X33035771Y-2023809D02*
X33083390Y-1928571D01*
X33083390Y-1928571D02*
X33131009Y-1880952D01*
X33131009Y-1880952D02*
X33226247Y-1833333D01*
X33226247Y-1833333D02*
X33464342Y-1833333D01*
X33464342Y-1833333D02*
X33559580Y-1880952D01*
X33559580Y-1880952D02*
X33607200Y-1928571D01*
X33607200Y-1928571D02*
X33654819Y-2023809D01*
X33654819Y-2023809D02*
X33654819Y-2261904D01*
X33654819Y-2261904D02*
X33607200Y-2357142D01*
X33607200Y-2357142D02*
X33559580Y-2404761D01*
X32654819Y-1547618D02*
X33654819Y-1214285D01*
X33654819Y-1214285D02*
X32654819Y-880952D01*
X37909580Y-5166666D02*
X37957200Y-5214285D01*
X37957200Y-5214285D02*
X38004819Y-5357142D01*
X38004819Y-5357142D02*
X38004819Y-5452380D01*
X38004819Y-5452380D02*
X37957200Y-5595237D01*
X37957200Y-5595237D02*
X37861961Y-5690475D01*
X37861961Y-5690475D02*
X37766723Y-5738094D01*
X37766723Y-5738094D02*
X37576247Y-5785713D01*
X37576247Y-5785713D02*
X37433390Y-5785713D01*
X37433390Y-5785713D02*
X37242914Y-5738094D01*
X37242914Y-5738094D02*
X37147676Y-5690475D01*
X37147676Y-5690475D02*
X37052438Y-5595237D01*
X37052438Y-5595237D02*
X37004819Y-5452380D01*
X37004819Y-5452380D02*
X37004819Y-5357142D01*
X37004819Y-5357142D02*
X37052438Y-5214285D01*
X37052438Y-5214285D02*
X37100057Y-5166666D01*
X38004819Y-4214285D02*
X38004819Y-4785713D01*
X38004819Y-4499999D02*
X37004819Y-4499999D01*
X37004819Y-4499999D02*
X37147676Y-4595237D01*
X37147676Y-4595237D02*
X37242914Y-4690475D01*
X37242914Y-4690475D02*
X37290533Y-4785713D01*
X16624819Y-23047619D02*
X16624819Y-23619047D01*
X16624819Y-23333333D02*
X15624819Y-23333333D01*
X15624819Y-23333333D02*
X15767676Y-23428571D01*
X15767676Y-23428571D02*
X15862914Y-23523809D01*
X15862914Y-23523809D02*
X15910533Y-23619047D01*
X15624819Y-22428571D02*
X15624819Y-22333333D01*
X15624819Y-22333333D02*
X15672438Y-22238095D01*
X15672438Y-22238095D02*
X15720057Y-22190476D01*
X15720057Y-22190476D02*
X15815295Y-22142857D01*
X15815295Y-22142857D02*
X16005771Y-22095238D01*
X16005771Y-22095238D02*
X16243866Y-22095238D01*
X16243866Y-22095238D02*
X16434342Y-22142857D01*
X16434342Y-22142857D02*
X16529580Y-22190476D01*
X16529580Y-22190476D02*
X16577200Y-22238095D01*
X16577200Y-22238095D02*
X16624819Y-22333333D01*
X16624819Y-22333333D02*
X16624819Y-22428571D01*
X16624819Y-22428571D02*
X16577200Y-22523809D01*
X16577200Y-22523809D02*
X16529580Y-22571428D01*
X16529580Y-22571428D02*
X16434342Y-22619047D01*
X16434342Y-22619047D02*
X16243866Y-22666666D01*
X16243866Y-22666666D02*
X16005771Y-22666666D01*
X16005771Y-22666666D02*
X15815295Y-22619047D01*
X15815295Y-22619047D02*
X15720057Y-22571428D01*
X15720057Y-22571428D02*
X15672438Y-22523809D01*
X15672438Y-22523809D02*
X15624819Y-22428571D01*
X15624819Y-21476190D02*
X15624819Y-21380952D01*
X15624819Y-21380952D02*
X15672438Y-21285714D01*
X15672438Y-21285714D02*
X15720057Y-21238095D01*
X15720057Y-21238095D02*
X15815295Y-21190476D01*
X15815295Y-21190476D02*
X16005771Y-21142857D01*
X16005771Y-21142857D02*
X16243866Y-21142857D01*
X16243866Y-21142857D02*
X16434342Y-21190476D01*
X16434342Y-21190476D02*
X16529580Y-21238095D01*
X16529580Y-21238095D02*
X16577200Y-21285714D01*
X16577200Y-21285714D02*
X16624819Y-21380952D01*
X16624819Y-21380952D02*
X16624819Y-21476190D01*
X16624819Y-21476190D02*
X16577200Y-21571428D01*
X16577200Y-21571428D02*
X16529580Y-21619047D01*
X16529580Y-21619047D02*
X16434342Y-21666666D01*
X16434342Y-21666666D02*
X16243866Y-21714285D01*
X16243866Y-21714285D02*
X16005771Y-21714285D01*
X16005771Y-21714285D02*
X15815295Y-21666666D01*
X15815295Y-21666666D02*
X15720057Y-21619047D01*
X15720057Y-21619047D02*
X15672438Y-21571428D01*
X15672438Y-21571428D02*
X15624819Y-21476190D01*
X15958152Y-20714285D02*
X16624819Y-20714285D01*
X16053390Y-20714285D02*
X16005771Y-20666666D01*
X16005771Y-20666666D02*
X15958152Y-20571428D01*
X15958152Y-20571428D02*
X15958152Y-20428571D01*
X15958152Y-20428571D02*
X16005771Y-20333333D01*
X16005771Y-20333333D02*
X16101009Y-20285714D01*
X16101009Y-20285714D02*
X16624819Y-20285714D01*
X16101009Y-19476190D02*
X16101009Y-19809523D01*
X16624819Y-19809523D02*
X15624819Y-19809523D01*
X15624819Y-19809523D02*
X15624819Y-19333333D01*
D12*
X17743832Y-21566666D02*
X17762880Y-21585714D01*
X17762880Y-21585714D02*
X17781927Y-21642856D01*
X17781927Y-21642856D02*
X17781927Y-21680952D01*
X17781927Y-21680952D02*
X17762880Y-21738095D01*
X17762880Y-21738095D02*
X17724784Y-21776190D01*
X17724784Y-21776190D02*
X17686689Y-21795237D01*
X17686689Y-21795237D02*
X17610499Y-21814285D01*
X17610499Y-21814285D02*
X17553356Y-21814285D01*
X17553356Y-21814285D02*
X17477165Y-21795237D01*
X17477165Y-21795237D02*
X17439070Y-21776190D01*
X17439070Y-21776190D02*
X17400975Y-21738095D01*
X17400975Y-21738095D02*
X17381927Y-21680952D01*
X17381927Y-21680952D02*
X17381927Y-21642856D01*
X17381927Y-21642856D02*
X17400975Y-21585714D01*
X17400975Y-21585714D02*
X17420022Y-21566666D01*
X17781927Y-21376190D02*
X17781927Y-21299999D01*
X17781927Y-21299999D02*
X17762880Y-21261904D01*
X17762880Y-21261904D02*
X17743832Y-21242856D01*
X17743832Y-21242856D02*
X17686689Y-21204761D01*
X17686689Y-21204761D02*
X17610499Y-21185714D01*
X17610499Y-21185714D02*
X17458118Y-21185714D01*
X17458118Y-21185714D02*
X17420022Y-21204761D01*
X17420022Y-21204761D02*
X17400975Y-21223809D01*
X17400975Y-21223809D02*
X17381927Y-21261904D01*
X17381927Y-21261904D02*
X17381927Y-21338095D01*
X17381927Y-21338095D02*
X17400975Y-21376190D01*
X17400975Y-21376190D02*
X17420022Y-21395237D01*
X17420022Y-21395237D02*
X17458118Y-21414285D01*
X17458118Y-21414285D02*
X17553356Y-21414285D01*
X17553356Y-21414285D02*
X17591451Y-21395237D01*
X17591451Y-21395237D02*
X17610499Y-21376190D01*
X17610499Y-21376190D02*
X17629546Y-21338095D01*
X17629546Y-21338095D02*
X17629546Y-21261904D01*
X17629546Y-21261904D02*
X17610499Y-21223809D01*
X17610499Y-21223809D02*
X17591451Y-21204761D01*
X17591451Y-21204761D02*
X17553356Y-21185714D01*
D10*
X6754761Y-30884819D02*
X6183333Y-30884819D01*
X6469047Y-30884819D02*
X6469047Y-29884819D01*
X6469047Y-29884819D02*
X6373809Y-30027676D01*
X6373809Y-30027676D02*
X6278571Y-30122914D01*
X6278571Y-30122914D02*
X6183333Y-30170533D01*
X7373809Y-29884819D02*
X7469047Y-29884819D01*
X7469047Y-29884819D02*
X7564285Y-29932438D01*
X7564285Y-29932438D02*
X7611904Y-29980057D01*
X7611904Y-29980057D02*
X7659523Y-30075295D01*
X7659523Y-30075295D02*
X7707142Y-30265771D01*
X7707142Y-30265771D02*
X7707142Y-30503866D01*
X7707142Y-30503866D02*
X7659523Y-30694342D01*
X7659523Y-30694342D02*
X7611904Y-30789580D01*
X7611904Y-30789580D02*
X7564285Y-30837200D01*
X7564285Y-30837200D02*
X7469047Y-30884819D01*
X7469047Y-30884819D02*
X7373809Y-30884819D01*
X7373809Y-30884819D02*
X7278571Y-30837200D01*
X7278571Y-30837200D02*
X7230952Y-30789580D01*
X7230952Y-30789580D02*
X7183333Y-30694342D01*
X7183333Y-30694342D02*
X7135714Y-30503866D01*
X7135714Y-30503866D02*
X7135714Y-30265771D01*
X7135714Y-30265771D02*
X7183333Y-30075295D01*
X7183333Y-30075295D02*
X7230952Y-29980057D01*
X7230952Y-29980057D02*
X7278571Y-29932438D01*
X7278571Y-29932438D02*
X7373809Y-29884819D01*
X8135714Y-30884819D02*
X8135714Y-29884819D01*
X8230952Y-30503866D02*
X8516666Y-30884819D01*
X8516666Y-30218152D02*
X8135714Y-30599104D01*
D12*
X7283333Y-29181927D02*
X7150000Y-28991451D01*
X7054762Y-29181927D02*
X7054762Y-28781927D01*
X7054762Y-28781927D02*
X7207143Y-28781927D01*
X7207143Y-28781927D02*
X7245238Y-28800975D01*
X7245238Y-28800975D02*
X7264285Y-28820022D01*
X7264285Y-28820022D02*
X7283333Y-28858118D01*
X7283333Y-28858118D02*
X7283333Y-28915260D01*
X7283333Y-28915260D02*
X7264285Y-28953356D01*
X7264285Y-28953356D02*
X7245238Y-28972403D01*
X7245238Y-28972403D02*
X7207143Y-28991451D01*
X7207143Y-28991451D02*
X7054762Y-28991451D01*
X7645238Y-28781927D02*
X7454762Y-28781927D01*
X7454762Y-28781927D02*
X7435714Y-28972403D01*
X7435714Y-28972403D02*
X7454762Y-28953356D01*
X7454762Y-28953356D02*
X7492857Y-28934308D01*
X7492857Y-28934308D02*
X7588095Y-28934308D01*
X7588095Y-28934308D02*
X7626190Y-28953356D01*
X7626190Y-28953356D02*
X7645238Y-28972403D01*
X7645238Y-28972403D02*
X7664285Y-29010499D01*
X7664285Y-29010499D02*
X7664285Y-29105737D01*
X7664285Y-29105737D02*
X7645238Y-29143832D01*
X7645238Y-29143832D02*
X7626190Y-29162880D01*
X7626190Y-29162880D02*
X7588095Y-29181927D01*
X7588095Y-29181927D02*
X7492857Y-29181927D01*
X7492857Y-29181927D02*
X7454762Y-29162880D01*
X7454762Y-29162880D02*
X7435714Y-29143832D01*
D10*
X6754761Y-18184819D02*
X6183333Y-18184819D01*
X6469047Y-18184819D02*
X6469047Y-17184819D01*
X6469047Y-17184819D02*
X6373809Y-17327676D01*
X6373809Y-17327676D02*
X6278571Y-17422914D01*
X6278571Y-17422914D02*
X6183333Y-17470533D01*
X7373809Y-17184819D02*
X7469047Y-17184819D01*
X7469047Y-17184819D02*
X7564285Y-17232438D01*
X7564285Y-17232438D02*
X7611904Y-17280057D01*
X7611904Y-17280057D02*
X7659523Y-17375295D01*
X7659523Y-17375295D02*
X7707142Y-17565771D01*
X7707142Y-17565771D02*
X7707142Y-17803866D01*
X7707142Y-17803866D02*
X7659523Y-17994342D01*
X7659523Y-17994342D02*
X7611904Y-18089580D01*
X7611904Y-18089580D02*
X7564285Y-18137200D01*
X7564285Y-18137200D02*
X7469047Y-18184819D01*
X7469047Y-18184819D02*
X7373809Y-18184819D01*
X7373809Y-18184819D02*
X7278571Y-18137200D01*
X7278571Y-18137200D02*
X7230952Y-18089580D01*
X7230952Y-18089580D02*
X7183333Y-17994342D01*
X7183333Y-17994342D02*
X7135714Y-17803866D01*
X7135714Y-17803866D02*
X7135714Y-17565771D01*
X7135714Y-17565771D02*
X7183333Y-17375295D01*
X7183333Y-17375295D02*
X7230952Y-17280057D01*
X7230952Y-17280057D02*
X7278571Y-17232438D01*
X7278571Y-17232438D02*
X7373809Y-17184819D01*
X8135714Y-18184819D02*
X8135714Y-17184819D01*
X8230952Y-17803866D02*
X8516666Y-18184819D01*
X8516666Y-17518152D02*
X8135714Y-17899104D01*
D12*
X7283333Y-16481927D02*
X7150000Y-16291451D01*
X7054762Y-16481927D02*
X7054762Y-16081927D01*
X7054762Y-16081927D02*
X7207143Y-16081927D01*
X7207143Y-16081927D02*
X7245238Y-16100975D01*
X7245238Y-16100975D02*
X7264285Y-16120022D01*
X7264285Y-16120022D02*
X7283333Y-16158118D01*
X7283333Y-16158118D02*
X7283333Y-16215260D01*
X7283333Y-16215260D02*
X7264285Y-16253356D01*
X7264285Y-16253356D02*
X7245238Y-16272403D01*
X7245238Y-16272403D02*
X7207143Y-16291451D01*
X7207143Y-16291451D02*
X7054762Y-16291451D01*
X7435714Y-16120022D02*
X7454762Y-16100975D01*
X7454762Y-16100975D02*
X7492857Y-16081927D01*
X7492857Y-16081927D02*
X7588095Y-16081927D01*
X7588095Y-16081927D02*
X7626190Y-16100975D01*
X7626190Y-16100975D02*
X7645238Y-16120022D01*
X7645238Y-16120022D02*
X7664285Y-16158118D01*
X7664285Y-16158118D02*
X7664285Y-16196213D01*
X7664285Y-16196213D02*
X7645238Y-16253356D01*
X7645238Y-16253356D02*
X7416666Y-16481927D01*
X7416666Y-16481927D02*
X7664285Y-16481927D01*
D10*
X17876190Y-19634819D02*
X17304762Y-19634819D01*
X17590476Y-19634819D02*
X17590476Y-18634819D01*
X17590476Y-18634819D02*
X17495238Y-18777676D01*
X17495238Y-18777676D02*
X17400000Y-18872914D01*
X17400000Y-18872914D02*
X17304762Y-18920533D01*
X18257143Y-18730057D02*
X18304762Y-18682438D01*
X18304762Y-18682438D02*
X18400000Y-18634819D01*
X18400000Y-18634819D02*
X18638095Y-18634819D01*
X18638095Y-18634819D02*
X18733333Y-18682438D01*
X18733333Y-18682438D02*
X18780952Y-18730057D01*
X18780952Y-18730057D02*
X18828571Y-18825295D01*
X18828571Y-18825295D02*
X18828571Y-18920533D01*
X18828571Y-18920533D02*
X18780952Y-19063390D01*
X18780952Y-19063390D02*
X18209524Y-19634819D01*
X18209524Y-19634819D02*
X18828571Y-19634819D01*
X19257143Y-19634819D02*
X19257143Y-18634819D01*
X19352381Y-19253866D02*
X19638095Y-19634819D01*
X19638095Y-18968152D02*
X19257143Y-19349104D01*
X21352381Y-19634819D02*
X20780953Y-19634819D01*
X21066667Y-19634819D02*
X21066667Y-18634819D01*
X21066667Y-18634819D02*
X20971429Y-18777676D01*
X20971429Y-18777676D02*
X20876191Y-18872914D01*
X20876191Y-18872914D02*
X20780953Y-18920533D01*
X21733334Y-19634819D02*
X22495238Y-18634819D01*
X21876191Y-18634819D02*
X21971429Y-18682438D01*
X21971429Y-18682438D02*
X22019048Y-18777676D01*
X22019048Y-18777676D02*
X21971429Y-18872914D01*
X21971429Y-18872914D02*
X21876191Y-18920533D01*
X21876191Y-18920533D02*
X21780953Y-18872914D01*
X21780953Y-18872914D02*
X21733334Y-18777676D01*
X21733334Y-18777676D02*
X21780953Y-18682438D01*
X21780953Y-18682438D02*
X21876191Y-18634819D01*
X22447619Y-19587200D02*
X22495238Y-19491961D01*
X22495238Y-19491961D02*
X22447619Y-19396723D01*
X22447619Y-19396723D02*
X22352381Y-19349104D01*
X22352381Y-19349104D02*
X22257143Y-19396723D01*
X22257143Y-19396723D02*
X22209524Y-19491961D01*
X22209524Y-19491961D02*
X22257143Y-19587200D01*
X22257143Y-19587200D02*
X22352381Y-19634819D01*
X22352381Y-19634819D02*
X22447619Y-19587200D01*
D12*
X19833333Y-17931927D02*
X19700000Y-17741451D01*
X19604762Y-17931927D02*
X19604762Y-17531927D01*
X19604762Y-17531927D02*
X19757143Y-17531927D01*
X19757143Y-17531927D02*
X19795238Y-17550975D01*
X19795238Y-17550975D02*
X19814285Y-17570022D01*
X19814285Y-17570022D02*
X19833333Y-17608118D01*
X19833333Y-17608118D02*
X19833333Y-17665260D01*
X19833333Y-17665260D02*
X19814285Y-17703356D01*
X19814285Y-17703356D02*
X19795238Y-17722403D01*
X19795238Y-17722403D02*
X19757143Y-17741451D01*
X19757143Y-17741451D02*
X19604762Y-17741451D01*
X20214285Y-17931927D02*
X19985714Y-17931927D01*
X20100000Y-17931927D02*
X20100000Y-17531927D01*
X20100000Y-17531927D02*
X20061904Y-17589070D01*
X20061904Y-17589070D02*
X20023809Y-17627165D01*
X20023809Y-17627165D02*
X19985714Y-17646213D01*
D10*
X24023809Y-2507200D02*
X24166666Y-2554819D01*
X24166666Y-2554819D02*
X24404761Y-2554819D01*
X24404761Y-2554819D02*
X24499999Y-2507200D01*
X24499999Y-2507200D02*
X24547618Y-2459580D01*
X24547618Y-2459580D02*
X24595237Y-2364342D01*
X24595237Y-2364342D02*
X24595237Y-2269104D01*
X24595237Y-2269104D02*
X24547618Y-2173866D01*
X24547618Y-2173866D02*
X24499999Y-2126247D01*
X24499999Y-2126247D02*
X24404761Y-2078628D01*
X24404761Y-2078628D02*
X24214285Y-2031009D01*
X24214285Y-2031009D02*
X24119047Y-1983390D01*
X24119047Y-1983390D02*
X24071428Y-1935771D01*
X24071428Y-1935771D02*
X24023809Y-1840533D01*
X24023809Y-1840533D02*
X24023809Y-1745295D01*
X24023809Y-1745295D02*
X24071428Y-1650057D01*
X24071428Y-1650057D02*
X24119047Y-1602438D01*
X24119047Y-1602438D02*
X24214285Y-1554819D01*
X24214285Y-1554819D02*
X24452380Y-1554819D01*
X24452380Y-1554819D02*
X24595237Y-1602438D01*
X25023809Y-2173866D02*
X25785714Y-2173866D01*
X26738094Y-2554819D02*
X26261904Y-2554819D01*
X26261904Y-2554819D02*
X26261904Y-1554819D01*
X27071428Y-2554819D02*
X27071428Y-1554819D01*
X27071428Y-1554819D02*
X27452380Y-1554819D01*
X27452380Y-1554819D02*
X27547618Y-1602438D01*
X27547618Y-1602438D02*
X27595237Y-1650057D01*
X27595237Y-1650057D02*
X27642856Y-1745295D01*
X27642856Y-1745295D02*
X27642856Y-1888152D01*
X27642856Y-1888152D02*
X27595237Y-1983390D01*
X27595237Y-1983390D02*
X27547618Y-2031009D01*
X27547618Y-2031009D02*
X27452380Y-2078628D01*
X27452380Y-2078628D02*
X27071428Y-2078628D01*
X28023809Y-1650057D02*
X28071428Y-1602438D01*
X28071428Y-1602438D02*
X28166666Y-1554819D01*
X28166666Y-1554819D02*
X28404761Y-1554819D01*
X28404761Y-1554819D02*
X28499999Y-1602438D01*
X28499999Y-1602438D02*
X28547618Y-1650057D01*
X28547618Y-1650057D02*
X28595237Y-1745295D01*
X28595237Y-1745295D02*
X28595237Y-1840533D01*
X28595237Y-1840533D02*
X28547618Y-1983390D01*
X28547618Y-1983390D02*
X27976190Y-2554819D01*
X27976190Y-2554819D02*
X28595237Y-2554819D01*
X29452380Y-1888152D02*
X29452380Y-2554819D01*
X29214285Y-1507200D02*
X28976190Y-2221485D01*
X28976190Y-2221485D02*
X29595237Y-2221485D01*
X30166666Y-1554819D02*
X30261904Y-1554819D01*
X30261904Y-1554819D02*
X30357142Y-1602438D01*
X30357142Y-1602438D02*
X30404761Y-1650057D01*
X30404761Y-1650057D02*
X30452380Y-1745295D01*
X30452380Y-1745295D02*
X30499999Y-1935771D01*
X30499999Y-1935771D02*
X30499999Y-2173866D01*
X30499999Y-2173866D02*
X30452380Y-2364342D01*
X30452380Y-2364342D02*
X30404761Y-2459580D01*
X30404761Y-2459580D02*
X30357142Y-2507200D01*
X30357142Y-2507200D02*
X30261904Y-2554819D01*
X30261904Y-2554819D02*
X30166666Y-2554819D01*
X30166666Y-2554819D02*
X30071428Y-2507200D01*
X30071428Y-2507200D02*
X30023809Y-2459580D01*
X30023809Y-2459580D02*
X29976190Y-2364342D01*
X29976190Y-2364342D02*
X29928571Y-2173866D01*
X29928571Y-2173866D02*
X29928571Y-1935771D01*
X29928571Y-1935771D02*
X29976190Y-1745295D01*
X29976190Y-1745295D02*
X30023809Y-1650057D01*
X30023809Y-1650057D02*
X30071428Y-1602438D01*
X30071428Y-1602438D02*
X30166666Y-1554819D01*
X31071428Y-1983390D02*
X30976190Y-1935771D01*
X30976190Y-1935771D02*
X30928571Y-1888152D01*
X30928571Y-1888152D02*
X30880952Y-1792914D01*
X30880952Y-1792914D02*
X30880952Y-1745295D01*
X30880952Y-1745295D02*
X30928571Y-1650057D01*
X30928571Y-1650057D02*
X30976190Y-1602438D01*
X30976190Y-1602438D02*
X31071428Y-1554819D01*
X31071428Y-1554819D02*
X31261904Y-1554819D01*
X31261904Y-1554819D02*
X31357142Y-1602438D01*
X31357142Y-1602438D02*
X31404761Y-1650057D01*
X31404761Y-1650057D02*
X31452380Y-1745295D01*
X31452380Y-1745295D02*
X31452380Y-1792914D01*
X31452380Y-1792914D02*
X31404761Y-1888152D01*
X31404761Y-1888152D02*
X31357142Y-1935771D01*
X31357142Y-1935771D02*
X31261904Y-1983390D01*
X31261904Y-1983390D02*
X31071428Y-1983390D01*
X31071428Y-1983390D02*
X30976190Y-2031009D01*
X30976190Y-2031009D02*
X30928571Y-2078628D01*
X30928571Y-2078628D02*
X30880952Y-2173866D01*
X30880952Y-2173866D02*
X30880952Y-2364342D01*
X30880952Y-2364342D02*
X30928571Y-2459580D01*
X30928571Y-2459580D02*
X30976190Y-2507200D01*
X30976190Y-2507200D02*
X31071428Y-2554819D01*
X31071428Y-2554819D02*
X31261904Y-2554819D01*
X31261904Y-2554819D02*
X31357142Y-2507200D01*
X31357142Y-2507200D02*
X31404761Y-2459580D01*
X31404761Y-2459580D02*
X31452380Y-2364342D01*
X31452380Y-2364342D02*
X31452380Y-2173866D01*
X31452380Y-2173866D02*
X31404761Y-2078628D01*
X31404761Y-2078628D02*
X31357142Y-2031009D01*
X31357142Y-2031009D02*
X31261904Y-1983390D01*
X32357142Y-2554819D02*
X31880952Y-2554819D01*
X31880952Y-2554819D02*
X31880952Y-1554819D01*
X32547619Y-1554819D02*
X33119047Y-1554819D01*
X32833333Y-2554819D02*
X32833333Y-1554819D01*
X33976190Y-2554819D02*
X33404762Y-2554819D01*
X33690476Y-2554819D02*
X33690476Y-1554819D01*
X33690476Y-1554819D02*
X33595238Y-1697676D01*
X33595238Y-1697676D02*
X33500000Y-1792914D01*
X33500000Y-1792914D02*
X33404762Y-1840533D01*
X34928571Y-1602438D02*
X34833333Y-1554819D01*
X34833333Y-1554819D02*
X34690476Y-1554819D01*
X34690476Y-1554819D02*
X34547619Y-1602438D01*
X34547619Y-1602438D02*
X34452381Y-1697676D01*
X34452381Y-1697676D02*
X34404762Y-1792914D01*
X34404762Y-1792914D02*
X34357143Y-1983390D01*
X34357143Y-1983390D02*
X34357143Y-2126247D01*
X34357143Y-2126247D02*
X34404762Y-2316723D01*
X34404762Y-2316723D02*
X34452381Y-2411961D01*
X34452381Y-2411961D02*
X34547619Y-2507200D01*
X34547619Y-2507200D02*
X34690476Y-2554819D01*
X34690476Y-2554819D02*
X34785714Y-2554819D01*
X34785714Y-2554819D02*
X34928571Y-2507200D01*
X34928571Y-2507200D02*
X34976190Y-2459580D01*
X34976190Y-2459580D02*
X34976190Y-2126247D01*
X34976190Y-2126247D02*
X34785714Y-2126247D01*
D13*
X29469523Y-4675914D02*
X29439047Y-4660676D01*
X29439047Y-4660676D02*
X29408571Y-4630200D01*
X29408571Y-4630200D02*
X29362857Y-4584485D01*
X29362857Y-4584485D02*
X29332380Y-4569247D01*
X29332380Y-4569247D02*
X29301904Y-4569247D01*
X29317142Y-4645438D02*
X29286666Y-4630200D01*
X29286666Y-4630200D02*
X29256190Y-4599723D01*
X29256190Y-4599723D02*
X29240952Y-4538771D01*
X29240952Y-4538771D02*
X29240952Y-4432104D01*
X29240952Y-4432104D02*
X29256190Y-4371152D01*
X29256190Y-4371152D02*
X29286666Y-4340676D01*
X29286666Y-4340676D02*
X29317142Y-4325438D01*
X29317142Y-4325438D02*
X29378095Y-4325438D01*
X29378095Y-4325438D02*
X29408571Y-4340676D01*
X29408571Y-4340676D02*
X29439047Y-4371152D01*
X29439047Y-4371152D02*
X29454285Y-4432104D01*
X29454285Y-4432104D02*
X29454285Y-4538771D01*
X29454285Y-4538771D02*
X29439047Y-4599723D01*
X29439047Y-4599723D02*
X29408571Y-4630200D01*
X29408571Y-4630200D02*
X29378095Y-4645438D01*
X29378095Y-4645438D02*
X29317142Y-4645438D01*
X29759047Y-4645438D02*
X29576190Y-4645438D01*
X29667618Y-4645438D02*
X29667618Y-4325438D01*
X29667618Y-4325438D02*
X29637142Y-4371152D01*
X29637142Y-4371152D02*
X29606666Y-4401628D01*
X29606666Y-4401628D02*
X29576190Y-4416866D01*
D14*
%TO.C,D2*%
X33650000Y-5600000D02*
X33650000Y-8400000D01*
X31850000Y-5600000D02*
X33650000Y-5600000D01*
X32750000Y-6250000D02*
X32750000Y-6650000D01*
X32750000Y-6650000D02*
X33300000Y-6650000D01*
X32750000Y-6650000D02*
X32200000Y-6650000D01*
X32750000Y-6650000D02*
X33150000Y-7250000D01*
X33150000Y-7250000D02*
X32350000Y-7250000D01*
X32750000Y-7250000D02*
X32750000Y-7750000D01*
X32350000Y-7250000D02*
X32750000Y-6650000D01*
X33650000Y-8400000D02*
X31850000Y-8400000D01*
X31850000Y-8400000D02*
X31850000Y-5600000D01*
%TO.C,U1*%
X22500000Y-18000000D02*
X23500000Y-17000000D01*
X22500000Y-22000000D02*
X22500000Y-18000000D01*
X23500000Y-17000000D02*
X27500000Y-17000000D01*
X27500000Y-17000000D02*
X27500000Y-22000000D01*
X27500000Y-22000000D02*
X22500000Y-22000000D01*
%TO.C,C2*%
X37300000Y-10875000D02*
X39300000Y-10875000D01*
X37300000Y-12125000D02*
X37300000Y-10875000D01*
X39300000Y-10875000D02*
X39300000Y-12125000D01*
X39300000Y-12125000D02*
X37300000Y-12125000D01*
%TO.C,C6*%
X25800000Y-25000000D02*
X27400000Y-25000000D01*
X25800000Y-25800000D02*
X25800000Y-25000000D01*
X27400000Y-25000000D02*
X27400000Y-25800000D01*
X27400000Y-25800000D02*
X25800000Y-25800000D01*
%TO.C,J3*%
X49250000Y-9520000D02*
X49250000Y-29720000D01*
X42950000Y-9520000D02*
X42950000Y-29720000D01*
X41750000Y-9520000D02*
X49250000Y-9520000D01*
X41750000Y-9570000D02*
X41750000Y-9520000D01*
X49250000Y-29720000D02*
X41750000Y-29720000D01*
X41750000Y-29720000D02*
X41750000Y-9570000D01*
%TO.C,R4*%
X6550000Y-26047500D02*
X8150000Y-26047500D01*
X6550000Y-26872500D02*
X6550000Y-26047500D01*
X8150000Y-26047500D02*
X8150000Y-26872500D01*
X8150000Y-26872500D02*
X6550000Y-26872500D01*
%TO.C,C4*%
X33200000Y-11100000D02*
X34800000Y-11100000D01*
X33200000Y-11900000D02*
X33200000Y-11100000D01*
X34800000Y-11100000D02*
X34800000Y-11900000D01*
X34800000Y-11900000D02*
X33200000Y-11900000D01*
%TO.C,C8*%
X15800000Y-18350000D02*
X17400000Y-18350000D01*
X15800000Y-19150000D02*
X15800000Y-18350000D01*
X17400000Y-18350000D02*
X17400000Y-19150000D01*
X17400000Y-19150000D02*
X15800000Y-19150000D01*
%TO.C,R3*%
X7700000Y-23507500D02*
X9300000Y-23507500D01*
X7700000Y-24332500D02*
X7700000Y-23507500D01*
X9300000Y-23507500D02*
X9300000Y-24332500D01*
X9300000Y-24332500D02*
X7700000Y-24332500D01*
%TO.C,C5*%
X34700000Y-28200000D02*
X36300000Y-28200000D01*
X34700000Y-29000000D02*
X34700000Y-28200000D01*
X36300000Y-28200000D02*
X36300000Y-29000000D01*
X36300000Y-29000000D02*
X34700000Y-29000000D01*
%TO.C,J4*%
X16365000Y-34270000D02*
X15730000Y-33635000D01*
X28430000Y-34270000D02*
X16365000Y-34270000D01*
X15730000Y-33635000D02*
X15730000Y-31730000D01*
X15730000Y-31730000D02*
X28430000Y-31730000D01*
X28430000Y-31730000D02*
X28430000Y-34270000D01*
%TO.C,J2*%
X6840000Y-750000D02*
X6840000Y-8250000D01*
X6840000Y-8250000D02*
X16840000Y-8250000D01*
X6890000Y-7050000D02*
X16790000Y-7050000D01*
X16840000Y-750000D02*
X6840000Y-750000D01*
X16840000Y-8250000D02*
X16840000Y-750000D01*
%TO.C,R8*%
X30512500Y-9100000D02*
X30512500Y-10700000D01*
X29687500Y-9100000D02*
X30512500Y-9100000D01*
X30512500Y-10700000D02*
X29687500Y-10700000D01*
X29687500Y-10700000D02*
X29687500Y-9100000D01*
%TO.C,R11*%
X24800000Y-29087500D02*
X26400000Y-29087500D01*
X24800000Y-29912500D02*
X24800000Y-29087500D01*
X26400000Y-29087500D02*
X26400000Y-29912500D01*
X26400000Y-29912500D02*
X24800000Y-29912500D01*
%TO.C,R7*%
X8400000Y-20967500D02*
X10000000Y-20967500D01*
X8400000Y-21792500D02*
X8400000Y-20967500D01*
X10000000Y-20967500D02*
X10000000Y-21792500D01*
X10000000Y-21792500D02*
X8400000Y-21792500D01*
%TO.C,R10*%
X21500000Y-29087500D02*
X23100000Y-29087500D01*
X21500000Y-29912500D02*
X21500000Y-29087500D01*
X23100000Y-29087500D02*
X23100000Y-29912500D01*
X23100000Y-29912500D02*
X21500000Y-29912500D01*
%TO.C,D1*%
X42600000Y-8700000D02*
X42600000Y-4700000D01*
X44250560Y-5900920D02*
X44250560Y-7501120D01*
X44250560Y-6701020D02*
X43348860Y-6701020D01*
X44250560Y-6701020D02*
X45401180Y-5900920D01*
X44250560Y-6701020D02*
X45401180Y-7450320D01*
X45401180Y-6701020D02*
X46399400Y-6701020D01*
X45401180Y-7450320D02*
X45401180Y-5900920D01*
X47200000Y-4700000D02*
X42600000Y-4700000D01*
X47200000Y-4700000D02*
X47200000Y-8700000D01*
X47200000Y-8700000D02*
X42600000Y-8700000D01*
%TO.C,C3*%
X30500000Y-27975000D02*
X32500000Y-27975000D01*
X30500000Y-29225000D02*
X30500000Y-27975000D01*
X32500000Y-27975000D02*
X32500000Y-29225000D01*
X32500000Y-29225000D02*
X30500000Y-29225000D01*
%TO.C,J1*%
X2730000Y-2965000D02*
X3365000Y-2330000D01*
X2730000Y-32810000D02*
X2730000Y-2965000D01*
X3365000Y-2330000D02*
X5270000Y-2330000D01*
X5270000Y-2330000D02*
X5270000Y-32810000D01*
X5270000Y-32810000D02*
X2730000Y-32810000D01*
%TO.C,C7*%
X30225000Y-24500000D02*
X30225000Y-26500000D01*
X28975000Y-24500000D02*
X30225000Y-24500000D01*
X30225000Y-26500000D02*
X28975000Y-26500000D01*
X28975000Y-26500000D02*
X28975000Y-24500000D01*
%TO.C,R6*%
X8400000Y-18427500D02*
X10000000Y-18427500D01*
X8400000Y-19252500D02*
X8400000Y-18427500D01*
X10000000Y-18427500D02*
X10000000Y-19252500D01*
X10000000Y-19252500D02*
X8400000Y-19252500D01*
%TO.C,R9*%
X18200000Y-29087500D02*
X19800000Y-29087500D01*
X18200000Y-29912500D02*
X18200000Y-29087500D01*
X19800000Y-29087500D02*
X19800000Y-29912500D01*
X19800000Y-29912500D02*
X18200000Y-29912500D01*
%TO.C,F1*%
X19222500Y-1940000D02*
X26577500Y-1940000D01*
X19222500Y-7060000D02*
X19222500Y-1940000D01*
X26577500Y-1940000D02*
X26577500Y-7060000D01*
X26577500Y-7060000D02*
X19222500Y-7060000D01*
%TO.C,C1*%
X39850000Y-1700000D02*
X35250000Y-1700000D01*
X39850000Y-1700000D02*
X40850000Y-2700000D01*
X35250000Y-1700000D02*
X34250000Y-2700000D01*
X38880000Y-2295162D02*
X38880000Y-2925162D01*
X39195000Y-2610162D02*
X38565000Y-2610162D01*
X40850000Y-2700000D02*
X40850000Y-8300000D01*
X34250000Y-2700000D02*
X34250000Y-8300000D01*
X40850000Y-8300000D02*
X34250000Y-8300000D01*
X40700000Y-5000000D02*
G75*
G03*
X34400000Y-5000000I-3150000J0D01*
G01*
X34400000Y-5000000D02*
G75*
G03*
X40700000Y-5000000I3150000J0D01*
G01*
%TO.C,C9*%
X18000000Y-20700000D02*
X18000000Y-22300000D01*
X17200000Y-20700000D02*
X18000000Y-20700000D01*
X18000000Y-22300000D02*
X17200000Y-22300000D01*
X17200000Y-22300000D02*
X17200000Y-20700000D01*
%TO.C,R5*%
X6550000Y-28587500D02*
X8150000Y-28587500D01*
X6550000Y-29412500D02*
X6550000Y-28587500D01*
X8150000Y-28587500D02*
X8150000Y-29412500D01*
X8150000Y-29412500D02*
X6550000Y-29412500D01*
%TO.C,R2*%
X6550000Y-15887500D02*
X8150000Y-15887500D01*
X6550000Y-16712500D02*
X6550000Y-15887500D01*
X8150000Y-15887500D02*
X8150000Y-16712500D01*
X8150000Y-16712500D02*
X6550000Y-16712500D01*
%TO.C,R1*%
X19100000Y-17337500D02*
X20700000Y-17337500D01*
X19100000Y-18162500D02*
X19100000Y-17337500D01*
X20700000Y-17337500D02*
X20700000Y-18162500D01*
X20700000Y-18162500D02*
X19100000Y-18162500D01*
%TO.C,Q1*%
X30150000Y-5625000D02*
X29825000Y-5950000D01*
X30150000Y-3050000D02*
X30150000Y-5625000D01*
X29825000Y-5950000D02*
X28850000Y-5950000D01*
X28850000Y-5950000D02*
X28850000Y-3050000D01*
X28850000Y-3050000D02*
X30150000Y-3050000D01*
%TD*%
M02*
