%TF.GenerationSoftware,KiCad,Pcbnew,7.0.11+dfsg-1build4*%
%TF.CreationDate,2026-07-02T10:23:20+00:00*%
%TF.ProjectId,tmc5240-daughterboard-compact,746d6335-3234-4302-9d64-617567687465,rev?*%
%TF.SameCoordinates,Original*%
%TF.FileFunction,Copper,L1,Top*%
%TF.FilePolarity,Positive*%
%FSLAX46Y46*%
G04 Gerber Fmt 4.6, Leading zero omitted, Abs format (unit mm)*
G04 Created by KiCad (PCBNEW 7.0.11+dfsg-1build4) date 2026-07-02 10:23:20*
%MOMM*%
%LPD*%
G01*
G04 APERTURE LIST*
G04 Aperture macros list*
%AMRoundRect*
0 Rectangle with rounded corners*
0 $1 Rounding radius*
0 $2 $3 $4 $5 $6 $7 $8 $9 X,Y pos of 4 corners*
0 Add a 4 corners polygon primitive as box body*
4,1,4,$2,$3,$4,$5,$6,$7,$8,$9,$2,$3,0*
0 Add four circle primitives for the rounded corners*
1,1,$1+$1,$2,$3*
1,1,$1+$1,$4,$5*
1,1,$1+$1,$6,$7*
1,1,$1+$1,$8,$9*
0 Add four rect primitives between the rounded corners*
20,1,$1+$1,$2,$3,$4,$5,0*
20,1,$1+$1,$4,$5,$6,$7,0*
20,1,$1+$1,$6,$7,$8,$9,0*
20,1,$1+$1,$8,$9,$2,$3,0*%
%AMFreePoly0*
4,1,14,0.340806,0.106694,0.394194,0.053306,0.412500,0.009112,0.412500,-0.062500,0.394194,-0.106694,0.350000,-0.125000,-0.350000,-0.125000,-0.394194,-0.106694,-0.412500,-0.062500,-0.412500,0.062500,-0.394194,0.106694,-0.350000,0.125000,0.296612,0.125000,0.340806,0.106694,0.340806,0.106694,$1*%
%AMFreePoly1*
4,1,14,0.394194,0.106694,0.412500,0.062500,0.412500,-0.009112,0.394194,-0.053306,0.340806,-0.106694,0.296612,-0.125000,-0.350000,-0.125000,-0.394194,-0.106694,-0.412500,-0.062500,-0.412500,0.062500,-0.394194,0.106694,-0.350000,0.125000,0.350000,0.125000,0.394194,0.106694,0.394194,0.106694,$1*%
%AMFreePoly2*
4,1,14,0.106694,0.394194,0.125000,0.350000,0.125000,-0.350000,0.106694,-0.394194,0.062500,-0.412500,-0.062500,-0.412500,-0.106694,-0.394194,-0.125000,-0.350000,-0.125000,0.296612,-0.106694,0.340806,-0.053306,0.394194,-0.009112,0.412500,0.062500,0.412500,0.106694,0.394194,0.106694,0.394194,$1*%
%AMFreePoly3*
4,1,14,0.053306,0.394194,0.106694,0.340806,0.125000,0.296612,0.125000,-0.350000,0.106694,-0.394194,0.062500,-0.412500,-0.062500,-0.412500,-0.106694,-0.394194,-0.125000,-0.350000,-0.125000,0.350000,-0.106694,0.394194,-0.062500,0.412500,0.009112,0.412500,0.053306,0.394194,0.053306,0.394194,$1*%
%AMFreePoly4*
4,1,14,0.394194,0.106694,0.412500,0.062500,0.412500,-0.062500,0.394194,-0.106694,0.350000,-0.125000,-0.296612,-0.125000,-0.340806,-0.106694,-0.394194,-0.053306,-0.412500,-0.009112,-0.412500,0.062500,-0.394194,0.106694,-0.350000,0.125000,0.350000,0.125000,0.394194,0.106694,0.394194,0.106694,$1*%
%AMFreePoly5*
4,1,14,0.394194,0.106694,0.412500,0.062500,0.412500,-0.062500,0.394194,-0.106694,0.350000,-0.125000,-0.350000,-0.125000,-0.394194,-0.106694,-0.412500,-0.062500,-0.412500,0.009112,-0.394194,0.053306,-0.340806,0.106694,-0.296612,0.125000,0.350000,0.125000,0.394194,0.106694,0.394194,0.106694,$1*%
%AMFreePoly6*
4,1,14,0.106694,0.394194,0.125000,0.350000,0.125000,-0.296612,0.106694,-0.340806,0.053306,-0.394194,0.009112,-0.412500,-0.062500,-0.412500,-0.106694,-0.394194,-0.125000,-0.350000,-0.125000,0.350000,-0.106694,0.394194,-0.062500,0.412500,0.062500,0.412500,0.106694,0.394194,0.106694,0.394194,$1*%
%AMFreePoly7*
4,1,14,0.106694,0.394194,0.125000,0.350000,0.125000,-0.350000,0.106694,-0.394194,0.062500,-0.412500,-0.009112,-0.412500,-0.053306,-0.394194,-0.106694,-0.340806,-0.125000,-0.296612,-0.125000,0.350000,-0.106694,0.394194,-0.062500,0.412500,0.062500,0.412500,0.106694,0.394194,0.106694,0.394194,$1*%
G04 Aperture macros list end*
%TA.AperFunction,SMDPad,CuDef*%
%ADD10RoundRect,0.225000X-0.375000X0.225000X-0.375000X-0.225000X0.375000X-0.225000X0.375000X0.225000X0*%
%TD*%
%TA.AperFunction,SMDPad,CuDef*%
%ADD11R,1.000000X1.500000*%
%TD*%
%TA.AperFunction,SMDPad,CuDef*%
%ADD12FreePoly0,0.000000*%
%TD*%
%TA.AperFunction,SMDPad,CuDef*%
%ADD13RoundRect,0.062500X-0.350000X-0.062500X0.350000X-0.062500X0.350000X0.062500X-0.350000X0.062500X0*%
%TD*%
%TA.AperFunction,SMDPad,CuDef*%
%ADD14FreePoly1,0.000000*%
%TD*%
%TA.AperFunction,SMDPad,CuDef*%
%ADD15FreePoly2,0.000000*%
%TD*%
%TA.AperFunction,SMDPad,CuDef*%
%ADD16RoundRect,0.062500X-0.062500X-0.350000X0.062500X-0.350000X0.062500X0.350000X-0.062500X0.350000X0*%
%TD*%
%TA.AperFunction,SMDPad,CuDef*%
%ADD17FreePoly3,0.000000*%
%TD*%
%TA.AperFunction,SMDPad,CuDef*%
%ADD18FreePoly4,0.000000*%
%TD*%
%TA.AperFunction,SMDPad,CuDef*%
%ADD19FreePoly5,0.000000*%
%TD*%
%TA.AperFunction,SMDPad,CuDef*%
%ADD20FreePoly6,0.000000*%
%TD*%
%TA.AperFunction,SMDPad,CuDef*%
%ADD21FreePoly7,0.000000*%
%TD*%
%TA.AperFunction,HeatsinkPad*%
%ADD22C,0.500000*%
%TD*%
%TA.AperFunction,HeatsinkPad*%
%ADD23R,3.400000X3.400000*%
%TD*%
%TA.AperFunction,SMDPad,CuDef*%
%ADD24RoundRect,0.250000X-0.250000X-0.475000X0.250000X-0.475000X0.250000X0.475000X-0.250000X0.475000X0*%
%TD*%
%TA.AperFunction,SMDPad,CuDef*%
%ADD25RoundRect,0.225000X-0.225000X-0.250000X0.225000X-0.250000X0.225000X0.250000X-0.225000X0.250000X0*%
%TD*%
%TA.AperFunction,ComponentPad*%
%ADD26R,3.000000X3.000000*%
%TD*%
%TA.AperFunction,ComponentPad*%
%ADD27C,3.000000*%
%TD*%
%TA.AperFunction,SMDPad,CuDef*%
%ADD28RoundRect,0.200000X-0.200000X-0.275000X0.200000X-0.275000X0.200000X0.275000X-0.200000X0.275000X0*%
%TD*%
%TA.AperFunction,ComponentPad*%
%ADD29C,3.800000*%
%TD*%
%TA.AperFunction,ComponentPad*%
%ADD30R,1.700000X1.700000*%
%TD*%
%TA.AperFunction,ComponentPad*%
%ADD31O,1.700000X1.700000*%
%TD*%
%TA.AperFunction,SMDPad,CuDef*%
%ADD32RoundRect,0.200000X-0.275000X0.200000X-0.275000X-0.200000X0.275000X-0.200000X0.275000X0.200000X0*%
%TD*%
%TA.AperFunction,SMDPad,CuDef*%
%ADD33RoundRect,0.250000X-1.000000X-0.900000X1.000000X-0.900000X1.000000X0.900000X-1.000000X0.900000X0*%
%TD*%
%TA.AperFunction,SMDPad,CuDef*%
%ADD34RoundRect,0.250000X-0.475000X0.250000X-0.475000X-0.250000X0.475000X-0.250000X0.475000X0.250000X0*%
%TD*%
%TA.AperFunction,SMDPad,CuDef*%
%ADD35RoundRect,0.250000X-0.712500X-2.475000X0.712500X-2.475000X0.712500X2.475000X-0.712500X2.475000X0*%
%TD*%
%TA.AperFunction,SMDPad,CuDef*%
%ADD36RoundRect,0.250000X-0.550000X1.500000X-0.550000X-1.500000X0.550000X-1.500000X0.550000X1.500000X0*%
%TD*%
%TA.AperFunction,SMDPad,CuDef*%
%ADD37RoundRect,0.225000X-0.250000X0.225000X-0.250000X-0.225000X0.250000X-0.225000X0.250000X0.225000X0*%
%TD*%
%TA.AperFunction,SMDPad,CuDef*%
%ADD38RoundRect,0.150000X0.587500X0.150000X-0.587500X0.150000X-0.587500X-0.150000X0.587500X-0.150000X0*%
%TD*%
%TA.AperFunction,ViaPad*%
%ADD39C,0.600000*%
%TD*%
%TA.AperFunction,ViaPad*%
%ADD40C,0.400000*%
%TD*%
%TA.AperFunction,Conductor*%
%ADD41C,2.000000*%
%TD*%
%TA.AperFunction,Conductor*%
%ADD42C,0.250000*%
%TD*%
%TA.AperFunction,Conductor*%
%ADD43C,1.500000*%
%TD*%
%TA.AperFunction,Conductor*%
%ADD44C,1.000000*%
%TD*%
%TA.AperFunction,Conductor*%
%ADD45C,0.400000*%
%TD*%
%TA.AperFunction,Conductor*%
%ADD46C,1.200000*%
%TD*%
%TA.AperFunction,Conductor*%
%ADD47C,0.500000*%
%TD*%
%TA.AperFunction,Conductor*%
%ADD48C,0.300000*%
%TD*%
%TA.AperFunction,Conductor*%
%ADD49C,0.200000*%
%TD*%
G04 APERTURE END LIST*
%TA.AperFunction,EtchedComponent*%
%TO.C,SJ1*%
G36*
X22100000Y-27200000D02*
G01*
X21600000Y-27200000D01*
X21600000Y-26600000D01*
X22100000Y-26600000D01*
X22100000Y-27200000D01*
G37*
%TD.AperFunction*%
%TD*%
D10*
%TO.P,D2,1*%
%TO.N,VS*%
X32750000Y-5350000D03*
%TO.P,D2,2*%
%TO.N,Q1_G*%
X32750000Y-8650000D03*
%TD*%
D11*
%TO.P,SJ1,1*%
%TO.N,GND*%
X21200000Y-26900000D03*
%TO.P,SJ1,2*%
%TO.N,UART_EN*%
X22500000Y-26900000D03*
%TO.P,SJ1,3*%
%TO.N,3V3*%
X23800000Y-26900000D03*
%TD*%
D12*
%TO.P,U1,1*%
%TO.N,IREF*%
X22562500Y-17750000D03*
D13*
%TO.P,U1,2*%
%TO.N,GND*%
X22562500Y-18250000D03*
%TO.P,U1,3*%
%TO.N,VDD1V8*%
X22562500Y-18750000D03*
%TO.P,U1,4*%
%TO.N,GND*%
X22562500Y-19250000D03*
%TO.P,U1,5*%
%TO.N,3V3*%
X22562500Y-19750000D03*
%TO.P,U1,6*%
%TO.N,ENCN*%
X22562500Y-20250000D03*
%TO.P,U1,7*%
%TO.N,ENCB*%
X22562500Y-20750000D03*
D14*
%TO.P,U1,8*%
%TO.N,ENCA*%
X22562500Y-21250000D03*
D15*
%TO.P,U1,9*%
%TO.N,ENN*%
X23250000Y-21937500D03*
D16*
%TO.P,U1,10*%
%TO.N,UART_EN*%
X23750000Y-21937500D03*
%TO.P,U1,11*%
%TO.N,DIAG0*%
X24250000Y-21937500D03*
%TO.P,U1,12*%
%TO.N,DIAG1*%
X24750000Y-21937500D03*
%TO.P,U1,13*%
%TO.N,N/C*%
X25250000Y-21937500D03*
%TO.P,U1,14*%
%TO.N,CPI*%
X25750000Y-21937500D03*
%TO.P,U1,15*%
%TO.N,CPO*%
X26250000Y-21937500D03*
D17*
%TO.P,U1,16*%
%TO.N,VCP*%
X26750000Y-21937500D03*
D18*
%TO.P,U1,17*%
%TO.N,VS*%
X27437500Y-21250000D03*
D13*
%TO.P,U1,18*%
%TO.N,OUT1B*%
X27437500Y-20750000D03*
%TO.P,U1,19*%
%TO.N,OUT2B*%
X27437500Y-20250000D03*
%TO.P,U1,20*%
%TO.N,VS*%
X27437500Y-19750000D03*
%TO.P,U1,21*%
X27437500Y-19250000D03*
%TO.P,U1,22*%
%TO.N,OUT2A*%
X27437500Y-18750000D03*
%TO.P,U1,23*%
%TO.N,OUT1A*%
X27437500Y-18250000D03*
D19*
%TO.P,U1,24*%
%TO.N,VS*%
X27437500Y-17750000D03*
D20*
%TO.P,U1,25*%
%TO.N,3V3*%
X26750000Y-17062500D03*
D16*
%TO.P,U1,26*%
%TO.N,CSN*%
X26250000Y-17062500D03*
%TO.P,U1,27*%
%TO.N,SCK*%
X25750000Y-17062500D03*
%TO.P,U1,28*%
%TO.N,SDI*%
X25250000Y-17062500D03*
%TO.P,U1,29*%
%TO.N,SDO*%
X24750000Y-17062500D03*
%TO.P,U1,30*%
%TO.N,GND*%
X24250000Y-17062500D03*
%TO.P,U1,31*%
%TO.N,REFL*%
X23750000Y-17062500D03*
D21*
%TO.P,U1,32*%
%TO.N,REFR*%
X23250000Y-17062500D03*
D22*
%TO.P,U1,33*%
%TO.N,GND*%
X23550000Y-18050000D03*
X23550000Y-19500000D03*
X23550000Y-20950000D03*
X25000000Y-18050000D03*
X25000000Y-19500000D03*
D23*
X25000000Y-19500000D03*
D22*
X25000000Y-20950000D03*
X26450000Y-18050000D03*
X26450000Y-19500000D03*
X26450000Y-20950000D03*
%TD*%
D24*
%TO.P,C2,1*%
%TO.N,VS*%
X37350000Y-11500000D03*
%TO.P,C2,2*%
%TO.N,GND*%
X39250000Y-11500000D03*
%TD*%
D25*
%TO.P,C6,1*%
%TO.N,CPI*%
X25825000Y-25400000D03*
%TO.P,C6,2*%
%TO.N,CPO*%
X27375000Y-25400000D03*
%TD*%
D26*
%TO.P,J3,1*%
%TO.N,OUT1A*%
X45500000Y-12000000D03*
D27*
%TO.P,J3,2*%
%TO.N,OUT2A*%
X45500000Y-17080000D03*
%TO.P,J3,3*%
%TO.N,OUT2B*%
X45500000Y-22160000D03*
%TO.P,J3,4*%
%TO.N,OUT1B*%
X45500000Y-27240000D03*
%TD*%
D28*
%TO.P,R4,1*%
%TO.N,DIAG0*%
X6525000Y-26460000D03*
%TO.P,R4,2*%
%TO.N,3V3*%
X8175000Y-26460000D03*
%TD*%
D25*
%TO.P,C4,1*%
%TO.N,VS*%
X33225000Y-11500000D03*
%TO.P,C4,2*%
%TO.N,GND*%
X34775000Y-11500000D03*
%TD*%
D29*
%TO.P,H2,1*%
%TO.N,GND*%
X11500000Y-33600000D03*
%TD*%
D25*
%TO.P,C8,1*%
%TO.N,GND*%
X15825000Y-18750000D03*
%TO.P,C8,2*%
%TO.N,VDD1V8*%
X17375000Y-18750000D03*
%TD*%
D28*
%TO.P,R3,1*%
%TO.N,ENN*%
X7675000Y-23920000D03*
%TO.P,R3,2*%
%TO.N,3V3*%
X9325000Y-23920000D03*
%TD*%
D25*
%TO.P,C5,1*%
%TO.N,VS*%
X34725000Y-28600000D03*
%TO.P,C5,2*%
%TO.N,GND*%
X36275000Y-28600000D03*
%TD*%
D30*
%TO.P,J4,1*%
%TO.N,3V3*%
X17000000Y-33000000D03*
D31*
%TO.P,J4,2*%
%TO.N,ENCA*%
X19540000Y-33000000D03*
%TO.P,J4,3*%
%TO.N,ENCB*%
X22080000Y-33000000D03*
%TO.P,J4,4*%
%TO.N,ENCN*%
X24620000Y-33000000D03*
%TO.P,J4,5*%
%TO.N,GND*%
X27160000Y-33000000D03*
%TD*%
D26*
%TO.P,J2,1*%
%TO.N,+24V_IN*%
X9300000Y-4500000D03*
D27*
%TO.P,J2,2*%
%TO.N,GND*%
X14380000Y-4500000D03*
%TD*%
D29*
%TO.P,H1,1*%
%TO.N,GND*%
X47300000Y-33299999D03*
%TD*%
D32*
%TO.P,R8,1*%
%TO.N,Q1_G*%
X30100000Y-9075000D03*
%TO.P,R8,2*%
%TO.N,GND*%
X30100000Y-10725000D03*
%TD*%
D28*
%TO.P,R11,1*%
%TO.N,GND*%
X24775000Y-29500000D03*
%TO.P,R11,2*%
%TO.N,ENCN*%
X26425000Y-29500000D03*
%TD*%
%TO.P,R7,1*%
%TO.N,REFR*%
X8375000Y-21380000D03*
%TO.P,R7,2*%
%TO.N,GND*%
X10025000Y-21380000D03*
%TD*%
%TO.P,R10,1*%
%TO.N,GND*%
X21475000Y-29500000D03*
%TO.P,R10,2*%
%TO.N,ENCB*%
X23125000Y-29500000D03*
%TD*%
D33*
%TO.P,D1,1*%
%TO.N,VS*%
X42750000Y-6700000D03*
%TO.P,D1,2*%
%TO.N,GND*%
X47050000Y-6700000D03*
%TD*%
D24*
%TO.P,C3,1*%
%TO.N,VS*%
X30550000Y-28600000D03*
%TO.P,C3,2*%
%TO.N,GND*%
X32450000Y-28600000D03*
%TD*%
D30*
%TO.P,J1,1*%
%TO.N,GND*%
X4000000Y-3600000D03*
D31*
%TO.P,J1,2*%
%TO.N,3V3*%
X4000000Y-6140000D03*
%TO.P,J1,3*%
%TO.N,SCK*%
X4000000Y-8680000D03*
%TO.P,J1,4*%
%TO.N,SDI*%
X4000000Y-11220000D03*
%TO.P,J1,5*%
%TO.N,SDO*%
X4000000Y-13760000D03*
%TO.P,J1,6*%
%TO.N,CSN*%
X4000000Y-16300000D03*
%TO.P,J1,7*%
%TO.N,REFL*%
X4000000Y-18840000D03*
%TO.P,J1,8*%
%TO.N,REFR*%
X4000000Y-21380000D03*
%TO.P,J1,9*%
%TO.N,ENN*%
X4000000Y-23920000D03*
%TO.P,J1,10*%
%TO.N,DIAG0*%
X4000000Y-26460000D03*
%TO.P,J1,11*%
%TO.N,DIAG1*%
X4000000Y-29000000D03*
%TO.P,J1,12*%
%TO.N,GND*%
X4000000Y-31540000D03*
%TD*%
D34*
%TO.P,C7,1*%
%TO.N,VCP*%
X29600000Y-24550000D03*
%TO.P,C7,2*%
%TO.N,VS*%
X29600000Y-26450000D03*
%TD*%
D28*
%TO.P,R6,1*%
%TO.N,REFL*%
X8375000Y-18840000D03*
%TO.P,R6,2*%
%TO.N,GND*%
X10025000Y-18840000D03*
%TD*%
%TO.P,R9,1*%
%TO.N,GND*%
X18175000Y-29500000D03*
%TO.P,R9,2*%
%TO.N,ENCA*%
X19825000Y-29500000D03*
%TD*%
D35*
%TO.P,F1,1*%
%TO.N,+24V_IN*%
X19512500Y-4500000D03*
%TO.P,F1,2*%
%TO.N,24V_F*%
X26287500Y-4500000D03*
%TD*%
D36*
%TO.P,C1,1*%
%TO.N,VS*%
X37550000Y-2300000D03*
%TO.P,C1,2*%
%TO.N,GND*%
X37550000Y-7700000D03*
%TD*%
D37*
%TO.P,C9,1*%
%TO.N,3V3*%
X17600000Y-20725000D03*
%TO.P,C9,2*%
%TO.N,GND*%
X17600000Y-22275000D03*
%TD*%
D28*
%TO.P,R5,1*%
%TO.N,DIAG1*%
X6525000Y-29000000D03*
%TO.P,R5,2*%
%TO.N,3V3*%
X8175000Y-29000000D03*
%TD*%
%TO.P,R2,1*%
%TO.N,CSN*%
X6525000Y-16300000D03*
%TO.P,R2,2*%
%TO.N,3V3*%
X8175000Y-16300000D03*
%TD*%
%TO.P,R1,1*%
%TO.N,GND*%
X19075000Y-17750000D03*
%TO.P,R1,2*%
%TO.N,IREF*%
X20725000Y-17750000D03*
%TD*%
D38*
%TO.P,Q1,1*%
%TO.N,Q1_G*%
X30437500Y-5450000D03*
%TO.P,Q1,2*%
%TO.N,VS*%
X30437500Y-3550000D03*
%TO.P,Q1,3*%
%TO.N,24V_F*%
X28562500Y-4500000D03*
%TD*%
D39*
%TO.N,VS*%
X29900000Y-28600000D03*
X34000000Y-28600000D03*
X29600000Y-27300000D03*
X32400000Y-11500000D03*
X42700000Y-5500000D03*
X43500000Y-5500000D03*
X32100000Y-3550000D03*
X31400000Y-3550000D03*
X36350000Y-3150000D03*
X36500000Y-11500000D03*
X31300000Y-19400000D03*
X28900000Y-21900000D03*
X30500000Y-19500000D03*
X28900000Y-16600000D03*
X36350000Y-2350000D03*
X29700000Y-21900000D03*
%TO.N,GND*%
X36350000Y-8450000D03*
X37200000Y-28600000D03*
X10900000Y-18840000D03*
X17400000Y-29500000D03*
X17600000Y-23250000D03*
D40*
X21900000Y-18250000D03*
X21300000Y-19250000D03*
D39*
X15000000Y-18750000D03*
X22600000Y-28600000D03*
X18350000Y-17750000D03*
X35700000Y-11500000D03*
X33100000Y-28600000D03*
X47900000Y-5500000D03*
X24825000Y-28600000D03*
X36350000Y-7650000D03*
X10900000Y-21380000D03*
X30100000Y-11600000D03*
X19400000Y-26900000D03*
X40100000Y-11500000D03*
D40*
X24250000Y-14800000D03*
D39*
X47100000Y-5500000D03*
%TO.N,3V3*%
X8700000Y-17200000D03*
X8500000Y-25850000D03*
X20000000Y-11900000D03*
X8500000Y-28400000D03*
X17600000Y-19750000D03*
X24400000Y-26450000D03*
X10300000Y-23920000D03*
D40*
%TO.N,CSN*%
X26250000Y-12600000D03*
D39*
%TO.N,DIAG0*%
X11000000Y-25850000D03*
%TO.N,DIAG1*%
X12600000Y-26350000D03*
%TO.N,REFL*%
X6600000Y-15300000D03*
%TO.N,REFR*%
X9400000Y-16000000D03*
D40*
%TO.N,ENCA*%
X20400000Y-21250000D03*
%TO.N,ENCB*%
X21000000Y-20750000D03*
%TO.N,ENCN*%
X21600000Y-20250000D03*
%TO.N,UART_EN*%
X23750000Y-22800000D03*
D39*
X22500000Y-26350000D03*
%TD*%
D41*
%TO.N,+24V_IN*%
X10500000Y-7600000D02*
X17200000Y-7600000D01*
X9300000Y-4500000D02*
X9300000Y-6399999D01*
X18400000Y-6399999D02*
X18400000Y-5491112D01*
X18400000Y-5491112D02*
X18956249Y-4700000D01*
X18956249Y-4700000D02*
X19512500Y-4500000D01*
X17200000Y-7600000D02*
X18400000Y-6399999D01*
X9300000Y-6399999D02*
X10500000Y-7600000D01*
%TO.N,24V_F*%
X26287500Y-4500000D02*
X28562500Y-4500000D01*
D42*
%TO.N,VS*%
X27437500Y-21250000D02*
X28534475Y-21737544D01*
D43*
X36350000Y-2750000D02*
X36350000Y-3150000D01*
D44*
X42716652Y-5899653D02*
X43100000Y-5500000D01*
D43*
X36749653Y-2333347D02*
X36350000Y-2750000D01*
D45*
X34725000Y-28600000D02*
X34000000Y-28600000D01*
D46*
X30437500Y-3550000D02*
X32750000Y-3550000D01*
D42*
X27437500Y-19250000D02*
X28300000Y-19250000D01*
D47*
X28300000Y-19500000D02*
X30500000Y-19500000D01*
X30500000Y-19500000D02*
X31300000Y-19400000D01*
D45*
X37350000Y-11500000D02*
X36500000Y-11500000D01*
D47*
X29600000Y-26450000D02*
X29600000Y-27300000D01*
D45*
X33225000Y-11500000D02*
X32400000Y-11500000D01*
D42*
X27437500Y-19750000D02*
X28300000Y-19750000D01*
D47*
X32750000Y-5350000D02*
X32750000Y-3550000D01*
D42*
X27437500Y-17750000D02*
X28900000Y-16600000D01*
D44*
X42750000Y-6700000D02*
X42716652Y-5899653D01*
D42*
X28534475Y-21737544D02*
X29299999Y-21900000D01*
D44*
X43100000Y-5500000D02*
X43500000Y-5500000D01*
D45*
X30550000Y-28600000D02*
X29900000Y-28600000D01*
D42*
X29299999Y-21900000D02*
X29700000Y-21900000D01*
D43*
X37550000Y-2300000D02*
X36749653Y-2333347D01*
D42*
X28300000Y-19250000D02*
X28300000Y-19750000D01*
%TO.N,GND*%
X22515094Y-28852830D02*
X22600000Y-28700000D01*
D44*
X47050000Y-6700000D02*
X47083347Y-5899653D01*
D42*
X21475000Y-29500000D02*
X22515094Y-28852830D01*
D44*
X47083347Y-5899653D02*
X47500000Y-5500000D01*
D43*
X37550000Y-7700000D02*
X36749653Y-7666652D01*
D42*
X18175000Y-29500000D02*
X17400000Y-29500000D01*
X15825000Y-18750000D02*
X15000000Y-18750000D01*
D45*
X32450000Y-28600000D02*
X33100000Y-28600000D01*
D44*
X47500000Y-5500000D02*
X47900000Y-5500000D01*
D45*
X36275000Y-28600000D02*
X37200000Y-28600000D01*
X39250000Y-11500000D02*
X40100000Y-11500000D01*
X34775000Y-11500000D02*
X35700000Y-11500000D01*
D48*
X17600000Y-22275000D02*
X17600000Y-23250000D01*
D42*
X24775000Y-29500000D02*
X24825000Y-28600000D01*
X10025000Y-21380000D02*
X10900000Y-21380000D01*
X19075000Y-17750000D02*
X18350000Y-17750000D01*
D49*
X24250000Y-17062500D02*
X24250000Y-14800000D01*
D42*
X10025000Y-18840000D02*
X10900000Y-18840000D01*
X21200000Y-26900000D02*
X19400000Y-26900000D01*
D49*
X22562500Y-19250000D02*
X21300000Y-19250000D01*
D48*
X30100000Y-10725000D02*
X30100000Y-11600000D01*
D43*
X36749653Y-7666652D02*
X36350000Y-8050000D01*
X36350000Y-8050000D02*
X36350000Y-8450000D01*
D49*
X22562500Y-18250000D02*
X21900000Y-18250000D01*
D42*
X22600000Y-28700000D02*
X22600000Y-28600000D01*
%TO.N,3V3*%
X26450000Y-11900000D02*
X20000000Y-11900000D01*
X23800000Y-26900000D02*
X24400000Y-26450000D01*
D48*
X17600000Y-20725000D02*
X17600000Y-19750000D01*
D42*
X26750000Y-17062500D02*
X26750000Y-12200000D01*
X9325000Y-23920000D02*
X10300000Y-23920000D01*
X26750000Y-12200000D02*
X26450000Y-11900000D01*
D48*
X22562500Y-19750000D02*
X17600000Y-19750000D01*
D42*
X8529167Y-16603571D02*
X8700000Y-16975000D01*
X8175000Y-26460000D02*
X8337500Y-26460000D01*
X8337500Y-26460000D02*
X8500000Y-26297500D01*
X8175000Y-16300000D02*
X8529167Y-16603571D01*
X8337500Y-29000000D02*
X8500000Y-28837500D01*
X8175000Y-29000000D02*
X8337500Y-29000000D01*
X8700000Y-16975000D02*
X8700000Y-17200000D01*
X8500000Y-26297500D02*
X8500000Y-25850000D01*
X8500000Y-28837500D02*
X8500000Y-28400000D01*
D48*
%TO.N,Q1_G*%
X31424835Y-9075000D02*
X32325000Y-8862500D01*
X32325000Y-8862500D02*
X32750000Y-8650000D01*
X30437500Y-5450000D02*
X30100000Y-9075000D01*
X30100000Y-9075000D02*
X31424835Y-9075000D01*
D42*
%TO.N,SCK*%
X25750000Y-13700000D02*
X25150000Y-13100000D01*
X25750000Y-17062500D02*
X25750000Y-13700000D01*
X9500000Y-12500000D02*
X9500000Y-9280000D01*
X9500000Y-9280000D02*
X8900000Y-8680000D01*
X10100000Y-13100000D02*
X9500000Y-12500000D01*
X8900000Y-8680000D02*
X4000000Y-8680000D01*
X25150000Y-13100000D02*
X10100000Y-13100000D01*
%TO.N,SDI*%
X25250000Y-14200000D02*
X24650000Y-13600000D01*
X8100000Y-11220000D02*
X4000000Y-11220000D01*
X8700000Y-11820000D02*
X8100000Y-11220000D01*
X8700000Y-13000000D02*
X8700000Y-11820000D01*
X25250000Y-17062500D02*
X25250000Y-14200000D01*
X24650000Y-13600000D02*
X9299999Y-13600000D01*
X9299999Y-13600000D02*
X8700000Y-13000000D01*
%TO.N,SDO*%
X7815000Y-13760000D02*
X4000000Y-13760000D01*
X24750000Y-17062500D02*
X24750000Y-14400000D01*
X7900000Y-13844999D02*
X7815000Y-13760000D01*
X7900000Y-13930000D02*
X7900000Y-13844999D01*
X24750000Y-14400000D02*
X24450000Y-14100000D01*
X8070000Y-14100000D02*
X7900000Y-13930000D01*
X24450000Y-14100000D02*
X8070000Y-14100000D01*
%TO.N,CSN*%
X26250000Y-17062500D02*
X26250000Y-12600000D01*
X6525000Y-16300000D02*
X4000000Y-16300000D01*
%TO.N,ENN*%
X22650000Y-24750000D02*
X6714999Y-24750000D01*
X6092500Y-23920000D02*
X4000000Y-23920000D01*
X23250000Y-21937500D02*
X23250000Y-24150000D01*
X6300000Y-24335000D02*
X6300000Y-24127500D01*
X7675000Y-23920000D02*
X6300000Y-23920000D01*
X6300000Y-24127500D02*
X6092500Y-23920000D01*
X6714999Y-24750000D02*
X6300000Y-24335000D01*
X23250000Y-24150000D02*
X22650000Y-24750000D01*
%TO.N,DIAG0*%
X24250000Y-24650000D02*
X23650000Y-25250000D01*
X12024264Y-25250000D02*
X11300000Y-25550000D01*
X23650000Y-25250000D02*
X12024264Y-25250000D01*
X24250000Y-21937500D02*
X24250000Y-24650000D01*
X11300000Y-25550000D02*
X11000000Y-25850000D01*
X6525000Y-26460000D02*
X4000000Y-26460000D01*
%TO.N,DIAG1*%
X13624264Y-25750000D02*
X12899999Y-26050000D01*
X24750000Y-21937500D02*
X24750000Y-25150000D01*
X6525000Y-29000000D02*
X4000000Y-29000000D01*
X24750000Y-25150000D02*
X24150000Y-25750000D01*
X24150000Y-25750000D02*
X13624264Y-25750000D01*
X12899999Y-26050000D02*
X12600000Y-26350000D01*
%TO.N,REFL*%
X23150000Y-15300000D02*
X6600000Y-15300000D01*
X8375000Y-18840000D02*
X4000000Y-18840000D01*
X23750000Y-15900000D02*
X23150000Y-15300000D01*
X23750000Y-17062500D02*
X23750000Y-15900000D01*
%TO.N,REFR*%
X22718750Y-16000000D02*
X9400000Y-16000000D01*
X23250000Y-17062500D02*
X23250000Y-16531250D01*
X23250000Y-16531250D02*
X22718750Y-16000000D01*
X8375000Y-21380000D02*
X4000000Y-21380000D01*
%TO.N,ENCA*%
X19825000Y-29500000D02*
X19540000Y-33000000D01*
D49*
X22562500Y-21250000D02*
X20400000Y-21250000D01*
%TO.N,ENCB*%
X22562500Y-20750000D02*
X21000000Y-20750000D01*
D42*
X23125000Y-29500000D02*
X22080000Y-33000000D01*
D49*
%TO.N,ENCN*%
X22562500Y-20250000D02*
X21600000Y-20250000D01*
D42*
X26425000Y-29500000D02*
X24620000Y-33000000D01*
%TO.N,UART_EN*%
X22500000Y-26350000D02*
X22500000Y-26900000D01*
D49*
X23750000Y-21937500D02*
X23750000Y-22800000D01*
D42*
%TO.N,IREF*%
X22562500Y-17750000D02*
X20725000Y-17750000D01*
%TO.N,VDD1V8*%
X22562500Y-18750000D02*
X17375000Y-18750000D01*
D48*
%TO.N,CPI*%
X25750000Y-21937500D02*
X25825000Y-25400000D01*
%TO.N,CPO*%
X26544156Y-23922945D02*
X27375000Y-25400000D01*
X26250000Y-22799999D02*
X26544156Y-23922945D01*
X26250000Y-21937500D02*
X26250000Y-22799999D01*
%TO.N,VCP*%
X27204107Y-23059335D02*
X29293330Y-23792396D01*
X29293330Y-23792396D02*
X29600000Y-24225000D01*
X26750000Y-21937500D02*
X26750000Y-22418750D01*
X26750000Y-22418750D02*
X27204107Y-23059335D01*
X29600000Y-24225000D02*
X29600000Y-24550000D01*
D42*
%TO.N,OUT1A*%
X27437500Y-18250000D02*
X29332043Y-18250000D01*
X29332043Y-18250000D02*
X30400000Y-17980603D01*
D44*
X42500000Y-12000000D02*
X45500000Y-12000000D01*
X32900000Y-16633620D02*
X40619650Y-12474326D01*
D47*
X30900000Y-17711206D02*
X32900000Y-16633620D01*
D42*
X30400000Y-17980603D02*
X30900000Y-17711206D01*
D44*
X40619650Y-12474326D02*
X42500000Y-12000000D01*
D42*
%TO.N,OUT2A*%
X27437500Y-18750000D02*
X29900000Y-18750000D01*
D44*
X32900000Y-18318103D02*
X41500000Y-17080000D01*
D42*
X29900000Y-18750000D02*
X30900000Y-18606034D01*
D47*
X30900000Y-18606034D02*
X32900000Y-18318103D01*
D44*
X41500000Y-17080000D02*
X45500000Y-17080000D01*
D42*
%TO.N,OUT1B*%
X29327064Y-20750000D02*
X30400000Y-21029741D01*
D44*
X32900000Y-22428448D02*
X40627301Y-26751740D01*
X40627301Y-26751740D02*
X42500000Y-27240000D01*
X42500000Y-27240000D02*
X45500000Y-27240000D01*
D42*
X30400000Y-21029741D02*
X30900000Y-21309482D01*
D47*
X30900000Y-21309482D02*
X32900000Y-22428448D01*
D42*
X27437500Y-20750000D02*
X29327064Y-20750000D01*
D47*
%TO.N,OUT2B*%
X30900000Y-20414655D02*
X32900000Y-20743965D01*
D42*
X29900000Y-20250000D02*
X30900000Y-20414655D01*
D44*
X41500000Y-22160000D02*
X45500000Y-22160000D01*
D42*
X27437500Y-20250000D02*
X29900000Y-20250000D01*
D44*
X32900000Y-20743965D02*
X41500000Y-22160000D01*
%TD*%
%TA.AperFunction,Conductor*%
%TO.N,GND*%
G36*
X24318835Y-17498347D02*
G01*
X24338939Y-17526017D01*
X24364940Y-17579202D01*
X24375000Y-17622682D01*
X24375000Y-17721591D01*
X24394631Y-17719008D01*
X24394631Y-17719007D01*
X24399546Y-17716716D01*
X24460274Y-17709254D01*
X24484871Y-17717496D01*
X24493247Y-17721591D01*
X24494135Y-17722025D01*
X24538109Y-17764568D01*
X24548678Y-17824834D01*
X24540708Y-17852090D01*
X24515319Y-17907685D01*
X24494858Y-18049997D01*
X24494858Y-18050002D01*
X24515319Y-18192313D01*
X24533980Y-18233176D01*
X24684664Y-18082492D01*
X24900000Y-18082492D01*
X24938197Y-18135065D01*
X24984162Y-18150000D01*
X25015838Y-18150000D01*
X25061803Y-18135065D01*
X25100000Y-18082492D01*
X25100000Y-18017508D01*
X25061803Y-17964935D01*
X25015838Y-17950000D01*
X24984162Y-17950000D01*
X24938197Y-17964935D01*
X24900000Y-18017508D01*
X24900000Y-18082492D01*
X24684664Y-18082492D01*
X24929996Y-17837161D01*
X24984513Y-17809384D01*
X25044945Y-17818955D01*
X25070004Y-17837161D01*
X25466017Y-18233174D01*
X25484680Y-18192312D01*
X25484681Y-18192307D01*
X25505142Y-18050002D01*
X25505142Y-18049997D01*
X25484681Y-17907688D01*
X25483495Y-17905091D01*
X25483222Y-17902720D01*
X25482686Y-17900892D01*
X25483002Y-17900799D01*
X25476518Y-17844305D01*
X25506602Y-17791027D01*
X25562257Y-17765607D01*
X25587809Y-17765994D01*
X25653051Y-17775500D01*
X25846948Y-17775499D01*
X25858614Y-17773799D01*
X25918921Y-17784117D01*
X25961647Y-17827913D01*
X25970470Y-17888459D01*
X25966698Y-17900711D01*
X25967314Y-17900892D01*
X25965319Y-17907685D01*
X25944858Y-18049997D01*
X25944858Y-18050002D01*
X25965319Y-18192313D01*
X25983980Y-18233176D01*
X26134664Y-18082492D01*
X26350000Y-18082492D01*
X26388197Y-18135065D01*
X26434162Y-18150000D01*
X26465838Y-18150000D01*
X26511803Y-18135065D01*
X26550000Y-18082492D01*
X26550000Y-18017508D01*
X26511803Y-17964935D01*
X26465838Y-17950000D01*
X26434162Y-17950000D01*
X26388197Y-17964935D01*
X26350000Y-18017508D01*
X26350000Y-18082492D01*
X26134664Y-18082492D01*
X26379996Y-17837161D01*
X26434513Y-17809384D01*
X26494945Y-17818955D01*
X26520004Y-17837161D01*
X26662839Y-17979996D01*
X26690616Y-18034513D01*
X26681045Y-18094945D01*
X26662838Y-18120004D01*
X26265813Y-18517026D01*
X26378107Y-18549999D01*
X26378113Y-18550000D01*
X26521888Y-18550000D01*
X26521890Y-18549999D01*
X26601127Y-18526733D01*
X26662287Y-18528480D01*
X26710740Y-18565842D01*
X26727979Y-18624549D01*
X26726985Y-18635995D01*
X26724500Y-18653051D01*
X26724500Y-18846943D01*
X26724501Y-18846951D01*
X26734594Y-18916240D01*
X26724272Y-18976549D01*
X26680472Y-19019272D01*
X26619926Y-19028091D01*
X26608737Y-19025500D01*
X26521892Y-19000000D01*
X26378107Y-19000000D01*
X26265814Y-19032971D01*
X26662839Y-19429996D01*
X26690616Y-19484513D01*
X26681045Y-19544945D01*
X26662839Y-19570004D01*
X26478997Y-19753846D01*
X26478994Y-19753847D01*
X26265814Y-19967027D01*
X26378107Y-19999999D01*
X26378113Y-20000000D01*
X26521888Y-20000000D01*
X26521894Y-19999999D01*
X26608736Y-19974499D01*
X26669897Y-19976245D01*
X26718350Y-20013607D01*
X26735589Y-20072314D01*
X26734595Y-20083760D01*
X26724500Y-20153052D01*
X26724500Y-20346943D01*
X26724501Y-20346947D01*
X26726986Y-20364010D01*
X26716661Y-20424318D01*
X26672860Y-20467039D01*
X26612314Y-20475856D01*
X26601128Y-20473266D01*
X26521892Y-20450000D01*
X26378107Y-20450000D01*
X26265814Y-20482971D01*
X26265814Y-20482972D01*
X26662838Y-20879995D01*
X26690616Y-20934512D01*
X26681045Y-20994944D01*
X26662839Y-21020003D01*
X26520003Y-21162839D01*
X26465486Y-21190616D01*
X26405054Y-21181045D01*
X26379995Y-21162838D01*
X26199649Y-20982492D01*
X26350000Y-20982492D01*
X26388197Y-21035065D01*
X26434162Y-21050000D01*
X26465838Y-21050000D01*
X26511803Y-21035065D01*
X26550000Y-20982492D01*
X26550000Y-20917508D01*
X26511803Y-20864935D01*
X26465838Y-20850000D01*
X26434162Y-20850000D01*
X26388197Y-20864935D01*
X26350000Y-20917508D01*
X26350000Y-20982492D01*
X26199649Y-20982492D01*
X25983981Y-20766823D01*
X25965319Y-20807687D01*
X25965318Y-20807690D01*
X25944858Y-20949997D01*
X25944858Y-20950002D01*
X25965319Y-21092314D01*
X25967314Y-21099108D01*
X25964417Y-21099958D01*
X25969915Y-21147900D01*
X25939825Y-21201176D01*
X25884167Y-21226589D01*
X25858617Y-21226200D01*
X25846949Y-21224500D01*
X25846947Y-21224500D01*
X25653056Y-21224500D01*
X25653048Y-21224501D01*
X25587818Y-21234003D01*
X25527509Y-21223681D01*
X25484786Y-21179881D01*
X25475967Y-21119335D01*
X25483496Y-21094908D01*
X25484680Y-21092313D01*
X25505142Y-20950002D01*
X25505142Y-20949997D01*
X25484681Y-20807689D01*
X25466017Y-20766824D01*
X25253851Y-20978990D01*
X25253846Y-20978997D01*
X25070004Y-21162839D01*
X25015487Y-21190616D01*
X24955055Y-21181045D01*
X24929996Y-21162839D01*
X24749649Y-20982492D01*
X24900000Y-20982492D01*
X24938197Y-21035065D01*
X24984162Y-21050000D01*
X25015838Y-21050000D01*
X25061803Y-21035065D01*
X25100000Y-20982492D01*
X25100000Y-20917508D01*
X25061803Y-20864935D01*
X25015838Y-20850000D01*
X24984162Y-20850000D01*
X24938197Y-20864935D01*
X24900000Y-20917508D01*
X24900000Y-20982492D01*
X24749649Y-20982492D01*
X24533981Y-20766824D01*
X24515319Y-20807687D01*
X24515318Y-20807690D01*
X24494858Y-20949997D01*
X24494858Y-20950002D01*
X24515318Y-21092312D01*
X24516506Y-21094912D01*
X24516777Y-21097282D01*
X24517314Y-21099108D01*
X24516998Y-21099200D01*
X24523480Y-21155699D01*
X24493393Y-21208976D01*
X24437737Y-21234393D01*
X24412183Y-21234004D01*
X24346949Y-21224500D01*
X24346945Y-21224500D01*
X24153056Y-21224500D01*
X24153046Y-21224501D01*
X24141380Y-21226201D01*
X24081072Y-21215879D01*
X24038349Y-21172079D01*
X24029530Y-21111533D01*
X24033305Y-21099289D01*
X24032686Y-21099108D01*
X24034680Y-21092314D01*
X24055142Y-20950002D01*
X24055142Y-20949997D01*
X24034681Y-20807689D01*
X24016017Y-20766823D01*
X23620004Y-21162838D01*
X23565487Y-21190616D01*
X23505055Y-21181045D01*
X23479996Y-21162839D01*
X23337160Y-21020003D01*
X23318048Y-20982492D01*
X23450000Y-20982492D01*
X23488197Y-21035065D01*
X23534162Y-21050000D01*
X23565838Y-21050000D01*
X23611803Y-21035065D01*
X23650000Y-20982492D01*
X23650000Y-20917508D01*
X23611803Y-20864935D01*
X23565838Y-20850000D01*
X23534162Y-20850000D01*
X23488197Y-20864935D01*
X23450000Y-20917508D01*
X23450000Y-20982492D01*
X23318048Y-20982492D01*
X23309383Y-20965486D01*
X23318954Y-20905054D01*
X23337161Y-20879995D01*
X23734184Y-20482972D01*
X24815814Y-20482972D01*
X24999999Y-20667156D01*
X25184184Y-20482971D01*
X25071891Y-20450000D01*
X24928107Y-20450000D01*
X24815814Y-20482971D01*
X24815814Y-20482972D01*
X23734184Y-20482972D01*
X23734184Y-20482971D01*
X23621891Y-20450000D01*
X23478107Y-20450000D01*
X23398871Y-20473266D01*
X23337711Y-20471518D01*
X23289258Y-20434155D01*
X23272020Y-20375448D01*
X23273014Y-20364010D01*
X23275500Y-20346949D01*
X23275499Y-20153052D01*
X23265405Y-20083760D01*
X23275727Y-20023451D01*
X23319526Y-19980728D01*
X23380072Y-19971908D01*
X23391263Y-19974499D01*
X23478109Y-19999999D01*
X23478112Y-20000000D01*
X23621888Y-20000000D01*
X23621890Y-19999999D01*
X23734180Y-19967027D01*
X24815814Y-19967027D01*
X24928107Y-19999999D01*
X24928113Y-20000000D01*
X25071888Y-20000000D01*
X25071890Y-19999999D01*
X25184183Y-19967026D01*
X24997229Y-19780072D01*
X24984899Y-19788310D01*
X24981093Y-19800025D01*
X24971004Y-19811838D01*
X24815814Y-19967027D01*
X23734180Y-19967027D01*
X23734183Y-19967026D01*
X23337161Y-19570004D01*
X23318048Y-19532492D01*
X23450000Y-19532492D01*
X23488197Y-19585065D01*
X23534162Y-19600000D01*
X23565838Y-19600000D01*
X23611803Y-19585065D01*
X23650000Y-19532492D01*
X23650000Y-19499999D01*
X23832842Y-19499999D01*
X24016017Y-19683174D01*
X24034680Y-19642312D01*
X24034681Y-19642307D01*
X24055142Y-19500000D01*
X24494858Y-19500000D01*
X24515319Y-19642313D01*
X24533981Y-19683176D01*
X24684664Y-19532492D01*
X24900000Y-19532492D01*
X24938197Y-19585065D01*
X24984162Y-19600000D01*
X25015838Y-19600000D01*
X25061803Y-19585065D01*
X25100000Y-19532492D01*
X25100000Y-19497229D01*
X25280072Y-19497229D01*
X25466017Y-19683174D01*
X25484680Y-19642312D01*
X25484681Y-19642307D01*
X25505142Y-19500000D01*
X25944858Y-19500000D01*
X25965319Y-19642313D01*
X25983981Y-19683176D01*
X26134665Y-19532492D01*
X26350000Y-19532492D01*
X26388197Y-19585065D01*
X26434162Y-19600000D01*
X26465838Y-19600000D01*
X26511803Y-19585065D01*
X26550000Y-19532492D01*
X26550000Y-19467508D01*
X26511803Y-19414935D01*
X26465838Y-19400000D01*
X26434162Y-19400000D01*
X26388197Y-19414935D01*
X26350000Y-19467508D01*
X26350000Y-19532492D01*
X26134665Y-19532492D01*
X26167157Y-19500000D01*
X26167157Y-19499999D01*
X25983981Y-19316822D01*
X25983981Y-19316823D01*
X25965319Y-19357687D01*
X25965318Y-19357690D01*
X25944858Y-19499997D01*
X25944858Y-19500000D01*
X25505142Y-19500000D01*
X25505142Y-19499997D01*
X25484681Y-19357689D01*
X25466017Y-19316824D01*
X25311838Y-19471004D01*
X25290243Y-19482006D01*
X25280072Y-19497229D01*
X25100000Y-19497229D01*
X25100000Y-19467508D01*
X25061803Y-19414935D01*
X25015838Y-19400000D01*
X24984162Y-19400000D01*
X24938197Y-19414935D01*
X24900000Y-19467508D01*
X24900000Y-19532492D01*
X24684664Y-19532492D01*
X24717156Y-19500000D01*
X24717156Y-19499999D01*
X24533981Y-19316824D01*
X24515319Y-19357687D01*
X24515318Y-19357690D01*
X24494858Y-19499997D01*
X24494858Y-19500000D01*
X24055142Y-19500000D01*
X24055142Y-19499997D01*
X24034681Y-19357689D01*
X24016017Y-19316823D01*
X23832842Y-19499999D01*
X23650000Y-19499999D01*
X23650000Y-19467508D01*
X23611803Y-19414935D01*
X23565838Y-19400000D01*
X23534162Y-19400000D01*
X23488197Y-19414935D01*
X23450000Y-19467508D01*
X23450000Y-19532492D01*
X23318048Y-19532492D01*
X23309384Y-19515487D01*
X23318955Y-19455055D01*
X23337161Y-19429996D01*
X23550000Y-19217157D01*
X23734184Y-19032972D01*
X23734184Y-19032971D01*
X24815814Y-19032971D01*
X24999999Y-19217156D01*
X25184184Y-19032971D01*
X25071891Y-19000000D01*
X24928107Y-19000000D01*
X24815814Y-19032971D01*
X23734184Y-19032971D01*
X23621891Y-19000000D01*
X23478107Y-19000000D01*
X23391261Y-19025501D01*
X23330101Y-19023754D01*
X23281648Y-18986391D01*
X23264410Y-18927684D01*
X23265402Y-18916259D01*
X23275500Y-18846949D01*
X23275499Y-18653052D01*
X23273014Y-18635993D01*
X23283336Y-18575685D01*
X23327135Y-18532961D01*
X23387681Y-18524142D01*
X23398872Y-18526733D01*
X23478109Y-18549999D01*
X23478112Y-18550000D01*
X23621888Y-18550000D01*
X23621890Y-18549999D01*
X23734185Y-18517026D01*
X24815813Y-18517026D01*
X24928107Y-18549999D01*
X24928113Y-18550000D01*
X25071888Y-18550000D01*
X25071890Y-18549999D01*
X25184183Y-18517026D01*
X24999999Y-18332842D01*
X24815813Y-18517026D01*
X23734185Y-18517026D01*
X23337161Y-18120004D01*
X23318048Y-18082492D01*
X23450000Y-18082492D01*
X23488197Y-18135065D01*
X23534162Y-18150000D01*
X23565838Y-18150000D01*
X23611803Y-18135065D01*
X23650000Y-18082492D01*
X23650000Y-18017508D01*
X23611803Y-17964935D01*
X23565838Y-17950000D01*
X23534162Y-17950000D01*
X23488197Y-17964935D01*
X23450000Y-18017508D01*
X23450000Y-18082492D01*
X23318048Y-18082492D01*
X23309383Y-18065487D01*
X23318954Y-18005055D01*
X23337160Y-17979996D01*
X23479996Y-17837160D01*
X23534513Y-17809383D01*
X23594945Y-17818954D01*
X23620004Y-17837161D01*
X24016017Y-18233175D01*
X24034680Y-18192312D01*
X24034681Y-18192307D01*
X24055142Y-18050002D01*
X24055142Y-18049997D01*
X24034681Y-17907687D01*
X24012743Y-17859650D01*
X24005769Y-17798864D01*
X24035856Y-17745587D01*
X24091512Y-17720169D01*
X24115719Y-17720371D01*
X24124999Y-17721592D01*
X24125000Y-17721592D01*
X24125000Y-17622682D01*
X24135058Y-17579205D01*
X24161061Y-17526015D01*
X24203601Y-17482045D01*
X24263866Y-17471475D01*
X24318835Y-17498347D01*
G37*
%TD.AperFunction*%
%TA.AperFunction,Conductor*%
G36*
X36439276Y-518907D02*
G01*
X36475240Y-568407D01*
X36475240Y-629593D01*
X36473183Y-635318D01*
X36460123Y-668435D01*
X36449500Y-756893D01*
X36449500Y-1254440D01*
X36430593Y-1312631D01*
X36381205Y-1348558D01*
X36325480Y-1366737D01*
X36323445Y-1367880D01*
X36307648Y-1375009D01*
X36305449Y-1375777D01*
X36226630Y-1422225D01*
X36224846Y-1423252D01*
X36145055Y-1468062D01*
X36143276Y-1469586D01*
X36129198Y-1479643D01*
X36127180Y-1480832D01*
X36127174Y-1480837D01*
X36058900Y-1541794D01*
X36057352Y-1543148D01*
X36027253Y-1568917D01*
X36022315Y-1574064D01*
X36016819Y-1579367D01*
X35972815Y-1618659D01*
X35951762Y-1646608D01*
X35944132Y-1655574D01*
X35639281Y-1973393D01*
X35630641Y-1981389D01*
X35603587Y-2003591D01*
X35566161Y-2049196D01*
X35561084Y-2054917D01*
X35556155Y-2060055D01*
X35531674Y-2091184D01*
X35530386Y-2092786D01*
X35472322Y-2163540D01*
X35472314Y-2163551D01*
X35471215Y-2165608D01*
X35461740Y-2180111D01*
X35460300Y-2181941D01*
X35460296Y-2181948D01*
X35418837Y-2263553D01*
X35417885Y-2265379D01*
X35374767Y-2346046D01*
X35374765Y-2346050D01*
X35374089Y-2348281D01*
X35367628Y-2364351D01*
X35366571Y-2366430D01*
X35366569Y-2366435D01*
X35341828Y-2454560D01*
X35341250Y-2456536D01*
X35314701Y-2544057D01*
X35314697Y-2544077D01*
X35314469Y-2546395D01*
X35311268Y-2563414D01*
X35310639Y-2565653D01*
X35310637Y-2565664D01*
X35310637Y-2565666D01*
X35309819Y-2576206D01*
X35303564Y-2656904D01*
X35303383Y-2658955D01*
X35299500Y-2698384D01*
X35299500Y-2705520D01*
X35299204Y-2713170D01*
X35294645Y-2771976D01*
X35298800Y-2806721D01*
X35299500Y-2818473D01*
X35299500Y-3201608D01*
X35301364Y-3220534D01*
X35314698Y-3355928D01*
X35314699Y-3355934D01*
X35374768Y-3553954D01*
X35472316Y-3736452D01*
X35603585Y-3896404D01*
X35603590Y-3896410D01*
X35614708Y-3905534D01*
X35763547Y-4027683D01*
X35763548Y-4027683D01*
X35763550Y-4027685D01*
X35946046Y-4125232D01*
X36083997Y-4167078D01*
X36144065Y-4185300D01*
X36144070Y-4185301D01*
X36349997Y-4205583D01*
X36350000Y-4205583D01*
X36350003Y-4205583D01*
X36553693Y-4185521D01*
X36613457Y-4198633D01*
X36623217Y-4205160D01*
X36727658Y-4284361D01*
X36727659Y-4284361D01*
X36727660Y-4284362D01*
X36793046Y-4310147D01*
X36868436Y-4339877D01*
X36956898Y-4350500D01*
X36956900Y-4350500D01*
X38143100Y-4350500D01*
X38143102Y-4350500D01*
X38231564Y-4339877D01*
X38372342Y-4284361D01*
X38492922Y-4192922D01*
X38584361Y-4072342D01*
X38639877Y-3931564D01*
X38650500Y-3843102D01*
X38650500Y-756898D01*
X38639877Y-668436D01*
X38626817Y-635318D01*
X38623059Y-574248D01*
X38655915Y-522633D01*
X38712834Y-500187D01*
X38718915Y-500000D01*
X49401000Y-500000D01*
X49459191Y-518907D01*
X49495155Y-568407D01*
X49500000Y-599000D01*
X49500000Y-32495800D01*
X49481093Y-32553991D01*
X49431593Y-32589955D01*
X49370407Y-32589955D01*
X49320907Y-32553991D01*
X49307716Y-32528953D01*
X49276611Y-32441433D01*
X49141293Y-32180282D01*
X48971681Y-31939996D01*
X48971668Y-31939981D01*
X48957756Y-31925085D01*
X48206378Y-32676462D01*
X48135106Y-32576375D01*
X47983068Y-32431407D01*
X47923821Y-32393331D01*
X48672330Y-31644823D01*
X48672331Y-31644823D01*
X48542769Y-31539416D01*
X48542751Y-31539403D01*
X48291455Y-31386587D01*
X48291448Y-31386583D01*
X48021676Y-31269405D01*
X47738456Y-31190050D01*
X47738447Y-31190048D01*
X47447063Y-31149999D01*
X47152936Y-31149999D01*
X46861552Y-31190048D01*
X46861543Y-31190050D01*
X46578323Y-31269405D01*
X46308551Y-31386583D01*
X46308544Y-31386587D01*
X46057246Y-31539405D01*
X46057230Y-31539416D01*
X45927668Y-31644823D01*
X46674973Y-32392128D01*
X46537460Y-32500270D01*
X46399890Y-32659034D01*
X46391215Y-32674058D01*
X45642242Y-31925085D01*
X45628320Y-31939993D01*
X45458706Y-32180282D01*
X45323388Y-32441433D01*
X45224889Y-32718582D01*
X45165049Y-33006551D01*
X45165047Y-33006560D01*
X45144976Y-33299995D01*
X45144976Y-33300002D01*
X45165047Y-33593437D01*
X45165049Y-33593446D01*
X45224889Y-33881415D01*
X45323388Y-34158564D01*
X45458706Y-34419715D01*
X45628318Y-34660001D01*
X45628331Y-34660016D01*
X45642242Y-34674911D01*
X46393619Y-33923533D01*
X46464894Y-34023623D01*
X46616932Y-34168591D01*
X46676176Y-34206664D01*
X45927668Y-34955173D01*
X45927667Y-34955173D01*
X46057230Y-35060581D01*
X46057248Y-35060594D01*
X46308544Y-35213410D01*
X46308551Y-35213414D01*
X46531366Y-35310196D01*
X46577206Y-35350721D01*
X46590472Y-35410451D01*
X46566096Y-35466571D01*
X46513388Y-35497645D01*
X46491924Y-35500000D01*
X12849960Y-35500000D01*
X12791769Y-35481093D01*
X12755805Y-35431593D01*
X12755805Y-35370407D01*
X12787481Y-35324205D01*
X12872329Y-35255173D01*
X12125026Y-34507870D01*
X12262540Y-34399729D01*
X12400110Y-34240965D01*
X12408784Y-34225940D01*
X13157756Y-34974912D01*
X13171678Y-34960005D01*
X13341293Y-34719716D01*
X13476611Y-34458565D01*
X13575110Y-34181416D01*
X13634656Y-33894860D01*
X15849500Y-33894860D01*
X15849501Y-33894863D01*
X15852414Y-33919990D01*
X15877756Y-33977385D01*
X15897794Y-34022765D01*
X15977235Y-34102206D01*
X16080009Y-34147585D01*
X16105135Y-34150500D01*
X17894864Y-34150499D01*
X17919991Y-34147585D01*
X18022765Y-34102206D01*
X18102206Y-34022765D01*
X18147585Y-33919991D01*
X18150500Y-33894865D01*
X18150499Y-33000000D01*
X18384571Y-33000000D01*
X18404244Y-33212310D01*
X18462595Y-33417389D01*
X18557634Y-33608255D01*
X18686128Y-33778407D01*
X18686135Y-33778413D01*
X18843692Y-33922047D01*
X18843699Y-33922053D01*
X18907265Y-33961411D01*
X19024981Y-34034298D01*
X19223802Y-34111321D01*
X19433390Y-34150500D01*
X19646610Y-34150500D01*
X19856198Y-34111321D01*
X20055019Y-34034298D01*
X20236302Y-33922052D01*
X20393872Y-33778407D01*
X20522366Y-33608255D01*
X20617405Y-33417389D01*
X20675756Y-33212310D01*
X20695429Y-33000000D01*
X20924571Y-33000000D01*
X20944244Y-33212310D01*
X21002595Y-33417389D01*
X21097634Y-33608255D01*
X21226128Y-33778407D01*
X21226135Y-33778413D01*
X21383692Y-33922047D01*
X21383699Y-33922053D01*
X21447265Y-33961411D01*
X21564981Y-34034298D01*
X21763802Y-34111321D01*
X21973390Y-34150500D01*
X22186610Y-34150500D01*
X22396198Y-34111321D01*
X22595019Y-34034298D01*
X22776302Y-33922052D01*
X22933872Y-33778407D01*
X23062366Y-33608255D01*
X23157405Y-33417389D01*
X23215756Y-33212310D01*
X23235429Y-33000000D01*
X23464571Y-33000000D01*
X23484244Y-33212310D01*
X23542595Y-33417389D01*
X23637634Y-33608255D01*
X23766128Y-33778407D01*
X23766135Y-33778413D01*
X23923692Y-33922047D01*
X23923699Y-33922053D01*
X23987265Y-33961411D01*
X24104981Y-34034298D01*
X24303802Y-34111321D01*
X24513390Y-34150500D01*
X24726610Y-34150500D01*
X24936198Y-34111321D01*
X25135019Y-34034298D01*
X25316302Y-33922052D01*
X25473872Y-33778407D01*
X25602366Y-33608255D01*
X25697405Y-33417389D01*
X25755756Y-33212310D01*
X25775429Y-33000000D01*
X25756897Y-32800000D01*
X26073819Y-32800000D01*
X26697617Y-32800000D01*
X26660000Y-32928111D01*
X26660000Y-33071889D01*
X26697617Y-33200000D01*
X26073820Y-33200000D01*
X26074095Y-33202982D01*
X26074096Y-33202985D01*
X26129887Y-33399070D01*
X26220750Y-33581548D01*
X26220755Y-33581557D01*
X26343608Y-33744240D01*
X26494266Y-33881582D01*
X26667581Y-33988895D01*
X26667586Y-33988898D01*
X26857683Y-34062541D01*
X26959999Y-34081667D01*
X26960000Y-34081667D01*
X26960000Y-33458335D01*
X27017685Y-33484680D01*
X27124237Y-33500000D01*
X27195763Y-33500000D01*
X27302315Y-33484680D01*
X27360000Y-33458335D01*
X27360000Y-34081667D01*
X27462316Y-34062541D01*
X27652413Y-33988898D01*
X27652418Y-33988895D01*
X27825733Y-33881582D01*
X27976391Y-33744240D01*
X28099244Y-33581557D01*
X28099249Y-33581548D01*
X28190112Y-33399070D01*
X28245903Y-33202985D01*
X28245904Y-33202982D01*
X28246180Y-33200000D01*
X27622383Y-33200000D01*
X27660000Y-33071889D01*
X27660000Y-32928111D01*
X27622383Y-32800000D01*
X28246180Y-32800000D01*
X28245904Y-32797017D01*
X28245903Y-32797014D01*
X28190112Y-32600929D01*
X28099249Y-32418451D01*
X28099244Y-32418442D01*
X27976391Y-32255759D01*
X27825733Y-32118417D01*
X27652418Y-32011104D01*
X27652413Y-32011101D01*
X27462317Y-31937458D01*
X27360000Y-31918331D01*
X27360000Y-32541664D01*
X27302315Y-32515320D01*
X27195763Y-32500000D01*
X27124237Y-32500000D01*
X27017685Y-32515320D01*
X26960000Y-32541664D01*
X26960000Y-31918332D01*
X26959999Y-31918331D01*
X26857682Y-31937458D01*
X26667586Y-32011101D01*
X26667581Y-32011104D01*
X26494266Y-32118417D01*
X26343608Y-32255759D01*
X26220755Y-32418442D01*
X26220750Y-32418451D01*
X26129887Y-32600929D01*
X26074096Y-32797014D01*
X26074095Y-32797017D01*
X26073819Y-32800000D01*
X25756897Y-32800000D01*
X25755756Y-32787690D01*
X25697405Y-32582611D01*
X25602366Y-32391745D01*
X25527035Y-32291991D01*
X25507055Y-32234160D01*
X25518050Y-32186953D01*
X25521491Y-32180282D01*
X26306339Y-30658417D01*
X26476161Y-30329122D01*
X26519637Y-30286070D01*
X26564149Y-30275499D01*
X26672867Y-30275499D01*
X26672872Y-30275499D01*
X26732483Y-30269091D01*
X26802729Y-30242891D01*
X26867329Y-30218797D01*
X26867329Y-30218796D01*
X26867331Y-30218796D01*
X26982546Y-30132546D01*
X27068796Y-30017331D01*
X27079868Y-29987647D01*
X27119089Y-29882488D01*
X27119090Y-29882485D01*
X27119091Y-29882483D01*
X27125500Y-29822873D01*
X27125499Y-29177128D01*
X27119091Y-29117517D01*
X27105092Y-29079983D01*
X27068797Y-28982670D01*
X26982549Y-28867458D01*
X26982548Y-28867457D01*
X26982546Y-28867454D01*
X26982541Y-28867450D01*
X26867329Y-28781202D01*
X26732488Y-28730910D01*
X26732483Y-28730909D01*
X26732481Y-28730908D01*
X26732477Y-28730908D01*
X26701249Y-28727550D01*
X26672873Y-28724500D01*
X26672870Y-28724500D01*
X26177133Y-28724500D01*
X26177129Y-28724500D01*
X26177128Y-28724501D01*
X26169949Y-28725272D01*
X26117519Y-28730908D01*
X26117514Y-28730909D01*
X25982670Y-28781202D01*
X25867458Y-28867450D01*
X25867450Y-28867458D01*
X25781202Y-28982670D01*
X25730910Y-29117511D01*
X25730908Y-29117522D01*
X25724500Y-29177129D01*
X25724500Y-29822866D01*
X25724501Y-29822873D01*
X25730852Y-29881960D01*
X25720407Y-29937917D01*
X24762231Y-31795877D01*
X24718755Y-31838929D01*
X24674243Y-31849500D01*
X24513390Y-31849500D01*
X24303804Y-31888678D01*
X24104980Y-31965702D01*
X24104975Y-31965705D01*
X23923699Y-32077946D01*
X23923692Y-32077952D01*
X23766135Y-32221586D01*
X23766131Y-32221589D01*
X23766128Y-32221593D01*
X23766125Y-32221597D01*
X23637635Y-32391743D01*
X23637630Y-32391752D01*
X23545700Y-32576375D01*
X23542595Y-32582611D01*
X23537383Y-32600929D01*
X23484244Y-32787688D01*
X23468367Y-32959035D01*
X23464571Y-33000000D01*
X23235429Y-33000000D01*
X23215756Y-32787690D01*
X23157405Y-32582611D01*
X23062366Y-32391745D01*
X22933872Y-32221593D01*
X22840381Y-32136364D01*
X22810116Y-32083190D01*
X22812215Y-32034883D01*
X23317514Y-30342497D01*
X23352278Y-30292150D01*
X23401793Y-30272390D01*
X23432483Y-30269091D01*
X23502729Y-30242891D01*
X23567329Y-30218797D01*
X23567329Y-30218796D01*
X23567331Y-30218796D01*
X23682546Y-30132546D01*
X23768796Y-30017331D01*
X23779868Y-29987647D01*
X23819089Y-29882488D01*
X23819090Y-29882485D01*
X23819091Y-29882483D01*
X23824819Y-29829203D01*
X24125001Y-29829203D01*
X24127850Y-29859600D01*
X24127850Y-29859602D01*
X24172654Y-29987647D01*
X24253207Y-30096790D01*
X24253209Y-30096792D01*
X24362352Y-30177345D01*
X24490399Y-30222149D01*
X24520788Y-30224999D01*
X24574999Y-30224998D01*
X24575000Y-30224998D01*
X24975000Y-30224998D01*
X24975001Y-30224999D01*
X25029203Y-30224999D01*
X25059600Y-30222149D01*
X25059602Y-30222149D01*
X25187647Y-30177345D01*
X25296790Y-30096792D01*
X25296792Y-30096790D01*
X25377345Y-29987647D01*
X25422149Y-29859601D01*
X25424999Y-29829211D01*
X25425000Y-29829210D01*
X25425000Y-29700001D01*
X25424999Y-29700000D01*
X24975001Y-29700000D01*
X24975000Y-29700001D01*
X24975000Y-30224998D01*
X24575000Y-30224998D01*
X24575000Y-29700001D01*
X24574999Y-29700000D01*
X24125002Y-29700000D01*
X24125001Y-29700001D01*
X24125001Y-29829203D01*
X23824819Y-29829203D01*
X23825500Y-29822873D01*
X23825499Y-29299999D01*
X24125000Y-29299999D01*
X24125001Y-29300000D01*
X24574999Y-29300000D01*
X24575000Y-29299999D01*
X24975000Y-29299999D01*
X24975001Y-29300000D01*
X25424998Y-29300000D01*
X25424999Y-29299999D01*
X25424999Y-29170796D01*
X25422149Y-29140399D01*
X25422149Y-29140397D01*
X25377345Y-29012352D01*
X25296792Y-28903209D01*
X25296790Y-28903207D01*
X25187647Y-28822654D01*
X25059601Y-28777850D01*
X25029211Y-28775000D01*
X24975001Y-28775000D01*
X24975000Y-28775001D01*
X24975000Y-29299999D01*
X24575000Y-29299999D01*
X24575000Y-28774999D01*
X24520796Y-28775000D01*
X24490399Y-28777850D01*
X24490397Y-28777850D01*
X24362352Y-28822654D01*
X24253209Y-28903207D01*
X24253207Y-28903209D01*
X24172654Y-29012352D01*
X24127850Y-29140398D01*
X24125000Y-29170788D01*
X24125000Y-29299999D01*
X23825499Y-29299999D01*
X23825499Y-29177128D01*
X23819091Y-29117517D01*
X23805092Y-29079983D01*
X23768797Y-28982670D01*
X23682549Y-28867458D01*
X23682548Y-28867457D01*
X23682546Y-28867454D01*
X23682541Y-28867450D01*
X23567329Y-28781202D01*
X23432488Y-28730910D01*
X23432483Y-28730909D01*
X23432481Y-28730908D01*
X23432477Y-28730908D01*
X23401249Y-28727550D01*
X23372873Y-28724500D01*
X23372870Y-28724500D01*
X22877133Y-28724500D01*
X22877129Y-28724500D01*
X22877128Y-28724501D01*
X22869949Y-28725272D01*
X22817519Y-28730908D01*
X22817514Y-28730909D01*
X22682670Y-28781202D01*
X22567458Y-28867450D01*
X22567450Y-28867458D01*
X22481202Y-28982670D01*
X22430910Y-29117511D01*
X22430908Y-29117522D01*
X22424500Y-29177129D01*
X22424500Y-29822866D01*
X22424500Y-29822869D01*
X22424501Y-29822872D01*
X22426044Y-29837229D01*
X22430908Y-29882480D01*
X22430909Y-29882485D01*
X22481202Y-30017329D01*
X22483702Y-30020668D01*
X22503439Y-30078583D01*
X22499311Y-30108321D01*
X21997087Y-31790411D01*
X21962322Y-31840760D01*
X21920417Y-31859402D01*
X21763803Y-31888678D01*
X21564980Y-31965702D01*
X21564975Y-31965705D01*
X21383699Y-32077946D01*
X21383692Y-32077952D01*
X21226135Y-32221586D01*
X21226131Y-32221589D01*
X21226128Y-32221593D01*
X21226125Y-32221597D01*
X21097635Y-32391743D01*
X21097630Y-32391752D01*
X21005700Y-32576375D01*
X21002595Y-32582611D01*
X20997383Y-32600929D01*
X20944244Y-32787688D01*
X20928367Y-32959035D01*
X20924571Y-33000000D01*
X20695429Y-33000000D01*
X20675756Y-32787690D01*
X20617405Y-32582611D01*
X20522366Y-32391745D01*
X20393872Y-32221593D01*
X20300383Y-32136366D01*
X20236307Y-32077952D01*
X20236300Y-32077946D01*
X20102785Y-31995276D01*
X20063264Y-31948567D01*
X20056229Y-31903070D01*
X20061452Y-31838929D01*
X20185953Y-30309969D01*
X20209519Y-30253508D01*
X20250027Y-30225249D01*
X20267331Y-30218796D01*
X20382546Y-30132546D01*
X20468796Y-30017331D01*
X20479868Y-29987647D01*
X20519089Y-29882488D01*
X20519090Y-29882485D01*
X20519091Y-29882483D01*
X20524819Y-29829203D01*
X20825001Y-29829203D01*
X20827850Y-29859600D01*
X20827850Y-29859602D01*
X20872654Y-29987647D01*
X20953207Y-30096790D01*
X20953209Y-30096792D01*
X21062352Y-30177345D01*
X21190399Y-30222149D01*
X21220788Y-30224999D01*
X21274999Y-30224998D01*
X21275000Y-30224998D01*
X21675000Y-30224998D01*
X21675001Y-30224999D01*
X21729203Y-30224999D01*
X21759600Y-30222149D01*
X21759602Y-30222149D01*
X21887647Y-30177345D01*
X21996790Y-30096792D01*
X21996792Y-30096790D01*
X22077345Y-29987647D01*
X22122149Y-29859601D01*
X22124999Y-29829211D01*
X22125000Y-29829210D01*
X22125000Y-29700001D01*
X22124999Y-29700000D01*
X21675001Y-29700000D01*
X21675000Y-29700001D01*
X21675000Y-30224998D01*
X21275000Y-30224998D01*
X21275000Y-29700001D01*
X21274999Y-29700000D01*
X20825002Y-29700000D01*
X20825001Y-29700001D01*
X20825001Y-29829203D01*
X20524819Y-29829203D01*
X20525500Y-29822873D01*
X20525499Y-29299999D01*
X20825000Y-29299999D01*
X20825001Y-29300000D01*
X21274999Y-29300000D01*
X21275000Y-29299999D01*
X21675000Y-29299999D01*
X21675001Y-29300000D01*
X22124998Y-29300000D01*
X22124999Y-29299999D01*
X22124999Y-29170796D01*
X22122149Y-29140399D01*
X22122149Y-29140397D01*
X22077345Y-29012352D01*
X21996792Y-28903209D01*
X21996790Y-28903207D01*
X21887647Y-28822654D01*
X21759601Y-28777850D01*
X21729211Y-28775000D01*
X21675001Y-28775000D01*
X21675000Y-28775001D01*
X21675000Y-29299999D01*
X21275000Y-29299999D01*
X21275000Y-28774999D01*
X21220796Y-28775000D01*
X21190399Y-28777850D01*
X21190397Y-28777850D01*
X21062352Y-28822654D01*
X20953209Y-28903207D01*
X20953207Y-28903209D01*
X20872654Y-29012352D01*
X20827850Y-29140398D01*
X20825000Y-29170788D01*
X20825000Y-29299999D01*
X20525499Y-29299999D01*
X20525499Y-29177128D01*
X20519091Y-29117517D01*
X20505092Y-29079983D01*
X20468797Y-28982670D01*
X20382549Y-28867458D01*
X20382548Y-28867457D01*
X20382546Y-28867454D01*
X20382541Y-28867450D01*
X20267329Y-28781202D01*
X20132488Y-28730910D01*
X20132483Y-28730909D01*
X20132481Y-28730908D01*
X20132477Y-28730908D01*
X20101249Y-28727550D01*
X20072873Y-28724500D01*
X20072870Y-28724500D01*
X19577133Y-28724500D01*
X19577129Y-28724500D01*
X19577128Y-28724501D01*
X19569949Y-28725272D01*
X19517519Y-28730908D01*
X19517514Y-28730909D01*
X19382670Y-28781202D01*
X19267458Y-28867450D01*
X19267450Y-28867458D01*
X19181202Y-28982670D01*
X19130910Y-29117511D01*
X19130908Y-29117522D01*
X19124500Y-29177129D01*
X19124500Y-29822866D01*
X19124500Y-29822869D01*
X19124501Y-29822872D01*
X19126044Y-29837229D01*
X19130908Y-29882480D01*
X19130909Y-29882485D01*
X19181202Y-30017329D01*
X19249319Y-30108321D01*
X19267454Y-30132546D01*
X19298254Y-30155603D01*
X19333508Y-30205610D01*
X19337599Y-30242891D01*
X19207963Y-31834906D01*
X19184396Y-31891370D01*
X19145053Y-31919186D01*
X19024980Y-31965702D01*
X19024975Y-31965705D01*
X18843699Y-32077946D01*
X18843692Y-32077952D01*
X18686135Y-32221586D01*
X18686131Y-32221589D01*
X18686128Y-32221593D01*
X18686125Y-32221597D01*
X18557635Y-32391743D01*
X18557630Y-32391752D01*
X18465700Y-32576375D01*
X18462595Y-32582611D01*
X18457383Y-32600929D01*
X18404244Y-32787688D01*
X18388367Y-32959035D01*
X18384571Y-33000000D01*
X18150499Y-33000000D01*
X18150499Y-32105136D01*
X18147585Y-32080009D01*
X18102206Y-31977235D01*
X18022765Y-31897794D01*
X17919991Y-31852415D01*
X17919990Y-31852414D01*
X17919988Y-31852414D01*
X17894868Y-31849500D01*
X16105139Y-31849500D01*
X16105136Y-31849501D01*
X16080009Y-31852414D01*
X15977235Y-31897794D01*
X15897794Y-31977235D01*
X15852414Y-32080011D01*
X15849500Y-32105130D01*
X15849500Y-33894860D01*
X13634656Y-33894860D01*
X13634950Y-33893447D01*
X13634952Y-33893438D01*
X13655024Y-33600003D01*
X13655024Y-33599996D01*
X13634952Y-33306561D01*
X13634950Y-33306552D01*
X13575110Y-33018583D01*
X13476611Y-32741434D01*
X13341293Y-32480283D01*
X13171681Y-32239997D01*
X13171668Y-32239982D01*
X13157756Y-32225086D01*
X12406378Y-32976463D01*
X12335106Y-32876376D01*
X12183068Y-32731408D01*
X12123821Y-32693332D01*
X12872330Y-31944824D01*
X12872331Y-31944824D01*
X12742769Y-31839417D01*
X12742751Y-31839404D01*
X12491455Y-31686588D01*
X12491448Y-31686584D01*
X12221676Y-31569406D01*
X11938456Y-31490051D01*
X11938447Y-31490049D01*
X11647063Y-31450000D01*
X11352936Y-31450000D01*
X11061552Y-31490049D01*
X11061543Y-31490051D01*
X10778323Y-31569406D01*
X10508551Y-31686584D01*
X10508544Y-31686588D01*
X10257246Y-31839406D01*
X10257230Y-31839417D01*
X10127668Y-31944824D01*
X10874973Y-32692129D01*
X10737460Y-32800271D01*
X10599890Y-32959035D01*
X10591215Y-32974059D01*
X9842242Y-32225086D01*
X9828320Y-32239994D01*
X9658706Y-32480283D01*
X9523388Y-32741434D01*
X9424889Y-33018583D01*
X9365049Y-33306552D01*
X9365047Y-33306561D01*
X9344976Y-33599996D01*
X9344976Y-33600003D01*
X9365047Y-33893438D01*
X9365049Y-33893447D01*
X9424889Y-34181416D01*
X9523388Y-34458565D01*
X9658706Y-34719716D01*
X9828318Y-34960002D01*
X9828331Y-34960017D01*
X9842242Y-34974912D01*
X10593619Y-34223534D01*
X10664894Y-34323624D01*
X10816932Y-34468592D01*
X10876176Y-34506665D01*
X10127668Y-35255174D01*
X10127667Y-35255174D01*
X10212517Y-35324205D01*
X10245724Y-35375595D01*
X10242382Y-35436689D01*
X10203769Y-35484151D01*
X10150039Y-35500000D01*
X599000Y-35500000D01*
X540809Y-35481093D01*
X504845Y-35431593D01*
X500000Y-35401000D01*
X500000Y-31340000D01*
X2913819Y-31340000D01*
X3537617Y-31340000D01*
X3500000Y-31468111D01*
X3500000Y-31611889D01*
X3537617Y-31740000D01*
X2913820Y-31740000D01*
X2914095Y-31742982D01*
X2914096Y-31742985D01*
X2969887Y-31939070D01*
X3060750Y-32121548D01*
X3060755Y-32121557D01*
X3183608Y-32284240D01*
X3334266Y-32421582D01*
X3507581Y-32528895D01*
X3507586Y-32528898D01*
X3697683Y-32602541D01*
X3799999Y-32621667D01*
X3800000Y-32621667D01*
X3800000Y-31998335D01*
X3857685Y-32024680D01*
X3964237Y-32040000D01*
X4035763Y-32040000D01*
X4142315Y-32024680D01*
X4200000Y-31998335D01*
X4200000Y-32621667D01*
X4302316Y-32602541D01*
X4492413Y-32528898D01*
X4492418Y-32528895D01*
X4665733Y-32421582D01*
X4816391Y-32284240D01*
X4939244Y-32121557D01*
X4939249Y-32121548D01*
X5030112Y-31939070D01*
X5085903Y-31742985D01*
X5085904Y-31742982D01*
X5086180Y-31740000D01*
X4462383Y-31740000D01*
X4500000Y-31611889D01*
X4500000Y-31468111D01*
X4462383Y-31340000D01*
X5086180Y-31340000D01*
X5085904Y-31337017D01*
X5085903Y-31337014D01*
X5030112Y-31140929D01*
X4939249Y-30958451D01*
X4939244Y-30958442D01*
X4816391Y-30795759D01*
X4665733Y-30658417D01*
X4492418Y-30551104D01*
X4492413Y-30551101D01*
X4302317Y-30477458D01*
X4200000Y-30458331D01*
X4200000Y-31081664D01*
X4142315Y-31055320D01*
X4035763Y-31040000D01*
X3964237Y-31040000D01*
X3857685Y-31055320D01*
X3800000Y-31081664D01*
X3800000Y-30458332D01*
X3799999Y-30458331D01*
X3697682Y-30477458D01*
X3507586Y-30551101D01*
X3507581Y-30551104D01*
X3334266Y-30658417D01*
X3183608Y-30795759D01*
X3060755Y-30958442D01*
X3060750Y-30958451D01*
X2969887Y-31140929D01*
X2914096Y-31337014D01*
X2914095Y-31337017D01*
X2913819Y-31340000D01*
X500000Y-31340000D01*
X500000Y-29000000D01*
X2844571Y-29000000D01*
X2864244Y-29212311D01*
X2867877Y-29225078D01*
X2922595Y-29417389D01*
X3017634Y-29608255D01*
X3146128Y-29778407D01*
X3194905Y-29822873D01*
X3303692Y-29922047D01*
X3303699Y-29922053D01*
X3407389Y-29986255D01*
X3484981Y-30034298D01*
X3683802Y-30111321D01*
X3893390Y-30150500D01*
X4106610Y-30150500D01*
X4316198Y-30111321D01*
X4515019Y-30034298D01*
X4696302Y-29922052D01*
X4798152Y-29829203D01*
X17525001Y-29829203D01*
X17527850Y-29859600D01*
X17527850Y-29859602D01*
X17572654Y-29987647D01*
X17653207Y-30096790D01*
X17653209Y-30096792D01*
X17762352Y-30177345D01*
X17890399Y-30222149D01*
X17920788Y-30224999D01*
X17974999Y-30224998D01*
X17975000Y-30224998D01*
X18375000Y-30224998D01*
X18375001Y-30224999D01*
X18429203Y-30224999D01*
X18459600Y-30222149D01*
X18459602Y-30222149D01*
X18587647Y-30177345D01*
X18696790Y-30096792D01*
X18696792Y-30096790D01*
X18777345Y-29987647D01*
X18822149Y-29859601D01*
X18824999Y-29829211D01*
X18825000Y-29829210D01*
X18825000Y-29700001D01*
X18824999Y-29700000D01*
X18375001Y-29700000D01*
X18375000Y-29700001D01*
X18375000Y-30224998D01*
X17975000Y-30224998D01*
X17975000Y-29700001D01*
X17974999Y-29700000D01*
X17525002Y-29700000D01*
X17525001Y-29700001D01*
X17525001Y-29829203D01*
X4798152Y-29829203D01*
X4853872Y-29778407D01*
X4982366Y-29608255D01*
X5046043Y-29480373D01*
X5088905Y-29436710D01*
X5134664Y-29425500D01*
X5778216Y-29425500D01*
X5836407Y-29444407D01*
X5870974Y-29489904D01*
X5881203Y-29517330D01*
X5881204Y-29517332D01*
X5962179Y-29625500D01*
X5967454Y-29632546D01*
X5967457Y-29632548D01*
X5967458Y-29632549D01*
X6082670Y-29718797D01*
X6217511Y-29769089D01*
X6217512Y-29769089D01*
X6217517Y-29769091D01*
X6277127Y-29775500D01*
X6772872Y-29775499D01*
X6832483Y-29769091D01*
X6899907Y-29743943D01*
X6967329Y-29718797D01*
X6967329Y-29718796D01*
X6967331Y-29718796D01*
X7082546Y-29632546D01*
X7168796Y-29517331D01*
X7182581Y-29480373D01*
X7219089Y-29382488D01*
X7219090Y-29382485D01*
X7219091Y-29382483D01*
X7225500Y-29322873D01*
X7225500Y-29322866D01*
X7474500Y-29322866D01*
X7474501Y-29322870D01*
X7480908Y-29382480D01*
X7480909Y-29382485D01*
X7531202Y-29517329D01*
X7612179Y-29625500D01*
X7617454Y-29632546D01*
X7617457Y-29632548D01*
X7617458Y-29632549D01*
X7732670Y-29718797D01*
X7867511Y-29769089D01*
X7867512Y-29769089D01*
X7867517Y-29769091D01*
X7927127Y-29775500D01*
X8422872Y-29775499D01*
X8482483Y-29769091D01*
X8549907Y-29743943D01*
X8617329Y-29718797D01*
X8617329Y-29718796D01*
X8617331Y-29718796D01*
X8732546Y-29632546D01*
X8818796Y-29517331D01*
X8832581Y-29480373D01*
X8869089Y-29382488D01*
X8869090Y-29382485D01*
X8869091Y-29382483D01*
X8875500Y-29322873D01*
X8875500Y-29299999D01*
X17525000Y-29299999D01*
X17525001Y-29300000D01*
X17974999Y-29300000D01*
X17975000Y-29299999D01*
X18375000Y-29299999D01*
X18375001Y-29300000D01*
X18824998Y-29300000D01*
X18824999Y-29299999D01*
X18824999Y-29170796D01*
X18822149Y-29140399D01*
X18822149Y-29140397D01*
X18777345Y-29012352D01*
X18696792Y-28903209D01*
X18696790Y-28903207D01*
X18587647Y-28822654D01*
X18459601Y-28777850D01*
X18429211Y-28775000D01*
X18375001Y-28775000D01*
X18375000Y-28775001D01*
X18375000Y-29299999D01*
X17975000Y-29299999D01*
X17975000Y-28774999D01*
X17920796Y-28775000D01*
X17890399Y-28777850D01*
X17890397Y-28777850D01*
X17762352Y-28822654D01*
X17653209Y-28903207D01*
X17653207Y-28903209D01*
X17572654Y-29012352D01*
X17527850Y-29140398D01*
X17525000Y-29170788D01*
X17525000Y-29299999D01*
X8875500Y-29299999D01*
X8875499Y-29073237D01*
X8883224Y-29041072D01*
X8881442Y-29040494D01*
X8891919Y-29008244D01*
X8897868Y-28993883D01*
X8903582Y-28982669D01*
X8909719Y-28970626D01*
X8913804Y-28944828D01*
X8917429Y-28929728D01*
X8925500Y-28904893D01*
X8925500Y-28865513D01*
X8944407Y-28807322D01*
X8945958Y-28805246D01*
X8964406Y-28781204D01*
X9024536Y-28702841D01*
X9085044Y-28556762D01*
X9105682Y-28400000D01*
X9085044Y-28243238D01*
X9077283Y-28224501D01*
X9024537Y-28097161D01*
X9024537Y-28097160D01*
X8928286Y-27971723D01*
X8928285Y-27971722D01*
X8928282Y-27971718D01*
X8928277Y-27971714D01*
X8928276Y-27971713D01*
X8812546Y-27882911D01*
X8802841Y-27875464D01*
X8802840Y-27875463D01*
X8802838Y-27875462D01*
X8656766Y-27814957D01*
X8656758Y-27814955D01*
X8500001Y-27794318D01*
X8499999Y-27794318D01*
X8343241Y-27814955D01*
X8343233Y-27814957D01*
X8197161Y-27875462D01*
X8197160Y-27875462D01*
X8071723Y-27971713D01*
X8071713Y-27971723D01*
X7975462Y-28097160D01*
X7975461Y-28097163D01*
X7944988Y-28170729D01*
X7905251Y-28217254D01*
X7873236Y-28228167D01*
X7873548Y-28229484D01*
X7867514Y-28230909D01*
X7732670Y-28281202D01*
X7617458Y-28367450D01*
X7617450Y-28367458D01*
X7531202Y-28482670D01*
X7480910Y-28617511D01*
X7480908Y-28617522D01*
X7474500Y-28677129D01*
X7474500Y-29322866D01*
X7225500Y-29322866D01*
X7225499Y-28677128D01*
X7219091Y-28617517D01*
X7196897Y-28558011D01*
X7168797Y-28482670D01*
X7082549Y-28367458D01*
X7082548Y-28367457D01*
X7082546Y-28367454D01*
X7082541Y-28367450D01*
X6967329Y-28281202D01*
X6832488Y-28230910D01*
X6832483Y-28230909D01*
X6832481Y-28230908D01*
X6832477Y-28230908D01*
X6801249Y-28227550D01*
X6772873Y-28224500D01*
X6772870Y-28224500D01*
X6277133Y-28224500D01*
X6277129Y-28224500D01*
X6277128Y-28224501D01*
X6272514Y-28224997D01*
X6217519Y-28230908D01*
X6217514Y-28230909D01*
X6082670Y-28281202D01*
X5967458Y-28367450D01*
X5967450Y-28367458D01*
X5881204Y-28482667D01*
X5881203Y-28482669D01*
X5870974Y-28510096D01*
X5832924Y-28558011D01*
X5778216Y-28574500D01*
X5134664Y-28574500D01*
X5076473Y-28555593D01*
X5046043Y-28519627D01*
X4982371Y-28391755D01*
X4982369Y-28391752D01*
X4982366Y-28391745D01*
X4853872Y-28221593D01*
X4769740Y-28144896D01*
X4696307Y-28077952D01*
X4696300Y-28077946D01*
X4515024Y-27965705D01*
X4515019Y-27965702D01*
X4367197Y-27908436D01*
X4316198Y-27888679D01*
X4316197Y-27888678D01*
X4316195Y-27888678D01*
X4106610Y-27849500D01*
X3893390Y-27849500D01*
X3683804Y-27888678D01*
X3484980Y-27965702D01*
X3484975Y-27965705D01*
X3303699Y-28077946D01*
X3303692Y-28077952D01*
X3146135Y-28221586D01*
X3146131Y-28221589D01*
X3146128Y-28221593D01*
X3146125Y-28221597D01*
X3017635Y-28391743D01*
X3017630Y-28391752D01*
X2922596Y-28582608D01*
X2864244Y-28787688D01*
X2844571Y-29000000D01*
X500000Y-29000000D01*
X500000Y-26460000D01*
X2844571Y-26460000D01*
X2864244Y-26672311D01*
X2874343Y-26707805D01*
X2922595Y-26877389D01*
X3017634Y-27068255D01*
X3146128Y-27238407D01*
X3207923Y-27294741D01*
X3303692Y-27382047D01*
X3303699Y-27382053D01*
X3385042Y-27432418D01*
X3484981Y-27494298D01*
X3683802Y-27571321D01*
X3893390Y-27610500D01*
X4106610Y-27610500D01*
X4316198Y-27571321D01*
X4515019Y-27494298D01*
X4696302Y-27382052D01*
X4853872Y-27238407D01*
X4982366Y-27068255D01*
X5046043Y-26940373D01*
X5088905Y-26896710D01*
X5134664Y-26885500D01*
X5778216Y-26885500D01*
X5836407Y-26904407D01*
X5870974Y-26949904D01*
X5881203Y-26977330D01*
X5881204Y-26977332D01*
X5949270Y-27068256D01*
X5967454Y-27092546D01*
X5967457Y-27092548D01*
X5967458Y-27092549D01*
X6082670Y-27178797D01*
X6217511Y-27229089D01*
X6217512Y-27229089D01*
X6217517Y-27229091D01*
X6277127Y-27235500D01*
X6772872Y-27235499D01*
X6832483Y-27229091D01*
X6899907Y-27203943D01*
X6967329Y-27178797D01*
X6967329Y-27178796D01*
X6967331Y-27178796D01*
X7082546Y-27092546D01*
X7168796Y-26977331D01*
X7170657Y-26972343D01*
X7219089Y-26842488D01*
X7219090Y-26842485D01*
X7219091Y-26842483D01*
X7225500Y-26782873D01*
X7225499Y-26137128D01*
X7219091Y-26077517D01*
X7199531Y-26025074D01*
X7168797Y-25942670D01*
X7082549Y-25827458D01*
X7082548Y-25827457D01*
X7082546Y-25827454D01*
X7079888Y-25825464D01*
X6967329Y-25741202D01*
X6832488Y-25690910D01*
X6832483Y-25690909D01*
X6832481Y-25690908D01*
X6832477Y-25690908D01*
X6801249Y-25687550D01*
X6772873Y-25684500D01*
X6772870Y-25684500D01*
X6277133Y-25684500D01*
X6277129Y-25684500D01*
X6277128Y-25684501D01*
X6269949Y-25685272D01*
X6217519Y-25690908D01*
X6217514Y-25690909D01*
X6082670Y-25741202D01*
X5967458Y-25827450D01*
X5967450Y-25827458D01*
X5881204Y-25942667D01*
X5881203Y-25942669D01*
X5870974Y-25970096D01*
X5832924Y-26018011D01*
X5778216Y-26034500D01*
X5134664Y-26034500D01*
X5076473Y-26015593D01*
X5046043Y-25979627D01*
X4982371Y-25851755D01*
X4982369Y-25851752D01*
X4982366Y-25851745D01*
X4853872Y-25681593D01*
X4729785Y-25568472D01*
X4696307Y-25537952D01*
X4696300Y-25537946D01*
X4515024Y-25425705D01*
X4515019Y-25425702D01*
X4327460Y-25353042D01*
X4316198Y-25348679D01*
X4316197Y-25348678D01*
X4316195Y-25348678D01*
X4106610Y-25309500D01*
X3893390Y-25309500D01*
X3683804Y-25348678D01*
X3484980Y-25425702D01*
X3484975Y-25425705D01*
X3303699Y-25537946D01*
X3303692Y-25537952D01*
X3146135Y-25681586D01*
X3146131Y-25681589D01*
X3146128Y-25681593D01*
X3146125Y-25681597D01*
X3017635Y-25851743D01*
X3017630Y-25851752D01*
X2922596Y-26042608D01*
X2922595Y-26042611D01*
X2915248Y-26068434D01*
X2864244Y-26247688D01*
X2844571Y-26460000D01*
X500000Y-26460000D01*
X500000Y-23920000D01*
X2844571Y-23920000D01*
X2864244Y-24132311D01*
X2874522Y-24168432D01*
X2922595Y-24337389D01*
X3017634Y-24528255D01*
X3146128Y-24698407D01*
X3146135Y-24698413D01*
X3303692Y-24842047D01*
X3303699Y-24842053D01*
X3305400Y-24843106D01*
X3484981Y-24954298D01*
X3683802Y-25031321D01*
X3893390Y-25070500D01*
X4106610Y-25070500D01*
X4316198Y-25031321D01*
X4515019Y-24954298D01*
X4696302Y-24842052D01*
X4853872Y-24698407D01*
X4982366Y-24528255D01*
X5046043Y-24400373D01*
X5088905Y-24356710D01*
X5134664Y-24345500D01*
X5784087Y-24345500D01*
X5842278Y-24364407D01*
X5878240Y-24413904D01*
X5882569Y-24427227D01*
X5886194Y-24442326D01*
X5890281Y-24468126D01*
X5902137Y-24491395D01*
X5908080Y-24505744D01*
X5916150Y-24530581D01*
X5931501Y-24551710D01*
X5939617Y-24564954D01*
X5951470Y-24588218D01*
X5951473Y-24588221D01*
X5975443Y-24612192D01*
X5975446Y-24612194D01*
X6366469Y-25003219D01*
X6366470Y-25003219D01*
X6366471Y-25003220D01*
X6366470Y-25003220D01*
X6461777Y-25098527D01*
X6461778Y-25098527D01*
X6461779Y-25098528D01*
X6485049Y-25110384D01*
X6498283Y-25118494D01*
X6519418Y-25133849D01*
X6544252Y-25141917D01*
X6558605Y-25147862D01*
X6581873Y-25159719D01*
X6607665Y-25163803D01*
X6622775Y-25167431D01*
X6647606Y-25175500D01*
X6681511Y-25175500D01*
X8100952Y-25175500D01*
X8159143Y-25194407D01*
X8195107Y-25243907D01*
X8195107Y-25305093D01*
X8161219Y-25353042D01*
X8071722Y-25421714D01*
X8071713Y-25421723D01*
X7975463Y-25547160D01*
X7940561Y-25631421D01*
X7900824Y-25677947D01*
X7871869Y-25689880D01*
X7867519Y-25690908D01*
X7732670Y-25741202D01*
X7617458Y-25827450D01*
X7617450Y-25827458D01*
X7531202Y-25942670D01*
X7480910Y-26077511D01*
X7480908Y-26077522D01*
X7474500Y-26137129D01*
X7474500Y-26782866D01*
X7474501Y-26782870D01*
X7480908Y-26842480D01*
X7480909Y-26842485D01*
X7531202Y-26977329D01*
X7599270Y-27068256D01*
X7617454Y-27092546D01*
X7617457Y-27092548D01*
X7617458Y-27092549D01*
X7732670Y-27178797D01*
X7867511Y-27229089D01*
X7867512Y-27229089D01*
X7867517Y-27229091D01*
X7927127Y-27235500D01*
X8422872Y-27235499D01*
X8482483Y-27229091D01*
X8549907Y-27203943D01*
X8617329Y-27178797D01*
X8617329Y-27178796D01*
X8617331Y-27178796D01*
X8732546Y-27092546D01*
X8818796Y-26977331D01*
X8820657Y-26972343D01*
X8869089Y-26842488D01*
X8869090Y-26842485D01*
X8869091Y-26842483D01*
X8875500Y-26782873D01*
X8875499Y-26533237D01*
X8883224Y-26501072D01*
X8881442Y-26500494D01*
X8891919Y-26468244D01*
X8897868Y-26453883D01*
X8906829Y-26436297D01*
X8909719Y-26430626D01*
X8913804Y-26404828D01*
X8917429Y-26389728D01*
X8925500Y-26364893D01*
X8925500Y-26315513D01*
X8944407Y-26257322D01*
X8945958Y-26255246D01*
X8951756Y-26247690D01*
X9024536Y-26152841D01*
X9085044Y-26006762D01*
X9105682Y-25850000D01*
X9085044Y-25693238D01*
X9083653Y-25689880D01*
X9024537Y-25547161D01*
X9024537Y-25547160D01*
X8928286Y-25421723D01*
X8928285Y-25421722D01*
X8928282Y-25421718D01*
X8838780Y-25353041D01*
X8804125Y-25302618D01*
X8805726Y-25241454D01*
X8842973Y-25192912D01*
X8899048Y-25175500D01*
X10600952Y-25175500D01*
X10659143Y-25194407D01*
X10695107Y-25243907D01*
X10695107Y-25305093D01*
X10661219Y-25353042D01*
X10571722Y-25421714D01*
X10571713Y-25421723D01*
X10475462Y-25547160D01*
X10475462Y-25547161D01*
X10414957Y-25693233D01*
X10414955Y-25693241D01*
X10394318Y-25849999D01*
X10394318Y-25850000D01*
X10414955Y-26006758D01*
X10414957Y-26006766D01*
X10475462Y-26152838D01*
X10475462Y-26152839D01*
X10568816Y-26274500D01*
X10571718Y-26278282D01*
X10697159Y-26374536D01*
X10697160Y-26374536D01*
X10697161Y-26374537D01*
X10790678Y-26413273D01*
X10843238Y-26435044D01*
X10956833Y-26449999D01*
X10999999Y-26455682D01*
X11000000Y-26455682D01*
X11000001Y-26455682D01*
X11043167Y-26449999D01*
X11156762Y-26435044D01*
X11302841Y-26374536D01*
X11428282Y-26278282D01*
X11524536Y-26152841D01*
X11585044Y-26006762D01*
X11593495Y-25942564D01*
X11619833Y-25887342D01*
X11653759Y-25864024D01*
X12090707Y-25683035D01*
X12128592Y-25675500D01*
X12200952Y-25675500D01*
X12259143Y-25694407D01*
X12295107Y-25743907D01*
X12295107Y-25805093D01*
X12261219Y-25853042D01*
X12171722Y-25921714D01*
X12171713Y-25921723D01*
X12075462Y-26047160D01*
X12075462Y-26047161D01*
X12014957Y-26193233D01*
X12014955Y-26193241D01*
X11994318Y-26349999D01*
X11994318Y-26350000D01*
X12014955Y-26506758D01*
X12014957Y-26506766D01*
X12075462Y-26652838D01*
X12075462Y-26652839D01*
X12171713Y-26778276D01*
X12171718Y-26778282D01*
X12297159Y-26874536D01*
X12297160Y-26874536D01*
X12297161Y-26874537D01*
X12369274Y-26904407D01*
X12443238Y-26935044D01*
X12556112Y-26949904D01*
X12599999Y-26955682D01*
X12600000Y-26955682D01*
X12600001Y-26955682D01*
X12643888Y-26949904D01*
X12756762Y-26935044D01*
X12902841Y-26874536D01*
X13028282Y-26778282D01*
X13124536Y-26652841D01*
X13185044Y-26506762D01*
X13193495Y-26442564D01*
X13219835Y-26387341D01*
X13253760Y-26364024D01*
X13594481Y-26222894D01*
X13690707Y-26183036D01*
X13728592Y-26175500D01*
X20201000Y-26175500D01*
X20259191Y-26194407D01*
X20295155Y-26243907D01*
X20300000Y-26274500D01*
X20300000Y-27900000D01*
X21801356Y-27900000D01*
X21841340Y-27908434D01*
X21930009Y-27947585D01*
X21955135Y-27950500D01*
X23044864Y-27950499D01*
X23069991Y-27947585D01*
X23110011Y-27929913D01*
X23170879Y-27923705D01*
X23189989Y-27929914D01*
X23230009Y-27947585D01*
X23230008Y-27947585D01*
X23234478Y-27948103D01*
X23255135Y-27950500D01*
X24344864Y-27950499D01*
X24369991Y-27947585D01*
X24450002Y-27912257D01*
X24458656Y-27908436D01*
X24498644Y-27900000D01*
X24999999Y-27900000D01*
X25000000Y-27900000D01*
X25000000Y-26743106D01*
X28574500Y-26743106D01*
X28585123Y-26831565D01*
X28640637Y-26972339D01*
X28640638Y-26972341D01*
X28640639Y-26972342D01*
X28732078Y-27092922D01*
X28732081Y-27092924D01*
X28845320Y-27178797D01*
X28852658Y-27184361D01*
X28931793Y-27215568D01*
X28978988Y-27254503D01*
X28993625Y-27294741D01*
X29014955Y-27456759D01*
X29014957Y-27456766D01*
X29075462Y-27602838D01*
X29075462Y-27602839D01*
X29171713Y-27728276D01*
X29171718Y-27728282D01*
X29297159Y-27824536D01*
X29297160Y-27824536D01*
X29297161Y-27824537D01*
X29438088Y-27882911D01*
X29443238Y-27885044D01*
X29549473Y-27899030D01*
X29604698Y-27925371D01*
X29633893Y-27979142D01*
X29625907Y-28039804D01*
X29596818Y-28075725D01*
X29471723Y-28171713D01*
X29471713Y-28171723D01*
X29375462Y-28297160D01*
X29375462Y-28297161D01*
X29314957Y-28443233D01*
X29314955Y-28443241D01*
X29294318Y-28599999D01*
X29294318Y-28600000D01*
X29314955Y-28756758D01*
X29314957Y-28756766D01*
X29375462Y-28902838D01*
X29375462Y-28902839D01*
X29471713Y-29028276D01*
X29471718Y-29028282D01*
X29471722Y-29028285D01*
X29471723Y-29028286D01*
X29487641Y-29040500D01*
X29597159Y-29124536D01*
X29597160Y-29124536D01*
X29597161Y-29124537D01*
X29714472Y-29173129D01*
X29760998Y-29212865D01*
X29768684Y-29228274D01*
X29815637Y-29347339D01*
X29815638Y-29347341D01*
X29815639Y-29347342D01*
X29907078Y-29467922D01*
X30027658Y-29559361D01*
X30027659Y-29559361D01*
X30027660Y-29559362D01*
X30098047Y-29587119D01*
X30168436Y-29614877D01*
X30256898Y-29625500D01*
X30256900Y-29625500D01*
X30843100Y-29625500D01*
X30843102Y-29625500D01*
X30931564Y-29614877D01*
X31072342Y-29559361D01*
X31192922Y-29467922D01*
X31284361Y-29347342D01*
X31339877Y-29206564D01*
X31349933Y-29122824D01*
X31699999Y-29122824D01*
X31706401Y-29182370D01*
X31706403Y-29182381D01*
X31756646Y-29317088D01*
X31756647Y-29317090D01*
X31842807Y-29432184D01*
X31842815Y-29432192D01*
X31957909Y-29518352D01*
X31957911Y-29518353D01*
X32092618Y-29568596D01*
X32092629Y-29568598D01*
X32152176Y-29575000D01*
X32249999Y-29575000D01*
X32250000Y-29574999D01*
X32650000Y-29574999D01*
X32650001Y-29575000D01*
X32747824Y-29575000D01*
X32807370Y-29568598D01*
X32807381Y-29568596D01*
X32942088Y-29518353D01*
X32942090Y-29518352D01*
X33057184Y-29432192D01*
X33057192Y-29432184D01*
X33143352Y-29317090D01*
X33143353Y-29317088D01*
X33193596Y-29182381D01*
X33193598Y-29182370D01*
X33200000Y-29122824D01*
X33200000Y-28800001D01*
X33199999Y-28800000D01*
X32650001Y-28800000D01*
X32650000Y-28800001D01*
X32650000Y-29574999D01*
X32250000Y-29574999D01*
X32250000Y-28800001D01*
X32249999Y-28800000D01*
X31700001Y-28800000D01*
X31700000Y-28800001D01*
X31700000Y-29122824D01*
X31699999Y-29122824D01*
X31349933Y-29122824D01*
X31350500Y-29118102D01*
X31350500Y-28600000D01*
X33394318Y-28600000D01*
X33414955Y-28756758D01*
X33414957Y-28756766D01*
X33475462Y-28902838D01*
X33475462Y-28902839D01*
X33571713Y-29028276D01*
X33571718Y-29028282D01*
X33571722Y-29028285D01*
X33571723Y-29028286D01*
X33587641Y-29040500D01*
X33697159Y-29124536D01*
X33697160Y-29124536D01*
X33697161Y-29124537D01*
X33824139Y-29177133D01*
X33843238Y-29185044D01*
X34000000Y-29205682D01*
X34044846Y-29199777D01*
X34105004Y-29210926D01*
X34119147Y-29221486D01*
X34119527Y-29220986D01*
X34124920Y-29225076D01*
X34124922Y-29225078D01*
X34240025Y-29312364D01*
X34240026Y-29312364D01*
X34240027Y-29312365D01*
X34272062Y-29324998D01*
X34374410Y-29365359D01*
X34458856Y-29375500D01*
X34458858Y-29375500D01*
X34991142Y-29375500D01*
X34991144Y-29375500D01*
X35075590Y-29365359D01*
X35209975Y-29312364D01*
X35325078Y-29225078D01*
X35412364Y-29109975D01*
X35434681Y-29053381D01*
X35473615Y-29006188D01*
X35532857Y-28990890D01*
X35589777Y-29013336D01*
X35619534Y-29055104D01*
X35628813Y-29079982D01*
X35710668Y-29189327D01*
X35710672Y-29189331D01*
X35820016Y-29271185D01*
X35947990Y-29318916D01*
X35947998Y-29318918D01*
X36004566Y-29324999D01*
X36074999Y-29324998D01*
X36075000Y-29324998D01*
X36475000Y-29324998D01*
X36475001Y-29324999D01*
X36545431Y-29324999D01*
X36545436Y-29324998D01*
X36602004Y-29318918D01*
X36602006Y-29318917D01*
X36729983Y-29271185D01*
X36839327Y-29189331D01*
X36839331Y-29189327D01*
X36921185Y-29079983D01*
X36968916Y-28952009D01*
X36968918Y-28952001D01*
X36975000Y-28895434D01*
X36975000Y-28800001D01*
X36974999Y-28800000D01*
X36475001Y-28800000D01*
X36475000Y-28800001D01*
X36475000Y-29324998D01*
X36075000Y-29324998D01*
X36075000Y-28399999D01*
X36475000Y-28399999D01*
X36475001Y-28400000D01*
X36974998Y-28400000D01*
X36974999Y-28399999D01*
X36974999Y-28304569D01*
X36974998Y-28304563D01*
X36968918Y-28247995D01*
X36968917Y-28247993D01*
X36921185Y-28120016D01*
X36839331Y-28010672D01*
X36839327Y-28010668D01*
X36729983Y-27928814D01*
X36602009Y-27881083D01*
X36602001Y-27881081D01*
X36545434Y-27875000D01*
X36475001Y-27875000D01*
X36475000Y-27875001D01*
X36475000Y-28399999D01*
X36075000Y-28399999D01*
X36075000Y-27874999D01*
X36004570Y-27875000D01*
X36004562Y-27875001D01*
X35947995Y-27881081D01*
X35947993Y-27881082D01*
X35820016Y-27928814D01*
X35710672Y-28010668D01*
X35710668Y-28010672D01*
X35628814Y-28120017D01*
X35619534Y-28144896D01*
X35581482Y-28192809D01*
X35522534Y-28209205D01*
X35465207Y-28187821D01*
X35434681Y-28146616D01*
X35412364Y-28090025D01*
X35325078Y-27974922D01*
X35209975Y-27887636D01*
X35209974Y-27887635D01*
X35209972Y-27887634D01*
X35075591Y-27834641D01*
X34991148Y-27824500D01*
X34991144Y-27824500D01*
X34458856Y-27824500D01*
X34458851Y-27824500D01*
X34374408Y-27834641D01*
X34240027Y-27887634D01*
X34195076Y-27921721D01*
X34124922Y-27974922D01*
X34124920Y-27974923D01*
X34119527Y-27979014D01*
X34118030Y-27977040D01*
X34073230Y-27999853D01*
X34044848Y-28000221D01*
X34000003Y-27994318D01*
X33999999Y-27994318D01*
X33843241Y-28014955D01*
X33843233Y-28014957D01*
X33697161Y-28075462D01*
X33697160Y-28075462D01*
X33571723Y-28171713D01*
X33571713Y-28171723D01*
X33475462Y-28297160D01*
X33475462Y-28297161D01*
X33414957Y-28443233D01*
X33414955Y-28443241D01*
X33394318Y-28599999D01*
X33394318Y-28600000D01*
X31350500Y-28600000D01*
X31350500Y-28399999D01*
X31700000Y-28399999D01*
X31700001Y-28400000D01*
X32249999Y-28400000D01*
X32250000Y-28399999D01*
X32650000Y-28399999D01*
X32650001Y-28400000D01*
X33199999Y-28400000D01*
X33200000Y-28399999D01*
X33200000Y-28077175D01*
X33193598Y-28017629D01*
X33193596Y-28017618D01*
X33143353Y-27882911D01*
X33143352Y-27882909D01*
X33057192Y-27767815D01*
X33057184Y-27767807D01*
X32942090Y-27681647D01*
X32942088Y-27681646D01*
X32807381Y-27631403D01*
X32807370Y-27631401D01*
X32747824Y-27625000D01*
X32650001Y-27625000D01*
X32650000Y-27625001D01*
X32650000Y-28399999D01*
X32250000Y-28399999D01*
X32250000Y-27625001D01*
X32249999Y-27625000D01*
X32152176Y-27625000D01*
X32092629Y-27631401D01*
X32092618Y-27631403D01*
X31957911Y-27681646D01*
X31957909Y-27681647D01*
X31842815Y-27767807D01*
X31842807Y-27767815D01*
X31756647Y-27882909D01*
X31756646Y-27882911D01*
X31706403Y-28017618D01*
X31706401Y-28017629D01*
X31700000Y-28077175D01*
X31700000Y-28399999D01*
X31350500Y-28399999D01*
X31350500Y-28081898D01*
X31339877Y-27993436D01*
X31298154Y-27887634D01*
X31284362Y-27852660D01*
X31284361Y-27852659D01*
X31284361Y-27852658D01*
X31192922Y-27732078D01*
X31072342Y-27640639D01*
X31072341Y-27640638D01*
X31072339Y-27640637D01*
X30931565Y-27585123D01*
X30843106Y-27574500D01*
X30843102Y-27574500D01*
X30282431Y-27574500D01*
X30224240Y-27555593D01*
X30188276Y-27506093D01*
X30184278Y-27462578D01*
X30187693Y-27436643D01*
X30205682Y-27300000D01*
X30205681Y-27299999D01*
X30206374Y-27294742D01*
X30232715Y-27239517D01*
X30268204Y-27215568D01*
X30347342Y-27184361D01*
X30467922Y-27092922D01*
X30559361Y-26972342D01*
X30614877Y-26831564D01*
X30625500Y-26743102D01*
X30625500Y-26156898D01*
X30614877Y-26068436D01*
X30579855Y-25979627D01*
X30559362Y-25927660D01*
X30559361Y-25927659D01*
X30559361Y-25927658D01*
X30467922Y-25807078D01*
X30347342Y-25715639D01*
X30347341Y-25715638D01*
X30347339Y-25715637D01*
X30206565Y-25660123D01*
X30118106Y-25649500D01*
X30118102Y-25649500D01*
X29081898Y-25649500D01*
X29081893Y-25649500D01*
X28993434Y-25660123D01*
X28852660Y-25715637D01*
X28852656Y-25715640D01*
X28732081Y-25807075D01*
X28732075Y-25807081D01*
X28640640Y-25927656D01*
X28640637Y-25927660D01*
X28585123Y-26068434D01*
X28574500Y-26156893D01*
X28574500Y-26743106D01*
X25000000Y-26743106D01*
X25000000Y-26499647D01*
X25000847Y-26486725D01*
X25005682Y-26450000D01*
X25005682Y-26449999D01*
X25000847Y-26413273D01*
X25000000Y-26400351D01*
X25000000Y-26022868D01*
X25018907Y-25964677D01*
X25068407Y-25928713D01*
X25129593Y-25928713D01*
X25177883Y-25963048D01*
X25224922Y-26025078D01*
X25340025Y-26112364D01*
X25340026Y-26112364D01*
X25340027Y-26112365D01*
X25402819Y-26137127D01*
X25474410Y-26165359D01*
X25558856Y-26175500D01*
X25558858Y-26175500D01*
X26091142Y-26175500D01*
X26091144Y-26175500D01*
X26175590Y-26165359D01*
X26309975Y-26112364D01*
X26425078Y-26025078D01*
X26512364Y-25909975D01*
X26512367Y-25909966D01*
X26513705Y-25907590D01*
X26515253Y-25906163D01*
X26516455Y-25904579D01*
X26516739Y-25904794D01*
X26558704Y-25866133D01*
X26619478Y-25859044D01*
X26672811Y-25889030D01*
X26686295Y-25907590D01*
X26687633Y-25909969D01*
X26687634Y-25909970D01*
X26687636Y-25909975D01*
X26774922Y-26025078D01*
X26890025Y-26112364D01*
X26890026Y-26112364D01*
X26890027Y-26112365D01*
X26952819Y-26137127D01*
X27024410Y-26165359D01*
X27108856Y-26175500D01*
X27108858Y-26175500D01*
X27641142Y-26175500D01*
X27641144Y-26175500D01*
X27725590Y-26165359D01*
X27859975Y-26112364D01*
X27975078Y-26025078D01*
X28062364Y-25909975D01*
X28115359Y-25775590D01*
X28125500Y-25691144D01*
X28125500Y-25108856D01*
X28115359Y-25024410D01*
X28062364Y-24890025D01*
X27975078Y-24774922D01*
X27859975Y-24687636D01*
X27859974Y-24687635D01*
X27859972Y-24687634D01*
X27725591Y-24634641D01*
X27641148Y-24624500D01*
X27641144Y-24624500D01*
X27513562Y-24624500D01*
X27455371Y-24605593D01*
X27427276Y-24574036D01*
X26971500Y-23763768D01*
X26962017Y-23740319D01*
X26953469Y-23707688D01*
X26927345Y-23607958D01*
X26930890Y-23546879D01*
X26969661Y-23499545D01*
X27028849Y-23484040D01*
X27043376Y-23485970D01*
X27076543Y-23492905D01*
X27089056Y-23496392D01*
X28539032Y-24005157D01*
X28587680Y-24042263D01*
X28605226Y-24100878D01*
X28598351Y-24134888D01*
X28585123Y-24168432D01*
X28574500Y-24256893D01*
X28574500Y-24843106D01*
X28585123Y-24931565D01*
X28640637Y-25072339D01*
X28640638Y-25072341D01*
X28640639Y-25072342D01*
X28732078Y-25192922D01*
X28852658Y-25284361D01*
X28852659Y-25284361D01*
X28852660Y-25284362D01*
X28898954Y-25302618D01*
X28993436Y-25339877D01*
X29081898Y-25350500D01*
X29081900Y-25350500D01*
X30118100Y-25350500D01*
X30118102Y-25350500D01*
X30206564Y-25339877D01*
X30347342Y-25284361D01*
X30467922Y-25192922D01*
X30559361Y-25072342D01*
X30614877Y-24931564D01*
X30625500Y-24843102D01*
X30625500Y-24256898D01*
X30614877Y-24168436D01*
X30559361Y-24027658D01*
X30467922Y-23907078D01*
X30347342Y-23815639D01*
X30347341Y-23815638D01*
X30347339Y-23815637D01*
X30206565Y-23760123D01*
X30118106Y-23749500D01*
X30118102Y-23749500D01*
X29866305Y-23749500D01*
X29808114Y-23730593D01*
X29785540Y-23707754D01*
X29785493Y-23707688D01*
X29704223Y-23593044D01*
X29697419Y-23581972D01*
X29696306Y-23579863D01*
X29696305Y-23579859D01*
X29665115Y-23537522D01*
X29659028Y-23529260D01*
X29657968Y-23527794D01*
X29641329Y-23504322D01*
X29638964Y-23501465D01*
X29639058Y-23501386D01*
X29634601Y-23496101D01*
X29615760Y-23470527D01*
X29615758Y-23470525D01*
X29615756Y-23470522D01*
X29598331Y-23457639D01*
X29585858Y-23446686D01*
X29570830Y-23431072D01*
X29543027Y-23415690D01*
X29532097Y-23408669D01*
X29519083Y-23399047D01*
X29506557Y-23389786D01*
X29506555Y-23389785D01*
X29486104Y-23382609D01*
X29470959Y-23375820D01*
X29451997Y-23365330D01*
X29420899Y-23358827D01*
X29408385Y-23355339D01*
X27518402Y-22692187D01*
X27470415Y-22656025D01*
X27432123Y-22602009D01*
X27271769Y-22375804D01*
X27218735Y-22300992D01*
X27200500Y-22243738D01*
X27200500Y-21903743D01*
X27200500Y-21903738D01*
X27187881Y-21820016D01*
X27184243Y-21795877D01*
X27187299Y-21795416D01*
X27188015Y-21747702D01*
X27224718Y-21698748D01*
X27281700Y-21680705D01*
X27337905Y-21680705D01*
X27378113Y-21689238D01*
X27738703Y-21849500D01*
X28205051Y-22056766D01*
X28298483Y-22098291D01*
X28312433Y-22106829D01*
X28312446Y-22106808D01*
X28313857Y-22107622D01*
X28314016Y-22107799D01*
X28320548Y-22111797D01*
X28325248Y-22115600D01*
X28323259Y-22118057D01*
X28354813Y-22153077D01*
X28355850Y-22155489D01*
X28375463Y-22202839D01*
X28375464Y-22202842D01*
X28471713Y-22328276D01*
X28471718Y-22328282D01*
X28597159Y-22424536D01*
X28597160Y-22424536D01*
X28597161Y-22424537D01*
X28718992Y-22475001D01*
X28743238Y-22485044D01*
X28860809Y-22500522D01*
X28899999Y-22505682D01*
X28900000Y-22505682D01*
X28900001Y-22505682D01*
X28931352Y-22501554D01*
X29056762Y-22485044D01*
X29202841Y-22424536D01*
X29239733Y-22396227D01*
X29297408Y-22375804D01*
X29356074Y-22393181D01*
X29360257Y-22396220D01*
X29397159Y-22424536D01*
X29397160Y-22424536D01*
X29397161Y-22424537D01*
X29518992Y-22475001D01*
X29543238Y-22485044D01*
X29660809Y-22500522D01*
X29699999Y-22505682D01*
X29700000Y-22505682D01*
X29700001Y-22505682D01*
X29731352Y-22501554D01*
X29856762Y-22485044D01*
X30002841Y-22424536D01*
X30128282Y-22328282D01*
X30224536Y-22202841D01*
X30285044Y-22056762D01*
X30305682Y-21900000D01*
X30305330Y-21897330D01*
X30287578Y-21762488D01*
X30285044Y-21743238D01*
X30281847Y-21735519D01*
X30277047Y-21674522D01*
X30309016Y-21622353D01*
X30365544Y-21598939D01*
X30425039Y-21613223D01*
X30452578Y-21641756D01*
X30453845Y-21640792D01*
X30457946Y-21646177D01*
X30457948Y-21646180D01*
X30565180Y-21752958D01*
X31533226Y-22294563D01*
X32087883Y-22604884D01*
X32129434Y-22649796D01*
X32134816Y-22664367D01*
X32154162Y-22732850D01*
X32154163Y-22732854D01*
X32212289Y-22839327D01*
X32240599Y-22891185D01*
X32318619Y-22979407D01*
X32360100Y-23026313D01*
X32469918Y-23105095D01*
X38972373Y-26743106D01*
X40114402Y-27382052D01*
X40204425Y-27432418D01*
X40211301Y-27436642D01*
X40255703Y-27466478D01*
X40255711Y-27466481D01*
X40327013Y-27493910D01*
X40329810Y-27495035D01*
X40400273Y-27524652D01*
X40452973Y-27533888D01*
X40460860Y-27535605D01*
X42262531Y-28005346D01*
X42270227Y-28007690D01*
X42320745Y-28025368D01*
X42396722Y-28033928D01*
X42399636Y-28034301D01*
X42475315Y-28045187D01*
X42528634Y-28040829D01*
X42536699Y-28040500D01*
X43825973Y-28040500D01*
X43884164Y-28059407D01*
X43911710Y-28090001D01*
X44008179Y-28257094D01*
X44008188Y-28257107D01*
X44176434Y-28468081D01*
X44176440Y-28468087D01*
X44374252Y-28651629D01*
X44374254Y-28651630D01*
X44374259Y-28651635D01*
X44597226Y-28803651D01*
X44840359Y-28920738D01*
X45098228Y-29000280D01*
X45365071Y-29040500D01*
X45365076Y-29040500D01*
X45634924Y-29040500D01*
X45634929Y-29040500D01*
X45901772Y-29000280D01*
X46159641Y-28920738D01*
X46402775Y-28803651D01*
X46625741Y-28651635D01*
X46823561Y-28468085D01*
X46823565Y-28468081D01*
X46959869Y-28297161D01*
X46991815Y-28257102D01*
X47126743Y-28023398D01*
X47225334Y-27772195D01*
X47285383Y-27509103D01*
X47304462Y-27254503D01*
X47305549Y-27240002D01*
X47305549Y-27239997D01*
X47285383Y-26970901D01*
X47285383Y-26970897D01*
X47225334Y-26707805D01*
X47211403Y-26672311D01*
X47146431Y-26506766D01*
X47126743Y-26456602D01*
X46991815Y-26222898D01*
X46969094Y-26194407D01*
X46823565Y-26011918D01*
X46823559Y-26011912D01*
X46625747Y-25828370D01*
X46625744Y-25828368D01*
X46625741Y-25828365D01*
X46402775Y-25676349D01*
X46401012Y-25675500D01*
X46159643Y-25559262D01*
X45901776Y-25479721D01*
X45901773Y-25479720D01*
X45901772Y-25479720D01*
X45901767Y-25479719D01*
X45901766Y-25479719D01*
X45634932Y-25439500D01*
X45634929Y-25439500D01*
X45365071Y-25439500D01*
X45365067Y-25439500D01*
X45098233Y-25479719D01*
X45098223Y-25479721D01*
X44840358Y-25559262D01*
X44597233Y-25676345D01*
X44597229Y-25676347D01*
X44597226Y-25676349D01*
X44374259Y-25828365D01*
X44374252Y-25828370D01*
X44176440Y-26011912D01*
X44176434Y-26011918D01*
X44008188Y-26222892D01*
X44008179Y-26222905D01*
X43911710Y-26389999D01*
X43866241Y-26430941D01*
X43825973Y-26439500D01*
X42615333Y-26439500D01*
X42590356Y-26436297D01*
X40940865Y-26006233D01*
X40917504Y-25996833D01*
X33504705Y-21849500D01*
X33463154Y-21804588D01*
X33455937Y-21743829D01*
X33485812Y-21690433D01*
X33541366Y-21664794D01*
X33569119Y-21665417D01*
X40051956Y-22732850D01*
X41292797Y-22937161D01*
X41309409Y-22941401D01*
X41320745Y-22945368D01*
X41387612Y-22952901D01*
X41392575Y-22953590D01*
X41403702Y-22955422D01*
X41414292Y-22957167D01*
X41414296Y-22957167D01*
X41414301Y-22957168D01*
X41431730Y-22958057D01*
X41437712Y-22958546D01*
X41455046Y-22960500D01*
X41477065Y-22960500D01*
X41482110Y-22960628D01*
X41489758Y-22961019D01*
X41549272Y-22964057D01*
X41549276Y-22964057D01*
X41561105Y-22961984D01*
X41578188Y-22960500D01*
X43825973Y-22960500D01*
X43884164Y-22979407D01*
X43911710Y-23010001D01*
X44008179Y-23177094D01*
X44008188Y-23177107D01*
X44176434Y-23388081D01*
X44176440Y-23388087D01*
X44374252Y-23571629D01*
X44374254Y-23571630D01*
X44374259Y-23571635D01*
X44597226Y-23723651D01*
X44840359Y-23840738D01*
X45098228Y-23920280D01*
X45365071Y-23960500D01*
X45365076Y-23960500D01*
X45634924Y-23960500D01*
X45634929Y-23960500D01*
X45901772Y-23920280D01*
X46159641Y-23840738D01*
X46402775Y-23723651D01*
X46625741Y-23571635D01*
X46815608Y-23395464D01*
X46823559Y-23388087D01*
X46823565Y-23388081D01*
X46972594Y-23201204D01*
X46991815Y-23177102D01*
X47126743Y-22943398D01*
X47225334Y-22692195D01*
X47285383Y-22429103D01*
X47305549Y-22160000D01*
X47304731Y-22149090D01*
X47289662Y-21947995D01*
X47285383Y-21890897D01*
X47225334Y-21627805D01*
X47211403Y-21592311D01*
X47165558Y-21475500D01*
X47126743Y-21376602D01*
X46991815Y-21142898D01*
X46973024Y-21119335D01*
X46823565Y-20931918D01*
X46823559Y-20931912D01*
X46625747Y-20748370D01*
X46625744Y-20748368D01*
X46625741Y-20748365D01*
X46402775Y-20596349D01*
X46373999Y-20582491D01*
X46159643Y-20479262D01*
X45901776Y-20399721D01*
X45901773Y-20399720D01*
X45901772Y-20399720D01*
X45901767Y-20399719D01*
X45901766Y-20399719D01*
X45634932Y-20359500D01*
X45634929Y-20359500D01*
X45365071Y-20359500D01*
X45365067Y-20359500D01*
X45098233Y-20399719D01*
X45098223Y-20399721D01*
X44840358Y-20479262D01*
X44597233Y-20596345D01*
X44597229Y-20596347D01*
X44597226Y-20596349D01*
X44374721Y-20748050D01*
X44374252Y-20748370D01*
X44176440Y-20931912D01*
X44176434Y-20931918D01*
X44008188Y-21142892D01*
X44008179Y-21142905D01*
X43911710Y-21309999D01*
X43866241Y-21350941D01*
X43825973Y-21359500D01*
X41573561Y-21359500D01*
X41557477Y-21358185D01*
X32985701Y-19946797D01*
X32985682Y-19946795D01*
X32850727Y-19939907D01*
X32850718Y-19939908D01*
X32673040Y-19971032D01*
X32673036Y-19971033D01*
X32506739Y-20040913D01*
X32506731Y-20040917D01*
X32448909Y-20082390D01*
X32390604Y-20100941D01*
X32375126Y-20099628D01*
X31776876Y-20001124D01*
X31722530Y-19973014D01*
X31695086Y-19918328D01*
X31705027Y-19857956D01*
X31724965Y-19834142D01*
X31723693Y-19832870D01*
X31728273Y-19828288D01*
X31728282Y-19828282D01*
X31824536Y-19702841D01*
X31885044Y-19556762D01*
X31905682Y-19400000D01*
X31885044Y-19243238D01*
X31846694Y-19150655D01*
X31841894Y-19089659D01*
X31873864Y-19037490D01*
X31924050Y-19014780D01*
X32362213Y-18951700D01*
X32422503Y-18962123D01*
X32435633Y-18970426D01*
X32492607Y-19013060D01*
X32492610Y-19013062D01*
X32657467Y-19086291D01*
X32834486Y-19121000D01*
X32969573Y-19116840D01*
X41550308Y-17881509D01*
X41564415Y-17880500D01*
X43825973Y-17880500D01*
X43884164Y-17899407D01*
X43911710Y-17930001D01*
X44008179Y-18097094D01*
X44008188Y-18097107D01*
X44176434Y-18308081D01*
X44176440Y-18308087D01*
X44374252Y-18491629D01*
X44374254Y-18491630D01*
X44374259Y-18491635D01*
X44597226Y-18643651D01*
X44840359Y-18760738D01*
X45098228Y-18840280D01*
X45365071Y-18880500D01*
X45365076Y-18880500D01*
X45634924Y-18880500D01*
X45634929Y-18880500D01*
X45901772Y-18840280D01*
X46159641Y-18760738D01*
X46402775Y-18643651D01*
X46625741Y-18491635D01*
X46823561Y-18308085D01*
X46823565Y-18308081D01*
X46941119Y-18160672D01*
X46991815Y-18097102D01*
X47126743Y-17863398D01*
X47225334Y-17612195D01*
X47285383Y-17349103D01*
X47300760Y-17143905D01*
X47305549Y-17080002D01*
X47305549Y-17079997D01*
X47285383Y-16810901D01*
X47285383Y-16810897D01*
X47225334Y-16547805D01*
X47216201Y-16524536D01*
X47192470Y-16464070D01*
X47126743Y-16296602D01*
X46991815Y-16062898D01*
X46963385Y-16027248D01*
X46823565Y-15851918D01*
X46823559Y-15851912D01*
X46625747Y-15668370D01*
X46625744Y-15668368D01*
X46625741Y-15668365D01*
X46402775Y-15516349D01*
X46402767Y-15516345D01*
X46159643Y-15399262D01*
X45901776Y-15319721D01*
X45901773Y-15319720D01*
X45901772Y-15319720D01*
X45901767Y-15319719D01*
X45901766Y-15319719D01*
X45634932Y-15279500D01*
X45634929Y-15279500D01*
X45365071Y-15279500D01*
X45365067Y-15279500D01*
X45098233Y-15319719D01*
X45098223Y-15319721D01*
X44840358Y-15399262D01*
X44597233Y-15516345D01*
X44597229Y-15516347D01*
X44597226Y-15516349D01*
X44374259Y-15668365D01*
X44374252Y-15668370D01*
X44176440Y-15851912D01*
X44176434Y-15851918D01*
X44008188Y-16062892D01*
X44008179Y-16062905D01*
X43911710Y-16229999D01*
X43866241Y-16270941D01*
X43825973Y-16279500D01*
X41587353Y-16279500D01*
X41568305Y-16277650D01*
X41565514Y-16277103D01*
X41565513Y-16277103D01*
X41489203Y-16279453D01*
X41486156Y-16279500D01*
X41455046Y-16279500D01*
X41455040Y-16279500D01*
X41455032Y-16279501D01*
X41446775Y-16280431D01*
X41438755Y-16281005D01*
X41430427Y-16281263D01*
X41416476Y-16283271D01*
X41399613Y-16285698D01*
X41396598Y-16286084D01*
X41320751Y-16294630D01*
X41320736Y-16294634D01*
X41318056Y-16295572D01*
X41299474Y-16300115D01*
X33537274Y-17417604D01*
X33476983Y-17407181D01*
X33434333Y-17363311D01*
X33425614Y-17302750D01*
X33454157Y-17248631D01*
X33476201Y-17232464D01*
X40901023Y-13232022D01*
X40923748Y-13223191D01*
X42587486Y-12803506D01*
X42611701Y-12800500D01*
X43600501Y-12800500D01*
X43658692Y-12819407D01*
X43694656Y-12868907D01*
X43699501Y-12899500D01*
X43699501Y-13544863D01*
X43702414Y-13569990D01*
X43725373Y-13621987D01*
X43747794Y-13672765D01*
X43827235Y-13752206D01*
X43930009Y-13797585D01*
X43955135Y-13800500D01*
X47044864Y-13800499D01*
X47069991Y-13797585D01*
X47172765Y-13752206D01*
X47252206Y-13672765D01*
X47297585Y-13569991D01*
X47300500Y-13544865D01*
X47300499Y-10455136D01*
X47297585Y-10430009D01*
X47252206Y-10327235D01*
X47172765Y-10247794D01*
X47069991Y-10202415D01*
X47069990Y-10202414D01*
X47069988Y-10202414D01*
X47044868Y-10199500D01*
X43955139Y-10199500D01*
X43955136Y-10199501D01*
X43930009Y-10202414D01*
X43827235Y-10247794D01*
X43747794Y-10327235D01*
X43702414Y-10430011D01*
X43699500Y-10455130D01*
X43699500Y-11100500D01*
X43680593Y-11158691D01*
X43631093Y-11194655D01*
X43600500Y-11199500D01*
X42540284Y-11199500D01*
X42531435Y-11199104D01*
X42481718Y-11194642D01*
X42481717Y-11194642D01*
X42481716Y-11194642D01*
X42448841Y-11199104D01*
X42402451Y-11205400D01*
X42400222Y-11205676D01*
X42320746Y-11214631D01*
X42320742Y-11214632D01*
X42273625Y-11231118D01*
X42265145Y-11233666D01*
X40462912Y-11688286D01*
X40454238Y-11690066D01*
X40404937Y-11697902D01*
X40404928Y-11697905D01*
X40330686Y-11727728D01*
X40328597Y-11728540D01*
X40253746Y-11756656D01*
X40212089Y-11784167D01*
X40204491Y-11788710D01*
X40145959Y-11820247D01*
X40085762Y-11831204D01*
X40030622Y-11804686D01*
X40001600Y-11750821D01*
X40000000Y-11733093D01*
X40000000Y-11700001D01*
X39999999Y-11700000D01*
X38500001Y-11700000D01*
X38500000Y-11700001D01*
X38500000Y-12022824D01*
X38499999Y-12022824D01*
X38506401Y-12082370D01*
X38506403Y-12082381D01*
X38556646Y-12217088D01*
X38556647Y-12217090D01*
X38642807Y-12332184D01*
X38642815Y-12332192D01*
X38750160Y-12412551D01*
X38785413Y-12462560D01*
X38784539Y-12523739D01*
X38747871Y-12572720D01*
X38737789Y-12578959D01*
X32480724Y-15950224D01*
X32369672Y-16027246D01*
X32369670Y-16027248D01*
X32248038Y-16160459D01*
X32159096Y-16317398D01*
X32138664Y-16385565D01*
X32103845Y-16435877D01*
X32090790Y-16444295D01*
X31184608Y-16932541D01*
X30605731Y-17244436D01*
X30605728Y-17244437D01*
X30605728Y-17244438D01*
X30514219Y-17311268D01*
X30420626Y-17430177D01*
X30420626Y-17430178D01*
X30404167Y-17469805D01*
X30364385Y-17516292D01*
X30359699Y-17518984D01*
X30255517Y-17575117D01*
X30232773Y-17583956D01*
X29291123Y-17821493D01*
X29266908Y-17824500D01*
X28317200Y-17824500D01*
X28259009Y-17805593D01*
X28223045Y-17756093D01*
X28223045Y-17694907D01*
X28256006Y-17647678D01*
X28380228Y-17549999D01*
X28797078Y-17222218D01*
X28854506Y-17201114D01*
X28871187Y-17201888D01*
X28900000Y-17205682D01*
X29056762Y-17185044D01*
X29202841Y-17124536D01*
X29328282Y-17028282D01*
X29424536Y-16902841D01*
X29485044Y-16756762D01*
X29505682Y-16600000D01*
X29501777Y-16570342D01*
X29498140Y-16542713D01*
X29485044Y-16443238D01*
X29426909Y-16302887D01*
X29424537Y-16297161D01*
X29424537Y-16297160D01*
X29328286Y-16171723D01*
X29328285Y-16171722D01*
X29328282Y-16171718D01*
X29328277Y-16171714D01*
X29328276Y-16171713D01*
X29218774Y-16087690D01*
X29202841Y-16075464D01*
X29202840Y-16075463D01*
X29202838Y-16075462D01*
X29056766Y-16014957D01*
X29056758Y-16014955D01*
X28900001Y-15994318D01*
X28899999Y-15994318D01*
X28743241Y-16014955D01*
X28743233Y-16014957D01*
X28597161Y-16075462D01*
X28597160Y-16075462D01*
X28471723Y-16171713D01*
X28471713Y-16171723D01*
X28375462Y-16297160D01*
X28375462Y-16297161D01*
X28314956Y-16443237D01*
X28309130Y-16487488D01*
X28282788Y-16542713D01*
X28272171Y-16552387D01*
X27340899Y-17284669D01*
X27283469Y-17305775D01*
X27224601Y-17289094D01*
X27186782Y-17240997D01*
X27180705Y-17206847D01*
X27180705Y-16744532D01*
X27181996Y-16728595D01*
X27182864Y-16723271D01*
X27185773Y-16705441D01*
X27177632Y-16666846D01*
X27175500Y-16646412D01*
X27175500Y-12132606D01*
X27167431Y-12107775D01*
X27163803Y-12092665D01*
X27163275Y-12089331D01*
X27159719Y-12066874D01*
X27147858Y-12043597D01*
X27141919Y-12029259D01*
X27133849Y-12004419D01*
X27118498Y-11983291D01*
X27110383Y-11970048D01*
X27098528Y-11946780D01*
X27003220Y-11851472D01*
X27003218Y-11851471D01*
X26997576Y-11845828D01*
X26997572Y-11845825D01*
X26727196Y-11575447D01*
X26703220Y-11551471D01*
X26703218Y-11551470D01*
X26679950Y-11539615D01*
X26666705Y-11531499D01*
X26645581Y-11516151D01*
X26645579Y-11516150D01*
X26620741Y-11508079D01*
X26606391Y-11502135D01*
X26602201Y-11500000D01*
X31794318Y-11500000D01*
X31814955Y-11656758D01*
X31814957Y-11656766D01*
X31875462Y-11802838D01*
X31875462Y-11802839D01*
X31971713Y-11928276D01*
X31971718Y-11928282D01*
X32097159Y-12024536D01*
X32097160Y-12024536D01*
X32097161Y-12024537D01*
X32174959Y-12056762D01*
X32243238Y-12085044D01*
X32400000Y-12105682D01*
X32534091Y-12088028D01*
X32594250Y-12099178D01*
X32619529Y-12120893D01*
X32620134Y-12120289D01*
X32624918Y-12125073D01*
X32624922Y-12125078D01*
X32740025Y-12212364D01*
X32740026Y-12212364D01*
X32740027Y-12212365D01*
X32772062Y-12224998D01*
X32874410Y-12265359D01*
X32958856Y-12275500D01*
X32958858Y-12275500D01*
X33491142Y-12275500D01*
X33491144Y-12275500D01*
X33575590Y-12265359D01*
X33709975Y-12212364D01*
X33825078Y-12125078D01*
X33912364Y-12009975D01*
X33934681Y-11953381D01*
X33973615Y-11906188D01*
X34032857Y-11890890D01*
X34089777Y-11913336D01*
X34119534Y-11955104D01*
X34128813Y-11979982D01*
X34210668Y-12089327D01*
X34210672Y-12089331D01*
X34320016Y-12171185D01*
X34447990Y-12218916D01*
X34447998Y-12218918D01*
X34504566Y-12224999D01*
X34574999Y-12224998D01*
X34575000Y-12224998D01*
X34975000Y-12224998D01*
X34975001Y-12224999D01*
X35045431Y-12224999D01*
X35045436Y-12224998D01*
X35102004Y-12218918D01*
X35102006Y-12218917D01*
X35229983Y-12171185D01*
X35339327Y-12089331D01*
X35339331Y-12089327D01*
X35421185Y-11979983D01*
X35468916Y-11852009D01*
X35468918Y-11852001D01*
X35475000Y-11795434D01*
X35475000Y-11700001D01*
X35474999Y-11700000D01*
X34975001Y-11700000D01*
X34975000Y-11700001D01*
X34975000Y-12224998D01*
X34575000Y-12224998D01*
X34575000Y-11500000D01*
X35894318Y-11500000D01*
X35914955Y-11656758D01*
X35914957Y-11656766D01*
X35975462Y-11802838D01*
X35975462Y-11802839D01*
X36071713Y-11928276D01*
X36071718Y-11928282D01*
X36197159Y-12024536D01*
X36197160Y-12024536D01*
X36197161Y-12024537D01*
X36274959Y-12056762D01*
X36343238Y-12085044D01*
X36500000Y-12105682D01*
X36500000Y-12105681D01*
X36505257Y-12106374D01*
X36560482Y-12132715D01*
X36584432Y-12168208D01*
X36615637Y-12247339D01*
X36615638Y-12247341D01*
X36615639Y-12247342D01*
X36707078Y-12367922D01*
X36827658Y-12459361D01*
X36827659Y-12459361D01*
X36827660Y-12459362D01*
X36835770Y-12462560D01*
X36968436Y-12514877D01*
X37056898Y-12525500D01*
X37056900Y-12525500D01*
X37643100Y-12525500D01*
X37643102Y-12525500D01*
X37731564Y-12514877D01*
X37872342Y-12459361D01*
X37992922Y-12367922D01*
X38084361Y-12247342D01*
X38139877Y-12106564D01*
X38150500Y-12018102D01*
X38150500Y-11299999D01*
X38500000Y-11299999D01*
X38500001Y-11300000D01*
X39049999Y-11300000D01*
X39050000Y-11299999D01*
X39450000Y-11299999D01*
X39450001Y-11300000D01*
X39999999Y-11300000D01*
X40000000Y-11299999D01*
X40000000Y-10977175D01*
X39993598Y-10917629D01*
X39993596Y-10917618D01*
X39943353Y-10782911D01*
X39943352Y-10782909D01*
X39857192Y-10667815D01*
X39857184Y-10667807D01*
X39742090Y-10581647D01*
X39742088Y-10581646D01*
X39607381Y-10531403D01*
X39607370Y-10531401D01*
X39547824Y-10525000D01*
X39450001Y-10525000D01*
X39450000Y-10525001D01*
X39450000Y-11299999D01*
X39050000Y-11299999D01*
X39050000Y-10525001D01*
X39049999Y-10525000D01*
X38952176Y-10525000D01*
X38892629Y-10531401D01*
X38892618Y-10531403D01*
X38757911Y-10581646D01*
X38757909Y-10581647D01*
X38642815Y-10667807D01*
X38642807Y-10667815D01*
X38556647Y-10782909D01*
X38556646Y-10782911D01*
X38506403Y-10917618D01*
X38506401Y-10917629D01*
X38500000Y-10977175D01*
X38500000Y-11299999D01*
X38150500Y-11299999D01*
X38150500Y-10981898D01*
X38139877Y-10893436D01*
X38104059Y-10802608D01*
X38084362Y-10752660D01*
X38084361Y-10752659D01*
X38084361Y-10752658D01*
X37992922Y-10632078D01*
X37872342Y-10540639D01*
X37872341Y-10540638D01*
X37872339Y-10540637D01*
X37731565Y-10485123D01*
X37643106Y-10474500D01*
X37643102Y-10474500D01*
X37056898Y-10474500D01*
X37056893Y-10474500D01*
X36968434Y-10485123D01*
X36827660Y-10540637D01*
X36827656Y-10540640D01*
X36707081Y-10632075D01*
X36707075Y-10632081D01*
X36615640Y-10752656D01*
X36615637Y-10752661D01*
X36584432Y-10831791D01*
X36545495Y-10878988D01*
X36505258Y-10893625D01*
X36343240Y-10914955D01*
X36343233Y-10914957D01*
X36197161Y-10975462D01*
X36197160Y-10975462D01*
X36071723Y-11071713D01*
X36071713Y-11071723D01*
X35975462Y-11197160D01*
X35975462Y-11197161D01*
X35914957Y-11343233D01*
X35914955Y-11343241D01*
X35894318Y-11499999D01*
X35894318Y-11500000D01*
X34575000Y-11500000D01*
X34575000Y-11299999D01*
X34975000Y-11299999D01*
X34975001Y-11300000D01*
X35474998Y-11300000D01*
X35474999Y-11299999D01*
X35474999Y-11204569D01*
X35474998Y-11204563D01*
X35468918Y-11147995D01*
X35468917Y-11147993D01*
X35421185Y-11020016D01*
X35339331Y-10910672D01*
X35339327Y-10910668D01*
X35229983Y-10828814D01*
X35102009Y-10781083D01*
X35102001Y-10781081D01*
X35045434Y-10775000D01*
X34975001Y-10775000D01*
X34975000Y-10775001D01*
X34975000Y-11299999D01*
X34575000Y-11299999D01*
X34575000Y-10774999D01*
X34504570Y-10775000D01*
X34504562Y-10775001D01*
X34447995Y-10781081D01*
X34447993Y-10781082D01*
X34320016Y-10828814D01*
X34210672Y-10910668D01*
X34210668Y-10910672D01*
X34128814Y-11020017D01*
X34119534Y-11044896D01*
X34081482Y-11092809D01*
X34022534Y-11109205D01*
X33965207Y-11087821D01*
X33934681Y-11046616D01*
X33912364Y-10990025D01*
X33825078Y-10874922D01*
X33709975Y-10787636D01*
X33709974Y-10787635D01*
X33709972Y-10787634D01*
X33575591Y-10734641D01*
X33491148Y-10724500D01*
X33491144Y-10724500D01*
X32958856Y-10724500D01*
X32958851Y-10724500D01*
X32874408Y-10734641D01*
X32740027Y-10787634D01*
X32624922Y-10874922D01*
X32620135Y-10879710D01*
X32618919Y-10878494D01*
X32575658Y-10908583D01*
X32534090Y-10911971D01*
X32400001Y-10894318D01*
X32399999Y-10894318D01*
X32243241Y-10914955D01*
X32243233Y-10914957D01*
X32097161Y-10975462D01*
X32097160Y-10975462D01*
X31971723Y-11071713D01*
X31971713Y-11071723D01*
X31875462Y-11197160D01*
X31875462Y-11197161D01*
X31814957Y-11343233D01*
X31814955Y-11343241D01*
X31794318Y-11499999D01*
X31794318Y-11500000D01*
X26602201Y-11500000D01*
X26583126Y-11490281D01*
X26557329Y-11486195D01*
X26542229Y-11482570D01*
X26517393Y-11474500D01*
X26517391Y-11474500D01*
X20465514Y-11474500D01*
X20407323Y-11455593D01*
X20405247Y-11454042D01*
X20302838Y-11375462D01*
X20156766Y-11314957D01*
X20156758Y-11314955D01*
X20000001Y-11294318D01*
X19999999Y-11294318D01*
X19843241Y-11314955D01*
X19843233Y-11314957D01*
X19697161Y-11375462D01*
X19697160Y-11375462D01*
X19571723Y-11471713D01*
X19571713Y-11471723D01*
X19475462Y-11597160D01*
X19475462Y-11597161D01*
X19414957Y-11743233D01*
X19414955Y-11743241D01*
X19394318Y-11899999D01*
X19394318Y-11900000D01*
X19414955Y-12056758D01*
X19414957Y-12056766D01*
X19475462Y-12202838D01*
X19475462Y-12202839D01*
X19568242Y-12323752D01*
X19571718Y-12328282D01*
X19571722Y-12328285D01*
X19571723Y-12328286D01*
X19592733Y-12344407D01*
X19697159Y-12424536D01*
X19697160Y-12424536D01*
X19697161Y-12424537D01*
X19840804Y-12484036D01*
X19887330Y-12523772D01*
X19901614Y-12583267D01*
X19878199Y-12639795D01*
X19826030Y-12671765D01*
X19802919Y-12674500D01*
X10317254Y-12674500D01*
X10259063Y-12655593D01*
X10247250Y-12645503D01*
X9954496Y-12352748D01*
X9926719Y-12298232D01*
X9925500Y-12282745D01*
X9925500Y-10979203D01*
X29375001Y-10979203D01*
X29377850Y-11009600D01*
X29377850Y-11009602D01*
X29422654Y-11137647D01*
X29503207Y-11246790D01*
X29503209Y-11246792D01*
X29612352Y-11327345D01*
X29740398Y-11372149D01*
X29770789Y-11374999D01*
X29900000Y-11374999D01*
X29900000Y-11374998D01*
X30300000Y-11374998D01*
X30300001Y-11374999D01*
X30429203Y-11374999D01*
X30459600Y-11372149D01*
X30459602Y-11372149D01*
X30587647Y-11327345D01*
X30696790Y-11246792D01*
X30696792Y-11246790D01*
X30777345Y-11137647D01*
X30822149Y-11009601D01*
X30824999Y-10979211D01*
X30825000Y-10979210D01*
X30825000Y-10925001D01*
X30824999Y-10925000D01*
X30300001Y-10925000D01*
X30300000Y-10925001D01*
X30300000Y-11374998D01*
X29900000Y-11374998D01*
X29900000Y-10925001D01*
X29899999Y-10925000D01*
X29375002Y-10925000D01*
X29375001Y-10925001D01*
X29375001Y-10979203D01*
X9925500Y-10979203D01*
X9925500Y-10524999D01*
X29375000Y-10524999D01*
X29375001Y-10525000D01*
X29899999Y-10525000D01*
X29900000Y-10524999D01*
X30300000Y-10524999D01*
X30300001Y-10525000D01*
X30824998Y-10525000D01*
X30824999Y-10524999D01*
X30824999Y-10470796D01*
X30822149Y-10440399D01*
X30822149Y-10440397D01*
X30777345Y-10312352D01*
X30696792Y-10203209D01*
X30696790Y-10203207D01*
X30587647Y-10122654D01*
X30459601Y-10077850D01*
X30429211Y-10075000D01*
X30300001Y-10075000D01*
X30300000Y-10075001D01*
X30300000Y-10524999D01*
X29900000Y-10524999D01*
X29900000Y-10075001D01*
X29899999Y-10075000D01*
X29770796Y-10075000D01*
X29740399Y-10077850D01*
X29740397Y-10077850D01*
X29612352Y-10122654D01*
X29503209Y-10203207D01*
X29503207Y-10203209D01*
X29422654Y-10312352D01*
X29377850Y-10440398D01*
X29375000Y-10470788D01*
X29375000Y-10524999D01*
X9925500Y-10524999D01*
X9925500Y-9212606D01*
X9917431Y-9187775D01*
X9913803Y-9172665D01*
X9909719Y-9146874D01*
X9897858Y-9123597D01*
X9891919Y-9109259D01*
X9883849Y-9084419D01*
X9868498Y-9063291D01*
X9860383Y-9050048D01*
X9848528Y-9026780D01*
X9753220Y-8931472D01*
X9753218Y-8931471D01*
X9667563Y-8845816D01*
X9639787Y-8791300D01*
X9649358Y-8730868D01*
X9692623Y-8687603D01*
X9753055Y-8678032D01*
X9787066Y-8690076D01*
X9796830Y-8695713D01*
X9804099Y-8700342D01*
X9847266Y-8730568D01*
X9895007Y-8752830D01*
X9902655Y-8756811D01*
X9948284Y-8783156D01*
X9997799Y-8801177D01*
X10005759Y-8804475D01*
X10053504Y-8826739D01*
X10104381Y-8840371D01*
X10112618Y-8842968D01*
X10140939Y-8853275D01*
X10162120Y-8860985D01*
X10213999Y-8870132D01*
X10222408Y-8871995D01*
X10273308Y-8885635D01*
X10325805Y-8890227D01*
X10334326Y-8891350D01*
X10353875Y-8894797D01*
X10386210Y-8900500D01*
X10386220Y-8900501D01*
X10617857Y-8900501D01*
X10617881Y-8900500D01*
X17082119Y-8900500D01*
X17082143Y-8900501D01*
X17086221Y-8900501D01*
X17313774Y-8900501D01*
X17313780Y-8900501D01*
X17365686Y-8891348D01*
X17374196Y-8890227D01*
X17426692Y-8885635D01*
X17477576Y-8871999D01*
X17486007Y-8870131D01*
X17509393Y-8866007D01*
X17537880Y-8860985D01*
X17587397Y-8842961D01*
X17595598Y-8840376D01*
X17646496Y-8826739D01*
X17694244Y-8804472D01*
X17702198Y-8801178D01*
X17751716Y-8783156D01*
X17797345Y-8756810D01*
X17804972Y-8752838D01*
X17852734Y-8730568D01*
X17895887Y-8700351D01*
X17903157Y-8695719D01*
X17948786Y-8669376D01*
X17989147Y-8635507D01*
X17995967Y-8630274D01*
X18039139Y-8600047D01*
X18200047Y-8439139D01*
X18200048Y-8439136D01*
X18204713Y-8434472D01*
X18204720Y-8434463D01*
X19084689Y-7554496D01*
X19139205Y-7526719D01*
X19154692Y-7525500D01*
X20268100Y-7525500D01*
X20268102Y-7525500D01*
X20356564Y-7514877D01*
X20497342Y-7459361D01*
X20617922Y-7367922D01*
X20709361Y-7247342D01*
X20764877Y-7106564D01*
X20775500Y-7018102D01*
X20775500Y-4824828D01*
X20778974Y-4798831D01*
X20781201Y-4790649D01*
X20797239Y-4731716D01*
X20817959Y-4505102D01*
X20817533Y-4500003D01*
X24982032Y-4500003D01*
X25001863Y-4726684D01*
X25001864Y-4726691D01*
X25001865Y-4726692D01*
X25014598Y-4774214D01*
X25021127Y-4798578D01*
X25024500Y-4824201D01*
X25024500Y-7018106D01*
X25035123Y-7106565D01*
X25090637Y-7247339D01*
X25090638Y-7247341D01*
X25090639Y-7247342D01*
X25182078Y-7367922D01*
X25302658Y-7459361D01*
X25302659Y-7459361D01*
X25302660Y-7459362D01*
X25373047Y-7487119D01*
X25443436Y-7514877D01*
X25531898Y-7525500D01*
X25531900Y-7525500D01*
X27043100Y-7525500D01*
X27043102Y-7525500D01*
X27131564Y-7514877D01*
X27272342Y-7459361D01*
X27392922Y-7367922D01*
X27484361Y-7247342D01*
X27539877Y-7106564D01*
X27550500Y-7018102D01*
X27550500Y-5899500D01*
X27569407Y-5841309D01*
X27618907Y-5805345D01*
X27649500Y-5800500D01*
X28619292Y-5800500D01*
X28789184Y-5785636D01*
X28789185Y-5785635D01*
X28789192Y-5785635D01*
X29008996Y-5726739D01*
X29215234Y-5630568D01*
X29246606Y-5608600D01*
X29305114Y-5590712D01*
X29362966Y-5610631D01*
X29398062Y-5660750D01*
X29401955Y-5680449D01*
X29402353Y-5684695D01*
X29402355Y-5684703D01*
X29447207Y-5812883D01*
X29527845Y-5922144D01*
X29527847Y-5922146D01*
X29527850Y-5922150D01*
X29527853Y-5922152D01*
X29527855Y-5922154D01*
X29637116Y-6002792D01*
X29637117Y-6002792D01*
X29637118Y-6002793D01*
X29765301Y-6047646D01*
X29795725Y-6050499D01*
X29795727Y-6050500D01*
X29795734Y-6050500D01*
X29820497Y-6050500D01*
X29878688Y-6069407D01*
X29914652Y-6118907D01*
X29919071Y-6158678D01*
X29717740Y-8321106D01*
X29693519Y-8377293D01*
X29653764Y-8404686D01*
X29582666Y-8431204D01*
X29467458Y-8517450D01*
X29467450Y-8517458D01*
X29381202Y-8632670D01*
X29330910Y-8767511D01*
X29330908Y-8767522D01*
X29324500Y-8827129D01*
X29324500Y-9322866D01*
X29324501Y-9322870D01*
X29330908Y-9382480D01*
X29330909Y-9382485D01*
X29381202Y-9517329D01*
X29411038Y-9557184D01*
X29467454Y-9632546D01*
X29467457Y-9632548D01*
X29467458Y-9632549D01*
X29582670Y-9718797D01*
X29717511Y-9769089D01*
X29717512Y-9769089D01*
X29717517Y-9769091D01*
X29777127Y-9775500D01*
X30422872Y-9775499D01*
X30482483Y-9769091D01*
X30549907Y-9743943D01*
X30617329Y-9718797D01*
X30617329Y-9718796D01*
X30617331Y-9718796D01*
X30732546Y-9632546D01*
X30782983Y-9565170D01*
X30832991Y-9529918D01*
X30862236Y-9525500D01*
X31406322Y-9525500D01*
X31412987Y-9525725D01*
X31462251Y-9529049D01*
X31462251Y-9529048D01*
X31462253Y-9529049D01*
X31506350Y-9518638D01*
X31514313Y-9517101D01*
X31559122Y-9510348D01*
X31566375Y-9506854D01*
X31586580Y-9499698D01*
X32144450Y-9368004D01*
X32203511Y-9372259D01*
X32249410Y-9390359D01*
X32333856Y-9400500D01*
X32333858Y-9400500D01*
X33166142Y-9400500D01*
X33166144Y-9400500D01*
X33250590Y-9390359D01*
X33384975Y-9337364D01*
X33500078Y-9250078D01*
X33501787Y-9247824D01*
X36499999Y-9247824D01*
X36506401Y-9307370D01*
X36506403Y-9307381D01*
X36556646Y-9442088D01*
X36556647Y-9442090D01*
X36642807Y-9557184D01*
X36642815Y-9557192D01*
X36757909Y-9643352D01*
X36757911Y-9643353D01*
X36892618Y-9693596D01*
X36892629Y-9693598D01*
X36952176Y-9700000D01*
X37349999Y-9700000D01*
X37350000Y-9699999D01*
X37750000Y-9699999D01*
X37750001Y-9700000D01*
X38147824Y-9700000D01*
X38207370Y-9693598D01*
X38207381Y-9693596D01*
X38342088Y-9643353D01*
X38342090Y-9643352D01*
X38457184Y-9557192D01*
X38457192Y-9557184D01*
X38543352Y-9442090D01*
X38543353Y-9442088D01*
X38593596Y-9307381D01*
X38593598Y-9307370D01*
X38600000Y-9247824D01*
X38600000Y-7900001D01*
X38599999Y-7900000D01*
X37750001Y-7900000D01*
X37750000Y-7900001D01*
X37750000Y-9699999D01*
X37350000Y-9699999D01*
X37350000Y-7900001D01*
X37349999Y-7900000D01*
X36500001Y-7900000D01*
X36500000Y-7900001D01*
X36500000Y-9247824D01*
X36499999Y-9247824D01*
X33501787Y-9247824D01*
X33587364Y-9134975D01*
X33640359Y-9000590D01*
X33650500Y-8916144D01*
X33650500Y-8383856D01*
X33640359Y-8299410D01*
X33587364Y-8165025D01*
X33500078Y-8049922D01*
X33384975Y-7962636D01*
X33384974Y-7962635D01*
X33384972Y-7962634D01*
X33250591Y-7909641D01*
X33166148Y-7899500D01*
X33166144Y-7899500D01*
X32333856Y-7899500D01*
X32333851Y-7899500D01*
X32249408Y-7909641D01*
X32115027Y-7962634D01*
X31999922Y-8049922D01*
X31912634Y-8165027D01*
X31859641Y-8299408D01*
X31849500Y-8383851D01*
X31849500Y-8433516D01*
X31830593Y-8491707D01*
X31781093Y-8527671D01*
X31773246Y-8529868D01*
X31383598Y-8621852D01*
X31360852Y-8624500D01*
X30862236Y-8624500D01*
X30804045Y-8605593D01*
X30782983Y-8584829D01*
X30732549Y-8517458D01*
X30732548Y-8517457D01*
X30732546Y-8517454D01*
X30698152Y-8491707D01*
X30657093Y-8460970D01*
X30621840Y-8410962D01*
X30617848Y-8372544D01*
X30685761Y-7643106D01*
X41199500Y-7643106D01*
X41210123Y-7731565D01*
X41265637Y-7872339D01*
X41265638Y-7872341D01*
X41265639Y-7872342D01*
X41357078Y-7992922D01*
X41477658Y-8084361D01*
X41477659Y-8084361D01*
X41477660Y-8084362D01*
X41548047Y-8112119D01*
X41618436Y-8139877D01*
X41706898Y-8150500D01*
X41706900Y-8150500D01*
X43793100Y-8150500D01*
X43793102Y-8150500D01*
X43881564Y-8139877D01*
X44022342Y-8084361D01*
X44142922Y-7992922D01*
X44234361Y-7872342D01*
X44289877Y-7731564D01*
X44299933Y-7647824D01*
X45549999Y-7647824D01*
X45556401Y-7707370D01*
X45556403Y-7707381D01*
X45606646Y-7842088D01*
X45606647Y-7842090D01*
X45692807Y-7957184D01*
X45692815Y-7957192D01*
X45807909Y-8043352D01*
X45807911Y-8043353D01*
X45942618Y-8093596D01*
X45942629Y-8093598D01*
X46002176Y-8100000D01*
X46849999Y-8100000D01*
X46850000Y-8099999D01*
X47250000Y-8099999D01*
X47250001Y-8100000D01*
X48097824Y-8100000D01*
X48157370Y-8093598D01*
X48157381Y-8093596D01*
X48292088Y-8043353D01*
X48292090Y-8043352D01*
X48407184Y-7957192D01*
X48407192Y-7957184D01*
X48493352Y-7842090D01*
X48493353Y-7842088D01*
X48543596Y-7707381D01*
X48543598Y-7707370D01*
X48550000Y-7647824D01*
X48550000Y-6900001D01*
X48549999Y-6900000D01*
X47250001Y-6900000D01*
X47250000Y-6900001D01*
X47250000Y-8099999D01*
X46850000Y-8099999D01*
X46850000Y-6900001D01*
X46849999Y-6900000D01*
X45550001Y-6900000D01*
X45550000Y-6900001D01*
X45550000Y-7647824D01*
X45549999Y-7647824D01*
X44299933Y-7647824D01*
X44300500Y-7643102D01*
X44300500Y-6499999D01*
X45550000Y-6499999D01*
X45550001Y-6500000D01*
X46849999Y-6500000D01*
X46850000Y-6499999D01*
X47250000Y-6499999D01*
X47250001Y-6500000D01*
X48549999Y-6500000D01*
X48550000Y-6499999D01*
X48550000Y-5752175D01*
X48543598Y-5692629D01*
X48543596Y-5692618D01*
X48493353Y-5557911D01*
X48493352Y-5557909D01*
X48407192Y-5442815D01*
X48407184Y-5442807D01*
X48292090Y-5356647D01*
X48292088Y-5356646D01*
X48157381Y-5306403D01*
X48157370Y-5306401D01*
X48097824Y-5300000D01*
X47250001Y-5300000D01*
X47250000Y-5300001D01*
X47250000Y-6499999D01*
X46850000Y-6499999D01*
X46850000Y-5300001D01*
X46849999Y-5300000D01*
X46002176Y-5300000D01*
X45942629Y-5306401D01*
X45942618Y-5306403D01*
X45807911Y-5356646D01*
X45807909Y-5356647D01*
X45692815Y-5442807D01*
X45692807Y-5442815D01*
X45606647Y-5557909D01*
X45606646Y-5557911D01*
X45556403Y-5692618D01*
X45556401Y-5692629D01*
X45550000Y-5752175D01*
X45550000Y-6499999D01*
X44300500Y-6499999D01*
X44300500Y-5756898D01*
X44289877Y-5668436D01*
X44289876Y-5668434D01*
X44289553Y-5665741D01*
X44289469Y-5642853D01*
X44290853Y-5630571D01*
X44305565Y-5500000D01*
X44285368Y-5320745D01*
X44285085Y-5319937D01*
X44260438Y-5249500D01*
X44225789Y-5150478D01*
X44197654Y-5105702D01*
X44129818Y-4997741D01*
X44129817Y-4997740D01*
X44129816Y-4997738D01*
X44002262Y-4870184D01*
X44002259Y-4870182D01*
X44002258Y-4870181D01*
X43849523Y-4774211D01*
X43679261Y-4714633D01*
X43679249Y-4714630D01*
X43544970Y-4699500D01*
X43544954Y-4699500D01*
X43191876Y-4699500D01*
X43179062Y-4698190D01*
X43179052Y-4698303D01*
X43173520Y-4697796D01*
X43173510Y-4697796D01*
X43173509Y-4697796D01*
X43096963Y-4699389D01*
X43092675Y-4699479D01*
X43090615Y-4699500D01*
X43055034Y-4699500D01*
X43051242Y-4699928D01*
X43042225Y-4700529D01*
X42993157Y-4701551D01*
X42993155Y-4701551D01*
X42963774Y-4708903D01*
X42950831Y-4711241D01*
X42920744Y-4714631D01*
X42874421Y-4730840D01*
X42865761Y-4733433D01*
X42818165Y-4745344D01*
X42791158Y-4759049D01*
X42779063Y-4764207D01*
X42750481Y-4774209D01*
X42750470Y-4774214D01*
X42708926Y-4800317D01*
X42701062Y-4804771D01*
X42657308Y-4826976D01*
X42634021Y-4846353D01*
X42623378Y-4854072D01*
X42606412Y-4864733D01*
X42597736Y-4870185D01*
X42573765Y-4894155D01*
X42541650Y-4915613D01*
X42397160Y-4975463D01*
X42271723Y-5071713D01*
X42271713Y-5071723D01*
X42175464Y-5197158D01*
X42173821Y-5200005D01*
X42172072Y-5201579D01*
X42171514Y-5202307D01*
X42171379Y-5202203D01*
X42128349Y-5240943D01*
X42088087Y-5249500D01*
X41706893Y-5249500D01*
X41618434Y-5260123D01*
X41477660Y-5315637D01*
X41477656Y-5315640D01*
X41357081Y-5407075D01*
X41357075Y-5407081D01*
X41265640Y-5527656D01*
X41265637Y-5527660D01*
X41210123Y-5668434D01*
X41199500Y-5756893D01*
X41199500Y-7643106D01*
X30685761Y-7643106D01*
X30699085Y-7499999D01*
X36500000Y-7499999D01*
X36500001Y-7500000D01*
X37349999Y-7500000D01*
X37350000Y-7499999D01*
X37750000Y-7499999D01*
X37750001Y-7500000D01*
X38599999Y-7500000D01*
X38600000Y-7499999D01*
X38600000Y-6152175D01*
X38593598Y-6092629D01*
X38593596Y-6092618D01*
X38543353Y-5957911D01*
X38543352Y-5957909D01*
X38457192Y-5842815D01*
X38457184Y-5842807D01*
X38342090Y-5756647D01*
X38342088Y-5756646D01*
X38207381Y-5706403D01*
X38207370Y-5706401D01*
X38147824Y-5700000D01*
X37750001Y-5700000D01*
X37750000Y-5700001D01*
X37750000Y-7499999D01*
X37350000Y-7499999D01*
X37350000Y-5700001D01*
X37349999Y-5700000D01*
X36952176Y-5700000D01*
X36892629Y-5706401D01*
X36892618Y-5706403D01*
X36757911Y-5756646D01*
X36757909Y-5756647D01*
X36642815Y-5842807D01*
X36642807Y-5842815D01*
X36556647Y-5957909D01*
X36556646Y-5957911D01*
X36506403Y-6092618D01*
X36506401Y-6092629D01*
X36500000Y-6152175D01*
X36500000Y-7499999D01*
X30699085Y-7499999D01*
X30825677Y-6140321D01*
X30849898Y-6084135D01*
X30902519Y-6052915D01*
X30924251Y-6050500D01*
X31079273Y-6050500D01*
X31079273Y-6050499D01*
X31109699Y-6047646D01*
X31237882Y-6002793D01*
X31347150Y-5922150D01*
X31427793Y-5812882D01*
X31472646Y-5684699D01*
X31475499Y-5654273D01*
X31475500Y-5654273D01*
X31475500Y-5245727D01*
X31475499Y-5245725D01*
X31475051Y-5240943D01*
X31472646Y-5215301D01*
X31427793Y-5087118D01*
X31425386Y-5083857D01*
X31347154Y-4977855D01*
X31347152Y-4977853D01*
X31347150Y-4977850D01*
X31347146Y-4977847D01*
X31347144Y-4977845D01*
X31237883Y-4897207D01*
X31109703Y-4852355D01*
X31109694Y-4852353D01*
X31079274Y-4849500D01*
X31079266Y-4849500D01*
X29944248Y-4849500D01*
X29886057Y-4830593D01*
X29850093Y-4781093D01*
X29848783Y-4731186D01*
X29847386Y-4730940D01*
X29848136Y-4726688D01*
X29867968Y-4500003D01*
X29867968Y-4499996D01*
X29862520Y-4437726D01*
X29876283Y-4378109D01*
X29922461Y-4337968D01*
X29983413Y-4332635D01*
X30010641Y-4343360D01*
X30069216Y-4377179D01*
X30249244Y-4435674D01*
X30390308Y-4450500D01*
X32100500Y-4450500D01*
X32158691Y-4469407D01*
X32194655Y-4518907D01*
X32199500Y-4549500D01*
X32199500Y-4561944D01*
X32180593Y-4620135D01*
X32136819Y-4654041D01*
X32115028Y-4662634D01*
X32115025Y-4662635D01*
X32115025Y-4662636D01*
X32046457Y-4714633D01*
X31999922Y-4749922D01*
X31912634Y-4865027D01*
X31859641Y-4999408D01*
X31849500Y-5083851D01*
X31849500Y-5616148D01*
X31859641Y-5700591D01*
X31912634Y-5834972D01*
X31912635Y-5834974D01*
X31912636Y-5834975D01*
X31999922Y-5950078D01*
X32115025Y-6037364D01*
X32115026Y-6037364D01*
X32115027Y-6037365D01*
X32134046Y-6044865D01*
X32249410Y-6090359D01*
X32333856Y-6100500D01*
X32333858Y-6100500D01*
X33166142Y-6100500D01*
X33166144Y-6100500D01*
X33250590Y-6090359D01*
X33384975Y-6037364D01*
X33500078Y-5950078D01*
X33587364Y-5834975D01*
X33640359Y-5700590D01*
X33650500Y-5616144D01*
X33650500Y-5083856D01*
X33640359Y-4999410D01*
X33613861Y-4932217D01*
X33587365Y-4865027D01*
X33587364Y-4865026D01*
X33587364Y-4865025D01*
X33500078Y-4749922D01*
X33384975Y-4662636D01*
X33384972Y-4662634D01*
X33384971Y-4662634D01*
X33363181Y-4654041D01*
X33315984Y-4615105D01*
X33300500Y-4561944D01*
X33300500Y-4310147D01*
X33319407Y-4251956D01*
X33333253Y-4236577D01*
X33422888Y-4155871D01*
X33534151Y-4002730D01*
X33611144Y-3829803D01*
X33650500Y-3644646D01*
X33650500Y-3455354D01*
X33611144Y-3270197D01*
X33534151Y-3097270D01*
X33422888Y-2944129D01*
X33422883Y-2944124D01*
X33282218Y-2817469D01*
X33282216Y-2817467D01*
X33203427Y-2771978D01*
X33118293Y-2722825D01*
X33118279Y-2722819D01*
X32938261Y-2664327D01*
X32938258Y-2664326D01*
X32938256Y-2664326D01*
X32822773Y-2652188D01*
X32797193Y-2649500D01*
X32797192Y-2649500D01*
X30390308Y-2649500D01*
X30390306Y-2649500D01*
X30339144Y-2654877D01*
X30249244Y-2664326D01*
X30249242Y-2664326D01*
X30249238Y-2664327D01*
X30069220Y-2722819D01*
X30069206Y-2722825D01*
X29905287Y-2817465D01*
X29905281Y-2817469D01*
X29764010Y-2944670D01*
X29730464Y-2964543D01*
X29637116Y-2997207D01*
X29527855Y-3077845D01*
X29527845Y-3077855D01*
X29447207Y-3187116D01*
X29402355Y-3315296D01*
X29402353Y-3315304D01*
X29401955Y-3319550D01*
X29377694Y-3375720D01*
X29325050Y-3406902D01*
X29264132Y-3401186D01*
X29246605Y-3391398D01*
X29224214Y-3375720D01*
X29215234Y-3369432D01*
X29215231Y-3369431D01*
X29215229Y-3369429D01*
X29215223Y-3369426D01*
X29008999Y-3273262D01*
X29009000Y-3273262D01*
X28935728Y-3253629D01*
X28789192Y-3214365D01*
X28789191Y-3214364D01*
X28789184Y-3214363D01*
X28619292Y-3199500D01*
X28619284Y-3199500D01*
X27649500Y-3199500D01*
X27591309Y-3180593D01*
X27555345Y-3131093D01*
X27550500Y-3100500D01*
X27550500Y-1981899D01*
X27550499Y-1981893D01*
X27539877Y-1893436D01*
X27484361Y-1752658D01*
X27392922Y-1632078D01*
X27272342Y-1540639D01*
X27272341Y-1540638D01*
X27272339Y-1540637D01*
X27131565Y-1485123D01*
X27043106Y-1474500D01*
X27043102Y-1474500D01*
X25531898Y-1474500D01*
X25531893Y-1474500D01*
X25443434Y-1485123D01*
X25302660Y-1540637D01*
X25302656Y-1540640D01*
X25182081Y-1632075D01*
X25182075Y-1632081D01*
X25090640Y-1752656D01*
X25090637Y-1752660D01*
X25035123Y-1893434D01*
X25024500Y-1981893D01*
X25024500Y-4175797D01*
X25021127Y-4201419D01*
X25001863Y-4273313D01*
X24982032Y-4499996D01*
X24982032Y-4500003D01*
X20817533Y-4500003D01*
X20799012Y-4278335D01*
X20778774Y-4201607D01*
X20775500Y-4176358D01*
X20775500Y-1981899D01*
X20775499Y-1981893D01*
X20764877Y-1893436D01*
X20709361Y-1752658D01*
X20617922Y-1632078D01*
X20497342Y-1540639D01*
X20497341Y-1540638D01*
X20497339Y-1540637D01*
X20356565Y-1485123D01*
X20268106Y-1474500D01*
X20268102Y-1474500D01*
X18756898Y-1474500D01*
X18756893Y-1474500D01*
X18668434Y-1485123D01*
X18527660Y-1540637D01*
X18527656Y-1540640D01*
X18407081Y-1632075D01*
X18407075Y-1632081D01*
X18315640Y-1752656D01*
X18315637Y-1752660D01*
X18260123Y-1893434D01*
X18249500Y-1981893D01*
X18249500Y-3549649D01*
X18230593Y-3607840D01*
X18212330Y-3625752D01*
X18212867Y-3626394D01*
X18209554Y-3629161D01*
X18209553Y-3629163D01*
X18201384Y-3635990D01*
X18170173Y-3662073D01*
X18163158Y-3667423D01*
X18121027Y-3696680D01*
X18121022Y-3696684D01*
X18082656Y-3734750D01*
X18076418Y-3740432D01*
X18034952Y-3775089D01*
X18034946Y-3775095D01*
X18001892Y-3814331D01*
X17995910Y-3820821D01*
X17959492Y-3856956D01*
X17959490Y-3856959D01*
X17927809Y-3901826D01*
X17925401Y-3905092D01*
X17925060Y-3905534D01*
X17893409Y-3950549D01*
X17893299Y-3950706D01*
X17827341Y-4044123D01*
X17824508Y-4048541D01*
X17404041Y-4646539D01*
X17400838Y-4650707D01*
X17335486Y-4744041D01*
X17335376Y-4744198D01*
X17303471Y-4789574D01*
X17303162Y-4790058D01*
X17300910Y-4793420D01*
X17269434Y-4838374D01*
X17247745Y-4884882D01*
X17243663Y-4892704D01*
X17217923Y-4937087D01*
X17217923Y-4937088D01*
X17199340Y-4987835D01*
X17196103Y-4995629D01*
X17173259Y-5044619D01*
X17173257Y-5044625D01*
X17159982Y-5094169D01*
X17157320Y-5102585D01*
X17139677Y-5150766D01*
X17130188Y-5203974D01*
X17128353Y-5212212D01*
X17114366Y-5264415D01*
X17114365Y-5264423D01*
X17109892Y-5315531D01*
X17108732Y-5324276D01*
X17099725Y-5374791D01*
X17099616Y-5429694D01*
X17099524Y-5433767D01*
X17099500Y-5434322D01*
X17099500Y-5434328D01*
X17099500Y-5489591D01*
X17099366Y-5557909D01*
X17099276Y-5603919D01*
X17099500Y-5609159D01*
X17099500Y-5820307D01*
X17080593Y-5878498D01*
X17070504Y-5890311D01*
X16690311Y-6270504D01*
X16635794Y-6298281D01*
X16620307Y-6299500D01*
X15110386Y-6299500D01*
X15052195Y-6280593D01*
X15016231Y-6231093D01*
X15016231Y-6169907D01*
X15052195Y-6120407D01*
X15067432Y-6111304D01*
X15257451Y-6019795D01*
X15471211Y-5874055D01*
X14758114Y-5160958D01*
X14871844Y-5086157D01*
X14993764Y-4956930D01*
X15039886Y-4877042D01*
X15750753Y-5587909D01*
X15829971Y-5488575D01*
X15961110Y-5261438D01*
X15961116Y-5261426D01*
X16056942Y-5017264D01*
X16115304Y-4761559D01*
X16115306Y-4761549D01*
X16134907Y-4500002D01*
X16134907Y-4499997D01*
X16115306Y-4238450D01*
X16115304Y-4238440D01*
X16056942Y-3982735D01*
X15961116Y-3738573D01*
X15961110Y-3738561D01*
X15829971Y-3511424D01*
X15750753Y-3412089D01*
X15043494Y-4119347D01*
X15042660Y-4117413D01*
X14936567Y-3974906D01*
X14800470Y-3860706D01*
X14757851Y-3839302D01*
X15471210Y-3125944D01*
X15257446Y-2980202D01*
X15021140Y-2866403D01*
X14770508Y-2789093D01*
X14770498Y-2789091D01*
X14511147Y-2750000D01*
X14248852Y-2750000D01*
X13989501Y-2789091D01*
X13989491Y-2789093D01*
X13738862Y-2866402D01*
X13502548Y-2980205D01*
X13288787Y-3125943D01*
X14001885Y-3839041D01*
X13888156Y-3913843D01*
X13766236Y-4043070D01*
X13720113Y-4122957D01*
X13009245Y-3412089D01*
X12930034Y-3511417D01*
X12930024Y-3511432D01*
X12798889Y-3738561D01*
X12798883Y-3738573D01*
X12703057Y-3982735D01*
X12644695Y-4238440D01*
X12644693Y-4238450D01*
X12625093Y-4499997D01*
X12625093Y-4500002D01*
X12644693Y-4761549D01*
X12644695Y-4761559D01*
X12703057Y-5017264D01*
X12798883Y-5261426D01*
X12798889Y-5261438D01*
X12930024Y-5488567D01*
X12930029Y-5488575D01*
X13009245Y-5587909D01*
X13716504Y-4880649D01*
X13717340Y-4882587D01*
X13823433Y-5025094D01*
X13959530Y-5139294D01*
X14002145Y-5160696D01*
X13288788Y-5874054D01*
X13502551Y-6019796D01*
X13692569Y-6111304D01*
X13736793Y-6153587D01*
X13747718Y-6213789D01*
X13721171Y-6268915D01*
X13667291Y-6297909D01*
X13649614Y-6299500D01*
X11148181Y-6299500D01*
X11089990Y-6280593D01*
X11054026Y-6231093D01*
X11054026Y-6169907D01*
X11057616Y-6160512D01*
X11061297Y-6152175D01*
X11097585Y-6069991D01*
X11100500Y-6044865D01*
X11100499Y-2955136D01*
X11097585Y-2930009D01*
X11052206Y-2827235D01*
X10972765Y-2747794D01*
X10869991Y-2702415D01*
X10869990Y-2702414D01*
X10869988Y-2702414D01*
X10844868Y-2699500D01*
X7755139Y-2699500D01*
X7755136Y-2699501D01*
X7730009Y-2702414D01*
X7627235Y-2747794D01*
X7547794Y-2827235D01*
X7502414Y-2930011D01*
X7499500Y-2955130D01*
X7499500Y-6044860D01*
X7499501Y-6044863D01*
X7502414Y-6069990D01*
X7515886Y-6100500D01*
X7547794Y-6172765D01*
X7627235Y-6252206D01*
X7730009Y-6297585D01*
X7755135Y-6300500D01*
X7900499Y-6300499D01*
X7958689Y-6319406D01*
X7994653Y-6368906D01*
X7999499Y-6399499D01*
X7999499Y-6513785D01*
X8008646Y-6565659D01*
X8009773Y-6574218D01*
X8014365Y-6626690D01*
X8027998Y-6677572D01*
X8029867Y-6686001D01*
X8039015Y-6737880D01*
X8057028Y-6787369D01*
X8059624Y-6795604D01*
X8073259Y-6846491D01*
X8073260Y-6846493D01*
X8095522Y-6894235D01*
X8098826Y-6902212D01*
X8116841Y-6951707D01*
X8116846Y-6951719D01*
X8143184Y-6997338D01*
X8147170Y-7004995D01*
X8163036Y-7039018D01*
X8169432Y-7052733D01*
X8169438Y-7052741D01*
X8199646Y-7095885D01*
X8204285Y-7103166D01*
X8230622Y-7148783D01*
X8230625Y-7148788D01*
X8264482Y-7189137D01*
X8269739Y-7195988D01*
X8299953Y-7239138D01*
X8460861Y-7400046D01*
X8460864Y-7400048D01*
X9191186Y-8130370D01*
X9218963Y-8184887D01*
X9209392Y-8245319D01*
X9166127Y-8288584D01*
X9105695Y-8298155D01*
X9090587Y-8294528D01*
X9070741Y-8288079D01*
X9056391Y-8282135D01*
X9033126Y-8270281D01*
X9007329Y-8266195D01*
X8992229Y-8262570D01*
X8967393Y-8254500D01*
X8967391Y-8254500D01*
X5134664Y-8254500D01*
X5076473Y-8235593D01*
X5046043Y-8199627D01*
X4982371Y-8071755D01*
X4982369Y-8071752D01*
X4982366Y-8071745D01*
X4853872Y-7901593D01*
X4788599Y-7842088D01*
X4696307Y-7757952D01*
X4696300Y-7757946D01*
X4515024Y-7645705D01*
X4515019Y-7645702D01*
X4316195Y-7568678D01*
X4106610Y-7529500D01*
X3893390Y-7529500D01*
X3683804Y-7568678D01*
X3484980Y-7645702D01*
X3484975Y-7645705D01*
X3303699Y-7757946D01*
X3303692Y-7757952D01*
X3146135Y-7901586D01*
X3146131Y-7901589D01*
X3146128Y-7901593D01*
X3146125Y-7901597D01*
X3017635Y-8071743D01*
X3017630Y-8071752D01*
X2922596Y-8262608D01*
X2864244Y-8467688D01*
X2844571Y-8680000D01*
X2864244Y-8892311D01*
X2875386Y-8931471D01*
X2922595Y-9097389D01*
X3017634Y-9288255D01*
X3146128Y-9458407D01*
X3146135Y-9458413D01*
X3303692Y-9602047D01*
X3303699Y-9602053D01*
X3370401Y-9643353D01*
X3484981Y-9714298D01*
X3683802Y-9791321D01*
X3893390Y-9830500D01*
X4106610Y-9830500D01*
X4316198Y-9791321D01*
X4515019Y-9714298D01*
X4696302Y-9602052D01*
X4853872Y-9458407D01*
X4982366Y-9288255D01*
X5046043Y-9160373D01*
X5088905Y-9116710D01*
X5134664Y-9105500D01*
X8682745Y-9105500D01*
X8740936Y-9124407D01*
X8752748Y-9134496D01*
X9045503Y-9427250D01*
X9073281Y-9481767D01*
X9074500Y-9497254D01*
X9074500Y-11353744D01*
X9055593Y-11411935D01*
X9006093Y-11447899D01*
X8944907Y-11447899D01*
X8905496Y-11423748D01*
X8377194Y-10895446D01*
X8377194Y-10895445D01*
X8353220Y-10871471D01*
X8353218Y-10871470D01*
X8329950Y-10859615D01*
X8316705Y-10851499D01*
X8295581Y-10836151D01*
X8295579Y-10836150D01*
X8270741Y-10828079D01*
X8256391Y-10822135D01*
X8233126Y-10810281D01*
X8207329Y-10806195D01*
X8192229Y-10802570D01*
X8167393Y-10794500D01*
X8167391Y-10794500D01*
X5134664Y-10794500D01*
X5076473Y-10775593D01*
X5046043Y-10739627D01*
X4982371Y-10611755D01*
X4982369Y-10611752D01*
X4982366Y-10611745D01*
X4853872Y-10441593D01*
X4799623Y-10392139D01*
X4696307Y-10297952D01*
X4696300Y-10297946D01*
X4515024Y-10185705D01*
X4515019Y-10185702D01*
X4316195Y-10108678D01*
X4106610Y-10069500D01*
X3893390Y-10069500D01*
X3683804Y-10108678D01*
X3484980Y-10185702D01*
X3484975Y-10185705D01*
X3303699Y-10297946D01*
X3303692Y-10297952D01*
X3146135Y-10441586D01*
X3146131Y-10441589D01*
X3146128Y-10441593D01*
X3146125Y-10441597D01*
X3017635Y-10611743D01*
X3017630Y-10611752D01*
X2922596Y-10802608D01*
X2922595Y-10802611D01*
X2914292Y-10831791D01*
X2864244Y-11007688D01*
X2844571Y-11220000D01*
X2864244Y-11432311D01*
X2887449Y-11513867D01*
X2922595Y-11637389D01*
X3017634Y-11828255D01*
X3146128Y-11998407D01*
X3167737Y-12018106D01*
X3303692Y-12142047D01*
X3303699Y-12142053D01*
X3343202Y-12166512D01*
X3484981Y-12254298D01*
X3683802Y-12331321D01*
X3893390Y-12370500D01*
X4106610Y-12370500D01*
X4316198Y-12331321D01*
X4515019Y-12254298D01*
X4696302Y-12142052D01*
X4853872Y-11998407D01*
X4982366Y-11828255D01*
X5046043Y-11700373D01*
X5088905Y-11656710D01*
X5134664Y-11645500D01*
X7882745Y-11645500D01*
X7940936Y-11664407D01*
X7952748Y-11674496D01*
X8245503Y-11967250D01*
X8273281Y-12021767D01*
X8274500Y-12037254D01*
X8274500Y-13067396D01*
X8282570Y-13092233D01*
X8286196Y-13107335D01*
X8290281Y-13133126D01*
X8290282Y-13133129D01*
X8290283Y-13133130D01*
X8302137Y-13156398D01*
X8308078Y-13170741D01*
X8316149Y-13195579D01*
X8316150Y-13195581D01*
X8331501Y-13216710D01*
X8339617Y-13229954D01*
X8351470Y-13253218D01*
X8351473Y-13253221D01*
X8375443Y-13277192D01*
X8375446Y-13277194D01*
X8603748Y-13505497D01*
X8631525Y-13560013D01*
X8621954Y-13620445D01*
X8578689Y-13663710D01*
X8533744Y-13674500D01*
X8352515Y-13674500D01*
X8294324Y-13655593D01*
X8272422Y-13633690D01*
X8268498Y-13628289D01*
X8260383Y-13615047D01*
X8248528Y-13591779D01*
X8248526Y-13591777D01*
X8228013Y-13571263D01*
X8228010Y-13571260D01*
X8216763Y-13560013D01*
X8161168Y-13504419D01*
X8161166Y-13504417D01*
X8161165Y-13504415D01*
X8147579Y-13490830D01*
X8147576Y-13490828D01*
X8123622Y-13466874D01*
X8123622Y-13466873D01*
X8068221Y-13411473D01*
X8068220Y-13411472D01*
X8044947Y-13399614D01*
X8031714Y-13391505D01*
X8010579Y-13376149D01*
X8010577Y-13376148D01*
X7994101Y-13370795D01*
X7985741Y-13368079D01*
X7971388Y-13362134D01*
X7948126Y-13350281D01*
X7922324Y-13346194D01*
X7907229Y-13342570D01*
X7890137Y-13337016D01*
X7882391Y-13334500D01*
X7882390Y-13334500D01*
X7848488Y-13334500D01*
X5134664Y-13334500D01*
X5076473Y-13315593D01*
X5046043Y-13279627D01*
X4982371Y-13151755D01*
X4982369Y-13151752D01*
X4982366Y-13151745D01*
X4853872Y-12981593D01*
X4734865Y-12873103D01*
X4696307Y-12837952D01*
X4696300Y-12837946D01*
X4515024Y-12725705D01*
X4515019Y-12725702D01*
X4316198Y-12648679D01*
X4316197Y-12648678D01*
X4316195Y-12648678D01*
X4106610Y-12609500D01*
X3893390Y-12609500D01*
X3683804Y-12648678D01*
X3484980Y-12725702D01*
X3484975Y-12725705D01*
X3303699Y-12837946D01*
X3303692Y-12837952D01*
X3146135Y-12981586D01*
X3146131Y-12981589D01*
X3146128Y-12981593D01*
X3146125Y-12981597D01*
X3017635Y-13151743D01*
X3017630Y-13151752D01*
X2922616Y-13342568D01*
X2922595Y-13342611D01*
X2915348Y-13368080D01*
X2864244Y-13547688D01*
X2845293Y-13752205D01*
X2844571Y-13760000D01*
X2864244Y-13972310D01*
X2922595Y-14177389D01*
X3017634Y-14368255D01*
X3146128Y-14538407D01*
X3146135Y-14538413D01*
X3303692Y-14682047D01*
X3303699Y-14682053D01*
X3356841Y-14714957D01*
X3484981Y-14794298D01*
X3683802Y-14871321D01*
X3893390Y-14910500D01*
X4106610Y-14910500D01*
X4316198Y-14871321D01*
X4515019Y-14794298D01*
X4696302Y-14682052D01*
X4853872Y-14538407D01*
X4982366Y-14368255D01*
X5046043Y-14240373D01*
X5088905Y-14196710D01*
X5134664Y-14185500D01*
X7512744Y-14185500D01*
X7570935Y-14204407D01*
X7582748Y-14214496D01*
X7721472Y-14353220D01*
X7721471Y-14353220D01*
X7816778Y-14448527D01*
X7816779Y-14448527D01*
X7816780Y-14448528D01*
X7840050Y-14460384D01*
X7853284Y-14468494D01*
X7874419Y-14483849D01*
X7899253Y-14491917D01*
X7913606Y-14497862D01*
X7936874Y-14509719D01*
X7962666Y-14513803D01*
X7977776Y-14517431D01*
X8002607Y-14525500D01*
X8036512Y-14525500D01*
X24225500Y-14525500D01*
X24283691Y-14544407D01*
X24319655Y-14593907D01*
X24324500Y-14624500D01*
X24324500Y-15666228D01*
X24305593Y-15724419D01*
X24256093Y-15760383D01*
X24194907Y-15760383D01*
X24145407Y-15724419D01*
X24137290Y-15711173D01*
X24133848Y-15704418D01*
X24118498Y-15683291D01*
X24110383Y-15670048D01*
X24109528Y-15668370D01*
X24098528Y-15646780D01*
X24003220Y-15551472D01*
X24003218Y-15551471D01*
X23427194Y-14975446D01*
X23427194Y-14975445D01*
X23403220Y-14951471D01*
X23403218Y-14951470D01*
X23379950Y-14939615D01*
X23366705Y-14931499D01*
X23345581Y-14916151D01*
X23345579Y-14916150D01*
X23320741Y-14908079D01*
X23306391Y-14902135D01*
X23283126Y-14890281D01*
X23257329Y-14886195D01*
X23242229Y-14882570D01*
X23217393Y-14874500D01*
X23217391Y-14874500D01*
X7065514Y-14874500D01*
X7007323Y-14855593D01*
X7005247Y-14854042D01*
X6902838Y-14775462D01*
X6756766Y-14714957D01*
X6756758Y-14714955D01*
X6600001Y-14694318D01*
X6599999Y-14694318D01*
X6443241Y-14714955D01*
X6443233Y-14714957D01*
X6297161Y-14775462D01*
X6297160Y-14775462D01*
X6171723Y-14871713D01*
X6171713Y-14871723D01*
X6075462Y-14997160D01*
X6075462Y-14997161D01*
X6014957Y-15143233D01*
X6014955Y-15143241D01*
X5994318Y-15299999D01*
X5994318Y-15300000D01*
X6014955Y-15456758D01*
X6014957Y-15456767D01*
X6040897Y-15519391D01*
X6045697Y-15580388D01*
X6013728Y-15632557D01*
X6008764Y-15636528D01*
X5967457Y-15667451D01*
X5967450Y-15667458D01*
X5881204Y-15782667D01*
X5881203Y-15782669D01*
X5870974Y-15810096D01*
X5832924Y-15858011D01*
X5778216Y-15874500D01*
X5134664Y-15874500D01*
X5076473Y-15855593D01*
X5046043Y-15819627D01*
X4982371Y-15691755D01*
X4982369Y-15691752D01*
X4982366Y-15691745D01*
X4853872Y-15521593D01*
X4782752Y-15456758D01*
X4696307Y-15377952D01*
X4696300Y-15377946D01*
X4515024Y-15265705D01*
X4515019Y-15265702D01*
X4316195Y-15188678D01*
X4106610Y-15149500D01*
X3893390Y-15149500D01*
X3683804Y-15188678D01*
X3484980Y-15265702D01*
X3484975Y-15265705D01*
X3303699Y-15377946D01*
X3303692Y-15377952D01*
X3146135Y-15521586D01*
X3146131Y-15521589D01*
X3146128Y-15521593D01*
X3146125Y-15521597D01*
X3017635Y-15691743D01*
X3017630Y-15691752D01*
X2922596Y-15882608D01*
X2864244Y-16087688D01*
X2844571Y-16300000D01*
X2864244Y-16512311D01*
X2875647Y-16552387D01*
X2922595Y-16717389D01*
X3017634Y-16908255D01*
X3146128Y-17078407D01*
X3165417Y-17095991D01*
X3303692Y-17222047D01*
X3303699Y-17222053D01*
X3394842Y-17278486D01*
X3484981Y-17334298D01*
X3683802Y-17411321D01*
X3893390Y-17450500D01*
X4106610Y-17450500D01*
X4316198Y-17411321D01*
X4515019Y-17334298D01*
X4696302Y-17222052D01*
X4853872Y-17078407D01*
X4982366Y-16908255D01*
X5046043Y-16780373D01*
X5088905Y-16736710D01*
X5134664Y-16725500D01*
X5778216Y-16725500D01*
X5836407Y-16744407D01*
X5870974Y-16789904D01*
X5881203Y-16817330D01*
X5881204Y-16817332D01*
X5949270Y-16908256D01*
X5967454Y-16932546D01*
X5967457Y-16932548D01*
X5967458Y-16932549D01*
X6082670Y-17018797D01*
X6217511Y-17069089D01*
X6217512Y-17069089D01*
X6217517Y-17069091D01*
X6277127Y-17075500D01*
X6772872Y-17075499D01*
X6832483Y-17069091D01*
X6901812Y-17043233D01*
X6967329Y-17018797D01*
X6967329Y-17018796D01*
X6967331Y-17018796D01*
X7082546Y-16932546D01*
X7168796Y-16817331D01*
X7182581Y-16780373D01*
X7219089Y-16682488D01*
X7219090Y-16682485D01*
X7219091Y-16682483D01*
X7225500Y-16622873D01*
X7225499Y-15977128D01*
X7219091Y-15917517D01*
X7203047Y-15874500D01*
X7197302Y-15859096D01*
X7194682Y-15797966D01*
X7228494Y-15746972D01*
X7285821Y-15725591D01*
X7290060Y-15725500D01*
X7409940Y-15725500D01*
X7468131Y-15744407D01*
X7504095Y-15793907D01*
X7504095Y-15855093D01*
X7502698Y-15859096D01*
X7480910Y-15917511D01*
X7480908Y-15917522D01*
X7474500Y-15977129D01*
X7474500Y-16622866D01*
X7474501Y-16622870D01*
X7480908Y-16682480D01*
X7480909Y-16682485D01*
X7531202Y-16817329D01*
X7599270Y-16908256D01*
X7617454Y-16932546D01*
X7617457Y-16932548D01*
X7617458Y-16932549D01*
X7732670Y-17018797D01*
X7867511Y-17069089D01*
X7867512Y-17069089D01*
X7867517Y-17069091D01*
X7927127Y-17075500D01*
X7997820Y-17075499D01*
X8056010Y-17094406D01*
X8091974Y-17143905D01*
X8095974Y-17187415D01*
X8094318Y-17199999D01*
X8094318Y-17200000D01*
X8114955Y-17356758D01*
X8114957Y-17356766D01*
X8175462Y-17502838D01*
X8175462Y-17502839D01*
X8267421Y-17622682D01*
X8271718Y-17628282D01*
X8397159Y-17724536D01*
X8397160Y-17724536D01*
X8397161Y-17724537D01*
X8516090Y-17773799D01*
X8543238Y-17785044D01*
X8648212Y-17798864D01*
X8699999Y-17805682D01*
X8700000Y-17805682D01*
X8700001Y-17805682D01*
X8731352Y-17801554D01*
X8856762Y-17785044D01*
X9002841Y-17724536D01*
X9128282Y-17628282D01*
X9188350Y-17549999D01*
X18425000Y-17549999D01*
X18425001Y-17550000D01*
X18874999Y-17550000D01*
X18875000Y-17549999D01*
X19275000Y-17549999D01*
X19275001Y-17550000D01*
X19724998Y-17550000D01*
X19724999Y-17549999D01*
X19724999Y-17420796D01*
X19722149Y-17390399D01*
X19722149Y-17390397D01*
X19677345Y-17262352D01*
X19596792Y-17153209D01*
X19596790Y-17153207D01*
X19487647Y-17072654D01*
X19359601Y-17027850D01*
X19329211Y-17025000D01*
X19275001Y-17025000D01*
X19275000Y-17025001D01*
X19275000Y-17549999D01*
X18875000Y-17549999D01*
X18875000Y-17024999D01*
X18820796Y-17025000D01*
X18790399Y-17027850D01*
X18790397Y-17027850D01*
X18662352Y-17072654D01*
X18553209Y-17153207D01*
X18553207Y-17153209D01*
X18472654Y-17262352D01*
X18427850Y-17390398D01*
X18425000Y-17420788D01*
X18425000Y-17549999D01*
X9188350Y-17549999D01*
X9224536Y-17502841D01*
X9285044Y-17356762D01*
X9305682Y-17200000D01*
X9285044Y-17043238D01*
X9259227Y-16980910D01*
X9224537Y-16897161D01*
X9224537Y-16897160D01*
X9128286Y-16771723D01*
X9128285Y-16771722D01*
X9128282Y-16771718D01*
X9128277Y-16771714D01*
X9128275Y-16771712D01*
X9065147Y-16723271D01*
X9035482Y-16686120D01*
X9034724Y-16684473D01*
X9027572Y-16623707D01*
X9057502Y-16570342D01*
X9113084Y-16544762D01*
X9162543Y-16551619D01*
X9243238Y-16585044D01*
X9356833Y-16599999D01*
X9399999Y-16605682D01*
X9400000Y-16605682D01*
X9400001Y-16605682D01*
X9443167Y-16599999D01*
X9556762Y-16585044D01*
X9702841Y-16524536D01*
X9751123Y-16487488D01*
X9805247Y-16445958D01*
X9862923Y-16425534D01*
X9865514Y-16425500D01*
X22501494Y-16425500D01*
X22559685Y-16444407D01*
X22571498Y-16454496D01*
X22787462Y-16670460D01*
X22814325Y-16720026D01*
X22817163Y-16733481D01*
X22819295Y-16753911D01*
X22819295Y-17220295D01*
X22800388Y-17278486D01*
X22750888Y-17314450D01*
X22720295Y-17319295D01*
X22244533Y-17319295D01*
X22228597Y-17318004D01*
X22205442Y-17314227D01*
X22205438Y-17314227D01*
X22187535Y-17318004D01*
X22166845Y-17322368D01*
X22146414Y-17324500D01*
X21471784Y-17324500D01*
X21413593Y-17305593D01*
X21379026Y-17260096D01*
X21368796Y-17232669D01*
X21368795Y-17232667D01*
X21282549Y-17117458D01*
X21282548Y-17117457D01*
X21282546Y-17117454D01*
X21282541Y-17117450D01*
X21167329Y-17031202D01*
X21032488Y-16980910D01*
X21032483Y-16980909D01*
X21032481Y-16980908D01*
X21032477Y-16980908D01*
X21001249Y-16977550D01*
X20972873Y-16974500D01*
X20972870Y-16974500D01*
X20477133Y-16974500D01*
X20477129Y-16974500D01*
X20477128Y-16974501D01*
X20469949Y-16975272D01*
X20417519Y-16980908D01*
X20417514Y-16980909D01*
X20282670Y-17031202D01*
X20167458Y-17117450D01*
X20167450Y-17117458D01*
X20081202Y-17232670D01*
X20030910Y-17367511D01*
X20030909Y-17367515D01*
X20030909Y-17367517D01*
X20024500Y-17427127D01*
X20024500Y-17427129D01*
X20024500Y-18072866D01*
X20024500Y-18072869D01*
X20024501Y-18072872D01*
X20025535Y-18082491D01*
X20030908Y-18132480D01*
X20030909Y-18132485D01*
X20052698Y-18190904D01*
X20055318Y-18252034D01*
X20021506Y-18303028D01*
X19964179Y-18324409D01*
X19959940Y-18324500D01*
X19786481Y-18324500D01*
X19728290Y-18305593D01*
X19692326Y-18256093D01*
X19692326Y-18194907D01*
X19693037Y-18192802D01*
X19722149Y-18109603D01*
X19724999Y-18079211D01*
X19725000Y-18079210D01*
X19725000Y-17950001D01*
X19724999Y-17950000D01*
X18425002Y-17950000D01*
X18425001Y-17950001D01*
X18425001Y-18079203D01*
X18427850Y-18109600D01*
X18427851Y-18109606D01*
X18456963Y-18192802D01*
X18458336Y-18253972D01*
X18423492Y-18304267D01*
X18365741Y-18324475D01*
X18363519Y-18324500D01*
X18163056Y-18324500D01*
X18104865Y-18305593D01*
X18070959Y-18261819D01*
X18062365Y-18240028D01*
X18062364Y-18240025D01*
X17975078Y-18124922D01*
X17859975Y-18037636D01*
X17859974Y-18037635D01*
X17859972Y-18037634D01*
X17725591Y-17984641D01*
X17641148Y-17974500D01*
X17641144Y-17974500D01*
X17108856Y-17974500D01*
X17108851Y-17974500D01*
X17024408Y-17984641D01*
X16890027Y-18037634D01*
X16774922Y-18124922D01*
X16687635Y-18240026D01*
X16665319Y-18296616D01*
X16626382Y-18343813D01*
X16567140Y-18359109D01*
X16510220Y-18336662D01*
X16480464Y-18294893D01*
X16471185Y-18270016D01*
X16389331Y-18160672D01*
X16389327Y-18160668D01*
X16279983Y-18078814D01*
X16152009Y-18031083D01*
X16152001Y-18031081D01*
X16095434Y-18025000D01*
X16025001Y-18025000D01*
X16025000Y-18025001D01*
X16025000Y-19474998D01*
X16025001Y-19474999D01*
X16095431Y-19474999D01*
X16095436Y-19474998D01*
X16152004Y-19468918D01*
X16152006Y-19468917D01*
X16279983Y-19421185D01*
X16389327Y-19339331D01*
X16389331Y-19339327D01*
X16471186Y-19229982D01*
X16480464Y-19205107D01*
X16518514Y-19157192D01*
X16577461Y-19140794D01*
X16634789Y-19162175D01*
X16665319Y-19203384D01*
X16687634Y-19259972D01*
X16687635Y-19259974D01*
X16687636Y-19259975D01*
X16774922Y-19375078D01*
X16890025Y-19462364D01*
X16953245Y-19487295D01*
X17000440Y-19526230D01*
X17015737Y-19585472D01*
X17015077Y-19592313D01*
X16994318Y-19749999D01*
X16994318Y-19750000D01*
X17014955Y-19906761D01*
X17014956Y-19906762D01*
X17044909Y-19979076D01*
X17049709Y-20040073D01*
X17017740Y-20092242D01*
X17013265Y-20095844D01*
X16974925Y-20124918D01*
X16887634Y-20240027D01*
X16834641Y-20374408D01*
X16824500Y-20458851D01*
X16824500Y-20991148D01*
X16834641Y-21075591D01*
X16887634Y-21209972D01*
X16887635Y-21209974D01*
X16887636Y-21209975D01*
X16974922Y-21325078D01*
X17090025Y-21412364D01*
X17146616Y-21434680D01*
X17193812Y-21473616D01*
X17209109Y-21532858D01*
X17186663Y-21589778D01*
X17144896Y-21619534D01*
X17120017Y-21628814D01*
X17010672Y-21710668D01*
X17010668Y-21710672D01*
X16928814Y-21820016D01*
X16881083Y-21947990D01*
X16881081Y-21947998D01*
X16875000Y-22004565D01*
X16875000Y-22074999D01*
X16875001Y-22075000D01*
X18324998Y-22075000D01*
X18324999Y-22074999D01*
X18324999Y-22004569D01*
X18324998Y-22004563D01*
X18318918Y-21947995D01*
X18318917Y-21947993D01*
X18271185Y-21820016D01*
X18189331Y-21710672D01*
X18189327Y-21710668D01*
X18079982Y-21628813D01*
X18055104Y-21619534D01*
X18007191Y-21581483D01*
X17990794Y-21522535D01*
X18012177Y-21465208D01*
X18053381Y-21434681D01*
X18109975Y-21412364D01*
X18225078Y-21325078D01*
X18312364Y-21209975D01*
X18365359Y-21075590D01*
X18375500Y-20991144D01*
X18375500Y-20458856D01*
X18365359Y-20374410D01*
X18350139Y-20335817D01*
X18346382Y-20274749D01*
X18379237Y-20223133D01*
X18436157Y-20200687D01*
X18442238Y-20200500D01*
X20597108Y-20200500D01*
X20655299Y-20219407D01*
X20691263Y-20268907D01*
X20691263Y-20330093D01*
X20671927Y-20364331D01*
X20574623Y-20476626D01*
X20514834Y-20607543D01*
X20506632Y-20664590D01*
X20479636Y-20719497D01*
X20425521Y-20748050D01*
X20408640Y-20749500D01*
X20328035Y-20749500D01*
X20189949Y-20790046D01*
X20189942Y-20790049D01*
X20068873Y-20867855D01*
X19974622Y-20976628D01*
X19914834Y-21107543D01*
X19894353Y-21249997D01*
X19894353Y-21250002D01*
X19914834Y-21392456D01*
X19951899Y-21473616D01*
X19974623Y-21523373D01*
X20068872Y-21632143D01*
X20068873Y-21632144D01*
X20188780Y-21709203D01*
X20189947Y-21709953D01*
X20277018Y-21735519D01*
X20328035Y-21750499D01*
X20328036Y-21750499D01*
X20328039Y-21750500D01*
X20328041Y-21750500D01*
X20471959Y-21750500D01*
X20471961Y-21750500D01*
X20610053Y-21709953D01*
X20678110Y-21666215D01*
X20731632Y-21650500D01*
X22046646Y-21650500D01*
X22084529Y-21658035D01*
X22095513Y-21662585D01*
X22108682Y-21667687D01*
X22219561Y-21685773D01*
X22219561Y-21685772D01*
X22219563Y-21685773D01*
X22233482Y-21682836D01*
X22253916Y-21680705D01*
X22720295Y-21680705D01*
X22778486Y-21699612D01*
X22814450Y-21749112D01*
X22819295Y-21779705D01*
X22819295Y-22255469D01*
X22818004Y-22271406D01*
X22814226Y-22294562D01*
X22814227Y-22294563D01*
X22822368Y-22333153D01*
X22824500Y-22353589D01*
X22824500Y-23932744D01*
X22805593Y-23990935D01*
X22795504Y-24002748D01*
X22502748Y-24295504D01*
X22448231Y-24323281D01*
X22432744Y-24324500D01*
X10930591Y-24324500D01*
X10872400Y-24305593D01*
X10836436Y-24256093D01*
X10836436Y-24194907D01*
X10839122Y-24187625D01*
X10885044Y-24076762D01*
X10905682Y-23920000D01*
X10885044Y-23763238D01*
X10862035Y-23707690D01*
X10824537Y-23617161D01*
X10824537Y-23617160D01*
X10728286Y-23491723D01*
X10728285Y-23491722D01*
X10728282Y-23491718D01*
X10728277Y-23491714D01*
X10728276Y-23491713D01*
X10612232Y-23402670D01*
X10602841Y-23395464D01*
X10602840Y-23395463D01*
X10602838Y-23395462D01*
X10456766Y-23334957D01*
X10456758Y-23334955D01*
X10300001Y-23314318D01*
X10299999Y-23314318D01*
X10143241Y-23334955D01*
X10143232Y-23334957D01*
X10042442Y-23376706D01*
X9981445Y-23381506D01*
X9929276Y-23349537D01*
X9925304Y-23344571D01*
X9882549Y-23287458D01*
X9882548Y-23287457D01*
X9882546Y-23287454D01*
X9882541Y-23287450D01*
X9767329Y-23201202D01*
X9632488Y-23150910D01*
X9632483Y-23150909D01*
X9632481Y-23150908D01*
X9632477Y-23150908D01*
X9601249Y-23147550D01*
X9572873Y-23144500D01*
X9572870Y-23144500D01*
X9077133Y-23144500D01*
X9077129Y-23144500D01*
X9077128Y-23144501D01*
X9069949Y-23145272D01*
X9017519Y-23150908D01*
X9017514Y-23150909D01*
X8882670Y-23201202D01*
X8767458Y-23287450D01*
X8767450Y-23287458D01*
X8681202Y-23402670D01*
X8630910Y-23537511D01*
X8630909Y-23537517D01*
X8624500Y-23597127D01*
X8624500Y-23919999D01*
X8624501Y-24225500D01*
X8605594Y-24283691D01*
X8556094Y-24319655D01*
X8525501Y-24324500D01*
X8474500Y-24324500D01*
X8416309Y-24305593D01*
X8380345Y-24256093D01*
X8375500Y-24225500D01*
X8375499Y-23597133D01*
X8375499Y-23597128D01*
X8369091Y-23537517D01*
X8366011Y-23529260D01*
X8318797Y-23402670D01*
X8232549Y-23287458D01*
X8232548Y-23287457D01*
X8232546Y-23287454D01*
X8232541Y-23287450D01*
X8117329Y-23201202D01*
X7982488Y-23150910D01*
X7982483Y-23150909D01*
X7982481Y-23150908D01*
X7982477Y-23150908D01*
X7951249Y-23147550D01*
X7922873Y-23144500D01*
X7922870Y-23144500D01*
X7427133Y-23144500D01*
X7427129Y-23144500D01*
X7427128Y-23144501D01*
X7419949Y-23145272D01*
X7367519Y-23150908D01*
X7367514Y-23150909D01*
X7232670Y-23201202D01*
X7117458Y-23287450D01*
X7117450Y-23287458D01*
X7031204Y-23402667D01*
X7031203Y-23402669D01*
X7020974Y-23430096D01*
X6982924Y-23478011D01*
X6928216Y-23494500D01*
X6266508Y-23494500D01*
X6218306Y-23502134D01*
X6172228Y-23498508D01*
X6159893Y-23494500D01*
X6159892Y-23494500D01*
X5134664Y-23494500D01*
X5076473Y-23475593D01*
X5046043Y-23439627D01*
X4982371Y-23311755D01*
X4982369Y-23311752D01*
X4982366Y-23311745D01*
X4853872Y-23141593D01*
X4727417Y-23026313D01*
X4696307Y-22997952D01*
X4696300Y-22997946D01*
X4515024Y-22885705D01*
X4515019Y-22885702D01*
X4316198Y-22808679D01*
X4316197Y-22808678D01*
X4316195Y-22808678D01*
X4106610Y-22769500D01*
X3893390Y-22769500D01*
X3683804Y-22808678D01*
X3484980Y-22885702D01*
X3484975Y-22885705D01*
X3303699Y-22997946D01*
X3303692Y-22997952D01*
X3146135Y-23141586D01*
X3146131Y-23141589D01*
X3146128Y-23141593D01*
X3146125Y-23141597D01*
X3017635Y-23311743D01*
X3017630Y-23311752D01*
X2922596Y-23502608D01*
X2864244Y-23707688D01*
X2844571Y-23920000D01*
X500000Y-23920000D01*
X500000Y-22545436D01*
X16875001Y-22545436D01*
X16881081Y-22602004D01*
X16881082Y-22602006D01*
X16928814Y-22729983D01*
X17010668Y-22839327D01*
X17010672Y-22839331D01*
X17120016Y-22921185D01*
X17247990Y-22968916D01*
X17247998Y-22968918D01*
X17304566Y-22974999D01*
X17400000Y-22974999D01*
X17400000Y-22974998D01*
X17800000Y-22974998D01*
X17800001Y-22974999D01*
X17895431Y-22974999D01*
X17895436Y-22974998D01*
X17952004Y-22968918D01*
X17952006Y-22968917D01*
X18079983Y-22921185D01*
X18189327Y-22839331D01*
X18189331Y-22839327D01*
X18271185Y-22729983D01*
X18318916Y-22602009D01*
X18318918Y-22602001D01*
X18325000Y-22545434D01*
X18325000Y-22475001D01*
X18324999Y-22475000D01*
X17800001Y-22475000D01*
X17800000Y-22475001D01*
X17800000Y-22974998D01*
X17400000Y-22974998D01*
X17400000Y-22475001D01*
X17399999Y-22475000D01*
X16875002Y-22475000D01*
X16875001Y-22475001D01*
X16875001Y-22545436D01*
X500000Y-22545436D01*
X500000Y-21380000D01*
X2844571Y-21380000D01*
X2864244Y-21592311D01*
X2878313Y-21641756D01*
X2922595Y-21797389D01*
X3017634Y-21988255D01*
X3146128Y-22158407D01*
X3194871Y-22202842D01*
X3303692Y-22302047D01*
X3303699Y-22302053D01*
X3381109Y-22349983D01*
X3484981Y-22414298D01*
X3683802Y-22491321D01*
X3893390Y-22530500D01*
X4106610Y-22530500D01*
X4316198Y-22491321D01*
X4515019Y-22414298D01*
X4696302Y-22302052D01*
X4853872Y-22158407D01*
X4982366Y-21988255D01*
X5046043Y-21860373D01*
X5088905Y-21816710D01*
X5134664Y-21805500D01*
X7628216Y-21805500D01*
X7686407Y-21824407D01*
X7720974Y-21869904D01*
X7731203Y-21897330D01*
X7731204Y-21897332D01*
X7799270Y-21988256D01*
X7817454Y-22012546D01*
X7817457Y-22012548D01*
X7817458Y-22012549D01*
X7932670Y-22098797D01*
X8067511Y-22149089D01*
X8067512Y-22149089D01*
X8067517Y-22149091D01*
X8127127Y-22155500D01*
X8622872Y-22155499D01*
X8682483Y-22149091D01*
X8772277Y-22115600D01*
X8817329Y-22098797D01*
X8817329Y-22098796D01*
X8817331Y-22098796D01*
X8932546Y-22012546D01*
X9018796Y-21897331D01*
X9029868Y-21867647D01*
X9069089Y-21762488D01*
X9069088Y-21762488D01*
X9069091Y-21762483D01*
X9074819Y-21709203D01*
X9375001Y-21709203D01*
X9377850Y-21739600D01*
X9377850Y-21739602D01*
X9422654Y-21867647D01*
X9503207Y-21976790D01*
X9503209Y-21976792D01*
X9612352Y-22057345D01*
X9740399Y-22102149D01*
X9770788Y-22104999D01*
X9824999Y-22104998D01*
X9825000Y-22104998D01*
X10225000Y-22104998D01*
X10225001Y-22104999D01*
X10279203Y-22104999D01*
X10309600Y-22102149D01*
X10309602Y-22102149D01*
X10437647Y-22057345D01*
X10546790Y-21976792D01*
X10546792Y-21976790D01*
X10627345Y-21867647D01*
X10672149Y-21739601D01*
X10674999Y-21709211D01*
X10675000Y-21709210D01*
X10675000Y-21580001D01*
X10674999Y-21580000D01*
X10225001Y-21580000D01*
X10225000Y-21580001D01*
X10225000Y-22104998D01*
X9825000Y-22104998D01*
X9825000Y-21580001D01*
X9824999Y-21580000D01*
X9375002Y-21580000D01*
X9375001Y-21580001D01*
X9375001Y-21709203D01*
X9074819Y-21709203D01*
X9075500Y-21702873D01*
X9075499Y-21179999D01*
X9375000Y-21179999D01*
X9375001Y-21180000D01*
X9824999Y-21180000D01*
X9825000Y-21179999D01*
X10225000Y-21179999D01*
X10225001Y-21180000D01*
X10674998Y-21180000D01*
X10674999Y-21179999D01*
X10674999Y-21050796D01*
X10672149Y-21020399D01*
X10672149Y-21020397D01*
X10627345Y-20892352D01*
X10546792Y-20783209D01*
X10546790Y-20783207D01*
X10437647Y-20702654D01*
X10309601Y-20657850D01*
X10279211Y-20655000D01*
X10225001Y-20655000D01*
X10225000Y-20655001D01*
X10225000Y-21179999D01*
X9825000Y-21179999D01*
X9825000Y-20654999D01*
X9770796Y-20655000D01*
X9740399Y-20657850D01*
X9740397Y-20657850D01*
X9612352Y-20702654D01*
X9503209Y-20783207D01*
X9503207Y-20783209D01*
X9422654Y-20892352D01*
X9377850Y-21020398D01*
X9375000Y-21050788D01*
X9375000Y-21179999D01*
X9075499Y-21179999D01*
X9075499Y-21057128D01*
X9069091Y-20997517D01*
X9063487Y-20982492D01*
X9018797Y-20862670D01*
X8932549Y-20747458D01*
X8932548Y-20747457D01*
X8932546Y-20747454D01*
X8932541Y-20747450D01*
X8817329Y-20661202D01*
X8682488Y-20610910D01*
X8682483Y-20610909D01*
X8682481Y-20610908D01*
X8682477Y-20610908D01*
X8651176Y-20607543D01*
X8622873Y-20604500D01*
X8622870Y-20604500D01*
X8127133Y-20604500D01*
X8127129Y-20604500D01*
X8127128Y-20604501D01*
X8119949Y-20605272D01*
X8067519Y-20610908D01*
X8067514Y-20610909D01*
X7932670Y-20661202D01*
X7817458Y-20747450D01*
X7817450Y-20747458D01*
X7731204Y-20862667D01*
X7731203Y-20862669D01*
X7720974Y-20890096D01*
X7682924Y-20938011D01*
X7628216Y-20954500D01*
X5134664Y-20954500D01*
X5076473Y-20935593D01*
X5046043Y-20899627D01*
X4982371Y-20771755D01*
X4982369Y-20771752D01*
X4982366Y-20771745D01*
X4853872Y-20601593D01*
X4723751Y-20482971D01*
X4696307Y-20457952D01*
X4696300Y-20457946D01*
X4515024Y-20345705D01*
X4515019Y-20345702D01*
X4474727Y-20330093D01*
X4316198Y-20268679D01*
X4316197Y-20268678D01*
X4316195Y-20268678D01*
X4106610Y-20229500D01*
X3893390Y-20229500D01*
X3683804Y-20268678D01*
X3484980Y-20345702D01*
X3484975Y-20345705D01*
X3303699Y-20457946D01*
X3303692Y-20457952D01*
X3146135Y-20601586D01*
X3146131Y-20601589D01*
X3146128Y-20601593D01*
X3146125Y-20601597D01*
X3017635Y-20771743D01*
X3017630Y-20771752D01*
X2922596Y-20962608D01*
X2864244Y-21167688D01*
X2844571Y-21380000D01*
X500000Y-21380000D01*
X500000Y-18840000D01*
X2844571Y-18840000D01*
X2864244Y-19052311D01*
X2874871Y-19089659D01*
X2922595Y-19257389D01*
X3017634Y-19448255D01*
X3146128Y-19618407D01*
X3216734Y-19682773D01*
X3303692Y-19762047D01*
X3303699Y-19762053D01*
X3332801Y-19780072D01*
X3484981Y-19874298D01*
X3683802Y-19951321D01*
X3893390Y-19990500D01*
X4106610Y-19990500D01*
X4316198Y-19951321D01*
X4515019Y-19874298D01*
X4696302Y-19762052D01*
X4853872Y-19618407D01*
X4982366Y-19448255D01*
X5046043Y-19320373D01*
X5088905Y-19276710D01*
X5134664Y-19265500D01*
X7628216Y-19265500D01*
X7686407Y-19284407D01*
X7720974Y-19329904D01*
X7731203Y-19357330D01*
X7731204Y-19357332D01*
X7817450Y-19472541D01*
X7817454Y-19472546D01*
X7817457Y-19472548D01*
X7817458Y-19472549D01*
X7932670Y-19558797D01*
X8067511Y-19609089D01*
X8067512Y-19609089D01*
X8067517Y-19609091D01*
X8127127Y-19615500D01*
X8622872Y-19615499D01*
X8682483Y-19609091D01*
X8800703Y-19564998D01*
X8817329Y-19558797D01*
X8817329Y-19558796D01*
X8817331Y-19558796D01*
X8932546Y-19472546D01*
X9018796Y-19357331D01*
X9029868Y-19327647D01*
X9055107Y-19259975D01*
X9069091Y-19222483D01*
X9074819Y-19169203D01*
X9375001Y-19169203D01*
X9377850Y-19199600D01*
X9377850Y-19199602D01*
X9422654Y-19327647D01*
X9503207Y-19436790D01*
X9503209Y-19436792D01*
X9612352Y-19517345D01*
X9740399Y-19562149D01*
X9770788Y-19564999D01*
X9824999Y-19564998D01*
X9825000Y-19564998D01*
X10225000Y-19564998D01*
X10225001Y-19564999D01*
X10279203Y-19564999D01*
X10309600Y-19562149D01*
X10309602Y-19562149D01*
X10437647Y-19517345D01*
X10546790Y-19436792D01*
X10546792Y-19436790D01*
X10627345Y-19327647D01*
X10672149Y-19199601D01*
X10674999Y-19169211D01*
X10675000Y-19169210D01*
X10675000Y-19045436D01*
X15125001Y-19045436D01*
X15131081Y-19102004D01*
X15131082Y-19102006D01*
X15178814Y-19229983D01*
X15260668Y-19339327D01*
X15260672Y-19339331D01*
X15370016Y-19421185D01*
X15497990Y-19468916D01*
X15497998Y-19468918D01*
X15554566Y-19474999D01*
X15624999Y-19474998D01*
X15625000Y-19474998D01*
X15625000Y-18950001D01*
X15624999Y-18950000D01*
X15125002Y-18950000D01*
X15125001Y-18950001D01*
X15125001Y-19045436D01*
X10675000Y-19045436D01*
X10675000Y-19040001D01*
X10674999Y-19040000D01*
X10225001Y-19040000D01*
X10225000Y-19040001D01*
X10225000Y-19564998D01*
X9825000Y-19564998D01*
X9825000Y-19040001D01*
X9824999Y-19040000D01*
X9375002Y-19040000D01*
X9375001Y-19040001D01*
X9375001Y-19169203D01*
X9074819Y-19169203D01*
X9075500Y-19162873D01*
X9075499Y-18639999D01*
X9375000Y-18639999D01*
X9375001Y-18640000D01*
X9824999Y-18640000D01*
X9825000Y-18639999D01*
X10225000Y-18639999D01*
X10225001Y-18640000D01*
X10674998Y-18640000D01*
X10674999Y-18639999D01*
X10674999Y-18549999D01*
X15125000Y-18549999D01*
X15125001Y-18550000D01*
X15624999Y-18550000D01*
X15625000Y-18549999D01*
X15625000Y-18024999D01*
X15554570Y-18025000D01*
X15554562Y-18025001D01*
X15497995Y-18031081D01*
X15497993Y-18031082D01*
X15370016Y-18078814D01*
X15260672Y-18160668D01*
X15260668Y-18160672D01*
X15178814Y-18270016D01*
X15131083Y-18397990D01*
X15131081Y-18397998D01*
X15125000Y-18454565D01*
X15125000Y-18549999D01*
X10674999Y-18549999D01*
X10674999Y-18510796D01*
X10672149Y-18480399D01*
X10672149Y-18480397D01*
X10627345Y-18352352D01*
X10546792Y-18243209D01*
X10546790Y-18243207D01*
X10437647Y-18162654D01*
X10309601Y-18117850D01*
X10279211Y-18115000D01*
X10225001Y-18115000D01*
X10225000Y-18115001D01*
X10225000Y-18639999D01*
X9825000Y-18639999D01*
X9825000Y-18114999D01*
X9770796Y-18115000D01*
X9740399Y-18117850D01*
X9740397Y-18117850D01*
X9612352Y-18162654D01*
X9503209Y-18243207D01*
X9503207Y-18243209D01*
X9422654Y-18352352D01*
X9377850Y-18480398D01*
X9375000Y-18510788D01*
X9375000Y-18639999D01*
X9075499Y-18639999D01*
X9075499Y-18517128D01*
X9069091Y-18457517D01*
X9045995Y-18395593D01*
X9018797Y-18322670D01*
X8932549Y-18207458D01*
X8932548Y-18207457D01*
X8932546Y-18207454D01*
X8932541Y-18207450D01*
X8817329Y-18121202D01*
X8682488Y-18070910D01*
X8682483Y-18070909D01*
X8682481Y-18070908D01*
X8682477Y-18070908D01*
X8651249Y-18067550D01*
X8622873Y-18064500D01*
X8622870Y-18064500D01*
X8127133Y-18064500D01*
X8127129Y-18064500D01*
X8127128Y-18064501D01*
X8119949Y-18065272D01*
X8067519Y-18070908D01*
X8067514Y-18070909D01*
X7932670Y-18121202D01*
X7817458Y-18207450D01*
X7817450Y-18207458D01*
X7731204Y-18322667D01*
X7731203Y-18322669D01*
X7720974Y-18350096D01*
X7682924Y-18398011D01*
X7628216Y-18414500D01*
X5134664Y-18414500D01*
X5076473Y-18395593D01*
X5046043Y-18359627D01*
X4982371Y-18231755D01*
X4982369Y-18231752D01*
X4982366Y-18231745D01*
X4853872Y-18061593D01*
X4790987Y-18004265D01*
X4696307Y-17917952D01*
X4696300Y-17917946D01*
X4515024Y-17805705D01*
X4515019Y-17805702D01*
X4413271Y-17766285D01*
X4316198Y-17728679D01*
X4316197Y-17728678D01*
X4316195Y-17728678D01*
X4106610Y-17689500D01*
X3893390Y-17689500D01*
X3683804Y-17728678D01*
X3484980Y-17805702D01*
X3484975Y-17805705D01*
X3303699Y-17917946D01*
X3303692Y-17917952D01*
X3146135Y-18061586D01*
X3146131Y-18061589D01*
X3146128Y-18061593D01*
X3146125Y-18061597D01*
X3017635Y-18231743D01*
X3017630Y-18231752D01*
X2922596Y-18422608D01*
X2864244Y-18627688D01*
X2844571Y-18840000D01*
X500000Y-18840000D01*
X500000Y-6140000D01*
X2844571Y-6140000D01*
X2859350Y-6299500D01*
X2864244Y-6352310D01*
X2910188Y-6513785D01*
X2922596Y-6557391D01*
X2986635Y-6686001D01*
X3017634Y-6748255D01*
X3146128Y-6918407D01*
X3146135Y-6918413D01*
X3303692Y-7062047D01*
X3303699Y-7062053D01*
X3358340Y-7095885D01*
X3484981Y-7174298D01*
X3683802Y-7251321D01*
X3893390Y-7290500D01*
X4106610Y-7290500D01*
X4316198Y-7251321D01*
X4515019Y-7174298D01*
X4696302Y-7062052D01*
X4853872Y-6918407D01*
X4982366Y-6748255D01*
X5077405Y-6557389D01*
X5135756Y-6352310D01*
X5155429Y-6140000D01*
X5135756Y-5927690D01*
X5077405Y-5722611D01*
X4982366Y-5531745D01*
X4853872Y-5361593D01*
X4786308Y-5300000D01*
X4696307Y-5217952D01*
X4696300Y-5217946D01*
X4515024Y-5105705D01*
X4515019Y-5105702D01*
X4467048Y-5087118D01*
X4316198Y-5028679D01*
X4316197Y-5028678D01*
X4316195Y-5028678D01*
X4106610Y-4989500D01*
X3893390Y-4989500D01*
X3683804Y-5028678D01*
X3484980Y-5105702D01*
X3484975Y-5105705D01*
X3303699Y-5217946D01*
X3303692Y-5217952D01*
X3146135Y-5361586D01*
X3146131Y-5361589D01*
X3146128Y-5361593D01*
X3146125Y-5361597D01*
X3017635Y-5531743D01*
X3017630Y-5531752D01*
X2922596Y-5722608D01*
X2922595Y-5722611D01*
X2914183Y-5752175D01*
X2864244Y-5927688D01*
X2844571Y-6140000D01*
X500000Y-6140000D01*
X500000Y-4474624D01*
X2900000Y-4474624D01*
X2914506Y-4547546D01*
X2914507Y-4547548D01*
X2969758Y-4630237D01*
X2969762Y-4630241D01*
X3052451Y-4685492D01*
X3052453Y-4685493D01*
X3125375Y-4699999D01*
X3125377Y-4700000D01*
X3799999Y-4700000D01*
X3800000Y-4699999D01*
X3800000Y-4058335D01*
X3857685Y-4084680D01*
X3964237Y-4100000D01*
X4035763Y-4100000D01*
X4142315Y-4084680D01*
X4200000Y-4058335D01*
X4200000Y-4699999D01*
X4200001Y-4700000D01*
X4874623Y-4700000D01*
X4874624Y-4699999D01*
X4947546Y-4685493D01*
X4947548Y-4685492D01*
X5030237Y-4630241D01*
X5030241Y-4630237D01*
X5085492Y-4547548D01*
X5085493Y-4547546D01*
X5099999Y-4474624D01*
X5100000Y-4474622D01*
X5100000Y-3800001D01*
X5099999Y-3800000D01*
X4462383Y-3800000D01*
X4500000Y-3671889D01*
X4500000Y-3528111D01*
X4462383Y-3400000D01*
X5099999Y-3400000D01*
X5100000Y-3399999D01*
X5100000Y-2725377D01*
X5099999Y-2725375D01*
X5085493Y-2652453D01*
X5085492Y-2652451D01*
X5030241Y-2569762D01*
X5030237Y-2569758D01*
X4947548Y-2514507D01*
X4947546Y-2514506D01*
X4874624Y-2500000D01*
X4200001Y-2500000D01*
X4200000Y-2500001D01*
X4200000Y-3141664D01*
X4142315Y-3115320D01*
X4035763Y-3100000D01*
X3964237Y-3100000D01*
X3857685Y-3115320D01*
X3800000Y-3141664D01*
X3800000Y-2500001D01*
X3799999Y-2500000D01*
X3125375Y-2500000D01*
X3052453Y-2514506D01*
X3052451Y-2514507D01*
X2969762Y-2569758D01*
X2969758Y-2569762D01*
X2914507Y-2652451D01*
X2914506Y-2652453D01*
X2900000Y-2725375D01*
X2900000Y-3399999D01*
X2900001Y-3400000D01*
X3537617Y-3400000D01*
X3500000Y-3528111D01*
X3500000Y-3671889D01*
X3537617Y-3800000D01*
X2900001Y-3800000D01*
X2900000Y-3800001D01*
X2900000Y-4474624D01*
X500000Y-4474624D01*
X500000Y-599000D01*
X518907Y-540809D01*
X568407Y-504845D01*
X599000Y-500000D01*
X36381085Y-500000D01*
X36439276Y-518907D01*
G37*
%TD.AperFunction*%
%TA.AperFunction,Conductor*%
G36*
X48957756Y-34674911D02*
G01*
X48971678Y-34660004D01*
X49141293Y-34419715D01*
X49276611Y-34158564D01*
X49307716Y-34071044D01*
X49345019Y-34022545D01*
X49403704Y-34005234D01*
X49461357Y-34025724D01*
X49495955Y-34076188D01*
X49500000Y-34104197D01*
X49500000Y-35401000D01*
X49481093Y-35459191D01*
X49431593Y-35495155D01*
X49401000Y-35500000D01*
X48108076Y-35500000D01*
X48049885Y-35481093D01*
X48013921Y-35431593D01*
X48013921Y-35370407D01*
X48049885Y-35320907D01*
X48068634Y-35310196D01*
X48291446Y-35213415D01*
X48542758Y-35060589D01*
X48672329Y-34955172D01*
X47925026Y-34207869D01*
X48062540Y-34099728D01*
X48200110Y-33940964D01*
X48208784Y-33925939D01*
X48957756Y-34674911D01*
G37*
%TD.AperFunction*%
%TD*%
M02*
