M48
; DRILL file {KiCad 7.0.11+dfsg-1build4} date Thu Jul  2 10:23:30 2026
; FORMAT={-:-/ absolute / metric / decimal}
; #@! TF.CreationDate,2026-07-02T10:23:30+00:00
; #@! TF.GenerationSoftware,Kicad,Pcbnew,7.0.11+dfsg-1build4
; #@! TF.FileFunction,Plated,1,4,PTH
FMAT,2
METRIC
; #@! TA.AperFunction,Plated,PTH,ViaDrill
T1C0.200
; #@! TA.AperFunction,Plated,PTH,ComponentDrill
T2C0.200
; #@! TA.AperFunction,Plated,PTH,ViaDrill
T3C0.300
; #@! TA.AperFunction,Plated,PTH,ComponentDrill
T4C1.000
; #@! TA.AperFunction,Plated,PTH,ComponentDrill
T5C1.520
; #@! TA.AperFunction,Plated,PTH,ComponentDrill
T6C2.200
%
G90
G05
T1
X20.4Y-21.25
X21.0Y-20.75
X21.3Y-19.25
X21.6Y-20.25
X21.9Y-18.25
X23.75Y-22.8
X24.25Y-14.8
X26.25Y-12.6
T2
X23.55Y-18.05
X23.55Y-19.5
X23.55Y-20.95
X25.0Y-18.05
X25.0Y-19.5
X25.0Y-20.95
X26.45Y-18.05
X26.45Y-19.5
X26.45Y-20.95
T3
X6.6Y-15.3
X8.5Y-25.85
X8.5Y-28.4
X8.7Y-17.2
X9.4Y-16.0
X10.3Y-23.92
X10.9Y-18.84
X10.9Y-21.38
X11.0Y-25.85
X12.6Y-26.35
X15.0Y-18.75
X17.4Y-29.5
X17.6Y-19.75
X17.6Y-23.25
X18.35Y-17.75
X19.4Y-26.9
X20.0Y-11.9
X22.5Y-26.35
X22.6Y-28.6
X24.4Y-26.45
X24.825Y-28.6
X28.9Y-16.6
X28.9Y-21.9
X29.6Y-27.3
X29.7Y-21.9
X29.9Y-28.6
X30.1Y-11.6
X30.5Y-19.5
X31.3Y-19.4
X31.4Y-3.55
X32.1Y-3.55
X32.4Y-11.5
X33.1Y-28.6
X34.0Y-28.6
X35.7Y-11.5
X36.35Y-2.35
X36.35Y-3.15
X36.35Y-7.65
X36.35Y-8.45
X36.5Y-11.5
X37.2Y-28.6
X40.1Y-11.5
X42.7Y-5.5
X43.5Y-5.5
X47.1Y-5.5
X47.9Y-5.5
T4
X4.0Y-3.6
X4.0Y-6.14
X4.0Y-8.68
X4.0Y-11.22
X4.0Y-13.76
X4.0Y-16.3
X4.0Y-18.84
X4.0Y-21.38
X4.0Y-23.92
X4.0Y-26.46
X4.0Y-29.0
X4.0Y-31.54
X17.0Y-33.0
X19.54Y-33.0
X22.08Y-33.0
X24.62Y-33.0
X27.16Y-33.0
T5
X9.3Y-4.5
X14.38Y-4.5
X45.5Y-12.0
X45.5Y-17.08
X45.5Y-22.16
X45.5Y-27.24
T6
X11.5Y-33.6
X47.3Y-33.3
M30
