%TF.GenerationSoftware,KiCad,Pcbnew,7.0.11+dfsg-1build4*%
%TF.CreationDate,2026-07-02T10:23:20+00:00*%
%TF.ProjectId,tmc5240-daughterboard-compact,746d6335-3234-4302-9d64-617567687465,rev?*%
%TF.SameCoordinates,Original*%
%TF.FileFunction,Copper,L4,Bot*%
%TF.FilePolarity,Positive*%
%FSLAX46Y46*%
G04 Gerber Fmt 4.6, Leading zero omitted, Abs format (unit mm)*
G04 Created by KiCad (PCBNEW 7.0.11+dfsg-1build4) date 2026-07-02 10:23:20*
%MOMM*%
%LPD*%
G01*
G04 APERTURE LIST*
%TA.AperFunction,HeatsinkPad*%
%ADD10C,0.500000*%
%TD*%
%TA.AperFunction,HeatsinkPad*%
%ADD11R,3.400000X3.400000*%
%TD*%
%TA.AperFunction,ComponentPad*%
%ADD12R,3.000000X3.000000*%
%TD*%
%TA.AperFunction,ComponentPad*%
%ADD13C,3.000000*%
%TD*%
%TA.AperFunction,ComponentPad*%
%ADD14C,3.800000*%
%TD*%
%TA.AperFunction,ComponentPad*%
%ADD15R,1.700000X1.700000*%
%TD*%
%TA.AperFunction,ComponentPad*%
%ADD16O,1.700000X1.700000*%
%TD*%
%TA.AperFunction,ViaPad*%
%ADD17C,0.600000*%
%TD*%
%TA.AperFunction,ViaPad*%
%ADD18C,0.400000*%
%TD*%
%TA.AperFunction,Conductor*%
%ADD19C,0.250000*%
%TD*%
G04 APERTURE END LIST*
D10*
%TO.P,U1,33*%
%TO.N,GND*%
X23550000Y-18050000D03*
X23550000Y-19500000D03*
X23550000Y-20950000D03*
X25000000Y-18050000D03*
X25000000Y-19500000D03*
D11*
X25000000Y-19500000D03*
D10*
X25000000Y-20950000D03*
X26450000Y-18050000D03*
X26450000Y-19500000D03*
X26450000Y-20950000D03*
%TD*%
D12*
%TO.P,J3,1*%
%TO.N,OUT1A*%
X45500000Y-12000000D03*
D13*
%TO.P,J3,2*%
%TO.N,OUT2A*%
X45500000Y-17080000D03*
%TO.P,J3,3*%
%TO.N,OUT2B*%
X45500000Y-22160000D03*
%TO.P,J3,4*%
%TO.N,OUT1B*%
X45500000Y-27240000D03*
%TD*%
D14*
%TO.P,H2,1*%
%TO.N,GND*%
X11500000Y-33600000D03*
%TD*%
D15*
%TO.P,J4,1*%
%TO.N,3V3*%
X17000000Y-33000000D03*
D16*
%TO.P,J4,2*%
%TO.N,ENCA*%
X19540000Y-33000000D03*
%TO.P,J4,3*%
%TO.N,ENCB*%
X22080000Y-33000000D03*
%TO.P,J4,4*%
%TO.N,ENCN*%
X24620000Y-33000000D03*
%TO.P,J4,5*%
%TO.N,GND*%
X27160000Y-33000000D03*
%TD*%
D12*
%TO.P,J2,1*%
%TO.N,+24V_IN*%
X9300000Y-4500000D03*
D13*
%TO.P,J2,2*%
%TO.N,GND*%
X14380000Y-4500000D03*
%TD*%
D14*
%TO.P,H1,1*%
%TO.N,GND*%
X47300000Y-33299999D03*
%TD*%
D15*
%TO.P,J1,1*%
%TO.N,GND*%
X4000000Y-3600000D03*
D16*
%TO.P,J1,2*%
%TO.N,3V3*%
X4000000Y-6140000D03*
%TO.P,J1,3*%
%TO.N,SCK*%
X4000000Y-8680000D03*
%TO.P,J1,4*%
%TO.N,SDI*%
X4000000Y-11220000D03*
%TO.P,J1,5*%
%TO.N,SDO*%
X4000000Y-13760000D03*
%TO.P,J1,6*%
%TO.N,CSN*%
X4000000Y-16300000D03*
%TO.P,J1,7*%
%TO.N,REFL*%
X4000000Y-18840000D03*
%TO.P,J1,8*%
%TO.N,REFR*%
X4000000Y-21380000D03*
%TO.P,J1,9*%
%TO.N,ENN*%
X4000000Y-23920000D03*
%TO.P,J1,10*%
%TO.N,DIAG0*%
X4000000Y-26460000D03*
%TO.P,J1,11*%
%TO.N,DIAG1*%
X4000000Y-29000000D03*
%TO.P,J1,12*%
%TO.N,GND*%
X4000000Y-31540000D03*
%TD*%
D17*
%TO.N,VS*%
X29900000Y-28600000D03*
X34000000Y-28600000D03*
X29600000Y-27300000D03*
X32400000Y-11500000D03*
X42700000Y-5500000D03*
X43500000Y-5500000D03*
X32100000Y-3550000D03*
X31400000Y-3550000D03*
X36350000Y-3150000D03*
X36500000Y-11500000D03*
X31300000Y-19400000D03*
X28900000Y-21900000D03*
X30500000Y-19500000D03*
X28900000Y-16600000D03*
X36350000Y-2350000D03*
X29700000Y-21900000D03*
%TO.N,GND*%
X36350000Y-8450000D03*
X37200000Y-28600000D03*
X10900000Y-18840000D03*
X17400000Y-29500000D03*
X17600000Y-23250000D03*
D18*
X21900000Y-18250000D03*
X21300000Y-19250000D03*
D17*
X15000000Y-18750000D03*
X22600000Y-28600000D03*
X18350000Y-17750000D03*
X35700000Y-11500000D03*
X33100000Y-28600000D03*
X47900000Y-5500000D03*
X24825000Y-28600000D03*
X36350000Y-7650000D03*
X10900000Y-21380000D03*
X30100000Y-11600000D03*
X19400000Y-26900000D03*
X40100000Y-11500000D03*
D18*
X24250000Y-14800000D03*
D17*
X47100000Y-5500000D03*
%TO.N,3V3*%
X8700000Y-17200000D03*
X8500000Y-25850000D03*
X20000000Y-11900000D03*
X8500000Y-28400000D03*
X17600000Y-19750000D03*
X24400000Y-26450000D03*
X10300000Y-23920000D03*
D18*
%TO.N,CSN*%
X26250000Y-12600000D03*
D17*
%TO.N,DIAG0*%
X11000000Y-25850000D03*
%TO.N,DIAG1*%
X12600000Y-26350000D03*
%TO.N,REFL*%
X6600000Y-15300000D03*
%TO.N,REFR*%
X9400000Y-16000000D03*
D18*
%TO.N,ENCA*%
X20400000Y-21250000D03*
%TO.N,ENCB*%
X21000000Y-20750000D03*
%TO.N,ENCN*%
X21600000Y-20250000D03*
%TO.N,UART_EN*%
X23750000Y-22800000D03*
D17*
X22500000Y-26350000D03*
%TD*%
D19*
%TO.N,CSN*%
X5800000Y-12600000D02*
X5200000Y-13200000D01*
X5200000Y-15700000D02*
X4600000Y-16300000D01*
X4600000Y-16300000D02*
X4000000Y-16300000D01*
X26250000Y-12600000D02*
X5800000Y-12600000D01*
X5200000Y-13200000D02*
X5200000Y-15700000D01*
%TO.N,DIAG0*%
X11000000Y-26155000D02*
X10695000Y-26460000D01*
X11000000Y-25850000D02*
X11000000Y-26155000D01*
X10695000Y-26460000D02*
X5000000Y-26460000D01*
X5000000Y-26460000D02*
X4000000Y-26460000D01*
%TO.N,DIAG1*%
X12600000Y-26350000D02*
X12600000Y-28400000D01*
X12600000Y-28400000D02*
X12000000Y-29000000D01*
X12000000Y-29000000D02*
X5000000Y-29000000D01*
X5000000Y-29000000D02*
X4000000Y-29000000D01*
%TO.N,REFL*%
X6600000Y-18240000D02*
X6000000Y-18840000D01*
X6600000Y-15300000D02*
X6600000Y-18240000D01*
X6000000Y-18840000D02*
X4000000Y-18840000D01*
%TO.N,REFR*%
X9400000Y-16000000D02*
X9400000Y-20779999D01*
X8800000Y-21380000D02*
X4000000Y-21380000D01*
X9400000Y-20779999D02*
X8800000Y-21380000D01*
%TO.N,ENCA*%
X20400000Y-30799999D02*
X20115934Y-31928494D01*
X20115934Y-31928494D02*
X19540000Y-33000000D01*
X20400000Y-21250000D02*
X20400000Y-30799999D01*
%TO.N,ENCB*%
X21000000Y-30799999D02*
X21335683Y-31897309D01*
X21335683Y-31897309D02*
X22080000Y-33000000D01*
X21000000Y-20750000D02*
X21000000Y-30799999D01*
%TO.N,ENCN*%
X21600000Y-30799999D02*
X22130187Y-31680893D01*
X22130187Y-31680893D02*
X24620000Y-33000000D01*
X21600000Y-20250000D02*
X21600000Y-30799999D01*
%TO.N,UART_EN*%
X23750000Y-22800000D02*
X22500000Y-26350000D01*
%TD*%
%TA.AperFunction,Conductor*%
%TO.N,GND*%
G36*
X49459191Y-518907D02*
G01*
X49495155Y-568407D01*
X49500000Y-599000D01*
X49500000Y-32495800D01*
X49481093Y-32553991D01*
X49431593Y-32589955D01*
X49370407Y-32589955D01*
X49320907Y-32553991D01*
X49307716Y-32528953D01*
X49276611Y-32441433D01*
X49141293Y-32180282D01*
X48971681Y-31939996D01*
X48971668Y-31939981D01*
X48957756Y-31925085D01*
X48206378Y-32676462D01*
X48135106Y-32576375D01*
X47983068Y-32431407D01*
X47923821Y-32393331D01*
X48672330Y-31644823D01*
X48672331Y-31644823D01*
X48542769Y-31539416D01*
X48542751Y-31539403D01*
X48291455Y-31386587D01*
X48291448Y-31386583D01*
X48021676Y-31269405D01*
X47738456Y-31190050D01*
X47738447Y-31190048D01*
X47447063Y-31149999D01*
X47152936Y-31149999D01*
X46861552Y-31190048D01*
X46861543Y-31190050D01*
X46578323Y-31269405D01*
X46308551Y-31386583D01*
X46308544Y-31386587D01*
X46057246Y-31539405D01*
X46057230Y-31539416D01*
X45927668Y-31644823D01*
X46674973Y-32392128D01*
X46537460Y-32500270D01*
X46399890Y-32659034D01*
X46391215Y-32674058D01*
X45642242Y-31925085D01*
X45628320Y-31939993D01*
X45458706Y-32180282D01*
X45323388Y-32441433D01*
X45224889Y-32718582D01*
X45165049Y-33006551D01*
X45165047Y-33006560D01*
X45144976Y-33299995D01*
X45144976Y-33300002D01*
X45165047Y-33593437D01*
X45165049Y-33593446D01*
X45224889Y-33881415D01*
X45323388Y-34158564D01*
X45458706Y-34419715D01*
X45628318Y-34660001D01*
X45628331Y-34660016D01*
X45642242Y-34674911D01*
X46393619Y-33923533D01*
X46464894Y-34023623D01*
X46616932Y-34168591D01*
X46676176Y-34206664D01*
X45927668Y-34955173D01*
X45927667Y-34955173D01*
X46057230Y-35060581D01*
X46057248Y-35060594D01*
X46308544Y-35213410D01*
X46308551Y-35213414D01*
X46531366Y-35310196D01*
X46577206Y-35350721D01*
X46590472Y-35410451D01*
X46566096Y-35466571D01*
X46513388Y-35497645D01*
X46491924Y-35500000D01*
X12849960Y-35500000D01*
X12791769Y-35481093D01*
X12755805Y-35431593D01*
X12755805Y-35370407D01*
X12787481Y-35324205D01*
X12872329Y-35255173D01*
X12125026Y-34507870D01*
X12262540Y-34399729D01*
X12400110Y-34240965D01*
X12408784Y-34225940D01*
X13157756Y-34974912D01*
X13171678Y-34960005D01*
X13341293Y-34719716D01*
X13476611Y-34458565D01*
X13575110Y-34181416D01*
X13634656Y-33894860D01*
X15849500Y-33894860D01*
X15849501Y-33894863D01*
X15852414Y-33919990D01*
X15877756Y-33977385D01*
X15897794Y-34022765D01*
X15977235Y-34102206D01*
X16080009Y-34147585D01*
X16105135Y-34150500D01*
X17894864Y-34150499D01*
X17919991Y-34147585D01*
X18022765Y-34102206D01*
X18102206Y-34022765D01*
X18147585Y-33919991D01*
X18150500Y-33894865D01*
X18150499Y-33000000D01*
X18384571Y-33000000D01*
X18404244Y-33212310D01*
X18462595Y-33417389D01*
X18557634Y-33608255D01*
X18686128Y-33778407D01*
X18686135Y-33778413D01*
X18843692Y-33922047D01*
X18843699Y-33922053D01*
X18907265Y-33961411D01*
X19024981Y-34034298D01*
X19223802Y-34111321D01*
X19433390Y-34150500D01*
X19646610Y-34150500D01*
X19856198Y-34111321D01*
X20055019Y-34034298D01*
X20236302Y-33922052D01*
X20393872Y-33778407D01*
X20522366Y-33608255D01*
X20617405Y-33417389D01*
X20675756Y-33212310D01*
X20695429Y-33000000D01*
X20675756Y-32787690D01*
X20617405Y-32582611D01*
X20522366Y-32391745D01*
X20522363Y-32391741D01*
X20522362Y-32391739D01*
X20459915Y-32309048D01*
X20439935Y-32251217D01*
X20451714Y-32202521D01*
X20462718Y-32182047D01*
X20475341Y-32163814D01*
X20480762Y-32157608D01*
X20498006Y-32117233D01*
X20501846Y-32109253D01*
X20506580Y-32100447D01*
X20511790Y-32085531D01*
X20514197Y-32079327D01*
X20520387Y-32064836D01*
X20522827Y-32055139D01*
X20525362Y-32046681D01*
X20539852Y-32005212D01*
X20540032Y-31996987D01*
X20543002Y-31974989D01*
X20623958Y-31653381D01*
X20656497Y-31601569D01*
X20713279Y-31578777D01*
X20772613Y-31593713D01*
X20811837Y-31640672D01*
X20814631Y-31648590D01*
X20915384Y-31977940D01*
X20918972Y-31994797D01*
X20921607Y-32016191D01*
X20921607Y-32016192D01*
X20921608Y-32016194D01*
X20932718Y-32040000D01*
X20934582Y-32043993D01*
X20936988Y-32050255D01*
X20937166Y-32050186D01*
X20938589Y-32053796D01*
X20951285Y-32079818D01*
X20952019Y-32081356D01*
X20964273Y-32107610D01*
X20966189Y-32110994D01*
X20966022Y-32111088D01*
X20969376Y-32116895D01*
X20982829Y-32144466D01*
X20982831Y-32144468D01*
X20997806Y-32159970D01*
X21008655Y-32173361D01*
X21041207Y-32221586D01*
X21090144Y-32294085D01*
X21107029Y-32352895D01*
X21096710Y-32393600D01*
X21002595Y-32582611D01*
X20944244Y-32787688D01*
X20930019Y-32941208D01*
X20924571Y-33000000D01*
X20944244Y-33212310D01*
X21002595Y-33417389D01*
X21097634Y-33608255D01*
X21226128Y-33778407D01*
X21226135Y-33778413D01*
X21383692Y-33922047D01*
X21383699Y-33922053D01*
X21447265Y-33961411D01*
X21564981Y-34034298D01*
X21763802Y-34111321D01*
X21973390Y-34150500D01*
X22186610Y-34150500D01*
X22396198Y-34111321D01*
X22595019Y-34034298D01*
X22776302Y-33922052D01*
X22933872Y-33778407D01*
X23062366Y-33608255D01*
X23157405Y-33417389D01*
X23215756Y-33212310D01*
X23235429Y-33000000D01*
X23227767Y-32917316D01*
X23241225Y-32857631D01*
X23287195Y-32817253D01*
X23348120Y-32811607D01*
X23372693Y-32820703D01*
X23417788Y-32844595D01*
X23460356Y-32888545D01*
X23470018Y-32941208D01*
X23464571Y-32999998D01*
X23464571Y-33000000D01*
X23484244Y-33212310D01*
X23542595Y-33417389D01*
X23637634Y-33608255D01*
X23766128Y-33778407D01*
X23766135Y-33778413D01*
X23923692Y-33922047D01*
X23923699Y-33922053D01*
X23987265Y-33961411D01*
X24104981Y-34034298D01*
X24303802Y-34111321D01*
X24513390Y-34150500D01*
X24726610Y-34150500D01*
X24936198Y-34111321D01*
X25135019Y-34034298D01*
X25316302Y-33922052D01*
X25473872Y-33778407D01*
X25602366Y-33608255D01*
X25697405Y-33417389D01*
X25755756Y-33212310D01*
X25775429Y-33000000D01*
X25756897Y-32800000D01*
X26073819Y-32800000D01*
X26697617Y-32800000D01*
X26660000Y-32928111D01*
X26660000Y-33071889D01*
X26697617Y-33200000D01*
X26073820Y-33200000D01*
X26074095Y-33202982D01*
X26074096Y-33202985D01*
X26129887Y-33399070D01*
X26220750Y-33581548D01*
X26220755Y-33581557D01*
X26343608Y-33744240D01*
X26494266Y-33881582D01*
X26667581Y-33988895D01*
X26667586Y-33988898D01*
X26857683Y-34062541D01*
X26959999Y-34081667D01*
X26960000Y-34081667D01*
X26960000Y-33458335D01*
X27017685Y-33484680D01*
X27124237Y-33500000D01*
X27195763Y-33500000D01*
X27302315Y-33484680D01*
X27360000Y-33458335D01*
X27360000Y-34081667D01*
X27462316Y-34062541D01*
X27652413Y-33988898D01*
X27652418Y-33988895D01*
X27825733Y-33881582D01*
X27976391Y-33744240D01*
X28099244Y-33581557D01*
X28099249Y-33581548D01*
X28190112Y-33399070D01*
X28245903Y-33202985D01*
X28245904Y-33202982D01*
X28246180Y-33200000D01*
X27622383Y-33200000D01*
X27660000Y-33071889D01*
X27660000Y-32928111D01*
X27622383Y-32800000D01*
X28246180Y-32800000D01*
X28245904Y-32797017D01*
X28245903Y-32797014D01*
X28190112Y-32600929D01*
X28099249Y-32418451D01*
X28099244Y-32418442D01*
X27976391Y-32255759D01*
X27825733Y-32118417D01*
X27652418Y-32011104D01*
X27652413Y-32011101D01*
X27462317Y-31937458D01*
X27360000Y-31918331D01*
X27360000Y-32541664D01*
X27302315Y-32515320D01*
X27195763Y-32500000D01*
X27124237Y-32500000D01*
X27017685Y-32515320D01*
X26960000Y-32541664D01*
X26960000Y-31918332D01*
X26959999Y-31918331D01*
X26857682Y-31937458D01*
X26667586Y-32011101D01*
X26667581Y-32011104D01*
X26494266Y-32118417D01*
X26343608Y-32255759D01*
X26220755Y-32418442D01*
X26220750Y-32418451D01*
X26129887Y-32600929D01*
X26074096Y-32797014D01*
X26074095Y-32797017D01*
X26073819Y-32800000D01*
X25756897Y-32800000D01*
X25755756Y-32787690D01*
X25697405Y-32582611D01*
X25602366Y-32391745D01*
X25473872Y-32221593D01*
X25403680Y-32157604D01*
X25316307Y-32077952D01*
X25316300Y-32077946D01*
X25135024Y-31965705D01*
X25135019Y-31965702D01*
X25081126Y-31944824D01*
X24936198Y-31888679D01*
X24936197Y-31888678D01*
X24936195Y-31888678D01*
X24726610Y-31849500D01*
X24513390Y-31849500D01*
X24303804Y-31888678D01*
X24104980Y-31965702D01*
X24104975Y-31965705D01*
X23923700Y-32077946D01*
X23920043Y-32080708D01*
X23918959Y-32079273D01*
X23869730Y-32101544D01*
X23812449Y-32090630D01*
X22458104Y-31373095D01*
X22419630Y-31336666D01*
X22402871Y-31308822D01*
X22094073Y-30795759D01*
X22039678Y-30705382D01*
X22025500Y-30654330D01*
X22025500Y-27300000D01*
X28994318Y-27300000D01*
X29014955Y-27456758D01*
X29014957Y-27456766D01*
X29075462Y-27602838D01*
X29075462Y-27602839D01*
X29171713Y-27728276D01*
X29171718Y-27728282D01*
X29297159Y-27824536D01*
X29443238Y-27885044D01*
X29549473Y-27899030D01*
X29604698Y-27925371D01*
X29633893Y-27979142D01*
X29625907Y-28039804D01*
X29596818Y-28075725D01*
X29471723Y-28171713D01*
X29471713Y-28171723D01*
X29375462Y-28297160D01*
X29375462Y-28297161D01*
X29314957Y-28443233D01*
X29314955Y-28443241D01*
X29294318Y-28599999D01*
X29294318Y-28600000D01*
X29314955Y-28756758D01*
X29314957Y-28756766D01*
X29375462Y-28902838D01*
X29375462Y-28902839D01*
X29450231Y-29000280D01*
X29471718Y-29028282D01*
X29471722Y-29028285D01*
X29471723Y-29028286D01*
X29487641Y-29040500D01*
X29597159Y-29124536D01*
X29743238Y-29185044D01*
X29860809Y-29200522D01*
X29899999Y-29205682D01*
X29900000Y-29205682D01*
X29900001Y-29205682D01*
X29931352Y-29201554D01*
X30056762Y-29185044D01*
X30202841Y-29124536D01*
X30328282Y-29028282D01*
X30424536Y-28902841D01*
X30485044Y-28756762D01*
X30505682Y-28600000D01*
X33394318Y-28600000D01*
X33414955Y-28756758D01*
X33414957Y-28756766D01*
X33475462Y-28902838D01*
X33475462Y-28902839D01*
X33550231Y-29000280D01*
X33571718Y-29028282D01*
X33571722Y-29028285D01*
X33571723Y-29028286D01*
X33587641Y-29040500D01*
X33697159Y-29124536D01*
X33843238Y-29185044D01*
X33960809Y-29200522D01*
X33999999Y-29205682D01*
X34000000Y-29205682D01*
X34000001Y-29205682D01*
X34031352Y-29201554D01*
X34156762Y-29185044D01*
X34302841Y-29124536D01*
X34428282Y-29028282D01*
X34524536Y-28902841D01*
X34585044Y-28756762D01*
X34605682Y-28600000D01*
X34585044Y-28443238D01*
X34524537Y-28297161D01*
X34524537Y-28297160D01*
X34428286Y-28171723D01*
X34428285Y-28171722D01*
X34428282Y-28171718D01*
X34428277Y-28171714D01*
X34428276Y-28171713D01*
X34331116Y-28097160D01*
X34302841Y-28075464D01*
X34302840Y-28075463D01*
X34302838Y-28075462D01*
X34156766Y-28014957D01*
X34156758Y-28014955D01*
X34000001Y-27994318D01*
X33999999Y-27994318D01*
X33843241Y-28014955D01*
X33843233Y-28014957D01*
X33697161Y-28075462D01*
X33697160Y-28075462D01*
X33571723Y-28171713D01*
X33571713Y-28171723D01*
X33475462Y-28297160D01*
X33475462Y-28297161D01*
X33414957Y-28443233D01*
X33414955Y-28443241D01*
X33394318Y-28599999D01*
X33394318Y-28600000D01*
X30505682Y-28600000D01*
X30485044Y-28443238D01*
X30424537Y-28297161D01*
X30424537Y-28297160D01*
X30328286Y-28171723D01*
X30328285Y-28171722D01*
X30328282Y-28171718D01*
X30328277Y-28171714D01*
X30328276Y-28171713D01*
X30231116Y-28097160D01*
X30202841Y-28075464D01*
X30202840Y-28075463D01*
X30202838Y-28075462D01*
X30056766Y-28014957D01*
X30056759Y-28014955D01*
X29950525Y-28000969D01*
X29895300Y-27974628D01*
X29866106Y-27920857D01*
X29874092Y-27860195D01*
X29903178Y-27824276D01*
X30028282Y-27728282D01*
X30124536Y-27602841D01*
X30185044Y-27456762D01*
X30205682Y-27300000D01*
X30197783Y-27240002D01*
X43694451Y-27240002D01*
X43714616Y-27509098D01*
X43714618Y-27509107D01*
X43774666Y-27772197D01*
X43869944Y-28014957D01*
X43873257Y-28023398D01*
X44008185Y-28257102D01*
X44008189Y-28257108D01*
X44008191Y-28257110D01*
X44176434Y-28468081D01*
X44176440Y-28468087D01*
X44374252Y-28651629D01*
X44374254Y-28651630D01*
X44374259Y-28651635D01*
X44597226Y-28803651D01*
X44840359Y-28920738D01*
X45098228Y-29000280D01*
X45365071Y-29040500D01*
X45365076Y-29040500D01*
X45634924Y-29040500D01*
X45634929Y-29040500D01*
X45901772Y-29000280D01*
X46159641Y-28920738D01*
X46402775Y-28803651D01*
X46625741Y-28651635D01*
X46823561Y-28468085D01*
X46823565Y-28468081D01*
X46918855Y-28348589D01*
X46991815Y-28257102D01*
X47126743Y-28023398D01*
X47225334Y-27772195D01*
X47285383Y-27509103D01*
X47305549Y-27240000D01*
X47298297Y-27143233D01*
X47292678Y-27068244D01*
X47285383Y-26970897D01*
X47225334Y-26707805D01*
X47211403Y-26672311D01*
X47146431Y-26506766D01*
X47126743Y-26456602D01*
X46991815Y-26222898D01*
X46991808Y-26222889D01*
X46823565Y-26011918D01*
X46823559Y-26011912D01*
X46625747Y-25828370D01*
X46625744Y-25828368D01*
X46625741Y-25828365D01*
X46402775Y-25676349D01*
X46402767Y-25676345D01*
X46159643Y-25559262D01*
X45901776Y-25479721D01*
X45901773Y-25479720D01*
X45901772Y-25479720D01*
X45901767Y-25479719D01*
X45901766Y-25479719D01*
X45634932Y-25439500D01*
X45634929Y-25439500D01*
X45365071Y-25439500D01*
X45365067Y-25439500D01*
X45098233Y-25479719D01*
X45098223Y-25479721D01*
X44840358Y-25559262D01*
X44597233Y-25676345D01*
X44597229Y-25676347D01*
X44597226Y-25676349D01*
X44378517Y-25825462D01*
X44374252Y-25828370D01*
X44176440Y-26011912D01*
X44176434Y-26011918D01*
X44008191Y-26222889D01*
X44008187Y-26222894D01*
X44008185Y-26222898D01*
X43967575Y-26293238D01*
X43873258Y-26456599D01*
X43873254Y-26456608D01*
X43774666Y-26707802D01*
X43714618Y-26970892D01*
X43714616Y-26970901D01*
X43694451Y-27239997D01*
X43694451Y-27240002D01*
X30197783Y-27240002D01*
X30185044Y-27143238D01*
X30185042Y-27143233D01*
X30124537Y-26997161D01*
X30124537Y-26997160D01*
X30028286Y-26871723D01*
X30028285Y-26871722D01*
X30028282Y-26871718D01*
X30028277Y-26871714D01*
X30028276Y-26871713D01*
X29945926Y-26808524D01*
X29902841Y-26775464D01*
X29902840Y-26775463D01*
X29902838Y-26775462D01*
X29756766Y-26714957D01*
X29756758Y-26714955D01*
X29600001Y-26694318D01*
X29599999Y-26694318D01*
X29443241Y-26714955D01*
X29443233Y-26714957D01*
X29297161Y-26775462D01*
X29297160Y-26775462D01*
X29171723Y-26871713D01*
X29171713Y-26871723D01*
X29075462Y-26997160D01*
X29075462Y-26997161D01*
X29014957Y-27143233D01*
X29014955Y-27143241D01*
X28994318Y-27299999D01*
X28994318Y-27300000D01*
X22025500Y-27300000D01*
X22025500Y-26943569D01*
X22044407Y-26885378D01*
X22093907Y-26849414D01*
X22155093Y-26849414D01*
X22184763Y-26865024D01*
X22197159Y-26874536D01*
X22197162Y-26874537D01*
X22197163Y-26874538D01*
X22343233Y-26935042D01*
X22343238Y-26935044D01*
X22460809Y-26950522D01*
X22499999Y-26955682D01*
X22500000Y-26955682D01*
X22500001Y-26955682D01*
X22531352Y-26951554D01*
X22656762Y-26935044D01*
X22802841Y-26874536D01*
X22928282Y-26778282D01*
X23024536Y-26652841D01*
X23085044Y-26506762D01*
X23092517Y-26450000D01*
X23794318Y-26450000D01*
X23814955Y-26606758D01*
X23814957Y-26606766D01*
X23875462Y-26752838D01*
X23875462Y-26752839D01*
X23971713Y-26878276D01*
X23971718Y-26878282D01*
X24097159Y-26974536D01*
X24097160Y-26974536D01*
X24097161Y-26974537D01*
X24151778Y-26997160D01*
X24243238Y-27035044D01*
X24360809Y-27050522D01*
X24399999Y-27055682D01*
X24400000Y-27055682D01*
X24400001Y-27055682D01*
X24431352Y-27051554D01*
X24556762Y-27035044D01*
X24702841Y-26974536D01*
X24828282Y-26878282D01*
X24924536Y-26752841D01*
X24985044Y-26606762D01*
X25005682Y-26450000D01*
X24985044Y-26293238D01*
X24955907Y-26222894D01*
X24924537Y-26147161D01*
X24924537Y-26147160D01*
X24828286Y-26021723D01*
X24828285Y-26021722D01*
X24828282Y-26021718D01*
X24828277Y-26021714D01*
X24828276Y-26021713D01*
X24702838Y-25925462D01*
X24556766Y-25864957D01*
X24556758Y-25864955D01*
X24400001Y-25844318D01*
X24399999Y-25844318D01*
X24243241Y-25864955D01*
X24243233Y-25864957D01*
X24097161Y-25925462D01*
X24097160Y-25925462D01*
X23971723Y-26021713D01*
X23971713Y-26021723D01*
X23875462Y-26147160D01*
X23875462Y-26147161D01*
X23814957Y-26293233D01*
X23814955Y-26293241D01*
X23794318Y-26449999D01*
X23794318Y-26450000D01*
X23092517Y-26450000D01*
X23105682Y-26350000D01*
X23085044Y-26193238D01*
X23056987Y-26125503D01*
X23052186Y-26064506D01*
X23055071Y-26054737D01*
X23057740Y-26047159D01*
X24051431Y-23225076D01*
X24076820Y-23187781D01*
X24076490Y-23187495D01*
X24078938Y-23184668D01*
X24079983Y-23183135D01*
X24081126Y-23182144D01*
X24081125Y-23182144D01*
X24081128Y-23182143D01*
X24175377Y-23073373D01*
X24235165Y-22942457D01*
X24254399Y-22808679D01*
X24255647Y-22800002D01*
X24255647Y-22799997D01*
X24235165Y-22657543D01*
X24175377Y-22526627D01*
X24081128Y-22417857D01*
X24081127Y-22417856D01*
X24081126Y-22417855D01*
X23960057Y-22340049D01*
X23960054Y-22340047D01*
X23960053Y-22340047D01*
X23960050Y-22340046D01*
X23821964Y-22299500D01*
X23821961Y-22299500D01*
X23678039Y-22299500D01*
X23678035Y-22299500D01*
X23539949Y-22340046D01*
X23539942Y-22340049D01*
X23418873Y-22417855D01*
X23324622Y-22526628D01*
X23264834Y-22657543D01*
X23244353Y-22799997D01*
X23244353Y-22800001D01*
X23256708Y-22885934D01*
X23252096Y-22932903D01*
X22254483Y-25766122D01*
X22217323Y-25814730D01*
X22198994Y-25824703D01*
X22197996Y-25825117D01*
X22197156Y-25825465D01*
X22184767Y-25834972D01*
X22127091Y-25855396D01*
X22068425Y-25838018D01*
X22031178Y-25789476D01*
X22025500Y-25756430D01*
X22025500Y-21900000D01*
X28294318Y-21900000D01*
X28314955Y-22056758D01*
X28314957Y-22056766D01*
X28375462Y-22202838D01*
X28375462Y-22202839D01*
X28471713Y-22328276D01*
X28471718Y-22328282D01*
X28597159Y-22424536D01*
X28597160Y-22424536D01*
X28597161Y-22424537D01*
X28608194Y-22429107D01*
X28743238Y-22485044D01*
X28860809Y-22500522D01*
X28899999Y-22505682D01*
X28900000Y-22505682D01*
X28900001Y-22505682D01*
X28931352Y-22501554D01*
X29056762Y-22485044D01*
X29202841Y-22424536D01*
X29239733Y-22396227D01*
X29297408Y-22375804D01*
X29356074Y-22393181D01*
X29360257Y-22396220D01*
X29397159Y-22424536D01*
X29397160Y-22424536D01*
X29397161Y-22424537D01*
X29408194Y-22429107D01*
X29543238Y-22485044D01*
X29660809Y-22500522D01*
X29699999Y-22505682D01*
X29700000Y-22505682D01*
X29700001Y-22505682D01*
X29731352Y-22501554D01*
X29856762Y-22485044D01*
X30002841Y-22424536D01*
X30128282Y-22328282D01*
X30224536Y-22202841D01*
X30242281Y-22160002D01*
X43694451Y-22160002D01*
X43714616Y-22429098D01*
X43714618Y-22429107D01*
X43774666Y-22692197D01*
X43873254Y-22943391D01*
X43873257Y-22943398D01*
X44008185Y-23177102D01*
X44008189Y-23177108D01*
X44008191Y-23177110D01*
X44176434Y-23388081D01*
X44176440Y-23388087D01*
X44374252Y-23571629D01*
X44374254Y-23571630D01*
X44374259Y-23571635D01*
X44597226Y-23723651D01*
X44840359Y-23840738D01*
X45098228Y-23920280D01*
X45365071Y-23960500D01*
X45365076Y-23960500D01*
X45634924Y-23960500D01*
X45634929Y-23960500D01*
X45901772Y-23920280D01*
X46159641Y-23840738D01*
X46402775Y-23723651D01*
X46625741Y-23571635D01*
X46815608Y-23395464D01*
X46823559Y-23388087D01*
X46823565Y-23388081D01*
X46978138Y-23194252D01*
X46991815Y-23177102D01*
X47126743Y-22943398D01*
X47225334Y-22692195D01*
X47285383Y-22429103D01*
X47305549Y-22160000D01*
X47285383Y-21890897D01*
X47225334Y-21627805D01*
X47211403Y-21592311D01*
X47155550Y-21450000D01*
X47126743Y-21376602D01*
X46991815Y-21142898D01*
X46984062Y-21133176D01*
X46823565Y-20931918D01*
X46823559Y-20931912D01*
X46625747Y-20748370D01*
X46625744Y-20748368D01*
X46625741Y-20748365D01*
X46402775Y-20596349D01*
X46402767Y-20596345D01*
X46159643Y-20479262D01*
X45901776Y-20399721D01*
X45901773Y-20399720D01*
X45901772Y-20399720D01*
X45901767Y-20399719D01*
X45901766Y-20399719D01*
X45634932Y-20359500D01*
X45634929Y-20359500D01*
X45365071Y-20359500D01*
X45365067Y-20359500D01*
X45098233Y-20399719D01*
X45098223Y-20399721D01*
X44840358Y-20479262D01*
X44597233Y-20596345D01*
X44597229Y-20596347D01*
X44597226Y-20596349D01*
X44426708Y-20712606D01*
X44374252Y-20748370D01*
X44176440Y-20931912D01*
X44176434Y-20931918D01*
X44008191Y-21142889D01*
X44008187Y-21142894D01*
X44008185Y-21142898D01*
X43953099Y-21238310D01*
X43873258Y-21376599D01*
X43873254Y-21376608D01*
X43774666Y-21627802D01*
X43714618Y-21890892D01*
X43714616Y-21890901D01*
X43694451Y-22159997D01*
X43694451Y-22160002D01*
X30242281Y-22160002D01*
X30285044Y-22056762D01*
X30305682Y-21900000D01*
X30285044Y-21743238D01*
X30224537Y-21597161D01*
X30224537Y-21597160D01*
X30128286Y-21471723D01*
X30128285Y-21471722D01*
X30128282Y-21471718D01*
X30128277Y-21471714D01*
X30128276Y-21471713D01*
X30002838Y-21375462D01*
X29856766Y-21314957D01*
X29856758Y-21314955D01*
X29700001Y-21294318D01*
X29699999Y-21294318D01*
X29543241Y-21314955D01*
X29543236Y-21314957D01*
X29397160Y-21375463D01*
X29397157Y-21375465D01*
X29360267Y-21403772D01*
X29302591Y-21424196D01*
X29243925Y-21406818D01*
X29239733Y-21403772D01*
X29224987Y-21392457D01*
X29202841Y-21375464D01*
X29202836Y-21375462D01*
X29169746Y-21361755D01*
X29056762Y-21314956D01*
X29056759Y-21314955D01*
X29056758Y-21314955D01*
X28900001Y-21294318D01*
X28899999Y-21294318D01*
X28743241Y-21314955D01*
X28743233Y-21314957D01*
X28597161Y-21375462D01*
X28597160Y-21375462D01*
X28471723Y-21471713D01*
X28471713Y-21471723D01*
X28375462Y-21597160D01*
X28375462Y-21597161D01*
X28314957Y-21743233D01*
X28314955Y-21743241D01*
X28294318Y-21899999D01*
X28294318Y-21900000D01*
X22025500Y-21900000D01*
X22025500Y-21417027D01*
X23365814Y-21417027D01*
X23478107Y-21449999D01*
X23478113Y-21450000D01*
X23621888Y-21450000D01*
X23621890Y-21449999D01*
X23734180Y-21417027D01*
X24815814Y-21417027D01*
X24928107Y-21449999D01*
X24928113Y-21450000D01*
X25071888Y-21450000D01*
X25071890Y-21449999D01*
X25184180Y-21417027D01*
X26265814Y-21417027D01*
X26378107Y-21449999D01*
X26378113Y-21450000D01*
X26521888Y-21450000D01*
X26521890Y-21449999D01*
X26634183Y-21417026D01*
X26447229Y-21230072D01*
X26434899Y-21238310D01*
X26431093Y-21250025D01*
X26421004Y-21261838D01*
X26265814Y-21417027D01*
X25184180Y-21417027D01*
X25184183Y-21417026D01*
X24997229Y-21230072D01*
X24984899Y-21238310D01*
X24981093Y-21250025D01*
X24971004Y-21261838D01*
X24815814Y-21417027D01*
X23734180Y-21417027D01*
X23734183Y-21417026D01*
X23547229Y-21230072D01*
X23534899Y-21238310D01*
X23531093Y-21250025D01*
X23521004Y-21261838D01*
X23365814Y-21417027D01*
X22025500Y-21417027D01*
X22025500Y-20950000D01*
X23044858Y-20950000D01*
X23065319Y-21092313D01*
X23083981Y-21133176D01*
X23234664Y-20982492D01*
X23450000Y-20982492D01*
X23488197Y-21035065D01*
X23534162Y-21050000D01*
X23565838Y-21050000D01*
X23611803Y-21035065D01*
X23650000Y-20982492D01*
X23650000Y-20947229D01*
X23830072Y-20947229D01*
X24016017Y-21133174D01*
X24034680Y-21092312D01*
X24034681Y-21092307D01*
X24055142Y-20950000D01*
X24494858Y-20950000D01*
X24515319Y-21092313D01*
X24533981Y-21133176D01*
X24684664Y-20982492D01*
X24900000Y-20982492D01*
X24938197Y-21035065D01*
X24984162Y-21050000D01*
X25015838Y-21050000D01*
X25061803Y-21035065D01*
X25100000Y-20982492D01*
X25100000Y-20947229D01*
X25280072Y-20947229D01*
X25466017Y-21133174D01*
X25484680Y-21092312D01*
X25484681Y-21092307D01*
X25505142Y-20950000D01*
X25944858Y-20950000D01*
X25965319Y-21092313D01*
X25983981Y-21133176D01*
X26134664Y-20982492D01*
X26350000Y-20982492D01*
X26388197Y-21035065D01*
X26434162Y-21050000D01*
X26465838Y-21050000D01*
X26511803Y-21035065D01*
X26550000Y-20982492D01*
X26550000Y-20947229D01*
X26730072Y-20947229D01*
X26916017Y-21133174D01*
X26934680Y-21092312D01*
X26934681Y-21092307D01*
X26955142Y-20950000D01*
X26955142Y-20949997D01*
X26934681Y-20807689D01*
X26916017Y-20766824D01*
X26761838Y-20921004D01*
X26740243Y-20932006D01*
X26730072Y-20947229D01*
X26550000Y-20947229D01*
X26550000Y-20917508D01*
X26511803Y-20864935D01*
X26465838Y-20850000D01*
X26434162Y-20850000D01*
X26388197Y-20864935D01*
X26350000Y-20917508D01*
X26350000Y-20982492D01*
X26134664Y-20982492D01*
X26167156Y-20950000D01*
X26167156Y-20949999D01*
X25983981Y-20766824D01*
X25965319Y-20807687D01*
X25965318Y-20807690D01*
X25944858Y-20949997D01*
X25944858Y-20950000D01*
X25505142Y-20950000D01*
X25505142Y-20949997D01*
X25484681Y-20807689D01*
X25466017Y-20766824D01*
X25311838Y-20921004D01*
X25290243Y-20932006D01*
X25280072Y-20947229D01*
X25100000Y-20947229D01*
X25100000Y-20917508D01*
X25061803Y-20864935D01*
X25015838Y-20850000D01*
X24984162Y-20850000D01*
X24938197Y-20864935D01*
X24900000Y-20917508D01*
X24900000Y-20982492D01*
X24684664Y-20982492D01*
X24717156Y-20950000D01*
X24717156Y-20949999D01*
X24533981Y-20766824D01*
X24515319Y-20807687D01*
X24515318Y-20807690D01*
X24494858Y-20949997D01*
X24494858Y-20950000D01*
X24055142Y-20950000D01*
X24055142Y-20949997D01*
X24034681Y-20807689D01*
X24016017Y-20766824D01*
X23861838Y-20921004D01*
X23840243Y-20932006D01*
X23830072Y-20947229D01*
X23650000Y-20947229D01*
X23650000Y-20917508D01*
X23611803Y-20864935D01*
X23565838Y-20850000D01*
X23534162Y-20850000D01*
X23488197Y-20864935D01*
X23450000Y-20917508D01*
X23450000Y-20982492D01*
X23234664Y-20982492D01*
X23267156Y-20950000D01*
X23267156Y-20949999D01*
X23083981Y-20766824D01*
X23065319Y-20807687D01*
X23065318Y-20807690D01*
X23044858Y-20949997D01*
X23044858Y-20950000D01*
X22025500Y-20950000D01*
X22025500Y-20544639D01*
X22034447Y-20503512D01*
X22043828Y-20482971D01*
X23365814Y-20482971D01*
X23549999Y-20667156D01*
X23734184Y-20482971D01*
X24815814Y-20482971D01*
X24999999Y-20667156D01*
X25184184Y-20482971D01*
X26265814Y-20482971D01*
X26449999Y-20667156D01*
X26634184Y-20482971D01*
X26521891Y-20450000D01*
X26378107Y-20450000D01*
X26265814Y-20482971D01*
X25184184Y-20482971D01*
X25071891Y-20450000D01*
X24928107Y-20450000D01*
X24815814Y-20482971D01*
X23734184Y-20482971D01*
X23621891Y-20450000D01*
X23478107Y-20450000D01*
X23365814Y-20482971D01*
X22043828Y-20482971D01*
X22055256Y-20457948D01*
X22085165Y-20392457D01*
X22102119Y-20274537D01*
X22105647Y-20250002D01*
X22105647Y-20249997D01*
X22085165Y-20107543D01*
X22047257Y-20024537D01*
X22025377Y-19976627D01*
X22017059Y-19967027D01*
X23365814Y-19967027D01*
X23478107Y-19999999D01*
X23478113Y-20000000D01*
X23621888Y-20000000D01*
X23621890Y-19999999D01*
X23734180Y-19967027D01*
X24815814Y-19967027D01*
X24928107Y-19999999D01*
X24928113Y-20000000D01*
X25071888Y-20000000D01*
X25071890Y-19999999D01*
X25184180Y-19967027D01*
X26265814Y-19967027D01*
X26378107Y-19999999D01*
X26378113Y-20000000D01*
X26521888Y-20000000D01*
X26521890Y-19999999D01*
X26634183Y-19967026D01*
X26447229Y-19780072D01*
X26434899Y-19788310D01*
X26431093Y-19800025D01*
X26421004Y-19811838D01*
X26265814Y-19967027D01*
X25184180Y-19967027D01*
X25184183Y-19967026D01*
X24997229Y-19780072D01*
X24984899Y-19788310D01*
X24981093Y-19800025D01*
X24971004Y-19811838D01*
X24815814Y-19967027D01*
X23734180Y-19967027D01*
X23734183Y-19967026D01*
X23547229Y-19780072D01*
X23534899Y-19788310D01*
X23531093Y-19800025D01*
X23521004Y-19811838D01*
X23365814Y-19967027D01*
X22017059Y-19967027D01*
X21931128Y-19867857D01*
X21931127Y-19867856D01*
X21931126Y-19867855D01*
X21810057Y-19790049D01*
X21810054Y-19790047D01*
X21810053Y-19790047D01*
X21810050Y-19790046D01*
X21671964Y-19749500D01*
X21671961Y-19749500D01*
X21528039Y-19749500D01*
X21528035Y-19749500D01*
X21389949Y-19790046D01*
X21389942Y-19790049D01*
X21268873Y-19867855D01*
X21174622Y-19976628D01*
X21114834Y-20107543D01*
X21106632Y-20164590D01*
X21079636Y-20219497D01*
X21025521Y-20248050D01*
X21008640Y-20249500D01*
X20928035Y-20249500D01*
X20789949Y-20290046D01*
X20789942Y-20290049D01*
X20668873Y-20367855D01*
X20574622Y-20476628D01*
X20514834Y-20607543D01*
X20506632Y-20664590D01*
X20479636Y-20719497D01*
X20425521Y-20748050D01*
X20408640Y-20749500D01*
X20328035Y-20749500D01*
X20189949Y-20790046D01*
X20189942Y-20790049D01*
X20068873Y-20867855D01*
X19974622Y-20976628D01*
X19914834Y-21107543D01*
X19894353Y-21249997D01*
X19894353Y-21250002D01*
X19914834Y-21392456D01*
X19965553Y-21503512D01*
X19974500Y-21544639D01*
X19974500Y-30735000D01*
X19971505Y-30759167D01*
X19719171Y-31761596D01*
X19710369Y-31784296D01*
X19703344Y-31797367D01*
X19659142Y-31839673D01*
X19616141Y-31849500D01*
X19433390Y-31849500D01*
X19223804Y-31888678D01*
X19024980Y-31965702D01*
X19024975Y-31965705D01*
X18843699Y-32077946D01*
X18843692Y-32077952D01*
X18686135Y-32221586D01*
X18686131Y-32221589D01*
X18686128Y-32221593D01*
X18686125Y-32221597D01*
X18557635Y-32391743D01*
X18557630Y-32391752D01*
X18465700Y-32576375D01*
X18462595Y-32582611D01*
X18457383Y-32600929D01*
X18404244Y-32787688D01*
X18390019Y-32941208D01*
X18384571Y-33000000D01*
X18150499Y-33000000D01*
X18150499Y-32105136D01*
X18147585Y-32080009D01*
X18102206Y-31977235D01*
X18022765Y-31897794D01*
X17919991Y-31852415D01*
X17919990Y-31852414D01*
X17919988Y-31852414D01*
X17894868Y-31849500D01*
X16105139Y-31849500D01*
X16105136Y-31849501D01*
X16080009Y-31852414D01*
X15977235Y-31897794D01*
X15897794Y-31977235D01*
X15852414Y-32080011D01*
X15849500Y-32105130D01*
X15849500Y-33894860D01*
X13634656Y-33894860D01*
X13634950Y-33893447D01*
X13634952Y-33893438D01*
X13655024Y-33600003D01*
X13655024Y-33599996D01*
X13634952Y-33306561D01*
X13634950Y-33306552D01*
X13575110Y-33018583D01*
X13476611Y-32741434D01*
X13341293Y-32480283D01*
X13171681Y-32239997D01*
X13171668Y-32239982D01*
X13157756Y-32225086D01*
X12406378Y-32976463D01*
X12335106Y-32876376D01*
X12183068Y-32731408D01*
X12123821Y-32693332D01*
X12872330Y-31944824D01*
X12872331Y-31944824D01*
X12742769Y-31839417D01*
X12742751Y-31839404D01*
X12491455Y-31686588D01*
X12491448Y-31686584D01*
X12221676Y-31569406D01*
X11938456Y-31490051D01*
X11938447Y-31490049D01*
X11647063Y-31450000D01*
X11352936Y-31450000D01*
X11061552Y-31490049D01*
X11061543Y-31490051D01*
X10778323Y-31569406D01*
X10508551Y-31686584D01*
X10508544Y-31686588D01*
X10257246Y-31839406D01*
X10257230Y-31839417D01*
X10127668Y-31944824D01*
X10874973Y-32692129D01*
X10737460Y-32800271D01*
X10599890Y-32959035D01*
X10591215Y-32974059D01*
X9842242Y-32225086D01*
X9828320Y-32239994D01*
X9658706Y-32480283D01*
X9523388Y-32741434D01*
X9424889Y-33018583D01*
X9365049Y-33306552D01*
X9365047Y-33306561D01*
X9344976Y-33599996D01*
X9344976Y-33600003D01*
X9365047Y-33893438D01*
X9365049Y-33893447D01*
X9424889Y-34181416D01*
X9523388Y-34458565D01*
X9658706Y-34719716D01*
X9828318Y-34960002D01*
X9828331Y-34960017D01*
X9842242Y-34974912D01*
X10593619Y-34223534D01*
X10664894Y-34323624D01*
X10816932Y-34468592D01*
X10876176Y-34506665D01*
X10127668Y-35255174D01*
X10127667Y-35255174D01*
X10212517Y-35324205D01*
X10245724Y-35375595D01*
X10242382Y-35436689D01*
X10203769Y-35484151D01*
X10150039Y-35500000D01*
X599000Y-35500000D01*
X540809Y-35481093D01*
X504845Y-35431593D01*
X500000Y-35401000D01*
X500000Y-31340000D01*
X2913819Y-31340000D01*
X3537617Y-31340000D01*
X3500000Y-31468111D01*
X3500000Y-31611889D01*
X3537617Y-31740000D01*
X2913820Y-31740000D01*
X2914095Y-31742982D01*
X2914096Y-31742985D01*
X2969887Y-31939070D01*
X3060750Y-32121548D01*
X3060755Y-32121557D01*
X3183608Y-32284240D01*
X3334266Y-32421582D01*
X3507581Y-32528895D01*
X3507586Y-32528898D01*
X3697683Y-32602541D01*
X3799999Y-32621667D01*
X3800000Y-32621667D01*
X3800000Y-31998335D01*
X3857685Y-32024680D01*
X3964237Y-32040000D01*
X4035763Y-32040000D01*
X4142315Y-32024680D01*
X4200000Y-31998335D01*
X4200000Y-32621667D01*
X4302316Y-32602541D01*
X4492413Y-32528898D01*
X4492418Y-32528895D01*
X4665733Y-32421582D01*
X4816391Y-32284240D01*
X4939244Y-32121557D01*
X4939249Y-32121548D01*
X5030112Y-31939070D01*
X5085903Y-31742985D01*
X5085904Y-31742982D01*
X5086180Y-31740000D01*
X4462383Y-31740000D01*
X4500000Y-31611889D01*
X4500000Y-31468111D01*
X4462383Y-31340000D01*
X5086180Y-31340000D01*
X5085904Y-31337017D01*
X5085903Y-31337014D01*
X5030112Y-31140929D01*
X4939249Y-30958451D01*
X4939244Y-30958442D01*
X4816391Y-30795759D01*
X4665733Y-30658417D01*
X4492418Y-30551104D01*
X4492413Y-30551101D01*
X4302317Y-30477458D01*
X4200000Y-30458331D01*
X4200000Y-31081664D01*
X4142315Y-31055320D01*
X4035763Y-31040000D01*
X3964237Y-31040000D01*
X3857685Y-31055320D01*
X3800000Y-31081664D01*
X3800000Y-30458332D01*
X3799999Y-30458331D01*
X3697682Y-30477458D01*
X3507586Y-30551101D01*
X3507581Y-30551104D01*
X3334266Y-30658417D01*
X3183608Y-30795759D01*
X3060755Y-30958442D01*
X3060750Y-30958451D01*
X2969887Y-31140929D01*
X2914096Y-31337014D01*
X2914095Y-31337017D01*
X2913819Y-31340000D01*
X500000Y-31340000D01*
X500000Y-29000000D01*
X2844571Y-29000000D01*
X2864244Y-29212310D01*
X2922595Y-29417389D01*
X3017634Y-29608255D01*
X3146128Y-29778407D01*
X3146135Y-29778413D01*
X3303692Y-29922047D01*
X3303699Y-29922053D01*
X3407389Y-29986255D01*
X3484981Y-30034298D01*
X3683802Y-30111321D01*
X3893390Y-30150500D01*
X4106610Y-30150500D01*
X4316198Y-30111321D01*
X4515019Y-30034298D01*
X4696302Y-29922052D01*
X4853872Y-29778407D01*
X4982366Y-29608255D01*
X5046043Y-29480373D01*
X5088905Y-29436710D01*
X5134664Y-29425500D01*
X12067394Y-29425500D01*
X12076875Y-29422418D01*
X12092222Y-29417431D01*
X12107328Y-29413803D01*
X12133126Y-29409719D01*
X12156405Y-29397856D01*
X12170738Y-29391920D01*
X12195581Y-29383849D01*
X12216707Y-29368498D01*
X12229950Y-29360383D01*
X12253220Y-29348528D01*
X12348528Y-29253220D01*
X12348528Y-29253219D01*
X12853218Y-28748528D01*
X12853220Y-28748528D01*
X12948528Y-28653220D01*
X12960386Y-28629945D01*
X12968496Y-28616711D01*
X12983849Y-28595581D01*
X12991920Y-28570738D01*
X12997856Y-28556405D01*
X13009719Y-28533126D01*
X13013803Y-28507328D01*
X13017431Y-28492222D01*
X13022418Y-28476875D01*
X13025500Y-28467394D01*
X13025500Y-26815513D01*
X13044407Y-26757322D01*
X13045958Y-26755246D01*
X13124536Y-26652841D01*
X13185044Y-26506762D01*
X13205682Y-26350000D01*
X13185044Y-26193238D01*
X13165958Y-26147160D01*
X13124537Y-26047161D01*
X13124537Y-26047160D01*
X13028286Y-25921723D01*
X13028285Y-25921722D01*
X13028282Y-25921718D01*
X13028277Y-25921714D01*
X13028276Y-25921713D01*
X12937091Y-25851745D01*
X12902841Y-25825464D01*
X12902840Y-25825463D01*
X12902838Y-25825462D01*
X12756766Y-25764957D01*
X12756758Y-25764955D01*
X12600001Y-25744318D01*
X12599999Y-25744318D01*
X12443241Y-25764955D01*
X12443233Y-25764957D01*
X12297161Y-25825462D01*
X12297160Y-25825462D01*
X12171723Y-25921713D01*
X12171713Y-25921723D01*
X12075462Y-26047160D01*
X12075462Y-26047161D01*
X12014957Y-26193233D01*
X12014955Y-26193241D01*
X11994318Y-26349999D01*
X11994318Y-26350000D01*
X12014955Y-26506758D01*
X12014957Y-26506766D01*
X12075462Y-26652838D01*
X12075462Y-26652839D01*
X12123126Y-26714956D01*
X12152196Y-26752841D01*
X12154042Y-26755246D01*
X12174466Y-26812922D01*
X12174500Y-26815513D01*
X12174500Y-28182744D01*
X12155593Y-28240935D01*
X12145504Y-28252748D01*
X11852748Y-28545504D01*
X11798231Y-28573281D01*
X11782744Y-28574500D01*
X9195597Y-28574500D01*
X9137406Y-28555593D01*
X9101442Y-28506093D01*
X9097444Y-28462579D01*
X9105682Y-28400001D01*
X9105682Y-28399999D01*
X9100522Y-28360809D01*
X9085044Y-28243238D01*
X9076078Y-28221593D01*
X9024537Y-28097161D01*
X9024537Y-28097160D01*
X8928286Y-27971723D01*
X8928285Y-27971722D01*
X8928282Y-27971718D01*
X8928277Y-27971714D01*
X8928276Y-27971713D01*
X8802838Y-27875462D01*
X8656766Y-27814957D01*
X8656758Y-27814955D01*
X8500001Y-27794318D01*
X8499999Y-27794318D01*
X8343241Y-27814955D01*
X8343233Y-27814957D01*
X8197161Y-27875462D01*
X8197160Y-27875462D01*
X8071723Y-27971713D01*
X8071713Y-27971723D01*
X7975462Y-28097160D01*
X7975462Y-28097161D01*
X7914957Y-28243233D01*
X7914955Y-28243241D01*
X7894318Y-28399999D01*
X7894318Y-28400001D01*
X7902556Y-28462579D01*
X7891406Y-28522739D01*
X7847023Y-28564856D01*
X7804403Y-28574500D01*
X5134664Y-28574500D01*
X5076473Y-28555593D01*
X5046043Y-28519627D01*
X4982371Y-28391755D01*
X4982369Y-28391752D01*
X4982366Y-28391745D01*
X4853872Y-28221593D01*
X4717378Y-28097161D01*
X4696307Y-28077952D01*
X4696300Y-28077946D01*
X4515024Y-27965705D01*
X4515019Y-27965702D01*
X4410912Y-27925371D01*
X4316198Y-27888679D01*
X4316197Y-27888678D01*
X4316195Y-27888678D01*
X4106610Y-27849500D01*
X3893390Y-27849500D01*
X3683804Y-27888678D01*
X3484980Y-27965702D01*
X3484975Y-27965705D01*
X3303699Y-28077946D01*
X3303692Y-28077952D01*
X3146135Y-28221586D01*
X3146131Y-28221589D01*
X3146128Y-28221593D01*
X3146125Y-28221597D01*
X3017635Y-28391743D01*
X3017630Y-28391752D01*
X2922596Y-28582608D01*
X2864244Y-28787688D01*
X2844571Y-29000000D01*
X500000Y-29000000D01*
X500000Y-26460000D01*
X2844571Y-26460000D01*
X2864244Y-26672311D01*
X2874343Y-26707805D01*
X2922595Y-26877389D01*
X3017634Y-27068255D01*
X3146128Y-27238407D01*
X3147878Y-27240002D01*
X3303692Y-27382047D01*
X3303699Y-27382053D01*
X3407389Y-27446255D01*
X3484981Y-27494298D01*
X3683802Y-27571321D01*
X3893390Y-27610500D01*
X4106610Y-27610500D01*
X4316198Y-27571321D01*
X4515019Y-27494298D01*
X4696302Y-27382052D01*
X4853872Y-27238407D01*
X4982366Y-27068255D01*
X5038420Y-26955682D01*
X5046043Y-26940373D01*
X5088905Y-26896710D01*
X5134664Y-26885500D01*
X10762394Y-26885500D01*
X10771875Y-26882418D01*
X10787222Y-26877431D01*
X10802328Y-26873803D01*
X10828126Y-26869719D01*
X10851405Y-26857856D01*
X10865738Y-26851920D01*
X10890581Y-26843849D01*
X10911707Y-26828498D01*
X10924950Y-26820383D01*
X10948220Y-26808528D01*
X11043528Y-26713220D01*
X11043528Y-26713219D01*
X11253218Y-26503528D01*
X11253220Y-26503528D01*
X11348528Y-26408220D01*
X11360386Y-26384945D01*
X11368496Y-26371711D01*
X11383849Y-26350581D01*
X11390883Y-26328929D01*
X11424777Y-26280971D01*
X11428282Y-26278282D01*
X11524536Y-26152841D01*
X11585044Y-26006762D01*
X11605682Y-25850000D01*
X11585044Y-25693238D01*
X11580222Y-25681597D01*
X11524537Y-25547161D01*
X11524537Y-25547160D01*
X11428286Y-25421723D01*
X11428285Y-25421722D01*
X11428282Y-25421718D01*
X11428277Y-25421714D01*
X11428276Y-25421713D01*
X11302838Y-25325462D01*
X11156766Y-25264957D01*
X11156758Y-25264955D01*
X11000001Y-25244318D01*
X10999999Y-25244318D01*
X10843241Y-25264955D01*
X10843233Y-25264957D01*
X10697161Y-25325462D01*
X10697160Y-25325462D01*
X10571723Y-25421713D01*
X10571713Y-25421723D01*
X10475462Y-25547160D01*
X10475462Y-25547161D01*
X10414957Y-25693233D01*
X10414955Y-25693241D01*
X10394318Y-25849999D01*
X10394318Y-25850000D01*
X10403873Y-25922578D01*
X10392723Y-25982739D01*
X10348341Y-26024856D01*
X10305720Y-26034500D01*
X9194280Y-26034500D01*
X9136089Y-26015593D01*
X9100125Y-25966093D01*
X9096127Y-25922578D01*
X9105682Y-25850000D01*
X9105682Y-25849999D01*
X9085044Y-25693241D01*
X9085044Y-25693238D01*
X9080222Y-25681597D01*
X9024537Y-25547161D01*
X9024537Y-25547160D01*
X8928286Y-25421723D01*
X8928285Y-25421722D01*
X8928282Y-25421718D01*
X8928277Y-25421714D01*
X8928276Y-25421713D01*
X8802838Y-25325462D01*
X8656766Y-25264957D01*
X8656758Y-25264955D01*
X8500001Y-25244318D01*
X8499999Y-25244318D01*
X8343241Y-25264955D01*
X8343233Y-25264957D01*
X8197161Y-25325462D01*
X8197160Y-25325462D01*
X8071723Y-25421713D01*
X8071713Y-25421723D01*
X7975462Y-25547160D01*
X7975462Y-25547161D01*
X7914957Y-25693233D01*
X7914955Y-25693241D01*
X7894318Y-25849999D01*
X7894318Y-25850000D01*
X7903873Y-25922578D01*
X7892723Y-25982739D01*
X7848341Y-26024856D01*
X7805720Y-26034500D01*
X5134664Y-26034500D01*
X5076473Y-26015593D01*
X5046043Y-25979627D01*
X4982371Y-25851755D01*
X4982369Y-25851752D01*
X4982366Y-25851745D01*
X4853872Y-25681593D01*
X4799623Y-25632139D01*
X4696307Y-25537952D01*
X4696300Y-25537946D01*
X4515024Y-25425705D01*
X4515019Y-25425702D01*
X4316195Y-25348678D01*
X4106610Y-25309500D01*
X3893390Y-25309500D01*
X3683804Y-25348678D01*
X3484980Y-25425702D01*
X3484975Y-25425705D01*
X3303699Y-25537946D01*
X3303692Y-25537952D01*
X3146135Y-25681586D01*
X3146131Y-25681589D01*
X3146128Y-25681593D01*
X3146125Y-25681597D01*
X3017635Y-25851743D01*
X3017630Y-25851752D01*
X2922596Y-26042608D01*
X2922595Y-26042611D01*
X2919145Y-26054737D01*
X2864244Y-26247688D01*
X2844571Y-26460000D01*
X500000Y-26460000D01*
X500000Y-23920000D01*
X2844571Y-23920000D01*
X2864244Y-24132310D01*
X2922595Y-24337389D01*
X3017634Y-24528255D01*
X3146128Y-24698407D01*
X3146135Y-24698413D01*
X3303692Y-24842047D01*
X3303699Y-24842053D01*
X3407389Y-24906255D01*
X3484981Y-24954298D01*
X3683802Y-25031321D01*
X3893390Y-25070500D01*
X4106610Y-25070500D01*
X4316198Y-25031321D01*
X4515019Y-24954298D01*
X4696302Y-24842052D01*
X4853872Y-24698407D01*
X4982366Y-24528255D01*
X5077405Y-24337389D01*
X5135756Y-24132310D01*
X5155429Y-23920000D01*
X9694318Y-23920000D01*
X9714955Y-24076758D01*
X9714957Y-24076766D01*
X9775462Y-24222838D01*
X9775462Y-24222839D01*
X9863361Y-24337391D01*
X9871718Y-24348282D01*
X9997159Y-24444536D01*
X10143238Y-24505044D01*
X10260809Y-24520522D01*
X10299999Y-24525682D01*
X10300000Y-24525682D01*
X10300001Y-24525682D01*
X10331352Y-24521554D01*
X10456762Y-24505044D01*
X10602841Y-24444536D01*
X10728282Y-24348282D01*
X10824536Y-24222841D01*
X10885044Y-24076762D01*
X10905682Y-23920000D01*
X10885044Y-23763238D01*
X10862035Y-23707690D01*
X10824537Y-23617161D01*
X10824537Y-23617160D01*
X10728286Y-23491723D01*
X10728285Y-23491722D01*
X10728282Y-23491718D01*
X10728277Y-23491714D01*
X10728276Y-23491713D01*
X10602838Y-23395462D01*
X10456766Y-23334957D01*
X10456758Y-23334955D01*
X10300001Y-23314318D01*
X10299999Y-23314318D01*
X10143241Y-23334955D01*
X10143233Y-23334957D01*
X9997161Y-23395462D01*
X9997160Y-23395462D01*
X9871723Y-23491713D01*
X9871713Y-23491723D01*
X9775462Y-23617160D01*
X9775462Y-23617161D01*
X9714957Y-23763233D01*
X9714955Y-23763241D01*
X9694318Y-23919999D01*
X9694318Y-23920000D01*
X5155429Y-23920000D01*
X5135756Y-23707690D01*
X5077405Y-23502611D01*
X4982366Y-23311745D01*
X4853872Y-23141593D01*
X4779037Y-23073371D01*
X4696307Y-22997952D01*
X4696300Y-22997946D01*
X4515024Y-22885705D01*
X4515019Y-22885702D01*
X4316195Y-22808678D01*
X4106610Y-22769500D01*
X3893390Y-22769500D01*
X3683804Y-22808678D01*
X3484980Y-22885702D01*
X3484975Y-22885705D01*
X3303699Y-22997946D01*
X3303692Y-22997952D01*
X3146135Y-23141586D01*
X3146131Y-23141589D01*
X3146128Y-23141593D01*
X3146125Y-23141597D01*
X3017635Y-23311743D01*
X3017630Y-23311752D01*
X2922596Y-23502608D01*
X2864244Y-23707688D01*
X2844571Y-23919999D01*
X2844571Y-23920000D01*
X500000Y-23920000D01*
X500000Y-21380000D01*
X2844571Y-21380000D01*
X2864244Y-21592311D01*
X2874343Y-21627805D01*
X2922595Y-21797389D01*
X3017634Y-21988255D01*
X3146128Y-22158407D01*
X3216734Y-22222773D01*
X3303692Y-22302047D01*
X3303699Y-22302053D01*
X3346067Y-22328286D01*
X3484981Y-22414298D01*
X3683802Y-22491321D01*
X3893390Y-22530500D01*
X4106610Y-22530500D01*
X4316198Y-22491321D01*
X4515019Y-22414298D01*
X4696302Y-22302052D01*
X4853872Y-22158407D01*
X4982366Y-21988255D01*
X5046043Y-21860373D01*
X5088905Y-21816710D01*
X5134664Y-21805500D01*
X8867394Y-21805500D01*
X8876875Y-21802418D01*
X8892222Y-21797431D01*
X8907328Y-21793803D01*
X8933126Y-21789719D01*
X8956405Y-21777856D01*
X8970738Y-21771920D01*
X8995581Y-21763849D01*
X9016714Y-21748494D01*
X9029947Y-21740385D01*
X9053220Y-21728528D01*
X9148528Y-21633220D01*
X9148528Y-21633219D01*
X9724554Y-21057193D01*
X9748528Y-21033219D01*
X9760389Y-21009939D01*
X9768496Y-20996710D01*
X9783850Y-20975579D01*
X9791919Y-20950742D01*
X9797862Y-20936393D01*
X9809719Y-20913125D01*
X9813804Y-20887330D01*
X9817426Y-20872239D01*
X9825500Y-20847391D01*
X9825500Y-20712606D01*
X9825500Y-19750000D01*
X16994318Y-19750000D01*
X17014955Y-19906758D01*
X17014957Y-19906766D01*
X17075462Y-20052838D01*
X17075462Y-20052839D01*
X17171713Y-20178276D01*
X17171718Y-20178282D01*
X17297159Y-20274536D01*
X17297160Y-20274536D01*
X17297161Y-20274537D01*
X17443233Y-20335042D01*
X17443238Y-20335044D01*
X17560809Y-20350522D01*
X17599999Y-20355682D01*
X17600000Y-20355682D01*
X17600001Y-20355682D01*
X17631352Y-20351554D01*
X17756762Y-20335044D01*
X17902841Y-20274536D01*
X18028282Y-20178282D01*
X18124536Y-20052841D01*
X18185044Y-19906762D01*
X18205682Y-19750000D01*
X18185044Y-19593238D01*
X18169935Y-19556762D01*
X18146424Y-19500000D01*
X23044858Y-19500000D01*
X23065319Y-19642313D01*
X23083981Y-19683176D01*
X23234664Y-19532492D01*
X23450000Y-19532492D01*
X23488197Y-19585065D01*
X23534162Y-19600000D01*
X23565838Y-19600000D01*
X23611803Y-19585065D01*
X23650000Y-19532492D01*
X23650000Y-19497229D01*
X23830072Y-19497229D01*
X24016017Y-19683174D01*
X24034680Y-19642312D01*
X24034681Y-19642307D01*
X24055142Y-19500000D01*
X24494858Y-19500000D01*
X24515319Y-19642313D01*
X24533981Y-19683176D01*
X24684664Y-19532492D01*
X24900000Y-19532492D01*
X24938197Y-19585065D01*
X24984162Y-19600000D01*
X25015838Y-19600000D01*
X25061803Y-19585065D01*
X25100000Y-19532492D01*
X25100000Y-19497229D01*
X25280072Y-19497229D01*
X25466017Y-19683174D01*
X25484680Y-19642312D01*
X25484681Y-19642307D01*
X25505142Y-19500000D01*
X25944858Y-19500000D01*
X25965319Y-19642313D01*
X25983981Y-19683176D01*
X26134664Y-19532492D01*
X26350000Y-19532492D01*
X26388197Y-19585065D01*
X26434162Y-19600000D01*
X26465838Y-19600000D01*
X26511803Y-19585065D01*
X26550000Y-19532492D01*
X26550000Y-19497229D01*
X26730072Y-19497229D01*
X26916017Y-19683174D01*
X26934680Y-19642312D01*
X26934681Y-19642307D01*
X26955142Y-19500000D01*
X29894318Y-19500000D01*
X29914955Y-19656758D01*
X29914957Y-19656766D01*
X29975462Y-19802838D01*
X29975462Y-19802839D01*
X30068844Y-19924537D01*
X30071718Y-19928282D01*
X30071722Y-19928285D01*
X30071723Y-19928286D01*
X30089747Y-19942116D01*
X30197159Y-20024536D01*
X30197160Y-20024536D01*
X30197161Y-20024537D01*
X30265486Y-20052838D01*
X30343238Y-20085044D01*
X30460809Y-20100522D01*
X30499999Y-20105682D01*
X30500000Y-20105682D01*
X30500001Y-20105682D01*
X30531352Y-20101554D01*
X30656762Y-20085044D01*
X30802841Y-20024536D01*
X30910254Y-19942114D01*
X30967927Y-19921692D01*
X31008403Y-19929193D01*
X31143238Y-19985044D01*
X31256833Y-19999999D01*
X31299999Y-20005682D01*
X31300000Y-20005682D01*
X31300001Y-20005682D01*
X31343167Y-19999999D01*
X31456762Y-19985044D01*
X31602841Y-19924536D01*
X31728282Y-19828282D01*
X31824536Y-19702841D01*
X31885044Y-19556762D01*
X31905682Y-19400000D01*
X31885044Y-19243238D01*
X31881352Y-19234325D01*
X31824537Y-19097161D01*
X31824537Y-19097160D01*
X31728286Y-18971723D01*
X31728285Y-18971722D01*
X31728282Y-18971718D01*
X31728277Y-18971714D01*
X31728276Y-18971713D01*
X31609404Y-18880500D01*
X31602841Y-18875464D01*
X31602840Y-18875463D01*
X31602838Y-18875462D01*
X31456766Y-18814957D01*
X31456758Y-18814955D01*
X31300001Y-18794318D01*
X31299999Y-18794318D01*
X31143241Y-18814955D01*
X31143233Y-18814957D01*
X30997161Y-18875462D01*
X30997160Y-18875462D01*
X30889747Y-18957883D01*
X30832071Y-18978307D01*
X30791595Y-18970805D01*
X30656766Y-18914957D01*
X30656758Y-18914955D01*
X30500001Y-18894318D01*
X30499999Y-18894318D01*
X30343241Y-18914955D01*
X30343233Y-18914957D01*
X30197161Y-18975462D01*
X30197160Y-18975462D01*
X30071723Y-19071713D01*
X30071713Y-19071723D01*
X29975462Y-19197160D01*
X29975462Y-19197161D01*
X29914957Y-19343233D01*
X29914955Y-19343241D01*
X29894318Y-19499999D01*
X29894318Y-19500000D01*
X26955142Y-19500000D01*
X26955142Y-19499997D01*
X26934681Y-19357689D01*
X26916017Y-19316824D01*
X26761838Y-19471004D01*
X26740243Y-19482006D01*
X26730072Y-19497229D01*
X26550000Y-19497229D01*
X26550000Y-19467508D01*
X26511803Y-19414935D01*
X26465838Y-19400000D01*
X26434162Y-19400000D01*
X26388197Y-19414935D01*
X26350000Y-19467508D01*
X26350000Y-19532492D01*
X26134664Y-19532492D01*
X26167156Y-19500000D01*
X26167156Y-19499999D01*
X25983981Y-19316824D01*
X25965319Y-19357687D01*
X25965318Y-19357690D01*
X25944858Y-19499997D01*
X25944858Y-19500000D01*
X25505142Y-19500000D01*
X25505142Y-19499997D01*
X25484681Y-19357689D01*
X25466017Y-19316824D01*
X25311838Y-19471004D01*
X25290243Y-19482006D01*
X25280072Y-19497229D01*
X25100000Y-19497229D01*
X25100000Y-19467508D01*
X25061803Y-19414935D01*
X25015838Y-19400000D01*
X24984162Y-19400000D01*
X24938197Y-19414935D01*
X24900000Y-19467508D01*
X24900000Y-19532492D01*
X24684664Y-19532492D01*
X24717156Y-19500000D01*
X24717156Y-19499999D01*
X24533981Y-19316824D01*
X24515319Y-19357687D01*
X24515318Y-19357690D01*
X24494858Y-19499997D01*
X24494858Y-19500000D01*
X24055142Y-19500000D01*
X24055142Y-19499997D01*
X24034681Y-19357689D01*
X24016017Y-19316824D01*
X23861838Y-19471004D01*
X23840243Y-19482006D01*
X23830072Y-19497229D01*
X23650000Y-19497229D01*
X23650000Y-19467508D01*
X23611803Y-19414935D01*
X23565838Y-19400000D01*
X23534162Y-19400000D01*
X23488197Y-19414935D01*
X23450000Y-19467508D01*
X23450000Y-19532492D01*
X23234664Y-19532492D01*
X23267156Y-19500000D01*
X23267156Y-19499999D01*
X23083981Y-19316824D01*
X23065319Y-19357687D01*
X23065318Y-19357690D01*
X23044858Y-19499997D01*
X23044858Y-19500000D01*
X18146424Y-19500000D01*
X18124537Y-19447161D01*
X18124537Y-19447160D01*
X18028286Y-19321723D01*
X18028285Y-19321722D01*
X18028282Y-19321718D01*
X18028277Y-19321714D01*
X18028276Y-19321713D01*
X17944449Y-19257391D01*
X17902841Y-19225464D01*
X17902840Y-19225463D01*
X17902838Y-19225462D01*
X17756766Y-19164957D01*
X17756758Y-19164955D01*
X17600001Y-19144318D01*
X17599999Y-19144318D01*
X17443241Y-19164955D01*
X17443233Y-19164957D01*
X17297161Y-19225462D01*
X17297160Y-19225462D01*
X17171723Y-19321713D01*
X17171713Y-19321723D01*
X17075462Y-19447160D01*
X17075462Y-19447161D01*
X17014957Y-19593233D01*
X17014955Y-19593241D01*
X16994318Y-19749999D01*
X16994318Y-19750000D01*
X9825500Y-19750000D01*
X9825500Y-19032971D01*
X23365814Y-19032971D01*
X23549999Y-19217156D01*
X23734184Y-19032971D01*
X24815814Y-19032971D01*
X24999999Y-19217156D01*
X25184184Y-19032971D01*
X26265814Y-19032971D01*
X26449999Y-19217156D01*
X26634184Y-19032971D01*
X26521891Y-19000000D01*
X26378107Y-19000000D01*
X26265814Y-19032971D01*
X25184184Y-19032971D01*
X25071891Y-19000000D01*
X24928107Y-19000000D01*
X24815814Y-19032971D01*
X23734184Y-19032971D01*
X23621891Y-19000000D01*
X23478107Y-19000000D01*
X23365814Y-19032971D01*
X9825500Y-19032971D01*
X9825500Y-18517027D01*
X23365814Y-18517027D01*
X23478107Y-18549999D01*
X23478113Y-18550000D01*
X23621888Y-18550000D01*
X23621890Y-18549999D01*
X23734180Y-18517027D01*
X24815814Y-18517027D01*
X24928107Y-18549999D01*
X24928113Y-18550000D01*
X25071888Y-18550000D01*
X25071890Y-18549999D01*
X25184180Y-18517027D01*
X26265814Y-18517027D01*
X26378107Y-18549999D01*
X26378113Y-18550000D01*
X26521888Y-18550000D01*
X26521890Y-18549999D01*
X26634183Y-18517026D01*
X26447229Y-18330072D01*
X26434899Y-18338310D01*
X26431093Y-18350025D01*
X26421004Y-18361838D01*
X26265814Y-18517027D01*
X25184180Y-18517027D01*
X25184183Y-18517026D01*
X24997229Y-18330072D01*
X24984899Y-18338310D01*
X24981093Y-18350025D01*
X24971004Y-18361838D01*
X24815814Y-18517027D01*
X23734180Y-18517027D01*
X23734183Y-18517026D01*
X23547229Y-18330072D01*
X23534899Y-18338310D01*
X23531093Y-18350025D01*
X23521004Y-18361838D01*
X23365814Y-18517027D01*
X9825500Y-18517027D01*
X9825500Y-18050000D01*
X23044858Y-18050000D01*
X23065319Y-18192313D01*
X23083981Y-18233176D01*
X23234664Y-18082492D01*
X23450000Y-18082492D01*
X23488197Y-18135065D01*
X23534162Y-18150000D01*
X23565838Y-18150000D01*
X23611803Y-18135065D01*
X23650000Y-18082492D01*
X23650000Y-18047229D01*
X23830072Y-18047229D01*
X24016017Y-18233174D01*
X24034680Y-18192312D01*
X24034681Y-18192307D01*
X24055142Y-18050000D01*
X24494858Y-18050000D01*
X24515319Y-18192313D01*
X24533981Y-18233176D01*
X24684664Y-18082492D01*
X24900000Y-18082492D01*
X24938197Y-18135065D01*
X24984162Y-18150000D01*
X25015838Y-18150000D01*
X25061803Y-18135065D01*
X25100000Y-18082492D01*
X25100000Y-18047229D01*
X25280072Y-18047229D01*
X25466017Y-18233174D01*
X25484680Y-18192312D01*
X25484681Y-18192307D01*
X25505142Y-18050000D01*
X25944858Y-18050000D01*
X25965319Y-18192313D01*
X25983981Y-18233176D01*
X26134664Y-18082492D01*
X26350000Y-18082492D01*
X26388197Y-18135065D01*
X26434162Y-18150000D01*
X26465838Y-18150000D01*
X26511803Y-18135065D01*
X26550000Y-18082492D01*
X26550000Y-18047229D01*
X26730072Y-18047229D01*
X26916017Y-18233174D01*
X26934680Y-18192312D01*
X26934681Y-18192307D01*
X26955142Y-18050000D01*
X26955142Y-18049997D01*
X26934681Y-17907689D01*
X26916017Y-17866824D01*
X26761838Y-18021004D01*
X26740243Y-18032006D01*
X26730072Y-18047229D01*
X26550000Y-18047229D01*
X26550000Y-18017508D01*
X26511803Y-17964935D01*
X26465838Y-17950000D01*
X26434162Y-17950000D01*
X26388197Y-17964935D01*
X26350000Y-18017508D01*
X26350000Y-18082492D01*
X26134664Y-18082492D01*
X26167156Y-18050000D01*
X26167156Y-18049999D01*
X25983981Y-17866824D01*
X25965319Y-17907687D01*
X25965318Y-17907690D01*
X25944858Y-18049997D01*
X25944858Y-18050000D01*
X25505142Y-18050000D01*
X25505142Y-18049997D01*
X25484681Y-17907689D01*
X25466017Y-17866824D01*
X25311838Y-18021004D01*
X25290243Y-18032006D01*
X25280072Y-18047229D01*
X25100000Y-18047229D01*
X25100000Y-18017508D01*
X25061803Y-17964935D01*
X25015838Y-17950000D01*
X24984162Y-17950000D01*
X24938197Y-17964935D01*
X24900000Y-18017508D01*
X24900000Y-18082492D01*
X24684664Y-18082492D01*
X24717156Y-18050000D01*
X24717156Y-18049999D01*
X24533981Y-17866824D01*
X24515319Y-17907687D01*
X24515318Y-17907690D01*
X24494858Y-18049997D01*
X24494858Y-18050000D01*
X24055142Y-18050000D01*
X24055142Y-18049997D01*
X24034681Y-17907689D01*
X24016017Y-17866824D01*
X23861838Y-18021004D01*
X23840243Y-18032006D01*
X23830072Y-18047229D01*
X23650000Y-18047229D01*
X23650000Y-18017508D01*
X23611803Y-17964935D01*
X23565838Y-17950000D01*
X23534162Y-17950000D01*
X23488197Y-17964935D01*
X23450000Y-18017508D01*
X23450000Y-18082492D01*
X23234664Y-18082492D01*
X23267156Y-18050000D01*
X23267156Y-18049999D01*
X23083981Y-17866824D01*
X23065319Y-17907687D01*
X23065318Y-17907690D01*
X23044858Y-18049997D01*
X23044858Y-18050000D01*
X9825500Y-18050000D01*
X9825500Y-17582971D01*
X23365814Y-17582971D01*
X23549999Y-17767156D01*
X23734184Y-17582971D01*
X24815814Y-17582971D01*
X24999999Y-17767156D01*
X25184184Y-17582971D01*
X26265814Y-17582971D01*
X26449999Y-17767156D01*
X26634184Y-17582971D01*
X26521891Y-17550000D01*
X26378107Y-17550000D01*
X26265814Y-17582971D01*
X25184184Y-17582971D01*
X25071891Y-17550000D01*
X24928107Y-17550000D01*
X24815814Y-17582971D01*
X23734184Y-17582971D01*
X23621891Y-17550000D01*
X23478107Y-17550000D01*
X23365814Y-17582971D01*
X9825500Y-17582971D01*
X9825500Y-16600000D01*
X28294318Y-16600000D01*
X28314955Y-16756758D01*
X28314957Y-16756766D01*
X28375462Y-16902838D01*
X28375462Y-16902839D01*
X28375464Y-16902841D01*
X28471718Y-17028282D01*
X28597159Y-17124536D01*
X28743238Y-17185044D01*
X28856833Y-17199999D01*
X28899999Y-17205682D01*
X28900000Y-17205682D01*
X28900001Y-17205682D01*
X28943167Y-17199999D01*
X29056762Y-17185044D01*
X29202841Y-17124536D01*
X29260879Y-17080002D01*
X43694451Y-17080002D01*
X43714616Y-17349098D01*
X43714618Y-17349107D01*
X43774666Y-17612197D01*
X43850614Y-17805705D01*
X43873257Y-17863398D01*
X44008185Y-18097102D01*
X44008189Y-18097108D01*
X44008191Y-18097110D01*
X44176434Y-18308081D01*
X44176440Y-18308087D01*
X44374252Y-18491629D01*
X44374254Y-18491630D01*
X44374259Y-18491635D01*
X44597226Y-18643651D01*
X44840359Y-18760738D01*
X45098228Y-18840280D01*
X45365071Y-18880500D01*
X45365076Y-18880500D01*
X45634924Y-18880500D01*
X45634929Y-18880500D01*
X45901772Y-18840280D01*
X46159641Y-18760738D01*
X46402775Y-18643651D01*
X46625741Y-18491635D01*
X46823561Y-18308085D01*
X46823565Y-18308081D01*
X46918855Y-18188589D01*
X46991815Y-18097102D01*
X47126743Y-17863398D01*
X47225334Y-17612195D01*
X47285383Y-17349103D01*
X47299787Y-17156886D01*
X47305549Y-17080002D01*
X47305549Y-17079997D01*
X47285383Y-16810901D01*
X47285383Y-16810897D01*
X47225334Y-16547805D01*
X47211403Y-16512311D01*
X47162081Y-16386642D01*
X47126743Y-16296602D01*
X46991815Y-16062898D01*
X46991808Y-16062889D01*
X46823565Y-15851918D01*
X46823559Y-15851912D01*
X46625747Y-15668370D01*
X46625744Y-15668368D01*
X46625741Y-15668365D01*
X46402775Y-15516349D01*
X46402767Y-15516345D01*
X46159643Y-15399262D01*
X45901776Y-15319721D01*
X45901773Y-15319720D01*
X45901772Y-15319720D01*
X45901767Y-15319719D01*
X45901766Y-15319719D01*
X45634932Y-15279500D01*
X45634929Y-15279500D01*
X45365071Y-15279500D01*
X45365067Y-15279500D01*
X45098233Y-15319719D01*
X45098223Y-15319721D01*
X44840358Y-15399262D01*
X44597233Y-15516345D01*
X44597229Y-15516347D01*
X44597226Y-15516349D01*
X44374259Y-15668365D01*
X44374252Y-15668370D01*
X44176440Y-15851912D01*
X44176434Y-15851918D01*
X44008191Y-16062889D01*
X44008187Y-16062894D01*
X44008185Y-16062898D01*
X43953995Y-16156758D01*
X43873258Y-16296599D01*
X43873254Y-16296608D01*
X43774666Y-16547802D01*
X43714618Y-16810892D01*
X43714616Y-16810901D01*
X43694451Y-17079997D01*
X43694451Y-17080002D01*
X29260879Y-17080002D01*
X29328282Y-17028282D01*
X29424536Y-16902841D01*
X29485044Y-16756762D01*
X29505682Y-16600000D01*
X29485044Y-16443238D01*
X29424537Y-16297161D01*
X29424537Y-16297160D01*
X29328286Y-16171723D01*
X29328285Y-16171722D01*
X29328282Y-16171718D01*
X29328277Y-16171714D01*
X29328276Y-16171713D01*
X29218774Y-16087690D01*
X29202841Y-16075464D01*
X29202840Y-16075463D01*
X29202838Y-16075462D01*
X29056766Y-16014957D01*
X29056758Y-16014955D01*
X28900001Y-15994318D01*
X28899999Y-15994318D01*
X28743241Y-16014955D01*
X28743233Y-16014957D01*
X28597161Y-16075462D01*
X28597160Y-16075462D01*
X28471723Y-16171713D01*
X28471713Y-16171723D01*
X28375462Y-16297160D01*
X28375462Y-16297161D01*
X28314957Y-16443233D01*
X28314955Y-16443241D01*
X28294318Y-16599999D01*
X28294318Y-16600000D01*
X9825500Y-16600000D01*
X9825500Y-16465513D01*
X9844407Y-16407322D01*
X9845958Y-16405246D01*
X9860233Y-16386642D01*
X9924536Y-16302841D01*
X9985044Y-16156762D01*
X10005682Y-16000000D01*
X9985044Y-15843238D01*
X9985042Y-15843233D01*
X9924537Y-15697161D01*
X9924537Y-15697160D01*
X9828286Y-15571723D01*
X9828285Y-15571722D01*
X9828282Y-15571718D01*
X9828277Y-15571714D01*
X9828276Y-15571713D01*
X9702838Y-15475462D01*
X9556766Y-15414957D01*
X9556758Y-15414955D01*
X9400001Y-15394318D01*
X9399999Y-15394318D01*
X9243241Y-15414955D01*
X9243233Y-15414957D01*
X9097161Y-15475462D01*
X9097160Y-15475462D01*
X8971723Y-15571713D01*
X8971713Y-15571723D01*
X8875462Y-15697160D01*
X8875462Y-15697161D01*
X8814957Y-15843233D01*
X8814955Y-15843241D01*
X8794318Y-15999999D01*
X8794318Y-16000000D01*
X8814955Y-16156758D01*
X8814957Y-16156766D01*
X8875462Y-16302838D01*
X8875462Y-16302839D01*
X8954042Y-16405246D01*
X8974466Y-16462922D01*
X8974500Y-16465513D01*
X8974500Y-16517568D01*
X8955593Y-16575759D01*
X8906093Y-16611723D01*
X8862578Y-16615721D01*
X8700001Y-16594318D01*
X8699999Y-16594318D01*
X8543241Y-16614955D01*
X8543233Y-16614957D01*
X8397161Y-16675462D01*
X8397160Y-16675462D01*
X8271723Y-16771713D01*
X8271713Y-16771723D01*
X8175462Y-16897160D01*
X8175462Y-16897161D01*
X8114957Y-17043233D01*
X8114955Y-17043241D01*
X8094318Y-17199999D01*
X8094318Y-17200000D01*
X8114955Y-17356758D01*
X8114957Y-17356766D01*
X8175462Y-17502838D01*
X8175462Y-17502839D01*
X8271713Y-17628276D01*
X8271718Y-17628282D01*
X8397159Y-17724536D01*
X8397160Y-17724536D01*
X8397161Y-17724537D01*
X8541389Y-17784278D01*
X8543238Y-17785044D01*
X8660809Y-17800522D01*
X8699999Y-17805682D01*
X8700000Y-17805682D01*
X8700001Y-17805682D01*
X8777887Y-17795428D01*
X8856762Y-17785044D01*
X8856763Y-17785043D01*
X8862578Y-17784278D01*
X8922739Y-17795428D01*
X8964856Y-17839810D01*
X8974500Y-17882431D01*
X8974500Y-20562744D01*
X8955593Y-20620935D01*
X8945504Y-20632747D01*
X8652749Y-20925503D01*
X8598232Y-20953281D01*
X8582745Y-20954500D01*
X5134664Y-20954500D01*
X5076473Y-20935593D01*
X5046043Y-20899627D01*
X4982371Y-20771755D01*
X4982369Y-20771752D01*
X4982366Y-20771745D01*
X4853872Y-20601593D01*
X4723751Y-20482971D01*
X4696307Y-20457952D01*
X4696300Y-20457946D01*
X4515024Y-20345705D01*
X4515019Y-20345702D01*
X4371361Y-20290049D01*
X4316198Y-20268679D01*
X4316197Y-20268678D01*
X4316195Y-20268678D01*
X4106610Y-20229500D01*
X3893390Y-20229500D01*
X3683804Y-20268678D01*
X3484980Y-20345702D01*
X3484975Y-20345705D01*
X3303699Y-20457946D01*
X3303692Y-20457952D01*
X3146135Y-20601586D01*
X3146131Y-20601589D01*
X3146128Y-20601593D01*
X3146125Y-20601597D01*
X3017635Y-20771743D01*
X3017630Y-20771752D01*
X2922596Y-20962608D01*
X2864244Y-21167688D01*
X2844571Y-21380000D01*
X500000Y-21380000D01*
X500000Y-18840000D01*
X2844571Y-18840000D01*
X2864244Y-19052311D01*
X2871922Y-19079295D01*
X2922595Y-19257389D01*
X3017634Y-19448255D01*
X3146128Y-19618407D01*
X3188197Y-19656758D01*
X3303692Y-19762047D01*
X3303699Y-19762053D01*
X3365026Y-19800025D01*
X3484981Y-19874298D01*
X3683802Y-19951321D01*
X3893390Y-19990500D01*
X4106610Y-19990500D01*
X4316198Y-19951321D01*
X4515019Y-19874298D01*
X4696302Y-19762052D01*
X4853872Y-19618407D01*
X4982366Y-19448255D01*
X5046043Y-19320373D01*
X5088905Y-19276710D01*
X5134664Y-19265500D01*
X6067394Y-19265500D01*
X6076875Y-19262418D01*
X6092222Y-19257431D01*
X6107328Y-19253803D01*
X6133126Y-19249719D01*
X6156405Y-19237856D01*
X6170738Y-19231920D01*
X6195581Y-19223849D01*
X6216707Y-19208498D01*
X6229950Y-19200383D01*
X6253220Y-19188528D01*
X6348528Y-19093220D01*
X6348528Y-19093219D01*
X6853218Y-18588528D01*
X6853220Y-18588528D01*
X6948528Y-18493220D01*
X6960386Y-18469945D01*
X6968496Y-18456711D01*
X6983849Y-18435581D01*
X6991920Y-18410738D01*
X6997856Y-18396405D01*
X7009719Y-18373126D01*
X7013803Y-18347328D01*
X7017431Y-18332222D01*
X7022418Y-18316875D01*
X7025500Y-18307394D01*
X7025500Y-15765513D01*
X7044407Y-15707322D01*
X7045958Y-15705246D01*
X7074258Y-15668365D01*
X7124536Y-15602841D01*
X7185044Y-15456762D01*
X7205682Y-15300000D01*
X7185044Y-15143238D01*
X7124537Y-14997161D01*
X7124537Y-14997160D01*
X7028286Y-14871723D01*
X7028285Y-14871722D01*
X7028282Y-14871718D01*
X7028277Y-14871714D01*
X7028276Y-14871713D01*
X6927386Y-14794298D01*
X6902841Y-14775464D01*
X6902840Y-14775463D01*
X6902838Y-14775462D01*
X6756766Y-14714957D01*
X6756758Y-14714955D01*
X6600001Y-14694318D01*
X6599999Y-14694318D01*
X6443241Y-14714955D01*
X6443233Y-14714957D01*
X6297161Y-14775462D01*
X6297160Y-14775462D01*
X6171723Y-14871713D01*
X6171713Y-14871723D01*
X6075462Y-14997160D01*
X6075462Y-14997161D01*
X6014957Y-15143233D01*
X6014955Y-15143241D01*
X5994318Y-15299999D01*
X5994318Y-15300000D01*
X6014955Y-15456758D01*
X6014957Y-15456766D01*
X6075462Y-15602838D01*
X6075462Y-15602839D01*
X6154042Y-15705246D01*
X6174466Y-15762922D01*
X6174500Y-15765513D01*
X6174500Y-18022744D01*
X6155593Y-18080935D01*
X6145504Y-18092748D01*
X5852748Y-18385504D01*
X5798231Y-18413281D01*
X5782744Y-18414500D01*
X5134664Y-18414500D01*
X5076473Y-18395593D01*
X5046043Y-18359627D01*
X4982371Y-18231755D01*
X4982369Y-18231752D01*
X4982366Y-18231745D01*
X4853872Y-18061593D01*
X4747844Y-17964935D01*
X4696307Y-17917952D01*
X4696300Y-17917946D01*
X4515024Y-17805705D01*
X4515019Y-17805702D01*
X4514967Y-17805682D01*
X4316198Y-17728679D01*
X4316197Y-17728678D01*
X4316195Y-17728678D01*
X4106610Y-17689500D01*
X3893390Y-17689500D01*
X3683804Y-17728678D01*
X3484980Y-17805702D01*
X3484975Y-17805705D01*
X3303699Y-17917946D01*
X3303692Y-17917952D01*
X3146135Y-18061586D01*
X3146131Y-18061589D01*
X3146128Y-18061593D01*
X3146125Y-18061597D01*
X3017635Y-18231743D01*
X3017630Y-18231752D01*
X2922596Y-18422608D01*
X2864244Y-18627688D01*
X2844571Y-18840000D01*
X500000Y-18840000D01*
X500000Y-16300000D01*
X2844571Y-16300000D01*
X2864244Y-16512311D01*
X2874343Y-16547805D01*
X2922595Y-16717389D01*
X3017634Y-16908255D01*
X3146128Y-17078407D01*
X3147878Y-17080002D01*
X3303692Y-17222047D01*
X3303699Y-17222053D01*
X3407389Y-17286255D01*
X3484981Y-17334298D01*
X3683802Y-17411321D01*
X3893390Y-17450500D01*
X4106610Y-17450500D01*
X4316198Y-17411321D01*
X4515019Y-17334298D01*
X4696302Y-17222052D01*
X4853872Y-17078407D01*
X4982366Y-16908255D01*
X5077405Y-16717389D01*
X5135756Y-16512310D01*
X5147400Y-16386639D01*
X5171595Y-16330444D01*
X5175958Y-16325787D01*
X5453218Y-16048528D01*
X5453220Y-16048528D01*
X5548528Y-15953220D01*
X5560386Y-15929945D01*
X5568496Y-15916711D01*
X5583849Y-15895581D01*
X5591920Y-15870738D01*
X5597856Y-15856405D01*
X5609719Y-15833126D01*
X5613803Y-15807328D01*
X5617431Y-15792222D01*
X5625500Y-15767393D01*
X5625500Y-15632607D01*
X5625500Y-13544860D01*
X43699500Y-13544860D01*
X43699501Y-13544863D01*
X43702414Y-13569990D01*
X43727756Y-13627385D01*
X43747794Y-13672765D01*
X43827235Y-13752206D01*
X43930009Y-13797585D01*
X43955135Y-13800500D01*
X47044864Y-13800499D01*
X47069991Y-13797585D01*
X47172765Y-13752206D01*
X47252206Y-13672765D01*
X47297585Y-13569991D01*
X47300500Y-13544865D01*
X47300499Y-10455136D01*
X47297585Y-10430009D01*
X47252206Y-10327235D01*
X47172765Y-10247794D01*
X47069991Y-10202415D01*
X47069990Y-10202414D01*
X47069988Y-10202414D01*
X47044868Y-10199500D01*
X43955139Y-10199500D01*
X43955136Y-10199501D01*
X43930009Y-10202414D01*
X43827235Y-10247794D01*
X43747794Y-10327235D01*
X43702414Y-10430011D01*
X43699500Y-10455130D01*
X43699500Y-13544860D01*
X5625500Y-13544860D01*
X5625500Y-13417255D01*
X5644407Y-13359064D01*
X5654496Y-13347251D01*
X5947251Y-13054496D01*
X6001768Y-13026719D01*
X6017255Y-13025500D01*
X25957268Y-13025500D01*
X26010791Y-13041216D01*
X26039942Y-13059950D01*
X26039947Y-13059953D01*
X26146403Y-13091211D01*
X26178035Y-13100499D01*
X26178036Y-13100499D01*
X26178039Y-13100500D01*
X26178041Y-13100500D01*
X26321959Y-13100500D01*
X26321961Y-13100500D01*
X26460053Y-13059953D01*
X26581128Y-12982143D01*
X26675377Y-12873373D01*
X26735165Y-12742457D01*
X26755647Y-12600000D01*
X26735165Y-12457543D01*
X26675377Y-12326627D01*
X26581128Y-12217857D01*
X26581127Y-12217856D01*
X26581126Y-12217855D01*
X26460057Y-12140049D01*
X26460054Y-12140047D01*
X26460053Y-12140047D01*
X26460050Y-12140046D01*
X26321964Y-12099500D01*
X26321961Y-12099500D01*
X26178039Y-12099500D01*
X26178035Y-12099500D01*
X26039949Y-12140046D01*
X26039942Y-12140049D01*
X26010791Y-12158784D01*
X25957268Y-12174500D01*
X20682431Y-12174500D01*
X20624240Y-12155593D01*
X20588276Y-12106093D01*
X20584278Y-12062578D01*
X20589287Y-12024536D01*
X20605682Y-11900000D01*
X20585044Y-11743238D01*
X20549226Y-11656766D01*
X20524537Y-11597161D01*
X20524537Y-11597160D01*
X20449984Y-11500000D01*
X31794318Y-11500000D01*
X31814955Y-11656758D01*
X31814957Y-11656766D01*
X31875462Y-11802838D01*
X31875462Y-11802839D01*
X31971713Y-11928276D01*
X31971718Y-11928282D01*
X32097159Y-12024536D01*
X32243238Y-12085044D01*
X32353043Y-12099500D01*
X32399999Y-12105682D01*
X32400000Y-12105682D01*
X32400001Y-12105682D01*
X32446957Y-12099500D01*
X32556762Y-12085044D01*
X32702841Y-12024536D01*
X32828282Y-11928282D01*
X32924536Y-11802841D01*
X32985044Y-11656762D01*
X33005682Y-11500000D01*
X35894318Y-11500000D01*
X35914955Y-11656758D01*
X35914957Y-11656766D01*
X35975462Y-11802838D01*
X35975462Y-11802839D01*
X36071713Y-11928276D01*
X36071718Y-11928282D01*
X36197159Y-12024536D01*
X36343238Y-12085044D01*
X36453043Y-12099500D01*
X36499999Y-12105682D01*
X36500000Y-12105682D01*
X36500001Y-12105682D01*
X36546957Y-12099500D01*
X36656762Y-12085044D01*
X36802841Y-12024536D01*
X36928282Y-11928282D01*
X37024536Y-11802841D01*
X37085044Y-11656762D01*
X37105682Y-11500000D01*
X37085044Y-11343238D01*
X37024537Y-11197161D01*
X37024537Y-11197160D01*
X36928286Y-11071723D01*
X36928285Y-11071722D01*
X36928282Y-11071718D01*
X36928277Y-11071714D01*
X36928276Y-11071713D01*
X36802838Y-10975462D01*
X36656766Y-10914957D01*
X36656758Y-10914955D01*
X36500001Y-10894318D01*
X36499999Y-10894318D01*
X36343241Y-10914955D01*
X36343233Y-10914957D01*
X36197161Y-10975462D01*
X36197160Y-10975462D01*
X36071723Y-11071713D01*
X36071713Y-11071723D01*
X35975462Y-11197160D01*
X35975462Y-11197161D01*
X35914957Y-11343233D01*
X35914955Y-11343241D01*
X35894318Y-11499999D01*
X35894318Y-11500000D01*
X33005682Y-11500000D01*
X32985044Y-11343238D01*
X32924537Y-11197161D01*
X32924537Y-11197160D01*
X32828286Y-11071723D01*
X32828285Y-11071722D01*
X32828282Y-11071718D01*
X32828277Y-11071714D01*
X32828276Y-11071713D01*
X32702838Y-10975462D01*
X32556766Y-10914957D01*
X32556758Y-10914955D01*
X32400001Y-10894318D01*
X32399999Y-10894318D01*
X32243241Y-10914955D01*
X32243233Y-10914957D01*
X32097161Y-10975462D01*
X32097160Y-10975462D01*
X31971723Y-11071713D01*
X31971713Y-11071723D01*
X31875462Y-11197160D01*
X31875462Y-11197161D01*
X31814957Y-11343233D01*
X31814955Y-11343241D01*
X31794318Y-11499999D01*
X31794318Y-11500000D01*
X20449984Y-11500000D01*
X20428286Y-11471723D01*
X20428285Y-11471722D01*
X20428282Y-11471718D01*
X20428277Y-11471714D01*
X20428276Y-11471713D01*
X20302838Y-11375462D01*
X20156766Y-11314957D01*
X20156758Y-11314955D01*
X20000001Y-11294318D01*
X19999999Y-11294318D01*
X19843241Y-11314955D01*
X19843233Y-11314957D01*
X19697161Y-11375462D01*
X19697160Y-11375462D01*
X19571723Y-11471713D01*
X19571713Y-11471723D01*
X19475462Y-11597160D01*
X19475462Y-11597161D01*
X19414957Y-11743233D01*
X19414955Y-11743241D01*
X19407109Y-11802839D01*
X19394318Y-11900000D01*
X19410713Y-12024536D01*
X19415722Y-12062578D01*
X19404572Y-12122739D01*
X19360190Y-12164856D01*
X19317569Y-12174500D01*
X5732606Y-12174500D01*
X5707765Y-12182571D01*
X5692665Y-12186196D01*
X5666872Y-12190281D01*
X5643601Y-12202138D01*
X5629253Y-12208081D01*
X5604418Y-12216150D01*
X5583291Y-12231500D01*
X5570049Y-12239615D01*
X5546780Y-12251471D01*
X5220897Y-12577354D01*
X4946780Y-12851471D01*
X4946780Y-12851472D01*
X4946779Y-12851472D01*
X4901246Y-12897004D01*
X4846729Y-12924781D01*
X4786297Y-12915209D01*
X4764547Y-12900162D01*
X4696301Y-12837947D01*
X4696300Y-12837946D01*
X4515024Y-12725705D01*
X4515019Y-12725702D01*
X4316195Y-12648678D01*
X4106610Y-12609500D01*
X3893390Y-12609500D01*
X3683804Y-12648678D01*
X3484980Y-12725702D01*
X3484975Y-12725705D01*
X3303699Y-12837946D01*
X3303692Y-12837952D01*
X3146135Y-12981586D01*
X3146131Y-12981589D01*
X3146128Y-12981593D01*
X3146125Y-12981597D01*
X3017635Y-13151743D01*
X3017630Y-13151752D01*
X2922596Y-13342608D01*
X2864244Y-13547688D01*
X2852654Y-13672764D01*
X2844571Y-13760000D01*
X2864244Y-13972310D01*
X2922595Y-14177389D01*
X3017634Y-14368255D01*
X3146128Y-14538407D01*
X3146135Y-14538413D01*
X3303692Y-14682047D01*
X3303699Y-14682053D01*
X3390499Y-14735797D01*
X3484981Y-14794298D01*
X3683802Y-14871321D01*
X3893390Y-14910500D01*
X4106610Y-14910500D01*
X4316198Y-14871321D01*
X4515019Y-14794298D01*
X4609501Y-14735797D01*
X4623383Y-14727202D01*
X4682811Y-14712643D01*
X4739447Y-14735797D01*
X4771657Y-14787817D01*
X4774500Y-14811373D01*
X4774500Y-15248627D01*
X4755593Y-15306818D01*
X4706093Y-15342782D01*
X4644907Y-15342782D01*
X4623383Y-15332798D01*
X4515024Y-15265705D01*
X4515019Y-15265702D01*
X4316195Y-15188678D01*
X4106610Y-15149500D01*
X3893390Y-15149500D01*
X3683804Y-15188678D01*
X3484980Y-15265702D01*
X3484975Y-15265705D01*
X3303699Y-15377946D01*
X3303692Y-15377952D01*
X3146135Y-15521586D01*
X3146131Y-15521589D01*
X3146128Y-15521593D01*
X3146125Y-15521597D01*
X3017635Y-15691743D01*
X3017630Y-15691752D01*
X2922596Y-15882608D01*
X2864244Y-16087688D01*
X2844571Y-16300000D01*
X500000Y-16300000D01*
X500000Y-11220000D01*
X2844571Y-11220000D01*
X2864244Y-11432311D01*
X2883504Y-11500000D01*
X2922595Y-11637389D01*
X3017634Y-11828255D01*
X3146128Y-11998407D01*
X3146135Y-11998413D01*
X3303692Y-12142047D01*
X3303699Y-12142053D01*
X3356103Y-12174500D01*
X3484981Y-12254298D01*
X3683802Y-12331321D01*
X3893390Y-12370500D01*
X4106610Y-12370500D01*
X4316198Y-12331321D01*
X4515019Y-12254298D01*
X4696302Y-12142052D01*
X4853872Y-11998407D01*
X4982366Y-11828255D01*
X5077405Y-11637389D01*
X5135756Y-11432310D01*
X5155429Y-11220000D01*
X5135756Y-11007690D01*
X5077405Y-10802611D01*
X4982366Y-10611745D01*
X4853872Y-10441593D01*
X4799623Y-10392139D01*
X4696307Y-10297952D01*
X4696300Y-10297946D01*
X4515024Y-10185705D01*
X4515019Y-10185702D01*
X4316195Y-10108678D01*
X4106610Y-10069500D01*
X3893390Y-10069500D01*
X3683804Y-10108678D01*
X3484980Y-10185702D01*
X3484975Y-10185705D01*
X3303699Y-10297946D01*
X3303692Y-10297952D01*
X3146135Y-10441586D01*
X3146131Y-10441589D01*
X3146128Y-10441593D01*
X3146125Y-10441597D01*
X3017635Y-10611743D01*
X3017630Y-10611752D01*
X2922596Y-10802608D01*
X2864244Y-11007688D01*
X2844571Y-11220000D01*
X500000Y-11220000D01*
X500000Y-8680000D01*
X2844571Y-8680000D01*
X2864244Y-8892310D01*
X2922595Y-9097389D01*
X3017634Y-9288255D01*
X3146128Y-9458407D01*
X3146135Y-9458413D01*
X3303692Y-9602047D01*
X3303699Y-9602053D01*
X3407389Y-9666255D01*
X3484981Y-9714298D01*
X3683802Y-9791321D01*
X3893390Y-9830500D01*
X4106610Y-9830500D01*
X4316198Y-9791321D01*
X4515019Y-9714298D01*
X4696302Y-9602052D01*
X4853872Y-9458407D01*
X4982366Y-9288255D01*
X5077405Y-9097389D01*
X5135756Y-8892310D01*
X5155429Y-8680000D01*
X5135756Y-8467690D01*
X5077405Y-8262611D01*
X4982366Y-8071745D01*
X4853872Y-7901593D01*
X4799623Y-7852139D01*
X4696307Y-7757952D01*
X4696300Y-7757946D01*
X4515024Y-7645705D01*
X4515019Y-7645702D01*
X4316195Y-7568678D01*
X4106610Y-7529500D01*
X3893390Y-7529500D01*
X3683804Y-7568678D01*
X3484980Y-7645702D01*
X3484975Y-7645705D01*
X3303699Y-7757946D01*
X3303692Y-7757952D01*
X3146135Y-7901586D01*
X3146131Y-7901589D01*
X3146128Y-7901593D01*
X3146125Y-7901597D01*
X3017635Y-8071743D01*
X3017630Y-8071752D01*
X2922596Y-8262608D01*
X2864244Y-8467688D01*
X2864244Y-8467690D01*
X2844571Y-8680000D01*
X500000Y-8680000D01*
X500000Y-6140000D01*
X2844571Y-6140000D01*
X2864244Y-6352310D01*
X2922595Y-6557389D01*
X3017634Y-6748255D01*
X3146128Y-6918407D01*
X3146135Y-6918413D01*
X3303692Y-7062047D01*
X3303699Y-7062053D01*
X3407389Y-7126255D01*
X3484981Y-7174298D01*
X3683802Y-7251321D01*
X3893390Y-7290500D01*
X4106610Y-7290500D01*
X4316198Y-7251321D01*
X4515019Y-7174298D01*
X4696302Y-7062052D01*
X4853872Y-6918407D01*
X4982366Y-6748255D01*
X5077405Y-6557389D01*
X5135756Y-6352310D01*
X5155429Y-6140000D01*
X5146613Y-6044860D01*
X7499500Y-6044860D01*
X7499501Y-6044863D01*
X7502414Y-6069990D01*
X7518174Y-6105682D01*
X7547794Y-6172765D01*
X7627235Y-6252206D01*
X7730009Y-6297585D01*
X7755135Y-6300500D01*
X10844864Y-6300499D01*
X10869991Y-6297585D01*
X10972765Y-6252206D01*
X11052206Y-6172765D01*
X11097585Y-6069991D01*
X11100500Y-6044865D01*
X11100500Y-4500002D01*
X12625093Y-4500002D01*
X12644693Y-4761549D01*
X12644695Y-4761559D01*
X12703057Y-5017264D01*
X12798883Y-5261426D01*
X12798889Y-5261438D01*
X12930024Y-5488567D01*
X12930029Y-5488575D01*
X13009245Y-5587909D01*
X13716504Y-4880649D01*
X13717340Y-4882587D01*
X13823433Y-5025094D01*
X13959530Y-5139294D01*
X14002145Y-5160696D01*
X13288788Y-5874054D01*
X13502551Y-6019796D01*
X13738862Y-6133597D01*
X13989491Y-6210906D01*
X13989501Y-6210908D01*
X14248852Y-6249999D01*
X14248861Y-6250000D01*
X14511139Y-6250000D01*
X14511147Y-6249999D01*
X14770498Y-6210908D01*
X14770508Y-6210906D01*
X15021140Y-6133596D01*
X15257451Y-6019795D01*
X15471211Y-5874055D01*
X14758114Y-5160958D01*
X14871844Y-5086157D01*
X14993764Y-4956930D01*
X15039886Y-4877042D01*
X15750753Y-5587909D01*
X15820860Y-5500000D01*
X42094318Y-5500000D01*
X42114955Y-5656758D01*
X42114957Y-5656766D01*
X42175462Y-5802838D01*
X42175462Y-5802839D01*
X42271713Y-5928276D01*
X42271718Y-5928282D01*
X42397159Y-6024536D01*
X42397160Y-6024536D01*
X42397161Y-6024537D01*
X42506894Y-6069990D01*
X42543238Y-6085044D01*
X42660809Y-6100522D01*
X42699999Y-6105682D01*
X42700000Y-6105682D01*
X42700001Y-6105682D01*
X42731352Y-6101554D01*
X42856762Y-6085044D01*
X43002841Y-6024536D01*
X43039733Y-5996227D01*
X43097408Y-5975804D01*
X43156074Y-5993181D01*
X43160257Y-5996220D01*
X43197159Y-6024536D01*
X43197160Y-6024536D01*
X43197161Y-6024537D01*
X43306894Y-6069990D01*
X43343238Y-6085044D01*
X43460809Y-6100522D01*
X43499999Y-6105682D01*
X43500000Y-6105682D01*
X43500001Y-6105682D01*
X43531352Y-6101554D01*
X43656762Y-6085044D01*
X43802841Y-6024536D01*
X43928282Y-5928282D01*
X44024536Y-5802841D01*
X44085044Y-5656762D01*
X44105682Y-5500000D01*
X44085044Y-5343238D01*
X44044166Y-5244549D01*
X44024537Y-5197161D01*
X44024537Y-5197160D01*
X43928286Y-5071723D01*
X43928285Y-5071722D01*
X43928282Y-5071718D01*
X43928277Y-5071714D01*
X43928276Y-5071713D01*
X43802838Y-4975462D01*
X43656766Y-4914957D01*
X43656758Y-4914955D01*
X43500001Y-4894318D01*
X43499999Y-4894318D01*
X43343241Y-4914955D01*
X43343236Y-4914957D01*
X43197160Y-4975463D01*
X43197157Y-4975465D01*
X43160267Y-5003772D01*
X43102591Y-5024196D01*
X43043925Y-5006818D01*
X43039733Y-5003772D01*
X43002842Y-4975465D01*
X43002841Y-4975464D01*
X43002836Y-4975462D01*
X42958096Y-4956930D01*
X42856762Y-4914956D01*
X42856759Y-4914955D01*
X42856758Y-4914955D01*
X42700001Y-4894318D01*
X42699999Y-4894318D01*
X42543241Y-4914955D01*
X42543233Y-4914957D01*
X42397161Y-4975462D01*
X42397160Y-4975462D01*
X42271723Y-5071713D01*
X42271713Y-5071723D01*
X42175462Y-5197160D01*
X42175462Y-5197161D01*
X42114957Y-5343233D01*
X42114955Y-5343241D01*
X42094318Y-5499999D01*
X42094318Y-5500000D01*
X15820860Y-5500000D01*
X15829971Y-5488575D01*
X15961110Y-5261438D01*
X15961116Y-5261426D01*
X16056942Y-5017264D01*
X16115304Y-4761559D01*
X16115306Y-4761549D01*
X16134907Y-4500002D01*
X16134907Y-4499997D01*
X16115306Y-4238450D01*
X16115304Y-4238440D01*
X16056942Y-3982735D01*
X15961116Y-3738573D01*
X15961110Y-3738561D01*
X15852243Y-3550000D01*
X30794318Y-3550000D01*
X30814955Y-3706758D01*
X30814957Y-3706766D01*
X30875462Y-3852838D01*
X30875462Y-3852839D01*
X30971713Y-3978276D01*
X30971718Y-3978282D01*
X31097159Y-4074536D01*
X31097160Y-4074536D01*
X31097161Y-4074537D01*
X31158634Y-4100000D01*
X31243238Y-4135044D01*
X31360809Y-4150522D01*
X31399999Y-4155682D01*
X31400000Y-4155682D01*
X31400001Y-4155682D01*
X31431352Y-4151554D01*
X31556762Y-4135044D01*
X31641366Y-4100000D01*
X31708837Y-4072053D01*
X31709623Y-4073950D01*
X31760338Y-4063165D01*
X31790751Y-4073047D01*
X31791163Y-4072053D01*
X31858634Y-4100000D01*
X31943238Y-4135044D01*
X32060809Y-4150522D01*
X32099999Y-4155682D01*
X32100000Y-4155682D01*
X32100001Y-4155682D01*
X32131352Y-4151554D01*
X32256762Y-4135044D01*
X32402841Y-4074536D01*
X32528282Y-3978282D01*
X32624536Y-3852841D01*
X32685044Y-3706762D01*
X32705682Y-3550000D01*
X32685044Y-3393238D01*
X32649226Y-3306766D01*
X32624537Y-3247161D01*
X32624537Y-3247160D01*
X32549984Y-3150000D01*
X35744318Y-3150000D01*
X35764955Y-3306758D01*
X35764957Y-3306766D01*
X35825462Y-3452838D01*
X35825462Y-3452839D01*
X35921713Y-3578276D01*
X35921718Y-3578282D01*
X36047159Y-3674536D01*
X36047160Y-3674536D01*
X36047161Y-3674537D01*
X36124959Y-3706762D01*
X36193238Y-3735044D01*
X36310809Y-3750522D01*
X36349999Y-3755682D01*
X36350000Y-3755682D01*
X36350001Y-3755682D01*
X36381352Y-3751554D01*
X36506762Y-3735044D01*
X36652841Y-3674536D01*
X36778282Y-3578282D01*
X36874536Y-3452841D01*
X36935044Y-3306762D01*
X36955682Y-3150000D01*
X36935044Y-2993238D01*
X36914781Y-2944318D01*
X36874537Y-2847161D01*
X36874536Y-2847160D01*
X36874536Y-2847159D01*
X36846227Y-2810266D01*
X36825804Y-2752592D01*
X36843181Y-2693926D01*
X36846220Y-2689742D01*
X36874536Y-2652841D01*
X36935044Y-2506762D01*
X36955682Y-2350000D01*
X36935044Y-2193238D01*
X36874537Y-2047161D01*
X36874537Y-2047160D01*
X36778286Y-1921723D01*
X36778285Y-1921722D01*
X36778282Y-1921718D01*
X36778277Y-1921714D01*
X36778276Y-1921713D01*
X36652838Y-1825462D01*
X36506766Y-1764957D01*
X36506758Y-1764955D01*
X36350001Y-1744318D01*
X36349999Y-1744318D01*
X36193241Y-1764955D01*
X36193233Y-1764957D01*
X36047161Y-1825462D01*
X36047160Y-1825462D01*
X35921723Y-1921713D01*
X35921713Y-1921723D01*
X35825462Y-2047160D01*
X35825462Y-2047161D01*
X35764957Y-2193233D01*
X35764955Y-2193241D01*
X35744318Y-2349999D01*
X35744318Y-2350000D01*
X35764065Y-2500001D01*
X35764956Y-2506762D01*
X35811755Y-2619746D01*
X35825463Y-2652839D01*
X35825465Y-2652842D01*
X35853772Y-2689733D01*
X35874196Y-2747409D01*
X35856818Y-2806075D01*
X35853772Y-2810267D01*
X35825465Y-2847157D01*
X35825463Y-2847160D01*
X35785219Y-2944318D01*
X35770355Y-2980205D01*
X35764957Y-2993236D01*
X35764955Y-2993241D01*
X35744318Y-3149999D01*
X35744318Y-3150000D01*
X32549984Y-3150000D01*
X32528286Y-3121723D01*
X32528285Y-3121722D01*
X32528282Y-3121718D01*
X32528277Y-3121714D01*
X32528276Y-3121713D01*
X32406077Y-3027947D01*
X32402841Y-3025464D01*
X32402840Y-3025463D01*
X32402838Y-3025462D01*
X32256766Y-2964957D01*
X32256758Y-2964955D01*
X32100001Y-2944318D01*
X32099999Y-2944318D01*
X31943241Y-2964955D01*
X31943238Y-2964955D01*
X31943238Y-2964956D01*
X31874953Y-2993241D01*
X31791165Y-3027947D01*
X31790379Y-3026051D01*
X31739649Y-3036833D01*
X31709246Y-3026954D01*
X31708835Y-3027947D01*
X31702841Y-3025464D01*
X31556762Y-2964956D01*
X31556759Y-2964955D01*
X31556758Y-2964955D01*
X31400001Y-2944318D01*
X31399999Y-2944318D01*
X31243241Y-2964955D01*
X31243233Y-2964957D01*
X31097161Y-3025462D01*
X31097160Y-3025462D01*
X30971723Y-3121713D01*
X30971713Y-3121723D01*
X30875462Y-3247160D01*
X30875462Y-3247161D01*
X30814957Y-3393233D01*
X30814955Y-3393241D01*
X30794318Y-3549999D01*
X30794318Y-3550000D01*
X15852243Y-3550000D01*
X15829971Y-3511424D01*
X15750753Y-3412089D01*
X15043494Y-4119347D01*
X15042660Y-4117413D01*
X14936567Y-3974906D01*
X14800470Y-3860706D01*
X14757851Y-3839302D01*
X15471210Y-3125944D01*
X15257446Y-2980202D01*
X15021140Y-2866403D01*
X14770508Y-2789093D01*
X14770498Y-2789091D01*
X14511147Y-2750000D01*
X14248852Y-2750000D01*
X13989501Y-2789091D01*
X13989491Y-2789093D01*
X13738862Y-2866402D01*
X13502548Y-2980205D01*
X13288787Y-3125943D01*
X14001885Y-3839041D01*
X13888156Y-3913843D01*
X13766236Y-4043070D01*
X13720113Y-4122957D01*
X13009245Y-3412089D01*
X12930034Y-3511417D01*
X12930024Y-3511432D01*
X12798889Y-3738561D01*
X12798883Y-3738573D01*
X12703057Y-3982735D01*
X12644695Y-4238440D01*
X12644693Y-4238450D01*
X12625093Y-4499997D01*
X12625093Y-4500002D01*
X11100500Y-4500002D01*
X11100499Y-2955136D01*
X11097585Y-2930009D01*
X11052206Y-2827235D01*
X10972765Y-2747794D01*
X10869991Y-2702415D01*
X10869990Y-2702414D01*
X10869988Y-2702414D01*
X10844868Y-2699500D01*
X7755139Y-2699500D01*
X7755136Y-2699501D01*
X7730009Y-2702414D01*
X7627235Y-2747794D01*
X7547794Y-2827235D01*
X7502414Y-2930011D01*
X7499500Y-2955130D01*
X7499500Y-6044860D01*
X5146613Y-6044860D01*
X5135756Y-5927690D01*
X5077405Y-5722611D01*
X4982366Y-5531745D01*
X4853872Y-5361593D01*
X4697487Y-5219028D01*
X4696307Y-5217952D01*
X4696300Y-5217946D01*
X4515024Y-5105705D01*
X4515019Y-5105702D01*
X4427295Y-5071718D01*
X4316198Y-5028679D01*
X4316197Y-5028678D01*
X4316195Y-5028678D01*
X4106610Y-4989500D01*
X3893390Y-4989500D01*
X3683804Y-5028678D01*
X3484980Y-5105702D01*
X3484975Y-5105705D01*
X3303699Y-5217946D01*
X3303692Y-5217952D01*
X3146135Y-5361586D01*
X3146131Y-5361589D01*
X3146128Y-5361593D01*
X3146125Y-5361597D01*
X3017635Y-5531743D01*
X3017630Y-5531752D01*
X2922596Y-5722608D01*
X2864244Y-5927688D01*
X2849663Y-6085044D01*
X2844571Y-6140000D01*
X500000Y-6140000D01*
X500000Y-4474624D01*
X2900000Y-4474624D01*
X2914506Y-4547546D01*
X2914507Y-4547548D01*
X2969758Y-4630237D01*
X2969762Y-4630241D01*
X3052451Y-4685492D01*
X3052453Y-4685493D01*
X3125375Y-4699999D01*
X3125377Y-4700000D01*
X3799999Y-4700000D01*
X3800000Y-4699999D01*
X3800000Y-4058335D01*
X3857685Y-4084680D01*
X3964237Y-4100000D01*
X4035763Y-4100000D01*
X4142315Y-4084680D01*
X4200000Y-4058335D01*
X4200000Y-4699999D01*
X4200001Y-4700000D01*
X4874623Y-4700000D01*
X4874624Y-4699999D01*
X4947546Y-4685493D01*
X4947548Y-4685492D01*
X5030237Y-4630241D01*
X5030241Y-4630237D01*
X5085492Y-4547548D01*
X5085493Y-4547546D01*
X5099999Y-4474624D01*
X5100000Y-4474622D01*
X5100000Y-3800001D01*
X5099999Y-3800000D01*
X4462383Y-3800000D01*
X4500000Y-3671889D01*
X4500000Y-3528111D01*
X4462383Y-3400000D01*
X5099999Y-3400000D01*
X5100000Y-3399999D01*
X5100000Y-2725377D01*
X5099999Y-2725375D01*
X5085493Y-2652453D01*
X5085492Y-2652451D01*
X5030241Y-2569762D01*
X5030237Y-2569758D01*
X4947548Y-2514507D01*
X4947546Y-2514506D01*
X4874624Y-2500000D01*
X4200001Y-2500000D01*
X4200000Y-2500001D01*
X4200000Y-3141664D01*
X4142315Y-3115320D01*
X4035763Y-3100000D01*
X3964237Y-3100000D01*
X3857685Y-3115320D01*
X3800000Y-3141664D01*
X3800000Y-2500001D01*
X3799999Y-2500000D01*
X3125375Y-2500000D01*
X3052453Y-2514506D01*
X3052451Y-2514507D01*
X2969762Y-2569758D01*
X2969758Y-2569762D01*
X2914507Y-2652451D01*
X2914506Y-2652453D01*
X2900000Y-2725375D01*
X2900000Y-3399999D01*
X2900001Y-3400000D01*
X3537617Y-3400000D01*
X3500000Y-3528111D01*
X3500000Y-3671889D01*
X3537617Y-3800000D01*
X2900001Y-3800000D01*
X2900000Y-3800001D01*
X2900000Y-4474624D01*
X500000Y-4474624D01*
X500000Y-599000D01*
X518907Y-540809D01*
X568407Y-504845D01*
X599000Y-500000D01*
X49401000Y-500000D01*
X49459191Y-518907D01*
G37*
%TD.AperFunction*%
%TA.AperFunction,Conductor*%
G36*
X48957756Y-34674911D02*
G01*
X48971678Y-34660004D01*
X49141293Y-34419715D01*
X49276611Y-34158564D01*
X49307716Y-34071044D01*
X49345019Y-34022545D01*
X49403704Y-34005234D01*
X49461357Y-34025724D01*
X49495955Y-34076188D01*
X49500000Y-34104197D01*
X49500000Y-35401000D01*
X49481093Y-35459191D01*
X49431593Y-35495155D01*
X49401000Y-35500000D01*
X48108076Y-35500000D01*
X48049885Y-35481093D01*
X48013921Y-35431593D01*
X48013921Y-35370407D01*
X48049885Y-35320907D01*
X48068634Y-35310196D01*
X48291446Y-35213415D01*
X48542758Y-35060589D01*
X48672329Y-34955172D01*
X47925026Y-34207869D01*
X48062540Y-34099728D01*
X48200110Y-33940964D01*
X48208784Y-33925939D01*
X48957756Y-34674911D01*
G37*
%TD.AperFunction*%
%TD*%
M02*
