%TF.GenerationSoftware,KiCad,Pcbnew,7.0.11+dfsg-1build4*%
%TF.CreationDate,2026-07-02T10:23:20+00:00*%
%TF.ProjectId,tmc5240-daughterboard-compact,746d6335-3234-4302-9d64-617567687465,rev?*%
%TF.SameCoordinates,Original*%
%TF.FileFunction,Copper,L3,Inr*%
%TF.FilePolarity,Positive*%
%FSLAX46Y46*%
G04 Gerber Fmt 4.6, Leading zero omitted, Abs format (unit mm)*
G04 Created by KiCad (PCBNEW 7.0.11+dfsg-1build4) date 2026-07-02 10:23:20*
%MOMM*%
%LPD*%
G01*
G04 APERTURE LIST*
%TA.AperFunction,HeatsinkPad*%
%ADD10C,0.500000*%
%TD*%
%TA.AperFunction,ComponentPad*%
%ADD11R,3.000000X3.000000*%
%TD*%
%TA.AperFunction,ComponentPad*%
%ADD12C,3.000000*%
%TD*%
%TA.AperFunction,ComponentPad*%
%ADD13C,3.800000*%
%TD*%
%TA.AperFunction,ComponentPad*%
%ADD14R,1.700000X1.700000*%
%TD*%
%TA.AperFunction,ComponentPad*%
%ADD15O,1.700000X1.700000*%
%TD*%
%TA.AperFunction,ViaPad*%
%ADD16C,0.600000*%
%TD*%
%TA.AperFunction,ViaPad*%
%ADD17C,0.400000*%
%TD*%
G04 APERTURE END LIST*
D10*
%TO.N,GND*%
%TO.C,U1*%
X23550000Y-18050000D03*
X23550000Y-19500000D03*
X23550000Y-20950000D03*
X25000000Y-18050000D03*
X25000000Y-19500000D03*
X25000000Y-20950000D03*
X26450000Y-18050000D03*
X26450000Y-19500000D03*
X26450000Y-20950000D03*
%TD*%
D11*
%TO.N,OUT1A*%
%TO.C,J3*%
X45500000Y-12000000D03*
D12*
%TO.N,OUT2A*%
X45500000Y-17080000D03*
%TO.N,OUT2B*%
X45500000Y-22160000D03*
%TO.N,OUT1B*%
X45500000Y-27240000D03*
%TD*%
D13*
%TO.N,GND*%
%TO.C,H2*%
X11500000Y-33600000D03*
%TD*%
D14*
%TO.N,3V3*%
%TO.C,J4*%
X17000000Y-33000000D03*
D15*
%TO.N,ENCA*%
X19540000Y-33000000D03*
%TO.N,ENCB*%
X22080000Y-33000000D03*
%TO.N,ENCN*%
X24620000Y-33000000D03*
%TO.N,GND*%
X27160000Y-33000000D03*
%TD*%
D11*
%TO.N,+24V_IN*%
%TO.C,J2*%
X9300000Y-4500000D03*
D12*
%TO.N,GND*%
X14380000Y-4500000D03*
%TD*%
D13*
%TO.N,GND*%
%TO.C,H1*%
X47300000Y-33299999D03*
%TD*%
D14*
%TO.N,GND*%
%TO.C,J1*%
X4000000Y-3600000D03*
D15*
%TO.N,3V3*%
X4000000Y-6140000D03*
%TO.N,SCK*%
X4000000Y-8680000D03*
%TO.N,SDI*%
X4000000Y-11220000D03*
%TO.N,SDO*%
X4000000Y-13760000D03*
%TO.N,CSN*%
X4000000Y-16300000D03*
%TO.N,REFL*%
X4000000Y-18840000D03*
%TO.N,REFR*%
X4000000Y-21380000D03*
%TO.N,ENN*%
X4000000Y-23920000D03*
%TO.N,DIAG0*%
X4000000Y-26460000D03*
%TO.N,DIAG1*%
X4000000Y-29000000D03*
%TO.N,GND*%
X4000000Y-31540000D03*
%TD*%
D16*
%TO.N,VS*%
X29900000Y-28600000D03*
X34000000Y-28600000D03*
X29600000Y-27300000D03*
X32400000Y-11500000D03*
X42700000Y-5500000D03*
X43500000Y-5500000D03*
X32100000Y-3550000D03*
X31400000Y-3550000D03*
X36350000Y-3150000D03*
X36500000Y-11500000D03*
X31300000Y-19400000D03*
X28900000Y-21900000D03*
X30500000Y-19500000D03*
X28900000Y-16600000D03*
X36350000Y-2350000D03*
X29700000Y-21900000D03*
%TO.N,GND*%
X36350000Y-8450000D03*
X37200000Y-28600000D03*
X10900000Y-18840000D03*
X17400000Y-29500000D03*
X17600000Y-23250000D03*
D17*
X21900000Y-18250000D03*
X21300000Y-19250000D03*
D16*
X15000000Y-18750000D03*
X22600000Y-28600000D03*
X18350000Y-17750000D03*
X35700000Y-11500000D03*
X33100000Y-28600000D03*
X47900000Y-5500000D03*
X24825000Y-28600000D03*
X36350000Y-7650000D03*
X10900000Y-21380000D03*
X30100000Y-11600000D03*
X19400000Y-26900000D03*
X40100000Y-11500000D03*
D17*
X24250000Y-14800000D03*
D16*
X47100000Y-5500000D03*
%TO.N,3V3*%
X8700000Y-17200000D03*
X8500000Y-25850000D03*
X20000000Y-11900000D03*
X8500000Y-28400000D03*
X17600000Y-19750000D03*
X24400000Y-26450000D03*
X10300000Y-23920000D03*
D17*
%TO.N,CSN*%
X26250000Y-12600000D03*
D16*
%TO.N,DIAG0*%
X11000000Y-25850000D03*
%TO.N,DIAG1*%
X12600000Y-26350000D03*
%TO.N,REFL*%
X6600000Y-15300000D03*
%TO.N,REFR*%
X9400000Y-16000000D03*
D17*
%TO.N,ENCA*%
X20400000Y-21250000D03*
%TO.N,ENCB*%
X21000000Y-20750000D03*
%TO.N,ENCN*%
X21600000Y-20250000D03*
%TO.N,UART_EN*%
X23750000Y-22800000D03*
D16*
X22500000Y-26350000D03*
%TD*%
%TA.AperFunction,Conductor*%
%TO.N,VS*%
G36*
X48459191Y-1218907D02*
G01*
X48495155Y-1268407D01*
X48500000Y-1299000D01*
X48500000Y-5004429D01*
X48481093Y-5062620D01*
X48431593Y-5098584D01*
X48370407Y-5098584D01*
X48330996Y-5074433D01*
X48328285Y-5071722D01*
X48328282Y-5071718D01*
X48328277Y-5071714D01*
X48328276Y-5071713D01*
X48202838Y-4975462D01*
X48056766Y-4914957D01*
X48056758Y-4914955D01*
X47900001Y-4894318D01*
X47899999Y-4894318D01*
X47743241Y-4914955D01*
X47743236Y-4914957D01*
X47597160Y-4975463D01*
X47597157Y-4975465D01*
X47560267Y-5003772D01*
X47502591Y-5024196D01*
X47443925Y-5006818D01*
X47439733Y-5003772D01*
X47402842Y-4975465D01*
X47402841Y-4975464D01*
X47402836Y-4975462D01*
X47369746Y-4961755D01*
X47256762Y-4914956D01*
X47256759Y-4914955D01*
X47256758Y-4914955D01*
X47100001Y-4894318D01*
X47099999Y-4894318D01*
X46943241Y-4914955D01*
X46943233Y-4914957D01*
X46797161Y-4975462D01*
X46797160Y-4975462D01*
X46671723Y-5071713D01*
X46671713Y-5071723D01*
X46575462Y-5197160D01*
X46575462Y-5197161D01*
X46514957Y-5343233D01*
X46514955Y-5343241D01*
X46494318Y-5499999D01*
X46494318Y-5500000D01*
X46514955Y-5656758D01*
X46514957Y-5656766D01*
X46575462Y-5802838D01*
X46575462Y-5802839D01*
X46671713Y-5928276D01*
X46671718Y-5928282D01*
X46797159Y-6024536D01*
X46943238Y-6085044D01*
X47060809Y-6100522D01*
X47099999Y-6105682D01*
X47100000Y-6105682D01*
X47100001Y-6105682D01*
X47131352Y-6101554D01*
X47256762Y-6085044D01*
X47402841Y-6024536D01*
X47439733Y-5996227D01*
X47497408Y-5975804D01*
X47556074Y-5993181D01*
X47560257Y-5996220D01*
X47597159Y-6024536D01*
X47743238Y-6085044D01*
X47860809Y-6100522D01*
X47899999Y-6105682D01*
X47900000Y-6105682D01*
X47900001Y-6105682D01*
X47931352Y-6101554D01*
X48056762Y-6085044D01*
X48202841Y-6024536D01*
X48328282Y-5928282D01*
X48328288Y-5928273D01*
X48330996Y-5925567D01*
X48385513Y-5897790D01*
X48445945Y-5907361D01*
X48489210Y-5950626D01*
X48500000Y-5995571D01*
X48500000Y-29401000D01*
X48481093Y-29459191D01*
X48431593Y-29495155D01*
X48401000Y-29500000D01*
X27599000Y-29500000D01*
X27540809Y-29481093D01*
X27504845Y-29431593D01*
X27500000Y-29401000D01*
X27500000Y-28600000D01*
X32494318Y-28600000D01*
X32514955Y-28756758D01*
X32514957Y-28756766D01*
X32575462Y-28902838D01*
X32575462Y-28902839D01*
X32650231Y-29000280D01*
X32671718Y-29028282D01*
X32671722Y-29028285D01*
X32671723Y-29028286D01*
X32687641Y-29040500D01*
X32797159Y-29124536D01*
X32943238Y-29185044D01*
X33060809Y-29200522D01*
X33099999Y-29205682D01*
X33100000Y-29205682D01*
X33100001Y-29205682D01*
X33131352Y-29201554D01*
X33256762Y-29185044D01*
X33402841Y-29124536D01*
X33528282Y-29028282D01*
X33624536Y-28902841D01*
X33685044Y-28756762D01*
X33705682Y-28600000D01*
X36594318Y-28600000D01*
X36614955Y-28756758D01*
X36614957Y-28756766D01*
X36675462Y-28902838D01*
X36675462Y-28902839D01*
X36750231Y-29000280D01*
X36771718Y-29028282D01*
X36771722Y-29028285D01*
X36771723Y-29028286D01*
X36787641Y-29040500D01*
X36897159Y-29124536D01*
X37043238Y-29185044D01*
X37160809Y-29200522D01*
X37199999Y-29205682D01*
X37200000Y-29205682D01*
X37200001Y-29205682D01*
X37231352Y-29201554D01*
X37356762Y-29185044D01*
X37502841Y-29124536D01*
X37628282Y-29028282D01*
X37724536Y-28902841D01*
X37785044Y-28756762D01*
X37805682Y-28600000D01*
X37785044Y-28443238D01*
X37724537Y-28297161D01*
X37724537Y-28297160D01*
X37628286Y-28171723D01*
X37628285Y-28171722D01*
X37628282Y-28171718D01*
X37628277Y-28171714D01*
X37628276Y-28171713D01*
X37502838Y-28075462D01*
X37356766Y-28014957D01*
X37356758Y-28014955D01*
X37200001Y-27994318D01*
X37199999Y-27994318D01*
X37043241Y-28014955D01*
X37043233Y-28014957D01*
X36897161Y-28075462D01*
X36897160Y-28075462D01*
X36771723Y-28171713D01*
X36771713Y-28171723D01*
X36675462Y-28297160D01*
X36675462Y-28297161D01*
X36614957Y-28443233D01*
X36614955Y-28443241D01*
X36594318Y-28599999D01*
X36594318Y-28600000D01*
X33705682Y-28600000D01*
X33685044Y-28443238D01*
X33624537Y-28297161D01*
X33624537Y-28297160D01*
X33528286Y-28171723D01*
X33528285Y-28171722D01*
X33528282Y-28171718D01*
X33528277Y-28171714D01*
X33528276Y-28171713D01*
X33402838Y-28075462D01*
X33256766Y-28014957D01*
X33256758Y-28014955D01*
X33100001Y-27994318D01*
X33099999Y-27994318D01*
X32943241Y-28014955D01*
X32943233Y-28014957D01*
X32797161Y-28075462D01*
X32797160Y-28075462D01*
X32671723Y-28171713D01*
X32671713Y-28171723D01*
X32575462Y-28297160D01*
X32575462Y-28297161D01*
X32514957Y-28443233D01*
X32514955Y-28443241D01*
X32494318Y-28599999D01*
X32494318Y-28600000D01*
X27500000Y-28600000D01*
X27500000Y-27240002D01*
X43694451Y-27240002D01*
X43714616Y-27509098D01*
X43714618Y-27509107D01*
X43774666Y-27772197D01*
X43869944Y-28014957D01*
X43873257Y-28023398D01*
X44008185Y-28257102D01*
X44008189Y-28257108D01*
X44008191Y-28257110D01*
X44176434Y-28468081D01*
X44176440Y-28468087D01*
X44374252Y-28651629D01*
X44374254Y-28651630D01*
X44374259Y-28651635D01*
X44597226Y-28803651D01*
X44840359Y-28920738D01*
X45098228Y-29000280D01*
X45365071Y-29040500D01*
X45365076Y-29040500D01*
X45634924Y-29040500D01*
X45634929Y-29040500D01*
X45901772Y-29000280D01*
X46159641Y-28920738D01*
X46402775Y-28803651D01*
X46625741Y-28651635D01*
X46823561Y-28468085D01*
X46823565Y-28468081D01*
X46959869Y-28297161D01*
X46991815Y-28257102D01*
X47126743Y-28023398D01*
X47225334Y-27772195D01*
X47285383Y-27509103D01*
X47305549Y-27240000D01*
X47285383Y-26970897D01*
X47225334Y-26707805D01*
X47126743Y-26456602D01*
X46991815Y-26222898D01*
X46991808Y-26222889D01*
X46823565Y-26011918D01*
X46823559Y-26011912D01*
X46625747Y-25828370D01*
X46625744Y-25828368D01*
X46625741Y-25828365D01*
X46402775Y-25676349D01*
X46402767Y-25676345D01*
X46159643Y-25559262D01*
X45901776Y-25479721D01*
X45901773Y-25479720D01*
X45901772Y-25479720D01*
X45901767Y-25479719D01*
X45901766Y-25479719D01*
X45634932Y-25439500D01*
X45634929Y-25439500D01*
X45365071Y-25439500D01*
X45365067Y-25439500D01*
X45098233Y-25479719D01*
X45098223Y-25479721D01*
X44840358Y-25559262D01*
X44597233Y-25676345D01*
X44597229Y-25676347D01*
X44597226Y-25676349D01*
X44374259Y-25828365D01*
X44374252Y-25828370D01*
X44176440Y-26011912D01*
X44176434Y-26011918D01*
X44008191Y-26222889D01*
X44008187Y-26222894D01*
X44008185Y-26222898D01*
X43942687Y-26336344D01*
X43873258Y-26456599D01*
X43873254Y-26456608D01*
X43774666Y-26707802D01*
X43714618Y-26970892D01*
X43714616Y-26970901D01*
X43694451Y-27239997D01*
X43694451Y-27240002D01*
X27500000Y-27240002D01*
X27500000Y-22160002D01*
X43694451Y-22160002D01*
X43714616Y-22429098D01*
X43714618Y-22429107D01*
X43774666Y-22692197D01*
X43873254Y-22943391D01*
X43873257Y-22943398D01*
X44008185Y-23177102D01*
X44008189Y-23177108D01*
X44008191Y-23177110D01*
X44176434Y-23388081D01*
X44176440Y-23388087D01*
X44374252Y-23571629D01*
X44374254Y-23571630D01*
X44374259Y-23571635D01*
X44597226Y-23723651D01*
X44840359Y-23840738D01*
X45098228Y-23920280D01*
X45365071Y-23960500D01*
X45365076Y-23960500D01*
X45634924Y-23960500D01*
X45634929Y-23960500D01*
X45901772Y-23920280D01*
X46159641Y-23840738D01*
X46402775Y-23723651D01*
X46625741Y-23571635D01*
X46823561Y-23388085D01*
X46823565Y-23388081D01*
X46918855Y-23268589D01*
X46991815Y-23177102D01*
X47126743Y-22943398D01*
X47225334Y-22692195D01*
X47285383Y-22429103D01*
X47305549Y-22160000D01*
X47285383Y-21890897D01*
X47225334Y-21627805D01*
X47126743Y-21376602D01*
X46991815Y-21142898D01*
X46991808Y-21142889D01*
X46823565Y-20931918D01*
X46823559Y-20931912D01*
X46625747Y-20748370D01*
X46625744Y-20748368D01*
X46625741Y-20748365D01*
X46402775Y-20596349D01*
X46402767Y-20596345D01*
X46159643Y-20479262D01*
X45901776Y-20399721D01*
X45901773Y-20399720D01*
X45901772Y-20399720D01*
X45901767Y-20399719D01*
X45901766Y-20399719D01*
X45634932Y-20359500D01*
X45634929Y-20359500D01*
X45365071Y-20359500D01*
X45365067Y-20359500D01*
X45098233Y-20399719D01*
X45098223Y-20399721D01*
X44840358Y-20479262D01*
X44597233Y-20596345D01*
X44597229Y-20596347D01*
X44597226Y-20596349D01*
X44374259Y-20748365D01*
X44374252Y-20748370D01*
X44176440Y-20931912D01*
X44176434Y-20931918D01*
X44008191Y-21142889D01*
X44008187Y-21142894D01*
X44008185Y-21142898D01*
X43942687Y-21256344D01*
X43873258Y-21376599D01*
X43873254Y-21376608D01*
X43774666Y-21627802D01*
X43714618Y-21890892D01*
X43714616Y-21890901D01*
X43694451Y-22159997D01*
X43694451Y-22160002D01*
X27500000Y-22160002D01*
X27500000Y-17080002D01*
X43694451Y-17080002D01*
X43714616Y-17349098D01*
X43714618Y-17349107D01*
X43774666Y-17612197D01*
X43873254Y-17863391D01*
X43873257Y-17863398D01*
X44008185Y-18097102D01*
X44008189Y-18097108D01*
X44008191Y-18097110D01*
X44176434Y-18308081D01*
X44176440Y-18308087D01*
X44374252Y-18491629D01*
X44374254Y-18491630D01*
X44374259Y-18491635D01*
X44597226Y-18643651D01*
X44840359Y-18760738D01*
X45098228Y-18840280D01*
X45365071Y-18880500D01*
X45365076Y-18880500D01*
X45634924Y-18880500D01*
X45634929Y-18880500D01*
X45901772Y-18840280D01*
X46159641Y-18760738D01*
X46402775Y-18643651D01*
X46625741Y-18491635D01*
X46823561Y-18308085D01*
X46823565Y-18308081D01*
X46918855Y-18188589D01*
X46991815Y-18097102D01*
X47126743Y-17863398D01*
X47225334Y-17612195D01*
X47285383Y-17349103D01*
X47305549Y-17080000D01*
X47285383Y-16810897D01*
X47225334Y-16547805D01*
X47126743Y-16296602D01*
X46991815Y-16062898D01*
X46991808Y-16062889D01*
X46823565Y-15851918D01*
X46823559Y-15851912D01*
X46625747Y-15668370D01*
X46625744Y-15668368D01*
X46625741Y-15668365D01*
X46402775Y-15516349D01*
X46402767Y-15516345D01*
X46159643Y-15399262D01*
X45901776Y-15319721D01*
X45901773Y-15319720D01*
X45901772Y-15319720D01*
X45901767Y-15319719D01*
X45901766Y-15319719D01*
X45634932Y-15279500D01*
X45634929Y-15279500D01*
X45365071Y-15279500D01*
X45365067Y-15279500D01*
X45098233Y-15319719D01*
X45098223Y-15319721D01*
X44840358Y-15399262D01*
X44597233Y-15516345D01*
X44597229Y-15516347D01*
X44597226Y-15516349D01*
X44374259Y-15668365D01*
X44374252Y-15668370D01*
X44176440Y-15851912D01*
X44176434Y-15851918D01*
X44008191Y-16062889D01*
X44008187Y-16062894D01*
X44008185Y-16062898D01*
X43942687Y-16176344D01*
X43873258Y-16296599D01*
X43873254Y-16296608D01*
X43774666Y-16547802D01*
X43714618Y-16810892D01*
X43714616Y-16810901D01*
X43694451Y-17079997D01*
X43694451Y-17080002D01*
X27500000Y-17080002D01*
X27500000Y-13544860D01*
X43699500Y-13544860D01*
X43699501Y-13544863D01*
X43702414Y-13569990D01*
X43727756Y-13627385D01*
X43747794Y-13672765D01*
X43827235Y-13752206D01*
X43930009Y-13797585D01*
X43955135Y-13800500D01*
X47044864Y-13800499D01*
X47069991Y-13797585D01*
X47172765Y-13752206D01*
X47252206Y-13672765D01*
X47297585Y-13569991D01*
X47300500Y-13544865D01*
X47300499Y-10455136D01*
X47297585Y-10430009D01*
X47252206Y-10327235D01*
X47172765Y-10247794D01*
X47069991Y-10202415D01*
X47069990Y-10202414D01*
X47069988Y-10202414D01*
X47044868Y-10199500D01*
X43955139Y-10199500D01*
X43955136Y-10199501D01*
X43930009Y-10202414D01*
X43827235Y-10247794D01*
X43747794Y-10327235D01*
X43702414Y-10430011D01*
X43699500Y-10455130D01*
X43699500Y-13544860D01*
X27500000Y-13544860D01*
X27500000Y-11600000D01*
X29494318Y-11600000D01*
X29514955Y-11756758D01*
X29514957Y-11756766D01*
X29575462Y-11902838D01*
X29575462Y-11902839D01*
X29668844Y-12024537D01*
X29671718Y-12028282D01*
X29797159Y-12124536D01*
X29943238Y-12185044D01*
X30060809Y-12200522D01*
X30099999Y-12205682D01*
X30100000Y-12205682D01*
X30100001Y-12205682D01*
X30131352Y-12201554D01*
X30256762Y-12185044D01*
X30402841Y-12124536D01*
X30528282Y-12028282D01*
X30624536Y-11902841D01*
X30685044Y-11756762D01*
X30705682Y-11600000D01*
X30692517Y-11500000D01*
X35094318Y-11500000D01*
X35114955Y-11656758D01*
X35114957Y-11656766D01*
X35175462Y-11802838D01*
X35175462Y-11802839D01*
X35175464Y-11802841D01*
X35271718Y-11928282D01*
X35397159Y-12024536D01*
X35397160Y-12024536D01*
X35397161Y-12024537D01*
X35406212Y-12028286D01*
X35543238Y-12085044D01*
X35660809Y-12100522D01*
X35699999Y-12105682D01*
X35700000Y-12105682D01*
X35700001Y-12105682D01*
X35731352Y-12101554D01*
X35856762Y-12085044D01*
X36002841Y-12024536D01*
X36128282Y-11928282D01*
X36224536Y-11802841D01*
X36285044Y-11656762D01*
X36305682Y-11500000D01*
X39494318Y-11500000D01*
X39514955Y-11656758D01*
X39514957Y-11656766D01*
X39575462Y-11802838D01*
X39575462Y-11802839D01*
X39575464Y-11802841D01*
X39671718Y-11928282D01*
X39797159Y-12024536D01*
X39797160Y-12024536D01*
X39797161Y-12024537D01*
X39806212Y-12028286D01*
X39943238Y-12085044D01*
X40060809Y-12100522D01*
X40099999Y-12105682D01*
X40100000Y-12105682D01*
X40100001Y-12105682D01*
X40131352Y-12101554D01*
X40256762Y-12085044D01*
X40402841Y-12024536D01*
X40528282Y-11928282D01*
X40624536Y-11802841D01*
X40685044Y-11656762D01*
X40705682Y-11500000D01*
X40685044Y-11343238D01*
X40665958Y-11297160D01*
X40624537Y-11197161D01*
X40624537Y-11197160D01*
X40528286Y-11071723D01*
X40528285Y-11071722D01*
X40528282Y-11071718D01*
X40528277Y-11071714D01*
X40528276Y-11071713D01*
X40402838Y-10975462D01*
X40256766Y-10914957D01*
X40256758Y-10914955D01*
X40100001Y-10894318D01*
X40099999Y-10894318D01*
X39943241Y-10914955D01*
X39943233Y-10914957D01*
X39797161Y-10975462D01*
X39797160Y-10975462D01*
X39671723Y-11071713D01*
X39671713Y-11071723D01*
X39575462Y-11197160D01*
X39575462Y-11197161D01*
X39514957Y-11343233D01*
X39514955Y-11343241D01*
X39494318Y-11499999D01*
X39494318Y-11500000D01*
X36305682Y-11500000D01*
X36285044Y-11343238D01*
X36265958Y-11297160D01*
X36224537Y-11197161D01*
X36224537Y-11197160D01*
X36128286Y-11071723D01*
X36128285Y-11071722D01*
X36128282Y-11071718D01*
X36128277Y-11071714D01*
X36128276Y-11071713D01*
X36002838Y-10975462D01*
X35856766Y-10914957D01*
X35856758Y-10914955D01*
X35700001Y-10894318D01*
X35699999Y-10894318D01*
X35543241Y-10914955D01*
X35543233Y-10914957D01*
X35397161Y-10975462D01*
X35397160Y-10975462D01*
X35271723Y-11071713D01*
X35271713Y-11071723D01*
X35175462Y-11197160D01*
X35175462Y-11197161D01*
X35114957Y-11343233D01*
X35114955Y-11343241D01*
X35094318Y-11499999D01*
X35094318Y-11500000D01*
X30692517Y-11500000D01*
X30685044Y-11443238D01*
X30624537Y-11297161D01*
X30624537Y-11297160D01*
X30528286Y-11171723D01*
X30528285Y-11171722D01*
X30528282Y-11171718D01*
X30528277Y-11171714D01*
X30528276Y-11171713D01*
X30402838Y-11075462D01*
X30256766Y-11014957D01*
X30256758Y-11014955D01*
X30100001Y-10994318D01*
X30099999Y-10994318D01*
X29943241Y-11014955D01*
X29943233Y-11014957D01*
X29797161Y-11075462D01*
X29797160Y-11075462D01*
X29671723Y-11171713D01*
X29671713Y-11171723D01*
X29575462Y-11297160D01*
X29575462Y-11297161D01*
X29514957Y-11443233D01*
X29514955Y-11443241D01*
X29494318Y-11599999D01*
X29494318Y-11600000D01*
X27500000Y-11600000D01*
X27500000Y-8450000D01*
X35744318Y-8450000D01*
X35764955Y-8606758D01*
X35764957Y-8606766D01*
X35825462Y-8752838D01*
X35825462Y-8752839D01*
X35825464Y-8752841D01*
X35921718Y-8878282D01*
X36047159Y-8974536D01*
X36193238Y-9035044D01*
X36310809Y-9050522D01*
X36349999Y-9055682D01*
X36350000Y-9055682D01*
X36350001Y-9055682D01*
X36381352Y-9051554D01*
X36506762Y-9035044D01*
X36652841Y-8974536D01*
X36778282Y-8878282D01*
X36874536Y-8752841D01*
X36935044Y-8606762D01*
X36955682Y-8450000D01*
X36935044Y-8293238D01*
X36874536Y-8147159D01*
X36846227Y-8110266D01*
X36825804Y-8052592D01*
X36843181Y-7993926D01*
X36846220Y-7989742D01*
X36874536Y-7952841D01*
X36935044Y-7806762D01*
X36955682Y-7650000D01*
X36935044Y-7493238D01*
X36874537Y-7347161D01*
X36874537Y-7347160D01*
X36778286Y-7221723D01*
X36778285Y-7221722D01*
X36778282Y-7221718D01*
X36778277Y-7221714D01*
X36778276Y-7221713D01*
X36652838Y-7125462D01*
X36506766Y-7064957D01*
X36506758Y-7064955D01*
X36350001Y-7044318D01*
X36349999Y-7044318D01*
X36193241Y-7064955D01*
X36193233Y-7064957D01*
X36047161Y-7125462D01*
X36047160Y-7125462D01*
X35921723Y-7221713D01*
X35921713Y-7221723D01*
X35825462Y-7347160D01*
X35825462Y-7347161D01*
X35764957Y-7493233D01*
X35764955Y-7493241D01*
X35744318Y-7649999D01*
X35744318Y-7650000D01*
X35764956Y-7806762D01*
X35764958Y-7806766D01*
X35825463Y-7952839D01*
X35825465Y-7952842D01*
X35853772Y-7989733D01*
X35874196Y-8047409D01*
X35856818Y-8106075D01*
X35853772Y-8110267D01*
X35825465Y-8147157D01*
X35825463Y-8147160D01*
X35764957Y-8293236D01*
X35764955Y-8293241D01*
X35744318Y-8449999D01*
X35744318Y-8450000D01*
X27500000Y-8450000D01*
X27500000Y-1299000D01*
X27518907Y-1240809D01*
X27568407Y-1204845D01*
X27599000Y-1200000D01*
X48401000Y-1200000D01*
X48459191Y-1218907D01*
G37*
%TD.AperFunction*%
%TD*%
%TA.AperFunction,Conductor*%
%TO.N,3V3*%
G36*
X21459191Y-2018907D02*
G01*
X21495155Y-2068407D01*
X21500000Y-2099000D01*
X21500000Y-17910415D01*
X21481093Y-17968606D01*
X21475821Y-17975244D01*
X21474623Y-17976626D01*
X21414834Y-18107543D01*
X21394353Y-18249997D01*
X21394353Y-18250002D01*
X21414834Y-18392456D01*
X21474623Y-18523373D01*
X21475816Y-18524750D01*
X21476409Y-18526153D01*
X21478453Y-18529334D01*
X21477902Y-18529687D01*
X21499636Y-18581108D01*
X21500000Y-18589585D01*
X21500000Y-18654846D01*
X21481093Y-18713037D01*
X21431593Y-18749001D01*
X21379078Y-18749753D01*
X21378970Y-18750508D01*
X21374207Y-18749823D01*
X21373119Y-18749839D01*
X21371969Y-18749501D01*
X21371962Y-18749500D01*
X21371961Y-18749500D01*
X21228039Y-18749500D01*
X21228035Y-18749500D01*
X21089949Y-18790046D01*
X21089942Y-18790049D01*
X20968873Y-18867855D01*
X20874622Y-18976628D01*
X20814834Y-19107543D01*
X20794353Y-19249997D01*
X20794353Y-19250002D01*
X20814834Y-19392456D01*
X20863949Y-19500000D01*
X20874623Y-19523373D01*
X20956970Y-19618407D01*
X20968873Y-19632144D01*
X20986869Y-19643709D01*
X21089947Y-19709953D01*
X21193848Y-19740460D01*
X21244354Y-19774995D01*
X21264916Y-19832622D01*
X21247678Y-19891329D01*
X21240776Y-19900280D01*
X21174623Y-19976626D01*
X21114834Y-20107543D01*
X21106632Y-20164590D01*
X21079636Y-20219497D01*
X21025521Y-20248050D01*
X21008640Y-20249500D01*
X20928035Y-20249500D01*
X20789949Y-20290046D01*
X20789942Y-20290049D01*
X20668873Y-20367855D01*
X20574622Y-20476628D01*
X20514834Y-20607543D01*
X20506632Y-20664590D01*
X20479636Y-20719497D01*
X20425521Y-20748050D01*
X20408640Y-20749500D01*
X20328035Y-20749500D01*
X20189949Y-20790046D01*
X20189942Y-20790049D01*
X20068873Y-20867855D01*
X19974622Y-20976628D01*
X19914834Y-21107543D01*
X19894353Y-21249997D01*
X19894353Y-21250002D01*
X19914834Y-21392456D01*
X19957706Y-21486330D01*
X19974623Y-21523373D01*
X20034357Y-21592310D01*
X20068873Y-21632144D01*
X20189942Y-21709950D01*
X20189947Y-21709953D01*
X20296403Y-21741211D01*
X20328035Y-21750499D01*
X20328036Y-21750499D01*
X20328039Y-21750500D01*
X20328041Y-21750500D01*
X20471959Y-21750500D01*
X20471961Y-21750500D01*
X20610053Y-21709953D01*
X20731128Y-21632143D01*
X20825377Y-21523373D01*
X20885165Y-21392457D01*
X20893367Y-21335412D01*
X20920362Y-21280504D01*
X20974476Y-21251950D01*
X20991359Y-21250500D01*
X21071959Y-21250500D01*
X21071961Y-21250500D01*
X21210053Y-21209953D01*
X21331128Y-21132143D01*
X21331131Y-21132139D01*
X21336168Y-21127776D01*
X21392527Y-21103957D01*
X21452122Y-21117815D01*
X21492191Y-21164055D01*
X21500000Y-21202594D01*
X21500000Y-22600000D01*
X23158856Y-22600000D01*
X23217047Y-22618907D01*
X23253011Y-22668407D01*
X23256848Y-22713089D01*
X23244353Y-22799996D01*
X23244353Y-22800002D01*
X23264834Y-22942456D01*
X23266983Y-22947161D01*
X23324623Y-23073373D01*
X23383736Y-23141593D01*
X23418873Y-23182144D01*
X23539942Y-23259950D01*
X23539947Y-23259953D01*
X23646403Y-23291211D01*
X23678035Y-23300499D01*
X23678036Y-23300499D01*
X23678039Y-23300500D01*
X23678041Y-23300500D01*
X23821959Y-23300500D01*
X23821961Y-23300500D01*
X23960053Y-23259953D01*
X24081128Y-23182143D01*
X24175377Y-23073373D01*
X24235165Y-22942457D01*
X24252524Y-22821723D01*
X24255647Y-22800002D01*
X24255647Y-22799996D01*
X24243152Y-22713089D01*
X24253585Y-22652799D01*
X24297464Y-22610157D01*
X24341144Y-22600000D01*
X26401000Y-22600000D01*
X26459191Y-22618907D01*
X26495155Y-22668407D01*
X26500000Y-22699000D01*
X26500000Y-32001237D01*
X26481093Y-32059428D01*
X26466536Y-32074268D01*
X26467080Y-32074864D01*
X26306135Y-32221586D01*
X26306131Y-32221589D01*
X26306128Y-32221593D01*
X26306125Y-32221597D01*
X26177635Y-32391743D01*
X26177630Y-32391752D01*
X26082596Y-32582608D01*
X26024244Y-32787688D01*
X26024244Y-32787690D01*
X26004571Y-33000000D01*
X26024244Y-33212310D01*
X26082595Y-33417389D01*
X26177634Y-33608255D01*
X26306128Y-33778407D01*
X26463698Y-33922052D01*
X26463700Y-33922053D01*
X26467081Y-33925135D01*
X26465566Y-33926796D01*
X26495691Y-33969872D01*
X26500000Y-33998761D01*
X26500000Y-34401000D01*
X26481093Y-34459191D01*
X26431593Y-34495155D01*
X26401000Y-34500000D01*
X13656470Y-34500000D01*
X13598279Y-34481093D01*
X13562315Y-34431593D01*
X13562315Y-34370407D01*
X13562684Y-34369296D01*
X13630081Y-34170753D01*
X13686356Y-33887839D01*
X13687222Y-33874624D01*
X15900000Y-33874624D01*
X15914506Y-33947546D01*
X15914507Y-33947548D01*
X15969758Y-34030237D01*
X15969762Y-34030241D01*
X16052451Y-34085492D01*
X16052453Y-34085493D01*
X16125375Y-34099999D01*
X16125377Y-34100000D01*
X16799999Y-34100000D01*
X16800000Y-34099999D01*
X16800000Y-33458335D01*
X16857685Y-33484680D01*
X16964237Y-33500000D01*
X17035763Y-33500000D01*
X17142315Y-33484680D01*
X17200000Y-33458335D01*
X17200000Y-34099999D01*
X17200001Y-34100000D01*
X17874623Y-34100000D01*
X17874624Y-34099999D01*
X17947546Y-34085493D01*
X17947548Y-34085492D01*
X18030237Y-34030241D01*
X18030241Y-34030237D01*
X18085492Y-33947548D01*
X18085493Y-33947546D01*
X18099999Y-33874624D01*
X18100000Y-33874622D01*
X18100000Y-33200001D01*
X18099999Y-33200000D01*
X17462383Y-33200000D01*
X17500000Y-33071889D01*
X17500000Y-33000000D01*
X18384571Y-33000000D01*
X18404244Y-33212310D01*
X18462595Y-33417389D01*
X18557634Y-33608255D01*
X18686128Y-33778407D01*
X18686135Y-33778413D01*
X18843692Y-33922047D01*
X18843699Y-33922053D01*
X18884872Y-33947546D01*
X19024981Y-34034298D01*
X19223802Y-34111321D01*
X19433390Y-34150500D01*
X19646610Y-34150500D01*
X19856198Y-34111321D01*
X20055019Y-34034298D01*
X20236302Y-33922052D01*
X20393872Y-33778407D01*
X20522366Y-33608255D01*
X20617405Y-33417389D01*
X20675756Y-33212310D01*
X20695429Y-33000000D01*
X20924571Y-33000000D01*
X20944244Y-33212310D01*
X21002595Y-33417389D01*
X21097634Y-33608255D01*
X21226128Y-33778407D01*
X21226135Y-33778413D01*
X21383692Y-33922047D01*
X21383699Y-33922053D01*
X21424872Y-33947546D01*
X21564981Y-34034298D01*
X21763802Y-34111321D01*
X21973390Y-34150500D01*
X22186610Y-34150500D01*
X22396198Y-34111321D01*
X22595019Y-34034298D01*
X22776302Y-33922052D01*
X22933872Y-33778407D01*
X23062366Y-33608255D01*
X23157405Y-33417389D01*
X23215756Y-33212310D01*
X23235429Y-33000000D01*
X23464571Y-33000000D01*
X23484244Y-33212310D01*
X23542595Y-33417389D01*
X23637634Y-33608255D01*
X23766128Y-33778407D01*
X23766135Y-33778413D01*
X23923692Y-33922047D01*
X23923699Y-33922053D01*
X23964872Y-33947546D01*
X24104981Y-34034298D01*
X24303802Y-34111321D01*
X24513390Y-34150500D01*
X24726610Y-34150500D01*
X24936198Y-34111321D01*
X25135019Y-34034298D01*
X25316302Y-33922052D01*
X25473872Y-33778407D01*
X25602366Y-33608255D01*
X25697405Y-33417389D01*
X25755756Y-33212310D01*
X25775429Y-33000000D01*
X25755756Y-32787690D01*
X25697405Y-32582611D01*
X25602366Y-32391745D01*
X25473872Y-32221593D01*
X25368327Y-32125375D01*
X25316307Y-32077952D01*
X25316300Y-32077946D01*
X25135024Y-31965705D01*
X25135019Y-31965702D01*
X25002868Y-31914507D01*
X24936198Y-31888679D01*
X24936197Y-31888678D01*
X24936195Y-31888678D01*
X24726610Y-31849500D01*
X24513390Y-31849500D01*
X24303804Y-31888678D01*
X24104980Y-31965702D01*
X24104975Y-31965705D01*
X23923699Y-32077946D01*
X23923692Y-32077952D01*
X23766135Y-32221586D01*
X23766131Y-32221589D01*
X23766128Y-32221593D01*
X23766125Y-32221597D01*
X23637635Y-32391743D01*
X23637630Y-32391752D01*
X23542596Y-32582608D01*
X23484244Y-32787688D01*
X23484244Y-32787690D01*
X23464571Y-33000000D01*
X23235429Y-33000000D01*
X23215756Y-32787690D01*
X23157405Y-32582611D01*
X23062366Y-32391745D01*
X22933872Y-32221593D01*
X22828327Y-32125375D01*
X22776307Y-32077952D01*
X22776300Y-32077946D01*
X22595024Y-31965705D01*
X22595019Y-31965702D01*
X22462868Y-31914507D01*
X22396198Y-31888679D01*
X22396197Y-31888678D01*
X22396195Y-31888678D01*
X22186610Y-31849500D01*
X21973390Y-31849500D01*
X21763804Y-31888678D01*
X21564980Y-31965702D01*
X21564975Y-31965705D01*
X21383699Y-32077946D01*
X21383692Y-32077952D01*
X21226135Y-32221586D01*
X21226131Y-32221589D01*
X21226128Y-32221593D01*
X21226125Y-32221597D01*
X21097635Y-32391743D01*
X21097630Y-32391752D01*
X21002596Y-32582608D01*
X20944244Y-32787688D01*
X20944244Y-32787690D01*
X20924571Y-33000000D01*
X20695429Y-33000000D01*
X20675756Y-32787690D01*
X20617405Y-32582611D01*
X20522366Y-32391745D01*
X20393872Y-32221593D01*
X20288327Y-32125375D01*
X20236307Y-32077952D01*
X20236300Y-32077946D01*
X20055024Y-31965705D01*
X20055019Y-31965702D01*
X19922868Y-31914507D01*
X19856198Y-31888679D01*
X19856197Y-31888678D01*
X19856195Y-31888678D01*
X19646610Y-31849500D01*
X19433390Y-31849500D01*
X19223804Y-31888678D01*
X19024980Y-31965702D01*
X19024975Y-31965705D01*
X18843699Y-32077946D01*
X18843692Y-32077952D01*
X18686135Y-32221586D01*
X18686131Y-32221589D01*
X18686128Y-32221593D01*
X18686125Y-32221597D01*
X18557635Y-32391743D01*
X18557630Y-32391752D01*
X18462596Y-32582608D01*
X18404244Y-32787688D01*
X18404244Y-32787690D01*
X18384571Y-33000000D01*
X17500000Y-33000000D01*
X17500000Y-32928111D01*
X17462383Y-32800000D01*
X18099999Y-32800000D01*
X18100000Y-32799999D01*
X18100000Y-32125377D01*
X18099999Y-32125375D01*
X18085493Y-32052453D01*
X18085492Y-32052451D01*
X18030241Y-31969762D01*
X18030237Y-31969758D01*
X17947548Y-31914507D01*
X17947546Y-31914506D01*
X17874624Y-31900000D01*
X17200001Y-31900000D01*
X17200000Y-31900001D01*
X17200000Y-32541664D01*
X17142315Y-32515320D01*
X17035763Y-32500000D01*
X16964237Y-32500000D01*
X16857685Y-32515320D01*
X16800000Y-32541664D01*
X16800000Y-31900001D01*
X16799999Y-31900000D01*
X16125375Y-31900000D01*
X16052453Y-31914506D01*
X16052451Y-31914507D01*
X15969762Y-31969758D01*
X15969758Y-31969762D01*
X15914507Y-32052451D01*
X15914506Y-32052453D01*
X15900000Y-32125375D01*
X15900000Y-32799999D01*
X15900001Y-32800000D01*
X16537617Y-32800000D01*
X16500000Y-32928111D01*
X16500000Y-33071889D01*
X16537617Y-33200000D01*
X15900001Y-33200000D01*
X15900000Y-33200001D01*
X15900000Y-33874624D01*
X13687222Y-33874624D01*
X13705222Y-33600000D01*
X13686356Y-33312161D01*
X13630081Y-33029247D01*
X13537359Y-32756098D01*
X13409778Y-32497389D01*
X13249520Y-32257546D01*
X13249517Y-32257543D01*
X13249512Y-32257536D01*
X13059335Y-32040682D01*
X13059334Y-32040681D01*
X13059327Y-32040673D01*
X12978469Y-31969762D01*
X12842463Y-31850487D01*
X12842450Y-31850477D01*
X12602611Y-31690222D01*
X12343911Y-31562645D01*
X12343900Y-31562640D01*
X12070759Y-31469920D01*
X11787836Y-31413643D01*
X11500000Y-31394778D01*
X11212163Y-31413643D01*
X10929240Y-31469920D01*
X10656099Y-31562640D01*
X10656088Y-31562645D01*
X10397388Y-31690222D01*
X10157549Y-31850477D01*
X10157536Y-31850487D01*
X9940682Y-32040664D01*
X9940664Y-32040682D01*
X9750487Y-32257536D01*
X9750477Y-32257549D01*
X9590222Y-32497388D01*
X9462645Y-32756088D01*
X9462640Y-32756099D01*
X9369920Y-33029240D01*
X9313643Y-33312163D01*
X9294778Y-33599999D01*
X9294778Y-33600000D01*
X9313643Y-33887836D01*
X9369920Y-34170759D01*
X9407301Y-34280879D01*
X9437276Y-34369179D01*
X9438077Y-34430357D01*
X9402765Y-34480324D01*
X9344826Y-34499992D01*
X9343530Y-34500000D01*
X1099000Y-34500000D01*
X1040809Y-34481093D01*
X1004845Y-34431593D01*
X1000000Y-34401000D01*
X1000000Y-31540000D01*
X2844571Y-31540000D01*
X2864244Y-31752310D01*
X2922595Y-31957389D01*
X3017634Y-32148255D01*
X3146128Y-32318407D01*
X3146135Y-32318413D01*
X3303692Y-32462047D01*
X3303699Y-32462053D01*
X3407389Y-32526255D01*
X3484981Y-32574298D01*
X3683802Y-32651321D01*
X3893390Y-32690500D01*
X4106610Y-32690500D01*
X4316198Y-32651321D01*
X4515019Y-32574298D01*
X4696302Y-32462052D01*
X4853872Y-32318407D01*
X4982366Y-32148255D01*
X5077405Y-31957389D01*
X5135756Y-31752310D01*
X5155429Y-31540000D01*
X5135756Y-31327690D01*
X5077405Y-31122611D01*
X4982366Y-30931745D01*
X4853872Y-30761593D01*
X4799623Y-30712139D01*
X4696307Y-30617952D01*
X4696300Y-30617946D01*
X4515024Y-30505705D01*
X4515019Y-30505702D01*
X4316195Y-30428678D01*
X4106610Y-30389500D01*
X3893390Y-30389500D01*
X3683804Y-30428678D01*
X3484980Y-30505702D01*
X3484975Y-30505705D01*
X3303699Y-30617946D01*
X3303692Y-30617952D01*
X3146135Y-30761586D01*
X3146131Y-30761589D01*
X3146128Y-30761593D01*
X3146125Y-30761597D01*
X3017635Y-30931743D01*
X3017630Y-30931752D01*
X2922596Y-31122608D01*
X2864244Y-31327688D01*
X2856279Y-31413643D01*
X2844571Y-31540000D01*
X1000000Y-31540000D01*
X1000000Y-29000000D01*
X2844571Y-29000000D01*
X2851216Y-29071718D01*
X2864244Y-29212310D01*
X2922595Y-29417389D01*
X3017634Y-29608255D01*
X3146128Y-29778407D01*
X3172931Y-29802841D01*
X3303692Y-29922047D01*
X3303699Y-29922053D01*
X3313766Y-29928286D01*
X3484981Y-30034298D01*
X3683802Y-30111321D01*
X3893390Y-30150500D01*
X4106610Y-30150500D01*
X4316198Y-30111321D01*
X4515019Y-30034298D01*
X4696302Y-29922052D01*
X4853872Y-29778407D01*
X4982366Y-29608255D01*
X5036270Y-29500000D01*
X16794318Y-29500000D01*
X16814955Y-29656758D01*
X16814957Y-29656766D01*
X16875462Y-29802838D01*
X16875462Y-29802839D01*
X16966938Y-29922053D01*
X16971718Y-29928282D01*
X17097159Y-30024536D01*
X17097160Y-30024536D01*
X17097161Y-30024537D01*
X17243233Y-30085042D01*
X17243238Y-30085044D01*
X17360809Y-30100522D01*
X17399999Y-30105682D01*
X17400000Y-30105682D01*
X17400001Y-30105682D01*
X17431352Y-30101554D01*
X17556762Y-30085044D01*
X17702841Y-30024536D01*
X17828282Y-29928282D01*
X17924536Y-29802841D01*
X17985044Y-29656762D01*
X18005682Y-29500000D01*
X17985044Y-29343238D01*
X17930812Y-29212310D01*
X17924537Y-29197161D01*
X17924537Y-29197160D01*
X17828286Y-29071723D01*
X17828285Y-29071722D01*
X17828282Y-29071718D01*
X17828277Y-29071714D01*
X17828276Y-29071713D01*
X17702838Y-28975462D01*
X17556766Y-28914957D01*
X17556758Y-28914955D01*
X17400001Y-28894318D01*
X17399999Y-28894318D01*
X17243241Y-28914955D01*
X17243233Y-28914957D01*
X17097161Y-28975462D01*
X17097160Y-28975462D01*
X16971723Y-29071713D01*
X16971713Y-29071723D01*
X16875462Y-29197160D01*
X16875462Y-29197161D01*
X16814957Y-29343233D01*
X16814955Y-29343241D01*
X16794318Y-29499999D01*
X16794318Y-29500000D01*
X5036270Y-29500000D01*
X5077405Y-29417389D01*
X5135756Y-29212310D01*
X5155429Y-29000000D01*
X5135756Y-28787690D01*
X5082353Y-28600000D01*
X21994318Y-28600000D01*
X22014955Y-28756758D01*
X22014957Y-28756766D01*
X22075462Y-28902838D01*
X22075462Y-28902839D01*
X22171713Y-29028276D01*
X22171718Y-29028282D01*
X22297159Y-29124536D01*
X22443238Y-29185044D01*
X22560809Y-29200522D01*
X22599999Y-29205682D01*
X22600000Y-29205682D01*
X22600001Y-29205682D01*
X22631352Y-29201554D01*
X22756762Y-29185044D01*
X22902841Y-29124536D01*
X23028282Y-29028282D01*
X23124536Y-28902841D01*
X23185044Y-28756762D01*
X23205682Y-28600000D01*
X24219318Y-28600000D01*
X24239955Y-28756758D01*
X24239957Y-28756766D01*
X24300462Y-28902838D01*
X24300462Y-28902839D01*
X24396713Y-29028276D01*
X24396718Y-29028282D01*
X24522159Y-29124536D01*
X24668238Y-29185044D01*
X24785809Y-29200522D01*
X24824999Y-29205682D01*
X24825000Y-29205682D01*
X24825001Y-29205682D01*
X24856352Y-29201554D01*
X24981762Y-29185044D01*
X25127841Y-29124536D01*
X25253282Y-29028282D01*
X25349536Y-28902841D01*
X25410044Y-28756762D01*
X25430682Y-28600000D01*
X25410044Y-28443238D01*
X25349537Y-28297161D01*
X25349537Y-28297160D01*
X25253286Y-28171723D01*
X25253285Y-28171722D01*
X25253282Y-28171718D01*
X25253277Y-28171714D01*
X25253276Y-28171713D01*
X25131078Y-28077948D01*
X25127841Y-28075464D01*
X25127840Y-28075463D01*
X25127838Y-28075462D01*
X24981766Y-28014957D01*
X24981758Y-28014955D01*
X24825001Y-27994318D01*
X24824999Y-27994318D01*
X24668241Y-28014955D01*
X24668233Y-28014957D01*
X24522161Y-28075462D01*
X24522160Y-28075462D01*
X24396723Y-28171713D01*
X24396713Y-28171723D01*
X24300462Y-28297160D01*
X24300462Y-28297161D01*
X24239957Y-28443233D01*
X24239955Y-28443241D01*
X24219318Y-28599999D01*
X24219318Y-28600000D01*
X23205682Y-28600000D01*
X23185044Y-28443238D01*
X23124537Y-28297161D01*
X23124537Y-28297160D01*
X23028286Y-28171723D01*
X23028285Y-28171722D01*
X23028282Y-28171718D01*
X23028277Y-28171714D01*
X23028276Y-28171713D01*
X22906078Y-28077948D01*
X22902841Y-28075464D01*
X22902840Y-28075463D01*
X22902838Y-28075462D01*
X22756766Y-28014957D01*
X22756758Y-28014955D01*
X22600001Y-27994318D01*
X22599999Y-27994318D01*
X22443241Y-28014955D01*
X22443233Y-28014957D01*
X22297161Y-28075462D01*
X22297160Y-28075462D01*
X22171723Y-28171713D01*
X22171713Y-28171723D01*
X22075462Y-28297160D01*
X22075462Y-28297161D01*
X22014957Y-28443233D01*
X22014955Y-28443241D01*
X21994318Y-28599999D01*
X21994318Y-28600000D01*
X5082353Y-28600000D01*
X5077405Y-28582611D01*
X4982366Y-28391745D01*
X4853872Y-28221593D01*
X4799157Y-28171713D01*
X4696307Y-28077952D01*
X4696300Y-28077946D01*
X4515024Y-27965705D01*
X4515019Y-27965702D01*
X4316195Y-27888678D01*
X4106610Y-27849500D01*
X3893390Y-27849500D01*
X3683804Y-27888678D01*
X3484980Y-27965702D01*
X3484975Y-27965705D01*
X3303699Y-28077946D01*
X3303692Y-28077952D01*
X3146135Y-28221586D01*
X3146131Y-28221589D01*
X3146128Y-28221593D01*
X3146125Y-28221597D01*
X3017635Y-28391743D01*
X3017630Y-28391752D01*
X2922596Y-28582608D01*
X2864244Y-28787688D01*
X2844571Y-29000000D01*
X1000000Y-29000000D01*
X1000000Y-26460000D01*
X2844571Y-26460000D01*
X2864244Y-26672310D01*
X2922595Y-26877389D01*
X3017634Y-27068255D01*
X3146128Y-27238407D01*
X3146135Y-27238413D01*
X3303692Y-27382047D01*
X3303699Y-27382053D01*
X3372312Y-27424536D01*
X3484981Y-27494298D01*
X3683802Y-27571321D01*
X3893390Y-27610500D01*
X4106610Y-27610500D01*
X4316198Y-27571321D01*
X4515019Y-27494298D01*
X4696302Y-27382052D01*
X4853872Y-27238407D01*
X4982366Y-27068255D01*
X5077405Y-26877389D01*
X5135756Y-26672310D01*
X5155429Y-26460000D01*
X5135756Y-26247690D01*
X5077405Y-26042611D01*
X4982366Y-25851745D01*
X4981048Y-25850000D01*
X10394318Y-25850000D01*
X10414955Y-26006758D01*
X10414957Y-26006766D01*
X10475462Y-26152838D01*
X10475462Y-26152839D01*
X10548242Y-26247688D01*
X10571718Y-26278282D01*
X10697159Y-26374536D01*
X10697160Y-26374536D01*
X10697161Y-26374537D01*
X10699399Y-26375464D01*
X10843238Y-26435044D01*
X10960809Y-26450522D01*
X10999999Y-26455682D01*
X11000000Y-26455682D01*
X11000001Y-26455682D01*
X11031352Y-26451554D01*
X11156762Y-26435044D01*
X11302841Y-26374536D01*
X11334817Y-26350000D01*
X11994318Y-26350000D01*
X12014955Y-26506758D01*
X12014957Y-26506766D01*
X12075462Y-26652838D01*
X12075462Y-26652839D01*
X12144830Y-26743241D01*
X12171718Y-26778282D01*
X12297159Y-26874536D01*
X12297160Y-26874536D01*
X12297161Y-26874537D01*
X12358632Y-26899999D01*
X12443238Y-26935044D01*
X12560809Y-26950522D01*
X12599999Y-26955682D01*
X12600000Y-26955682D01*
X12600001Y-26955682D01*
X12631352Y-26951554D01*
X12756762Y-26935044D01*
X12841366Y-26900000D01*
X18794318Y-26900000D01*
X18814955Y-27056758D01*
X18814957Y-27056766D01*
X18875462Y-27202838D01*
X18875462Y-27202839D01*
X18902759Y-27238413D01*
X18971718Y-27328282D01*
X19097159Y-27424536D01*
X19243238Y-27485044D01*
X19360809Y-27500522D01*
X19399999Y-27505682D01*
X19400000Y-27505682D01*
X19400001Y-27505682D01*
X19431352Y-27501554D01*
X19556762Y-27485044D01*
X19702841Y-27424536D01*
X19828282Y-27328282D01*
X19924536Y-27202841D01*
X19985044Y-27056762D01*
X20005682Y-26900000D01*
X20002705Y-26877391D01*
X19989658Y-26778286D01*
X19985044Y-26743238D01*
X19947600Y-26652841D01*
X19924537Y-26597161D01*
X19924537Y-26597160D01*
X19828286Y-26471723D01*
X19828285Y-26471722D01*
X19828282Y-26471718D01*
X19828277Y-26471714D01*
X19828276Y-26471713D01*
X19702838Y-26375462D01*
X19641367Y-26350000D01*
X21894318Y-26350000D01*
X21914955Y-26506758D01*
X21914957Y-26506766D01*
X21975462Y-26652838D01*
X21975462Y-26652839D01*
X22044830Y-26743241D01*
X22071718Y-26778282D01*
X22197159Y-26874536D01*
X22197160Y-26874536D01*
X22197161Y-26874537D01*
X22258632Y-26899999D01*
X22343238Y-26935044D01*
X22460809Y-26950522D01*
X22499999Y-26955682D01*
X22500000Y-26955682D01*
X22500001Y-26955682D01*
X22531352Y-26951554D01*
X22656762Y-26935044D01*
X22802841Y-26874536D01*
X22928282Y-26778282D01*
X23024536Y-26652841D01*
X23085044Y-26506762D01*
X23105682Y-26350000D01*
X23085044Y-26193238D01*
X23024537Y-26047161D01*
X23024537Y-26047160D01*
X22928286Y-25921723D01*
X22928285Y-25921722D01*
X22928282Y-25921718D01*
X22928277Y-25921714D01*
X22928276Y-25921713D01*
X22837091Y-25851745D01*
X22802841Y-25825464D01*
X22802840Y-25825463D01*
X22802838Y-25825462D01*
X22656766Y-25764957D01*
X22656758Y-25764955D01*
X22500001Y-25744318D01*
X22499999Y-25744318D01*
X22343241Y-25764955D01*
X22343233Y-25764957D01*
X22197161Y-25825462D01*
X22197160Y-25825462D01*
X22071723Y-25921713D01*
X22071713Y-25921723D01*
X21975462Y-26047160D01*
X21975462Y-26047161D01*
X21914957Y-26193233D01*
X21914955Y-26193241D01*
X21894318Y-26349999D01*
X21894318Y-26350000D01*
X19641367Y-26350000D01*
X19556766Y-26314957D01*
X19556758Y-26314955D01*
X19400001Y-26294318D01*
X19399999Y-26294318D01*
X19243241Y-26314955D01*
X19243233Y-26314957D01*
X19097161Y-26375462D01*
X19097160Y-26375462D01*
X18971723Y-26471713D01*
X18971713Y-26471723D01*
X18875462Y-26597160D01*
X18875462Y-26597161D01*
X18814957Y-26743233D01*
X18814955Y-26743241D01*
X18794318Y-26899999D01*
X18794318Y-26900000D01*
X12841366Y-26900000D01*
X12902841Y-26874536D01*
X13028282Y-26778282D01*
X13124536Y-26652841D01*
X13185044Y-26506762D01*
X13205682Y-26350000D01*
X13185044Y-26193238D01*
X13124537Y-26047161D01*
X13124537Y-26047160D01*
X13028286Y-25921723D01*
X13028285Y-25921722D01*
X13028282Y-25921718D01*
X13028277Y-25921714D01*
X13028276Y-25921713D01*
X12937091Y-25851745D01*
X12902841Y-25825464D01*
X12902840Y-25825463D01*
X12902838Y-25825462D01*
X12756766Y-25764957D01*
X12756758Y-25764955D01*
X12600001Y-25744318D01*
X12599999Y-25744318D01*
X12443241Y-25764955D01*
X12443233Y-25764957D01*
X12297161Y-25825462D01*
X12297160Y-25825462D01*
X12171723Y-25921713D01*
X12171713Y-25921723D01*
X12075462Y-26047160D01*
X12075462Y-26047161D01*
X12014957Y-26193233D01*
X12014955Y-26193241D01*
X11994318Y-26349999D01*
X11994318Y-26350000D01*
X11334817Y-26350000D01*
X11428282Y-26278282D01*
X11524536Y-26152841D01*
X11585044Y-26006762D01*
X11605682Y-25850000D01*
X11585044Y-25693238D01*
X11580222Y-25681597D01*
X11524537Y-25547161D01*
X11524537Y-25547160D01*
X11428286Y-25421723D01*
X11428285Y-25421722D01*
X11428282Y-25421718D01*
X11428277Y-25421714D01*
X11428276Y-25421713D01*
X11302838Y-25325462D01*
X11156766Y-25264957D01*
X11156758Y-25264955D01*
X11000001Y-25244318D01*
X10999999Y-25244318D01*
X10843241Y-25264955D01*
X10843233Y-25264957D01*
X10697161Y-25325462D01*
X10697160Y-25325462D01*
X10571723Y-25421713D01*
X10571713Y-25421723D01*
X10475462Y-25547160D01*
X10475462Y-25547161D01*
X10414957Y-25693233D01*
X10414955Y-25693241D01*
X10394318Y-25849999D01*
X10394318Y-25850000D01*
X4981048Y-25850000D01*
X4853872Y-25681593D01*
X4799623Y-25632139D01*
X4696307Y-25537952D01*
X4696300Y-25537946D01*
X4515024Y-25425705D01*
X4515019Y-25425702D01*
X4316195Y-25348678D01*
X4106610Y-25309500D01*
X3893390Y-25309500D01*
X3683804Y-25348678D01*
X3484980Y-25425702D01*
X3484975Y-25425705D01*
X3303699Y-25537946D01*
X3303692Y-25537952D01*
X3146135Y-25681586D01*
X3146131Y-25681589D01*
X3146128Y-25681593D01*
X3146125Y-25681597D01*
X3017635Y-25851743D01*
X3017630Y-25851752D01*
X2922596Y-26042608D01*
X2922595Y-26042611D01*
X2910655Y-26084574D01*
X2864244Y-26247688D01*
X2864244Y-26247690D01*
X2844571Y-26460000D01*
X1000000Y-26460000D01*
X1000000Y-23920000D01*
X2844571Y-23920000D01*
X2864244Y-24132310D01*
X2922595Y-24337389D01*
X3017634Y-24528255D01*
X3146128Y-24698407D01*
X3146135Y-24698413D01*
X3303692Y-24842047D01*
X3303699Y-24842053D01*
X3407389Y-24906255D01*
X3484981Y-24954298D01*
X3683802Y-25031321D01*
X3893390Y-25070500D01*
X4106610Y-25070500D01*
X4316198Y-25031321D01*
X4515019Y-24954298D01*
X4696302Y-24842052D01*
X4853872Y-24698407D01*
X4982366Y-24528255D01*
X5077405Y-24337389D01*
X5135756Y-24132310D01*
X5155429Y-23920000D01*
X5135756Y-23707690D01*
X5077405Y-23502611D01*
X4982366Y-23311745D01*
X4935738Y-23250000D01*
X16994318Y-23250000D01*
X17014955Y-23406758D01*
X17014957Y-23406766D01*
X17075462Y-23552838D01*
X17075462Y-23552839D01*
X17075464Y-23552841D01*
X17171718Y-23678282D01*
X17297159Y-23774536D01*
X17443238Y-23835044D01*
X17560809Y-23850522D01*
X17599999Y-23855682D01*
X17600000Y-23855682D01*
X17600001Y-23855682D01*
X17631352Y-23851554D01*
X17756762Y-23835044D01*
X17902841Y-23774536D01*
X18028282Y-23678282D01*
X18124536Y-23552841D01*
X18185044Y-23406762D01*
X18205682Y-23250000D01*
X18185044Y-23093238D01*
X18124537Y-22947161D01*
X18124537Y-22947160D01*
X18028286Y-22821723D01*
X18028285Y-22821722D01*
X18028282Y-22821718D01*
X18028277Y-22821714D01*
X18028276Y-22821713D01*
X17902838Y-22725462D01*
X17756766Y-22664957D01*
X17756758Y-22664955D01*
X17600001Y-22644318D01*
X17599999Y-22644318D01*
X17443241Y-22664955D01*
X17443233Y-22664957D01*
X17297161Y-22725462D01*
X17297160Y-22725462D01*
X17171723Y-22821713D01*
X17171713Y-22821723D01*
X17075462Y-22947160D01*
X17075462Y-22947161D01*
X17014957Y-23093233D01*
X17014955Y-23093241D01*
X16994318Y-23249999D01*
X16994318Y-23250000D01*
X4935738Y-23250000D01*
X4853872Y-23141593D01*
X4779037Y-23073371D01*
X4696307Y-22997952D01*
X4696300Y-22997946D01*
X4515024Y-22885705D01*
X4515019Y-22885702D01*
X4316198Y-22808679D01*
X4316197Y-22808678D01*
X4316195Y-22808678D01*
X4106610Y-22769500D01*
X3893390Y-22769500D01*
X3683804Y-22808678D01*
X3484980Y-22885702D01*
X3484975Y-22885705D01*
X3303699Y-22997946D01*
X3303692Y-22997952D01*
X3146135Y-23141586D01*
X3146131Y-23141589D01*
X3146128Y-23141593D01*
X3146125Y-23141597D01*
X3017635Y-23311743D01*
X3017630Y-23311752D01*
X2922596Y-23502608D01*
X2864244Y-23707688D01*
X2864244Y-23707690D01*
X2844571Y-23920000D01*
X1000000Y-23920000D01*
X1000000Y-21380000D01*
X2844571Y-21380000D01*
X2864244Y-21592310D01*
X2922595Y-21797389D01*
X3017634Y-21988255D01*
X3146128Y-22158407D01*
X3146135Y-22158413D01*
X3303692Y-22302047D01*
X3303699Y-22302053D01*
X3365062Y-22340047D01*
X3484981Y-22414298D01*
X3683802Y-22491321D01*
X3893390Y-22530500D01*
X4106610Y-22530500D01*
X4316198Y-22491321D01*
X4515019Y-22414298D01*
X4696302Y-22302052D01*
X4853872Y-22158407D01*
X4982366Y-21988255D01*
X5077405Y-21797389D01*
X5135756Y-21592310D01*
X5155429Y-21380000D01*
X10294318Y-21380000D01*
X10314955Y-21536758D01*
X10314957Y-21536766D01*
X10375462Y-21682838D01*
X10375462Y-21682839D01*
X10463361Y-21797391D01*
X10471718Y-21808282D01*
X10597159Y-21904536D01*
X10743238Y-21965044D01*
X10860809Y-21980522D01*
X10899999Y-21985682D01*
X10900000Y-21985682D01*
X10900001Y-21985682D01*
X10931352Y-21981554D01*
X11056762Y-21965044D01*
X11202841Y-21904536D01*
X11328282Y-21808282D01*
X11424536Y-21682841D01*
X11485044Y-21536762D01*
X11505682Y-21380000D01*
X11485044Y-21223238D01*
X11462035Y-21167690D01*
X11424537Y-21077161D01*
X11424537Y-21077160D01*
X11328286Y-20951723D01*
X11328285Y-20951722D01*
X11328282Y-20951718D01*
X11328277Y-20951714D01*
X11328276Y-20951713D01*
X11202838Y-20855462D01*
X11056766Y-20794957D01*
X11056758Y-20794955D01*
X10900001Y-20774318D01*
X10899999Y-20774318D01*
X10743241Y-20794955D01*
X10743233Y-20794957D01*
X10597161Y-20855462D01*
X10597160Y-20855462D01*
X10471723Y-20951713D01*
X10471713Y-20951723D01*
X10375462Y-21077160D01*
X10375462Y-21077161D01*
X10314957Y-21223233D01*
X10314955Y-21223241D01*
X10294318Y-21379999D01*
X10294318Y-21380000D01*
X5155429Y-21380000D01*
X5135756Y-21167690D01*
X5077405Y-20962611D01*
X4982366Y-20771745D01*
X4853872Y-20601593D01*
X4799623Y-20552139D01*
X4696307Y-20457952D01*
X4696300Y-20457946D01*
X4515024Y-20345705D01*
X4515019Y-20345702D01*
X4371361Y-20290049D01*
X4316198Y-20268679D01*
X4316197Y-20268678D01*
X4316195Y-20268678D01*
X4106610Y-20229500D01*
X3893390Y-20229500D01*
X3683804Y-20268678D01*
X3484980Y-20345702D01*
X3484975Y-20345705D01*
X3303699Y-20457946D01*
X3303692Y-20457952D01*
X3146135Y-20601586D01*
X3146131Y-20601589D01*
X3146128Y-20601593D01*
X3146125Y-20601597D01*
X3017635Y-20771743D01*
X3017630Y-20771752D01*
X2922596Y-20962608D01*
X2864244Y-21167688D01*
X2858690Y-21227625D01*
X2844571Y-21380000D01*
X1000000Y-21380000D01*
X1000000Y-18840000D01*
X2844571Y-18840000D01*
X2864244Y-19052311D01*
X2864395Y-19052841D01*
X2922595Y-19257389D01*
X3017634Y-19448255D01*
X3146128Y-19618407D01*
X3146135Y-19618413D01*
X3303692Y-19762047D01*
X3303699Y-19762053D01*
X3328849Y-19777625D01*
X3484981Y-19874298D01*
X3683802Y-19951321D01*
X3893390Y-19990500D01*
X4106610Y-19990500D01*
X4316198Y-19951321D01*
X4515019Y-19874298D01*
X4696302Y-19762052D01*
X4853872Y-19618407D01*
X4982366Y-19448255D01*
X5077405Y-19257389D01*
X5135756Y-19052310D01*
X5155429Y-18840000D01*
X10294318Y-18840000D01*
X10314955Y-18996758D01*
X10314957Y-18996766D01*
X10375462Y-19142838D01*
X10375462Y-19142839D01*
X10463361Y-19257391D01*
X10471718Y-19268282D01*
X10597159Y-19364536D01*
X10597160Y-19364536D01*
X10597161Y-19364537D01*
X10664566Y-19392457D01*
X10743238Y-19425044D01*
X10860809Y-19440522D01*
X10899999Y-19445682D01*
X10900000Y-19445682D01*
X10900001Y-19445682D01*
X10931352Y-19441554D01*
X11056762Y-19425044D01*
X11202841Y-19364536D01*
X11328282Y-19268282D01*
X11424536Y-19142841D01*
X11485044Y-18996762D01*
X11505682Y-18840000D01*
X11493833Y-18750000D01*
X14394318Y-18750000D01*
X14414955Y-18906758D01*
X14414957Y-18906766D01*
X14475462Y-19052838D01*
X14475462Y-19052839D01*
X14544523Y-19142841D01*
X14571718Y-19178282D01*
X14697159Y-19274536D01*
X14843238Y-19335044D01*
X14960809Y-19350522D01*
X14999999Y-19355682D01*
X15000000Y-19355682D01*
X15000001Y-19355682D01*
X15031352Y-19351554D01*
X15156762Y-19335044D01*
X15302841Y-19274536D01*
X15428282Y-19178282D01*
X15524536Y-19052841D01*
X15585044Y-18906762D01*
X15605682Y-18750000D01*
X15605649Y-18749753D01*
X15590166Y-18632143D01*
X15585044Y-18593238D01*
X15558574Y-18529334D01*
X15524537Y-18447161D01*
X15524537Y-18447160D01*
X15428286Y-18321723D01*
X15428285Y-18321722D01*
X15428282Y-18321718D01*
X15428277Y-18321714D01*
X15428276Y-18321713D01*
X15341276Y-18254956D01*
X15302841Y-18225464D01*
X15302840Y-18225463D01*
X15302838Y-18225462D01*
X15156766Y-18164957D01*
X15156758Y-18164955D01*
X15000001Y-18144318D01*
X14999999Y-18144318D01*
X14843241Y-18164955D01*
X14843233Y-18164957D01*
X14697161Y-18225462D01*
X14697160Y-18225462D01*
X14571723Y-18321713D01*
X14571713Y-18321723D01*
X14475462Y-18447160D01*
X14475462Y-18447161D01*
X14414957Y-18593233D01*
X14414955Y-18593241D01*
X14394318Y-18749999D01*
X14394318Y-18750000D01*
X11493833Y-18750000D01*
X11485044Y-18683238D01*
X11462035Y-18627690D01*
X11424537Y-18537161D01*
X11424537Y-18537160D01*
X11328286Y-18411723D01*
X11328285Y-18411722D01*
X11328282Y-18411718D01*
X11328277Y-18411714D01*
X11328276Y-18411713D01*
X11228358Y-18335044D01*
X11202841Y-18315464D01*
X11202840Y-18315463D01*
X11202838Y-18315462D01*
X11056766Y-18254957D01*
X11056758Y-18254955D01*
X10900001Y-18234318D01*
X10899999Y-18234318D01*
X10743241Y-18254955D01*
X10743233Y-18254957D01*
X10597161Y-18315462D01*
X10597160Y-18315462D01*
X10471723Y-18411713D01*
X10471713Y-18411723D01*
X10375462Y-18537160D01*
X10375462Y-18537161D01*
X10314957Y-18683233D01*
X10314955Y-18683241D01*
X10294318Y-18839999D01*
X10294318Y-18840000D01*
X5155429Y-18840000D01*
X5135756Y-18627690D01*
X5077405Y-18422611D01*
X4982366Y-18231745D01*
X4853872Y-18061593D01*
X4799623Y-18012139D01*
X4696307Y-17917952D01*
X4696300Y-17917946D01*
X4515024Y-17805705D01*
X4515019Y-17805702D01*
X4371234Y-17750000D01*
X17744318Y-17750000D01*
X17764955Y-17906758D01*
X17764957Y-17906766D01*
X17825462Y-18052838D01*
X17825462Y-18052839D01*
X17911493Y-18164957D01*
X17921718Y-18178282D01*
X18047159Y-18274536D01*
X18193238Y-18335044D01*
X18310809Y-18350522D01*
X18349999Y-18355682D01*
X18350000Y-18355682D01*
X18350001Y-18355682D01*
X18381352Y-18351554D01*
X18506762Y-18335044D01*
X18652841Y-18274536D01*
X18778282Y-18178282D01*
X18874536Y-18052841D01*
X18935044Y-17906762D01*
X18955682Y-17750000D01*
X18935044Y-17593238D01*
X18874537Y-17447161D01*
X18874537Y-17447160D01*
X18778286Y-17321723D01*
X18778285Y-17321722D01*
X18778282Y-17321718D01*
X18778277Y-17321714D01*
X18778276Y-17321713D01*
X18652838Y-17225462D01*
X18506766Y-17164957D01*
X18506758Y-17164955D01*
X18350001Y-17144318D01*
X18349999Y-17144318D01*
X18193241Y-17164955D01*
X18193233Y-17164957D01*
X18047161Y-17225462D01*
X18047160Y-17225462D01*
X17921723Y-17321713D01*
X17921713Y-17321723D01*
X17825462Y-17447160D01*
X17825462Y-17447161D01*
X17764957Y-17593233D01*
X17764955Y-17593241D01*
X17744318Y-17749999D01*
X17744318Y-17750000D01*
X4371234Y-17750000D01*
X4316198Y-17728679D01*
X4316197Y-17728678D01*
X4316195Y-17728678D01*
X4106610Y-17689500D01*
X3893390Y-17689500D01*
X3683804Y-17728678D01*
X3484980Y-17805702D01*
X3484975Y-17805705D01*
X3303699Y-17917946D01*
X3303692Y-17917952D01*
X3146135Y-18061586D01*
X3146131Y-18061589D01*
X3146128Y-18061593D01*
X3146125Y-18061597D01*
X3017635Y-18231743D01*
X3017630Y-18231752D01*
X2922596Y-18422608D01*
X2864244Y-18627688D01*
X2844571Y-18840000D01*
X1000000Y-18840000D01*
X1000000Y-16300000D01*
X2844571Y-16300000D01*
X2864244Y-16512311D01*
X2867723Y-16524537D01*
X2922595Y-16717389D01*
X3017634Y-16908255D01*
X3146128Y-17078407D01*
X3146135Y-17078413D01*
X3303692Y-17222047D01*
X3303699Y-17222053D01*
X3407389Y-17286255D01*
X3484981Y-17334298D01*
X3683802Y-17411321D01*
X3893390Y-17450500D01*
X4106610Y-17450500D01*
X4316198Y-17411321D01*
X4515019Y-17334298D01*
X4696302Y-17222052D01*
X4853872Y-17078407D01*
X4982366Y-16908255D01*
X5077405Y-16717389D01*
X5135756Y-16512310D01*
X5155429Y-16300000D01*
X5135756Y-16087690D01*
X5110806Y-16000000D01*
X8794318Y-16000000D01*
X8814955Y-16156758D01*
X8814957Y-16156766D01*
X8875462Y-16302838D01*
X8875462Y-16302839D01*
X8875464Y-16302841D01*
X8971718Y-16428282D01*
X9097159Y-16524536D01*
X9243238Y-16585044D01*
X9360809Y-16600522D01*
X9399999Y-16605682D01*
X9400000Y-16605682D01*
X9400001Y-16605682D01*
X9431352Y-16601554D01*
X9556762Y-16585044D01*
X9702841Y-16524536D01*
X9828282Y-16428282D01*
X9924536Y-16302841D01*
X9985044Y-16156762D01*
X10005682Y-16000000D01*
X9985044Y-15843238D01*
X9924537Y-15697161D01*
X9924537Y-15697160D01*
X9828286Y-15571723D01*
X9828285Y-15571722D01*
X9828282Y-15571718D01*
X9828277Y-15571714D01*
X9828276Y-15571713D01*
X9702838Y-15475462D01*
X9556766Y-15414957D01*
X9556758Y-15414955D01*
X9400001Y-15394318D01*
X9399999Y-15394318D01*
X9243241Y-15414955D01*
X9243233Y-15414957D01*
X9097161Y-15475462D01*
X9097160Y-15475462D01*
X8971723Y-15571713D01*
X8971713Y-15571723D01*
X8875462Y-15697160D01*
X8875462Y-15697161D01*
X8814957Y-15843233D01*
X8814955Y-15843241D01*
X8794318Y-15999999D01*
X8794318Y-16000000D01*
X5110806Y-16000000D01*
X5077405Y-15882611D01*
X4982366Y-15691745D01*
X4853872Y-15521593D01*
X4736898Y-15414956D01*
X4696307Y-15377952D01*
X4696300Y-15377946D01*
X4570412Y-15300000D01*
X5994318Y-15300000D01*
X6014955Y-15456758D01*
X6014957Y-15456766D01*
X6075462Y-15602838D01*
X6075462Y-15602839D01*
X6147837Y-15697160D01*
X6171718Y-15728282D01*
X6297159Y-15824536D01*
X6297160Y-15824536D01*
X6297161Y-15824537D01*
X6437357Y-15882608D01*
X6443238Y-15885044D01*
X6560809Y-15900522D01*
X6599999Y-15905682D01*
X6600000Y-15905682D01*
X6600001Y-15905682D01*
X6631352Y-15901554D01*
X6756762Y-15885044D01*
X6902841Y-15824536D01*
X7028282Y-15728282D01*
X7124536Y-15602841D01*
X7185044Y-15456762D01*
X7205682Y-15300000D01*
X7185044Y-15143238D01*
X7124537Y-14997161D01*
X7124537Y-14997160D01*
X7028286Y-14871723D01*
X7028285Y-14871722D01*
X7028282Y-14871718D01*
X7028277Y-14871714D01*
X7028276Y-14871713D01*
X6927386Y-14794298D01*
X6902841Y-14775464D01*
X6902840Y-14775463D01*
X6902838Y-14775462D01*
X6756766Y-14714957D01*
X6756758Y-14714955D01*
X6600001Y-14694318D01*
X6599999Y-14694318D01*
X6443241Y-14714955D01*
X6443233Y-14714957D01*
X6297161Y-14775462D01*
X6297160Y-14775462D01*
X6171723Y-14871713D01*
X6171713Y-14871723D01*
X6075462Y-14997160D01*
X6075462Y-14997161D01*
X6014957Y-15143233D01*
X6014955Y-15143241D01*
X5994318Y-15299999D01*
X5994318Y-15300000D01*
X4570412Y-15300000D01*
X4515024Y-15265705D01*
X4515019Y-15265702D01*
X4316195Y-15188678D01*
X4106610Y-15149500D01*
X3893390Y-15149500D01*
X3683804Y-15188678D01*
X3484980Y-15265702D01*
X3484975Y-15265705D01*
X3303699Y-15377946D01*
X3303692Y-15377952D01*
X3146135Y-15521586D01*
X3146131Y-15521589D01*
X3146128Y-15521593D01*
X3146125Y-15521597D01*
X3017635Y-15691743D01*
X3017630Y-15691752D01*
X2922596Y-15882608D01*
X2864244Y-16087688D01*
X2844571Y-16300000D01*
X1000000Y-16300000D01*
X1000000Y-13760000D01*
X2844571Y-13760000D01*
X2864244Y-13972310D01*
X2922595Y-14177389D01*
X3017634Y-14368255D01*
X3146128Y-14538407D01*
X3146135Y-14538413D01*
X3303692Y-14682047D01*
X3303699Y-14682053D01*
X3356841Y-14714957D01*
X3484981Y-14794298D01*
X3683802Y-14871321D01*
X3893390Y-14910500D01*
X4106610Y-14910500D01*
X4316198Y-14871321D01*
X4515019Y-14794298D01*
X4696302Y-14682052D01*
X4853872Y-14538407D01*
X4982366Y-14368255D01*
X5077405Y-14177389D01*
X5135756Y-13972310D01*
X5155429Y-13760000D01*
X5135756Y-13547690D01*
X5077405Y-13342611D01*
X4982366Y-13151745D01*
X4853872Y-12981593D01*
X4735161Y-12873373D01*
X4696307Y-12837952D01*
X4696300Y-12837946D01*
X4515024Y-12725705D01*
X4515019Y-12725702D01*
X4316195Y-12648678D01*
X4106610Y-12609500D01*
X3893390Y-12609500D01*
X3683804Y-12648678D01*
X3484980Y-12725702D01*
X3484975Y-12725705D01*
X3303699Y-12837946D01*
X3303692Y-12837952D01*
X3146135Y-12981586D01*
X3146131Y-12981589D01*
X3146128Y-12981593D01*
X3146125Y-12981597D01*
X3017635Y-13151743D01*
X3017630Y-13151752D01*
X2922596Y-13342608D01*
X2864244Y-13547688D01*
X2864244Y-13547690D01*
X2844571Y-13760000D01*
X1000000Y-13760000D01*
X1000000Y-11220000D01*
X2844571Y-11220000D01*
X2864244Y-11432310D01*
X2922595Y-11637389D01*
X3017634Y-11828255D01*
X3146128Y-11998407D01*
X3146135Y-11998413D01*
X3303692Y-12142047D01*
X3303699Y-12142053D01*
X3407389Y-12206255D01*
X3484981Y-12254298D01*
X3683802Y-12331321D01*
X3893390Y-12370500D01*
X4106610Y-12370500D01*
X4316198Y-12331321D01*
X4515019Y-12254298D01*
X4696302Y-12142052D01*
X4853872Y-11998407D01*
X4982366Y-11828255D01*
X5077405Y-11637389D01*
X5135756Y-11432310D01*
X5155429Y-11220000D01*
X5135756Y-11007690D01*
X5077405Y-10802611D01*
X4982366Y-10611745D01*
X4853872Y-10441593D01*
X4799623Y-10392139D01*
X4696307Y-10297952D01*
X4696300Y-10297946D01*
X4515024Y-10185705D01*
X4515019Y-10185702D01*
X4316195Y-10108678D01*
X4106610Y-10069500D01*
X3893390Y-10069500D01*
X3683804Y-10108678D01*
X3484980Y-10185702D01*
X3484975Y-10185705D01*
X3303699Y-10297946D01*
X3303692Y-10297952D01*
X3146135Y-10441586D01*
X3146131Y-10441589D01*
X3146128Y-10441593D01*
X3146125Y-10441597D01*
X3017635Y-10611743D01*
X3017630Y-10611752D01*
X2922596Y-10802608D01*
X2864244Y-11007688D01*
X2864244Y-11007690D01*
X2844571Y-11220000D01*
X1000000Y-11220000D01*
X1000000Y-8680000D01*
X2844571Y-8680000D01*
X2864244Y-8892310D01*
X2922595Y-9097389D01*
X3017634Y-9288255D01*
X3146128Y-9458407D01*
X3146135Y-9458413D01*
X3303692Y-9602047D01*
X3303699Y-9602053D01*
X3407389Y-9666255D01*
X3484981Y-9714298D01*
X3683802Y-9791321D01*
X3893390Y-9830500D01*
X4106610Y-9830500D01*
X4316198Y-9791321D01*
X4515019Y-9714298D01*
X4696302Y-9602052D01*
X4853872Y-9458407D01*
X4982366Y-9288255D01*
X5077405Y-9097389D01*
X5135756Y-8892310D01*
X5155429Y-8680000D01*
X5135756Y-8467690D01*
X5077405Y-8262611D01*
X4982366Y-8071745D01*
X4853872Y-7901593D01*
X4799623Y-7852139D01*
X4696307Y-7757952D01*
X4696300Y-7757946D01*
X4515024Y-7645705D01*
X4515019Y-7645702D01*
X4316195Y-7568678D01*
X4106610Y-7529500D01*
X3893390Y-7529500D01*
X3683804Y-7568678D01*
X3484980Y-7645702D01*
X3484975Y-7645705D01*
X3303699Y-7757946D01*
X3303692Y-7757952D01*
X3146135Y-7901586D01*
X3146131Y-7901589D01*
X3146128Y-7901593D01*
X3146125Y-7901597D01*
X3017635Y-8071743D01*
X3017630Y-8071752D01*
X2922596Y-8262608D01*
X2864244Y-8467688D01*
X2864244Y-8467690D01*
X2844571Y-8680000D01*
X1000000Y-8680000D01*
X1000000Y-5940000D01*
X2913819Y-5940000D01*
X3537617Y-5940000D01*
X3500000Y-6068111D01*
X3500000Y-6211889D01*
X3537617Y-6340000D01*
X2913820Y-6340000D01*
X2914095Y-6342982D01*
X2914096Y-6342985D01*
X2969887Y-6539070D01*
X3060750Y-6721548D01*
X3060755Y-6721557D01*
X3183608Y-6884240D01*
X3334266Y-7021582D01*
X3507581Y-7128895D01*
X3507586Y-7128898D01*
X3697683Y-7202541D01*
X3799999Y-7221667D01*
X3800000Y-7221667D01*
X3800000Y-6598335D01*
X3857685Y-6624680D01*
X3964237Y-6640000D01*
X4035763Y-6640000D01*
X4142315Y-6624680D01*
X4200000Y-6598335D01*
X4200000Y-7221667D01*
X4302316Y-7202541D01*
X4492413Y-7128898D01*
X4492418Y-7128895D01*
X4665733Y-7021582D01*
X4816391Y-6884240D01*
X4939244Y-6721557D01*
X4939249Y-6721548D01*
X5030112Y-6539070D01*
X5085903Y-6342985D01*
X5085904Y-6342982D01*
X5086180Y-6340000D01*
X4462383Y-6340000D01*
X4500000Y-6211889D01*
X4500000Y-6068111D01*
X4493173Y-6044860D01*
X7499500Y-6044860D01*
X7499501Y-6044863D01*
X7502414Y-6069990D01*
X7527756Y-6127385D01*
X7547794Y-6172765D01*
X7627235Y-6252206D01*
X7730009Y-6297585D01*
X7755135Y-6300500D01*
X10844864Y-6300499D01*
X10869991Y-6297585D01*
X10972765Y-6252206D01*
X11052206Y-6172765D01*
X11097585Y-6069991D01*
X11100500Y-6044865D01*
X11100500Y-4500002D01*
X12574451Y-4500002D01*
X12594616Y-4769098D01*
X12594618Y-4769107D01*
X12654666Y-5032197D01*
X12753254Y-5283391D01*
X12753257Y-5283398D01*
X12888185Y-5517102D01*
X12888189Y-5517108D01*
X12888191Y-5517110D01*
X13056434Y-5728081D01*
X13056440Y-5728087D01*
X13254252Y-5911629D01*
X13254254Y-5911630D01*
X13254259Y-5911635D01*
X13477226Y-6063651D01*
X13720359Y-6180738D01*
X13978228Y-6260280D01*
X14245071Y-6300500D01*
X14245076Y-6300500D01*
X14514924Y-6300500D01*
X14514929Y-6300500D01*
X14781772Y-6260280D01*
X15039641Y-6180738D01*
X15282775Y-6063651D01*
X15505741Y-5911635D01*
X15654106Y-5773972D01*
X15703559Y-5728087D01*
X15703565Y-5728081D01*
X15838847Y-5558442D01*
X15871815Y-5517102D01*
X16006743Y-5283398D01*
X16105334Y-5032195D01*
X16165383Y-4769103D01*
X16185549Y-4500000D01*
X16185164Y-4494869D01*
X16165383Y-4230901D01*
X16165383Y-4230897D01*
X16105334Y-3967805D01*
X16006743Y-3716602D01*
X15871815Y-3482898D01*
X15871808Y-3482889D01*
X15703565Y-3271918D01*
X15703559Y-3271912D01*
X15505747Y-3088370D01*
X15505744Y-3088368D01*
X15505741Y-3088365D01*
X15282775Y-2936349D01*
X15269610Y-2930009D01*
X15039643Y-2819262D01*
X14781776Y-2739721D01*
X14781773Y-2739720D01*
X14781772Y-2739720D01*
X14781767Y-2739719D01*
X14781766Y-2739719D01*
X14514932Y-2699500D01*
X14514929Y-2699500D01*
X14245071Y-2699500D01*
X14245067Y-2699500D01*
X13978233Y-2739719D01*
X13978223Y-2739721D01*
X13720358Y-2819262D01*
X13477233Y-2936345D01*
X13477229Y-2936347D01*
X13477226Y-2936349D01*
X13254259Y-3088365D01*
X13254252Y-3088370D01*
X13056440Y-3271912D01*
X13056434Y-3271918D01*
X12888191Y-3482889D01*
X12888187Y-3482894D01*
X12888185Y-3482898D01*
X12822687Y-3596344D01*
X12753258Y-3716599D01*
X12753254Y-3716608D01*
X12654666Y-3967802D01*
X12594618Y-4230892D01*
X12594616Y-4230901D01*
X12574451Y-4499997D01*
X12574451Y-4500002D01*
X11100500Y-4500002D01*
X11100499Y-2955136D01*
X11097585Y-2930009D01*
X11052206Y-2827235D01*
X10972765Y-2747794D01*
X10869991Y-2702415D01*
X10869990Y-2702414D01*
X10869988Y-2702414D01*
X10844868Y-2699500D01*
X7755139Y-2699500D01*
X7755136Y-2699501D01*
X7730009Y-2702414D01*
X7627235Y-2747794D01*
X7547794Y-2827235D01*
X7502414Y-2930011D01*
X7499500Y-2955130D01*
X7499500Y-6044860D01*
X4493173Y-6044860D01*
X4462383Y-5940000D01*
X5086180Y-5940000D01*
X5085904Y-5937017D01*
X5085903Y-5937014D01*
X5030112Y-5740929D01*
X4939249Y-5558451D01*
X4939244Y-5558442D01*
X4816391Y-5395759D01*
X4665733Y-5258417D01*
X4492418Y-5151104D01*
X4492413Y-5151101D01*
X4302317Y-5077458D01*
X4200000Y-5058331D01*
X4200000Y-5681664D01*
X4142315Y-5655320D01*
X4035763Y-5640000D01*
X3964237Y-5640000D01*
X3857685Y-5655320D01*
X3800000Y-5681664D01*
X3800000Y-5058332D01*
X3799999Y-5058331D01*
X3697682Y-5077458D01*
X3507586Y-5151101D01*
X3507581Y-5151104D01*
X3334266Y-5258417D01*
X3183608Y-5395759D01*
X3060755Y-5558442D01*
X3060750Y-5558451D01*
X2969887Y-5740929D01*
X2914096Y-5937014D01*
X2914095Y-5937017D01*
X2913819Y-5940000D01*
X1000000Y-5940000D01*
X1000000Y-4494860D01*
X2849500Y-4494860D01*
X2849501Y-4494863D01*
X2852414Y-4519990D01*
X2877756Y-4577385D01*
X2897794Y-4622765D01*
X2977235Y-4702206D01*
X3080009Y-4747585D01*
X3105135Y-4750500D01*
X4894864Y-4750499D01*
X4919991Y-4747585D01*
X5022765Y-4702206D01*
X5102206Y-4622765D01*
X5147585Y-4519991D01*
X5150500Y-4494865D01*
X5150499Y-2705136D01*
X5147585Y-2680009D01*
X5102206Y-2577235D01*
X5022765Y-2497794D01*
X4919991Y-2452415D01*
X4919990Y-2452414D01*
X4919988Y-2452414D01*
X4894868Y-2449500D01*
X3105139Y-2449500D01*
X3105136Y-2449501D01*
X3080009Y-2452414D01*
X2977235Y-2497794D01*
X2897794Y-2577235D01*
X2852414Y-2680011D01*
X2849500Y-2705130D01*
X2849500Y-4494860D01*
X1000000Y-4494860D01*
X1000000Y-2099000D01*
X1018907Y-2040809D01*
X1068407Y-2004845D01*
X1099000Y-2000000D01*
X21401000Y-2000000D01*
X21459191Y-2018907D01*
G37*
%TD.AperFunction*%
%TD*%
%TA.AperFunction,Conductor*%
%TO.N,GND*%
G36*
X10664894Y-34323624D02*
G01*
X10816932Y-34468592D01*
X10876176Y-34506665D01*
X10127668Y-35255174D01*
X10127667Y-35255174D01*
X10212517Y-35324205D01*
X10245724Y-35375595D01*
X10242382Y-35436689D01*
X10203769Y-35484151D01*
X10150039Y-35500000D01*
X599000Y-35500000D01*
X540809Y-35481093D01*
X504845Y-35431593D01*
X500000Y-35401000D01*
X500000Y-34449355D01*
X518907Y-34391164D01*
X568407Y-34355200D01*
X629593Y-34355200D01*
X679093Y-34391164D01*
X697694Y-34441586D01*
X698261Y-34448786D01*
X701398Y-34468592D01*
X703106Y-34479380D01*
X703106Y-34479385D01*
X709512Y-34509752D01*
X709514Y-34509757D01*
X757689Y-34611158D01*
X757695Y-34611168D01*
X793185Y-34660016D01*
X793655Y-34660662D01*
X836876Y-34706348D01*
X847824Y-34717920D01*
X946401Y-34771639D01*
X946403Y-34771640D01*
X1004596Y-34790548D01*
X1004593Y-34790548D01*
X1098997Y-34805500D01*
X1099000Y-34805500D01*
X9343684Y-34805500D01*
X9344621Y-34805496D01*
X9345416Y-34805494D01*
X9346712Y-34805486D01*
X9443027Y-34789279D01*
X9500966Y-34769611D01*
X9568425Y-34736471D01*
X9628990Y-34727785D01*
X9683095Y-34756356D01*
X9692956Y-34768238D01*
X9828318Y-34960002D01*
X9828331Y-34960017D01*
X9842242Y-34974912D01*
X10593620Y-34223534D01*
X10664894Y-34323624D01*
G37*
%TD.AperFunction*%
%TA.AperFunction,Conductor*%
G36*
X33129581Y-28306348D02*
G01*
X33164089Y-28310891D01*
X33189041Y-28317575D01*
X33236735Y-28337330D01*
X33259112Y-28350251D01*
X33300052Y-28381665D01*
X33318326Y-28399939D01*
X33349744Y-28440883D01*
X33362667Y-28463264D01*
X33382420Y-28510950D01*
X33389109Y-28535916D01*
X33394230Y-28574818D01*
X33394231Y-28593510D01*
X33394318Y-28593510D01*
X33394318Y-28606483D01*
X33394231Y-28606483D01*
X33394230Y-28625176D01*
X33389108Y-28664086D01*
X33382419Y-28689049D01*
X33382417Y-28689056D01*
X33362670Y-28736729D01*
X33349749Y-28759108D01*
X33318331Y-28800054D01*
X33300054Y-28818331D01*
X33259108Y-28849749D01*
X33236729Y-28862669D01*
X33189053Y-28882418D01*
X33164088Y-28889108D01*
X33112921Y-28895844D01*
X33087077Y-28895844D01*
X33035910Y-28889108D01*
X33010951Y-28882420D01*
X32963265Y-28862668D01*
X32940889Y-28849749D01*
X32899943Y-28818330D01*
X32881668Y-28800055D01*
X32850247Y-28759106D01*
X32837327Y-28736729D01*
X32817576Y-28689047D01*
X32810892Y-28664094D01*
X32804155Y-28612919D01*
X32804155Y-28587080D01*
X32805769Y-28574818D01*
X32810891Y-28535906D01*
X32817575Y-28510958D01*
X32837332Y-28463259D01*
X32850250Y-28440886D01*
X32881667Y-28399942D01*
X32899937Y-28381673D01*
X32899948Y-28381665D01*
X32940890Y-28350248D01*
X32963264Y-28337328D01*
X33010952Y-28317576D01*
X33035899Y-28310892D01*
X33087077Y-28304155D01*
X33112916Y-28304155D01*
X33129581Y-28306348D01*
G37*
%TD.AperFunction*%
%TA.AperFunction,Conductor*%
G36*
X37229581Y-28306348D02*
G01*
X37264089Y-28310891D01*
X37289041Y-28317575D01*
X37336735Y-28337330D01*
X37359112Y-28350251D01*
X37400052Y-28381665D01*
X37418326Y-28399939D01*
X37449744Y-28440883D01*
X37462667Y-28463264D01*
X37482420Y-28510950D01*
X37489109Y-28535916D01*
X37495844Y-28587077D01*
X37495844Y-28612919D01*
X37489108Y-28664087D01*
X37482418Y-28689053D01*
X37462669Y-28736729D01*
X37449749Y-28759108D01*
X37418331Y-28800054D01*
X37400054Y-28818331D01*
X37359108Y-28849749D01*
X37336729Y-28862669D01*
X37289053Y-28882418D01*
X37264088Y-28889108D01*
X37212921Y-28895844D01*
X37187077Y-28895844D01*
X37135910Y-28889108D01*
X37110951Y-28882420D01*
X37063265Y-28862668D01*
X37040889Y-28849749D01*
X36999943Y-28818330D01*
X36981668Y-28800055D01*
X36950247Y-28759106D01*
X36937327Y-28736729D01*
X36917576Y-28689047D01*
X36910892Y-28664094D01*
X36904155Y-28612919D01*
X36904155Y-28587080D01*
X36905769Y-28574818D01*
X36910891Y-28535906D01*
X36917575Y-28510958D01*
X36937332Y-28463259D01*
X36950250Y-28440886D01*
X36981667Y-28399942D01*
X36999937Y-28381673D01*
X36999948Y-28381665D01*
X37040890Y-28350248D01*
X37063264Y-28337328D01*
X37110952Y-28317576D01*
X37135899Y-28310892D01*
X37187077Y-28304155D01*
X37212916Y-28304155D01*
X37229581Y-28306348D01*
G37*
%TD.AperFunction*%
%TA.AperFunction,Conductor*%
G36*
X30129581Y-11306348D02*
G01*
X30164089Y-11310891D01*
X30189041Y-11317575D01*
X30236735Y-11337330D01*
X30259112Y-11350251D01*
X30300052Y-11381665D01*
X30318326Y-11399939D01*
X30349745Y-11440884D01*
X30362668Y-11463266D01*
X30377884Y-11500000D01*
X30377884Y-11500001D01*
X30382420Y-11510952D01*
X30389111Y-11535933D01*
X30389630Y-11539874D01*
X30389630Y-11539875D01*
X30394518Y-11577011D01*
X30395844Y-11587079D01*
X30395844Y-11612922D01*
X30389108Y-11664087D01*
X30382419Y-11689052D01*
X30362670Y-11736729D01*
X30349749Y-11759108D01*
X30318331Y-11800054D01*
X30300054Y-11818331D01*
X30259108Y-11849749D01*
X30236729Y-11862669D01*
X30189053Y-11882418D01*
X30164088Y-11889108D01*
X30112921Y-11895844D01*
X30087077Y-11895844D01*
X30035910Y-11889108D01*
X30010952Y-11882421D01*
X29963264Y-11862667D01*
X29940888Y-11849749D01*
X29899938Y-11818327D01*
X29881668Y-11800056D01*
X29850247Y-11759107D01*
X29837325Y-11736727D01*
X29817579Y-11689052D01*
X29810892Y-11664094D01*
X29804155Y-11612921D01*
X29804155Y-11587080D01*
X29805481Y-11577009D01*
X29810891Y-11535906D01*
X29817575Y-11510958D01*
X29837332Y-11463259D01*
X29850250Y-11440886D01*
X29854064Y-11435916D01*
X29881667Y-11399942D01*
X29899937Y-11381673D01*
X29899948Y-11381665D01*
X29923926Y-11363265D01*
X29940890Y-11350248D01*
X29963264Y-11337328D01*
X30010952Y-11317576D01*
X30035899Y-11310892D01*
X30087077Y-11304155D01*
X30112916Y-11304155D01*
X30129581Y-11306348D01*
G37*
%TD.AperFunction*%
%TA.AperFunction,Conductor*%
G36*
X35729581Y-11206348D02*
G01*
X35764089Y-11210891D01*
X35789041Y-11217575D01*
X35836735Y-11237330D01*
X35859110Y-11250249D01*
X35875602Y-11262904D01*
X35910259Y-11313327D01*
X35913490Y-11354369D01*
X35894318Y-11499999D01*
X35894318Y-11500000D01*
X35913490Y-11645628D01*
X35902340Y-11705789D01*
X35875601Y-11737094D01*
X35859106Y-11749750D01*
X35836729Y-11762669D01*
X35789053Y-11782418D01*
X35764088Y-11789108D01*
X35712921Y-11795844D01*
X35687076Y-11795844D01*
X35635909Y-11789107D01*
X35610948Y-11782419D01*
X35563270Y-11762671D01*
X35540887Y-11749748D01*
X35499942Y-11718330D01*
X35481670Y-11700059D01*
X35450248Y-11659109D01*
X35437329Y-11636732D01*
X35437328Y-11636729D01*
X35417577Y-11589048D01*
X35410891Y-11564093D01*
X35404154Y-11512913D01*
X35404154Y-11487086D01*
X35410892Y-11435902D01*
X35417575Y-11410958D01*
X35437332Y-11363259D01*
X35450250Y-11340886D01*
X35481667Y-11299942D01*
X35499937Y-11281673D01*
X35499948Y-11281665D01*
X35540886Y-11250251D01*
X35540890Y-11250248D01*
X35563264Y-11237328D01*
X35610952Y-11217576D01*
X35635899Y-11210892D01*
X35687077Y-11204155D01*
X35712916Y-11204155D01*
X35729581Y-11206348D01*
G37*
%TD.AperFunction*%
%TA.AperFunction,Conductor*%
G36*
X40129581Y-11206348D02*
G01*
X40164089Y-11210891D01*
X40189041Y-11217575D01*
X40236735Y-11237330D01*
X40259112Y-11250251D01*
X40300052Y-11281665D01*
X40318326Y-11299939D01*
X40349744Y-11340883D01*
X40362667Y-11363264D01*
X40382420Y-11410950D01*
X40389109Y-11435916D01*
X40395844Y-11487077D01*
X40395844Y-11512919D01*
X40389108Y-11564087D01*
X40382418Y-11589053D01*
X40362669Y-11636729D01*
X40349749Y-11659108D01*
X40318331Y-11700054D01*
X40300054Y-11718331D01*
X40259108Y-11749749D01*
X40236729Y-11762669D01*
X40189053Y-11782418D01*
X40164088Y-11789108D01*
X40112921Y-11795844D01*
X40087076Y-11795844D01*
X40035909Y-11789107D01*
X40010948Y-11782419D01*
X39963270Y-11762671D01*
X39940887Y-11749748D01*
X39899942Y-11718330D01*
X39881670Y-11700059D01*
X39850248Y-11659109D01*
X39837329Y-11636732D01*
X39837328Y-11636729D01*
X39817577Y-11589048D01*
X39810891Y-11564093D01*
X39804154Y-11512913D01*
X39804154Y-11487086D01*
X39810892Y-11435902D01*
X39817575Y-11410958D01*
X39837332Y-11363259D01*
X39850250Y-11340886D01*
X39881667Y-11299942D01*
X39899937Y-11281673D01*
X39899948Y-11281665D01*
X39940886Y-11250251D01*
X39940890Y-11250248D01*
X39963264Y-11237328D01*
X40010952Y-11217576D01*
X40035899Y-11210892D01*
X40087077Y-11204155D01*
X40112916Y-11204155D01*
X40129581Y-11206348D01*
G37*
%TD.AperFunction*%
%TA.AperFunction,Conductor*%
G36*
X36379581Y-7356348D02*
G01*
X36414089Y-7360891D01*
X36439041Y-7367575D01*
X36486735Y-7387330D01*
X36509112Y-7400251D01*
X36550052Y-7431665D01*
X36568326Y-7449939D01*
X36599744Y-7490883D01*
X36612667Y-7513264D01*
X36632420Y-7560950D01*
X36639109Y-7585916D01*
X36645844Y-7637077D01*
X36645844Y-7662920D01*
X36639108Y-7714086D01*
X36632419Y-7739050D01*
X36612544Y-7787032D01*
X36600417Y-7808362D01*
X36599061Y-7810177D01*
X36596007Y-7814383D01*
X36595995Y-7814402D01*
X36550265Y-7907149D01*
X36550259Y-7907166D01*
X36532884Y-7965824D01*
X36520435Y-8043650D01*
X36520434Y-8043652D01*
X36537826Y-8154572D01*
X36558247Y-8212238D01*
X36558248Y-8212241D01*
X36558249Y-8212242D01*
X36603858Y-8296243D01*
X36603859Y-8296244D01*
X36605714Y-8299660D01*
X36605655Y-8299691D01*
X36612196Y-8312126D01*
X36632420Y-8360951D01*
X36639108Y-8385910D01*
X36645844Y-8437077D01*
X36645844Y-8462921D01*
X36639108Y-8514088D01*
X36632418Y-8539053D01*
X36612669Y-8586729D01*
X36599749Y-8609108D01*
X36568331Y-8650054D01*
X36550054Y-8668331D01*
X36509108Y-8699749D01*
X36486729Y-8712669D01*
X36439053Y-8732418D01*
X36414088Y-8739108D01*
X36362921Y-8745844D01*
X36337077Y-8745844D01*
X36285910Y-8739108D01*
X36260945Y-8732418D01*
X36213269Y-8712669D01*
X36190889Y-8699748D01*
X36149941Y-8668328D01*
X36131667Y-8650054D01*
X36100252Y-8609114D01*
X36087329Y-8586732D01*
X36087328Y-8586729D01*
X36067577Y-8539048D01*
X36060891Y-8514088D01*
X36054155Y-8462920D01*
X36054155Y-8437078D01*
X36060891Y-8385911D01*
X36067580Y-8360948D01*
X36087452Y-8312972D01*
X36099600Y-8291612D01*
X36099960Y-8291128D01*
X36100917Y-8289848D01*
X36103963Y-8285656D01*
X36149737Y-8192843D01*
X36167115Y-8134177D01*
X36179565Y-8056347D01*
X36162173Y-7945432D01*
X36141749Y-7887756D01*
X36096143Y-7803758D01*
X36096142Y-7803757D01*
X36094287Y-7800340D01*
X36094345Y-7800308D01*
X36087801Y-7787869D01*
X36067579Y-7739047D01*
X36060893Y-7714094D01*
X36054155Y-7662918D01*
X36054155Y-7637076D01*
X36060891Y-7585904D01*
X36067575Y-7560958D01*
X36087332Y-7513259D01*
X36100250Y-7490886D01*
X36131667Y-7449942D01*
X36149937Y-7431673D01*
X36149948Y-7431665D01*
X36190890Y-7400248D01*
X36213264Y-7387328D01*
X36260952Y-7367576D01*
X36285899Y-7360892D01*
X36337077Y-7354155D01*
X36362916Y-7354155D01*
X36379581Y-7356348D01*
G37*
%TD.AperFunction*%
%TA.AperFunction,Conductor*%
G36*
X49459191Y-518907D02*
G01*
X49495155Y-568407D01*
X49500000Y-599000D01*
X49500000Y-32495800D01*
X49481093Y-32553991D01*
X49431593Y-32589955D01*
X49370407Y-32589955D01*
X49320907Y-32553991D01*
X49307716Y-32528953D01*
X49276611Y-32441433D01*
X49141293Y-32180282D01*
X48971681Y-31939996D01*
X48971668Y-31939981D01*
X48957756Y-31925085D01*
X48206378Y-32676462D01*
X48135106Y-32576375D01*
X47983068Y-32431407D01*
X47923821Y-32393331D01*
X48672330Y-31644823D01*
X48672331Y-31644823D01*
X48542769Y-31539416D01*
X48542751Y-31539403D01*
X48291455Y-31386587D01*
X48291448Y-31386583D01*
X48021676Y-31269405D01*
X47738456Y-31190050D01*
X47738447Y-31190048D01*
X47447063Y-31149999D01*
X47152936Y-31149999D01*
X46861552Y-31190048D01*
X46861543Y-31190050D01*
X46578323Y-31269405D01*
X46308551Y-31386583D01*
X46308544Y-31386587D01*
X46057246Y-31539405D01*
X46057230Y-31539416D01*
X45927668Y-31644823D01*
X46674973Y-32392128D01*
X46537460Y-32500270D01*
X46399890Y-32659034D01*
X46391215Y-32674058D01*
X45642242Y-31925085D01*
X45628320Y-31939993D01*
X45458706Y-32180282D01*
X45323388Y-32441433D01*
X45224889Y-32718582D01*
X45165049Y-33006551D01*
X45165047Y-33006560D01*
X45144976Y-33299995D01*
X45144976Y-33300002D01*
X45165047Y-33593437D01*
X45165049Y-33593446D01*
X45224889Y-33881415D01*
X45323388Y-34158564D01*
X45458706Y-34419715D01*
X45628318Y-34660001D01*
X45628331Y-34660016D01*
X45642242Y-34674911D01*
X46393619Y-33923533D01*
X46464894Y-34023623D01*
X46616932Y-34168591D01*
X46676176Y-34206664D01*
X45927668Y-34955173D01*
X45927667Y-34955173D01*
X46057230Y-35060581D01*
X46057248Y-35060594D01*
X46308544Y-35213410D01*
X46308551Y-35213414D01*
X46531366Y-35310196D01*
X46577206Y-35350721D01*
X46590472Y-35410451D01*
X46566096Y-35466571D01*
X46513388Y-35497645D01*
X46491924Y-35500000D01*
X12849960Y-35500000D01*
X12791769Y-35481093D01*
X12755805Y-35431593D01*
X12755805Y-35370407D01*
X12787481Y-35324205D01*
X12872329Y-35255173D01*
X12125026Y-34507870D01*
X12262540Y-34399729D01*
X12400110Y-34240965D01*
X12408784Y-34225940D01*
X13157756Y-34974912D01*
X13171678Y-34960005D01*
X13309149Y-34765255D01*
X13358153Y-34728618D01*
X13419333Y-34727782D01*
X13437397Y-34735414D01*
X13503876Y-34771641D01*
X13543159Y-34784404D01*
X13562066Y-34790548D01*
X13562063Y-34790548D01*
X13656467Y-34805500D01*
X13656470Y-34805500D01*
X26400993Y-34805500D01*
X26401000Y-34805500D01*
X26448786Y-34801739D01*
X26479379Y-34796894D01*
X26479384Y-34796893D01*
X26479385Y-34796893D01*
X26491116Y-34794418D01*
X26509754Y-34790487D01*
X26611162Y-34742309D01*
X26660662Y-34706345D01*
X26717919Y-34652177D01*
X26771641Y-34553594D01*
X26790548Y-34495403D01*
X26793086Y-34479379D01*
X26805500Y-34401003D01*
X26805500Y-34172007D01*
X26824407Y-34113816D01*
X26873907Y-34077852D01*
X26922691Y-34074693D01*
X26959999Y-34081667D01*
X26960000Y-34081667D01*
X26960000Y-33458335D01*
X27017685Y-33484680D01*
X27124237Y-33500000D01*
X27195763Y-33500000D01*
X27302315Y-33484680D01*
X27360000Y-33458335D01*
X27360000Y-34081667D01*
X27462316Y-34062541D01*
X27652413Y-33988898D01*
X27652418Y-33988895D01*
X27825733Y-33881582D01*
X27976391Y-33744240D01*
X28099244Y-33581557D01*
X28099249Y-33581548D01*
X28190112Y-33399070D01*
X28245903Y-33202985D01*
X28245904Y-33202982D01*
X28246180Y-33200000D01*
X27622383Y-33200000D01*
X27660000Y-33071889D01*
X27660000Y-32928111D01*
X27622383Y-32800000D01*
X28246180Y-32800000D01*
X28245904Y-32797017D01*
X28245903Y-32797014D01*
X28190112Y-32600929D01*
X28099249Y-32418451D01*
X28099244Y-32418442D01*
X27976391Y-32255759D01*
X27825733Y-32118417D01*
X27652418Y-32011104D01*
X27652413Y-32011101D01*
X27462317Y-31937458D01*
X27360000Y-31918331D01*
X27360000Y-32541664D01*
X27302315Y-32515320D01*
X27195763Y-32500000D01*
X27124237Y-32500000D01*
X27017685Y-32515320D01*
X26960000Y-32541664D01*
X26960000Y-31918332D01*
X26959999Y-31918331D01*
X26922692Y-31925306D01*
X26862017Y-31917414D01*
X26817570Y-31875365D01*
X26805500Y-31827992D01*
X26805500Y-29401000D01*
X27194500Y-29401000D01*
X27198261Y-29448786D01*
X27201983Y-29472289D01*
X27203106Y-29479380D01*
X27203106Y-29479385D01*
X27209512Y-29509752D01*
X27209514Y-29509757D01*
X27257689Y-29611158D01*
X27257695Y-29611168D01*
X27287488Y-29652175D01*
X27293655Y-29660662D01*
X27336876Y-29706348D01*
X27347824Y-29717920D01*
X27446401Y-29771639D01*
X27446403Y-29771640D01*
X27504596Y-29790548D01*
X27504593Y-29790548D01*
X27598997Y-29805500D01*
X27599000Y-29805500D01*
X48400993Y-29805500D01*
X48401000Y-29805500D01*
X48448786Y-29801739D01*
X48479379Y-29796894D01*
X48479384Y-29796893D01*
X48479385Y-29796893D01*
X48491116Y-29794418D01*
X48509754Y-29790487D01*
X48611162Y-29742309D01*
X48660662Y-29706345D01*
X48717919Y-29652177D01*
X48771641Y-29553594D01*
X48785886Y-29509752D01*
X48790548Y-29495404D01*
X48805500Y-29401003D01*
X48805500Y-5995572D01*
X48805499Y-5995566D01*
X48805432Y-5995000D01*
X48797060Y-5924256D01*
X48786270Y-5879311D01*
X48768680Y-5827228D01*
X48721040Y-5757683D01*
X48705235Y-5734610D01*
X48705233Y-5734608D01*
X48705231Y-5734605D01*
X48661966Y-5691340D01*
X48661961Y-5691336D01*
X48661958Y-5691333D01*
X48599508Y-5643261D01*
X48541077Y-5622469D01*
X48493733Y-5605622D01*
X48493731Y-5605621D01*
X48493726Y-5605620D01*
X48445127Y-5597924D01*
X48391207Y-5570451D01*
X48373807Y-5586913D01*
X48359296Y-5592458D01*
X48246819Y-5625586D01*
X48192308Y-5653361D01*
X48192302Y-5653364D01*
X48178636Y-5663289D01*
X48166768Y-5667141D01*
X48059111Y-5749748D01*
X48036731Y-5762669D01*
X47989047Y-5782420D01*
X47964088Y-5789108D01*
X47912921Y-5795844D01*
X47887077Y-5795844D01*
X47835910Y-5789108D01*
X47810951Y-5782420D01*
X47762965Y-5762544D01*
X47741623Y-5750408D01*
X47739804Y-5749050D01*
X47735645Y-5746028D01*
X47735638Y-5746024D01*
X47735639Y-5746024D01*
X47735637Y-5746023D01*
X47642838Y-5700261D01*
X47642146Y-5700056D01*
X47584170Y-5682883D01*
X47506350Y-5670435D01*
X47506349Y-5670434D01*
X47395435Y-5687825D01*
X47395431Y-5687826D01*
X47337755Y-5708250D01*
X47250336Y-5755715D01*
X47250304Y-5755657D01*
X47237869Y-5762198D01*
X47224107Y-5767898D01*
X47189048Y-5782420D01*
X47164088Y-5789108D01*
X47112921Y-5795844D01*
X47087077Y-5795844D01*
X47035910Y-5789108D01*
X47010952Y-5782421D01*
X46963264Y-5762667D01*
X46940890Y-5749750D01*
X46899938Y-5718327D01*
X46881668Y-5700056D01*
X46850247Y-5659107D01*
X46837325Y-5636727D01*
X46817579Y-5589053D01*
X46810892Y-5564094D01*
X46804155Y-5512921D01*
X46804155Y-5487080D01*
X46805346Y-5478030D01*
X46810891Y-5435906D01*
X46817575Y-5410958D01*
X46837332Y-5363259D01*
X46850250Y-5340886D01*
X46854832Y-5334915D01*
X46881667Y-5299942D01*
X46899937Y-5281673D01*
X46940890Y-5250248D01*
X46963264Y-5237328D01*
X47010952Y-5217576D01*
X47035899Y-5210892D01*
X47087077Y-5204155D01*
X47112917Y-5204155D01*
X47124593Y-5205692D01*
X47164085Y-5210890D01*
X47189044Y-5217577D01*
X47237039Y-5237458D01*
X47258379Y-5249593D01*
X47260152Y-5250917D01*
X47264344Y-5253963D01*
X47357157Y-5299737D01*
X47415820Y-5317114D01*
X47415821Y-5317114D01*
X47415823Y-5317115D01*
X47493653Y-5329565D01*
X47604568Y-5312173D01*
X47662244Y-5291749D01*
X47746245Y-5246140D01*
X47746245Y-5246139D01*
X47749665Y-5244283D01*
X47749697Y-5244342D01*
X47762116Y-5237806D01*
X47810957Y-5217576D01*
X47835902Y-5210892D01*
X47887078Y-5204155D01*
X47912919Y-5204155D01*
X47964091Y-5210891D01*
X47989041Y-5217575D01*
X48036735Y-5237330D01*
X48059112Y-5250251D01*
X48163387Y-5330264D01*
X48163706Y-5330323D01*
X48168831Y-5333483D01*
X48168888Y-5333391D01*
X48171366Y-5334909D01*
X48171373Y-5334915D01*
X48210784Y-5359066D01*
X48260048Y-5383454D01*
X48349516Y-5400178D01*
X48399943Y-5427658D01*
X48415667Y-5411934D01*
X48447841Y-5401970D01*
X48509754Y-5393916D01*
X48611162Y-5345738D01*
X48660662Y-5309774D01*
X48717919Y-5255606D01*
X48771641Y-5157023D01*
X48790548Y-5098832D01*
X48805500Y-5004429D01*
X48805500Y-1299000D01*
X48801739Y-1251214D01*
X48796894Y-1220621D01*
X48790487Y-1190246D01*
X48742309Y-1088838D01*
X48742304Y-1088831D01*
X48706348Y-1039342D01*
X48706347Y-1039341D01*
X48706345Y-1039338D01*
X48652177Y-982081D01*
X48652176Y-982080D01*
X48652175Y-982079D01*
X48553598Y-928360D01*
X48553596Y-928359D01*
X48495403Y-909451D01*
X48495406Y-909451D01*
X48401003Y-894500D01*
X48401000Y-894500D01*
X27599000Y-894500D01*
X27551214Y-898261D01*
X27534800Y-900860D01*
X27520619Y-903106D01*
X27520614Y-903106D01*
X27490247Y-909512D01*
X27490242Y-909514D01*
X27388841Y-957689D01*
X27388831Y-957695D01*
X27339342Y-993651D01*
X27282079Y-1047824D01*
X27228360Y-1146401D01*
X27228359Y-1146403D01*
X27209451Y-1204595D01*
X27194500Y-1298996D01*
X27194500Y-1299000D01*
X27194500Y-8450000D01*
X27194500Y-10505000D01*
X27194500Y-11600000D01*
X27194500Y-17080000D01*
X27194500Y-22160000D01*
X27194500Y-27240000D01*
X27194500Y-28600000D01*
X27194500Y-29401000D01*
X26805500Y-29401000D01*
X26805500Y-22699006D01*
X26805500Y-22699000D01*
X26801739Y-22651214D01*
X26796894Y-22620621D01*
X26790487Y-22590246D01*
X26742309Y-22488838D01*
X26706345Y-22439338D01*
X26652177Y-22382081D01*
X26652176Y-22382080D01*
X26652175Y-22382079D01*
X26553598Y-22328360D01*
X26553596Y-22328359D01*
X26495403Y-22309451D01*
X26495406Y-22309451D01*
X26401003Y-22294500D01*
X26401000Y-22294500D01*
X24341144Y-22294500D01*
X24271951Y-22302439D01*
X24271950Y-22302439D01*
X24271943Y-22302440D01*
X24228271Y-22312596D01*
X24228261Y-22312598D01*
X24178076Y-22328950D01*
X24178075Y-22328951D01*
X24116252Y-22370014D01*
X24057318Y-22386460D01*
X24007955Y-22370831D01*
X23960057Y-22340049D01*
X23960054Y-22340047D01*
X23960053Y-22340047D01*
X23960050Y-22340046D01*
X23821964Y-22299500D01*
X23821961Y-22299500D01*
X23678039Y-22299500D01*
X23678035Y-22299500D01*
X23539948Y-22340046D01*
X23494306Y-22369378D01*
X23435130Y-22384931D01*
X23393412Y-22373023D01*
X23311454Y-22328360D01*
X23311452Y-22328359D01*
X23253259Y-22309451D01*
X23253262Y-22309451D01*
X23158859Y-22294500D01*
X23158856Y-22294500D01*
X21904500Y-22294500D01*
X21846309Y-22275593D01*
X21810345Y-22226093D01*
X21805500Y-22195500D01*
X21805500Y-21417027D01*
X23365814Y-21417027D01*
X23478107Y-21449999D01*
X23478113Y-21450000D01*
X23621888Y-21450000D01*
X23621890Y-21449999D01*
X23734180Y-21417027D01*
X24815814Y-21417027D01*
X24928107Y-21449999D01*
X24928113Y-21450000D01*
X25071888Y-21450000D01*
X25071890Y-21449999D01*
X25184180Y-21417027D01*
X26265814Y-21417027D01*
X26378107Y-21449999D01*
X26378113Y-21450000D01*
X26521888Y-21450000D01*
X26521890Y-21449999D01*
X26634183Y-21417026D01*
X26447229Y-21230072D01*
X26434899Y-21238310D01*
X26431093Y-21250025D01*
X26421004Y-21261838D01*
X26265814Y-21417027D01*
X25184180Y-21417027D01*
X25184183Y-21417026D01*
X24997229Y-21230072D01*
X24984899Y-21238310D01*
X24981093Y-21250025D01*
X24971004Y-21261838D01*
X24815814Y-21417027D01*
X23734180Y-21417027D01*
X23734183Y-21417026D01*
X23547229Y-21230072D01*
X23534899Y-21238310D01*
X23531093Y-21250025D01*
X23521004Y-21261838D01*
X23365814Y-21417027D01*
X21805500Y-21417027D01*
X21805500Y-21202598D01*
X21805499Y-21202588D01*
X21799415Y-21141925D01*
X21791606Y-21103386D01*
X21779749Y-21060902D01*
X21723068Y-20963990D01*
X21710945Y-20950000D01*
X23044858Y-20950000D01*
X23065319Y-21092313D01*
X23083981Y-21133176D01*
X23234664Y-20982492D01*
X23450000Y-20982492D01*
X23488197Y-21035065D01*
X23534162Y-21050000D01*
X23565838Y-21050000D01*
X23611803Y-21035065D01*
X23650000Y-20982492D01*
X23650000Y-20947229D01*
X23830072Y-20947229D01*
X24016017Y-21133174D01*
X24034680Y-21092312D01*
X24034681Y-21092307D01*
X24055142Y-20950000D01*
X24494858Y-20950000D01*
X24515319Y-21092313D01*
X24533981Y-21133176D01*
X24684664Y-20982492D01*
X24900000Y-20982492D01*
X24938197Y-21035065D01*
X24984162Y-21050000D01*
X25015838Y-21050000D01*
X25061803Y-21035065D01*
X25100000Y-20982492D01*
X25100000Y-20947229D01*
X25280072Y-20947229D01*
X25466017Y-21133174D01*
X25484680Y-21092312D01*
X25484681Y-21092307D01*
X25505142Y-20950000D01*
X25944858Y-20950000D01*
X25965319Y-21092313D01*
X25983981Y-21133176D01*
X26134664Y-20982492D01*
X26350000Y-20982492D01*
X26388197Y-21035065D01*
X26434162Y-21050000D01*
X26465838Y-21050000D01*
X26511803Y-21035065D01*
X26550000Y-20982492D01*
X26550000Y-20947229D01*
X26730072Y-20947229D01*
X26916017Y-21133174D01*
X26934680Y-21092312D01*
X26934681Y-21092307D01*
X26955142Y-20950000D01*
X26955142Y-20949997D01*
X26934681Y-20807689D01*
X26916017Y-20766824D01*
X26761838Y-20921004D01*
X26740243Y-20932006D01*
X26730072Y-20947229D01*
X26550000Y-20947229D01*
X26550000Y-20917508D01*
X26511803Y-20864935D01*
X26465838Y-20850000D01*
X26434162Y-20850000D01*
X26388197Y-20864935D01*
X26350000Y-20917508D01*
X26350000Y-20982492D01*
X26134664Y-20982492D01*
X26167156Y-20950000D01*
X26167156Y-20949999D01*
X25983981Y-20766824D01*
X25965319Y-20807687D01*
X25965318Y-20807690D01*
X25944858Y-20949997D01*
X25944858Y-20950000D01*
X25505142Y-20950000D01*
X25505142Y-20949997D01*
X25484681Y-20807689D01*
X25466017Y-20766824D01*
X25311838Y-20921004D01*
X25290243Y-20932006D01*
X25280072Y-20947229D01*
X25100000Y-20947229D01*
X25100000Y-20917508D01*
X25061803Y-20864935D01*
X25015838Y-20850000D01*
X24984162Y-20850000D01*
X24938197Y-20864935D01*
X24900000Y-20917508D01*
X24900000Y-20982492D01*
X24684664Y-20982492D01*
X24717156Y-20950000D01*
X24717156Y-20949999D01*
X24533981Y-20766824D01*
X24515319Y-20807687D01*
X24515318Y-20807690D01*
X24494858Y-20949997D01*
X24494858Y-20950000D01*
X24055142Y-20950000D01*
X24055142Y-20949997D01*
X24034681Y-20807689D01*
X24016017Y-20766824D01*
X23861838Y-20921004D01*
X23840243Y-20932006D01*
X23830072Y-20947229D01*
X23650000Y-20947229D01*
X23650000Y-20917508D01*
X23611803Y-20864935D01*
X23565838Y-20850000D01*
X23534162Y-20850000D01*
X23488197Y-20864935D01*
X23450000Y-20917508D01*
X23450000Y-20982492D01*
X23234664Y-20982492D01*
X23267156Y-20950000D01*
X23267156Y-20949999D01*
X23083981Y-20766824D01*
X23065319Y-20807687D01*
X23065318Y-20807690D01*
X23044858Y-20949997D01*
X23044858Y-20950000D01*
X21710945Y-20950000D01*
X21708544Y-20947229D01*
X21683000Y-20917751D01*
X21672271Y-20908199D01*
X21641382Y-20855383D01*
X21647437Y-20794498D01*
X21688123Y-20748800D01*
X21710204Y-20739270D01*
X21810053Y-20709953D01*
X21931128Y-20632143D01*
X22025377Y-20523373D01*
X22043828Y-20482971D01*
X23365814Y-20482971D01*
X23549999Y-20667156D01*
X23734184Y-20482971D01*
X24815814Y-20482971D01*
X24999999Y-20667156D01*
X25184184Y-20482971D01*
X26265814Y-20482971D01*
X26449999Y-20667156D01*
X26634184Y-20482971D01*
X26521891Y-20450000D01*
X26378107Y-20450000D01*
X26265814Y-20482971D01*
X25184184Y-20482971D01*
X25071891Y-20450000D01*
X24928107Y-20450000D01*
X24815814Y-20482971D01*
X23734184Y-20482971D01*
X23621891Y-20450000D01*
X23478107Y-20450000D01*
X23365814Y-20482971D01*
X22043828Y-20482971D01*
X22085165Y-20392457D01*
X22105647Y-20250000D01*
X22085165Y-20107543D01*
X22025377Y-19976627D01*
X22017059Y-19967027D01*
X23365814Y-19967027D01*
X23478107Y-19999999D01*
X23478113Y-20000000D01*
X23621888Y-20000000D01*
X23621890Y-19999999D01*
X23734180Y-19967027D01*
X24815814Y-19967027D01*
X24928107Y-19999999D01*
X24928113Y-20000000D01*
X25071888Y-20000000D01*
X25071890Y-19999999D01*
X25184180Y-19967027D01*
X26265814Y-19967027D01*
X26378107Y-19999999D01*
X26378113Y-20000000D01*
X26521888Y-20000000D01*
X26521890Y-19999999D01*
X26634183Y-19967026D01*
X26447229Y-19780072D01*
X26434899Y-19788310D01*
X26431093Y-19800025D01*
X26421004Y-19811838D01*
X26265814Y-19967027D01*
X25184180Y-19967027D01*
X25184183Y-19967026D01*
X24997229Y-19780072D01*
X24984899Y-19788310D01*
X24981093Y-19800025D01*
X24971004Y-19811838D01*
X24815814Y-19967027D01*
X23734180Y-19967027D01*
X23734183Y-19967026D01*
X23547229Y-19780072D01*
X23534899Y-19788310D01*
X23531093Y-19800025D01*
X23521004Y-19811838D01*
X23365814Y-19967027D01*
X22017059Y-19967027D01*
X21931128Y-19867857D01*
X21931127Y-19867856D01*
X21931126Y-19867855D01*
X21810057Y-19790049D01*
X21810054Y-19790047D01*
X21810053Y-19790047D01*
X21810050Y-19790046D01*
X21671964Y-19749500D01*
X21671961Y-19749500D01*
X21629410Y-19749500D01*
X21571219Y-19730593D01*
X21536167Y-19683767D01*
X21535956Y-19683176D01*
X21532086Y-19672329D01*
X21514544Y-19637974D01*
X21496245Y-19602133D01*
X21416794Y-19522816D01*
X21416791Y-19522813D01*
X21383428Y-19500000D01*
X23044858Y-19500000D01*
X23065319Y-19642313D01*
X23083981Y-19683176D01*
X23234664Y-19532492D01*
X23450000Y-19532492D01*
X23488197Y-19585065D01*
X23534162Y-19600000D01*
X23565838Y-19600000D01*
X23611803Y-19585065D01*
X23650000Y-19532492D01*
X23650000Y-19497229D01*
X23830072Y-19497229D01*
X24016017Y-19683174D01*
X24034680Y-19642312D01*
X24034681Y-19642307D01*
X24055142Y-19500000D01*
X24494858Y-19500000D01*
X24515319Y-19642313D01*
X24533981Y-19683176D01*
X24684664Y-19532492D01*
X24900000Y-19532492D01*
X24938197Y-19585065D01*
X24984162Y-19600000D01*
X25015838Y-19600000D01*
X25061803Y-19585065D01*
X25100000Y-19532492D01*
X25100000Y-19497229D01*
X25280072Y-19497229D01*
X25466017Y-19683174D01*
X25484680Y-19642312D01*
X25484681Y-19642307D01*
X25505142Y-19500000D01*
X25944858Y-19500000D01*
X25965319Y-19642313D01*
X25983981Y-19683176D01*
X26134664Y-19532492D01*
X26350000Y-19532492D01*
X26388197Y-19585065D01*
X26434162Y-19600000D01*
X26465838Y-19600000D01*
X26511803Y-19585065D01*
X26550000Y-19532492D01*
X26550000Y-19497229D01*
X26730072Y-19497229D01*
X26916017Y-19683174D01*
X26934680Y-19642312D01*
X26934681Y-19642307D01*
X26955142Y-19500000D01*
X26955142Y-19499997D01*
X26934681Y-19357689D01*
X26916017Y-19316824D01*
X26761838Y-19471004D01*
X26740243Y-19482006D01*
X26730072Y-19497229D01*
X26550000Y-19497229D01*
X26550000Y-19467508D01*
X26511803Y-19414935D01*
X26465838Y-19400000D01*
X26434162Y-19400000D01*
X26388197Y-19414935D01*
X26350000Y-19467508D01*
X26350000Y-19532492D01*
X26134664Y-19532492D01*
X26167156Y-19500000D01*
X26167156Y-19499999D01*
X25983981Y-19316824D01*
X25965319Y-19357687D01*
X25965318Y-19357690D01*
X25944858Y-19499997D01*
X25944858Y-19500000D01*
X25505142Y-19500000D01*
X25505142Y-19499997D01*
X25484681Y-19357689D01*
X25466017Y-19316824D01*
X25311838Y-19471004D01*
X25290243Y-19482006D01*
X25280072Y-19497229D01*
X25100000Y-19497229D01*
X25100000Y-19467508D01*
X25061803Y-19414935D01*
X25015838Y-19400000D01*
X24984162Y-19400000D01*
X24938197Y-19414935D01*
X24900000Y-19467508D01*
X24900000Y-19532492D01*
X24684664Y-19532492D01*
X24717156Y-19500000D01*
X24717156Y-19499999D01*
X24533981Y-19316824D01*
X24515319Y-19357687D01*
X24515318Y-19357690D01*
X24494858Y-19499997D01*
X24494858Y-19500000D01*
X24055142Y-19500000D01*
X24055142Y-19499997D01*
X24034681Y-19357689D01*
X24016017Y-19316824D01*
X23861838Y-19471004D01*
X23840243Y-19482006D01*
X23830072Y-19497229D01*
X23650000Y-19497229D01*
X23650000Y-19467508D01*
X23611803Y-19414935D01*
X23565838Y-19400000D01*
X23534162Y-19400000D01*
X23488197Y-19414935D01*
X23450000Y-19467508D01*
X23450000Y-19532492D01*
X23234664Y-19532492D01*
X23267156Y-19500000D01*
X23267156Y-19499999D01*
X23083981Y-19316824D01*
X23065319Y-19357687D01*
X23065318Y-19357690D01*
X23044858Y-19499997D01*
X23044858Y-19500000D01*
X21383428Y-19500000D01*
X21366285Y-19488278D01*
X21366281Y-19488276D01*
X21366279Y-19488274D01*
X21279924Y-19447338D01*
X21279907Y-19447331D01*
X21231812Y-19433209D01*
X21206182Y-19421504D01*
X21182966Y-19406584D01*
X21161669Y-19388130D01*
X21143588Y-19367263D01*
X21128355Y-19343560D01*
X21116887Y-19318449D01*
X21108948Y-19291410D01*
X21105020Y-19264088D01*
X21105019Y-19235913D01*
X21108947Y-19208585D01*
X21116887Y-19181547D01*
X21128356Y-19156435D01*
X21143584Y-19132738D01*
X21161673Y-19111862D01*
X21182960Y-19093416D01*
X21206185Y-19078490D01*
X21231813Y-19066788D01*
X21258304Y-19059010D01*
X21286194Y-19055000D01*
X21343053Y-19055000D01*
X21345412Y-19055766D01*
X21357165Y-19055598D01*
X21359846Y-19055708D01*
X21363797Y-19055630D01*
X21363798Y-19055631D01*
X21363798Y-19055630D01*
X21369185Y-19055526D01*
X21370838Y-19055402D01*
X21373924Y-19055358D01*
X21373970Y-19055359D01*
X21377606Y-19055305D01*
X21377611Y-19055306D01*
X21378699Y-19055290D01*
X21378698Y-19055289D01*
X21383451Y-19055221D01*
X21383452Y-19055222D01*
X21393070Y-19055084D01*
X21398273Y-19055010D01*
X21399686Y-19055000D01*
X21409644Y-19055000D01*
X21411743Y-19054817D01*
X21425814Y-19054615D01*
X21435967Y-19054470D01*
X21509754Y-19044333D01*
X21533669Y-19032971D01*
X23365814Y-19032971D01*
X23549999Y-19217156D01*
X23734184Y-19032971D01*
X24815814Y-19032971D01*
X24999999Y-19217156D01*
X25184184Y-19032971D01*
X26265814Y-19032971D01*
X26449999Y-19217156D01*
X26634184Y-19032971D01*
X26521891Y-19000000D01*
X26378107Y-19000000D01*
X26265814Y-19032971D01*
X25184184Y-19032971D01*
X25071891Y-19000000D01*
X24928107Y-19000000D01*
X24815814Y-19032971D01*
X23734184Y-19032971D01*
X23621891Y-19000000D01*
X23478107Y-19000000D01*
X23365814Y-19032971D01*
X21533669Y-19032971D01*
X21611162Y-18996155D01*
X21660662Y-18960191D01*
X21717919Y-18906023D01*
X21771641Y-18807440D01*
X21786106Y-18762921D01*
X21790548Y-18749250D01*
X21805500Y-18654849D01*
X21805500Y-18589577D01*
X21805219Y-18576490D01*
X21805219Y-18576479D01*
X21804855Y-18568002D01*
X21793381Y-18517027D01*
X23365814Y-18517027D01*
X23478107Y-18549999D01*
X23478113Y-18550000D01*
X23621888Y-18550000D01*
X23621890Y-18549999D01*
X23734180Y-18517027D01*
X24815814Y-18517027D01*
X24928107Y-18549999D01*
X24928113Y-18550000D01*
X25071888Y-18550000D01*
X25071890Y-18549999D01*
X25184180Y-18517027D01*
X26265814Y-18517027D01*
X26378107Y-18549999D01*
X26378113Y-18550000D01*
X26521888Y-18550000D01*
X26521890Y-18549999D01*
X26634183Y-18517026D01*
X26447229Y-18330072D01*
X26434899Y-18338310D01*
X26431093Y-18350025D01*
X26421004Y-18361838D01*
X26265814Y-18517027D01*
X25184180Y-18517027D01*
X25184183Y-18517026D01*
X24997229Y-18330072D01*
X24984899Y-18338310D01*
X24981093Y-18350025D01*
X24971004Y-18361838D01*
X24815814Y-18517027D01*
X23734180Y-18517027D01*
X23734183Y-18517026D01*
X23547229Y-18330072D01*
X23534899Y-18338310D01*
X23531093Y-18350025D01*
X23521004Y-18361838D01*
X23365814Y-18517027D01*
X21793381Y-18517027D01*
X21781033Y-18462171D01*
X21768191Y-18431787D01*
X21768085Y-18430554D01*
X21763100Y-18419639D01*
X21761962Y-18417051D01*
X21757805Y-18407216D01*
X21757806Y-18407216D01*
X21757213Y-18405813D01*
X21757210Y-18405809D01*
X21755698Y-18402230D01*
X21755696Y-18402227D01*
X21748949Y-18386264D01*
X21748626Y-18385992D01*
X21742632Y-18374821D01*
X21729530Y-18346132D01*
X21716886Y-18318447D01*
X21708948Y-18291410D01*
X21705020Y-18264088D01*
X21705019Y-18235913D01*
X21708947Y-18208585D01*
X21716887Y-18181547D01*
X21766188Y-18073598D01*
X21769017Y-18067897D01*
X21771639Y-18063012D01*
X21771641Y-18063008D01*
X21775868Y-18050000D01*
X23044858Y-18050000D01*
X23065319Y-18192313D01*
X23083981Y-18233176D01*
X23234664Y-18082492D01*
X23450000Y-18082492D01*
X23488197Y-18135065D01*
X23534162Y-18150000D01*
X23565838Y-18150000D01*
X23611803Y-18135065D01*
X23650000Y-18082492D01*
X23650000Y-18047229D01*
X23830072Y-18047229D01*
X24016017Y-18233174D01*
X24034680Y-18192312D01*
X24034681Y-18192307D01*
X24055142Y-18050000D01*
X24494858Y-18050000D01*
X24515319Y-18192313D01*
X24533981Y-18233176D01*
X24684664Y-18082492D01*
X24900000Y-18082492D01*
X24938197Y-18135065D01*
X24984162Y-18150000D01*
X25015838Y-18150000D01*
X25061803Y-18135065D01*
X25100000Y-18082492D01*
X25100000Y-18047229D01*
X25280072Y-18047229D01*
X25466017Y-18233174D01*
X25484680Y-18192312D01*
X25484681Y-18192307D01*
X25505142Y-18050000D01*
X25944858Y-18050000D01*
X25965319Y-18192313D01*
X25983981Y-18233176D01*
X26134664Y-18082492D01*
X26350000Y-18082492D01*
X26388197Y-18135065D01*
X26434162Y-18150000D01*
X26465838Y-18150000D01*
X26511803Y-18135065D01*
X26550000Y-18082492D01*
X26550000Y-18047229D01*
X26730072Y-18047229D01*
X26916017Y-18233174D01*
X26934680Y-18192312D01*
X26934681Y-18192307D01*
X26955142Y-18050000D01*
X26955142Y-18049997D01*
X26934681Y-17907689D01*
X26916017Y-17866824D01*
X26761838Y-18021004D01*
X26740243Y-18032006D01*
X26730072Y-18047229D01*
X26550000Y-18047229D01*
X26550000Y-18017508D01*
X26511803Y-17964935D01*
X26465838Y-17950000D01*
X26434162Y-17950000D01*
X26388197Y-17964935D01*
X26350000Y-18017508D01*
X26350000Y-18082492D01*
X26134664Y-18082492D01*
X26167156Y-18050000D01*
X26167156Y-18049999D01*
X25983981Y-17866824D01*
X25965319Y-17907687D01*
X25965318Y-17907690D01*
X25944858Y-18049997D01*
X25944858Y-18050000D01*
X25505142Y-18050000D01*
X25505142Y-18049997D01*
X25484681Y-17907689D01*
X25466017Y-17866824D01*
X25311838Y-18021004D01*
X25290243Y-18032006D01*
X25280072Y-18047229D01*
X25100000Y-18047229D01*
X25100000Y-18017508D01*
X25061803Y-17964935D01*
X25015838Y-17950000D01*
X24984162Y-17950000D01*
X24938197Y-17964935D01*
X24900000Y-18017508D01*
X24900000Y-18082492D01*
X24684664Y-18082492D01*
X24717156Y-18050000D01*
X24717156Y-18049999D01*
X24533981Y-17866824D01*
X24515319Y-17907687D01*
X24515318Y-17907690D01*
X24494858Y-18049997D01*
X24494858Y-18050000D01*
X24055142Y-18050000D01*
X24055142Y-18049997D01*
X24034681Y-17907689D01*
X24016017Y-17866824D01*
X23861838Y-18021004D01*
X23840243Y-18032006D01*
X23830072Y-18047229D01*
X23650000Y-18047229D01*
X23650000Y-18017508D01*
X23611803Y-17964935D01*
X23565838Y-17950000D01*
X23534162Y-17950000D01*
X23488197Y-17964935D01*
X23450000Y-18017508D01*
X23450000Y-18082492D01*
X23234664Y-18082492D01*
X23267156Y-18050000D01*
X23267156Y-18049999D01*
X23083981Y-17866824D01*
X23065319Y-17907687D01*
X23065318Y-17907690D01*
X23044858Y-18049997D01*
X23044858Y-18050000D01*
X21775868Y-18050000D01*
X21790548Y-18004819D01*
X21805500Y-17910418D01*
X21805500Y-17582971D01*
X23365814Y-17582971D01*
X23549999Y-17767156D01*
X23734184Y-17582971D01*
X24815814Y-17582971D01*
X24999999Y-17767156D01*
X25184184Y-17582971D01*
X26265814Y-17582971D01*
X26449999Y-17767156D01*
X26634184Y-17582971D01*
X26521891Y-17550000D01*
X26378107Y-17550000D01*
X26265814Y-17582971D01*
X25184184Y-17582971D01*
X25071891Y-17550000D01*
X24928107Y-17550000D01*
X24815814Y-17582971D01*
X23734184Y-17582971D01*
X23621891Y-17550000D01*
X23478107Y-17550000D01*
X23365814Y-17582971D01*
X21805500Y-17582971D01*
X21805500Y-12600002D01*
X25744353Y-12600002D01*
X25764834Y-12742456D01*
X25824622Y-12873371D01*
X25824623Y-12873373D01*
X25918872Y-12982143D01*
X25918873Y-12982144D01*
X26039942Y-13059950D01*
X26039947Y-13059953D01*
X26146403Y-13091211D01*
X26178035Y-13100499D01*
X26178036Y-13100499D01*
X26178039Y-13100500D01*
X26178041Y-13100500D01*
X26321959Y-13100500D01*
X26321961Y-13100500D01*
X26460053Y-13059953D01*
X26581128Y-12982143D01*
X26675377Y-12873373D01*
X26735165Y-12742457D01*
X26755647Y-12600000D01*
X26735165Y-12457543D01*
X26675377Y-12326627D01*
X26581128Y-12217857D01*
X26581127Y-12217856D01*
X26581126Y-12217855D01*
X26460057Y-12140049D01*
X26460054Y-12140047D01*
X26460053Y-12140047D01*
X26460050Y-12140046D01*
X26321964Y-12099500D01*
X26321961Y-12099500D01*
X26178039Y-12099500D01*
X26178035Y-12099500D01*
X26039949Y-12140046D01*
X26039942Y-12140049D01*
X25918873Y-12217855D01*
X25824622Y-12326628D01*
X25764834Y-12457543D01*
X25744353Y-12599997D01*
X25744353Y-12600002D01*
X21805500Y-12600002D01*
X21805500Y-2099006D01*
X21804366Y-2084595D01*
X21801739Y-2051214D01*
X21796894Y-2020621D01*
X21790487Y-1990246D01*
X21742309Y-1888838D01*
X21742304Y-1888831D01*
X21706348Y-1839342D01*
X21706347Y-1839341D01*
X21706345Y-1839338D01*
X21652177Y-1782081D01*
X21652176Y-1782080D01*
X21652175Y-1782079D01*
X21553598Y-1728360D01*
X21553596Y-1728359D01*
X21495403Y-1709451D01*
X21495406Y-1709451D01*
X21401003Y-1694500D01*
X21401000Y-1694500D01*
X1099000Y-1694500D01*
X1051214Y-1698261D01*
X1034800Y-1700860D01*
X1020619Y-1703106D01*
X1020614Y-1703106D01*
X990247Y-1709512D01*
X990242Y-1709514D01*
X888841Y-1757689D01*
X888831Y-1757695D01*
X839342Y-1793651D01*
X782079Y-1847824D01*
X728360Y-1946401D01*
X728359Y-1946403D01*
X709451Y-2004595D01*
X696781Y-2084595D01*
X669004Y-2139112D01*
X614487Y-2166889D01*
X554055Y-2157318D01*
X510790Y-2114053D01*
X500000Y-2069108D01*
X500000Y-599000D01*
X518907Y-540809D01*
X568407Y-504845D01*
X599000Y-500000D01*
X49401000Y-500000D01*
X49459191Y-518907D01*
G37*
%TD.AperFunction*%
%TA.AperFunction,Conductor*%
G36*
X48957756Y-34674911D02*
G01*
X48971678Y-34660004D01*
X49141293Y-34419715D01*
X49276611Y-34158564D01*
X49307716Y-34071044D01*
X49345019Y-34022545D01*
X49403704Y-34005234D01*
X49461357Y-34025724D01*
X49495955Y-34076188D01*
X49500000Y-34104197D01*
X49500000Y-35401000D01*
X49481093Y-35459191D01*
X49431593Y-35495155D01*
X49401000Y-35500000D01*
X48108076Y-35500000D01*
X48049885Y-35481093D01*
X48013921Y-35431593D01*
X48013921Y-35370407D01*
X48049885Y-35320907D01*
X48068634Y-35310196D01*
X48291446Y-35213415D01*
X48542758Y-35060589D01*
X48672329Y-34955172D01*
X47925026Y-34207869D01*
X48062540Y-34099728D01*
X48200110Y-33940964D01*
X48208784Y-33925939D01*
X48957756Y-34674911D01*
G37*
%TD.AperFunction*%
%TA.AperFunction,Conductor*%
G36*
X17429581Y-29206348D02*
G01*
X17464089Y-29210891D01*
X17489041Y-29217575D01*
X17536735Y-29237330D01*
X17559112Y-29250251D01*
X17600052Y-29281665D01*
X17618326Y-29299939D01*
X17649744Y-29340883D01*
X17662667Y-29363264D01*
X17682420Y-29410950D01*
X17689109Y-29435916D01*
X17695844Y-29487077D01*
X17695844Y-29512919D01*
X17689108Y-29564087D01*
X17682418Y-29589053D01*
X17662669Y-29636729D01*
X17649749Y-29659108D01*
X17618331Y-29700054D01*
X17600054Y-29718331D01*
X17559108Y-29749749D01*
X17536729Y-29762669D01*
X17489053Y-29782418D01*
X17464088Y-29789108D01*
X17412921Y-29795844D01*
X17387076Y-29795844D01*
X17335909Y-29789107D01*
X17310948Y-29782419D01*
X17263269Y-29762670D01*
X17240890Y-29749749D01*
X17199941Y-29718328D01*
X17181666Y-29700053D01*
X17150247Y-29659107D01*
X17137325Y-29636727D01*
X17117579Y-29589053D01*
X17110892Y-29564094D01*
X17104155Y-29512921D01*
X17104155Y-29487080D01*
X17105346Y-29478030D01*
X17110891Y-29435906D01*
X17117575Y-29410958D01*
X17137332Y-29363259D01*
X17150250Y-29340886D01*
X17181667Y-29299942D01*
X17199937Y-29281673D01*
X17199948Y-29281665D01*
X17240890Y-29250248D01*
X17263264Y-29237328D01*
X17310952Y-29217576D01*
X17335899Y-29210892D01*
X17387077Y-29204155D01*
X17412916Y-29204155D01*
X17429581Y-29206348D01*
G37*
%TD.AperFunction*%
%TA.AperFunction,Conductor*%
G36*
X22629581Y-28306348D02*
G01*
X22664089Y-28310891D01*
X22689041Y-28317575D01*
X22736735Y-28337330D01*
X22759112Y-28350251D01*
X22800052Y-28381665D01*
X22818326Y-28399939D01*
X22849744Y-28440883D01*
X22862667Y-28463264D01*
X22882420Y-28510950D01*
X22889109Y-28535916D01*
X22895844Y-28587077D01*
X22895844Y-28612919D01*
X22889108Y-28664087D01*
X22882418Y-28689053D01*
X22862669Y-28736729D01*
X22849749Y-28759108D01*
X22818331Y-28800054D01*
X22800054Y-28818331D01*
X22759108Y-28849749D01*
X22736729Y-28862669D01*
X22689053Y-28882418D01*
X22664088Y-28889108D01*
X22612921Y-28895844D01*
X22587077Y-28895844D01*
X22535910Y-28889108D01*
X22510952Y-28882421D01*
X22463264Y-28862667D01*
X22440888Y-28849749D01*
X22399938Y-28818327D01*
X22381668Y-28800056D01*
X22350247Y-28759107D01*
X22337325Y-28736726D01*
X22317579Y-28689052D01*
X22310892Y-28664094D01*
X22304155Y-28612921D01*
X22304155Y-28587080D01*
X22305769Y-28574818D01*
X22310891Y-28535906D01*
X22317575Y-28510958D01*
X22337332Y-28463259D01*
X22350250Y-28440886D01*
X22381667Y-28399942D01*
X22399937Y-28381673D01*
X22399948Y-28381665D01*
X22440890Y-28350248D01*
X22463264Y-28337328D01*
X22510952Y-28317576D01*
X22535899Y-28310892D01*
X22587077Y-28304155D01*
X22612916Y-28304155D01*
X22629581Y-28306348D01*
G37*
%TD.AperFunction*%
%TA.AperFunction,Conductor*%
G36*
X24854581Y-28306348D02*
G01*
X24889089Y-28310891D01*
X24914041Y-28317575D01*
X24961735Y-28337330D01*
X24984112Y-28350251D01*
X25025052Y-28381665D01*
X25043326Y-28399939D01*
X25074744Y-28440883D01*
X25087667Y-28463264D01*
X25107420Y-28510950D01*
X25114109Y-28535916D01*
X25120844Y-28587077D01*
X25120844Y-28612919D01*
X25114108Y-28664087D01*
X25107418Y-28689053D01*
X25087669Y-28736729D01*
X25074749Y-28759108D01*
X25043331Y-28800054D01*
X25025054Y-28818331D01*
X24984108Y-28849749D01*
X24961729Y-28862669D01*
X24914053Y-28882418D01*
X24889088Y-28889108D01*
X24837921Y-28895844D01*
X24812077Y-28895844D01*
X24760910Y-28889108D01*
X24735952Y-28882421D01*
X24688264Y-28862667D01*
X24665888Y-28849749D01*
X24624938Y-28818327D01*
X24606668Y-28800056D01*
X24575247Y-28759107D01*
X24562325Y-28736726D01*
X24542579Y-28689052D01*
X24535892Y-28664094D01*
X24529155Y-28612921D01*
X24529155Y-28587080D01*
X24530769Y-28574818D01*
X24535891Y-28535906D01*
X24542575Y-28510958D01*
X24562332Y-28463259D01*
X24575250Y-28440886D01*
X24606667Y-28399942D01*
X24624937Y-28381673D01*
X24624948Y-28381665D01*
X24665890Y-28350248D01*
X24688264Y-28337328D01*
X24735952Y-28317576D01*
X24760899Y-28310892D01*
X24812077Y-28304155D01*
X24837916Y-28304155D01*
X24854581Y-28306348D01*
G37*
%TD.AperFunction*%
%TA.AperFunction,Conductor*%
G36*
X19429581Y-26606348D02*
G01*
X19464089Y-26610891D01*
X19489041Y-26617575D01*
X19524461Y-26632247D01*
X19524461Y-26632246D01*
X19536732Y-26637329D01*
X19559112Y-26650251D01*
X19600053Y-26681666D01*
X19618324Y-26699936D01*
X19649746Y-26740886D01*
X19662667Y-26763264D01*
X19682420Y-26810950D01*
X19689109Y-26835916D01*
X19695844Y-26887077D01*
X19695844Y-26912919D01*
X19689108Y-26964087D01*
X19682418Y-26989053D01*
X19662669Y-27036729D01*
X19649749Y-27059108D01*
X19618331Y-27100054D01*
X19600054Y-27118331D01*
X19559108Y-27149749D01*
X19536729Y-27162669D01*
X19489053Y-27182418D01*
X19464088Y-27189108D01*
X19412921Y-27195844D01*
X19387077Y-27195844D01*
X19335910Y-27189108D01*
X19310952Y-27182421D01*
X19263264Y-27162667D01*
X19240888Y-27149749D01*
X19199938Y-27118327D01*
X19181668Y-27100056D01*
X19150247Y-27059107D01*
X19137325Y-27036727D01*
X19117579Y-26989053D01*
X19110892Y-26964094D01*
X19104155Y-26912921D01*
X19104155Y-26887080D01*
X19105346Y-26878030D01*
X19110891Y-26835906D01*
X19117575Y-26810958D01*
X19137332Y-26763259D01*
X19150250Y-26740886D01*
X19181667Y-26699942D01*
X19199937Y-26681673D01*
X19240890Y-26650248D01*
X19263264Y-26637328D01*
X19310952Y-26617576D01*
X19335899Y-26610892D01*
X19387077Y-26604155D01*
X19412916Y-26604155D01*
X19429581Y-26606348D01*
G37*
%TD.AperFunction*%
%TA.AperFunction,Conductor*%
G36*
X17629581Y-22956348D02*
G01*
X17664089Y-22960891D01*
X17689041Y-22967575D01*
X17736735Y-22987330D01*
X17759112Y-23000251D01*
X17800052Y-23031665D01*
X17818326Y-23049939D01*
X17849744Y-23090883D01*
X17862667Y-23113264D01*
X17882420Y-23160950D01*
X17889109Y-23185916D01*
X17895844Y-23237077D01*
X17895844Y-23262919D01*
X17889108Y-23314087D01*
X17882418Y-23339053D01*
X17862669Y-23386729D01*
X17849749Y-23409108D01*
X17818331Y-23450054D01*
X17800054Y-23468331D01*
X17759108Y-23499749D01*
X17736729Y-23512669D01*
X17689053Y-23532418D01*
X17664088Y-23539108D01*
X17612921Y-23545844D01*
X17587077Y-23545844D01*
X17535910Y-23539108D01*
X17510945Y-23532418D01*
X17463269Y-23512669D01*
X17440889Y-23499748D01*
X17399941Y-23468328D01*
X17381667Y-23450054D01*
X17350252Y-23409114D01*
X17337329Y-23386732D01*
X17337328Y-23386729D01*
X17317577Y-23339048D01*
X17310891Y-23314093D01*
X17304154Y-23262913D01*
X17304154Y-23237086D01*
X17310892Y-23185902D01*
X17317575Y-23160958D01*
X17337332Y-23113259D01*
X17350250Y-23090886D01*
X17381667Y-23049942D01*
X17399937Y-23031673D01*
X17399948Y-23031665D01*
X17440890Y-23000248D01*
X17463264Y-22987328D01*
X17510952Y-22967576D01*
X17535899Y-22960892D01*
X17587077Y-22954155D01*
X17612916Y-22954155D01*
X17629581Y-22956348D01*
G37*
%TD.AperFunction*%
%TA.AperFunction,Conductor*%
G36*
X10929581Y-21086348D02*
G01*
X10964089Y-21090891D01*
X10989041Y-21097575D01*
X11036735Y-21117330D01*
X11059112Y-21130251D01*
X11100052Y-21161665D01*
X11118326Y-21179939D01*
X11149744Y-21220883D01*
X11162667Y-21243264D01*
X11182420Y-21290950D01*
X11189109Y-21315916D01*
X11195844Y-21367077D01*
X11195844Y-21392919D01*
X11189108Y-21444087D01*
X11182418Y-21469053D01*
X11162669Y-21516729D01*
X11149749Y-21539108D01*
X11118331Y-21580054D01*
X11100054Y-21598331D01*
X11059108Y-21629749D01*
X11036729Y-21642669D01*
X10989053Y-21662418D01*
X10964088Y-21669108D01*
X10912921Y-21675844D01*
X10887077Y-21675844D01*
X10835910Y-21669108D01*
X10810952Y-21662421D01*
X10763264Y-21642667D01*
X10740888Y-21629749D01*
X10699938Y-21598327D01*
X10681668Y-21580056D01*
X10650247Y-21539107D01*
X10637325Y-21516727D01*
X10617579Y-21469053D01*
X10610892Y-21444094D01*
X10604155Y-21392921D01*
X10604155Y-21367080D01*
X10605346Y-21358030D01*
X10610891Y-21315906D01*
X10617575Y-21290958D01*
X10637332Y-21243259D01*
X10650250Y-21220886D01*
X10681667Y-21179942D01*
X10699937Y-21161673D01*
X10699948Y-21161665D01*
X10709345Y-21154453D01*
X10740890Y-21130248D01*
X10763264Y-21117328D01*
X10810952Y-21097576D01*
X10835899Y-21090892D01*
X10887077Y-21084155D01*
X10912916Y-21084155D01*
X10929581Y-21086348D01*
G37*
%TD.AperFunction*%
%TA.AperFunction,Conductor*%
G36*
X10929581Y-18546348D02*
G01*
X10964089Y-18550891D01*
X10989041Y-18557575D01*
X11036735Y-18577330D01*
X11059112Y-18590251D01*
X11100052Y-18621665D01*
X11118324Y-18639936D01*
X11149747Y-18680886D01*
X11162668Y-18703266D01*
X11182026Y-18750001D01*
X11182035Y-18750022D01*
X11182427Y-18750969D01*
X11189107Y-18775908D01*
X11191563Y-18794559D01*
X11191564Y-18794569D01*
X11195844Y-18827076D01*
X11195844Y-18852921D01*
X11189108Y-18904088D01*
X11182418Y-18929053D01*
X11162669Y-18976729D01*
X11149749Y-18999108D01*
X11118331Y-19040054D01*
X11100054Y-19058331D01*
X11059108Y-19089749D01*
X11036729Y-19102669D01*
X10989053Y-19122418D01*
X10964088Y-19129108D01*
X10912921Y-19135844D01*
X10887076Y-19135844D01*
X10835909Y-19129107D01*
X10810948Y-19122419D01*
X10763269Y-19102670D01*
X10740890Y-19089749D01*
X10699941Y-19058328D01*
X10681666Y-19040053D01*
X10650247Y-18999107D01*
X10637325Y-18976727D01*
X10617579Y-18929053D01*
X10610892Y-18904094D01*
X10604155Y-18852921D01*
X10604155Y-18827080D01*
X10606740Y-18807440D01*
X10610891Y-18775906D01*
X10617575Y-18750958D01*
X10637332Y-18703259D01*
X10650250Y-18680886D01*
X10656308Y-18672991D01*
X10681667Y-18639942D01*
X10699937Y-18621673D01*
X10699948Y-18621665D01*
X10726585Y-18601225D01*
X10740890Y-18590248D01*
X10763264Y-18577328D01*
X10810952Y-18557576D01*
X10835899Y-18550892D01*
X10887077Y-18544155D01*
X10912916Y-18544155D01*
X10929581Y-18546348D01*
G37*
%TD.AperFunction*%
%TA.AperFunction,Conductor*%
G36*
X15029581Y-18456348D02*
G01*
X15064089Y-18460891D01*
X15089041Y-18467575D01*
X15136735Y-18487330D01*
X15159112Y-18500251D01*
X15200052Y-18531665D01*
X15218326Y-18549939D01*
X15249744Y-18590883D01*
X15262667Y-18613264D01*
X15282420Y-18660950D01*
X15289109Y-18685916D01*
X15295844Y-18737077D01*
X15295844Y-18762919D01*
X15289108Y-18814087D01*
X15282418Y-18839053D01*
X15262669Y-18886729D01*
X15249749Y-18909108D01*
X15218331Y-18950054D01*
X15200054Y-18968331D01*
X15159108Y-18999749D01*
X15136729Y-19012669D01*
X15089053Y-19032418D01*
X15064088Y-19039108D01*
X15012921Y-19045844D01*
X14987077Y-19045844D01*
X14935910Y-19039108D01*
X14910952Y-19032421D01*
X14863264Y-19012667D01*
X14840888Y-18999749D01*
X14799938Y-18968327D01*
X14781668Y-18950056D01*
X14750247Y-18909107D01*
X14737325Y-18886727D01*
X14717579Y-18839053D01*
X14710892Y-18814094D01*
X14704155Y-18762921D01*
X14704155Y-18737080D01*
X14710191Y-18691225D01*
X14710891Y-18685906D01*
X14717575Y-18660958D01*
X14737332Y-18613259D01*
X14750250Y-18590886D01*
X14781667Y-18549942D01*
X14799937Y-18531673D01*
X14799948Y-18531665D01*
X14840890Y-18500248D01*
X14863264Y-18487328D01*
X14910952Y-18467576D01*
X14935899Y-18460892D01*
X14987077Y-18454155D01*
X15012916Y-18454155D01*
X15029581Y-18456348D01*
G37*
%TD.AperFunction*%
%TA.AperFunction,Conductor*%
G36*
X18379581Y-17456348D02*
G01*
X18414089Y-17460891D01*
X18439041Y-17467575D01*
X18486735Y-17487330D01*
X18509112Y-17500251D01*
X18550052Y-17531665D01*
X18568326Y-17549939D01*
X18599744Y-17590883D01*
X18612667Y-17613264D01*
X18632420Y-17660950D01*
X18639109Y-17685916D01*
X18645844Y-17737077D01*
X18645844Y-17762919D01*
X18639108Y-17814087D01*
X18632418Y-17839053D01*
X18612669Y-17886729D01*
X18599749Y-17909108D01*
X18568331Y-17950054D01*
X18550054Y-17968331D01*
X18509108Y-17999749D01*
X18486729Y-18012669D01*
X18439053Y-18032418D01*
X18414088Y-18039108D01*
X18362921Y-18045844D01*
X18337077Y-18045844D01*
X18285910Y-18039108D01*
X18260952Y-18032421D01*
X18213264Y-18012667D01*
X18190888Y-17999749D01*
X18149938Y-17968327D01*
X18131668Y-17950056D01*
X18100247Y-17909107D01*
X18087325Y-17886727D01*
X18067579Y-17839053D01*
X18060892Y-17814094D01*
X18054155Y-17762921D01*
X18054155Y-17737080D01*
X18055346Y-17728030D01*
X18060891Y-17685906D01*
X18067575Y-17660958D01*
X18087332Y-17613259D01*
X18100250Y-17590886D01*
X18131667Y-17549942D01*
X18149937Y-17531673D01*
X18149948Y-17531665D01*
X18190890Y-17500248D01*
X18213264Y-17487328D01*
X18260952Y-17467576D01*
X18285899Y-17460892D01*
X18337077Y-17454155D01*
X18362916Y-17454155D01*
X18379581Y-17456348D01*
G37*
%TD.AperFunction*%
%TD*%
M02*
