%TF.GenerationSoftware,KiCad,Pcbnew,7.0.11+dfsg-1build4*%
%TF.CreationDate,2026-07-02T10:23:20+00:00*%
%TF.ProjectId,tmc5240-daughterboard-compact,746d6335-3234-4302-9d64-617567687465,rev?*%
%TF.SameCoordinates,Original*%
%TF.FileFunction,Other,User*%
%FSLAX46Y46*%
G04 Gerber Fmt 4.6, Leading zero omitted, Abs format (unit mm)*
G04 Created by KiCad (PCBNEW 7.0.11+dfsg-1build4) date 2026-07-02 10:23:20*
%MOMM*%
%LPD*%
G01*
G04 APERTURE LIST*
%ADD10C,0.050000*%
G04 APERTURE END LIST*
D10*
%TO.C,D2*%
X33900000Y-4650000D02*
X31600000Y-4650000D01*
X33900000Y-4650000D02*
X33900000Y-9350000D01*
X33900000Y-9350000D02*
X31600000Y-9350000D01*
X31600000Y-9350000D02*
X31600000Y-4650000D01*
%TO.C,SJ1*%
X20200000Y-25650000D02*
X20200000Y-28150000D01*
X20200000Y-25650000D02*
X24800000Y-25650000D01*
X24800000Y-28150000D02*
X20200000Y-28150000D01*
X24800000Y-28150000D02*
X24800000Y-25650000D01*
%TO.C,U1*%
X21900000Y-16400000D02*
X21900000Y-22600000D01*
X21900000Y-22600000D02*
X28100000Y-22600000D01*
X28100000Y-16400000D02*
X21900000Y-16400000D01*
X28100000Y-22600000D02*
X28100000Y-16400000D01*
%TO.C,C2*%
X36600000Y-10520000D02*
X40000000Y-10520000D01*
X36600000Y-12480000D02*
X36600000Y-10520000D01*
X40000000Y-10520000D02*
X40000000Y-12480000D01*
X40000000Y-12480000D02*
X36600000Y-12480000D01*
%TO.C,C6*%
X25120000Y-24670000D02*
X28080000Y-24670000D01*
X25120000Y-26130000D02*
X25120000Y-24670000D01*
X28080000Y-24670000D02*
X28080000Y-26130000D01*
X28080000Y-26130000D02*
X25120000Y-26130000D01*
%TO.C,J3*%
X49500000Y-9270000D02*
X41500000Y-9270000D01*
X49500000Y-9270000D02*
X49500000Y-29970000D01*
X41500000Y-29970000D02*
X41500000Y-9270000D01*
X41500000Y-29970000D02*
X49500000Y-29970000D01*
%TO.C,R4*%
X5870000Y-25730000D02*
X8830000Y-25730000D01*
X5870000Y-27190000D02*
X5870000Y-25730000D01*
X8830000Y-25730000D02*
X8830000Y-27190000D01*
X8830000Y-27190000D02*
X5870000Y-27190000D01*
%TO.C,C4*%
X32520000Y-10770000D02*
X35480000Y-10770000D01*
X32520000Y-12230000D02*
X32520000Y-10770000D01*
X35480000Y-10770000D02*
X35480000Y-12230000D01*
X35480000Y-12230000D02*
X32520000Y-12230000D01*
%TO.C,H2*%
X13650000Y-33600000D02*
G75*
G03*
X9350000Y-33600000I-2150000J0D01*
G01*
X9350000Y-33600000D02*
G75*
G03*
X13650000Y-33600000I2150000J0D01*
G01*
%TO.C,C8*%
X15120000Y-18020000D02*
X18080000Y-18020000D01*
X15120000Y-19480000D02*
X15120000Y-18020000D01*
X18080000Y-18020000D02*
X18080000Y-19480000D01*
X18080000Y-19480000D02*
X15120000Y-19480000D01*
%TO.C,R3*%
X7020000Y-23190000D02*
X9980000Y-23190000D01*
X7020000Y-24650000D02*
X7020000Y-23190000D01*
X9980000Y-23190000D02*
X9980000Y-24650000D01*
X9980000Y-24650000D02*
X7020000Y-24650000D01*
%TO.C,C5*%
X34020000Y-27870000D02*
X36980000Y-27870000D01*
X34020000Y-29330000D02*
X34020000Y-27870000D01*
X36980000Y-27870000D02*
X36980000Y-29330000D01*
X36980000Y-29330000D02*
X34020000Y-29330000D01*
%TO.C,J4*%
X15200000Y-34800000D02*
X28950000Y-34800000D01*
X28950000Y-34800000D02*
X28950000Y-31200000D01*
X15200000Y-31200000D02*
X15200000Y-34800000D01*
X28950000Y-31200000D02*
X15200000Y-31200000D01*
%TO.C,J2*%
X6590000Y-500000D02*
X6590000Y-8500000D01*
X6590000Y-500000D02*
X17090000Y-500000D01*
X17090000Y-8500000D02*
X6590000Y-8500000D01*
X17090000Y-8500000D02*
X17090000Y-500000D01*
%TO.C,H1*%
X49450000Y-33299999D02*
G75*
G03*
X45150000Y-33299999I-2150000J0D01*
G01*
X45150000Y-33299999D02*
G75*
G03*
X49450000Y-33299999I2150000J0D01*
G01*
%TO.C,R8*%
X30830000Y-8420000D02*
X30830000Y-11380000D01*
X29370000Y-8420000D02*
X30830000Y-8420000D01*
X30830000Y-11380000D02*
X29370000Y-11380000D01*
X29370000Y-11380000D02*
X29370000Y-8420000D01*
%TO.C,R11*%
X24120000Y-28770000D02*
X27080000Y-28770000D01*
X24120000Y-30230000D02*
X24120000Y-28770000D01*
X27080000Y-28770000D02*
X27080000Y-30230000D01*
X27080000Y-30230000D02*
X24120000Y-30230000D01*
%TO.C,R7*%
X7720000Y-20650000D02*
X10680000Y-20650000D01*
X7720000Y-22110000D02*
X7720000Y-20650000D01*
X10680000Y-20650000D02*
X10680000Y-22110000D01*
X10680000Y-22110000D02*
X7720000Y-22110000D01*
%TO.C,R10*%
X20820000Y-28770000D02*
X23780000Y-28770000D01*
X20820000Y-30230000D02*
X20820000Y-28770000D01*
X23780000Y-28770000D02*
X23780000Y-30230000D01*
X23780000Y-30230000D02*
X20820000Y-30230000D01*
%TO.C,D1*%
X41250000Y-4450000D02*
X48550000Y-4450000D01*
X41250000Y-8950000D02*
X41250000Y-4450000D01*
X48550000Y-4450000D02*
X48550000Y-8950000D01*
X48550000Y-8950000D02*
X41250000Y-8950000D01*
%TO.C,C3*%
X29800000Y-27620000D02*
X33200000Y-27620000D01*
X29800000Y-29580000D02*
X29800000Y-27620000D01*
X33200000Y-27620000D02*
X33200000Y-29580000D01*
X33200000Y-29580000D02*
X29800000Y-29580000D01*
%TO.C,J1*%
X2200000Y-1800000D02*
X2200000Y-33350000D01*
X2200000Y-33350000D02*
X5800000Y-33350000D01*
X5800000Y-1800000D02*
X2200000Y-1800000D01*
X5800000Y-33350000D02*
X5800000Y-1800000D01*
%TO.C,C7*%
X30580000Y-23800000D02*
X30580000Y-27200000D01*
X28620000Y-23800000D02*
X30580000Y-23800000D01*
X30580000Y-27200000D02*
X28620000Y-27200000D01*
X28620000Y-27200000D02*
X28620000Y-23800000D01*
%TO.C,R6*%
X7720000Y-18110000D02*
X10680000Y-18110000D01*
X7720000Y-19570000D02*
X7720000Y-18110000D01*
X10680000Y-18110000D02*
X10680000Y-19570000D01*
X10680000Y-19570000D02*
X7720000Y-19570000D01*
%TO.C,R9*%
X17520000Y-28770000D02*
X20480000Y-28770000D01*
X17520000Y-30230000D02*
X17520000Y-28770000D01*
X20480000Y-28770000D02*
X20480000Y-30230000D01*
X20480000Y-30230000D02*
X17520000Y-30230000D01*
%TO.C,F1*%
X18300000Y-1520000D02*
X27500000Y-1520000D01*
X18300000Y-7480000D02*
X18300000Y-1520000D01*
X27500000Y-1520000D02*
X27500000Y-7480000D01*
X27500000Y-7480000D02*
X18300000Y-7480000D01*
%TO.C,C1*%
X38600000Y-300000D02*
X36500000Y-300000D01*
X36500000Y-300000D02*
X36500000Y-1450000D01*
X39950000Y-1450000D02*
X38600000Y-1450000D01*
X39950000Y-1450000D02*
X41100000Y-2600000D01*
X38600000Y-1450000D02*
X38600000Y-300000D01*
X36500000Y-1450000D02*
X35150000Y-1450000D01*
X35150000Y-1450000D02*
X34000000Y-2600000D01*
X41100000Y-2600000D02*
X41100000Y-8550000D01*
X34000000Y-2600000D02*
X34000000Y-8550000D01*
X41100000Y-8550000D02*
X38600000Y-8550000D01*
X38600000Y-8550000D02*
X38600000Y-9700000D01*
X36500000Y-8550000D02*
X34000000Y-8550000D01*
X38600000Y-9700000D02*
X36500000Y-9700000D01*
X36500000Y-9700000D02*
X36500000Y-8550000D01*
%TO.C,C9*%
X18330000Y-20020000D02*
X18330000Y-22980000D01*
X16870000Y-20020000D02*
X18330000Y-20020000D01*
X18330000Y-22980000D02*
X16870000Y-22980000D01*
X16870000Y-22980000D02*
X16870000Y-20020000D01*
%TO.C,R5*%
X5870000Y-28270000D02*
X8830000Y-28270000D01*
X5870000Y-29730000D02*
X5870000Y-28270000D01*
X8830000Y-28270000D02*
X8830000Y-29730000D01*
X8830000Y-29730000D02*
X5870000Y-29730000D01*
%TO.C,R2*%
X5870000Y-15570000D02*
X8830000Y-15570000D01*
X5870000Y-17030000D02*
X5870000Y-15570000D01*
X8830000Y-15570000D02*
X8830000Y-17030000D01*
X8830000Y-17030000D02*
X5870000Y-17030000D01*
%TO.C,R1*%
X18420000Y-17020000D02*
X21380000Y-17020000D01*
X18420000Y-18480000D02*
X18420000Y-17020000D01*
X21380000Y-17020000D02*
X21380000Y-18480000D01*
X21380000Y-18480000D02*
X18420000Y-18480000D01*
%TO.C,Q1*%
X31420000Y-6200000D02*
X31420000Y-2800000D01*
X31420000Y-2800000D02*
X27580000Y-2800000D01*
X27580000Y-6200000D02*
X31420000Y-6200000D01*
X27580000Y-2800000D02*
X27580000Y-6200000D01*
%TD*%
M02*
